M48
; DRILL file {KiCad 7.0.9} date Sun Jun  2 15:37:01 2024
; FORMAT={-:-/ absolute / metric / decimal}
; #@! TF.CreationDate,2024-06-02T15:37:01-06:00
; #@! TF.GenerationSoftware,Kicad,Pcbnew,7.0.9
; #@! TF.FileFunction,Plated,1,2,PTH
FMAT,2
METRIC
; #@! TA.AperFunction,Plated,PTH,ViaDrill
T1C0.400
; #@! TA.AperFunction,Plated,PTH,ComponentDrill
T2C0.800
; #@! TA.AperFunction,Plated,PTH,ComponentDrill
T3C1.000
; #@! TA.AperFunction,Plated,PTH,ComponentDrill
T4C1.016
; #@! TA.AperFunction,Plated,PTH,ComponentDrill
T5C2.700
%
G90
G05
T1
X50.038Y-43.688
X50.038Y-45.466
X51.054Y-40.132
X61.372Y-38.1
X63.912Y-38.1
X64.008Y-42.418
X64.008Y-44.45
X65.024Y-30.988
X66.04Y-42.418
X66.04Y-44.45
X66.294Y-31.496
X66.452Y-38.1
X68.992Y-38.1
X69.088Y-52.578
X69.342Y-43.688
X70.612Y-29.464
X70.612Y-31.242
X71.628Y-30.48
X71.628Y-32.004
X71.628Y-43.688
X71.628Y-45.212
X73.152Y-43.688
X73.152Y-45.212
X75.184Y-27.94
X76.454Y-45.212
X77.47Y-42.164
X78.232Y-43.434
X78.74Y-33.528
X79.248Y-37.846
X79.248Y-40.64
X79.502Y-45.212
X79.751Y-31.237
X80.264Y-48.768
X81.28Y-30.734
X82.042Y-42.926
X85.344Y-31.496
X85.852Y-38.1
X87.376Y-38.1
X87.884Y-30.226
X87.884Y-31.496
X88.9Y-53.34
X91.44Y-46.99
X91.694Y-29.464
X91.694Y-31.242
X91.694Y-38.1
X92.71Y-30.226
X92.71Y-32.004
X92.71Y-44.45
X96.52Y-46.99
X97.536Y-30.226
X98.425Y-53.975
X100.965Y-38.735
X103.505Y-39.37
X106.045Y-41.364
X106.68Y-51.435
X107.442Y-27.94
X108.458Y-57.658
X109.855Y-45.72
X109.982Y-57.658
X110.744Y-33.528
X110.744Y-34.798
X110.744Y-36.068
X111.506Y-57.658
X113.03Y-57.658
T2
X94.615Y-46.99
X94.615Y-54.61
T3
X50.053Y-30.48
X50.8Y-60.452
X52.593Y-30.48
X53.34Y-60.452
X55.133Y-30.48
X55.88Y-60.452
X59.944Y-30.48
X62.484Y-30.48
X62.484Y-60.452
X65.024Y-60.452
X67.564Y-60.452
X74.422Y-60.452
X76.962Y-60.452
X79.502Y-60.452
X85.852Y-60.452
X88.392Y-60.452
X90.932Y-60.452
X97.551Y-60.452
X100.091Y-60.452
X100.33Y-30.48
X102.631Y-60.452
X102.87Y-30.48
X108.189Y-30.48
X110.729Y-30.48
X113.269Y-30.48
X116.226Y-48.26
X116.226Y-50.8
X116.226Y-53.34
T4
X51.212Y-35.56
X51.212Y-50.8
X53.752Y-35.56
X53.752Y-50.8
X56.292Y-35.56
X56.292Y-50.8
X58.832Y-35.56
X58.832Y-50.8
X61.372Y-35.56
X61.372Y-50.8
X63.912Y-35.56
X63.912Y-50.8
X66.452Y-35.56
X66.452Y-50.8
X68.992Y-35.56
X68.992Y-50.8
X71.532Y-35.56
X71.532Y-50.8
X74.072Y-35.56
X74.072Y-50.8
X76.612Y-35.56
X76.612Y-50.8
X79.152Y-35.56
X79.152Y-50.8
X81.692Y-35.56
X81.692Y-50.8
X84.232Y-35.56
X84.232Y-50.8
X86.772Y-35.56
X86.772Y-50.8
T5
X114.88Y-36.399
X114.88Y-41.399
T0
M30
