%TF.GenerationSoftware,KiCad,Pcbnew,7.0.6*%
%TF.CreationDate,2024-02-02T01:32:10-05:00*%
%TF.ProjectId,luytenPCB,6c757974-656e-4504-9342-2e6b69636164,rev?*%
%TF.SameCoordinates,Original*%
%TF.FileFunction,Soldermask,Bot*%
%TF.FilePolarity,Negative*%
%FSLAX46Y46*%
G04 Gerber Fmt 4.6, Leading zero omitted, Abs format (unit mm)*
G04 Created by KiCad (PCBNEW 7.0.6) date 2024-02-02 01:32:10*
%MOMM*%
%LPD*%
G01*
G04 APERTURE LIST*
G04 Aperture macros list*
%AMRoundRect*
0 Rectangle with rounded corners*
0 $1 Rounding radius*
0 $2 $3 $4 $5 $6 $7 $8 $9 X,Y pos of 4 corners*
0 Add a 4 corners polygon primitive as box body*
4,1,4,$2,$3,$4,$5,$6,$7,$8,$9,$2,$3,0*
0 Add four circle primitives for the rounded corners*
1,1,$1+$1,$2,$3*
1,1,$1+$1,$4,$5*
1,1,$1+$1,$6,$7*
1,1,$1+$1,$8,$9*
0 Add four rect primitives between the rounded corners*
20,1,$1+$1,$2,$3,$4,$5,0*
20,1,$1+$1,$4,$5,$6,$7,0*
20,1,$1+$1,$6,$7,$8,$9,0*
20,1,$1+$1,$8,$9,$2,$3,0*%
G04 Aperture macros list end*
%ADD10C,2.200000*%
%ADD11C,3.800000*%
%ADD12R,3.800000X3.800000*%
%ADD13O,1.600000X1.600000*%
%ADD14R,1.600000X1.600000*%
%ADD15O,1.700000X1.700000*%
%ADD16R,1.700000X1.700000*%
%ADD17O,2.000000X3.600000*%
%ADD18RoundRect,0.250000X-0.750000X-1.550000X0.750000X-1.550000X0.750000X1.550000X-0.750000X1.550000X0*%
%ADD19RoundRect,0.250000X0.750000X1.550000X-0.750000X1.550000X-0.750000X-1.550000X0.750000X-1.550000X0*%
%ADD20C,1.800000*%
%ADD21C,1.727200*%
%ADD22R,1.727200X1.727200*%
G04 APERTURE END LIST*
D10*
%TO.C,H4*%
X120300000Y-57000000D03*
%TD*%
%TO.C,H3*%
X44300000Y-57000000D03*
%TD*%
%TO.C,H2*%
X120300000Y-33000000D03*
%TD*%
%TO.C,H1*%
X44300000Y-33000000D03*
%TD*%
D11*
%TO.C,J1*%
X114879891Y-41399162D03*
D12*
X114879891Y-36399162D03*
%TD*%
D13*
%TO.C,SW1*%
X94615000Y-46990000D03*
D14*
X94615000Y-54610000D03*
%TD*%
D15*
%TO.C,J10*%
X116225548Y-53340000D03*
X116225548Y-50800000D03*
D16*
X116225548Y-48260000D03*
%TD*%
D17*
%TO.C,J9*%
X78580000Y-58690000D03*
X73580000Y-58690000D03*
D18*
X68580000Y-58690000D03*
%TD*%
D17*
%TO.C,J8*%
X60800000Y-58690000D03*
X55800000Y-58690000D03*
D18*
X50800000Y-58690000D03*
%TD*%
D17*
%TO.C,J7*%
X96360000Y-58690000D03*
X91360000Y-58690000D03*
D18*
X86360000Y-58690000D03*
%TD*%
D17*
%TO.C,J6*%
X114140000Y-58690000D03*
X109140000Y-58690000D03*
D18*
X104140000Y-58690000D03*
%TD*%
D17*
%TO.C,J5*%
X91222588Y-30447500D03*
X96222588Y-30447500D03*
D19*
X101222588Y-30447500D03*
%TD*%
D17*
%TO.C,J4*%
X63500000Y-30480000D03*
X68500000Y-30480000D03*
D19*
X73500000Y-30480000D03*
%TD*%
D17*
%TO.C,J3*%
X50760000Y-30480000D03*
D19*
X55760000Y-30480000D03*
%TD*%
D17*
%TO.C,J2*%
X108962588Y-30447500D03*
D19*
X113962588Y-30447500D03*
%TD*%
D20*
%TO.C,A1*%
X48672000Y-35560000D03*
X89312000Y-50800000D03*
X48672000Y-50800000D03*
X89312000Y-35560000D03*
D21*
X53752000Y-50800000D03*
X79152000Y-50800000D03*
X58832000Y-50800000D03*
X61372000Y-50800000D03*
X63912000Y-50800000D03*
X66452000Y-50800000D03*
X68992000Y-50800000D03*
X71532000Y-50800000D03*
X74072000Y-50800000D03*
X76612000Y-50800000D03*
X56292000Y-50800000D03*
X81692000Y-50800000D03*
X84232000Y-35560000D03*
X86772000Y-35560000D03*
X76612000Y-35560000D03*
X74072000Y-35560000D03*
X71532000Y-35560000D03*
X68992000Y-35560000D03*
X66452000Y-35560000D03*
X63912000Y-35560000D03*
X61372000Y-35560000D03*
X58832000Y-35560000D03*
X56292000Y-35560000D03*
X53752000Y-35560000D03*
X51212000Y-35560000D03*
X51212000Y-50800000D03*
D22*
X79152000Y-35560000D03*
X84232000Y-50800000D03*
D21*
X81692000Y-35560000D03*
X86772000Y-50800000D03*
%TD*%
M02*
