M48
; DRILL file {KiCad 8.0.5} date 2024-09-28T12:56:40-0400
; FORMAT={-:-/ absolute / inch / decimal}
; #@! TF.CreationDate,2024-09-28T12:56:40-04:00
; #@! TF.GenerationSoftware,Kicad,Pcbnew,8.0.5
; #@! TF.FileFunction,Plated,1,2,PTH
FMAT,2
INCH
; #@! TA.AperFunction,Plated,PTH,ViaDrill
T1C0.0157
; #@! TA.AperFunction,Plated,PTH,ComponentDrill
T2C0.0315
; #@! TA.AperFunction,Plated,PTH,ComponentDrill
T3C0.0394
; #@! TA.AperFunction,Plated,PTH,ComponentDrill
T4C0.1063
%
G90
G05
T1
X2.01Y-1.58
X2.144Y-1.572
X2.284Y-1.718
X2.284Y-1.788
X2.518Y-1.822
X2.52Y-1.67
X2.52Y-1.75
X2.6Y-1.67
X2.6Y-1.75
X2.6Y-1.824
X2.7756Y-1.2205
X2.815Y-1.5748
X2.82Y-1.72
X2.82Y-1.78
X2.88Y-1.72
X2.88Y-1.78
X2.9528Y-1.378
X3.0118Y-1.378
X3.6024Y-1.8701
X3.6024Y-2.1
X3.6417Y-1.2205
X3.7402Y-1.811
X3.7795Y-1.5157
X3.8189Y-1.2795
X3.8386Y-2.2244
X3.875Y-2.125
X3.9173Y-2.3031
X3.968Y-1.508
X4.052Y-1.512
X4.14Y-1.516
X4.27Y-2.27
X4.325Y-1.8
X4.33Y-2.27
X4.36Y-1.32
X4.36Y-1.37
X4.36Y-1.42
X4.39Y-2.27
X4.45Y-2.27
T2
X3.189Y-1.2205
X3.2677Y-1.2205
X3.7718Y-1.928
X3.7718Y-2.128
T3
X1.9706Y-1.2
X2.0Y-2.38
X2.022Y-1.474
X2.022Y-2.074
X2.0706Y-1.2
X2.1Y-2.38
X2.122Y-1.474
X2.122Y-2.074
X2.1706Y-1.2
X2.2Y-2.38
X2.222Y-1.474
X2.222Y-2.074
X2.322Y-1.474
X2.322Y-2.074
X2.3711Y-1.2008
X2.422Y-1.474
X2.422Y-2.074
X2.46Y-2.38
X2.4711Y-1.2008
X2.522Y-1.474
X2.522Y-2.074
X2.56Y-2.38
X2.622Y-1.474
X2.622Y-2.074
X2.66Y-2.38
X2.722Y-1.474
X2.722Y-2.074
X2.822Y-1.474
X2.822Y-2.074
X2.922Y-1.474
X2.922Y-2.074
X2.93Y-2.38
X3.022Y-1.474
X3.022Y-2.074
X3.03Y-2.38
X3.122Y-1.474
X3.122Y-2.074
X3.13Y-2.38
X3.222Y-1.474
X3.222Y-2.074
X3.322Y-1.474
X3.322Y-2.074
X3.38Y-2.38
X3.422Y-1.474
X3.422Y-2.074
X3.48Y-2.38
X3.58Y-2.38
X3.8406Y-2.38
X3.9406Y-2.38
X3.9463Y-1.2008
X4.0406Y-2.38
X4.0463Y-1.2008
X4.2594Y-1.2
X4.3594Y-1.2
X4.4594Y-1.2
X4.5758Y-1.9
X4.5758Y-2.0
X4.5758Y-2.1
T4
X4.5228Y-1.433
X4.5228Y-1.6299
M30
