%TF.GenerationSoftware,KiCad,Pcbnew,7.0.6*%
%TF.CreationDate,2024-02-02T01:32:10-05:00*%
%TF.ProjectId,luytenPCB,6c757974-656e-4504-9342-2e6b69636164,rev?*%
%TF.SameCoordinates,Original*%
%TF.FileFunction,Copper,L2,Bot*%
%TF.FilePolarity,Positive*%
%FSLAX46Y46*%
G04 Gerber Fmt 4.6, Leading zero omitted, Abs format (unit mm)*
G04 Created by KiCad (PCBNEW 7.0.6) date 2024-02-02 01:32:10*
%MOMM*%
%LPD*%
G01*
G04 APERTURE LIST*
G04 Aperture macros list*
%AMRoundRect*
0 Rectangle with rounded corners*
0 $1 Rounding radius*
0 $2 $3 $4 $5 $6 $7 $8 $9 X,Y pos of 4 corners*
0 Add a 4 corners polygon primitive as box body*
4,1,4,$2,$3,$4,$5,$6,$7,$8,$9,$2,$3,0*
0 Add four circle primitives for the rounded corners*
1,1,$1+$1,$2,$3*
1,1,$1+$1,$4,$5*
1,1,$1+$1,$6,$7*
1,1,$1+$1,$8,$9*
0 Add four rect primitives between the rounded corners*
20,1,$1+$1,$2,$3,$4,$5,0*
20,1,$1+$1,$4,$5,$6,$7,0*
20,1,$1+$1,$6,$7,$8,$9,0*
20,1,$1+$1,$8,$9,$2,$3,0*%
G04 Aperture macros list end*
%TA.AperFunction,ComponentPad*%
%ADD10C,3.800000*%
%TD*%
%TA.AperFunction,ComponentPad*%
%ADD11R,3.800000X3.800000*%
%TD*%
%TA.AperFunction,ComponentPad*%
%ADD12O,1.600000X1.600000*%
%TD*%
%TA.AperFunction,ComponentPad*%
%ADD13R,1.600000X1.600000*%
%TD*%
%TA.AperFunction,ComponentPad*%
%ADD14O,1.700000X1.700000*%
%TD*%
%TA.AperFunction,ComponentPad*%
%ADD15R,1.700000X1.700000*%
%TD*%
%TA.AperFunction,ComponentPad*%
%ADD16O,2.000000X3.600000*%
%TD*%
%TA.AperFunction,ComponentPad*%
%ADD17RoundRect,0.250000X-0.750000X-1.550000X0.750000X-1.550000X0.750000X1.550000X-0.750000X1.550000X0*%
%TD*%
%TA.AperFunction,ComponentPad*%
%ADD18RoundRect,0.250000X0.750000X1.550000X-0.750000X1.550000X-0.750000X-1.550000X0.750000X-1.550000X0*%
%TD*%
%TA.AperFunction,ComponentPad*%
%ADD19C,1.727200*%
%TD*%
%TA.AperFunction,ComponentPad*%
%ADD20R,1.727200X1.727200*%
%TD*%
%TA.AperFunction,ViaPad*%
%ADD21C,0.800000*%
%TD*%
%TA.AperFunction,Conductor*%
%ADD22C,0.250000*%
%TD*%
G04 APERTURE END LIST*
D10*
%TO.P,J1,2,Pin_2*%
%TO.N,GND*%
X114879891Y-41399162D03*
D11*
%TO.P,J1,1,Pin_1*%
%TO.N,Net-(J1-Pin_1)*%
X114879891Y-36399162D03*
%TD*%
D12*
%TO.P,SW1,2,B*%
%TO.N,Net-(J1-Pin_1)*%
X94615000Y-46990000D03*
D13*
%TO.P,SW1,1,A*%
%TO.N,Net-(SW1-A)*%
X94615000Y-54610000D03*
%TD*%
D14*
%TO.P,J10,3,Pin_3*%
%TO.N,START_SIGNAL*%
X116225548Y-53340000D03*
%TO.P,J10,2,Pin_2*%
%TO.N,GND*%
X116225548Y-50800000D03*
D15*
%TO.P,J10,1,Pin_1*%
%TO.N,Arduino3.3V*%
X116225548Y-48260000D03*
%TD*%
D16*
%TO.P,J9,3,Pin_3*%
%TO.N,GND*%
X78580000Y-58690000D03*
%TO.P,J9,2,Pin_2*%
%TO.N,DIST_RM_INT*%
X73580000Y-58690000D03*
D17*
%TO.P,J9,1,Pin_1*%
%TO.N,Arduino3.3V*%
X68580000Y-58690000D03*
%TD*%
D16*
%TO.P,J8,3,Pin_3*%
%TO.N,GND*%
X60800000Y-58690000D03*
%TO.P,J8,2,Pin_2*%
%TO.N,DIST_R_INT*%
X55800000Y-58690000D03*
D17*
%TO.P,J8,1,Pin_1*%
%TO.N,Arduino3.3V*%
X50800000Y-58690000D03*
%TD*%
D16*
%TO.P,J7,3,Pin_3*%
%TO.N,GND*%
X96360000Y-58690000D03*
%TO.P,J7,2,Pin_2*%
%TO.N,DIST_LM_INT*%
X91360000Y-58690000D03*
D17*
%TO.P,J7,1,Pin_1*%
%TO.N,Arduino3.3V*%
X86360000Y-58690000D03*
%TD*%
D16*
%TO.P,J6,3,Pin_3*%
%TO.N,GND*%
X114140000Y-58690000D03*
%TO.P,J6,2,Pin_2*%
%TO.N,DIST_L_INT*%
X109140000Y-58690000D03*
D17*
%TO.P,J6,1,Pin_1*%
%TO.N,Arduino3.3V*%
X104140000Y-58690000D03*
%TD*%
D16*
%TO.P,J5,3,Pin_3*%
%TO.N,GND*%
X91222588Y-30447500D03*
%TO.P,J5,2,Pin_2*%
%TO.N,LF_INT*%
X96222588Y-30447500D03*
D18*
%TO.P,J5,1,Pin_1*%
%TO.N,Arduino3.3V*%
X101222588Y-30447500D03*
%TD*%
D16*
%TO.P,J4,3,Pin_3*%
%TO.N,GND*%
X63500000Y-30480000D03*
%TO.P,J4,2,Pin_2*%
%TO.N,RF_INT*%
X68500000Y-30480000D03*
D18*
%TO.P,J4,1,Pin_1*%
%TO.N,Arduino3.3V*%
X73500000Y-30480000D03*
%TD*%
D16*
%TO.P,J3,2,Pin_2*%
%TO.N,Net-(IC2-OUT1)*%
X50760000Y-30480000D03*
D18*
%TO.P,J3,1,Pin_1*%
%TO.N,Net-(IC2-OUT2)*%
X55760000Y-30480000D03*
%TD*%
D16*
%TO.P,J2,2,Pin_2*%
%TO.N,Net-(IC1-OUT1)*%
X108962588Y-30447500D03*
D18*
%TO.P,J2,1,Pin_1*%
%TO.N,Net-(IC1-OUT2)*%
X113962588Y-30447500D03*
%TD*%
D19*
%TO.P,A1,3V3,3.3V*%
%TO.N,Arduino3.3V*%
X53752000Y-50800000D03*
%TO.P,A1,5V,5V*%
%TO.N,unconnected-(A1-Pad5V)*%
X79152000Y-50800000D03*
%TO.P,A1,A0,A0*%
%TO.N,DIST_R_INT*%
X58832000Y-50800000D03*
%TO.P,A1,A1,A1*%
%TO.N,DIST_RM_INT*%
X61372000Y-50800000D03*
%TO.P,A1,A2,A2*%
%TO.N,DIST_LM_INT*%
X63912000Y-50800000D03*
%TO.P,A1,A3,A3*%
%TO.N,DIST_L_INT*%
X66452000Y-50800000D03*
%TO.P,A1,A4,A4/SDA*%
%TO.N,unconnected-(A1-A4{slash}SDA-PadA4)*%
X68992000Y-50800000D03*
%TO.P,A1,A5,A5/SCL*%
%TO.N,unconnected-(A1-A5{slash}SCL-PadA5)*%
X71532000Y-50800000D03*
%TO.P,A1,A6,A6*%
%TO.N,unconnected-(A1-PadA6)*%
X74072000Y-50800000D03*
%TO.P,A1,A7,A7*%
%TO.N,unconnected-(A1-PadA7)*%
X76612000Y-50800000D03*
%TO.P,A1,B0,B0*%
%TO.N,unconnected-(A1-PadB0)*%
X56292000Y-50800000D03*
%TO.P,A1,B1,B1*%
%TO.N,unconnected-(A1-PadB1)*%
X81692000Y-50800000D03*
%TO.P,A1,D0,D0/RX*%
%TO.N,unconnected-(A1-D0{slash}RX-PadD0)*%
X84232000Y-35560000D03*
%TO.P,A1,D1,D1/TX*%
%TO.N,unconnected-(A1-D1{slash}TX-PadD1)*%
X86772000Y-35560000D03*
%TO.P,A1,D2,D2*%
%TO.N,MDC1_1*%
X76612000Y-35560000D03*
%TO.P,A1,D3,D3*%
%TO.N,MDC1_2*%
X74072000Y-35560000D03*
%TO.P,A1,D4,D4*%
%TO.N,LF_INT*%
X71532000Y-35560000D03*
%TO.P,A1,D5,D5*%
%TO.N,PS1*%
X68992000Y-35560000D03*
%TO.P,A1,D6,D6*%
%TO.N,PS2*%
X66452000Y-35560000D03*
%TO.P,A1,D7,D7*%
%TO.N,PS3*%
X63912000Y-35560000D03*
%TO.P,A1,D8,D8*%
%TO.N,START_SIGNAL*%
X61372000Y-35560000D03*
%TO.P,A1,D9,D9*%
%TO.N,unconnected-(A1-PadD9)*%
X58832000Y-35560000D03*
%TO.P,A1,D10,D10*%
%TO.N,RF_INT*%
X56292000Y-35560000D03*
%TO.P,A1,D11,D11_MOSI*%
%TO.N,MDC2_1*%
X53752000Y-35560000D03*
%TO.P,A1,D12,D12_MISO*%
%TO.N,MDC2_2*%
X51212000Y-35560000D03*
%TO.P,A1,D13,D13_SCK*%
%TO.N,unconnected-(A1-D13_SCK-PadD13)*%
X51212000Y-50800000D03*
D20*
%TO.P,A1,GND1,GND*%
%TO.N,GND*%
X79152000Y-35560000D03*
%TO.P,A1,GND2,GND*%
X84232000Y-50800000D03*
D19*
%TO.P,A1,RST,~{RESET}*%
%TO.N,unconnected-(A1-~{RESET}-PadRST)*%
X81692000Y-35560000D03*
%TO.P,A1,VIN,VIN*%
%TO.N,ArduinoVIN*%
X86772000Y-50800000D03*
%TD*%
D21*
%TO.N,GND*%
X106807000Y-49530000D03*
X98171000Y-45847000D03*
X98171000Y-48514000D03*
X88265000Y-43180000D03*
X82677000Y-44196000D03*
X88265000Y-40639500D03*
X91567000Y-40639500D03*
X91059000Y-34379500D03*
%TO.N,DIST_L_INT*%
X85344000Y-52705000D03*
%TO.N,Arduino3.3V*%
X105283000Y-55372000D03*
%TO.N,ArduinoVIN*%
X92710000Y-44450000D03*
X91440000Y-46990000D03*
%TO.N,PS3*%
X65405000Y-41275000D03*
X106045000Y-41364500D03*
%TO.N,PS2*%
X69215000Y-40640000D03*
X103505000Y-39370000D03*
%TO.N,PS1*%
X100965000Y-38735000D03*
X71755000Y-39370000D03*
%TO.N,START_SIGNAL*%
X62865000Y-46355000D03*
X106680000Y-51435000D03*
%TO.N,Arduino3.3V*%
X52705000Y-55880000D03*
X93980000Y-32930500D03*
%TO.N,ArduinoVIN*%
X98425000Y-53975000D03*
X88900000Y-53340000D03*
%TO.N,Net-(J1-Pin_1)*%
X96520000Y-46990000D03*
X109855000Y-45720000D03*
%TO.N,Net-(IC1-OUT2)*%
X94615000Y-44450000D03*
X108585000Y-43815000D03*
%TO.N,Net-(IC1-OUT1)*%
X107950000Y-40005000D03*
X94615000Y-40640000D03*
%TO.N,Net-(IC2-OUT2)*%
X57785000Y-32930500D03*
X94399519Y-35201009D03*
%TO.N,Net-(IC2-OUT1)*%
X52070000Y-33655000D03*
X93675019Y-35939519D03*
%TO.N,MDC2_2*%
X90170000Y-38464503D03*
X53338453Y-38437143D03*
%TO.N,MDC2_1*%
X55245000Y-37465000D03*
X90170000Y-37465000D03*
%TD*%
D22*
%TO.N,GND*%
X83693000Y-43180000D02*
X82677000Y-44196000D01*
X88265000Y-43180000D02*
X83693000Y-43180000D01*
X91567000Y-40639500D02*
X88265000Y-40639500D01*
X90964500Y-34285000D02*
X91059000Y-34379500D01*
X80427000Y-34285000D02*
X90964500Y-34285000D01*
X79152000Y-35560000D02*
X80427000Y-34285000D01*
%TO.N,DIST_L_INT*%
X66452000Y-52101000D02*
X66452000Y-50800000D01*
X67056000Y-52705000D02*
X66452000Y-52101000D01*
X85344000Y-52705000D02*
X67056000Y-52705000D01*
%TO.N,Arduino3.3V*%
X105283000Y-55372000D02*
X105283000Y-57547000D01*
X105283000Y-57547000D02*
X104140000Y-58690000D01*
%TO.N,ArduinoVIN*%
X91440000Y-45720000D02*
X92710000Y-44450000D01*
X91440000Y-46990000D02*
X91440000Y-45720000D01*
%TO.N,PS2*%
X102960000Y-39915000D02*
X73750000Y-39915000D01*
X103505000Y-39370000D02*
X102960000Y-39915000D01*
X73750000Y-39915000D02*
X73025000Y-40640000D01*
X73025000Y-40640000D02*
X69215000Y-40640000D01*
%TO.N,PS3*%
X106045000Y-41364500D02*
X65494500Y-41364500D01*
X65494500Y-41364500D02*
X65405000Y-41275000D01*
%TO.N,PS1*%
X100330000Y-39370000D02*
X71755000Y-39370000D01*
X100965000Y-38735000D02*
X100330000Y-39370000D01*
%TO.N,START_SIGNAL*%
X64135000Y-47625000D02*
X62865000Y-46355000D01*
X90805000Y-47625000D02*
X64135000Y-47625000D01*
X106680000Y-51435000D02*
X94615000Y-51435000D01*
X94615000Y-51435000D02*
X90805000Y-47625000D01*
%TO.N,Arduino3.3V*%
X53752000Y-54833000D02*
X53752000Y-50800000D01*
X52705000Y-55880000D02*
X53752000Y-54833000D01*
X93980000Y-32930500D02*
X98739588Y-32930500D01*
X98739588Y-32930500D02*
X101222588Y-30447500D01*
%TO.N,ArduinoVIN*%
X98425000Y-53975000D02*
X97790000Y-53340000D01*
X97790000Y-53340000D02*
X88900000Y-53340000D01*
%TO.N,Net-(J1-Pin_1)*%
X96520000Y-46990000D02*
X108585000Y-46990000D01*
X108585000Y-46990000D02*
X109855000Y-45720000D01*
%TO.N,Net-(IC2-OUT1)*%
X93675019Y-35939519D02*
X91390500Y-33655000D01*
X91390500Y-33655000D02*
X52070000Y-33655000D01*
%TO.N,Net-(IC2-OUT2)*%
X92128510Y-32930000D02*
X57785500Y-32930000D01*
X57785500Y-32930000D02*
X57785000Y-32930500D01*
X94399519Y-35201009D02*
X92128510Y-32930000D01*
%TO.N,Net-(IC1-OUT2)*%
X107950000Y-44450000D02*
X108585000Y-43815000D01*
X94615000Y-44450000D02*
X107950000Y-44450000D01*
%TO.N,Net-(IC1-OUT1)*%
X107315000Y-40640000D02*
X107950000Y-40005000D01*
X94615000Y-40640000D02*
X107315000Y-40640000D01*
%TO.N,MDC2_2*%
X53338453Y-38437143D02*
X53365813Y-38464503D01*
X53365813Y-38464503D02*
X90170000Y-38464503D01*
%TO.N,MDC2_1*%
X90170000Y-37465000D02*
X55245000Y-37465000D01*
%TD*%
%TA.AperFunction,Conductor*%
%TO.N,GND*%
G36*
X88840295Y-34300185D02*
G01*
X88886050Y-34352989D01*
X88895994Y-34422147D01*
X88866969Y-34485703D01*
X88828527Y-34515500D01*
X88703746Y-34577632D01*
X88533593Y-34706127D01*
X88389947Y-34863699D01*
X88277702Y-35044980D01*
X88277698Y-35044988D01*
X88272696Y-35057900D01*
X88230120Y-35113299D01*
X88164352Y-35136885D01*
X88096272Y-35121170D01*
X88047496Y-35071144D01*
X88043522Y-35062922D01*
X87975802Y-34908535D01*
X87946508Y-34863698D01*
X87852157Y-34719283D01*
X87852149Y-34719272D01*
X87699049Y-34552963D01*
X87699039Y-34552954D01*
X87634027Y-34502353D01*
X87593214Y-34445643D01*
X87589539Y-34375870D01*
X87624171Y-34315187D01*
X87686112Y-34282860D01*
X87710189Y-34280500D01*
X88773256Y-34280500D01*
X88840295Y-34300185D01*
G37*
%TD.AperFunction*%
%TA.AperFunction,Conductor*%
G36*
X83360850Y-34300185D02*
G01*
X83406605Y-34352989D01*
X83416549Y-34422147D01*
X83387524Y-34485703D01*
X83369973Y-34502353D01*
X83304960Y-34552954D01*
X83304950Y-34552963D01*
X83151850Y-34719272D01*
X83151842Y-34719283D01*
X83065808Y-34850968D01*
X83012662Y-34896325D01*
X82943430Y-34905748D01*
X82880095Y-34876246D01*
X82858192Y-34850968D01*
X82772157Y-34719283D01*
X82772149Y-34719272D01*
X82619049Y-34552963D01*
X82619039Y-34552954D01*
X82554027Y-34502353D01*
X82513214Y-34445643D01*
X82509539Y-34375870D01*
X82544171Y-34315187D01*
X82606112Y-34282860D01*
X82630189Y-34280500D01*
X83293811Y-34280500D01*
X83360850Y-34300185D01*
G37*
%TD.AperFunction*%
%TA.AperFunction,Conductor*%
G36*
X85900850Y-34300185D02*
G01*
X85946605Y-34352989D01*
X85956549Y-34422147D01*
X85927524Y-34485703D01*
X85909973Y-34502353D01*
X85844960Y-34552954D01*
X85844950Y-34552963D01*
X85691850Y-34719272D01*
X85691842Y-34719283D01*
X85605808Y-34850968D01*
X85552662Y-34896325D01*
X85483430Y-34905748D01*
X85420095Y-34876246D01*
X85398192Y-34850968D01*
X85312157Y-34719283D01*
X85312149Y-34719272D01*
X85159049Y-34552963D01*
X85159039Y-34552954D01*
X85094027Y-34502353D01*
X85053214Y-34445643D01*
X85049539Y-34375870D01*
X85084171Y-34315187D01*
X85146112Y-34282860D01*
X85170189Y-34280500D01*
X85833811Y-34280500D01*
X85900850Y-34300185D01*
G37*
%TD.AperFunction*%
%TA.AperFunction,Conductor*%
G36*
X80820850Y-34300185D02*
G01*
X80866605Y-34352989D01*
X80876549Y-34422147D01*
X80847524Y-34485703D01*
X80829973Y-34502353D01*
X80764960Y-34552954D01*
X80764955Y-34552958D01*
X80710186Y-34612453D01*
X80650298Y-34648443D01*
X80580460Y-34646342D01*
X80522845Y-34606817D01*
X80502775Y-34571803D01*
X80456537Y-34447834D01*
X80451553Y-34378142D01*
X80485038Y-34316819D01*
X80546361Y-34283334D01*
X80572719Y-34280500D01*
X80753811Y-34280500D01*
X80820850Y-34300185D01*
G37*
%TD.AperFunction*%
%TA.AperFunction,Conductor*%
G36*
X118180039Y-27325185D02*
G01*
X118225794Y-27377989D01*
X118237000Y-27429500D01*
X118237000Y-38594870D01*
X118236933Y-38597742D01*
X118235702Y-38624295D01*
X118236604Y-38629395D01*
X118237000Y-38710089D01*
X118237000Y-62740500D01*
X118217315Y-62807539D01*
X118164511Y-62853294D01*
X118113000Y-62864500D01*
X46479000Y-62864500D01*
X46411961Y-62844815D01*
X46366206Y-62792011D01*
X46355000Y-62740500D01*
X46355000Y-50906610D01*
X47521500Y-50906610D01*
X47560679Y-51116198D01*
X47560680Y-51116200D01*
X47631883Y-51300000D01*
X47637702Y-51315019D01*
X47749948Y-51496302D01*
X47881600Y-51640716D01*
X47893593Y-51653872D01*
X48063746Y-51782367D01*
X48254606Y-51877403D01*
X48254608Y-51877403D01*
X48254611Y-51877405D01*
X48459690Y-51935756D01*
X48618806Y-51950500D01*
X48618810Y-51950500D01*
X48725190Y-51950500D01*
X48725194Y-51950500D01*
X48884310Y-51935756D01*
X49089389Y-51877405D01*
X49089393Y-51877403D01*
X49089394Y-51877403D01*
X49280253Y-51782367D01*
X49280253Y-51782366D01*
X49280255Y-51782366D01*
X49450407Y-51653872D01*
X49594052Y-51496302D01*
X49706298Y-51315019D01*
X49711300Y-51302106D01*
X49753872Y-51246705D01*
X49819639Y-51223114D01*
X49887719Y-51238825D01*
X49936499Y-51288848D01*
X49940483Y-51297090D01*
X50008198Y-51451466D01*
X50131842Y-51640716D01*
X50131850Y-51640727D01*
X50284950Y-51807036D01*
X50284954Y-51807040D01*
X50463351Y-51945893D01*
X50662169Y-52053488D01*
X50662172Y-52053489D01*
X50875982Y-52126890D01*
X50875984Y-52126890D01*
X50875986Y-52126891D01*
X51098967Y-52164100D01*
X51098968Y-52164100D01*
X51325032Y-52164100D01*
X51325033Y-52164100D01*
X51548014Y-52126891D01*
X51761831Y-52053488D01*
X51960649Y-51945893D01*
X52139046Y-51807040D01*
X52292156Y-51640719D01*
X52378193Y-51509028D01*
X52431338Y-51463675D01*
X52500569Y-51454251D01*
X52563905Y-51483753D01*
X52585804Y-51509025D01*
X52671844Y-51640719D01*
X52671849Y-51640724D01*
X52671850Y-51640727D01*
X52824950Y-51807036D01*
X52824954Y-51807040D01*
X53003351Y-51945893D01*
X53061517Y-51977370D01*
X53111107Y-52026588D01*
X53126500Y-52086425D01*
X53126500Y-54522547D01*
X53106815Y-54589586D01*
X53090181Y-54610228D01*
X52757228Y-54943181D01*
X52695905Y-54976666D01*
X52669547Y-54979500D01*
X52610354Y-54979500D01*
X52577897Y-54986398D01*
X52425197Y-55018855D01*
X52425192Y-55018857D01*
X52252270Y-55095848D01*
X52252265Y-55095851D01*
X52099129Y-55207111D01*
X51972466Y-55347785D01*
X51877821Y-55511715D01*
X51877818Y-55511722D01*
X51819327Y-55691740D01*
X51819326Y-55691744D01*
X51799540Y-55880000D01*
X51819326Y-56068256D01*
X51819327Y-56068259D01*
X51878435Y-56250174D01*
X51880430Y-56320015D01*
X51844350Y-56379848D01*
X51781649Y-56410676D01*
X51721504Y-56406199D01*
X51702800Y-56400002D01*
X51702795Y-56400000D01*
X51600010Y-56389500D01*
X49999998Y-56389500D01*
X49999981Y-56389501D01*
X49897203Y-56400000D01*
X49897200Y-56400001D01*
X49730668Y-56455185D01*
X49730663Y-56455187D01*
X49581342Y-56547289D01*
X49457289Y-56671342D01*
X49365187Y-56820663D01*
X49365185Y-56820666D01*
X49365186Y-56820666D01*
X49310001Y-56987203D01*
X49310001Y-56987204D01*
X49310000Y-56987204D01*
X49299500Y-57089983D01*
X49299500Y-60290001D01*
X49299501Y-60290018D01*
X49310000Y-60392796D01*
X49310001Y-60392799D01*
X49365185Y-60559331D01*
X49365187Y-60559336D01*
X49388874Y-60597738D01*
X49457288Y-60708656D01*
X49581344Y-60832712D01*
X49730666Y-60924814D01*
X49897203Y-60979999D01*
X49999991Y-60990500D01*
X51600008Y-60990499D01*
X51702797Y-60979999D01*
X51869334Y-60924814D01*
X52018656Y-60832712D01*
X52142712Y-60708656D01*
X52234814Y-60559334D01*
X52289999Y-60392797D01*
X52300500Y-60290009D01*
X52300500Y-59552065D01*
X54299500Y-59552065D01*
X54314890Y-59737813D01*
X54314892Y-59737824D01*
X54375936Y-59978881D01*
X54475826Y-60206606D01*
X54611833Y-60414782D01*
X54611836Y-60414785D01*
X54780256Y-60597738D01*
X54976491Y-60750474D01*
X54976493Y-60750475D01*
X55194332Y-60868364D01*
X55195190Y-60868828D01*
X55414141Y-60943994D01*
X55428964Y-60949083D01*
X55430386Y-60949571D01*
X55675665Y-60990500D01*
X55924335Y-60990500D01*
X56169614Y-60949571D01*
X56404810Y-60868828D01*
X56623509Y-60750474D01*
X56819744Y-60597738D01*
X56988164Y-60414785D01*
X57124173Y-60206607D01*
X57224063Y-59978881D01*
X57285108Y-59737821D01*
X57300500Y-59552067D01*
X57300500Y-59552041D01*
X59300000Y-59552041D01*
X59315385Y-59737730D01*
X59315387Y-59737738D01*
X59376412Y-59978717D01*
X59476267Y-60206367D01*
X59612232Y-60414478D01*
X59780592Y-60597364D01*
X59780602Y-60597373D01*
X59976762Y-60750051D01*
X59976771Y-60750057D01*
X60195385Y-60868364D01*
X60195396Y-60868369D01*
X60430507Y-60949083D01*
X60549999Y-60969023D01*
X60550000Y-60969022D01*
X60550000Y-59343837D01*
X60631249Y-59374651D01*
X60757660Y-59390000D01*
X60842340Y-59390000D01*
X60968751Y-59374651D01*
X61049999Y-59343837D01*
X61049999Y-60969022D01*
X61050000Y-60969023D01*
X61169492Y-60949083D01*
X61404603Y-60868369D01*
X61404614Y-60868364D01*
X61623228Y-60750057D01*
X61623237Y-60750051D01*
X61819397Y-60597373D01*
X61819407Y-60597364D01*
X61987767Y-60414478D01*
X62069091Y-60290001D01*
X67079500Y-60290001D01*
X67079501Y-60290018D01*
X67090000Y-60392796D01*
X67090001Y-60392799D01*
X67145185Y-60559331D01*
X67145187Y-60559336D01*
X67168874Y-60597738D01*
X67237288Y-60708656D01*
X67361344Y-60832712D01*
X67510666Y-60924814D01*
X67677203Y-60979999D01*
X67779991Y-60990500D01*
X69380008Y-60990499D01*
X69482797Y-60979999D01*
X69649334Y-60924814D01*
X69798656Y-60832712D01*
X69922712Y-60708656D01*
X70014814Y-60559334D01*
X70069999Y-60392797D01*
X70080500Y-60290009D01*
X70080500Y-59552065D01*
X72079500Y-59552065D01*
X72094890Y-59737813D01*
X72094892Y-59737824D01*
X72155936Y-59978881D01*
X72255826Y-60206606D01*
X72391833Y-60414782D01*
X72391836Y-60414785D01*
X72560256Y-60597738D01*
X72756491Y-60750474D01*
X72756493Y-60750475D01*
X72974332Y-60868364D01*
X72975190Y-60868828D01*
X73194141Y-60943994D01*
X73208964Y-60949083D01*
X73210386Y-60949571D01*
X73455665Y-60990500D01*
X73704335Y-60990500D01*
X73949614Y-60949571D01*
X74184810Y-60868828D01*
X74403509Y-60750474D01*
X74599744Y-60597738D01*
X74768164Y-60414785D01*
X74904173Y-60206607D01*
X75004063Y-59978881D01*
X75065108Y-59737821D01*
X75080500Y-59552067D01*
X75080500Y-59552041D01*
X77080000Y-59552041D01*
X77095385Y-59737730D01*
X77095387Y-59737738D01*
X77156412Y-59978717D01*
X77256267Y-60206367D01*
X77392232Y-60414478D01*
X77560592Y-60597364D01*
X77560602Y-60597373D01*
X77756762Y-60750051D01*
X77756771Y-60750057D01*
X77975385Y-60868364D01*
X77975396Y-60868369D01*
X78210507Y-60949083D01*
X78329999Y-60969023D01*
X78330000Y-60969022D01*
X78330000Y-59343837D01*
X78411249Y-59374651D01*
X78537660Y-59390000D01*
X78622340Y-59390000D01*
X78748751Y-59374651D01*
X78830000Y-59343837D01*
X78830000Y-60969023D01*
X78949492Y-60949083D01*
X79184603Y-60868369D01*
X79184614Y-60868364D01*
X79403228Y-60750057D01*
X79403237Y-60750051D01*
X79599397Y-60597373D01*
X79599407Y-60597364D01*
X79767767Y-60414478D01*
X79849091Y-60290001D01*
X84859500Y-60290001D01*
X84859501Y-60290018D01*
X84870000Y-60392796D01*
X84870001Y-60392799D01*
X84925185Y-60559331D01*
X84925187Y-60559336D01*
X84948874Y-60597738D01*
X85017288Y-60708656D01*
X85141344Y-60832712D01*
X85290666Y-60924814D01*
X85457203Y-60979999D01*
X85559991Y-60990500D01*
X87160008Y-60990499D01*
X87262797Y-60979999D01*
X87429334Y-60924814D01*
X87578656Y-60832712D01*
X87702712Y-60708656D01*
X87794814Y-60559334D01*
X87849999Y-60392797D01*
X87860500Y-60290009D01*
X87860500Y-59552065D01*
X89859500Y-59552065D01*
X89874890Y-59737813D01*
X89874892Y-59737824D01*
X89935936Y-59978881D01*
X90035826Y-60206606D01*
X90171833Y-60414782D01*
X90171836Y-60414785D01*
X90340256Y-60597738D01*
X90536491Y-60750474D01*
X90536493Y-60750475D01*
X90754332Y-60868364D01*
X90755190Y-60868828D01*
X90974141Y-60943994D01*
X90988964Y-60949083D01*
X90990386Y-60949571D01*
X91235665Y-60990500D01*
X91484335Y-60990500D01*
X91729614Y-60949571D01*
X91964810Y-60868828D01*
X92183509Y-60750474D01*
X92379744Y-60597738D01*
X92548164Y-60414785D01*
X92684173Y-60206607D01*
X92784063Y-59978881D01*
X92845108Y-59737821D01*
X92860500Y-59552067D01*
X92860500Y-59552041D01*
X94860000Y-59552041D01*
X94875385Y-59737730D01*
X94875387Y-59737738D01*
X94936412Y-59978717D01*
X95036267Y-60206367D01*
X95172232Y-60414478D01*
X95340592Y-60597364D01*
X95340602Y-60597373D01*
X95536762Y-60750051D01*
X95536771Y-60750057D01*
X95755385Y-60868364D01*
X95755396Y-60868369D01*
X95990507Y-60949083D01*
X96109999Y-60969023D01*
X96110000Y-60969022D01*
X96110000Y-59343837D01*
X96191249Y-59374651D01*
X96317660Y-59390000D01*
X96402340Y-59390000D01*
X96528751Y-59374651D01*
X96610000Y-59343837D01*
X96610000Y-60969023D01*
X96729492Y-60949083D01*
X96964603Y-60868369D01*
X96964614Y-60868364D01*
X97183228Y-60750057D01*
X97183237Y-60750051D01*
X97379397Y-60597373D01*
X97379407Y-60597364D01*
X97547767Y-60414478D01*
X97629091Y-60290001D01*
X102639500Y-60290001D01*
X102639501Y-60290018D01*
X102650000Y-60392796D01*
X102650001Y-60392799D01*
X102705185Y-60559331D01*
X102705187Y-60559336D01*
X102728874Y-60597738D01*
X102797288Y-60708656D01*
X102921344Y-60832712D01*
X103070666Y-60924814D01*
X103237203Y-60979999D01*
X103339991Y-60990500D01*
X104940008Y-60990499D01*
X105042797Y-60979999D01*
X105209334Y-60924814D01*
X105358656Y-60832712D01*
X105482712Y-60708656D01*
X105574814Y-60559334D01*
X105629999Y-60392797D01*
X105640500Y-60290009D01*
X105640500Y-59552065D01*
X107639500Y-59552065D01*
X107654890Y-59737813D01*
X107654892Y-59737824D01*
X107715936Y-59978881D01*
X107815826Y-60206606D01*
X107951833Y-60414782D01*
X107951836Y-60414785D01*
X108120256Y-60597738D01*
X108316491Y-60750474D01*
X108316493Y-60750475D01*
X108534332Y-60868364D01*
X108535190Y-60868828D01*
X108754141Y-60943994D01*
X108768964Y-60949083D01*
X108770386Y-60949571D01*
X109015665Y-60990500D01*
X109264335Y-60990500D01*
X109509614Y-60949571D01*
X109744810Y-60868828D01*
X109963509Y-60750474D01*
X110159744Y-60597738D01*
X110328164Y-60414785D01*
X110464173Y-60206607D01*
X110564063Y-59978881D01*
X110625108Y-59737821D01*
X110640500Y-59552067D01*
X110640500Y-59552041D01*
X112640000Y-59552041D01*
X112655385Y-59737730D01*
X112655387Y-59737738D01*
X112716412Y-59978717D01*
X112816267Y-60206367D01*
X112952232Y-60414478D01*
X113120592Y-60597364D01*
X113120602Y-60597373D01*
X113316762Y-60750051D01*
X113316771Y-60750057D01*
X113535385Y-60868364D01*
X113535396Y-60868369D01*
X113770507Y-60949083D01*
X113889999Y-60969023D01*
X113890000Y-60969022D01*
X113890000Y-59343837D01*
X113971249Y-59374651D01*
X114097660Y-59390000D01*
X114182340Y-59390000D01*
X114308751Y-59374651D01*
X114390000Y-59343837D01*
X114390000Y-60969023D01*
X114509492Y-60949083D01*
X114744603Y-60868369D01*
X114744614Y-60868364D01*
X114963228Y-60750057D01*
X114963237Y-60750051D01*
X115159397Y-60597373D01*
X115159407Y-60597364D01*
X115327767Y-60414478D01*
X115463732Y-60206367D01*
X115563587Y-59978717D01*
X115624612Y-59737738D01*
X115624614Y-59737730D01*
X115640000Y-59552041D01*
X115640000Y-58940000D01*
X114799329Y-58940000D01*
X114840000Y-58774995D01*
X114840000Y-58605005D01*
X114799329Y-58440000D01*
X115640000Y-58440000D01*
X115640000Y-57827959D01*
X115624614Y-57642269D01*
X115624612Y-57642261D01*
X115563587Y-57401282D01*
X115463732Y-57173632D01*
X115327767Y-56965521D01*
X115159407Y-56782635D01*
X115159397Y-56782626D01*
X114963237Y-56629948D01*
X114963228Y-56629942D01*
X114744614Y-56511635D01*
X114744603Y-56511630D01*
X114509492Y-56430916D01*
X114390000Y-56410976D01*
X114390000Y-58036162D01*
X114308751Y-58005349D01*
X114182340Y-57990000D01*
X114097660Y-57990000D01*
X113971249Y-58005349D01*
X113890000Y-58036162D01*
X113890000Y-56410976D01*
X113889999Y-56410976D01*
X113770507Y-56430916D01*
X113535396Y-56511630D01*
X113535385Y-56511635D01*
X113316771Y-56629942D01*
X113316762Y-56629948D01*
X113120602Y-56782626D01*
X113120592Y-56782635D01*
X112952232Y-56965521D01*
X112816267Y-57173632D01*
X112716412Y-57401282D01*
X112655387Y-57642261D01*
X112655385Y-57642269D01*
X112640000Y-57827959D01*
X112640000Y-58440000D01*
X113480671Y-58440000D01*
X113440000Y-58605005D01*
X113440000Y-58774995D01*
X113480671Y-58940000D01*
X112640000Y-58940000D01*
X112640000Y-59552041D01*
X110640500Y-59552041D01*
X110640500Y-57827933D01*
X110633319Y-57741272D01*
X110625109Y-57642186D01*
X110625107Y-57642175D01*
X110564063Y-57401118D01*
X110464173Y-57173393D01*
X110328166Y-56965217D01*
X110262979Y-56894405D01*
X110159744Y-56782262D01*
X109963509Y-56629526D01*
X109963507Y-56629525D01*
X109963506Y-56629524D01*
X109744811Y-56511172D01*
X109744802Y-56511169D01*
X109509616Y-56430429D01*
X109264335Y-56389500D01*
X109015665Y-56389500D01*
X108770383Y-56430429D01*
X108535197Y-56511169D01*
X108535188Y-56511172D01*
X108316493Y-56629524D01*
X108120257Y-56782261D01*
X107951833Y-56965217D01*
X107815826Y-57173393D01*
X107715936Y-57401118D01*
X107654892Y-57642175D01*
X107654890Y-57642186D01*
X107639500Y-57827935D01*
X107639500Y-59552065D01*
X105640500Y-59552065D01*
X105640499Y-58127847D01*
X105660184Y-58060809D01*
X105679782Y-58038706D01*
X105679535Y-58038474D01*
X105732227Y-57982364D01*
X105742671Y-57971918D01*
X105753120Y-57961471D01*
X105757379Y-57955978D01*
X105761152Y-57951561D01*
X105793062Y-57917582D01*
X105802713Y-57900024D01*
X105813396Y-57883761D01*
X105825673Y-57867936D01*
X105844185Y-57825153D01*
X105846738Y-57819941D01*
X105869197Y-57779092D01*
X105874180Y-57759680D01*
X105880481Y-57741280D01*
X105888437Y-57722896D01*
X105895729Y-57676852D01*
X105896906Y-57671171D01*
X105908500Y-57626019D01*
X105908500Y-57605982D01*
X105910027Y-57586582D01*
X105913160Y-57566804D01*
X105908775Y-57520415D01*
X105908500Y-57514577D01*
X105908500Y-56070687D01*
X105928185Y-56003648D01*
X105940350Y-55987715D01*
X105958891Y-55967122D01*
X106015533Y-55904216D01*
X106110179Y-55740284D01*
X106168674Y-55560256D01*
X106188460Y-55372000D01*
X106168674Y-55183744D01*
X106110179Y-55003716D01*
X106015533Y-54839784D01*
X105888871Y-54699112D01*
X105888870Y-54699111D01*
X105735734Y-54587851D01*
X105735729Y-54587848D01*
X105562807Y-54510857D01*
X105562802Y-54510855D01*
X105417000Y-54479865D01*
X105377646Y-54471500D01*
X105188354Y-54471500D01*
X105155897Y-54478398D01*
X105003197Y-54510855D01*
X105003192Y-54510857D01*
X104830270Y-54587848D01*
X104830265Y-54587851D01*
X104677129Y-54699111D01*
X104550466Y-54839785D01*
X104455821Y-55003715D01*
X104455818Y-55003722D01*
X104407011Y-55153936D01*
X104397326Y-55183744D01*
X104377540Y-55372000D01*
X104397326Y-55560256D01*
X104397327Y-55560259D01*
X104455818Y-55740277D01*
X104455821Y-55740284D01*
X104550467Y-55904216D01*
X104593772Y-55952310D01*
X104625650Y-55987715D01*
X104655880Y-56050706D01*
X104657500Y-56070687D01*
X104657500Y-56265500D01*
X104637815Y-56332539D01*
X104585011Y-56378294D01*
X104533500Y-56389500D01*
X103339998Y-56389500D01*
X103339981Y-56389501D01*
X103237203Y-56400000D01*
X103237200Y-56400001D01*
X103070668Y-56455185D01*
X103070663Y-56455187D01*
X102921342Y-56547289D01*
X102797289Y-56671342D01*
X102705187Y-56820663D01*
X102705185Y-56820666D01*
X102705186Y-56820666D01*
X102650001Y-56987203D01*
X102650001Y-56987204D01*
X102650000Y-56987204D01*
X102639500Y-57089983D01*
X102639500Y-60290001D01*
X97629091Y-60290001D01*
X97683732Y-60206367D01*
X97783587Y-59978717D01*
X97844612Y-59737738D01*
X97844614Y-59737730D01*
X97860000Y-59552041D01*
X97860000Y-58940000D01*
X97019329Y-58940000D01*
X97060000Y-58774995D01*
X97060000Y-58605005D01*
X97019329Y-58440000D01*
X97860000Y-58440000D01*
X97860000Y-57827959D01*
X97844614Y-57642269D01*
X97844612Y-57642261D01*
X97783587Y-57401282D01*
X97683732Y-57173632D01*
X97547767Y-56965521D01*
X97379407Y-56782635D01*
X97379397Y-56782626D01*
X97183237Y-56629948D01*
X97183228Y-56629942D01*
X96964614Y-56511635D01*
X96964603Y-56511630D01*
X96729492Y-56430916D01*
X96610000Y-56410976D01*
X96610000Y-58036162D01*
X96528751Y-58005349D01*
X96402340Y-57990000D01*
X96317660Y-57990000D01*
X96191249Y-58005349D01*
X96110000Y-58036162D01*
X96110000Y-56410976D01*
X96109999Y-56410976D01*
X95990507Y-56430916D01*
X95755396Y-56511630D01*
X95755385Y-56511635D01*
X95536771Y-56629942D01*
X95536762Y-56629948D01*
X95340602Y-56782626D01*
X95340592Y-56782635D01*
X95172232Y-56965521D01*
X95036267Y-57173632D01*
X94936412Y-57401282D01*
X94875387Y-57642261D01*
X94875385Y-57642269D01*
X94860000Y-57827959D01*
X94860000Y-58440000D01*
X95700671Y-58440000D01*
X95660000Y-58605005D01*
X95660000Y-58774995D01*
X95700671Y-58940000D01*
X94860000Y-58940000D01*
X94860000Y-59552041D01*
X92860500Y-59552041D01*
X92860500Y-57827933D01*
X92853319Y-57741272D01*
X92845109Y-57642186D01*
X92845107Y-57642175D01*
X92784063Y-57401118D01*
X92684173Y-57173393D01*
X92548166Y-56965217D01*
X92482979Y-56894405D01*
X92379744Y-56782262D01*
X92183509Y-56629526D01*
X92183507Y-56629525D01*
X92183506Y-56629524D01*
X91964811Y-56511172D01*
X91964802Y-56511169D01*
X91729616Y-56430429D01*
X91484335Y-56389500D01*
X91235665Y-56389500D01*
X90990383Y-56430429D01*
X90755197Y-56511169D01*
X90755188Y-56511172D01*
X90536493Y-56629524D01*
X90340257Y-56782261D01*
X90171833Y-56965217D01*
X90035826Y-57173393D01*
X89935936Y-57401118D01*
X89874892Y-57642175D01*
X89874890Y-57642186D01*
X89859500Y-57827935D01*
X89859500Y-59552065D01*
X87860500Y-59552065D01*
X87860499Y-57089992D01*
X87849999Y-56987203D01*
X87794814Y-56820666D01*
X87702712Y-56671344D01*
X87578656Y-56547288D01*
X87429334Y-56455186D01*
X87262797Y-56400001D01*
X87262795Y-56400000D01*
X87160010Y-56389500D01*
X85559998Y-56389500D01*
X85559981Y-56389501D01*
X85457203Y-56400000D01*
X85457200Y-56400001D01*
X85290668Y-56455185D01*
X85290663Y-56455187D01*
X85141342Y-56547289D01*
X85017289Y-56671342D01*
X84925187Y-56820663D01*
X84925185Y-56820666D01*
X84925186Y-56820666D01*
X84870001Y-56987203D01*
X84870001Y-56987204D01*
X84870000Y-56987204D01*
X84859500Y-57089983D01*
X84859500Y-60290001D01*
X79849091Y-60290001D01*
X79903732Y-60206367D01*
X80003587Y-59978717D01*
X80064612Y-59737738D01*
X80064614Y-59737730D01*
X80080000Y-59552041D01*
X80080000Y-58940000D01*
X79239329Y-58940000D01*
X79280000Y-58774995D01*
X79280000Y-58605005D01*
X79239329Y-58440000D01*
X80080000Y-58440000D01*
X80080000Y-57827959D01*
X80064614Y-57642269D01*
X80064612Y-57642261D01*
X80003587Y-57401282D01*
X79903732Y-57173632D01*
X79767767Y-56965521D01*
X79599407Y-56782635D01*
X79599397Y-56782626D01*
X79403237Y-56629948D01*
X79403228Y-56629942D01*
X79184614Y-56511635D01*
X79184603Y-56511630D01*
X78949492Y-56430916D01*
X78830000Y-56410976D01*
X78830000Y-58036162D01*
X78748751Y-58005349D01*
X78622340Y-57990000D01*
X78537660Y-57990000D01*
X78411249Y-58005349D01*
X78330000Y-58036162D01*
X78330000Y-56410976D01*
X78329999Y-56410976D01*
X78210507Y-56430916D01*
X77975396Y-56511630D01*
X77975385Y-56511635D01*
X77756771Y-56629942D01*
X77756762Y-56629948D01*
X77560602Y-56782626D01*
X77560592Y-56782635D01*
X77392232Y-56965521D01*
X77256267Y-57173632D01*
X77156412Y-57401282D01*
X77095387Y-57642261D01*
X77095385Y-57642269D01*
X77080000Y-57827959D01*
X77080000Y-58440000D01*
X77920671Y-58440000D01*
X77880000Y-58605005D01*
X77880000Y-58774995D01*
X77920671Y-58940000D01*
X77080000Y-58940000D01*
X77080000Y-59552041D01*
X75080500Y-59552041D01*
X75080500Y-57827933D01*
X75073319Y-57741272D01*
X75065109Y-57642186D01*
X75065107Y-57642175D01*
X75004063Y-57401118D01*
X74904173Y-57173393D01*
X74768166Y-56965217D01*
X74702979Y-56894405D01*
X74599744Y-56782262D01*
X74403509Y-56629526D01*
X74403507Y-56629525D01*
X74403506Y-56629524D01*
X74184811Y-56511172D01*
X74184802Y-56511169D01*
X73949616Y-56430429D01*
X73704335Y-56389500D01*
X73455665Y-56389500D01*
X73210383Y-56430429D01*
X72975197Y-56511169D01*
X72975188Y-56511172D01*
X72756493Y-56629524D01*
X72560257Y-56782261D01*
X72391833Y-56965217D01*
X72255826Y-57173393D01*
X72155936Y-57401118D01*
X72094892Y-57642175D01*
X72094890Y-57642186D01*
X72079500Y-57827935D01*
X72079500Y-59552065D01*
X70080500Y-59552065D01*
X70080499Y-57089992D01*
X70069999Y-56987203D01*
X70014814Y-56820666D01*
X69922712Y-56671344D01*
X69798656Y-56547288D01*
X69649334Y-56455186D01*
X69482797Y-56400001D01*
X69482795Y-56400000D01*
X69380010Y-56389500D01*
X67779998Y-56389500D01*
X67779981Y-56389501D01*
X67677203Y-56400000D01*
X67677200Y-56400001D01*
X67510668Y-56455185D01*
X67510663Y-56455187D01*
X67361342Y-56547289D01*
X67237289Y-56671342D01*
X67145187Y-56820663D01*
X67145185Y-56820666D01*
X67145186Y-56820666D01*
X67090001Y-56987203D01*
X67090001Y-56987204D01*
X67090000Y-56987204D01*
X67079500Y-57089983D01*
X67079500Y-60290001D01*
X62069091Y-60290001D01*
X62123732Y-60206367D01*
X62223587Y-59978717D01*
X62284612Y-59737738D01*
X62284614Y-59737730D01*
X62300000Y-59552041D01*
X62300000Y-58940000D01*
X61459329Y-58940000D01*
X61500000Y-58774995D01*
X61500000Y-58605005D01*
X61459329Y-58440000D01*
X62300000Y-58440000D01*
X62300000Y-57827959D01*
X62284614Y-57642269D01*
X62284612Y-57642261D01*
X62223587Y-57401282D01*
X62123732Y-57173632D01*
X61987767Y-56965521D01*
X61819407Y-56782635D01*
X61819397Y-56782626D01*
X61623237Y-56629948D01*
X61623228Y-56629942D01*
X61404614Y-56511635D01*
X61404603Y-56511630D01*
X61169492Y-56430916D01*
X61050000Y-56410976D01*
X61050000Y-58036162D01*
X60968751Y-58005349D01*
X60842340Y-57990000D01*
X60757660Y-57990000D01*
X60631249Y-58005349D01*
X60550000Y-58036162D01*
X60550000Y-56410976D01*
X60549999Y-56410976D01*
X60430507Y-56430916D01*
X60195396Y-56511630D01*
X60195385Y-56511635D01*
X59976771Y-56629942D01*
X59976762Y-56629948D01*
X59780602Y-56782626D01*
X59780592Y-56782635D01*
X59612232Y-56965521D01*
X59476267Y-57173632D01*
X59376412Y-57401282D01*
X59315387Y-57642261D01*
X59315385Y-57642269D01*
X59300000Y-57827959D01*
X59300000Y-58440000D01*
X60140671Y-58440000D01*
X60100000Y-58605005D01*
X60100000Y-58774995D01*
X60140671Y-58940000D01*
X59300000Y-58940000D01*
X59300000Y-59552041D01*
X57300500Y-59552041D01*
X57300500Y-57827933D01*
X57293319Y-57741272D01*
X57285109Y-57642186D01*
X57285107Y-57642175D01*
X57224063Y-57401118D01*
X57124173Y-57173393D01*
X56988166Y-56965217D01*
X56922979Y-56894405D01*
X56819744Y-56782262D01*
X56623509Y-56629526D01*
X56623507Y-56629525D01*
X56623506Y-56629524D01*
X56404811Y-56511172D01*
X56404802Y-56511169D01*
X56169616Y-56430429D01*
X55924335Y-56389500D01*
X55675665Y-56389500D01*
X55430383Y-56430429D01*
X55195197Y-56511169D01*
X55195188Y-56511172D01*
X54976493Y-56629524D01*
X54780257Y-56782261D01*
X54611833Y-56965217D01*
X54475826Y-57173393D01*
X54375936Y-57401118D01*
X54314892Y-57642175D01*
X54314890Y-57642186D01*
X54299500Y-57827935D01*
X54299500Y-59552065D01*
X52300500Y-59552065D01*
X52300499Y-57089992D01*
X52289999Y-56987203D01*
X52259247Y-56894402D01*
X52256846Y-56824576D01*
X52292577Y-56764534D01*
X52355098Y-56733341D01*
X52418648Y-56740257D01*
X52419013Y-56739135D01*
X52424394Y-56740883D01*
X52424557Y-56740901D01*
X52424890Y-56741044D01*
X52425197Y-56741144D01*
X52610354Y-56780500D01*
X52610355Y-56780500D01*
X52799644Y-56780500D01*
X52799646Y-56780500D01*
X52984803Y-56741144D01*
X53157730Y-56664151D01*
X53310871Y-56552888D01*
X53437533Y-56412216D01*
X53532179Y-56248284D01*
X53590674Y-56068256D01*
X53608321Y-55900345D01*
X53634905Y-55835732D01*
X53643952Y-55825636D01*
X54135786Y-55333802D01*
X54148048Y-55323980D01*
X54147865Y-55323759D01*
X54153867Y-55318792D01*
X54153877Y-55318786D01*
X54201241Y-55268348D01*
X54222120Y-55247470D01*
X54226373Y-55241986D01*
X54230150Y-55237563D01*
X54262062Y-55203582D01*
X54271714Y-55186023D01*
X54282389Y-55169772D01*
X54294674Y-55153936D01*
X54313186Y-55111152D01*
X54315742Y-55105935D01*
X54338197Y-55065092D01*
X54343180Y-55045680D01*
X54349477Y-55027291D01*
X54357438Y-55008895D01*
X54364729Y-54962853D01*
X54365906Y-54957166D01*
X54377500Y-54912019D01*
X54377499Y-54891986D01*
X54379027Y-54872583D01*
X54382159Y-54852808D01*
X54382160Y-54852806D01*
X54377775Y-54806415D01*
X54377500Y-54800577D01*
X54377500Y-52086425D01*
X54397185Y-52019386D01*
X54442481Y-51977371D01*
X54500649Y-51945893D01*
X54679046Y-51807040D01*
X54832156Y-51640719D01*
X54918193Y-51509028D01*
X54971338Y-51463675D01*
X55040569Y-51454251D01*
X55103905Y-51483753D01*
X55125804Y-51509025D01*
X55211844Y-51640719D01*
X55211849Y-51640724D01*
X55211850Y-51640727D01*
X55364950Y-51807036D01*
X55364954Y-51807040D01*
X55543351Y-51945893D01*
X55742169Y-52053488D01*
X55742172Y-52053489D01*
X55955982Y-52126890D01*
X55955984Y-52126890D01*
X55955986Y-52126891D01*
X56178967Y-52164100D01*
X56178968Y-52164100D01*
X56405032Y-52164100D01*
X56405033Y-52164100D01*
X56628014Y-52126891D01*
X56841831Y-52053488D01*
X57040649Y-51945893D01*
X57219046Y-51807040D01*
X57372156Y-51640719D01*
X57458193Y-51509028D01*
X57511338Y-51463675D01*
X57580569Y-51454251D01*
X57643905Y-51483753D01*
X57665804Y-51509025D01*
X57751844Y-51640719D01*
X57751849Y-51640724D01*
X57751850Y-51640727D01*
X57904950Y-51807036D01*
X57904954Y-51807040D01*
X58083351Y-51945893D01*
X58282169Y-52053488D01*
X58282172Y-52053489D01*
X58495982Y-52126890D01*
X58495984Y-52126890D01*
X58495986Y-52126891D01*
X58718967Y-52164100D01*
X58718968Y-52164100D01*
X58945032Y-52164100D01*
X58945033Y-52164100D01*
X59168014Y-52126891D01*
X59381831Y-52053488D01*
X59580649Y-51945893D01*
X59759046Y-51807040D01*
X59912156Y-51640719D01*
X59998193Y-51509028D01*
X60051338Y-51463675D01*
X60120569Y-51454251D01*
X60183905Y-51483753D01*
X60205804Y-51509025D01*
X60291844Y-51640719D01*
X60291849Y-51640724D01*
X60291850Y-51640727D01*
X60444950Y-51807036D01*
X60444954Y-51807040D01*
X60623351Y-51945893D01*
X60822169Y-52053488D01*
X60822172Y-52053489D01*
X61035982Y-52126890D01*
X61035984Y-52126890D01*
X61035986Y-52126891D01*
X61258967Y-52164100D01*
X61258968Y-52164100D01*
X61485032Y-52164100D01*
X61485033Y-52164100D01*
X61708014Y-52126891D01*
X61921831Y-52053488D01*
X62120649Y-51945893D01*
X62299046Y-51807040D01*
X62452156Y-51640719D01*
X62538193Y-51509028D01*
X62591338Y-51463675D01*
X62660569Y-51454251D01*
X62723905Y-51483753D01*
X62745804Y-51509025D01*
X62831844Y-51640719D01*
X62831849Y-51640724D01*
X62831850Y-51640727D01*
X62984950Y-51807036D01*
X62984954Y-51807040D01*
X63163351Y-51945893D01*
X63362169Y-52053488D01*
X63362172Y-52053489D01*
X63575982Y-52126890D01*
X63575984Y-52126890D01*
X63575986Y-52126891D01*
X63798967Y-52164100D01*
X63798968Y-52164100D01*
X64025032Y-52164100D01*
X64025033Y-52164100D01*
X64248014Y-52126891D01*
X64461831Y-52053488D01*
X64660649Y-51945893D01*
X64839046Y-51807040D01*
X64992156Y-51640719D01*
X65078193Y-51509028D01*
X65131338Y-51463675D01*
X65200569Y-51454251D01*
X65263905Y-51483753D01*
X65285804Y-51509025D01*
X65371844Y-51640719D01*
X65371849Y-51640724D01*
X65371850Y-51640727D01*
X65524950Y-51807036D01*
X65524954Y-51807040D01*
X65703351Y-51945893D01*
X65703353Y-51945894D01*
X65703360Y-51945899D01*
X65760673Y-51976914D01*
X65810264Y-52026132D01*
X65825596Y-52082069D01*
X65826500Y-52110812D01*
X65826500Y-52140343D01*
X65826501Y-52140360D01*
X65827368Y-52147231D01*
X65827826Y-52153050D01*
X65829290Y-52199624D01*
X65829291Y-52199627D01*
X65834880Y-52218867D01*
X65838824Y-52237911D01*
X65841336Y-52257792D01*
X65856520Y-52296144D01*
X65858490Y-52301119D01*
X65860382Y-52306647D01*
X65873381Y-52351388D01*
X65883580Y-52368634D01*
X65892138Y-52386103D01*
X65899514Y-52404732D01*
X65926898Y-52442423D01*
X65930106Y-52447307D01*
X65953827Y-52487416D01*
X65953833Y-52487424D01*
X65967990Y-52501580D01*
X65980628Y-52516376D01*
X65992405Y-52532586D01*
X65992406Y-52532587D01*
X66028309Y-52562288D01*
X66032620Y-52566210D01*
X66438124Y-52971715D01*
X66555197Y-53088788D01*
X66565022Y-53101051D01*
X66565243Y-53100869D01*
X66570214Y-53106878D01*
X66596217Y-53131295D01*
X66620635Y-53154226D01*
X66641529Y-53175120D01*
X66647011Y-53179373D01*
X66651443Y-53183157D01*
X66685418Y-53215062D01*
X66702976Y-53224714D01*
X66719233Y-53235393D01*
X66735064Y-53247673D01*
X66754737Y-53256186D01*
X66777833Y-53266182D01*
X66783077Y-53268750D01*
X66823908Y-53291197D01*
X66836523Y-53294435D01*
X66843305Y-53296177D01*
X66861719Y-53302481D01*
X66880104Y-53310438D01*
X66926157Y-53317732D01*
X66931826Y-53318906D01*
X66976981Y-53330500D01*
X66997016Y-53330500D01*
X67016413Y-53332026D01*
X67036196Y-53335160D01*
X67082583Y-53330775D01*
X67088422Y-53330500D01*
X84640252Y-53330500D01*
X84707291Y-53350185D01*
X84732400Y-53371526D01*
X84738126Y-53377885D01*
X84738130Y-53377889D01*
X84891265Y-53489148D01*
X84891270Y-53489151D01*
X85064192Y-53566142D01*
X85064197Y-53566144D01*
X85249354Y-53605500D01*
X85249355Y-53605500D01*
X85438644Y-53605500D01*
X85438646Y-53605500D01*
X85623803Y-53566144D01*
X85796730Y-53489151D01*
X85949871Y-53377888D01*
X85983986Y-53340000D01*
X87994540Y-53340000D01*
X88014326Y-53528256D01*
X88014327Y-53528259D01*
X88072818Y-53708277D01*
X88072821Y-53708284D01*
X88167467Y-53872216D01*
X88269185Y-53985185D01*
X88294129Y-54012888D01*
X88447265Y-54124148D01*
X88447270Y-54124151D01*
X88620192Y-54201142D01*
X88620197Y-54201144D01*
X88805354Y-54240500D01*
X88805355Y-54240500D01*
X88994644Y-54240500D01*
X88994646Y-54240500D01*
X89179803Y-54201144D01*
X89352730Y-54124151D01*
X89505871Y-54012888D01*
X89508788Y-54009647D01*
X89511600Y-54006526D01*
X89571087Y-53969879D01*
X89603748Y-53965500D01*
X93190500Y-53965500D01*
X93257539Y-53985185D01*
X93303294Y-54037989D01*
X93314500Y-54089500D01*
X93314500Y-55457870D01*
X93314501Y-55457876D01*
X93320908Y-55517483D01*
X93371202Y-55652328D01*
X93371206Y-55652335D01*
X93457452Y-55767544D01*
X93457455Y-55767547D01*
X93572664Y-55853793D01*
X93572671Y-55853797D01*
X93707517Y-55904091D01*
X93707516Y-55904091D01*
X93714444Y-55904835D01*
X93767127Y-55910500D01*
X95462872Y-55910499D01*
X95522483Y-55904091D01*
X95657331Y-55853796D01*
X95772546Y-55767546D01*
X95858796Y-55652331D01*
X95909091Y-55517483D01*
X95915500Y-55457873D01*
X95915499Y-54089499D01*
X95935184Y-54022461D01*
X95987987Y-53976706D01*
X96039499Y-53965500D01*
X97406891Y-53965500D01*
X97473930Y-53985185D01*
X97519685Y-54037989D01*
X97530211Y-54076536D01*
X97539326Y-54163256D01*
X97539327Y-54163259D01*
X97597818Y-54343277D01*
X97597821Y-54343284D01*
X97692467Y-54507216D01*
X97819128Y-54647888D01*
X97819129Y-54647888D01*
X97972265Y-54759148D01*
X97972270Y-54759151D01*
X98145192Y-54836142D01*
X98145197Y-54836144D01*
X98330354Y-54875500D01*
X98330355Y-54875500D01*
X98519644Y-54875500D01*
X98519646Y-54875500D01*
X98704803Y-54836144D01*
X98877730Y-54759151D01*
X99030871Y-54647888D01*
X99157533Y-54507216D01*
X99252179Y-54343284D01*
X99310674Y-54163256D01*
X99330460Y-53975000D01*
X99310674Y-53786744D01*
X99252179Y-53606716D01*
X99157533Y-53442784D01*
X99064986Y-53340000D01*
X114869889Y-53340000D01*
X114890484Y-53575403D01*
X114890486Y-53575413D01*
X114951642Y-53803655D01*
X114951644Y-53803659D01*
X114951645Y-53803663D01*
X114983611Y-53872214D01*
X115051513Y-54017830D01*
X115051515Y-54017834D01*
X115125960Y-54124151D01*
X115187053Y-54211401D01*
X115354147Y-54378495D01*
X115450932Y-54446264D01*
X115547713Y-54514032D01*
X115547715Y-54514033D01*
X115547718Y-54514035D01*
X115761885Y-54613903D01*
X115990140Y-54675063D01*
X116178466Y-54691539D01*
X116225547Y-54695659D01*
X116225548Y-54695659D01*
X116225549Y-54695659D01*
X116264782Y-54692226D01*
X116460956Y-54675063D01*
X116689211Y-54613903D01*
X116903378Y-54514035D01*
X117096949Y-54378495D01*
X117264043Y-54211401D01*
X117399583Y-54017830D01*
X117499451Y-53803663D01*
X117560611Y-53575408D01*
X117581207Y-53340000D01*
X117580783Y-53335159D01*
X117568158Y-53190851D01*
X117560611Y-53104592D01*
X117499451Y-52876337D01*
X117399583Y-52662171D01*
X117332399Y-52566221D01*
X117264042Y-52468597D01*
X117096950Y-52301506D01*
X117096949Y-52301505D01*
X116910953Y-52171269D01*
X116867329Y-52116692D01*
X116860136Y-52047193D01*
X116891658Y-51984839D01*
X116910953Y-51968119D01*
X117096630Y-51838105D01*
X117263653Y-51671082D01*
X117399148Y-51477578D01*
X117498977Y-51263492D01*
X117498980Y-51263486D01*
X117556184Y-51050000D01*
X116659234Y-51050000D01*
X116685041Y-51009844D01*
X116725548Y-50871889D01*
X116725548Y-50728111D01*
X116685041Y-50590156D01*
X116659234Y-50550000D01*
X117556184Y-50550000D01*
X117556183Y-50549999D01*
X117498980Y-50336513D01*
X117498977Y-50336507D01*
X117399148Y-50122422D01*
X117399147Y-50122420D01*
X117263661Y-49928926D01*
X117263656Y-49928920D01*
X117141601Y-49806865D01*
X117108116Y-49745542D01*
X117113100Y-49675850D01*
X117154972Y-49619917D01*
X117185948Y-49603002D01*
X117317879Y-49553796D01*
X117433094Y-49467546D01*
X117519344Y-49352331D01*
X117569639Y-49217483D01*
X117576048Y-49157873D01*
X117576047Y-47362128D01*
X117569639Y-47302517D01*
X117537630Y-47216697D01*
X117519345Y-47167671D01*
X117519341Y-47167664D01*
X117433095Y-47052455D01*
X117433092Y-47052452D01*
X117317883Y-46966206D01*
X117317876Y-46966202D01*
X117183030Y-46915908D01*
X117183031Y-46915908D01*
X117123431Y-46909501D01*
X117123429Y-46909500D01*
X117123421Y-46909500D01*
X117123412Y-46909500D01*
X115327677Y-46909500D01*
X115327671Y-46909501D01*
X115268064Y-46915908D01*
X115133219Y-46966202D01*
X115133212Y-46966206D01*
X115018003Y-47052452D01*
X115018000Y-47052455D01*
X114931754Y-47167664D01*
X114931750Y-47167671D01*
X114881456Y-47302517D01*
X114875462Y-47358277D01*
X114875049Y-47362123D01*
X114875048Y-47362135D01*
X114875048Y-49157870D01*
X114875049Y-49157876D01*
X114881456Y-49217483D01*
X114931750Y-49352328D01*
X114931754Y-49352335D01*
X115018000Y-49467544D01*
X115018003Y-49467547D01*
X115133212Y-49553793D01*
X115133219Y-49553797D01*
X115133222Y-49553798D01*
X115265146Y-49603002D01*
X115321079Y-49644873D01*
X115345497Y-49710337D01*
X115330646Y-49778610D01*
X115309495Y-49806865D01*
X115187434Y-49928926D01*
X115051948Y-50122420D01*
X115051947Y-50122422D01*
X114952118Y-50336507D01*
X114952115Y-50336513D01*
X114894912Y-50549999D01*
X114894912Y-50550000D01*
X115791862Y-50550000D01*
X115766055Y-50590156D01*
X115725548Y-50728111D01*
X115725548Y-50871889D01*
X115766055Y-51009844D01*
X115791862Y-51050000D01*
X114894912Y-51050000D01*
X114952115Y-51263486D01*
X114952118Y-51263492D01*
X115051947Y-51477578D01*
X115187442Y-51671082D01*
X115354465Y-51838105D01*
X115540143Y-51968119D01*
X115583767Y-52022696D01*
X115590960Y-52092195D01*
X115559438Y-52154549D01*
X115540143Y-52171269D01*
X115354142Y-52301508D01*
X115187053Y-52468597D01*
X115051513Y-52662169D01*
X115051512Y-52662171D01*
X114951646Y-52876335D01*
X114951642Y-52876344D01*
X114890486Y-53104586D01*
X114890484Y-53104596D01*
X114869889Y-53339999D01*
X114869889Y-53340000D01*
X99064986Y-53340000D01*
X99030871Y-53302112D01*
X99026043Y-53298604D01*
X98877734Y-53190851D01*
X98877729Y-53190848D01*
X98704807Y-53113857D01*
X98704802Y-53113855D01*
X98559000Y-53082865D01*
X98519646Y-53074500D01*
X98519645Y-53074500D01*
X98460453Y-53074500D01*
X98393414Y-53054815D01*
X98372772Y-53038181D01*
X98290803Y-52956212D01*
X98280980Y-52943950D01*
X98280759Y-52944134D01*
X98275786Y-52938123D01*
X98275785Y-52938122D01*
X98225364Y-52890773D01*
X98210926Y-52876335D01*
X98204475Y-52869883D01*
X98198986Y-52865625D01*
X98194561Y-52861847D01*
X98160582Y-52829938D01*
X98160580Y-52829936D01*
X98160577Y-52829935D01*
X98143029Y-52820288D01*
X98126763Y-52809604D01*
X98110933Y-52797325D01*
X98068168Y-52778818D01*
X98062922Y-52776248D01*
X98022093Y-52753803D01*
X98022092Y-52753802D01*
X98002693Y-52748822D01*
X97984281Y-52742518D01*
X97965898Y-52734562D01*
X97965892Y-52734560D01*
X97919874Y-52727272D01*
X97914152Y-52726087D01*
X97869021Y-52714500D01*
X97869019Y-52714500D01*
X97848984Y-52714500D01*
X97829586Y-52712973D01*
X97822162Y-52711797D01*
X97809805Y-52709840D01*
X97809804Y-52709840D01*
X97763416Y-52714225D01*
X97757578Y-52714500D01*
X89603748Y-52714500D01*
X89536709Y-52694815D01*
X89511600Y-52673474D01*
X89505873Y-52667114D01*
X89505869Y-52667110D01*
X89352734Y-52555851D01*
X89352729Y-52555848D01*
X89179807Y-52478857D01*
X89179802Y-52478855D01*
X89019562Y-52444796D01*
X88994646Y-52439500D01*
X88805354Y-52439500D01*
X88780438Y-52444796D01*
X88620197Y-52478855D01*
X88620192Y-52478857D01*
X88447270Y-52555848D01*
X88447265Y-52555851D01*
X88294129Y-52667111D01*
X88167466Y-52807785D01*
X88072821Y-52971715D01*
X88072818Y-52971722D01*
X88026636Y-53113857D01*
X88014326Y-53151744D01*
X88002177Y-53267341D01*
X87995510Y-53330775D01*
X87994540Y-53340000D01*
X85983986Y-53340000D01*
X86076533Y-53237216D01*
X86171179Y-53073284D01*
X86229674Y-52893256D01*
X86249460Y-52705000D01*
X86229674Y-52516744D01*
X86171179Y-52336716D01*
X86120224Y-52248459D01*
X86103751Y-52180558D01*
X86126604Y-52114532D01*
X86181525Y-52071341D01*
X86251079Y-52064700D01*
X86267868Y-52069176D01*
X86359408Y-52100602D01*
X86435982Y-52126890D01*
X86435984Y-52126890D01*
X86435986Y-52126891D01*
X86658967Y-52164100D01*
X86658968Y-52164100D01*
X86885032Y-52164100D01*
X86885033Y-52164100D01*
X87108014Y-52126891D01*
X87321831Y-52053488D01*
X87520649Y-51945893D01*
X87699046Y-51807040D01*
X87852156Y-51640719D01*
X87975802Y-51451465D01*
X88043517Y-51297089D01*
X88088471Y-51243605D01*
X88155207Y-51222914D01*
X88222535Y-51241588D01*
X88269079Y-51293698D01*
X88272697Y-51302102D01*
X88277698Y-51315011D01*
X88277700Y-51315014D01*
X88277702Y-51315019D01*
X88389948Y-51496302D01*
X88521600Y-51640716D01*
X88533593Y-51653872D01*
X88703746Y-51782367D01*
X88894606Y-51877403D01*
X88894608Y-51877403D01*
X88894611Y-51877405D01*
X89099690Y-51935756D01*
X89258806Y-51950500D01*
X89258810Y-51950500D01*
X89365190Y-51950500D01*
X89365194Y-51950500D01*
X89524310Y-51935756D01*
X89729389Y-51877405D01*
X89729393Y-51877403D01*
X89729394Y-51877403D01*
X89920253Y-51782367D01*
X89920253Y-51782366D01*
X89920255Y-51782366D01*
X90090407Y-51653872D01*
X90234052Y-51496302D01*
X90346298Y-51315019D01*
X90423321Y-51116198D01*
X90462500Y-50906610D01*
X90462500Y-50693390D01*
X90423321Y-50483802D01*
X90346298Y-50284981D01*
X90234052Y-50103698D01*
X90090407Y-49946128D01*
X90067628Y-49928926D01*
X89920253Y-49817632D01*
X89729393Y-49722596D01*
X89524310Y-49664244D01*
X89524309Y-49664244D01*
X89365194Y-49649500D01*
X89258806Y-49649500D01*
X89131513Y-49661295D01*
X89099689Y-49664244D01*
X88894607Y-49722596D01*
X88894605Y-49722596D01*
X88703746Y-49817632D01*
X88533593Y-49946127D01*
X88389947Y-50103699D01*
X88277702Y-50284980D01*
X88277698Y-50284988D01*
X88272696Y-50297900D01*
X88230120Y-50353299D01*
X88164352Y-50376885D01*
X88096272Y-50361170D01*
X88047496Y-50311144D01*
X88043522Y-50302922D01*
X87975802Y-50148535D01*
X87958741Y-50122422D01*
X87852157Y-49959283D01*
X87852149Y-49959272D01*
X87699049Y-49792963D01*
X87699048Y-49792962D01*
X87699046Y-49792960D01*
X87520649Y-49654107D01*
X87494390Y-49639896D01*
X87321832Y-49546512D01*
X87321827Y-49546510D01*
X87108017Y-49473109D01*
X86926388Y-49442801D01*
X86885033Y-49435900D01*
X86658967Y-49435900D01*
X86617612Y-49442801D01*
X86435982Y-49473109D01*
X86222172Y-49546510D01*
X86222167Y-49546512D01*
X86023352Y-49654106D01*
X85844955Y-49792958D01*
X85790186Y-49852453D01*
X85730298Y-49888443D01*
X85660460Y-49886342D01*
X85602845Y-49846817D01*
X85582775Y-49811802D01*
X85538954Y-49694313D01*
X85538950Y-49694306D01*
X85452790Y-49579212D01*
X85452787Y-49579209D01*
X85337693Y-49493049D01*
X85337686Y-49493045D01*
X85202979Y-49442803D01*
X85202972Y-49442801D01*
X85143444Y-49436400D01*
X84482000Y-49436400D01*
X84482000Y-50355702D01*
X84376592Y-50307565D01*
X84268334Y-50292000D01*
X84195666Y-50292000D01*
X84087408Y-50307565D01*
X83982000Y-50355702D01*
X83982000Y-49436400D01*
X83320555Y-49436400D01*
X83261027Y-49442801D01*
X83261020Y-49442803D01*
X83126313Y-49493045D01*
X83126306Y-49493049D01*
X83011212Y-49579209D01*
X83011209Y-49579212D01*
X82925049Y-49694306D01*
X82925046Y-49694312D01*
X82881224Y-49811803D01*
X82839352Y-49867736D01*
X82773887Y-49892153D01*
X82705615Y-49877301D01*
X82673813Y-49852452D01*
X82619049Y-49792963D01*
X82619048Y-49792962D01*
X82619046Y-49792960D01*
X82440649Y-49654107D01*
X82414390Y-49639896D01*
X82241832Y-49546512D01*
X82241827Y-49546510D01*
X82028017Y-49473109D01*
X81846388Y-49442801D01*
X81805033Y-49435900D01*
X81578967Y-49435900D01*
X81537612Y-49442801D01*
X81355982Y-49473109D01*
X81142172Y-49546510D01*
X81142167Y-49546512D01*
X80943352Y-49654106D01*
X80764955Y-49792959D01*
X80764950Y-49792963D01*
X80611850Y-49959272D01*
X80611842Y-49959283D01*
X80525808Y-50090968D01*
X80472662Y-50136325D01*
X80403430Y-50145748D01*
X80340095Y-50116246D01*
X80318192Y-50090968D01*
X80232157Y-49959283D01*
X80232149Y-49959272D01*
X80079049Y-49792963D01*
X80079048Y-49792962D01*
X80079046Y-49792960D01*
X79900649Y-49654107D01*
X79874390Y-49639896D01*
X79701832Y-49546512D01*
X79701827Y-49546510D01*
X79488017Y-49473109D01*
X79306388Y-49442801D01*
X79265033Y-49435900D01*
X79038967Y-49435900D01*
X78997612Y-49442801D01*
X78815982Y-49473109D01*
X78602172Y-49546510D01*
X78602167Y-49546512D01*
X78403352Y-49654106D01*
X78224955Y-49792959D01*
X78224950Y-49792963D01*
X78071850Y-49959272D01*
X78071842Y-49959283D01*
X77985808Y-50090968D01*
X77932662Y-50136325D01*
X77863430Y-50145748D01*
X77800095Y-50116246D01*
X77778192Y-50090968D01*
X77692157Y-49959283D01*
X77692149Y-49959272D01*
X77539049Y-49792963D01*
X77539048Y-49792962D01*
X77539046Y-49792960D01*
X77360649Y-49654107D01*
X77334390Y-49639896D01*
X77161832Y-49546512D01*
X77161827Y-49546510D01*
X76948017Y-49473109D01*
X76766388Y-49442801D01*
X76725033Y-49435900D01*
X76498967Y-49435900D01*
X76457612Y-49442801D01*
X76275982Y-49473109D01*
X76062172Y-49546510D01*
X76062167Y-49546512D01*
X75863352Y-49654106D01*
X75684955Y-49792959D01*
X75684950Y-49792963D01*
X75531850Y-49959272D01*
X75531842Y-49959283D01*
X75445808Y-50090968D01*
X75392662Y-50136325D01*
X75323430Y-50145748D01*
X75260095Y-50116246D01*
X75238192Y-50090968D01*
X75152157Y-49959283D01*
X75152149Y-49959272D01*
X74999049Y-49792963D01*
X74999048Y-49792962D01*
X74999046Y-49792960D01*
X74820649Y-49654107D01*
X74794390Y-49639896D01*
X74621832Y-49546512D01*
X74621827Y-49546510D01*
X74408017Y-49473109D01*
X74226388Y-49442801D01*
X74185033Y-49435900D01*
X73958967Y-49435900D01*
X73917612Y-49442801D01*
X73735982Y-49473109D01*
X73522172Y-49546510D01*
X73522167Y-49546512D01*
X73323352Y-49654106D01*
X73144955Y-49792959D01*
X73144950Y-49792963D01*
X72991850Y-49959272D01*
X72991842Y-49959283D01*
X72905808Y-50090968D01*
X72852662Y-50136325D01*
X72783430Y-50145748D01*
X72720095Y-50116246D01*
X72698192Y-50090968D01*
X72612157Y-49959283D01*
X72612149Y-49959272D01*
X72459049Y-49792963D01*
X72459048Y-49792962D01*
X72459046Y-49792960D01*
X72280649Y-49654107D01*
X72254390Y-49639896D01*
X72081832Y-49546512D01*
X72081827Y-49546510D01*
X71868017Y-49473109D01*
X71686388Y-49442801D01*
X71645033Y-49435900D01*
X71418967Y-49435900D01*
X71377612Y-49442801D01*
X71195982Y-49473109D01*
X70982172Y-49546510D01*
X70982167Y-49546512D01*
X70783352Y-49654106D01*
X70604955Y-49792959D01*
X70604950Y-49792963D01*
X70451850Y-49959272D01*
X70451842Y-49959283D01*
X70365808Y-50090968D01*
X70312662Y-50136325D01*
X70243430Y-50145748D01*
X70180095Y-50116246D01*
X70158192Y-50090968D01*
X70072157Y-49959283D01*
X70072149Y-49959272D01*
X69919049Y-49792963D01*
X69919048Y-49792962D01*
X69919046Y-49792960D01*
X69740649Y-49654107D01*
X69714390Y-49639896D01*
X69541832Y-49546512D01*
X69541827Y-49546510D01*
X69328017Y-49473109D01*
X69146388Y-49442801D01*
X69105033Y-49435900D01*
X68878967Y-49435900D01*
X68837612Y-49442801D01*
X68655982Y-49473109D01*
X68442172Y-49546510D01*
X68442167Y-49546512D01*
X68243352Y-49654106D01*
X68064955Y-49792959D01*
X68064950Y-49792963D01*
X67911850Y-49959272D01*
X67911842Y-49959283D01*
X67825808Y-50090968D01*
X67772662Y-50136325D01*
X67703430Y-50145748D01*
X67640095Y-50116246D01*
X67618192Y-50090968D01*
X67532157Y-49959283D01*
X67532149Y-49959272D01*
X67379049Y-49792963D01*
X67379048Y-49792962D01*
X67379046Y-49792960D01*
X67200649Y-49654107D01*
X67174390Y-49639896D01*
X67001832Y-49546512D01*
X67001827Y-49546510D01*
X66788017Y-49473109D01*
X66606388Y-49442801D01*
X66565033Y-49435900D01*
X66338967Y-49435900D01*
X66297612Y-49442801D01*
X66115982Y-49473109D01*
X65902172Y-49546510D01*
X65902167Y-49546512D01*
X65703352Y-49654106D01*
X65524955Y-49792959D01*
X65524950Y-49792963D01*
X65371850Y-49959272D01*
X65371842Y-49959283D01*
X65285808Y-50090968D01*
X65232662Y-50136325D01*
X65163430Y-50145748D01*
X65100095Y-50116246D01*
X65078192Y-50090968D01*
X64992157Y-49959283D01*
X64992149Y-49959272D01*
X64839049Y-49792963D01*
X64839048Y-49792962D01*
X64839046Y-49792960D01*
X64660649Y-49654107D01*
X64634390Y-49639896D01*
X64461832Y-49546512D01*
X64461827Y-49546510D01*
X64248017Y-49473109D01*
X64066388Y-49442801D01*
X64025033Y-49435900D01*
X63798967Y-49435900D01*
X63757612Y-49442801D01*
X63575982Y-49473109D01*
X63362172Y-49546510D01*
X63362167Y-49546512D01*
X63163352Y-49654106D01*
X62984955Y-49792959D01*
X62984950Y-49792963D01*
X62831850Y-49959272D01*
X62831842Y-49959283D01*
X62745808Y-50090968D01*
X62692662Y-50136325D01*
X62623430Y-50145748D01*
X62560095Y-50116246D01*
X62538192Y-50090968D01*
X62452157Y-49959283D01*
X62452149Y-49959272D01*
X62299049Y-49792963D01*
X62299048Y-49792962D01*
X62299046Y-49792960D01*
X62120649Y-49654107D01*
X62094390Y-49639896D01*
X61921832Y-49546512D01*
X61921827Y-49546510D01*
X61708017Y-49473109D01*
X61526388Y-49442801D01*
X61485033Y-49435900D01*
X61258967Y-49435900D01*
X61217612Y-49442801D01*
X61035982Y-49473109D01*
X60822172Y-49546510D01*
X60822167Y-49546512D01*
X60623352Y-49654106D01*
X60444955Y-49792959D01*
X60444950Y-49792963D01*
X60291850Y-49959272D01*
X60291842Y-49959283D01*
X60205808Y-50090968D01*
X60152662Y-50136325D01*
X60083430Y-50145748D01*
X60020095Y-50116246D01*
X59998192Y-50090968D01*
X59912157Y-49959283D01*
X59912149Y-49959272D01*
X59759049Y-49792963D01*
X59759048Y-49792962D01*
X59759046Y-49792960D01*
X59580649Y-49654107D01*
X59554390Y-49639896D01*
X59381832Y-49546512D01*
X59381827Y-49546510D01*
X59168017Y-49473109D01*
X58986388Y-49442801D01*
X58945033Y-49435900D01*
X58718967Y-49435900D01*
X58677612Y-49442801D01*
X58495982Y-49473109D01*
X58282172Y-49546510D01*
X58282167Y-49546512D01*
X58083352Y-49654106D01*
X57904955Y-49792959D01*
X57904950Y-49792963D01*
X57751850Y-49959272D01*
X57751842Y-49959283D01*
X57665808Y-50090968D01*
X57612662Y-50136325D01*
X57543430Y-50145748D01*
X57480095Y-50116246D01*
X57458192Y-50090968D01*
X57372157Y-49959283D01*
X57372149Y-49959272D01*
X57219049Y-49792963D01*
X57219048Y-49792962D01*
X57219046Y-49792960D01*
X57040649Y-49654107D01*
X57014390Y-49639896D01*
X56841832Y-49546512D01*
X56841827Y-49546510D01*
X56628017Y-49473109D01*
X56446388Y-49442801D01*
X56405033Y-49435900D01*
X56178967Y-49435900D01*
X56137612Y-49442801D01*
X55955982Y-49473109D01*
X55742172Y-49546510D01*
X55742167Y-49546512D01*
X55543352Y-49654106D01*
X55364955Y-49792959D01*
X55364950Y-49792963D01*
X55211850Y-49959272D01*
X55211842Y-49959283D01*
X55125808Y-50090968D01*
X55072662Y-50136325D01*
X55003430Y-50145748D01*
X54940095Y-50116246D01*
X54918192Y-50090968D01*
X54832157Y-49959283D01*
X54832149Y-49959272D01*
X54679049Y-49792963D01*
X54679048Y-49792962D01*
X54679046Y-49792960D01*
X54500649Y-49654107D01*
X54474390Y-49639896D01*
X54301832Y-49546512D01*
X54301827Y-49546510D01*
X54088017Y-49473109D01*
X53906388Y-49442801D01*
X53865033Y-49435900D01*
X53638967Y-49435900D01*
X53597612Y-49442801D01*
X53415982Y-49473109D01*
X53202172Y-49546510D01*
X53202167Y-49546512D01*
X53003352Y-49654106D01*
X52824955Y-49792959D01*
X52824950Y-49792963D01*
X52671850Y-49959272D01*
X52671842Y-49959283D01*
X52585808Y-50090968D01*
X52532662Y-50136325D01*
X52463430Y-50145748D01*
X52400095Y-50116246D01*
X52378192Y-50090968D01*
X52292157Y-49959283D01*
X52292149Y-49959272D01*
X52139049Y-49792963D01*
X52139048Y-49792962D01*
X52139046Y-49792960D01*
X51960649Y-49654107D01*
X51934390Y-49639896D01*
X51761832Y-49546512D01*
X51761827Y-49546510D01*
X51548017Y-49473109D01*
X51366388Y-49442801D01*
X51325033Y-49435900D01*
X51098967Y-49435900D01*
X51057612Y-49442801D01*
X50875982Y-49473109D01*
X50662172Y-49546510D01*
X50662167Y-49546512D01*
X50463352Y-49654106D01*
X50284955Y-49792959D01*
X50284950Y-49792963D01*
X50131850Y-49959272D01*
X50131842Y-49959283D01*
X50008198Y-50148533D01*
X49940483Y-50302909D01*
X49895527Y-50356395D01*
X49828791Y-50377085D01*
X49761463Y-50358410D01*
X49714920Y-50306300D01*
X49711301Y-50297894D01*
X49706301Y-50284988D01*
X49706298Y-50284982D01*
X49706298Y-50284981D01*
X49594052Y-50103698D01*
X49450407Y-49946128D01*
X49427628Y-49928926D01*
X49280253Y-49817632D01*
X49089393Y-49722596D01*
X48884310Y-49664244D01*
X48884309Y-49664244D01*
X48725194Y-49649500D01*
X48618806Y-49649500D01*
X48491513Y-49661295D01*
X48459689Y-49664244D01*
X48254607Y-49722596D01*
X48254605Y-49722596D01*
X48063746Y-49817632D01*
X47893593Y-49946127D01*
X47749947Y-50103699D01*
X47637702Y-50284980D01*
X47637701Y-50284982D01*
X47602021Y-50377085D01*
X47560679Y-50483802D01*
X47521500Y-50693390D01*
X47521500Y-50906610D01*
X46355000Y-50906610D01*
X46355000Y-46355000D01*
X61959540Y-46355000D01*
X61979326Y-46543256D01*
X61979327Y-46543259D01*
X62037818Y-46723277D01*
X62037821Y-46723284D01*
X62132467Y-46887216D01*
X62227771Y-46993061D01*
X62259129Y-47027888D01*
X62412265Y-47139148D01*
X62412270Y-47139151D01*
X62585192Y-47216142D01*
X62585197Y-47216144D01*
X62770354Y-47255500D01*
X62829548Y-47255500D01*
X62896587Y-47275185D01*
X62917228Y-47291818D01*
X63281935Y-47656526D01*
X63634197Y-48008788D01*
X63644022Y-48021051D01*
X63644243Y-48020869D01*
X63649214Y-48026878D01*
X63675217Y-48051295D01*
X63699635Y-48074226D01*
X63720529Y-48095120D01*
X63726011Y-48099373D01*
X63730443Y-48103157D01*
X63764418Y-48135062D01*
X63781976Y-48144714D01*
X63798235Y-48155395D01*
X63814064Y-48167673D01*
X63856838Y-48186182D01*
X63862056Y-48188738D01*
X63902908Y-48211197D01*
X63922316Y-48216180D01*
X63940717Y-48222480D01*
X63959104Y-48230437D01*
X64002488Y-48237308D01*
X64005119Y-48237725D01*
X64010839Y-48238909D01*
X64055981Y-48250500D01*
X64076016Y-48250500D01*
X64095414Y-48252026D01*
X64115194Y-48255159D01*
X64115195Y-48255160D01*
X64115195Y-48255159D01*
X64115196Y-48255160D01*
X64161583Y-48250775D01*
X64167422Y-48250500D01*
X90494548Y-48250500D01*
X90561587Y-48270185D01*
X90582229Y-48286819D01*
X94114194Y-51818784D01*
X94124019Y-51831048D01*
X94124240Y-51830866D01*
X94129210Y-51836873D01*
X94129213Y-51836876D01*
X94129214Y-51836877D01*
X94179651Y-51884241D01*
X94200530Y-51905120D01*
X94206004Y-51909366D01*
X94210442Y-51913156D01*
X94244418Y-51945062D01*
X94261973Y-51954713D01*
X94278231Y-51965392D01*
X94294064Y-51977674D01*
X94316015Y-51987172D01*
X94336837Y-51996183D01*
X94342081Y-51998752D01*
X94382908Y-52021197D01*
X94402312Y-52026179D01*
X94420710Y-52032478D01*
X94439105Y-52040438D01*
X94485129Y-52047726D01*
X94490832Y-52048907D01*
X94535981Y-52060500D01*
X94556016Y-52060500D01*
X94575413Y-52062026D01*
X94595196Y-52065160D01*
X94641583Y-52060775D01*
X94647422Y-52060500D01*
X105976252Y-52060500D01*
X106043291Y-52080185D01*
X106068400Y-52101526D01*
X106074126Y-52107885D01*
X106074130Y-52107889D01*
X106227265Y-52219148D01*
X106227270Y-52219151D01*
X106400192Y-52296142D01*
X106400197Y-52296144D01*
X106585354Y-52335500D01*
X106585355Y-52335500D01*
X106774644Y-52335500D01*
X106774646Y-52335500D01*
X106959803Y-52296144D01*
X107132730Y-52219151D01*
X107285871Y-52107888D01*
X107412533Y-51967216D01*
X107507179Y-51803284D01*
X107565674Y-51623256D01*
X107585460Y-51435000D01*
X107565674Y-51246744D01*
X107507179Y-51066716D01*
X107412533Y-50902784D01*
X107285871Y-50762112D01*
X107285870Y-50762111D01*
X107132734Y-50650851D01*
X107132729Y-50650848D01*
X106959807Y-50573857D01*
X106959802Y-50573855D01*
X106814000Y-50542865D01*
X106774646Y-50534500D01*
X106585354Y-50534500D01*
X106552897Y-50541398D01*
X106400197Y-50573855D01*
X106400192Y-50573857D01*
X106227270Y-50650848D01*
X106227265Y-50650851D01*
X106074130Y-50762110D01*
X106074126Y-50762114D01*
X106068400Y-50768474D01*
X106008913Y-50805121D01*
X105976252Y-50809500D01*
X94925452Y-50809500D01*
X94858413Y-50789815D01*
X94837771Y-50773181D01*
X91964122Y-47899531D01*
X91930637Y-47838208D01*
X91935621Y-47768516D01*
X91977493Y-47712583D01*
X91978918Y-47711532D01*
X92027193Y-47676458D01*
X92045871Y-47662888D01*
X92172533Y-47522216D01*
X92267179Y-47358284D01*
X92325674Y-47178256D01*
X92345460Y-46990001D01*
X93309532Y-46990001D01*
X93329364Y-47216686D01*
X93329366Y-47216697D01*
X93388258Y-47436488D01*
X93388261Y-47436497D01*
X93484431Y-47642732D01*
X93484432Y-47642734D01*
X93614954Y-47829141D01*
X93775858Y-47990045D01*
X93775861Y-47990047D01*
X93962266Y-48120568D01*
X94168504Y-48216739D01*
X94168509Y-48216740D01*
X94168511Y-48216741D01*
X94219622Y-48230436D01*
X94388308Y-48275635D01*
X94550230Y-48289801D01*
X94614998Y-48295468D01*
X94615000Y-48295468D01*
X94615002Y-48295468D01*
X94671673Y-48290509D01*
X94841692Y-48275635D01*
X95061496Y-48216739D01*
X95267734Y-48120568D01*
X95454139Y-47990047D01*
X95615047Y-47829139D01*
X95721954Y-47676457D01*
X95776530Y-47632833D01*
X95846029Y-47625639D01*
X95908383Y-47657161D01*
X95912972Y-47661846D01*
X95914129Y-47662888D01*
X96067265Y-47774148D01*
X96067270Y-47774151D01*
X96240192Y-47851142D01*
X96240197Y-47851144D01*
X96425354Y-47890500D01*
X96425355Y-47890500D01*
X96614644Y-47890500D01*
X96614646Y-47890500D01*
X96799803Y-47851144D01*
X96972730Y-47774151D01*
X97125871Y-47662888D01*
X97131028Y-47657161D01*
X97131600Y-47656526D01*
X97191087Y-47619879D01*
X97223748Y-47615500D01*
X108502257Y-47615500D01*
X108517877Y-47617224D01*
X108517904Y-47616939D01*
X108525660Y-47617671D01*
X108525667Y-47617673D01*
X108594814Y-47615500D01*
X108624350Y-47615500D01*
X108631228Y-47614630D01*
X108637041Y-47614172D01*
X108683627Y-47612709D01*
X108702869Y-47607117D01*
X108721912Y-47603174D01*
X108741792Y-47600664D01*
X108785122Y-47583507D01*
X108790646Y-47581617D01*
X108794396Y-47580527D01*
X108835390Y-47568618D01*
X108852629Y-47558422D01*
X108870103Y-47549862D01*
X108888727Y-47542488D01*
X108888727Y-47542487D01*
X108888732Y-47542486D01*
X108926449Y-47515082D01*
X108931305Y-47511892D01*
X108971420Y-47488170D01*
X108985586Y-47474003D01*
X109000381Y-47461368D01*
X109003619Y-47459014D01*
X109016587Y-47449594D01*
X109046302Y-47413674D01*
X109050202Y-47409387D01*
X109802771Y-46656819D01*
X109864095Y-46623334D01*
X109890453Y-46620500D01*
X109949644Y-46620500D01*
X109949646Y-46620500D01*
X110134803Y-46581144D01*
X110307730Y-46504151D01*
X110460871Y-46392888D01*
X110587533Y-46252216D01*
X110682179Y-46088284D01*
X110740674Y-45908256D01*
X110760460Y-45720000D01*
X110740674Y-45531744D01*
X110682179Y-45351716D01*
X110587533Y-45187784D01*
X110460871Y-45047112D01*
X110460870Y-45047111D01*
X110307734Y-44935851D01*
X110307729Y-44935848D01*
X110134807Y-44858857D01*
X110134802Y-44858855D01*
X109989001Y-44827865D01*
X109949646Y-44819500D01*
X109760354Y-44819500D01*
X109727897Y-44826398D01*
X109575197Y-44858855D01*
X109575192Y-44858857D01*
X109402270Y-44935848D01*
X109402265Y-44935851D01*
X109249129Y-45047111D01*
X109122466Y-45187785D01*
X109027821Y-45351715D01*
X109027818Y-45351722D01*
X108969327Y-45531740D01*
X108969326Y-45531744D01*
X108953522Y-45682111D01*
X108951679Y-45699649D01*
X108925094Y-45764263D01*
X108916039Y-45774368D01*
X108362228Y-46328181D01*
X108300905Y-46361666D01*
X108274547Y-46364500D01*
X97223748Y-46364500D01*
X97156709Y-46344815D01*
X97131600Y-46323474D01*
X97125873Y-46317114D01*
X97125869Y-46317110D01*
X96972734Y-46205851D01*
X96972729Y-46205848D01*
X96799807Y-46128857D01*
X96799802Y-46128855D01*
X96654000Y-46097865D01*
X96614646Y-46089500D01*
X96425354Y-46089500D01*
X96392897Y-46096398D01*
X96240197Y-46128855D01*
X96240192Y-46128857D01*
X96067270Y-46205848D01*
X96067265Y-46205851D01*
X95914135Y-46317106D01*
X95909305Y-46321456D01*
X95908070Y-46320084D01*
X95856159Y-46352048D01*
X95786302Y-46350698D01*
X95728264Y-46311796D01*
X95721961Y-46303552D01*
X95626168Y-46166744D01*
X95615045Y-46150858D01*
X95454141Y-45989954D01*
X95267734Y-45859432D01*
X95267732Y-45859431D01*
X95061497Y-45763261D01*
X95061488Y-45763258D01*
X94841697Y-45704366D01*
X94841693Y-45704365D01*
X94841692Y-45704365D01*
X94841691Y-45704364D01*
X94841686Y-45704364D01*
X94615002Y-45684532D01*
X94614998Y-45684532D01*
X94388313Y-45704364D01*
X94388302Y-45704366D01*
X94168511Y-45763258D01*
X94168502Y-45763261D01*
X93962267Y-45859431D01*
X93962265Y-45859432D01*
X93775858Y-45989954D01*
X93614954Y-46150858D01*
X93484432Y-46337265D01*
X93484431Y-46337267D01*
X93388261Y-46543502D01*
X93388258Y-46543511D01*
X93329366Y-46763302D01*
X93329364Y-46763313D01*
X93309532Y-46989998D01*
X93309532Y-46990001D01*
X92345460Y-46990001D01*
X92345460Y-46990000D01*
X92325674Y-46801744D01*
X92267179Y-46621716D01*
X92172533Y-46457784D01*
X92128940Y-46409369D01*
X92097350Y-46374284D01*
X92067120Y-46311292D01*
X92065500Y-46291312D01*
X92065500Y-46030452D01*
X92085185Y-45963413D01*
X92101819Y-45942771D01*
X92657772Y-45386819D01*
X92719095Y-45353334D01*
X92745453Y-45350500D01*
X92804644Y-45350500D01*
X92804646Y-45350500D01*
X92989803Y-45311144D01*
X93162730Y-45234151D01*
X93315871Y-45122888D01*
X93442533Y-44982216D01*
X93537179Y-44818284D01*
X93544568Y-44795541D01*
X93584006Y-44737865D01*
X93648364Y-44710666D01*
X93717210Y-44722580D01*
X93768687Y-44769824D01*
X93780431Y-44795541D01*
X93787817Y-44818275D01*
X93787821Y-44818284D01*
X93882467Y-44982216D01*
X94003401Y-45116526D01*
X94009129Y-45122888D01*
X94162265Y-45234148D01*
X94162270Y-45234151D01*
X94335192Y-45311142D01*
X94335197Y-45311144D01*
X94520354Y-45350500D01*
X94520355Y-45350500D01*
X94709644Y-45350500D01*
X94709646Y-45350500D01*
X94894803Y-45311144D01*
X95067730Y-45234151D01*
X95220871Y-45122888D01*
X95223788Y-45119647D01*
X95226600Y-45116526D01*
X95286087Y-45079879D01*
X95318748Y-45075500D01*
X107867257Y-45075500D01*
X107882877Y-45077224D01*
X107882904Y-45076939D01*
X107890660Y-45077671D01*
X107890667Y-45077673D01*
X107959814Y-45075500D01*
X107989350Y-45075500D01*
X107996228Y-45074630D01*
X108002041Y-45074172D01*
X108048627Y-45072709D01*
X108067869Y-45067117D01*
X108086912Y-45063174D01*
X108106792Y-45060664D01*
X108150122Y-45043507D01*
X108155646Y-45041617D01*
X108159396Y-45040527D01*
X108200390Y-45028618D01*
X108217629Y-45018422D01*
X108235103Y-45009862D01*
X108253727Y-45002488D01*
X108253727Y-45002487D01*
X108253732Y-45002486D01*
X108291449Y-44975082D01*
X108296305Y-44971892D01*
X108336420Y-44948170D01*
X108350589Y-44933999D01*
X108365379Y-44921368D01*
X108381587Y-44909594D01*
X108411295Y-44873681D01*
X108415207Y-44869381D01*
X108468247Y-44816341D01*
X108532773Y-44751818D01*
X108594096Y-44718334D01*
X108620453Y-44715500D01*
X108679644Y-44715500D01*
X108679646Y-44715500D01*
X108864803Y-44676144D01*
X109037730Y-44599151D01*
X109190871Y-44487888D01*
X109317533Y-44347216D01*
X109412179Y-44183284D01*
X109470674Y-44003256D01*
X109490460Y-43815000D01*
X109470674Y-43626744D01*
X109412179Y-43446716D01*
X109317533Y-43282784D01*
X109190871Y-43142112D01*
X109190870Y-43142111D01*
X109037734Y-43030851D01*
X109037729Y-43030848D01*
X108864807Y-42953857D01*
X108864802Y-42953855D01*
X108719000Y-42922865D01*
X108679646Y-42914500D01*
X108490354Y-42914500D01*
X108457897Y-42921398D01*
X108305197Y-42953855D01*
X108305192Y-42953857D01*
X108132270Y-43030848D01*
X108132265Y-43030851D01*
X107979129Y-43142111D01*
X107852466Y-43282785D01*
X107757821Y-43446715D01*
X107757818Y-43446722D01*
X107711636Y-43588857D01*
X107699326Y-43626744D01*
X107695216Y-43665849D01*
X107690212Y-43713462D01*
X107663627Y-43778077D01*
X107606330Y-43818061D01*
X107566891Y-43824500D01*
X95318748Y-43824500D01*
X95251709Y-43804815D01*
X95226600Y-43783474D01*
X95220873Y-43777114D01*
X95220869Y-43777110D01*
X95067734Y-43665851D01*
X95067729Y-43665848D01*
X94894807Y-43588857D01*
X94894802Y-43588855D01*
X94749000Y-43557865D01*
X94709646Y-43549500D01*
X94520354Y-43549500D01*
X94487897Y-43556398D01*
X94335197Y-43588855D01*
X94335192Y-43588857D01*
X94162270Y-43665848D01*
X94162265Y-43665851D01*
X94009129Y-43777111D01*
X93882466Y-43917785D01*
X93787821Y-44081715D01*
X93787818Y-44081722D01*
X93780431Y-44104459D01*
X93740993Y-44162135D01*
X93676635Y-44189333D01*
X93607789Y-44177418D01*
X93556313Y-44130174D01*
X93544569Y-44104459D01*
X93537181Y-44081722D01*
X93537180Y-44081721D01*
X93537179Y-44081716D01*
X93442533Y-43917784D01*
X93315871Y-43777112D01*
X93315870Y-43777111D01*
X93162734Y-43665851D01*
X93162729Y-43665848D01*
X92989807Y-43588857D01*
X92989802Y-43588855D01*
X92844000Y-43557865D01*
X92804646Y-43549500D01*
X92615354Y-43549500D01*
X92582897Y-43556398D01*
X92430197Y-43588855D01*
X92430192Y-43588857D01*
X92257270Y-43665848D01*
X92257265Y-43665851D01*
X92104129Y-43777111D01*
X91977466Y-43917785D01*
X91882821Y-44081715D01*
X91882818Y-44081722D01*
X91824327Y-44261740D01*
X91824326Y-44261744D01*
X91815343Y-44347214D01*
X91806679Y-44429649D01*
X91780094Y-44494263D01*
X91771039Y-44504368D01*
X91056208Y-45219199D01*
X91043951Y-45229020D01*
X91044134Y-45229241D01*
X91038123Y-45234213D01*
X90990772Y-45284636D01*
X90969889Y-45305519D01*
X90969877Y-45305532D01*
X90965621Y-45311017D01*
X90961837Y-45315447D01*
X90929937Y-45349418D01*
X90929936Y-45349420D01*
X90920284Y-45366976D01*
X90909610Y-45383226D01*
X90897329Y-45399061D01*
X90897324Y-45399068D01*
X90878815Y-45441838D01*
X90876245Y-45447084D01*
X90853803Y-45487906D01*
X90848822Y-45507307D01*
X90842521Y-45525710D01*
X90834562Y-45544102D01*
X90834561Y-45544105D01*
X90827271Y-45590127D01*
X90826087Y-45595846D01*
X90814501Y-45640972D01*
X90814500Y-45640982D01*
X90814500Y-45661016D01*
X90812973Y-45680415D01*
X90809840Y-45700194D01*
X90809840Y-45700195D01*
X90814225Y-45746583D01*
X90814500Y-45752421D01*
X90814500Y-46291312D01*
X90794815Y-46358351D01*
X90782650Y-46374284D01*
X90707466Y-46457784D01*
X90612821Y-46621715D01*
X90612818Y-46621722D01*
X90566813Y-46763313D01*
X90554326Y-46801744D01*
X90545343Y-46887214D01*
X90545212Y-46888462D01*
X90518627Y-46953077D01*
X90461330Y-46993061D01*
X90421891Y-46999500D01*
X64445453Y-46999500D01*
X64378414Y-46979815D01*
X64357772Y-46963181D01*
X63803960Y-46409369D01*
X63770475Y-46348046D01*
X63768323Y-46334668D01*
X63750674Y-46166744D01*
X63692179Y-45986716D01*
X63597533Y-45822784D01*
X63470871Y-45682112D01*
X63470870Y-45682111D01*
X63317734Y-45570851D01*
X63317729Y-45570848D01*
X63144807Y-45493857D01*
X63144802Y-45493855D01*
X62999001Y-45462865D01*
X62959646Y-45454500D01*
X62770354Y-45454500D01*
X62737897Y-45461398D01*
X62585197Y-45493855D01*
X62585192Y-45493857D01*
X62412270Y-45570848D01*
X62412265Y-45570851D01*
X62259129Y-45682111D01*
X62132466Y-45822785D01*
X62037821Y-45986715D01*
X62037818Y-45986722D01*
X61979327Y-46166740D01*
X61979326Y-46166744D01*
X61959540Y-46355000D01*
X46355000Y-46355000D01*
X46355000Y-35666610D01*
X47521500Y-35666610D01*
X47560679Y-35876198D01*
X47587902Y-35946470D01*
X47608184Y-35998825D01*
X47637702Y-36075019D01*
X47749948Y-36256302D01*
X47843841Y-36359297D01*
X47893593Y-36413872D01*
X48063746Y-36542367D01*
X48254606Y-36637403D01*
X48254608Y-36637403D01*
X48254611Y-36637405D01*
X48459690Y-36695756D01*
X48618806Y-36710500D01*
X48618810Y-36710500D01*
X48725190Y-36710500D01*
X48725194Y-36710500D01*
X48884310Y-36695756D01*
X49089389Y-36637405D01*
X49089393Y-36637403D01*
X49089394Y-36637403D01*
X49280253Y-36542367D01*
X49280253Y-36542366D01*
X49280255Y-36542366D01*
X49450407Y-36413872D01*
X49594052Y-36256302D01*
X49706298Y-36075019D01*
X49711300Y-36062106D01*
X49753872Y-36006705D01*
X49819639Y-35983114D01*
X49887719Y-35998825D01*
X49936499Y-36048848D01*
X49940483Y-36057090D01*
X50008198Y-36211466D01*
X50131842Y-36400716D01*
X50131850Y-36400727D01*
X50284950Y-36567036D01*
X50284954Y-36567040D01*
X50463351Y-36705893D01*
X50662169Y-36813488D01*
X50662172Y-36813489D01*
X50875982Y-36886890D01*
X50875984Y-36886890D01*
X50875986Y-36886891D01*
X51098967Y-36924100D01*
X51098968Y-36924100D01*
X51325032Y-36924100D01*
X51325033Y-36924100D01*
X51548014Y-36886891D01*
X51761831Y-36813488D01*
X51960649Y-36705893D01*
X52139046Y-36567040D01*
X52292156Y-36400719D01*
X52378193Y-36269028D01*
X52431338Y-36223675D01*
X52500569Y-36214251D01*
X52563905Y-36243753D01*
X52585804Y-36269025D01*
X52671844Y-36400719D01*
X52671849Y-36400724D01*
X52671850Y-36400727D01*
X52824950Y-36567036D01*
X52824954Y-36567040D01*
X53003351Y-36705893D01*
X53202169Y-36813488D01*
X53202172Y-36813489D01*
X53415982Y-36886890D01*
X53415984Y-36886890D01*
X53415986Y-36886891D01*
X53638967Y-36924100D01*
X53638968Y-36924100D01*
X53865032Y-36924100D01*
X53865033Y-36924100D01*
X54088014Y-36886891D01*
X54301831Y-36813488D01*
X54322699Y-36802194D01*
X54391026Y-36787599D01*
X54456398Y-36812261D01*
X54498060Y-36868350D01*
X54502784Y-36938060D01*
X54489105Y-36973248D01*
X54417820Y-37096718D01*
X54417818Y-37096722D01*
X54359327Y-37276740D01*
X54359326Y-37276744D01*
X54339540Y-37465000D01*
X54359326Y-37653256D01*
X54359326Y-37653258D01*
X54359327Y-37653260D01*
X54366938Y-37676683D01*
X54368935Y-37746524D01*
X54332855Y-37806358D01*
X54270154Y-37837187D01*
X54249008Y-37839003D01*
X54066836Y-37839003D01*
X53999797Y-37819318D01*
X53974687Y-37797976D01*
X53944324Y-37764255D01*
X53944317Y-37764249D01*
X53791187Y-37652994D01*
X53791182Y-37652991D01*
X53618260Y-37576000D01*
X53618255Y-37575998D01*
X53472454Y-37545008D01*
X53433099Y-37536643D01*
X53243807Y-37536643D01*
X53211350Y-37543541D01*
X53058650Y-37575998D01*
X53058645Y-37576000D01*
X52885723Y-37652991D01*
X52885718Y-37652994D01*
X52732582Y-37764254D01*
X52605919Y-37904928D01*
X52511274Y-38068858D01*
X52511271Y-38068865D01*
X52452780Y-38248883D01*
X52452779Y-38248887D01*
X52432993Y-38437143D01*
X52452779Y-38625399D01*
X52452780Y-38625402D01*
X52511271Y-38805420D01*
X52511274Y-38805427D01*
X52605920Y-38969359D01*
X52671901Y-39042638D01*
X52732582Y-39110031D01*
X52885718Y-39221291D01*
X52885723Y-39221294D01*
X53058645Y-39298285D01*
X53058650Y-39298287D01*
X53243807Y-39337643D01*
X53243808Y-39337643D01*
X53433097Y-39337643D01*
X53433099Y-39337643D01*
X53618256Y-39298287D01*
X53791183Y-39221294D01*
X53892266Y-39147853D01*
X53939295Y-39113685D01*
X54005101Y-39090205D01*
X54012180Y-39090003D01*
X70741253Y-39090003D01*
X70808292Y-39109688D01*
X70854047Y-39162492D01*
X70864573Y-39226962D01*
X70849540Y-39370000D01*
X70869326Y-39558256D01*
X70869327Y-39558259D01*
X70927818Y-39738277D01*
X70927821Y-39738284D01*
X70979907Y-39828500D01*
X70996380Y-39896401D01*
X70973527Y-39962427D01*
X70918606Y-40005618D01*
X70872520Y-40014500D01*
X69918748Y-40014500D01*
X69851709Y-39994815D01*
X69826600Y-39973474D01*
X69820873Y-39967114D01*
X69820869Y-39967110D01*
X69667734Y-39855851D01*
X69667729Y-39855848D01*
X69494807Y-39778857D01*
X69494802Y-39778855D01*
X69349001Y-39747865D01*
X69309646Y-39739500D01*
X69120354Y-39739500D01*
X69087897Y-39746398D01*
X68935197Y-39778855D01*
X68935192Y-39778857D01*
X68762270Y-39855848D01*
X68762265Y-39855851D01*
X68609129Y-39967111D01*
X68482466Y-40107785D01*
X68387821Y-40271715D01*
X68387818Y-40271722D01*
X68341636Y-40413857D01*
X68329326Y-40451744D01*
X68310805Y-40627963D01*
X68284222Y-40692576D01*
X68226924Y-40732561D01*
X68187485Y-40739000D01*
X66189334Y-40739000D01*
X66122295Y-40719315D01*
X66097184Y-40697972D01*
X66010870Y-40602111D01*
X65857734Y-40490851D01*
X65857729Y-40490848D01*
X65684807Y-40413857D01*
X65684802Y-40413855D01*
X65539001Y-40382865D01*
X65499646Y-40374500D01*
X65310354Y-40374500D01*
X65277897Y-40381398D01*
X65125197Y-40413855D01*
X65125192Y-40413857D01*
X64952270Y-40490848D01*
X64952265Y-40490851D01*
X64799129Y-40602111D01*
X64672466Y-40742785D01*
X64577821Y-40906715D01*
X64577818Y-40906722D01*
X64528222Y-41059365D01*
X64519326Y-41086744D01*
X64508212Y-41192488D01*
X64500539Y-41265499D01*
X64499540Y-41275000D01*
X64519326Y-41463256D01*
X64519327Y-41463259D01*
X64577818Y-41643277D01*
X64577821Y-41643284D01*
X64672467Y-41807216D01*
X64799129Y-41947888D01*
X64952265Y-42059148D01*
X64952270Y-42059151D01*
X65125192Y-42136142D01*
X65125197Y-42136144D01*
X65310354Y-42175500D01*
X65310355Y-42175500D01*
X65499644Y-42175500D01*
X65499646Y-42175500D01*
X65684803Y-42136144D01*
X65857730Y-42059151D01*
X65887683Y-42037389D01*
X65920314Y-42013682D01*
X65986120Y-41990202D01*
X65993199Y-41990000D01*
X105341252Y-41990000D01*
X105408291Y-42009685D01*
X105433400Y-42031026D01*
X105439126Y-42037385D01*
X105439130Y-42037389D01*
X105592265Y-42148648D01*
X105592270Y-42148651D01*
X105765192Y-42225642D01*
X105765197Y-42225644D01*
X105950354Y-42265000D01*
X105950355Y-42265000D01*
X106139644Y-42265000D01*
X106139646Y-42265000D01*
X106324803Y-42225644D01*
X106497730Y-42148651D01*
X106650871Y-42037388D01*
X106777533Y-41896716D01*
X106872179Y-41732784D01*
X106930674Y-41552756D01*
X106946816Y-41399167D01*
X112475146Y-41399167D01*
X112494106Y-41700545D01*
X112494107Y-41700552D01*
X112550696Y-41997202D01*
X112644016Y-42284409D01*
X112644018Y-42284414D01*
X112772595Y-42557653D01*
X112772598Y-42557659D01*
X112934404Y-42812626D01*
X113015203Y-42910295D01*
X113764964Y-42160534D01*
X113841781Y-42270240D01*
X114008813Y-42437272D01*
X114118517Y-42514087D01*
X113366455Y-43266148D01*
X113591365Y-43429555D01*
X113591376Y-43429562D01*
X113856000Y-43575040D01*
X113856008Y-43575044D01*
X114136780Y-43686209D01*
X114136783Y-43686210D01*
X114429290Y-43761312D01*
X114728886Y-43799161D01*
X114728898Y-43799162D01*
X115030884Y-43799162D01*
X115030895Y-43799161D01*
X115330491Y-43761312D01*
X115622998Y-43686210D01*
X115623001Y-43686209D01*
X115903773Y-43575044D01*
X115903781Y-43575040D01*
X116168405Y-43429562D01*
X116168416Y-43429555D01*
X116393324Y-43266148D01*
X116393325Y-43266148D01*
X115641264Y-42514087D01*
X115750969Y-42437272D01*
X115918001Y-42270240D01*
X115994817Y-42160535D01*
X116744577Y-42910295D01*
X116825374Y-42812631D01*
X116987183Y-42557659D01*
X116987186Y-42557653D01*
X117115763Y-42284414D01*
X117115765Y-42284409D01*
X117209085Y-41997202D01*
X117265674Y-41700552D01*
X117265675Y-41700545D01*
X117284636Y-41399167D01*
X117284636Y-41399156D01*
X117265675Y-41097778D01*
X117265674Y-41097771D01*
X117209085Y-40801121D01*
X117115765Y-40513914D01*
X117115763Y-40513909D01*
X116987186Y-40240670D01*
X116987183Y-40240664D01*
X116825377Y-39985697D01*
X116744576Y-39888026D01*
X115994816Y-40637787D01*
X115918001Y-40528084D01*
X115750969Y-40361052D01*
X115641264Y-40284235D01*
X116393325Y-39532174D01*
X116168421Y-39368771D01*
X116168411Y-39368764D01*
X115903781Y-39223283D01*
X115903773Y-39223279D01*
X115623002Y-39112115D01*
X115356796Y-39043765D01*
X115296759Y-39008027D01*
X115265573Y-38945503D01*
X115273141Y-38876045D01*
X115317059Y-38821704D01*
X115383385Y-38799734D01*
X115387612Y-38799661D01*
X116827763Y-38799661D01*
X116887374Y-38793253D01*
X117022222Y-38742958D01*
X117137437Y-38656708D01*
X117223687Y-38541493D01*
X117273982Y-38406645D01*
X117280391Y-38347035D01*
X117280390Y-34451290D01*
X117275190Y-34402919D01*
X117273982Y-34391678D01*
X117223688Y-34256833D01*
X117223684Y-34256826D01*
X117137438Y-34141617D01*
X117137435Y-34141614D01*
X117022226Y-34055368D01*
X117022219Y-34055364D01*
X116887373Y-34005070D01*
X116887374Y-34005070D01*
X116827774Y-33998663D01*
X116827772Y-33998662D01*
X116827764Y-33998662D01*
X116827755Y-33998662D01*
X112932020Y-33998662D01*
X112932014Y-33998663D01*
X112872407Y-34005070D01*
X112737562Y-34055364D01*
X112737555Y-34055368D01*
X112622346Y-34141614D01*
X112622343Y-34141617D01*
X112536097Y-34256826D01*
X112536093Y-34256833D01*
X112485799Y-34391679D01*
X112480696Y-34439148D01*
X112479392Y-34451285D01*
X112479391Y-34451297D01*
X112479391Y-38347032D01*
X112479392Y-38347038D01*
X112485799Y-38406645D01*
X112536093Y-38541490D01*
X112536097Y-38541497D01*
X112622343Y-38656706D01*
X112622346Y-38656709D01*
X112737555Y-38742955D01*
X112737562Y-38742959D01*
X112872408Y-38793253D01*
X112872407Y-38793253D01*
X112879335Y-38793997D01*
X112932018Y-38799662D01*
X114372148Y-38799661D01*
X114439185Y-38819346D01*
X114484940Y-38872149D01*
X114494884Y-38941308D01*
X114465859Y-39004864D01*
X114407081Y-39042638D01*
X114402984Y-39043765D01*
X114136780Y-39112115D01*
X113856008Y-39223279D01*
X113856000Y-39223283D01*
X113591370Y-39368764D01*
X113591352Y-39368776D01*
X113366456Y-39532172D01*
X113366455Y-39532174D01*
X114118517Y-40284236D01*
X114008813Y-40361052D01*
X113841781Y-40528084D01*
X113764964Y-40637788D01*
X113015203Y-39888026D01*
X112934407Y-39985692D01*
X112772598Y-40240664D01*
X112772595Y-40240670D01*
X112644018Y-40513909D01*
X112644016Y-40513914D01*
X112550696Y-40801121D01*
X112494107Y-41097771D01*
X112494106Y-41097778D01*
X112475146Y-41399156D01*
X112475146Y-41399167D01*
X106946816Y-41399167D01*
X106949194Y-41376536D01*
X106975778Y-41311924D01*
X107033076Y-41271939D01*
X107072515Y-41265500D01*
X107232257Y-41265500D01*
X107247877Y-41267224D01*
X107247904Y-41266939D01*
X107255660Y-41267671D01*
X107255667Y-41267673D01*
X107324814Y-41265500D01*
X107354350Y-41265500D01*
X107361228Y-41264630D01*
X107367041Y-41264172D01*
X107413627Y-41262709D01*
X107432869Y-41257117D01*
X107451912Y-41253174D01*
X107471792Y-41250664D01*
X107515122Y-41233507D01*
X107520646Y-41231617D01*
X107524396Y-41230527D01*
X107565390Y-41218618D01*
X107582629Y-41208422D01*
X107600103Y-41199862D01*
X107618727Y-41192488D01*
X107618727Y-41192487D01*
X107618732Y-41192486D01*
X107656449Y-41165082D01*
X107661305Y-41161892D01*
X107701420Y-41138170D01*
X107715586Y-41124003D01*
X107730381Y-41111368D01*
X107733619Y-41109014D01*
X107746587Y-41099594D01*
X107776302Y-41063674D01*
X107780213Y-41059376D01*
X107897773Y-40941816D01*
X107959094Y-40908334D01*
X107985452Y-40905500D01*
X108044644Y-40905500D01*
X108044646Y-40905500D01*
X108229803Y-40866144D01*
X108402730Y-40789151D01*
X108555871Y-40677888D01*
X108682533Y-40537216D01*
X108777179Y-40373284D01*
X108835674Y-40193256D01*
X108855460Y-40005000D01*
X108835674Y-39816744D01*
X108777179Y-39636716D01*
X108682533Y-39472784D01*
X108555871Y-39332112D01*
X108509315Y-39298287D01*
X108402734Y-39220851D01*
X108402729Y-39220848D01*
X108229807Y-39143857D01*
X108229802Y-39143855D01*
X108080472Y-39112115D01*
X108044646Y-39104500D01*
X107855354Y-39104500D01*
X107822897Y-39111398D01*
X107670197Y-39143855D01*
X107670192Y-39143857D01*
X107497270Y-39220848D01*
X107497265Y-39220851D01*
X107344129Y-39332111D01*
X107217466Y-39472785D01*
X107122821Y-39636715D01*
X107122818Y-39636722D01*
X107076636Y-39778857D01*
X107064326Y-39816744D01*
X107060216Y-39855849D01*
X107055212Y-39903462D01*
X107028627Y-39968077D01*
X106971330Y-40008061D01*
X106931891Y-40014500D01*
X104387480Y-40014500D01*
X104320441Y-39994815D01*
X104274686Y-39942011D01*
X104264742Y-39872853D01*
X104280093Y-39828500D01*
X104308754Y-39778857D01*
X104332179Y-39738284D01*
X104390674Y-39558256D01*
X104410460Y-39370000D01*
X104390674Y-39181744D01*
X104332179Y-39001716D01*
X104237533Y-38837784D01*
X104110871Y-38697112D01*
X104110870Y-38697111D01*
X103957734Y-38585851D01*
X103957729Y-38585848D01*
X103784807Y-38508857D01*
X103784802Y-38508855D01*
X103639001Y-38477865D01*
X103599646Y-38469500D01*
X103410354Y-38469500D01*
X103377897Y-38476398D01*
X103225197Y-38508855D01*
X103225192Y-38508857D01*
X103052270Y-38585848D01*
X103052265Y-38585851D01*
X102899129Y-38697111D01*
X102772466Y-38837785D01*
X102677821Y-39001715D01*
X102677818Y-39001722D01*
X102619324Y-39181747D01*
X102617973Y-39188106D01*
X102615883Y-39187661D01*
X102593092Y-39243069D01*
X102535798Y-39283058D01*
X102496350Y-39289500D01*
X101899441Y-39289500D01*
X101832402Y-39269815D01*
X101786647Y-39217011D01*
X101776703Y-39147853D01*
X101790004Y-39109421D01*
X101789538Y-39109214D01*
X101791954Y-39103786D01*
X101792054Y-39103500D01*
X101792179Y-39103284D01*
X101850674Y-38923256D01*
X101870460Y-38735000D01*
X101850674Y-38546744D01*
X101792179Y-38366716D01*
X101697533Y-38202784D01*
X101570871Y-38062112D01*
X101522201Y-38026751D01*
X101417734Y-37950851D01*
X101417729Y-37950848D01*
X101244807Y-37873857D01*
X101244802Y-37873855D01*
X101072287Y-37837187D01*
X101059646Y-37834500D01*
X100870354Y-37834500D01*
X100857713Y-37837187D01*
X100685197Y-37873855D01*
X100685192Y-37873857D01*
X100512270Y-37950848D01*
X100512265Y-37950851D01*
X100359129Y-38062111D01*
X100232466Y-38202785D01*
X100137821Y-38366715D01*
X100137818Y-38366722D01*
X100091636Y-38508857D01*
X100079326Y-38546744D01*
X100071059Y-38625399D01*
X100070212Y-38633462D01*
X100043627Y-38698077D01*
X99986330Y-38738061D01*
X99946891Y-38744500D01*
X91183747Y-38744500D01*
X91116708Y-38724815D01*
X91070953Y-38672011D01*
X91060426Y-38607540D01*
X91075460Y-38464503D01*
X91055674Y-38276247D01*
X90997179Y-38096219D01*
X90957070Y-38026748D01*
X90940598Y-37958851D01*
X90957069Y-37902755D01*
X90997179Y-37833284D01*
X91055674Y-37653256D01*
X91075460Y-37465000D01*
X91055674Y-37276744D01*
X90997179Y-37096716D01*
X90902533Y-36932784D01*
X90775871Y-36792112D01*
X90775870Y-36792111D01*
X90622734Y-36680851D01*
X90622729Y-36680848D01*
X90449807Y-36603857D01*
X90449802Y-36603855D01*
X90276605Y-36567042D01*
X90264646Y-36564500D01*
X90233925Y-36564500D01*
X90166886Y-36544815D01*
X90121131Y-36492011D01*
X90111187Y-36422853D01*
X90140212Y-36359297D01*
X90142265Y-36356986D01*
X90234052Y-36256302D01*
X90346298Y-36075019D01*
X90423321Y-35876198D01*
X90462500Y-35666610D01*
X90462500Y-35453390D01*
X90423321Y-35243802D01*
X90346298Y-35044981D01*
X90234052Y-34863698D01*
X90090407Y-34706128D01*
X90090406Y-34706127D01*
X89920253Y-34577632D01*
X89795473Y-34515500D01*
X89744236Y-34467998D01*
X89726814Y-34400335D01*
X89748739Y-34333994D01*
X89803050Y-34290039D01*
X89850744Y-34280500D01*
X91080048Y-34280500D01*
X91147087Y-34300185D01*
X91167729Y-34316819D01*
X92736057Y-35885147D01*
X92769542Y-35946470D01*
X92771697Y-35959866D01*
X92776382Y-36004441D01*
X92789345Y-36127775D01*
X92789346Y-36127778D01*
X92847837Y-36307796D01*
X92847840Y-36307803D01*
X92942486Y-36471735D01*
X93063258Y-36605865D01*
X93069148Y-36612407D01*
X93222284Y-36723667D01*
X93222289Y-36723670D01*
X93395211Y-36800661D01*
X93395216Y-36800663D01*
X93580373Y-36840019D01*
X93580374Y-36840019D01*
X93769663Y-36840019D01*
X93769665Y-36840019D01*
X93954822Y-36800663D01*
X94127749Y-36723670D01*
X94280890Y-36612407D01*
X94407552Y-36471735D01*
X94502198Y-36307803D01*
X94552673Y-36152455D01*
X94592109Y-36094782D01*
X94644820Y-36069486D01*
X94679322Y-36062153D01*
X94679326Y-36062151D01*
X94679327Y-36062151D01*
X94737577Y-36036215D01*
X94852249Y-35985160D01*
X95005390Y-35873897D01*
X95132052Y-35733225D01*
X95226698Y-35569293D01*
X95285193Y-35389265D01*
X95304979Y-35201009D01*
X95285193Y-35012753D01*
X95226698Y-34832725D01*
X95132052Y-34668793D01*
X95005390Y-34528121D01*
X94988905Y-34516144D01*
X94852253Y-34416860D01*
X94852248Y-34416857D01*
X94679326Y-34339866D01*
X94679321Y-34339864D01*
X94522407Y-34306512D01*
X94494165Y-34300509D01*
X94494164Y-34300509D01*
X94434971Y-34300509D01*
X94367932Y-34280824D01*
X94347290Y-34264190D01*
X94103731Y-34020631D01*
X94070246Y-33959308D01*
X94075230Y-33889616D01*
X94117102Y-33833683D01*
X94165625Y-33811661D01*
X94259803Y-33791644D01*
X94259807Y-33791642D01*
X94259808Y-33791642D01*
X94318058Y-33765706D01*
X94432730Y-33714651D01*
X94585871Y-33603388D01*
X94588788Y-33600147D01*
X94591600Y-33597026D01*
X94651087Y-33560379D01*
X94683748Y-33556000D01*
X98656845Y-33556000D01*
X98672465Y-33557724D01*
X98672492Y-33557439D01*
X98680248Y-33558171D01*
X98680255Y-33558173D01*
X98749402Y-33556000D01*
X98778938Y-33556000D01*
X98785816Y-33555130D01*
X98791629Y-33554672D01*
X98838215Y-33553209D01*
X98857457Y-33547617D01*
X98876500Y-33543674D01*
X98896380Y-33541164D01*
X98939710Y-33524007D01*
X98945234Y-33522117D01*
X98948984Y-33521027D01*
X98989978Y-33509118D01*
X99007217Y-33498922D01*
X99024691Y-33490362D01*
X99043315Y-33482988D01*
X99043315Y-33482987D01*
X99043320Y-33482986D01*
X99081037Y-33455582D01*
X99085893Y-33452392D01*
X99126008Y-33428670D01*
X99140177Y-33414499D01*
X99154967Y-33401868D01*
X99171175Y-33390094D01*
X99200887Y-33354176D01*
X99204800Y-33349876D01*
X99910194Y-32644482D01*
X99971516Y-32610999D01*
X100041208Y-32615983D01*
X100062968Y-32626625D01*
X100096807Y-32647498D01*
X100153245Y-32682309D01*
X100153248Y-32682310D01*
X100153254Y-32682314D01*
X100319791Y-32737499D01*
X100422579Y-32748000D01*
X102022596Y-32747999D01*
X102125385Y-32737499D01*
X102291922Y-32682314D01*
X102441244Y-32590212D01*
X102565300Y-32466156D01*
X102657402Y-32316834D01*
X102712587Y-32150297D01*
X102723088Y-32047509D01*
X102723088Y-31309565D01*
X107462088Y-31309565D01*
X107477478Y-31495313D01*
X107477480Y-31495324D01*
X107538524Y-31736381D01*
X107638414Y-31964106D01*
X107774421Y-32172282D01*
X107774424Y-32172285D01*
X107942844Y-32355238D01*
X108139079Y-32507974D01*
X108191846Y-32536530D01*
X108351092Y-32622710D01*
X108357778Y-32626328D01*
X108592974Y-32707071D01*
X108838253Y-32748000D01*
X109086923Y-32748000D01*
X109332202Y-32707071D01*
X109567398Y-32626328D01*
X109786097Y-32507974D01*
X109982332Y-32355238D01*
X110150752Y-32172285D01*
X110232277Y-32047501D01*
X112462088Y-32047501D01*
X112462089Y-32047518D01*
X112472588Y-32150296D01*
X112472589Y-32150299D01*
X112527773Y-32316831D01*
X112527775Y-32316836D01*
X112547818Y-32349331D01*
X112619876Y-32466156D01*
X112743932Y-32590212D01*
X112893254Y-32682314D01*
X113059791Y-32737499D01*
X113162579Y-32748000D01*
X114762596Y-32747999D01*
X114865385Y-32737499D01*
X115031922Y-32682314D01*
X115181244Y-32590212D01*
X115305300Y-32466156D01*
X115397402Y-32316834D01*
X115452587Y-32150297D01*
X115463088Y-32047509D01*
X115463087Y-28847492D01*
X115452587Y-28744703D01*
X115397402Y-28578166D01*
X115305300Y-28428844D01*
X115181244Y-28304788D01*
X115045265Y-28220916D01*
X115031924Y-28212687D01*
X115031919Y-28212685D01*
X115030450Y-28212198D01*
X114865385Y-28157501D01*
X114865383Y-28157500D01*
X114762598Y-28147000D01*
X113162586Y-28147000D01*
X113162569Y-28147001D01*
X113059791Y-28157500D01*
X113059788Y-28157501D01*
X112893256Y-28212685D01*
X112893251Y-28212687D01*
X112743930Y-28304789D01*
X112619877Y-28428842D01*
X112527775Y-28578163D01*
X112527773Y-28578168D01*
X112517004Y-28610668D01*
X112472589Y-28744703D01*
X112472589Y-28744704D01*
X112472588Y-28744704D01*
X112462088Y-28847483D01*
X112462088Y-32047501D01*
X110232277Y-32047501D01*
X110286761Y-31964107D01*
X110386651Y-31736381D01*
X110447696Y-31495321D01*
X110463088Y-31309567D01*
X110463088Y-29585433D01*
X110458733Y-29532876D01*
X110447697Y-29399686D01*
X110447695Y-29399675D01*
X110386651Y-29158618D01*
X110286761Y-28930893D01*
X110150754Y-28722717D01*
X110129145Y-28699244D01*
X109982332Y-28539762D01*
X109786097Y-28387026D01*
X109786095Y-28387025D01*
X109786094Y-28387024D01*
X109567399Y-28268672D01*
X109567390Y-28268669D01*
X109332204Y-28187929D01*
X109086923Y-28147000D01*
X108838253Y-28147000D01*
X108592971Y-28187929D01*
X108357785Y-28268669D01*
X108357776Y-28268672D01*
X108139081Y-28387024D01*
X107942845Y-28539761D01*
X107774421Y-28722717D01*
X107638414Y-28930893D01*
X107538524Y-29158618D01*
X107477480Y-29399675D01*
X107477478Y-29399686D01*
X107462088Y-29585435D01*
X107462088Y-31309565D01*
X102723088Y-31309565D01*
X102723087Y-28847492D01*
X102712587Y-28744703D01*
X102657402Y-28578166D01*
X102565300Y-28428844D01*
X102441244Y-28304788D01*
X102305265Y-28220916D01*
X102291924Y-28212687D01*
X102291919Y-28212685D01*
X102290450Y-28212198D01*
X102125385Y-28157501D01*
X102125383Y-28157500D01*
X102022598Y-28147000D01*
X100422586Y-28147000D01*
X100422569Y-28147001D01*
X100319791Y-28157500D01*
X100319788Y-28157501D01*
X100153256Y-28212685D01*
X100153251Y-28212687D01*
X100003930Y-28304789D01*
X99879877Y-28428842D01*
X99787775Y-28578163D01*
X99787773Y-28578168D01*
X99777004Y-28610668D01*
X99732589Y-28744703D01*
X99732589Y-28744704D01*
X99732588Y-28744704D01*
X99722088Y-28847483D01*
X99722088Y-31012046D01*
X99702403Y-31079085D01*
X99685769Y-31099727D01*
X98516816Y-32268681D01*
X98455493Y-32302166D01*
X98429135Y-32305000D01*
X97553177Y-32305000D01*
X97486138Y-32285315D01*
X97440383Y-32232511D01*
X97430439Y-32163353D01*
X97449368Y-32113179D01*
X97492272Y-32047509D01*
X97546761Y-31964107D01*
X97646651Y-31736381D01*
X97707696Y-31495321D01*
X97723088Y-31309567D01*
X97723088Y-29585433D01*
X97718733Y-29532876D01*
X97707697Y-29399686D01*
X97707695Y-29399675D01*
X97646651Y-29158618D01*
X97546761Y-28930893D01*
X97410754Y-28722717D01*
X97389145Y-28699244D01*
X97242332Y-28539762D01*
X97046097Y-28387026D01*
X97046095Y-28387025D01*
X97046094Y-28387024D01*
X96827399Y-28268672D01*
X96827390Y-28268669D01*
X96592204Y-28187929D01*
X96346923Y-28147000D01*
X96098253Y-28147000D01*
X95852971Y-28187929D01*
X95617785Y-28268669D01*
X95617776Y-28268672D01*
X95399081Y-28387024D01*
X95202845Y-28539761D01*
X95034421Y-28722717D01*
X94898414Y-28930893D01*
X94798524Y-29158618D01*
X94737480Y-29399675D01*
X94737478Y-29399686D01*
X94722088Y-29585435D01*
X94722088Y-31309565D01*
X94737478Y-31495313D01*
X94737480Y-31495324D01*
X94798524Y-31736381D01*
X94898414Y-31964106D01*
X94995808Y-32113179D01*
X95015995Y-32180068D01*
X94996815Y-32247254D01*
X94944357Y-32293404D01*
X94891999Y-32305000D01*
X94683748Y-32305000D01*
X94616709Y-32285315D01*
X94591600Y-32263974D01*
X94585873Y-32257614D01*
X94585869Y-32257610D01*
X94432734Y-32146351D01*
X94432729Y-32146348D01*
X94259807Y-32069357D01*
X94259802Y-32069355D01*
X94114000Y-32038365D01*
X94074646Y-32030000D01*
X93885354Y-32030000D01*
X93852897Y-32036898D01*
X93700197Y-32069355D01*
X93700192Y-32069357D01*
X93527270Y-32146348D01*
X93527265Y-32146351D01*
X93374129Y-32257611D01*
X93247466Y-32398285D01*
X93152821Y-32562215D01*
X93152818Y-32562222D01*
X93092318Y-32748424D01*
X93090754Y-32747916D01*
X93061462Y-32802170D01*
X93000298Y-32835944D01*
X92930583Y-32831289D01*
X92885686Y-32802585D01*
X92629313Y-32546212D01*
X92619490Y-32533950D01*
X92619269Y-32534134D01*
X92614296Y-32528123D01*
X92614296Y-32528122D01*
X92563874Y-32480773D01*
X92549257Y-32466156D01*
X92542985Y-32459883D01*
X92537496Y-32455625D01*
X92533071Y-32451847D01*
X92499092Y-32419938D01*
X92499090Y-32419936D01*
X92499087Y-32419935D01*
X92481539Y-32410288D01*
X92465273Y-32399604D01*
X92463573Y-32398285D01*
X92449446Y-32387327D01*
X92439949Y-32383217D01*
X92386242Y-32338526D01*
X92365222Y-32271893D01*
X92383563Y-32204474D01*
X92397971Y-32185429D01*
X92410352Y-32171980D01*
X92546321Y-31963864D01*
X92646175Y-31736217D01*
X92707200Y-31495238D01*
X92707202Y-31495230D01*
X92722588Y-31309541D01*
X92722588Y-30697500D01*
X91881917Y-30697500D01*
X91922588Y-30532495D01*
X91922588Y-30362505D01*
X91881917Y-30197500D01*
X92722588Y-30197500D01*
X92722588Y-29585459D01*
X92707202Y-29399769D01*
X92707200Y-29399761D01*
X92646175Y-29158782D01*
X92546320Y-28931132D01*
X92410355Y-28723021D01*
X92241995Y-28540135D01*
X92241985Y-28540126D01*
X92045825Y-28387448D01*
X92045816Y-28387442D01*
X91827202Y-28269135D01*
X91827191Y-28269130D01*
X91592080Y-28188416D01*
X91472588Y-28168476D01*
X91472588Y-29793662D01*
X91391339Y-29762849D01*
X91264928Y-29747500D01*
X91180248Y-29747500D01*
X91053837Y-29762849D01*
X90972588Y-29793662D01*
X90972588Y-28168476D01*
X90972587Y-28168476D01*
X90853095Y-28188416D01*
X90617984Y-28269130D01*
X90617973Y-28269135D01*
X90399359Y-28387442D01*
X90399350Y-28387448D01*
X90203190Y-28540126D01*
X90203180Y-28540135D01*
X90034820Y-28723021D01*
X89898855Y-28931132D01*
X89799000Y-29158782D01*
X89737975Y-29399761D01*
X89737973Y-29399769D01*
X89722588Y-29585459D01*
X89722588Y-30197500D01*
X90563259Y-30197500D01*
X90522588Y-30362505D01*
X90522588Y-30532495D01*
X90563259Y-30697500D01*
X89722588Y-30697500D01*
X89722588Y-31309541D01*
X89737973Y-31495230D01*
X89737975Y-31495238D01*
X89799000Y-31736217D01*
X89898855Y-31963867D01*
X89996078Y-32112679D01*
X90016266Y-32179569D01*
X89997085Y-32246754D01*
X89944626Y-32292904D01*
X89892269Y-32304500D01*
X75114879Y-32304500D01*
X75047840Y-32284815D01*
X75002085Y-32232011D01*
X74991521Y-32167897D01*
X74991985Y-32163353D01*
X75000500Y-32080009D01*
X75000499Y-28879992D01*
X74989999Y-28777203D01*
X74934814Y-28610666D01*
X74842712Y-28461344D01*
X74718656Y-28337288D01*
X74569334Y-28245186D01*
X74402797Y-28190001D01*
X74402795Y-28190000D01*
X74300010Y-28179500D01*
X72699998Y-28179500D01*
X72699981Y-28179501D01*
X72597203Y-28190000D01*
X72597200Y-28190001D01*
X72430668Y-28245185D01*
X72430663Y-28245187D01*
X72281342Y-28337289D01*
X72157289Y-28461342D01*
X72065187Y-28610663D01*
X72065185Y-28610666D01*
X72065186Y-28610666D01*
X72010001Y-28777203D01*
X72010001Y-28777204D01*
X72010000Y-28777204D01*
X71999500Y-28879983D01*
X71999500Y-32080001D01*
X71999501Y-32080019D01*
X72008479Y-32167899D01*
X71995709Y-32236592D01*
X71947828Y-32287476D01*
X71885121Y-32304500D01*
X69852149Y-32304500D01*
X69785110Y-32284815D01*
X69739355Y-32232011D01*
X69729411Y-32162853D01*
X69748340Y-32112679D01*
X69790911Y-32047518D01*
X69824173Y-31996607D01*
X69924063Y-31768881D01*
X69985108Y-31527821D01*
X70000500Y-31342067D01*
X70000500Y-29617933D01*
X69996145Y-29565376D01*
X69985109Y-29432186D01*
X69985107Y-29432175D01*
X69924063Y-29191118D01*
X69824173Y-28963393D01*
X69688166Y-28755217D01*
X69658527Y-28723021D01*
X69519744Y-28572262D01*
X69323509Y-28419526D01*
X69323507Y-28419525D01*
X69323506Y-28419524D01*
X69104811Y-28301172D01*
X69104802Y-28301169D01*
X68869616Y-28220429D01*
X68624335Y-28179500D01*
X68375665Y-28179500D01*
X68130383Y-28220429D01*
X67895197Y-28301169D01*
X67895188Y-28301172D01*
X67676493Y-28419524D01*
X67480257Y-28572261D01*
X67311833Y-28755217D01*
X67175826Y-28963393D01*
X67075936Y-29191118D01*
X67014892Y-29432175D01*
X67014890Y-29432186D01*
X66999500Y-29617935D01*
X66999500Y-31342065D01*
X67014890Y-31527813D01*
X67014892Y-31527824D01*
X67075936Y-31768881D01*
X67175826Y-31996606D01*
X67251660Y-32112679D01*
X67271847Y-32179568D01*
X67252667Y-32246754D01*
X67200208Y-32292904D01*
X67147851Y-32304500D01*
X64851552Y-32304500D01*
X64784513Y-32284815D01*
X64738758Y-32232011D01*
X64728814Y-32162853D01*
X64747743Y-32112679D01*
X64823732Y-31996367D01*
X64923587Y-31768717D01*
X64984612Y-31527738D01*
X64984614Y-31527730D01*
X65000000Y-31342041D01*
X65000000Y-30730000D01*
X64159329Y-30730000D01*
X64200000Y-30564995D01*
X64200000Y-30395005D01*
X64159329Y-30230000D01*
X65000000Y-30230000D01*
X65000000Y-29617959D01*
X64984614Y-29432269D01*
X64984612Y-29432261D01*
X64923587Y-29191282D01*
X64823732Y-28963632D01*
X64687767Y-28755521D01*
X64519407Y-28572635D01*
X64519397Y-28572626D01*
X64323237Y-28419948D01*
X64323228Y-28419942D01*
X64104614Y-28301635D01*
X64104603Y-28301630D01*
X63869492Y-28220916D01*
X63749999Y-28200976D01*
X63749999Y-29826162D01*
X63668751Y-29795349D01*
X63542340Y-29780000D01*
X63457660Y-29780000D01*
X63331249Y-29795349D01*
X63249999Y-29826163D01*
X63249999Y-28200976D01*
X63130507Y-28220916D01*
X62895396Y-28301630D01*
X62895385Y-28301635D01*
X62676771Y-28419942D01*
X62676762Y-28419948D01*
X62480602Y-28572626D01*
X62480592Y-28572635D01*
X62312232Y-28755521D01*
X62176267Y-28963632D01*
X62076412Y-29191282D01*
X62015387Y-29432261D01*
X62015385Y-29432269D01*
X62000000Y-29617959D01*
X62000000Y-30230000D01*
X62840671Y-30230000D01*
X62800000Y-30395005D01*
X62800000Y-30564995D01*
X62840671Y-30730000D01*
X62000000Y-30730000D01*
X62000000Y-31342041D01*
X62015385Y-31527730D01*
X62015387Y-31527738D01*
X62076412Y-31768717D01*
X62176267Y-31996367D01*
X62252257Y-32112679D01*
X62272445Y-32179568D01*
X62253264Y-32246754D01*
X62200805Y-32292904D01*
X62148448Y-32304500D01*
X58488298Y-32304500D01*
X58421259Y-32284815D01*
X58396147Y-32263471D01*
X58390874Y-32257615D01*
X58390869Y-32257610D01*
X58237734Y-32146351D01*
X58237729Y-32146348D01*
X58064807Y-32069357D01*
X58064802Y-32069355D01*
X57919001Y-32038365D01*
X57879646Y-32030000D01*
X57690354Y-32030000D01*
X57657897Y-32036898D01*
X57505197Y-32069355D01*
X57434934Y-32100639D01*
X57365684Y-32109923D01*
X57302408Y-32080295D01*
X57265195Y-32021160D01*
X57260499Y-31987365D01*
X57260499Y-28879992D01*
X57249999Y-28777203D01*
X57194814Y-28610666D01*
X57102712Y-28461344D01*
X56978656Y-28337288D01*
X56829334Y-28245186D01*
X56662797Y-28190001D01*
X56662795Y-28190000D01*
X56560010Y-28179500D01*
X54959998Y-28179500D01*
X54959981Y-28179501D01*
X54857203Y-28190000D01*
X54857200Y-28190001D01*
X54690668Y-28245185D01*
X54690663Y-28245187D01*
X54541342Y-28337289D01*
X54417289Y-28461342D01*
X54325187Y-28610663D01*
X54325185Y-28610666D01*
X54325186Y-28610666D01*
X54270001Y-28777203D01*
X54270001Y-28777204D01*
X54270000Y-28777204D01*
X54259500Y-28879983D01*
X54259500Y-32080001D01*
X54259501Y-32080018D01*
X54270000Y-32182796D01*
X54270001Y-32182799D01*
X54325185Y-32349331D01*
X54325187Y-32349336D01*
X54348620Y-32387327D01*
X54417288Y-32498656D01*
X54541344Y-32622712D01*
X54690666Y-32714814D01*
X54857203Y-32769999D01*
X54959991Y-32780500D01*
X56560008Y-32780499D01*
X56662797Y-32769999D01*
X56722428Y-32750238D01*
X56792254Y-32747837D01*
X56852296Y-32783568D01*
X56883489Y-32846088D01*
X56884752Y-32880903D01*
X56880806Y-32918458D01*
X56854224Y-32983073D01*
X56796928Y-33023060D01*
X56757485Y-33029500D01*
X52773748Y-33029500D01*
X52706709Y-33009815D01*
X52681600Y-32988474D01*
X52675873Y-32982114D01*
X52675869Y-32982110D01*
X52522734Y-32870851D01*
X52522729Y-32870848D01*
X52349807Y-32793857D01*
X52349802Y-32793855D01*
X52204001Y-32762865D01*
X52164646Y-32754500D01*
X51975354Y-32754500D01*
X51942897Y-32761398D01*
X51790197Y-32793855D01*
X51790192Y-32793857D01*
X51617270Y-32870848D01*
X51617265Y-32870851D01*
X51464129Y-32982111D01*
X51337466Y-33122785D01*
X51242821Y-33286715D01*
X51242818Y-33286722D01*
X51184327Y-33466740D01*
X51184326Y-33466744D01*
X51164540Y-33655000D01*
X51184326Y-33843256D01*
X51184327Y-33843259D01*
X51244829Y-34029465D01*
X51243156Y-34030008D01*
X51251295Y-34090715D01*
X51221667Y-34153991D01*
X51162531Y-34191204D01*
X51128731Y-34195900D01*
X51098967Y-34195900D01*
X51054370Y-34203341D01*
X50875982Y-34233109D01*
X50662172Y-34306510D01*
X50662167Y-34306512D01*
X50463352Y-34414106D01*
X50284955Y-34552959D01*
X50284950Y-34552963D01*
X50131850Y-34719272D01*
X50131842Y-34719283D01*
X50008198Y-34908533D01*
X49940483Y-35062909D01*
X49895527Y-35116395D01*
X49828791Y-35137085D01*
X49761463Y-35118410D01*
X49714920Y-35066300D01*
X49711301Y-35057894D01*
X49706301Y-35044988D01*
X49706298Y-35044982D01*
X49706298Y-35044981D01*
X49594052Y-34863698D01*
X49450407Y-34706128D01*
X49450406Y-34706127D01*
X49280253Y-34577632D01*
X49089393Y-34482596D01*
X48884310Y-34424244D01*
X48861679Y-34422147D01*
X48725194Y-34409500D01*
X48618806Y-34409500D01*
X48491513Y-34421295D01*
X48459689Y-34424244D01*
X48254607Y-34482596D01*
X48254605Y-34482596D01*
X48063746Y-34577632D01*
X47893593Y-34706127D01*
X47749947Y-34863699D01*
X47637702Y-35044980D01*
X47637701Y-35044982D01*
X47602021Y-35137085D01*
X47560679Y-35243802D01*
X47521500Y-35453390D01*
X47521500Y-35666610D01*
X46355000Y-35666610D01*
X46355000Y-31342065D01*
X49259500Y-31342065D01*
X49274890Y-31527813D01*
X49274892Y-31527824D01*
X49335936Y-31768881D01*
X49435826Y-31996606D01*
X49571833Y-32204782D01*
X49571836Y-32204785D01*
X49740256Y-32387738D01*
X49936491Y-32540474D01*
X49936493Y-32540475D01*
X50128684Y-32644484D01*
X50155190Y-32658828D01*
X50390386Y-32739571D01*
X50635665Y-32780500D01*
X50884335Y-32780500D01*
X51129614Y-32739571D01*
X51364810Y-32658828D01*
X51583509Y-32540474D01*
X51779744Y-32387738D01*
X51948164Y-32204785D01*
X52084173Y-31996607D01*
X52184063Y-31768881D01*
X52245108Y-31527821D01*
X52260500Y-31342067D01*
X52260500Y-29617933D01*
X52256145Y-29565376D01*
X52245109Y-29432186D01*
X52245107Y-29432175D01*
X52184063Y-29191118D01*
X52084173Y-28963393D01*
X51948166Y-28755217D01*
X51918527Y-28723021D01*
X51779744Y-28572262D01*
X51583509Y-28419526D01*
X51583507Y-28419525D01*
X51583506Y-28419524D01*
X51364811Y-28301172D01*
X51364802Y-28301169D01*
X51129616Y-28220429D01*
X50884335Y-28179500D01*
X50635665Y-28179500D01*
X50390383Y-28220429D01*
X50155197Y-28301169D01*
X50155188Y-28301172D01*
X49936493Y-28419524D01*
X49740257Y-28572261D01*
X49571833Y-28755217D01*
X49435826Y-28963393D01*
X49335936Y-29191118D01*
X49274892Y-29432175D01*
X49274890Y-29432186D01*
X49259500Y-29617935D01*
X49259500Y-31342065D01*
X46355000Y-31342065D01*
X46355000Y-27429500D01*
X46374685Y-27362461D01*
X46427489Y-27316706D01*
X46479000Y-27305500D01*
X118113000Y-27305500D01*
X118180039Y-27325185D01*
G37*
%TD.AperFunction*%
%TD*%
M02*
