%TF.GenerationSoftware,KiCad,Pcbnew,7.0.6*%
%TF.CreationDate,2024-02-02T01:32:10-05:00*%
%TF.ProjectId,luytenPCB,6c757974-656e-4504-9342-2e6b69636164,rev?*%
%TF.SameCoordinates,Original*%
%TF.FileFunction,Soldermask,Top*%
%TF.FilePolarity,Negative*%
%FSLAX46Y46*%
G04 Gerber Fmt 4.6, Leading zero omitted, Abs format (unit mm)*
G04 Created by KiCad (PCBNEW 7.0.6) date 2024-02-02 01:32:10*
%MOMM*%
%LPD*%
G01*
G04 APERTURE LIST*
G04 Aperture macros list*
%AMRoundRect*
0 Rectangle with rounded corners*
0 $1 Rounding radius*
0 $2 $3 $4 $5 $6 $7 $8 $9 X,Y pos of 4 corners*
0 Add a 4 corners polygon primitive as box body*
4,1,4,$2,$3,$4,$5,$6,$7,$8,$9,$2,$3,0*
0 Add four circle primitives for the rounded corners*
1,1,$1+$1,$2,$3*
1,1,$1+$1,$4,$5*
1,1,$1+$1,$6,$7*
1,1,$1+$1,$8,$9*
0 Add four rect primitives between the rounded corners*
20,1,$1+$1,$2,$3,$4,$5,0*
20,1,$1+$1,$4,$5,$6,$7,0*
20,1,$1+$1,$6,$7,$8,$9,0*
20,1,$1+$1,$8,$9,$2,$3,0*%
G04 Aperture macros list end*
%ADD10C,2.200000*%
%ADD11RoundRect,0.250001X-0.624999X0.462499X-0.624999X-0.462499X0.624999X-0.462499X0.624999X0.462499X0*%
%ADD12C,3.800000*%
%ADD13R,3.800000X3.800000*%
%ADD14RoundRect,0.250000X0.325000X0.450000X-0.325000X0.450000X-0.325000X-0.450000X0.325000X-0.450000X0*%
%ADD15RoundRect,0.237500X-0.300000X-0.237500X0.300000X-0.237500X0.300000X0.237500X-0.300000X0.237500X0*%
%ADD16RoundRect,0.250000X0.450000X-0.325000X0.450000X0.325000X-0.450000X0.325000X-0.450000X-0.325000X0*%
%ADD17R,0.700000X0.340000*%
%ADD18RoundRect,0.237500X-0.237500X0.300000X-0.237500X-0.300000X0.237500X-0.300000X0.237500X0.300000X0*%
%ADD19RoundRect,0.250000X-0.475000X0.337500X-0.475000X-0.337500X0.475000X-0.337500X0.475000X0.337500X0*%
%ADD20RoundRect,0.250000X0.475000X-0.337500X0.475000X0.337500X-0.475000X0.337500X-0.475000X-0.337500X0*%
%ADD21R,1.120000X2.440000*%
%ADD22O,1.600000X1.600000*%
%ADD23R,1.600000X1.600000*%
%ADD24O,1.700000X1.700000*%
%ADD25R,1.700000X1.700000*%
%ADD26O,2.000000X3.600000*%
%ADD27RoundRect,0.250000X-0.750000X-1.550000X0.750000X-1.550000X0.750000X1.550000X-0.750000X1.550000X0*%
%ADD28RoundRect,0.250000X0.750000X1.550000X-0.750000X1.550000X-0.750000X-1.550000X0.750000X-1.550000X0*%
%ADD29RoundRect,0.250000X-0.337500X-0.475000X0.337500X-0.475000X0.337500X0.475000X-0.337500X0.475000X0*%
%ADD30RoundRect,0.250000X0.337500X0.475000X-0.337500X0.475000X-0.337500X-0.475000X0.337500X-0.475000X0*%
%ADD31C,1.800000*%
%ADD32C,1.727200*%
%ADD33R,1.727200X1.727200*%
G04 APERTURE END LIST*
D10*
%TO.C,H4*%
X120300000Y-57000000D03*
%TD*%
%TO.C,H3*%
X44300000Y-57000000D03*
%TD*%
%TO.C,H2*%
X120300000Y-33000000D03*
%TD*%
%TO.C,H1*%
X44300000Y-33000000D03*
%TD*%
D11*
%TO.C,F1*%
X89281000Y-47715500D03*
X89281000Y-44740500D03*
%TD*%
D12*
%TO.C,J1*%
X114879891Y-41399162D03*
D13*
X114879891Y-36399162D03*
%TD*%
D14*
%TO.C,R6*%
X54438748Y-53999850D03*
X56488748Y-53999850D03*
%TD*%
%TO.C,R5*%
X64833199Y-53975000D03*
X66883199Y-53975000D03*
%TD*%
%TO.C,R4*%
X74860101Y-54085625D03*
X76910101Y-54085625D03*
%TD*%
%TO.C,R3*%
X84678542Y-54048267D03*
X86728542Y-54048267D03*
%TD*%
D15*
%TO.C,D6*%
X50106874Y-54117500D03*
X51831874Y-54117500D03*
%TD*%
%TO.C,D5*%
X62096018Y-54202961D03*
X60371018Y-54202961D03*
%TD*%
%TO.C,D4*%
X71933208Y-54292229D03*
X70208208Y-54292229D03*
%TD*%
%TO.C,D3*%
X82080452Y-54277940D03*
X80355452Y-54277940D03*
%TD*%
D16*
%TO.C,R2*%
X100330000Y-52787500D03*
X100330000Y-54837500D03*
%TD*%
%TO.C,R1*%
X103505000Y-52787500D03*
X103505000Y-54837500D03*
%TD*%
D17*
%TO.C,IC2*%
X92224519Y-37440789D03*
X92224519Y-37940789D03*
X92224519Y-38440789D03*
X93724519Y-38440789D03*
X93724519Y-37940789D03*
X93724519Y-37440789D03*
%TD*%
%TO.C,IC1*%
X93687005Y-42252202D03*
X93687005Y-42752202D03*
X93687005Y-43252202D03*
X92187005Y-43252202D03*
X92187005Y-42752202D03*
X92187005Y-42252202D03*
%TD*%
D18*
%TO.C,D2*%
X100330000Y-48032500D03*
X100330000Y-49757500D03*
%TD*%
%TO.C,D1*%
X103505000Y-48032500D03*
X103505000Y-49757500D03*
%TD*%
D19*
%TO.C,C8*%
X96425359Y-43655932D03*
X96425359Y-41580932D03*
%TD*%
D20*
%TO.C,C7*%
X96500133Y-37181928D03*
X96500133Y-39256928D03*
%TD*%
D21*
%TO.C,SW2*%
X101600000Y-35560000D03*
X104140000Y-35560000D03*
X106680000Y-35560000D03*
X106680000Y-44170000D03*
X104140000Y-44170000D03*
X101600000Y-44170000D03*
%TD*%
D22*
%TO.C,SW1*%
X94615000Y-46990000D03*
D23*
X94615000Y-54610000D03*
%TD*%
D24*
%TO.C,J10*%
X116225548Y-53340000D03*
X116225548Y-50800000D03*
D25*
X116225548Y-48260000D03*
%TD*%
D26*
%TO.C,J9*%
X78580000Y-58690000D03*
X73580000Y-58690000D03*
D27*
X68580000Y-58690000D03*
%TD*%
D26*
%TO.C,J8*%
X60800000Y-58690000D03*
X55800000Y-58690000D03*
D27*
X50800000Y-58690000D03*
%TD*%
D26*
%TO.C,J7*%
X96360000Y-58690000D03*
X91360000Y-58690000D03*
D27*
X86360000Y-58690000D03*
%TD*%
D26*
%TO.C,J6*%
X114140000Y-58690000D03*
X109140000Y-58690000D03*
D27*
X104140000Y-58690000D03*
%TD*%
D26*
%TO.C,J5*%
X91222588Y-30447500D03*
X96222588Y-30447500D03*
D28*
X101222588Y-30447500D03*
%TD*%
D26*
%TO.C,J4*%
X63500000Y-30480000D03*
X68500000Y-30480000D03*
D28*
X73500000Y-30480000D03*
%TD*%
D26*
%TO.C,J3*%
X50760000Y-30480000D03*
D28*
X55760000Y-30480000D03*
%TD*%
D26*
%TO.C,J2*%
X108962588Y-30447500D03*
D28*
X113962588Y-30447500D03*
%TD*%
D29*
%TO.C,C6*%
X56119620Y-47538697D03*
X54044620Y-47538697D03*
%TD*%
%TO.C,C5*%
X56119620Y-44528697D03*
X54044620Y-44528697D03*
%TD*%
%TO.C,C4*%
X56119620Y-41518697D03*
X54044620Y-41518697D03*
%TD*%
D30*
%TO.C,C3*%
X86387065Y-41654223D03*
X84312065Y-41654223D03*
%TD*%
%TO.C,C2*%
X86387065Y-44664223D03*
X84312065Y-44664223D03*
%TD*%
%TO.C,C1*%
X86387065Y-47674223D03*
X84312065Y-47674223D03*
%TD*%
D31*
%TO.C,A1*%
X48672000Y-35560000D03*
X89312000Y-50800000D03*
X48672000Y-50800000D03*
X89312000Y-35560000D03*
D32*
X53752000Y-50800000D03*
X79152000Y-50800000D03*
X58832000Y-50800000D03*
X61372000Y-50800000D03*
X63912000Y-50800000D03*
X66452000Y-50800000D03*
X68992000Y-50800000D03*
X71532000Y-50800000D03*
X74072000Y-50800000D03*
X76612000Y-50800000D03*
X56292000Y-50800000D03*
X81692000Y-50800000D03*
X84232000Y-35560000D03*
X86772000Y-35560000D03*
X76612000Y-35560000D03*
X74072000Y-35560000D03*
X71532000Y-35560000D03*
X68992000Y-35560000D03*
X66452000Y-35560000D03*
X63912000Y-35560000D03*
X61372000Y-35560000D03*
X58832000Y-35560000D03*
X56292000Y-35560000D03*
X53752000Y-35560000D03*
X51212000Y-35560000D03*
X51212000Y-50800000D03*
D33*
X79152000Y-35560000D03*
X84232000Y-50800000D03*
D32*
X81692000Y-35560000D03*
X86772000Y-50800000D03*
%TD*%
M02*
