%TF.GenerationSoftware,KiCad,Pcbnew,7.0.6*%
%TF.CreationDate,2024-02-02T01:32:10-05:00*%
%TF.ProjectId,luytenPCB,6c757974-656e-4504-9342-2e6b69636164,rev?*%
%TF.SameCoordinates,Original*%
%TF.FileFunction,Copper,L1,Top*%
%TF.FilePolarity,Positive*%
%FSLAX46Y46*%
G04 Gerber Fmt 4.6, Leading zero omitted, Abs format (unit mm)*
G04 Created by KiCad (PCBNEW 7.0.6) date 2024-02-02 01:32:10*
%MOMM*%
%LPD*%
G01*
G04 APERTURE LIST*
G04 Aperture macros list*
%AMRoundRect*
0 Rectangle with rounded corners*
0 $1 Rounding radius*
0 $2 $3 $4 $5 $6 $7 $8 $9 X,Y pos of 4 corners*
0 Add a 4 corners polygon primitive as box body*
4,1,4,$2,$3,$4,$5,$6,$7,$8,$9,$2,$3,0*
0 Add four circle primitives for the rounded corners*
1,1,$1+$1,$2,$3*
1,1,$1+$1,$4,$5*
1,1,$1+$1,$6,$7*
1,1,$1+$1,$8,$9*
0 Add four rect primitives between the rounded corners*
20,1,$1+$1,$2,$3,$4,$5,0*
20,1,$1+$1,$4,$5,$6,$7,0*
20,1,$1+$1,$6,$7,$8,$9,0*
20,1,$1+$1,$8,$9,$2,$3,0*%
G04 Aperture macros list end*
%TA.AperFunction,SMDPad,CuDef*%
%ADD10RoundRect,0.250001X-0.624999X0.462499X-0.624999X-0.462499X0.624999X-0.462499X0.624999X0.462499X0*%
%TD*%
%TA.AperFunction,ComponentPad*%
%ADD11C,3.800000*%
%TD*%
%TA.AperFunction,ComponentPad*%
%ADD12R,3.800000X3.800000*%
%TD*%
%TA.AperFunction,SMDPad,CuDef*%
%ADD13RoundRect,0.250000X0.325000X0.450000X-0.325000X0.450000X-0.325000X-0.450000X0.325000X-0.450000X0*%
%TD*%
%TA.AperFunction,SMDPad,CuDef*%
%ADD14RoundRect,0.237500X-0.300000X-0.237500X0.300000X-0.237500X0.300000X0.237500X-0.300000X0.237500X0*%
%TD*%
%TA.AperFunction,SMDPad,CuDef*%
%ADD15RoundRect,0.250000X0.450000X-0.325000X0.450000X0.325000X-0.450000X0.325000X-0.450000X-0.325000X0*%
%TD*%
%TA.AperFunction,SMDPad,CuDef*%
%ADD16R,0.700000X0.340000*%
%TD*%
%TA.AperFunction,SMDPad,CuDef*%
%ADD17RoundRect,0.237500X-0.237500X0.300000X-0.237500X-0.300000X0.237500X-0.300000X0.237500X0.300000X0*%
%TD*%
%TA.AperFunction,SMDPad,CuDef*%
%ADD18RoundRect,0.250000X-0.475000X0.337500X-0.475000X-0.337500X0.475000X-0.337500X0.475000X0.337500X0*%
%TD*%
%TA.AperFunction,SMDPad,CuDef*%
%ADD19RoundRect,0.250000X0.475000X-0.337500X0.475000X0.337500X-0.475000X0.337500X-0.475000X-0.337500X0*%
%TD*%
%TA.AperFunction,SMDPad,CuDef*%
%ADD20R,1.120000X2.440000*%
%TD*%
%TA.AperFunction,ComponentPad*%
%ADD21O,1.600000X1.600000*%
%TD*%
%TA.AperFunction,ComponentPad*%
%ADD22R,1.600000X1.600000*%
%TD*%
%TA.AperFunction,ComponentPad*%
%ADD23O,1.700000X1.700000*%
%TD*%
%TA.AperFunction,ComponentPad*%
%ADD24R,1.700000X1.700000*%
%TD*%
%TA.AperFunction,ComponentPad*%
%ADD25O,2.000000X3.600000*%
%TD*%
%TA.AperFunction,ComponentPad*%
%ADD26RoundRect,0.250000X-0.750000X-1.550000X0.750000X-1.550000X0.750000X1.550000X-0.750000X1.550000X0*%
%TD*%
%TA.AperFunction,ComponentPad*%
%ADD27RoundRect,0.250000X0.750000X1.550000X-0.750000X1.550000X-0.750000X-1.550000X0.750000X-1.550000X0*%
%TD*%
%TA.AperFunction,SMDPad,CuDef*%
%ADD28RoundRect,0.250000X-0.337500X-0.475000X0.337500X-0.475000X0.337500X0.475000X-0.337500X0.475000X0*%
%TD*%
%TA.AperFunction,SMDPad,CuDef*%
%ADD29RoundRect,0.250000X0.337500X0.475000X-0.337500X0.475000X-0.337500X-0.475000X0.337500X-0.475000X0*%
%TD*%
%TA.AperFunction,ComponentPad*%
%ADD30C,1.727200*%
%TD*%
%TA.AperFunction,ComponentPad*%
%ADD31R,1.727200X1.727200*%
%TD*%
%TA.AperFunction,ViaPad*%
%ADD32C,0.800000*%
%TD*%
%TA.AperFunction,Conductor*%
%ADD33C,0.250000*%
%TD*%
G04 APERTURE END LIST*
D10*
%TO.P,F1,2*%
%TO.N,ArduinoVIN*%
X89281000Y-47715500D03*
%TO.P,F1,1*%
%TO.N,Net-(SW1-A)*%
X89281000Y-44740500D03*
%TD*%
D11*
%TO.P,J1,2,Pin_2*%
%TO.N,GND*%
X114879891Y-41399162D03*
D12*
%TO.P,J1,1,Pin_1*%
%TO.N,Net-(J1-Pin_1)*%
X114879891Y-36399162D03*
%TD*%
D13*
%TO.P,R6,2*%
%TO.N,Net-(D6-A)*%
X54438748Y-53999850D03*
%TO.P,R6,1*%
%TO.N,DIST_R_INT*%
X56488748Y-53999850D03*
%TD*%
%TO.P,R5,2*%
%TO.N,Net-(D5-A)*%
X64833199Y-53975000D03*
%TO.P,R5,1*%
%TO.N,DIST_RM_INT*%
X66883199Y-53975000D03*
%TD*%
%TO.P,R4,2*%
%TO.N,Net-(D4-A)*%
X74860101Y-54085625D03*
%TO.P,R4,1*%
%TO.N,DIST_LM_INT*%
X76910101Y-54085625D03*
%TD*%
%TO.P,R3,2*%
%TO.N,Net-(D3-A)*%
X84678542Y-54048267D03*
%TO.P,R3,1*%
%TO.N,DIST_L_INT*%
X86728542Y-54048267D03*
%TD*%
D14*
%TO.P,D6,1,K*%
%TO.N,GND*%
X50106874Y-54117500D03*
%TO.P,D6,2,A*%
%TO.N,Net-(D6-A)*%
X51831874Y-54117500D03*
%TD*%
%TO.P,D5,2,A*%
%TO.N,Net-(D5-A)*%
X62096018Y-54202961D03*
%TO.P,D5,1,K*%
%TO.N,GND*%
X60371018Y-54202961D03*
%TD*%
%TO.P,D4,2,A*%
%TO.N,Net-(D4-A)*%
X71933208Y-54292229D03*
%TO.P,D4,1,K*%
%TO.N,GND*%
X70208208Y-54292229D03*
%TD*%
%TO.P,D3,2,A*%
%TO.N,Net-(D3-A)*%
X82080452Y-54277940D03*
%TO.P,D3,1,K*%
%TO.N,GND*%
X80355452Y-54277940D03*
%TD*%
D15*
%TO.P,R2,2*%
%TO.N,Net-(D2-A)*%
X100330000Y-52787500D03*
%TO.P,R2,1*%
%TO.N,ArduinoVIN*%
X100330000Y-54837500D03*
%TD*%
%TO.P,R1,2*%
%TO.N,Net-(D1-A)*%
X103505000Y-52787500D03*
%TO.P,R1,1*%
%TO.N,Arduino3.3V*%
X103505000Y-54837500D03*
%TD*%
D16*
%TO.P,IC2,1,IN1*%
%TO.N,MDC2_1*%
X92224519Y-37440789D03*
%TO.P,IC2,2,IN2*%
%TO.N,MDC2_2*%
X92224519Y-37940789D03*
%TO.P,IC2,3,GND*%
%TO.N,GND*%
X92224519Y-38440789D03*
%TO.P,IC2,4,OUT2*%
%TO.N,Net-(IC2-OUT2)*%
X93724519Y-38440789D03*
%TO.P,IC2,5,VM*%
%TO.N,ArduinoVIN*%
X93724519Y-37940789D03*
%TO.P,IC2,6,OUT1*%
%TO.N,Net-(IC2-OUT1)*%
X93724519Y-37440789D03*
%TD*%
%TO.P,IC1,6,OUT1*%
%TO.N,Net-(IC1-OUT1)*%
X93687005Y-42252202D03*
%TO.P,IC1,5,VM*%
%TO.N,ArduinoVIN*%
X93687005Y-42752202D03*
%TO.P,IC1,4,OUT2*%
%TO.N,Net-(IC1-OUT2)*%
X93687005Y-43252202D03*
%TO.P,IC1,3,GND*%
%TO.N,GND*%
X92187005Y-43252202D03*
%TO.P,IC1,2,IN2*%
%TO.N,MDC1_2*%
X92187005Y-42752202D03*
%TO.P,IC1,1,IN1*%
%TO.N,MDC1_1*%
X92187005Y-42252202D03*
%TD*%
D17*
%TO.P,D2,1,K*%
%TO.N,GND*%
X100330000Y-48032500D03*
%TO.P,D2,2,A*%
%TO.N,Net-(D2-A)*%
X100330000Y-49757500D03*
%TD*%
%TO.P,D1,1,K*%
%TO.N,GND*%
X103505000Y-48032500D03*
%TO.P,D1,2,A*%
%TO.N,Net-(D1-A)*%
X103505000Y-49757500D03*
%TD*%
D18*
%TO.P,C8,2*%
%TO.N,GND*%
X96425359Y-43655932D03*
%TO.P,C8,1*%
%TO.N,ArduinoVIN*%
X96425359Y-41580932D03*
%TD*%
D19*
%TO.P,C7,2*%
%TO.N,GND*%
X96500133Y-37181928D03*
%TO.P,C7,1*%
%TO.N,ArduinoVIN*%
X96500133Y-39256928D03*
%TD*%
D20*
%TO.P,SW2,6*%
%TO.N,PS1*%
X101600000Y-35560000D03*
%TO.P,SW2,5*%
%TO.N,PS2*%
X104140000Y-35560000D03*
%TO.P,SW2,4*%
%TO.N,PS3*%
X106680000Y-35560000D03*
%TO.P,SW2,3*%
%TO.N,GND*%
X106680000Y-44170000D03*
%TO.P,SW2,2*%
X104140000Y-44170000D03*
%TO.P,SW2,1*%
X101600000Y-44170000D03*
%TD*%
D21*
%TO.P,SW1,2,B*%
%TO.N,Net-(J1-Pin_1)*%
X94615000Y-46990000D03*
D22*
%TO.P,SW1,1,A*%
%TO.N,Net-(SW1-A)*%
X94615000Y-54610000D03*
%TD*%
D23*
%TO.P,J10,3,Pin_3*%
%TO.N,START_SIGNAL*%
X116225548Y-53340000D03*
%TO.P,J10,2,Pin_2*%
%TO.N,GND*%
X116225548Y-50800000D03*
D24*
%TO.P,J10,1,Pin_1*%
%TO.N,Arduino3.3V*%
X116225548Y-48260000D03*
%TD*%
D25*
%TO.P,J9,3,Pin_3*%
%TO.N,GND*%
X78580000Y-58690000D03*
%TO.P,J9,2,Pin_2*%
%TO.N,DIST_RM_INT*%
X73580000Y-58690000D03*
D26*
%TO.P,J9,1,Pin_1*%
%TO.N,Arduino3.3V*%
X68580000Y-58690000D03*
%TD*%
D25*
%TO.P,J8,3,Pin_3*%
%TO.N,GND*%
X60800000Y-58690000D03*
%TO.P,J8,2,Pin_2*%
%TO.N,DIST_R_INT*%
X55800000Y-58690000D03*
D26*
%TO.P,J8,1,Pin_1*%
%TO.N,Arduino3.3V*%
X50800000Y-58690000D03*
%TD*%
D25*
%TO.P,J7,3,Pin_3*%
%TO.N,GND*%
X96360000Y-58690000D03*
%TO.P,J7,2,Pin_2*%
%TO.N,DIST_LM_INT*%
X91360000Y-58690000D03*
D26*
%TO.P,J7,1,Pin_1*%
%TO.N,Arduino3.3V*%
X86360000Y-58690000D03*
%TD*%
D25*
%TO.P,J6,3,Pin_3*%
%TO.N,GND*%
X114140000Y-58690000D03*
%TO.P,J6,2,Pin_2*%
%TO.N,DIST_L_INT*%
X109140000Y-58690000D03*
D26*
%TO.P,J6,1,Pin_1*%
%TO.N,Arduino3.3V*%
X104140000Y-58690000D03*
%TD*%
D25*
%TO.P,J5,3,Pin_3*%
%TO.N,GND*%
X91222588Y-30447500D03*
%TO.P,J5,2,Pin_2*%
%TO.N,LF_INT*%
X96222588Y-30447500D03*
D27*
%TO.P,J5,1,Pin_1*%
%TO.N,Arduino3.3V*%
X101222588Y-30447500D03*
%TD*%
D25*
%TO.P,J4,3,Pin_3*%
%TO.N,GND*%
X63500000Y-30480000D03*
%TO.P,J4,2,Pin_2*%
%TO.N,RF_INT*%
X68500000Y-30480000D03*
D27*
%TO.P,J4,1,Pin_1*%
%TO.N,Arduino3.3V*%
X73500000Y-30480000D03*
%TD*%
D25*
%TO.P,J3,2,Pin_2*%
%TO.N,Net-(IC2-OUT1)*%
X50760000Y-30480000D03*
D27*
%TO.P,J3,1,Pin_1*%
%TO.N,Net-(IC2-OUT2)*%
X55760000Y-30480000D03*
%TD*%
D25*
%TO.P,J2,2,Pin_2*%
%TO.N,Net-(IC1-OUT1)*%
X108962588Y-30447500D03*
D27*
%TO.P,J2,1,Pin_1*%
%TO.N,Net-(IC1-OUT2)*%
X113962588Y-30447500D03*
%TD*%
D28*
%TO.P,C6,2*%
%TO.N,GND*%
X56119620Y-47538697D03*
%TO.P,C6,1*%
%TO.N,Arduino3.3V*%
X54044620Y-47538697D03*
%TD*%
%TO.P,C5,2*%
%TO.N,GND*%
X56119620Y-44528697D03*
%TO.P,C5,1*%
%TO.N,Arduino3.3V*%
X54044620Y-44528697D03*
%TD*%
%TO.P,C4,2*%
%TO.N,GND*%
X56119620Y-41518697D03*
%TO.P,C4,1*%
%TO.N,Arduino3.3V*%
X54044620Y-41518697D03*
%TD*%
D29*
%TO.P,C3,1*%
%TO.N,ArduinoVIN*%
X86387065Y-41654223D03*
%TO.P,C3,2*%
%TO.N,GND*%
X84312065Y-41654223D03*
%TD*%
%TO.P,C2,1*%
%TO.N,ArduinoVIN*%
X86387065Y-44664223D03*
%TO.P,C2,2*%
%TO.N,GND*%
X84312065Y-44664223D03*
%TD*%
%TO.P,C1,1*%
%TO.N,ArduinoVIN*%
X86387065Y-47674223D03*
%TO.P,C1,2*%
%TO.N,GND*%
X84312065Y-47674223D03*
%TD*%
D30*
%TO.P,A1,3V3,3.3V*%
%TO.N,Arduino3.3V*%
X53752000Y-50800000D03*
%TO.P,A1,5V,5V*%
%TO.N,unconnected-(A1-Pad5V)*%
X79152000Y-50800000D03*
%TO.P,A1,A0,A0*%
%TO.N,DIST_R_INT*%
X58832000Y-50800000D03*
%TO.P,A1,A1,A1*%
%TO.N,DIST_RM_INT*%
X61372000Y-50800000D03*
%TO.P,A1,A2,A2*%
%TO.N,DIST_LM_INT*%
X63912000Y-50800000D03*
%TO.P,A1,A3,A3*%
%TO.N,DIST_L_INT*%
X66452000Y-50800000D03*
%TO.P,A1,A4,A4/SDA*%
%TO.N,unconnected-(A1-A4{slash}SDA-PadA4)*%
X68992000Y-50800000D03*
%TO.P,A1,A5,A5/SCL*%
%TO.N,unconnected-(A1-A5{slash}SCL-PadA5)*%
X71532000Y-50800000D03*
%TO.P,A1,A6,A6*%
%TO.N,unconnected-(A1-PadA6)*%
X74072000Y-50800000D03*
%TO.P,A1,A7,A7*%
%TO.N,unconnected-(A1-PadA7)*%
X76612000Y-50800000D03*
%TO.P,A1,B0,B0*%
%TO.N,unconnected-(A1-PadB0)*%
X56292000Y-50800000D03*
%TO.P,A1,B1,B1*%
%TO.N,unconnected-(A1-PadB1)*%
X81692000Y-50800000D03*
%TO.P,A1,D0,D0/RX*%
%TO.N,unconnected-(A1-D0{slash}RX-PadD0)*%
X84232000Y-35560000D03*
%TO.P,A1,D1,D1/TX*%
%TO.N,unconnected-(A1-D1{slash}TX-PadD1)*%
X86772000Y-35560000D03*
%TO.P,A1,D2,D2*%
%TO.N,MDC1_1*%
X76612000Y-35560000D03*
%TO.P,A1,D3,D3*%
%TO.N,MDC1_2*%
X74072000Y-35560000D03*
%TO.P,A1,D4,D4*%
%TO.N,LF_INT*%
X71532000Y-35560000D03*
%TO.P,A1,D5,D5*%
%TO.N,PS1*%
X68992000Y-35560000D03*
%TO.P,A1,D6,D6*%
%TO.N,PS2*%
X66452000Y-35560000D03*
%TO.P,A1,D7,D7*%
%TO.N,PS3*%
X63912000Y-35560000D03*
%TO.P,A1,D8,D8*%
%TO.N,START_SIGNAL*%
X61372000Y-35560000D03*
%TO.P,A1,D9,D9*%
%TO.N,unconnected-(A1-PadD9)*%
X58832000Y-35560000D03*
%TO.P,A1,D10,D10*%
%TO.N,RF_INT*%
X56292000Y-35560000D03*
%TO.P,A1,D11,D11_MOSI*%
%TO.N,MDC2_1*%
X53752000Y-35560000D03*
%TO.P,A1,D12,D12_MISO*%
%TO.N,MDC2_2*%
X51212000Y-35560000D03*
%TO.P,A1,D13,D13_SCK*%
%TO.N,unconnected-(A1-D13_SCK-PadD13)*%
X51212000Y-50800000D03*
D31*
%TO.P,A1,GND1,GND*%
%TO.N,GND*%
X79152000Y-35560000D03*
%TO.P,A1,GND2,GND*%
X84232000Y-50800000D03*
D30*
%TO.P,A1,RST,~{RESET}*%
%TO.N,unconnected-(A1-~{RESET}-PadRST)*%
X81692000Y-35560000D03*
%TO.P,A1,VIN,VIN*%
%TO.N,ArduinoVIN*%
X86772000Y-50800000D03*
%TD*%
D32*
%TO.N,GND*%
X106807000Y-49530000D03*
X98171000Y-45847000D03*
X98171000Y-48514000D03*
X88265000Y-43180000D03*
X82677000Y-44196000D03*
X88265000Y-40639500D03*
X91567000Y-40639500D03*
X91059000Y-34379500D03*
%TO.N,DIST_L_INT*%
X85344000Y-52705000D03*
%TO.N,Arduino3.3V*%
X105283000Y-55372000D03*
%TO.N,ArduinoVIN*%
X92710000Y-44450000D03*
X91440000Y-46990000D03*
%TO.N,PS3*%
X65405000Y-41275000D03*
X106045000Y-41364500D03*
%TO.N,PS2*%
X69215000Y-40640000D03*
X103505000Y-39370000D03*
%TO.N,PS1*%
X100965000Y-38735000D03*
X71755000Y-39370000D03*
%TO.N,START_SIGNAL*%
X62865000Y-46355000D03*
X106680000Y-51435000D03*
%TO.N,Arduino3.3V*%
X52705000Y-55880000D03*
X93980000Y-32930500D03*
%TO.N,ArduinoVIN*%
X98425000Y-53975000D03*
X88900000Y-53340000D03*
%TO.N,Net-(J1-Pin_1)*%
X96520000Y-46990000D03*
X109855000Y-45720000D03*
%TO.N,Net-(IC1-OUT2)*%
X94615000Y-44450000D03*
X108585000Y-43815000D03*
%TO.N,Net-(IC1-OUT1)*%
X107950000Y-40005000D03*
X94615000Y-40640000D03*
%TO.N,Net-(IC2-OUT2)*%
X57785000Y-32930500D03*
X94399519Y-35201009D03*
%TO.N,Net-(IC2-OUT1)*%
X52070000Y-33655000D03*
X93675019Y-35939519D03*
%TO.N,MDC2_2*%
X90170000Y-38464503D03*
X53338453Y-38437143D03*
%TO.N,MDC2_1*%
X55245000Y-37465000D03*
X90170000Y-37465000D03*
%TD*%
D33*
%TO.N,ArduinoVIN*%
X89281000Y-47715500D02*
X89239723Y-47674223D01*
X89239723Y-47674223D02*
X86387065Y-47674223D01*
X90714500Y-47715500D02*
X89281000Y-47715500D01*
X91440000Y-46990000D02*
X90714500Y-47715500D01*
%TO.N,GND*%
X82677000Y-44196000D02*
X82677000Y-46039158D01*
X82677000Y-46039158D02*
X84312065Y-47674223D01*
X88337202Y-43252202D02*
X88265000Y-43180000D01*
X92187005Y-43252202D02*
X88337202Y-43252202D01*
X85362065Y-40604223D02*
X84312065Y-41654223D01*
X88229723Y-40604223D02*
X85362065Y-40604223D01*
X88265000Y-40639500D02*
X88229723Y-40604223D01*
%TO.N,MDC1_2*%
X89408000Y-39879396D02*
X87629302Y-38100698D01*
X87629302Y-38100698D02*
X76612698Y-38100698D01*
X89408000Y-41402000D02*
X89408000Y-39879396D01*
X90758202Y-42752202D02*
X89408000Y-41402000D01*
X92187005Y-42752202D02*
X90758202Y-42752202D01*
X76612698Y-38100698D02*
X74072000Y-35560000D01*
%TO.N,MDC1_1*%
X87630000Y-37465000D02*
X78517000Y-37465000D01*
X78517000Y-37465000D02*
X76612000Y-35560000D01*
X89957753Y-41189753D02*
X89957753Y-39792753D01*
X91020202Y-42252202D02*
X89957753Y-41189753D01*
X92187005Y-42252202D02*
X91020202Y-42252202D01*
X89957753Y-39792753D02*
X87630000Y-37465000D01*
%TO.N,GND*%
X92224519Y-38440789D02*
X92224519Y-39981981D01*
X92224519Y-39981981D02*
X91567000Y-40639500D01*
X95212500Y-34379500D02*
X96500133Y-35667133D01*
X91059000Y-34379500D02*
X95212500Y-34379500D01*
X96500133Y-35667133D02*
X96500133Y-37181928D01*
%TO.N,DIST_LM_INT*%
X75206476Y-52382000D02*
X65494000Y-52382000D01*
X65494000Y-52382000D02*
X63912000Y-50800000D01*
X76910101Y-54085625D02*
X75206476Y-52382000D01*
%TO.N,DIST_L_INT*%
X86687267Y-54048267D02*
X85344000Y-52705000D01*
X86728542Y-54048267D02*
X86687267Y-54048267D01*
%TO.N,DIST_RM_INT*%
X61372000Y-52228000D02*
X61372000Y-50800000D01*
X61976000Y-52832000D02*
X61372000Y-52228000D01*
X65740199Y-52832000D02*
X61976000Y-52832000D01*
X66883199Y-53975000D02*
X65740199Y-52832000D01*
%TO.N,DIST_R_INT*%
X58832000Y-52674000D02*
X58832000Y-50800000D01*
X57531000Y-53975000D02*
X58832000Y-52674000D01*
X56513598Y-53975000D02*
X57531000Y-53975000D01*
X56488748Y-53999850D02*
X56513598Y-53975000D01*
%TO.N,Arduino3.3V*%
X104748500Y-54837500D02*
X105283000Y-55372000D01*
X103505000Y-54837500D02*
X104748500Y-54837500D01*
%TO.N,ArduinoVIN*%
X92862005Y-44297995D02*
X92710000Y-44450000D01*
X93087005Y-42752202D02*
X92862005Y-42977202D01*
X92862005Y-42977202D02*
X92862005Y-44297995D01*
X93687005Y-42752202D02*
X93087005Y-42752202D01*
X96425359Y-39331702D02*
X96500133Y-39256928D01*
X96425359Y-41580932D02*
X96425359Y-39331702D01*
%TO.N,Net-(SW1-A)*%
X91640000Y-44650000D02*
X89535000Y-44650000D01*
X92710000Y-45720000D02*
X91640000Y-44650000D01*
X92710000Y-48895000D02*
X92710000Y-45720000D01*
X94615000Y-50800000D02*
X92710000Y-48895000D01*
X94615000Y-54610000D02*
X94615000Y-50800000D01*
%TO.N,PS3*%
X63912000Y-39782000D02*
X63912000Y-35560000D01*
X65405000Y-41275000D02*
X63912000Y-39782000D01*
X106680000Y-40729500D02*
X106045000Y-41364500D01*
X106680000Y-35560000D02*
X106680000Y-40729500D01*
%TO.N,PS2*%
X66452000Y-39782000D02*
X66452000Y-35560000D01*
X67310000Y-40640000D02*
X66452000Y-39782000D01*
X69215000Y-40640000D02*
X67310000Y-40640000D01*
X104140000Y-38735000D02*
X103505000Y-39370000D01*
X104140000Y-35560000D02*
X104140000Y-38735000D01*
%TO.N,PS1*%
X68992000Y-38512000D02*
X68992000Y-35560000D01*
X69850000Y-39370000D02*
X68992000Y-38512000D01*
X71755000Y-39370000D02*
X69850000Y-39370000D01*
X101600000Y-38100000D02*
X100965000Y-38735000D01*
X101600000Y-35560000D02*
X101600000Y-38100000D01*
%TO.N,START_SIGNAL*%
X61372000Y-44862000D02*
X61372000Y-35560000D01*
X62865000Y-46355000D02*
X61372000Y-44862000D01*
X108585000Y-53340000D02*
X106680000Y-51435000D01*
X116225548Y-53340000D02*
X108585000Y-53340000D01*
%TO.N,Arduino3.3V*%
X50800000Y-57785000D02*
X52705000Y-55880000D01*
X50800000Y-58690000D02*
X50800000Y-57785000D01*
X75950500Y-32930500D02*
X93980000Y-32930500D01*
X73500000Y-30480000D02*
X75950500Y-32930500D01*
X104140000Y-46355000D02*
X106045000Y-48260000D01*
X100330000Y-46355000D02*
X104140000Y-46355000D01*
X98425000Y-33245088D02*
X98425000Y-44450000D01*
X98425000Y-44450000D02*
X100330000Y-46355000D01*
X101222588Y-30447500D02*
X98425000Y-33245088D01*
%TO.N,ArduinoVIN*%
X86772000Y-51847000D02*
X86772000Y-50800000D01*
X88265000Y-53340000D02*
X86772000Y-51847000D01*
X88900000Y-53340000D02*
X88265000Y-53340000D01*
X99287500Y-54837500D02*
X98425000Y-53975000D01*
X100330000Y-54837500D02*
X99287500Y-54837500D01*
%TO.N,Arduino3.3V*%
X105410000Y-53975000D02*
X104547500Y-54837500D01*
X105410000Y-48895000D02*
X105410000Y-53975000D01*
X106045000Y-48260000D02*
X105410000Y-48895000D01*
X116225548Y-48260000D02*
X106045000Y-48260000D01*
X104547500Y-54837500D02*
X103505000Y-54837500D01*
%TO.N,Net-(D1-A)*%
X103505000Y-49757500D02*
X103505000Y-52787500D01*
%TO.N,Net-(D2-A)*%
X100330000Y-49757500D02*
X100330000Y-52787500D01*
%TO.N,Net-(J1-Pin_1)*%
X110490000Y-38735000D02*
X112825838Y-36399162D01*
X110490000Y-45085000D02*
X110490000Y-38735000D01*
X109855000Y-45720000D02*
X110490000Y-45085000D01*
X94615000Y-46990000D02*
X96520000Y-46990000D01*
X112825838Y-36399162D02*
X114879891Y-36399162D01*
%TO.N,Net-(D3-A)*%
X82310125Y-54048267D02*
X82080452Y-54277940D01*
X84678542Y-54048267D02*
X82310125Y-54048267D01*
%TO.N,Net-(D4-A)*%
X72139812Y-54085625D02*
X71933208Y-54292229D01*
X74860101Y-54085625D02*
X72139812Y-54085625D01*
%TO.N,Net-(D5-A)*%
X64833199Y-53975000D02*
X62323979Y-53975000D01*
X62323979Y-53975000D02*
X62096018Y-54202961D01*
%TO.N,Net-(D6-A)*%
X54438748Y-53999850D02*
X51949524Y-53999850D01*
X51949524Y-53999850D02*
X51831874Y-54117500D01*
%TO.N,LF_INT*%
X94615000Y-33655000D02*
X73437000Y-33655000D01*
X96222588Y-32047412D02*
X94615000Y-33655000D01*
X96222588Y-30447500D02*
X96222588Y-32047412D01*
X73437000Y-33655000D02*
X71532000Y-35560000D01*
%TO.N,Net-(IC2-OUT1)*%
X93724519Y-35989019D02*
X93724519Y-37440789D01*
X93675019Y-35939519D02*
X93724519Y-35989019D01*
%TO.N,Net-(IC2-OUT2)*%
X94394519Y-38440789D02*
X93724519Y-38440789D01*
X94399519Y-35201009D02*
X94399519Y-38435789D01*
X94399519Y-38435789D02*
X94394519Y-38440789D01*
%TO.N,RF_INT*%
X57972600Y-33879400D02*
X56292000Y-35560000D01*
X65100600Y-33879400D02*
X57972600Y-33879400D01*
X68500000Y-30480000D02*
X65100600Y-33879400D01*
%TO.N,DIST_L_INT*%
X86986488Y-55534077D02*
X86728542Y-55276131D01*
X86728542Y-55276131D02*
X86728542Y-54048267D01*
X90894382Y-55534077D02*
X86986488Y-55534077D01*
X91652877Y-56292572D02*
X90894382Y-55534077D01*
X106742572Y-56292572D02*
X91652877Y-56292572D01*
X109140000Y-58690000D02*
X106742572Y-56292572D01*
%TO.N,DIST_LM_INT*%
X76910101Y-55719317D02*
X76910101Y-54085625D01*
X77439706Y-56248922D02*
X76910101Y-55719317D01*
X88918922Y-56248922D02*
X77439706Y-56248922D01*
X91360000Y-58690000D02*
X88918922Y-56248922D01*
%TO.N,DIST_RM_INT*%
X67752606Y-56322606D02*
X66883199Y-55453199D01*
X73351966Y-56322606D02*
X67752606Y-56322606D01*
X73580000Y-56550640D02*
X73351966Y-56322606D01*
X73580000Y-58690000D02*
X73580000Y-56550640D01*
X66883199Y-55453199D02*
X66883199Y-53975000D01*
%TO.N,DIST_R_INT*%
X56515000Y-54026102D02*
X56488748Y-53999850D01*
X55800000Y-58690000D02*
X56515000Y-57975000D01*
X56515000Y-57975000D02*
X56515000Y-54026102D01*
%TO.N,Arduino3.3V*%
X101235000Y-61595000D02*
X104140000Y-58690000D01*
X89265000Y-61595000D02*
X101235000Y-61595000D01*
X86360000Y-58690000D02*
X89265000Y-61595000D01*
X83455000Y-61595000D02*
X86360000Y-58690000D01*
X71485000Y-61595000D02*
X83455000Y-61595000D01*
X68580000Y-58690000D02*
X71485000Y-61595000D01*
X65675000Y-61595000D02*
X68580000Y-58690000D01*
X53705000Y-61595000D02*
X65675000Y-61595000D01*
X50800000Y-58690000D02*
X53705000Y-61595000D01*
%TO.N,ArduinoVIN*%
X86387065Y-44664223D02*
X86387065Y-41654223D01*
X86387065Y-47674223D02*
X86387065Y-44664223D01*
X86772000Y-48059158D02*
X86387065Y-47674223D01*
X86772000Y-50800000D02*
X86772000Y-48059158D01*
%TO.N,Arduino3.3V*%
X54044620Y-44528697D02*
X54044620Y-41518697D01*
X54044620Y-47538697D02*
X54044620Y-44528697D01*
X53752000Y-47831317D02*
X54044620Y-47538697D01*
X53752000Y-50800000D02*
X53752000Y-47831317D01*
%TO.N,ArduinoVIN*%
X94933534Y-41580932D02*
X96425359Y-41580932D01*
X94615000Y-41899466D02*
X94933534Y-41580932D01*
X94615000Y-42494207D02*
X94615000Y-41899466D01*
X94357005Y-42752202D02*
X94615000Y-42494207D01*
X93687005Y-42752202D02*
X94357005Y-42752202D01*
%TO.N,Net-(IC1-OUT2)*%
X112025088Y-32385000D02*
X113962588Y-30447500D01*
X110490000Y-32385000D02*
X112025088Y-32385000D01*
X109855000Y-33020000D02*
X110490000Y-32385000D01*
X108585000Y-43815000D02*
X109855000Y-42545000D01*
X109855000Y-42545000D02*
X109855000Y-33020000D01*
X93687005Y-43522005D02*
X94615000Y-44450000D01*
X93687005Y-43252202D02*
X93687005Y-43522005D01*
%TO.N,Net-(IC1-OUT1)*%
X108962588Y-38992412D02*
X108962588Y-30447500D01*
X93687005Y-41567995D02*
X94615000Y-40640000D01*
X93687005Y-42252202D02*
X93687005Y-41567995D01*
X107950000Y-40005000D02*
X108962588Y-38992412D01*
%TO.N,ArduinoVIN*%
X93231928Y-39256928D02*
X96500133Y-39256928D01*
X92899519Y-38924519D02*
X93231928Y-39256928D01*
X93054519Y-37940789D02*
X92899519Y-38095789D01*
X93724519Y-37940789D02*
X93054519Y-37940789D01*
X92899519Y-38095789D02*
X92899519Y-38924519D01*
%TO.N,Net-(IC2-OUT2)*%
X55760000Y-30905500D02*
X55760000Y-30480000D01*
X57785000Y-32930500D02*
X55760000Y-30905500D01*
%TO.N,Net-(IC2-OUT1)*%
X50760000Y-32345000D02*
X50760000Y-30480000D01*
X52070000Y-33655000D02*
X50760000Y-32345000D01*
%TO.N,MDC2_2*%
X51212000Y-37242000D02*
X51212000Y-35560000D01*
X53338453Y-38437143D02*
X52407143Y-38437143D01*
X52407143Y-38437143D02*
X51212000Y-37242000D01*
X90719516Y-37940789D02*
X90195802Y-38464503D01*
X90195802Y-38464503D02*
X90170000Y-38464503D01*
X92224519Y-37940789D02*
X90719516Y-37940789D01*
%TO.N,MDC2_1*%
X53752000Y-36607000D02*
X53752000Y-35560000D01*
X54610000Y-37465000D02*
X53752000Y-36607000D01*
X55245000Y-37465000D02*
X54610000Y-37465000D01*
X90194211Y-37440789D02*
X90170000Y-37465000D01*
X92224519Y-37440789D02*
X90194211Y-37440789D01*
%TD*%
%TA.AperFunction,Conductor*%
%TO.N,GND*%
G36*
X60183905Y-51483753D02*
G01*
X60205804Y-51509025D01*
X60291844Y-51640719D01*
X60291849Y-51640724D01*
X60291850Y-51640727D01*
X60444950Y-51807036D01*
X60444954Y-51807040D01*
X60623351Y-51945893D01*
X60681517Y-51977370D01*
X60731107Y-52026588D01*
X60746500Y-52086425D01*
X60746500Y-52145255D01*
X60744775Y-52160872D01*
X60745061Y-52160899D01*
X60744326Y-52168665D01*
X60746500Y-52237814D01*
X60746500Y-52267343D01*
X60746501Y-52267360D01*
X60747368Y-52274231D01*
X60747826Y-52280050D01*
X60749290Y-52326624D01*
X60749291Y-52326627D01*
X60754880Y-52345867D01*
X60758824Y-52364911D01*
X60761336Y-52384792D01*
X60772303Y-52412491D01*
X60778490Y-52428119D01*
X60780382Y-52433647D01*
X60793381Y-52478388D01*
X60803580Y-52495634D01*
X60812136Y-52513100D01*
X60819514Y-52531732D01*
X60830166Y-52546394D01*
X60846898Y-52569423D01*
X60850106Y-52574307D01*
X60873827Y-52614416D01*
X60873833Y-52614424D01*
X60887990Y-52628580D01*
X60900628Y-52643376D01*
X60912405Y-52659586D01*
X60912406Y-52659587D01*
X60948309Y-52689288D01*
X60952620Y-52693210D01*
X61414073Y-53154663D01*
X61447557Y-53215985D01*
X61442573Y-53285677D01*
X61400701Y-53341610D01*
X61391489Y-53347881D01*
X61335168Y-53382620D01*
X61320843Y-53396945D01*
X61259519Y-53430429D01*
X61189827Y-53425443D01*
X61145483Y-53396943D01*
X61131556Y-53383016D01*
X61131552Y-53383013D01*
X60984829Y-53292512D01*
X60984818Y-53292507D01*
X60821170Y-53238280D01*
X60720172Y-53227961D01*
X60621018Y-53227961D01*
X60621018Y-55177960D01*
X60720158Y-55177960D01*
X60720172Y-55177959D01*
X60821170Y-55167641D01*
X60984818Y-55113414D01*
X60984829Y-55113409D01*
X61131553Y-55022908D01*
X61145478Y-55008982D01*
X61206800Y-54975494D01*
X61276491Y-54980475D01*
X61320844Y-55008978D01*
X61335168Y-55023301D01*
X61482002Y-55113869D01*
X61645765Y-55168135D01*
X61746841Y-55178461D01*
X62445194Y-55178460D01*
X62445202Y-55178459D01*
X62445205Y-55178459D01*
X62500548Y-55172805D01*
X62546271Y-55168135D01*
X62710034Y-55113869D01*
X62856868Y-55023301D01*
X62978858Y-54901311D01*
X63069426Y-54754477D01*
X63092284Y-54685493D01*
X63132057Y-54628051D01*
X63196573Y-54601228D01*
X63209990Y-54600500D01*
X63686182Y-54600500D01*
X63753221Y-54620185D01*
X63798976Y-54672989D01*
X63803885Y-54685489D01*
X63818904Y-54730810D01*
X63823385Y-54744333D01*
X63823386Y-54744336D01*
X63838714Y-54769186D01*
X63915487Y-54893656D01*
X64039543Y-55017712D01*
X64188865Y-55109814D01*
X64355402Y-55164999D01*
X64458190Y-55175500D01*
X65208207Y-55175499D01*
X65208215Y-55175498D01*
X65208218Y-55175498D01*
X65285132Y-55167641D01*
X65310996Y-55164999D01*
X65477533Y-55109814D01*
X65626855Y-55017712D01*
X65750911Y-54893656D01*
X65752660Y-54890819D01*
X65754368Y-54889283D01*
X65755392Y-54887989D01*
X65755613Y-54888163D01*
X65804605Y-54844096D01*
X65873567Y-54832872D01*
X65937650Y-54860713D01*
X65963736Y-54890817D01*
X65965487Y-54893656D01*
X66089543Y-55017712D01*
X66198796Y-55085099D01*
X66245520Y-55137047D01*
X66257699Y-55190638D01*
X66257699Y-55370454D01*
X66255974Y-55386071D01*
X66256260Y-55386098D01*
X66255526Y-55393864D01*
X66257699Y-55463000D01*
X66257699Y-55492542D01*
X66257700Y-55492559D01*
X66258567Y-55499430D01*
X66259025Y-55505249D01*
X66260489Y-55551823D01*
X66260490Y-55551826D01*
X66266079Y-55571066D01*
X66270023Y-55590110D01*
X66272535Y-55609991D01*
X66287341Y-55647387D01*
X66289689Y-55653318D01*
X66291581Y-55658846D01*
X66302617Y-55696831D01*
X66304581Y-55703589D01*
X66312611Y-55717168D01*
X66314779Y-55720833D01*
X66323337Y-55738302D01*
X66330713Y-55756931D01*
X66358097Y-55794622D01*
X66361305Y-55799506D01*
X66385026Y-55839615D01*
X66385032Y-55839623D01*
X66399189Y-55853779D01*
X66411827Y-55868575D01*
X66423604Y-55884785D01*
X66423605Y-55884786D01*
X66459508Y-55914487D01*
X66463819Y-55918409D01*
X66820017Y-56274607D01*
X67160125Y-56614715D01*
X67193610Y-56676038D01*
X67188626Y-56745730D01*
X67177983Y-56767492D01*
X67145190Y-56820659D01*
X67145185Y-56820668D01*
X67138747Y-56840098D01*
X67090001Y-56987203D01*
X67090001Y-56987204D01*
X67090000Y-56987204D01*
X67079500Y-57089983D01*
X67079500Y-59254546D01*
X67059815Y-59321585D01*
X67043181Y-59342227D01*
X65452228Y-60933181D01*
X65390905Y-60966666D01*
X65364547Y-60969500D01*
X61702489Y-60969500D01*
X61635450Y-60949815D01*
X61589695Y-60897011D01*
X61579751Y-60827853D01*
X61608776Y-60764297D01*
X61626326Y-60747647D01*
X61819402Y-60597368D01*
X61819407Y-60597364D01*
X61987767Y-60414478D01*
X62123732Y-60206367D01*
X62223587Y-59978717D01*
X62284612Y-59737738D01*
X62284614Y-59737730D01*
X62300000Y-59552041D01*
X62300000Y-58940000D01*
X61459329Y-58940000D01*
X61500000Y-58774995D01*
X61500000Y-58605005D01*
X61459329Y-58440000D01*
X62300000Y-58440000D01*
X62300000Y-57827959D01*
X62284614Y-57642269D01*
X62284612Y-57642261D01*
X62223587Y-57401282D01*
X62123732Y-57173632D01*
X61987767Y-56965521D01*
X61819407Y-56782635D01*
X61819397Y-56782626D01*
X61623237Y-56629948D01*
X61623228Y-56629942D01*
X61404614Y-56511635D01*
X61404603Y-56511630D01*
X61169492Y-56430916D01*
X61050000Y-56410976D01*
X61050000Y-58036162D01*
X60968751Y-58005349D01*
X60842340Y-57990000D01*
X60757660Y-57990000D01*
X60631249Y-58005349D01*
X60550000Y-58036162D01*
X60550000Y-56410976D01*
X60549999Y-56410976D01*
X60430507Y-56430916D01*
X60195396Y-56511630D01*
X60195385Y-56511635D01*
X59976771Y-56629942D01*
X59976762Y-56629948D01*
X59780602Y-56782626D01*
X59780592Y-56782635D01*
X59612232Y-56965521D01*
X59476267Y-57173632D01*
X59376412Y-57401282D01*
X59315387Y-57642261D01*
X59315385Y-57642269D01*
X59300000Y-57827959D01*
X59300000Y-58440000D01*
X60140671Y-58440000D01*
X60100000Y-58605005D01*
X60100000Y-58774995D01*
X60140671Y-58940000D01*
X59300000Y-58940000D01*
X59300000Y-59552041D01*
X59315385Y-59737730D01*
X59315387Y-59737738D01*
X59376412Y-59978717D01*
X59476267Y-60206367D01*
X59612232Y-60414478D01*
X59780592Y-60597364D01*
X59780597Y-60597368D01*
X59973674Y-60747647D01*
X60014486Y-60804357D01*
X60018161Y-60874130D01*
X59983529Y-60934813D01*
X59921588Y-60967140D01*
X59897511Y-60969500D01*
X56703303Y-60969500D01*
X56636264Y-60949815D01*
X56590509Y-60897011D01*
X56580565Y-60827853D01*
X56609590Y-60764297D01*
X56627134Y-60747652D01*
X56819744Y-60597738D01*
X56988164Y-60414785D01*
X57124173Y-60206607D01*
X57224063Y-59978881D01*
X57285108Y-59737821D01*
X57300500Y-59552067D01*
X57300500Y-57827933D01*
X57296145Y-57775376D01*
X57285109Y-57642186D01*
X57285107Y-57642175D01*
X57224063Y-57401118D01*
X57150943Y-57234422D01*
X57140499Y-57184612D01*
X57140499Y-56179262D01*
X57140499Y-55199290D01*
X57160184Y-55132255D01*
X57199398Y-55093759D01*
X57282404Y-55042562D01*
X57406460Y-54918506D01*
X57498562Y-54769184D01*
X57527525Y-54681777D01*
X57567296Y-54624335D01*
X57622146Y-54599948D01*
X57622129Y-54599887D01*
X57622576Y-54599756D01*
X57625831Y-54598310D01*
X57629619Y-54597709D01*
X57629627Y-54597709D01*
X57648869Y-54592117D01*
X57667912Y-54588174D01*
X57687792Y-54585664D01*
X57731122Y-54568507D01*
X57736646Y-54566617D01*
X57743609Y-54564594D01*
X57781390Y-54553618D01*
X57798629Y-54543422D01*
X57816103Y-54534862D01*
X57834727Y-54527488D01*
X57834727Y-54527487D01*
X57834732Y-54527486D01*
X57872449Y-54500082D01*
X57877305Y-54496892D01*
X57917420Y-54473170D01*
X57931589Y-54458999D01*
X57938659Y-54452961D01*
X59333519Y-54452961D01*
X59333519Y-54489615D01*
X59343837Y-54590613D01*
X59398064Y-54754261D01*
X59398069Y-54754272D01*
X59488570Y-54900995D01*
X59488573Y-54900999D01*
X59610479Y-55022905D01*
X59610483Y-55022908D01*
X59757206Y-55113409D01*
X59757217Y-55113414D01*
X59920865Y-55167641D01*
X60021869Y-55177960D01*
X60121017Y-55177959D01*
X60121018Y-54452961D01*
X59333519Y-54452961D01*
X57938659Y-54452961D01*
X57946379Y-54446368D01*
X57962587Y-54434594D01*
X57992299Y-54398676D01*
X57996212Y-54394376D01*
X58437627Y-53952961D01*
X59333518Y-53952961D01*
X60121017Y-53952961D01*
X60121017Y-53227960D01*
X60021878Y-53227961D01*
X60021862Y-53227962D01*
X59920865Y-53238280D01*
X59757217Y-53292507D01*
X59757206Y-53292512D01*
X59610483Y-53383013D01*
X59610479Y-53383016D01*
X59488573Y-53504922D01*
X59488570Y-53504926D01*
X59398069Y-53651649D01*
X59398064Y-53651660D01*
X59343837Y-53815308D01*
X59333518Y-53916306D01*
X59333518Y-53952961D01*
X58437627Y-53952961D01*
X59215787Y-53174802D01*
X59228042Y-53164986D01*
X59227859Y-53164764D01*
X59233866Y-53159792D01*
X59233877Y-53159786D01*
X59264775Y-53126882D01*
X59281227Y-53109364D01*
X59291671Y-53098918D01*
X59302120Y-53088471D01*
X59306379Y-53082978D01*
X59310152Y-53078561D01*
X59342062Y-53044582D01*
X59351715Y-53027020D01*
X59362389Y-53010770D01*
X59374673Y-52994936D01*
X59393180Y-52952167D01*
X59395749Y-52946924D01*
X59397953Y-52942913D01*
X59418197Y-52906092D01*
X59423177Y-52886691D01*
X59429478Y-52868288D01*
X59437438Y-52849896D01*
X59444730Y-52803849D01*
X59445911Y-52798152D01*
X59450690Y-52779540D01*
X59457500Y-52753019D01*
X59457500Y-52732983D01*
X59459027Y-52713582D01*
X59460347Y-52705248D01*
X59462160Y-52693804D01*
X59457775Y-52647415D01*
X59457500Y-52641577D01*
X59457500Y-52086425D01*
X59477185Y-52019386D01*
X59522481Y-51977371D01*
X59580649Y-51945893D01*
X59759046Y-51807040D01*
X59912156Y-51640719D01*
X59998193Y-51509028D01*
X60051338Y-51463675D01*
X60120569Y-51454251D01*
X60183905Y-51483753D01*
G37*
%TD.AperFunction*%
%TA.AperFunction,Conductor*%
G36*
X73885615Y-53027185D02*
G01*
X73931370Y-53079989D01*
X73941314Y-53149147D01*
X73924115Y-53196594D01*
X73903195Y-53230513D01*
X73850288Y-53316288D01*
X73850287Y-53316291D01*
X73831290Y-53373622D01*
X73830790Y-53375130D01*
X73791017Y-53432574D01*
X73726501Y-53459397D01*
X73713084Y-53460125D01*
X72710153Y-53460125D01*
X72645057Y-53441664D01*
X72547230Y-53381324D01*
X72547225Y-53381322D01*
X72547224Y-53381321D01*
X72383461Y-53327055D01*
X72383459Y-53327054D01*
X72282386Y-53316729D01*
X71584038Y-53316729D01*
X71584020Y-53316730D01*
X71482955Y-53327054D01*
X71319192Y-53381321D01*
X71319189Y-53381322D01*
X71172356Y-53471890D01*
X71158033Y-53486213D01*
X71096709Y-53519697D01*
X71027017Y-53514711D01*
X70982673Y-53486211D01*
X70968746Y-53472284D01*
X70968742Y-53472281D01*
X70822019Y-53381780D01*
X70822008Y-53381775D01*
X70658360Y-53327548D01*
X70557362Y-53317229D01*
X70458208Y-53317229D01*
X70458208Y-55267228D01*
X70557348Y-55267228D01*
X70557362Y-55267227D01*
X70658360Y-55256909D01*
X70822008Y-55202682D01*
X70822019Y-55202677D01*
X70968743Y-55112176D01*
X70982668Y-55098250D01*
X71043990Y-55064762D01*
X71113681Y-55069743D01*
X71158035Y-55098245D01*
X71172358Y-55112569D01*
X71319192Y-55203137D01*
X71482955Y-55257403D01*
X71584031Y-55267729D01*
X72282384Y-55267728D01*
X72282392Y-55267727D01*
X72282395Y-55267727D01*
X72337738Y-55262073D01*
X72383461Y-55257403D01*
X72547224Y-55203137D01*
X72694058Y-55112569D01*
X72816048Y-54990579D01*
X72906616Y-54843745D01*
X72922397Y-54796118D01*
X72962170Y-54738676D01*
X73026686Y-54711853D01*
X73040103Y-54711125D01*
X73713084Y-54711125D01*
X73780123Y-54730810D01*
X73825878Y-54783614D01*
X73830787Y-54796114D01*
X73850286Y-54854956D01*
X73850287Y-54854958D01*
X73850288Y-54854961D01*
X73878877Y-54901311D01*
X73942389Y-55004281D01*
X74066445Y-55128337D01*
X74215767Y-55220439D01*
X74382304Y-55275624D01*
X74485092Y-55286125D01*
X75235109Y-55286124D01*
X75235117Y-55286123D01*
X75235120Y-55286123D01*
X75291403Y-55280373D01*
X75337898Y-55275624D01*
X75504435Y-55220439D01*
X75653757Y-55128337D01*
X75777813Y-55004281D01*
X75779562Y-55001444D01*
X75781270Y-54999908D01*
X75782294Y-54998614D01*
X75782515Y-54998788D01*
X75831507Y-54954721D01*
X75900469Y-54943497D01*
X75964552Y-54971338D01*
X75990638Y-55001442D01*
X75992389Y-55004281D01*
X76116445Y-55128337D01*
X76225698Y-55195724D01*
X76272422Y-55247672D01*
X76284601Y-55301263D01*
X76284601Y-55636572D01*
X76282876Y-55652189D01*
X76283162Y-55652216D01*
X76282427Y-55659982D01*
X76284601Y-55729131D01*
X76284601Y-55758660D01*
X76284602Y-55758677D01*
X76285469Y-55765548D01*
X76285927Y-55771367D01*
X76287391Y-55817941D01*
X76288206Y-55820748D01*
X76292981Y-55837184D01*
X76296925Y-55856228D01*
X76299437Y-55876109D01*
X76316189Y-55918420D01*
X76316591Y-55919436D01*
X76318483Y-55924964D01*
X76331482Y-55969705D01*
X76341681Y-55986951D01*
X76350239Y-56004420D01*
X76357615Y-56023049D01*
X76384999Y-56060740D01*
X76388207Y-56065624D01*
X76411928Y-56105733D01*
X76411934Y-56105741D01*
X76426091Y-56119897D01*
X76438728Y-56134692D01*
X76450507Y-56150904D01*
X76484786Y-56179262D01*
X76486410Y-56180605D01*
X76490721Y-56184527D01*
X76717170Y-56410976D01*
X76938900Y-56632706D01*
X76948725Y-56644970D01*
X76948946Y-56644788D01*
X76953916Y-56650795D01*
X76953919Y-56650798D01*
X76953920Y-56650799D01*
X77004357Y-56698163D01*
X77025236Y-56719042D01*
X77030710Y-56723288D01*
X77035148Y-56727078D01*
X77069124Y-56758984D01*
X77069128Y-56758986D01*
X77086679Y-56768635D01*
X77102937Y-56779314D01*
X77118770Y-56791596D01*
X77140721Y-56801094D01*
X77161543Y-56810105D01*
X77166787Y-56812674D01*
X77207614Y-56835119D01*
X77227018Y-56840101D01*
X77245416Y-56846400D01*
X77263811Y-56854360D01*
X77263814Y-56854360D01*
X77271303Y-56856536D01*
X77270388Y-56859684D01*
X77319945Y-56883157D01*
X77356897Y-56942456D01*
X77355923Y-57012319D01*
X77341253Y-57043550D01*
X77256267Y-57173631D01*
X77156412Y-57401282D01*
X77095387Y-57642261D01*
X77095385Y-57642269D01*
X77080000Y-57827959D01*
X77080000Y-58440000D01*
X77920671Y-58440000D01*
X77880000Y-58605005D01*
X77880000Y-58774995D01*
X77920671Y-58940000D01*
X77080000Y-58940000D01*
X77080000Y-59552041D01*
X77095385Y-59737730D01*
X77095387Y-59737738D01*
X77156412Y-59978717D01*
X77256267Y-60206367D01*
X77392232Y-60414478D01*
X77560592Y-60597364D01*
X77560597Y-60597368D01*
X77753674Y-60747647D01*
X77794486Y-60804357D01*
X77798161Y-60874130D01*
X77763529Y-60934813D01*
X77701588Y-60967140D01*
X77677511Y-60969500D01*
X74483303Y-60969500D01*
X74416264Y-60949815D01*
X74370509Y-60897011D01*
X74360565Y-60827853D01*
X74389590Y-60764297D01*
X74407134Y-60747652D01*
X74599744Y-60597738D01*
X74768164Y-60414785D01*
X74904173Y-60206607D01*
X75004063Y-59978881D01*
X75065108Y-59737821D01*
X75080500Y-59552067D01*
X75080500Y-57827933D01*
X75076145Y-57775376D01*
X75065109Y-57642186D01*
X75065107Y-57642175D01*
X75004063Y-57401118D01*
X74904173Y-57173393D01*
X74768166Y-56965217D01*
X74718017Y-56910741D01*
X74599744Y-56782262D01*
X74403509Y-56629526D01*
X74403508Y-56629525D01*
X74403505Y-56629523D01*
X74403498Y-56629519D01*
X74267593Y-56555970D01*
X74218002Y-56506751D01*
X74205065Y-56459539D01*
X74203931Y-56459719D01*
X74202710Y-56452015D01*
X74202710Y-56452013D01*
X74197119Y-56432770D01*
X74193173Y-56413718D01*
X74190664Y-56393848D01*
X74173504Y-56350507D01*
X74171624Y-56345019D01*
X74158618Y-56300250D01*
X74148422Y-56283010D01*
X74139861Y-56265534D01*
X74132487Y-56246910D01*
X74132486Y-56246908D01*
X74105079Y-56209185D01*
X74101888Y-56204326D01*
X74078172Y-56164223D01*
X74078165Y-56164214D01*
X74064006Y-56150055D01*
X74051368Y-56135259D01*
X74039594Y-56119053D01*
X74023502Y-56105741D01*
X74003695Y-56089355D01*
X73999373Y-56085422D01*
X73852766Y-55938815D01*
X73842946Y-55926558D01*
X73842726Y-55926741D01*
X73837754Y-55920731D01*
X73811974Y-55896522D01*
X73787329Y-55873378D01*
X73782526Y-55868575D01*
X73766442Y-55852490D01*
X73760952Y-55848231D01*
X73756527Y-55844453D01*
X73722548Y-55812544D01*
X73722546Y-55812542D01*
X73722543Y-55812541D01*
X73704995Y-55802894D01*
X73688729Y-55792210D01*
X73676224Y-55782510D01*
X73672902Y-55779933D01*
X73672901Y-55779932D01*
X73672899Y-55779931D01*
X73630134Y-55761424D01*
X73624888Y-55758854D01*
X73584059Y-55736409D01*
X73584058Y-55736408D01*
X73564659Y-55731428D01*
X73546247Y-55725124D01*
X73527864Y-55717168D01*
X73527858Y-55717166D01*
X73481840Y-55709878D01*
X73476118Y-55708693D01*
X73430987Y-55697106D01*
X73430985Y-55697106D01*
X73410950Y-55697106D01*
X73391552Y-55695579D01*
X73384128Y-55694403D01*
X73371771Y-55692446D01*
X73371770Y-55692446D01*
X73325382Y-55696831D01*
X73319544Y-55697106D01*
X68063059Y-55697106D01*
X67996020Y-55677421D01*
X67975378Y-55660787D01*
X67574640Y-55260048D01*
X67541155Y-55198725D01*
X67546139Y-55129033D01*
X67588011Y-55073100D01*
X67597216Y-55066833D01*
X67676855Y-55017712D01*
X67800911Y-54893656D01*
X67893013Y-54744334D01*
X67948198Y-54577797D01*
X67951832Y-54542229D01*
X69170709Y-54542229D01*
X69170709Y-54578883D01*
X69181027Y-54679881D01*
X69235254Y-54843529D01*
X69235259Y-54843540D01*
X69325760Y-54990263D01*
X69325763Y-54990267D01*
X69447669Y-55112173D01*
X69447673Y-55112176D01*
X69594396Y-55202677D01*
X69594407Y-55202682D01*
X69758055Y-55256909D01*
X69859059Y-55267228D01*
X69958208Y-55267227D01*
X69958208Y-54542229D01*
X69170709Y-54542229D01*
X67951832Y-54542229D01*
X67958699Y-54475009D01*
X67958699Y-54042229D01*
X69170708Y-54042229D01*
X69958208Y-54042229D01*
X69958208Y-53317228D01*
X69859068Y-53317229D01*
X69859052Y-53317230D01*
X69758055Y-53327548D01*
X69594407Y-53381775D01*
X69594396Y-53381780D01*
X69447673Y-53472281D01*
X69447669Y-53472284D01*
X69325763Y-53594190D01*
X69325760Y-53594194D01*
X69235259Y-53740917D01*
X69235254Y-53740928D01*
X69181027Y-53904576D01*
X69170708Y-54005574D01*
X69170708Y-54042229D01*
X67958699Y-54042229D01*
X67958698Y-53474992D01*
X67958421Y-53472284D01*
X67948198Y-53372203D01*
X67948197Y-53372200D01*
X67937527Y-53340000D01*
X67893013Y-53205666D01*
X67887418Y-53196595D01*
X67868979Y-53129203D01*
X67889903Y-53062539D01*
X67943545Y-53017771D01*
X67992958Y-53007500D01*
X73818576Y-53007500D01*
X73885615Y-53027185D01*
G37*
%TD.AperFunction*%
%TA.AperFunction,Conductor*%
G36*
X84811248Y-56894107D02*
G01*
X84857003Y-56946911D01*
X84867567Y-57011024D01*
X84859500Y-57089981D01*
X84859500Y-59254546D01*
X84839815Y-59321585D01*
X84823181Y-59342227D01*
X83232228Y-60933181D01*
X83170905Y-60966666D01*
X83144547Y-60969500D01*
X79482489Y-60969500D01*
X79415450Y-60949815D01*
X79369695Y-60897011D01*
X79359751Y-60827853D01*
X79388776Y-60764297D01*
X79406326Y-60747647D01*
X79599402Y-60597368D01*
X79599407Y-60597364D01*
X79767767Y-60414478D01*
X79903732Y-60206367D01*
X80003587Y-59978717D01*
X80064612Y-59737738D01*
X80064614Y-59737730D01*
X80080000Y-59552041D01*
X80080000Y-58940000D01*
X79239329Y-58940000D01*
X79280000Y-58774995D01*
X79280000Y-58605005D01*
X79239329Y-58440000D01*
X80080000Y-58440000D01*
X80080000Y-57827959D01*
X80064614Y-57642269D01*
X80064612Y-57642261D01*
X80003587Y-57401282D01*
X79903732Y-57173632D01*
X79833572Y-57066243D01*
X79813384Y-56999354D01*
X79832565Y-56932168D01*
X79885024Y-56886018D01*
X79937381Y-56874422D01*
X84744209Y-56874422D01*
X84811248Y-56894107D01*
G37*
%TD.AperFunction*%
%TA.AperFunction,Conductor*%
G36*
X95041140Y-56937757D02*
G01*
X95086895Y-56990561D01*
X95096839Y-57059719D01*
X95077910Y-57109893D01*
X95036267Y-57173631D01*
X94936412Y-57401282D01*
X94875387Y-57642261D01*
X94875385Y-57642269D01*
X94860000Y-57827959D01*
X94860000Y-58440000D01*
X95700671Y-58440000D01*
X95660000Y-58605005D01*
X95660000Y-58774995D01*
X95700671Y-58940000D01*
X94860000Y-58940000D01*
X94860000Y-59552041D01*
X94875385Y-59737730D01*
X94875387Y-59737738D01*
X94936412Y-59978717D01*
X95036267Y-60206367D01*
X95172232Y-60414478D01*
X95340592Y-60597364D01*
X95340597Y-60597368D01*
X95533674Y-60747647D01*
X95574486Y-60804357D01*
X95578161Y-60874130D01*
X95543529Y-60934813D01*
X95481588Y-60967140D01*
X95457511Y-60969500D01*
X92263303Y-60969500D01*
X92196264Y-60949815D01*
X92150509Y-60897011D01*
X92140565Y-60827853D01*
X92169590Y-60764297D01*
X92187134Y-60747652D01*
X92379744Y-60597738D01*
X92548164Y-60414785D01*
X92684173Y-60206607D01*
X92784063Y-59978881D01*
X92845108Y-59737821D01*
X92860500Y-59552067D01*
X92860500Y-57827933D01*
X92856145Y-57775376D01*
X92845109Y-57642186D01*
X92845107Y-57642175D01*
X92784063Y-57401118D01*
X92684173Y-57173393D01*
X92642687Y-57109893D01*
X92622499Y-57043003D01*
X92641680Y-56975818D01*
X92694139Y-56929668D01*
X92746496Y-56918072D01*
X94974101Y-56918072D01*
X95041140Y-56937757D01*
G37*
%TD.AperFunction*%
%TA.AperFunction,Conductor*%
G36*
X102586789Y-56937757D02*
G01*
X102632544Y-56990561D01*
X102643108Y-57054675D01*
X102639500Y-57089983D01*
X102639500Y-59254546D01*
X102619815Y-59321585D01*
X102603181Y-59342227D01*
X101012228Y-60933181D01*
X100950905Y-60966666D01*
X100924547Y-60969500D01*
X97262489Y-60969500D01*
X97195450Y-60949815D01*
X97149695Y-60897011D01*
X97139751Y-60827853D01*
X97168776Y-60764297D01*
X97186326Y-60747647D01*
X97379402Y-60597368D01*
X97379407Y-60597364D01*
X97547767Y-60414478D01*
X97683732Y-60206367D01*
X97783587Y-59978717D01*
X97844612Y-59737738D01*
X97844614Y-59737730D01*
X97860000Y-59552041D01*
X97860000Y-58940000D01*
X97019329Y-58940000D01*
X97060000Y-58774995D01*
X97060000Y-58605005D01*
X97019329Y-58440000D01*
X97860000Y-58440000D01*
X97860000Y-57827959D01*
X97844614Y-57642269D01*
X97844612Y-57642261D01*
X97783587Y-57401282D01*
X97683732Y-57173631D01*
X97642090Y-57109893D01*
X97621902Y-57043003D01*
X97641083Y-56975818D01*
X97693542Y-56929668D01*
X97745899Y-56918072D01*
X102519750Y-56918072D01*
X102586789Y-56937757D01*
G37*
%TD.AperFunction*%
%TA.AperFunction,Conductor*%
G36*
X96618398Y-43425617D02*
G01*
X96664153Y-43478421D01*
X96675359Y-43529932D01*
X96675359Y-44743431D01*
X96950331Y-44743431D01*
X96950345Y-44743430D01*
X97053056Y-44732937D01*
X97219478Y-44677790D01*
X97219483Y-44677788D01*
X97368704Y-44585747D01*
X97492674Y-44461777D01*
X97568161Y-44339394D01*
X97620109Y-44292670D01*
X97689072Y-44281447D01*
X97753154Y-44309291D01*
X97792010Y-44367359D01*
X97797639Y-44400596D01*
X97799500Y-44459814D01*
X97799500Y-44489343D01*
X97799501Y-44489360D01*
X97800368Y-44496231D01*
X97800826Y-44502050D01*
X97802290Y-44548624D01*
X97802291Y-44548627D01*
X97807880Y-44567867D01*
X97811824Y-44586911D01*
X97814336Y-44606791D01*
X97831490Y-44650119D01*
X97833382Y-44655647D01*
X97846381Y-44700388D01*
X97856580Y-44717634D01*
X97865136Y-44735100D01*
X97868435Y-44743430D01*
X97872514Y-44753732D01*
X97899898Y-44791423D01*
X97903106Y-44796307D01*
X97926827Y-44836416D01*
X97926833Y-44836424D01*
X97940990Y-44850580D01*
X97953627Y-44865375D01*
X97965406Y-44881587D01*
X97997613Y-44908231D01*
X98001309Y-44911288D01*
X98005620Y-44915210D01*
X99380758Y-46290349D01*
X99829197Y-46738788D01*
X99839022Y-46751051D01*
X99839243Y-46750869D01*
X99844214Y-46756878D01*
X99869483Y-46780606D01*
X99894635Y-46804226D01*
X99915402Y-46824993D01*
X99948885Y-46886317D01*
X99943899Y-46956009D01*
X99902026Y-47011941D01*
X99866723Y-47030378D01*
X99778697Y-47059547D01*
X99778688Y-47059551D01*
X99631965Y-47150052D01*
X99631961Y-47150055D01*
X99510055Y-47271961D01*
X99510052Y-47271965D01*
X99419551Y-47418688D01*
X99419546Y-47418699D01*
X99365319Y-47582347D01*
X99355000Y-47683345D01*
X99355000Y-47782500D01*
X101304999Y-47782500D01*
X101304999Y-47683360D01*
X101304998Y-47683345D01*
X101294680Y-47582347D01*
X101240453Y-47418699D01*
X101240448Y-47418688D01*
X101149947Y-47271965D01*
X101149944Y-47271961D01*
X101070164Y-47192181D01*
X101036679Y-47130858D01*
X101041663Y-47061166D01*
X101083535Y-47005233D01*
X101148999Y-46980816D01*
X101157845Y-46980500D01*
X102677155Y-46980500D01*
X102744194Y-47000185D01*
X102789949Y-47052989D01*
X102799893Y-47122147D01*
X102770868Y-47185703D01*
X102764836Y-47192181D01*
X102685055Y-47271961D01*
X102685052Y-47271965D01*
X102594551Y-47418688D01*
X102594546Y-47418699D01*
X102540319Y-47582347D01*
X102530000Y-47683345D01*
X102530000Y-47782500D01*
X104479998Y-47782500D01*
X104493772Y-47768726D01*
X104555095Y-47735240D01*
X104624786Y-47740224D01*
X104669133Y-47768723D01*
X104890454Y-47990045D01*
X105072727Y-48172318D01*
X105106212Y-48233641D01*
X105101228Y-48303333D01*
X105072726Y-48347681D01*
X105026204Y-48394202D01*
X105013951Y-48404020D01*
X105014134Y-48404241D01*
X105008123Y-48409213D01*
X104960772Y-48459636D01*
X104939889Y-48480519D01*
X104939877Y-48480532D01*
X104935621Y-48486017D01*
X104931837Y-48490447D01*
X104899937Y-48524418D01*
X104899936Y-48524420D01*
X104890284Y-48541976D01*
X104879610Y-48558226D01*
X104867329Y-48574061D01*
X104867324Y-48574068D01*
X104848815Y-48616838D01*
X104846245Y-48622084D01*
X104823803Y-48662906D01*
X104818822Y-48682307D01*
X104812521Y-48700710D01*
X104804562Y-48719102D01*
X104804561Y-48719105D01*
X104797271Y-48765127D01*
X104796087Y-48770846D01*
X104784501Y-48815972D01*
X104784500Y-48815982D01*
X104784500Y-48836016D01*
X104782973Y-48855413D01*
X104779840Y-48875196D01*
X104782159Y-48899723D01*
X104784225Y-48921583D01*
X104784500Y-48927421D01*
X104784500Y-51940500D01*
X104764815Y-52007539D01*
X104712011Y-52053294D01*
X104642853Y-52063238D01*
X104579297Y-52034213D01*
X104554962Y-52005598D01*
X104547712Y-51993844D01*
X104423657Y-51869789D01*
X104423656Y-51869788D01*
X104274334Y-51777686D01*
X104215493Y-51758188D01*
X104158051Y-51718416D01*
X104131228Y-51653900D01*
X104130500Y-51640483D01*
X104130500Y-50754481D01*
X104150185Y-50687442D01*
X104189404Y-50648942D01*
X104190295Y-50648392D01*
X104203350Y-50640340D01*
X104325340Y-50518350D01*
X104415908Y-50371516D01*
X104470174Y-50207753D01*
X104480500Y-50106677D01*
X104480499Y-49408324D01*
X104472149Y-49326586D01*
X104470174Y-49307247D01*
X104461614Y-49281416D01*
X104415908Y-49143484D01*
X104325340Y-48996650D01*
X104311017Y-48982327D01*
X104277532Y-48921004D01*
X104282516Y-48851312D01*
X104311021Y-48806960D01*
X104324947Y-48793035D01*
X104415448Y-48646311D01*
X104415453Y-48646300D01*
X104469680Y-48482652D01*
X104479999Y-48381654D01*
X104480000Y-48381641D01*
X104480000Y-48282500D01*
X102530001Y-48282500D01*
X102530001Y-48381654D01*
X102540319Y-48482652D01*
X102594546Y-48646300D01*
X102594551Y-48646311D01*
X102685052Y-48793034D01*
X102685055Y-48793038D01*
X102698982Y-48806965D01*
X102732467Y-48868288D01*
X102727483Y-48937980D01*
X102698984Y-48982325D01*
X102684661Y-48996648D01*
X102594093Y-49143481D01*
X102594091Y-49143486D01*
X102573558Y-49205452D01*
X102539826Y-49307247D01*
X102539826Y-49307248D01*
X102539825Y-49307248D01*
X102529500Y-49408315D01*
X102529500Y-50106669D01*
X102529501Y-50106687D01*
X102539825Y-50207752D01*
X102565417Y-50284981D01*
X102589081Y-50356395D01*
X102594092Y-50371515D01*
X102594093Y-50371518D01*
X102597527Y-50377085D01*
X102684660Y-50518350D01*
X102806650Y-50640340D01*
X102811300Y-50643208D01*
X102820596Y-50648942D01*
X102867321Y-50700890D01*
X102879500Y-50754481D01*
X102879500Y-51640483D01*
X102859815Y-51707522D01*
X102807011Y-51753277D01*
X102794510Y-51758186D01*
X102762440Y-51768814D01*
X102735666Y-51777686D01*
X102735663Y-51777687D01*
X102586342Y-51869789D01*
X102462289Y-51993842D01*
X102370187Y-52143163D01*
X102370185Y-52143168D01*
X102357397Y-52181760D01*
X102315001Y-52309703D01*
X102315001Y-52309704D01*
X102315000Y-52309704D01*
X102304500Y-52412483D01*
X102304500Y-53162501D01*
X102304501Y-53162519D01*
X102315000Y-53265296D01*
X102315001Y-53265299D01*
X102370185Y-53431831D01*
X102370187Y-53431836D01*
X102396806Y-53474992D01*
X102462288Y-53581156D01*
X102586344Y-53705212D01*
X102589174Y-53706958D01*
X102590708Y-53708663D01*
X102592011Y-53709693D01*
X102591835Y-53709915D01*
X102635901Y-53758901D01*
X102647127Y-53827863D01*
X102619288Y-53891947D01*
X102589190Y-53918031D01*
X102586351Y-53919782D01*
X102586343Y-53919788D01*
X102462289Y-54043842D01*
X102370187Y-54193163D01*
X102370185Y-54193168D01*
X102364143Y-54211402D01*
X102315001Y-54359703D01*
X102315001Y-54359704D01*
X102315000Y-54359704D01*
X102304500Y-54462483D01*
X102304500Y-55212501D01*
X102304501Y-55212519D01*
X102315000Y-55315296D01*
X102315001Y-55315299D01*
X102370185Y-55481831D01*
X102373240Y-55488382D01*
X102370947Y-55489450D01*
X102386246Y-55545377D01*
X102365318Y-55612039D01*
X102311672Y-55656805D01*
X102262267Y-55667072D01*
X101572733Y-55667072D01*
X101505694Y-55647387D01*
X101459939Y-55594583D01*
X101449995Y-55525425D01*
X101463180Y-55489044D01*
X101461760Y-55488382D01*
X101464808Y-55481843D01*
X101464814Y-55481834D01*
X101519999Y-55315297D01*
X101530500Y-55212509D01*
X101530499Y-54462492D01*
X101529525Y-54452961D01*
X101519999Y-54359703D01*
X101519998Y-54359700D01*
X101514556Y-54343277D01*
X101464814Y-54193166D01*
X101372712Y-54043844D01*
X101248656Y-53919788D01*
X101245819Y-53918038D01*
X101244283Y-53916330D01*
X101242989Y-53915307D01*
X101243163Y-53915085D01*
X101199096Y-53866094D01*
X101187872Y-53797132D01*
X101215713Y-53733049D01*
X101245817Y-53706962D01*
X101248656Y-53705212D01*
X101372712Y-53581156D01*
X101464814Y-53431834D01*
X101519999Y-53265297D01*
X101530500Y-53162509D01*
X101530499Y-52412492D01*
X101527669Y-52384792D01*
X101519999Y-52309703D01*
X101519998Y-52309700D01*
X101509205Y-52277130D01*
X101464814Y-52143166D01*
X101372712Y-51993844D01*
X101248656Y-51869788D01*
X101099334Y-51777686D01*
X101040493Y-51758188D01*
X100983051Y-51718416D01*
X100956228Y-51653900D01*
X100955500Y-51640483D01*
X100955500Y-50754481D01*
X100975185Y-50687442D01*
X101014404Y-50648942D01*
X101015295Y-50648392D01*
X101028350Y-50640340D01*
X101150340Y-50518350D01*
X101240908Y-50371516D01*
X101295174Y-50207753D01*
X101305500Y-50106677D01*
X101305499Y-49408324D01*
X101297149Y-49326586D01*
X101295174Y-49307247D01*
X101286614Y-49281416D01*
X101240908Y-49143484D01*
X101150340Y-48996650D01*
X101136016Y-48982326D01*
X101102532Y-48921004D01*
X101107516Y-48851312D01*
X101136021Y-48806960D01*
X101149947Y-48793035D01*
X101240448Y-48646311D01*
X101240453Y-48646300D01*
X101294680Y-48482652D01*
X101304999Y-48381654D01*
X101305000Y-48381641D01*
X101305000Y-48282500D01*
X99355001Y-48282500D01*
X99355001Y-48381654D01*
X99365319Y-48482652D01*
X99419546Y-48646300D01*
X99419551Y-48646311D01*
X99510052Y-48793034D01*
X99510055Y-48793038D01*
X99523982Y-48806965D01*
X99557467Y-48868288D01*
X99552483Y-48937980D01*
X99523984Y-48982325D01*
X99509661Y-48996648D01*
X99419093Y-49143481D01*
X99419091Y-49143486D01*
X99398558Y-49205452D01*
X99364826Y-49307247D01*
X99364826Y-49307248D01*
X99364825Y-49307248D01*
X99354500Y-49408315D01*
X99354500Y-50106669D01*
X99354501Y-50106687D01*
X99364825Y-50207752D01*
X99390417Y-50284981D01*
X99414081Y-50356395D01*
X99419092Y-50371515D01*
X99419093Y-50371518D01*
X99422527Y-50377085D01*
X99509660Y-50518350D01*
X99631650Y-50640340D01*
X99636300Y-50643208D01*
X99645596Y-50648942D01*
X99692321Y-50700890D01*
X99704500Y-50754481D01*
X99704500Y-51640483D01*
X99684815Y-51707522D01*
X99632011Y-51753277D01*
X99619510Y-51758186D01*
X99587440Y-51768814D01*
X99560666Y-51777686D01*
X99560663Y-51777687D01*
X99411342Y-51869789D01*
X99287289Y-51993842D01*
X99195187Y-52143163D01*
X99195185Y-52143168D01*
X99182397Y-52181760D01*
X99140001Y-52309703D01*
X99140001Y-52309704D01*
X99140000Y-52309704D01*
X99129500Y-52412483D01*
X99129500Y-53130407D01*
X99109815Y-53197446D01*
X99057011Y-53243201D01*
X98987853Y-53253145D01*
X98932615Y-53230725D01*
X98886810Y-53197446D01*
X98877729Y-53190848D01*
X98704807Y-53113857D01*
X98704802Y-53113855D01*
X98551134Y-53081193D01*
X98519646Y-53074500D01*
X98330354Y-53074500D01*
X98304530Y-53079989D01*
X98145197Y-53113855D01*
X98145192Y-53113857D01*
X97972270Y-53190848D01*
X97972265Y-53190851D01*
X97819129Y-53302111D01*
X97692466Y-53442785D01*
X97597821Y-53606715D01*
X97597818Y-53606722D01*
X97547324Y-53762128D01*
X97539326Y-53786744D01*
X97519540Y-53975000D01*
X97539326Y-54163256D01*
X97539327Y-54163259D01*
X97597818Y-54343277D01*
X97597821Y-54343284D01*
X97692467Y-54507216D01*
X97794185Y-54620185D01*
X97819129Y-54647888D01*
X97972265Y-54759148D01*
X97972270Y-54759151D01*
X98145192Y-54836142D01*
X98145197Y-54836144D01*
X98330354Y-54875500D01*
X98389547Y-54875500D01*
X98456586Y-54895185D01*
X98477228Y-54911819D01*
X98786697Y-55221288D01*
X98796522Y-55233551D01*
X98796743Y-55233369D01*
X98801714Y-55239378D01*
X98823179Y-55259534D01*
X98852135Y-55286726D01*
X98873029Y-55307620D01*
X98878511Y-55311873D01*
X98882943Y-55315657D01*
X98916918Y-55347562D01*
X98934476Y-55357214D01*
X98950735Y-55367895D01*
X98966564Y-55380173D01*
X99009338Y-55398682D01*
X99014556Y-55401238D01*
X99055408Y-55423697D01*
X99055415Y-55423698D01*
X99062661Y-55426568D01*
X99061889Y-55428516D01*
X99112604Y-55458704D01*
X99143792Y-55521227D01*
X99136225Y-55590686D01*
X99092308Y-55645027D01*
X99025983Y-55666999D01*
X99021731Y-55667072D01*
X96030459Y-55667072D01*
X95963420Y-55647387D01*
X95917665Y-55594583D01*
X95907721Y-55525425D01*
X95908912Y-55519141D01*
X95909089Y-55517485D01*
X95909091Y-55517483D01*
X95915500Y-55457873D01*
X95915499Y-53762128D01*
X95909381Y-53705212D01*
X95909091Y-53702516D01*
X95858797Y-53567671D01*
X95858793Y-53567664D01*
X95772547Y-53452455D01*
X95772544Y-53452452D01*
X95657335Y-53366206D01*
X95657328Y-53366202D01*
X95522482Y-53315908D01*
X95522483Y-53315908D01*
X95462883Y-53309501D01*
X95462881Y-53309500D01*
X95462873Y-53309500D01*
X95462865Y-53309500D01*
X95364499Y-53309500D01*
X95297460Y-53289815D01*
X95251705Y-53237011D01*
X95240499Y-53185500D01*
X95240499Y-52090881D01*
X95240499Y-50882733D01*
X95242225Y-50867123D01*
X95241939Y-50867096D01*
X95242671Y-50859340D01*
X95242673Y-50859333D01*
X95240500Y-50790185D01*
X95240500Y-50760650D01*
X95239780Y-50754955D01*
X95239631Y-50753772D01*
X95239172Y-50747943D01*
X95237709Y-50701372D01*
X95232122Y-50682144D01*
X95228174Y-50663084D01*
X95227120Y-50654739D01*
X95225664Y-50643208D01*
X95225663Y-50643206D01*
X95225663Y-50643204D01*
X95208512Y-50599887D01*
X95206619Y-50594358D01*
X95193618Y-50549609D01*
X95193616Y-50549606D01*
X95183423Y-50532371D01*
X95174861Y-50514894D01*
X95167487Y-50496270D01*
X95167486Y-50496268D01*
X95140079Y-50458545D01*
X95136888Y-50453686D01*
X95113172Y-50413583D01*
X95113165Y-50413574D01*
X95099006Y-50399415D01*
X95086368Y-50384619D01*
X95074594Y-50368413D01*
X95062502Y-50358410D01*
X95038688Y-50338709D01*
X95034376Y-50334786D01*
X93371819Y-48672228D01*
X93338334Y-48610905D01*
X93335500Y-48584547D01*
X93335500Y-47823315D01*
X93355185Y-47756276D01*
X93407989Y-47710521D01*
X93477147Y-47700577D01*
X93540703Y-47729602D01*
X93561072Y-47752189D01*
X93608007Y-47819219D01*
X93614955Y-47829142D01*
X93775858Y-47990045D01*
X93775861Y-47990047D01*
X93962266Y-48120568D01*
X94168504Y-48216739D01*
X94388308Y-48275635D01*
X94550230Y-48289801D01*
X94614998Y-48295468D01*
X94615000Y-48295468D01*
X94615002Y-48295468D01*
X94671673Y-48290509D01*
X94841692Y-48275635D01*
X95061496Y-48216739D01*
X95267734Y-48120568D01*
X95454139Y-47990047D01*
X95615047Y-47829139D01*
X95721954Y-47676457D01*
X95776530Y-47632833D01*
X95846029Y-47625639D01*
X95908383Y-47657161D01*
X95912977Y-47661851D01*
X95914130Y-47662889D01*
X96067265Y-47774148D01*
X96067270Y-47774151D01*
X96240192Y-47851142D01*
X96240197Y-47851144D01*
X96425354Y-47890500D01*
X96425355Y-47890500D01*
X96614644Y-47890500D01*
X96614646Y-47890500D01*
X96799803Y-47851144D01*
X96972730Y-47774151D01*
X97125871Y-47662888D01*
X97252533Y-47522216D01*
X97347179Y-47358284D01*
X97405674Y-47178256D01*
X97425460Y-46990000D01*
X97405674Y-46801744D01*
X97347179Y-46621716D01*
X97252533Y-46457784D01*
X97125871Y-46317112D01*
X97125870Y-46317111D01*
X96972734Y-46205851D01*
X96972729Y-46205848D01*
X96799807Y-46128857D01*
X96799802Y-46128855D01*
X96654000Y-46097865D01*
X96614646Y-46089500D01*
X96425354Y-46089500D01*
X96392897Y-46096398D01*
X96240197Y-46128855D01*
X96240192Y-46128857D01*
X96067270Y-46205848D01*
X96067265Y-46205851D01*
X95914130Y-46317110D01*
X95909299Y-46321461D01*
X95908060Y-46320085D01*
X95856183Y-46352041D01*
X95786326Y-46350706D01*
X95728281Y-46311814D01*
X95721954Y-46303541D01*
X95615045Y-46150858D01*
X95454141Y-45989954D01*
X95267734Y-45859432D01*
X95267732Y-45859431D01*
X95061497Y-45763261D01*
X95061488Y-45763258D01*
X94841697Y-45704366D01*
X94841693Y-45704365D01*
X94841692Y-45704365D01*
X94841691Y-45704364D01*
X94841686Y-45704364D01*
X94615002Y-45684532D01*
X94614998Y-45684532D01*
X94388313Y-45704364D01*
X94388302Y-45704366D01*
X94168511Y-45763258D01*
X94168502Y-45763261D01*
X93962267Y-45859431D01*
X93962265Y-45859432D01*
X93775858Y-45989954D01*
X93614954Y-46150858D01*
X93561075Y-46227807D01*
X93506499Y-46271432D01*
X93437000Y-46278626D01*
X93374645Y-46247103D01*
X93339231Y-46186874D01*
X93335500Y-46156684D01*
X93335500Y-45802742D01*
X93337224Y-45787122D01*
X93336939Y-45787095D01*
X93337673Y-45779333D01*
X93337109Y-45761395D01*
X93335500Y-45710171D01*
X93335500Y-45680650D01*
X93334631Y-45673779D01*
X93334173Y-45667952D01*
X93333829Y-45657011D01*
X93332710Y-45621373D01*
X93327119Y-45602130D01*
X93323173Y-45583078D01*
X93320664Y-45563208D01*
X93303504Y-45519867D01*
X93301624Y-45514379D01*
X93288618Y-45469610D01*
X93288279Y-45469036D01*
X93278419Y-45452364D01*
X93269858Y-45434888D01*
X93262487Y-45416270D01*
X93254979Y-45405936D01*
X93235090Y-45378560D01*
X93231892Y-45373691D01*
X93224089Y-45360497D01*
X93210819Y-45338057D01*
X93193638Y-45270333D01*
X93215798Y-45204070D01*
X93244661Y-45174624D01*
X93315871Y-45122888D01*
X93442533Y-44982216D01*
X93537179Y-44818284D01*
X93539954Y-44809744D01*
X93544569Y-44795541D01*
X93584006Y-44737865D01*
X93648364Y-44710666D01*
X93717210Y-44722580D01*
X93768687Y-44769824D01*
X93780431Y-44795541D01*
X93787817Y-44818275D01*
X93787821Y-44818284D01*
X93882467Y-44982216D01*
X93959390Y-45067647D01*
X94009129Y-45122888D01*
X94162265Y-45234148D01*
X94162270Y-45234151D01*
X94335192Y-45311142D01*
X94335197Y-45311144D01*
X94520354Y-45350500D01*
X94520355Y-45350500D01*
X94709644Y-45350500D01*
X94709646Y-45350500D01*
X94894803Y-45311144D01*
X95067730Y-45234151D01*
X95220871Y-45122888D01*
X95347533Y-44982216D01*
X95442179Y-44818284D01*
X95463386Y-44753013D01*
X95502824Y-44695337D01*
X95567182Y-44668138D01*
X95623779Y-44677336D01*
X95624382Y-44675518D01*
X95797661Y-44732937D01*
X95797668Y-44732938D01*
X95900378Y-44743431D01*
X96175358Y-44743431D01*
X96175359Y-44743430D01*
X96175359Y-43529932D01*
X96195044Y-43462893D01*
X96247848Y-43417138D01*
X96299359Y-43405932D01*
X96551359Y-43405932D01*
X96618398Y-43425617D01*
G37*
%TD.AperFunction*%
%TA.AperFunction,Conductor*%
G36*
X84482000Y-52163600D02*
G01*
X84500160Y-52181760D01*
X84533645Y-52243083D01*
X84528661Y-52312775D01*
X84519870Y-52331435D01*
X84516821Y-52336716D01*
X84516818Y-52336722D01*
X84460393Y-52510383D01*
X84458326Y-52516744D01*
X84439338Y-52697409D01*
X84438540Y-52705002D01*
X84438540Y-52705004D01*
X84439150Y-52710811D01*
X84426578Y-52779540D01*
X84378844Y-52830562D01*
X84315837Y-52847767D01*
X84303544Y-52847767D01*
X84303522Y-52847768D01*
X84200745Y-52858267D01*
X84200742Y-52858268D01*
X84034210Y-52913452D01*
X84034205Y-52913454D01*
X83884884Y-53005556D01*
X83760831Y-53129609D01*
X83668729Y-53278930D01*
X83668728Y-53278933D01*
X83652783Y-53327054D01*
X83649231Y-53337772D01*
X83609458Y-53395216D01*
X83544942Y-53422039D01*
X83531525Y-53422767D01*
X82819996Y-53422767D01*
X82754900Y-53404306D01*
X82694474Y-53367035D01*
X82694469Y-53367033D01*
X82694468Y-53367032D01*
X82530705Y-53312766D01*
X82530703Y-53312765D01*
X82429630Y-53302440D01*
X81731282Y-53302440D01*
X81731264Y-53302441D01*
X81630199Y-53312765D01*
X81466436Y-53367032D01*
X81466433Y-53367033D01*
X81319600Y-53457601D01*
X81305277Y-53471924D01*
X81243953Y-53505408D01*
X81174261Y-53500422D01*
X81129917Y-53471922D01*
X81115990Y-53457995D01*
X81115986Y-53457992D01*
X80969263Y-53367491D01*
X80969252Y-53367486D01*
X80805604Y-53313259D01*
X80704606Y-53302940D01*
X80605452Y-53302940D01*
X80605452Y-55252939D01*
X80704592Y-55252939D01*
X80704606Y-55252938D01*
X80805604Y-55242620D01*
X80969252Y-55188393D01*
X80969263Y-55188388D01*
X81115987Y-55097887D01*
X81129912Y-55083961D01*
X81191234Y-55050473D01*
X81260925Y-55055454D01*
X81305279Y-55083956D01*
X81319602Y-55098280D01*
X81466436Y-55188848D01*
X81630199Y-55243114D01*
X81731275Y-55253440D01*
X82429628Y-55253439D01*
X82429636Y-55253438D01*
X82429639Y-55253438D01*
X82486084Y-55247672D01*
X82530705Y-55243114D01*
X82694468Y-55188848D01*
X82841302Y-55098280D01*
X82963292Y-54976290D01*
X83053860Y-54829456D01*
X83077286Y-54758761D01*
X83117059Y-54701317D01*
X83181576Y-54674495D01*
X83194992Y-54673767D01*
X83531525Y-54673767D01*
X83598564Y-54693452D01*
X83644319Y-54746256D01*
X83649228Y-54758756D01*
X83668148Y-54815850D01*
X83668728Y-54817600D01*
X83668729Y-54817603D01*
X83700398Y-54868946D01*
X83760830Y-54966923D01*
X83884886Y-55090979D01*
X84034208Y-55183081D01*
X84200745Y-55238266D01*
X84303533Y-55248767D01*
X85053550Y-55248766D01*
X85053558Y-55248765D01*
X85053561Y-55248765D01*
X85113716Y-55242620D01*
X85156339Y-55238266D01*
X85322876Y-55183081D01*
X85472198Y-55090979D01*
X85596254Y-54966923D01*
X85598003Y-54964086D01*
X85599711Y-54962550D01*
X85600735Y-54961256D01*
X85600956Y-54961430D01*
X85649948Y-54917363D01*
X85718910Y-54906139D01*
X85782993Y-54933980D01*
X85809079Y-54964084D01*
X85810830Y-54966923D01*
X85934886Y-55090979D01*
X86043369Y-55157892D01*
X86090094Y-55209839D01*
X86102212Y-55259534D01*
X86103042Y-55285944D01*
X86103042Y-55315474D01*
X86103043Y-55315491D01*
X86103910Y-55322362D01*
X86104368Y-55328181D01*
X86105832Y-55374755D01*
X86105833Y-55374758D01*
X86111422Y-55393998D01*
X86115366Y-55413042D01*
X86116437Y-55421523D01*
X86117877Y-55432921D01*
X86117878Y-55432923D01*
X86124909Y-55450683D01*
X86126135Y-55453778D01*
X86132509Y-55523356D01*
X86100255Y-55585336D01*
X86039612Y-55620038D01*
X86010841Y-55623422D01*
X77750159Y-55623422D01*
X77683120Y-55603737D01*
X77662477Y-55587103D01*
X77571919Y-55496544D01*
X77538435Y-55435220D01*
X77535601Y-55408863D01*
X77535601Y-55301263D01*
X77555286Y-55234224D01*
X77594502Y-55195725D01*
X77703757Y-55128337D01*
X77827813Y-55004281D01*
X77919915Y-54854959D01*
X77975100Y-54688422D01*
X77985601Y-54585634D01*
X77985601Y-54527940D01*
X79317953Y-54527940D01*
X79317953Y-54564594D01*
X79328271Y-54665592D01*
X79382498Y-54829240D01*
X79382503Y-54829251D01*
X79473004Y-54975974D01*
X79473007Y-54975978D01*
X79594913Y-55097884D01*
X79594917Y-55097887D01*
X79741640Y-55188388D01*
X79741651Y-55188393D01*
X79905299Y-55242620D01*
X80006303Y-55252939D01*
X80105452Y-55252938D01*
X80105452Y-54527940D01*
X79317953Y-54527940D01*
X77985601Y-54527940D01*
X77985600Y-54027940D01*
X79317952Y-54027940D01*
X80105452Y-54027940D01*
X80105452Y-53302939D01*
X80006312Y-53302940D01*
X80006296Y-53302941D01*
X79905299Y-53313259D01*
X79741651Y-53367486D01*
X79741640Y-53367491D01*
X79594917Y-53457992D01*
X79594913Y-53457995D01*
X79473007Y-53579901D01*
X79473004Y-53579905D01*
X79382503Y-53726628D01*
X79382498Y-53726639D01*
X79328271Y-53890287D01*
X79317952Y-53991285D01*
X79317952Y-54027940D01*
X77985600Y-54027940D01*
X77985600Y-53585617D01*
X77985144Y-53581157D01*
X77975100Y-53482828D01*
X77975099Y-53482825D01*
X77966870Y-53457992D01*
X77919915Y-53316291D01*
X77827813Y-53166969D01*
X77703757Y-53042913D01*
X77588326Y-52971715D01*
X77554437Y-52950812D01*
X77554432Y-52950810D01*
X77542705Y-52946924D01*
X77387898Y-52895626D01*
X77387896Y-52895625D01*
X77285117Y-52885125D01*
X77285110Y-52885125D01*
X76645554Y-52885125D01*
X76578515Y-52865440D01*
X76557873Y-52848806D01*
X75984921Y-52275854D01*
X75951436Y-52214531D01*
X75956420Y-52144839D01*
X75998292Y-52088906D01*
X76063756Y-52064489D01*
X76112865Y-52070892D01*
X76275982Y-52126890D01*
X76275984Y-52126890D01*
X76275986Y-52126891D01*
X76498967Y-52164100D01*
X76498968Y-52164100D01*
X76725032Y-52164100D01*
X76725033Y-52164100D01*
X76948014Y-52126891D01*
X77161831Y-52053488D01*
X77360649Y-51945893D01*
X77539046Y-51807040D01*
X77692156Y-51640719D01*
X77778193Y-51509028D01*
X77831338Y-51463675D01*
X77900569Y-51454251D01*
X77963905Y-51483753D01*
X77985804Y-51509025D01*
X78071844Y-51640719D01*
X78071849Y-51640724D01*
X78071850Y-51640727D01*
X78224950Y-51807036D01*
X78224954Y-51807040D01*
X78403351Y-51945893D01*
X78552462Y-52026588D01*
X78601810Y-52053294D01*
X78602169Y-52053488D01*
X78602172Y-52053489D01*
X78815982Y-52126890D01*
X78815984Y-52126890D01*
X78815986Y-52126891D01*
X79038967Y-52164100D01*
X79038968Y-52164100D01*
X79265032Y-52164100D01*
X79265033Y-52164100D01*
X79488014Y-52126891D01*
X79701831Y-52053488D01*
X79900649Y-51945893D01*
X80079046Y-51807040D01*
X80232156Y-51640719D01*
X80318193Y-51509028D01*
X80371338Y-51463675D01*
X80440569Y-51454251D01*
X80503905Y-51483753D01*
X80525804Y-51509025D01*
X80611844Y-51640719D01*
X80611849Y-51640724D01*
X80611850Y-51640727D01*
X80764950Y-51807036D01*
X80764954Y-51807040D01*
X80943351Y-51945893D01*
X81092462Y-52026588D01*
X81141810Y-52053294D01*
X81142169Y-52053488D01*
X81142172Y-52053489D01*
X81355982Y-52126890D01*
X81355984Y-52126890D01*
X81355986Y-52126891D01*
X81578967Y-52164100D01*
X81578968Y-52164100D01*
X81805032Y-52164100D01*
X81805033Y-52164100D01*
X82028014Y-52126891D01*
X82241831Y-52053488D01*
X82440649Y-51945893D01*
X82619046Y-51807040D01*
X82673815Y-51747545D01*
X82733699Y-51711557D01*
X82803537Y-51713657D01*
X82861153Y-51753180D01*
X82881224Y-51788196D01*
X82925046Y-51905688D01*
X82925049Y-51905693D01*
X83011209Y-52020787D01*
X83011212Y-52020790D01*
X83126306Y-52106950D01*
X83126313Y-52106954D01*
X83261020Y-52157196D01*
X83261027Y-52157198D01*
X83320555Y-52163599D01*
X83320572Y-52163600D01*
X83982000Y-52163600D01*
X83982000Y-51244297D01*
X84087408Y-51292435D01*
X84195666Y-51308000D01*
X84268334Y-51308000D01*
X84376592Y-51292435D01*
X84482000Y-51244297D01*
X84482000Y-52163600D01*
G37*
%TD.AperFunction*%
%TA.AperFunction,Conductor*%
G36*
X114818088Y-48905185D02*
G01*
X114863843Y-48957989D01*
X114875049Y-49009500D01*
X114875049Y-49157876D01*
X114881456Y-49217483D01*
X114931750Y-49352328D01*
X114931754Y-49352335D01*
X115018000Y-49467544D01*
X115018003Y-49467547D01*
X115133212Y-49553793D01*
X115133219Y-49553797D01*
X115133222Y-49553798D01*
X115265146Y-49603002D01*
X115321079Y-49644873D01*
X115345497Y-49710337D01*
X115330646Y-49778610D01*
X115309495Y-49806865D01*
X115187434Y-49928926D01*
X115051948Y-50122420D01*
X115051947Y-50122422D01*
X114952118Y-50336507D01*
X114952115Y-50336513D01*
X114894912Y-50549999D01*
X114894912Y-50550000D01*
X115791862Y-50550000D01*
X115766055Y-50590156D01*
X115725548Y-50728111D01*
X115725548Y-50871889D01*
X115766055Y-51009844D01*
X115791862Y-51050000D01*
X114894912Y-51050000D01*
X114952115Y-51263486D01*
X114952118Y-51263492D01*
X115051947Y-51477578D01*
X115187442Y-51671082D01*
X115354465Y-51838105D01*
X115540143Y-51968119D01*
X115583767Y-52022696D01*
X115590960Y-52092195D01*
X115559438Y-52154549D01*
X115540143Y-52171269D01*
X115354142Y-52301508D01*
X115187053Y-52468597D01*
X115051896Y-52661623D01*
X114997319Y-52705248D01*
X114950321Y-52714500D01*
X108895452Y-52714500D01*
X108828413Y-52694815D01*
X108807771Y-52678181D01*
X107618960Y-51489369D01*
X107585475Y-51428046D01*
X107583323Y-51414668D01*
X107565674Y-51246744D01*
X107507179Y-51066716D01*
X107412533Y-50902784D01*
X107285871Y-50762112D01*
X107285870Y-50762111D01*
X107132734Y-50650851D01*
X107132729Y-50650848D01*
X106959807Y-50573857D01*
X106959802Y-50573855D01*
X106814000Y-50542865D01*
X106774646Y-50534500D01*
X106585354Y-50534500D01*
X106552897Y-50541398D01*
X106400197Y-50573855D01*
X106400192Y-50573857D01*
X106227270Y-50650848D01*
X106221637Y-50654101D01*
X106220145Y-50651517D01*
X106166483Y-50670617D01*
X106098441Y-50654739D01*
X106049785Y-50604595D01*
X106035500Y-50546814D01*
X106035500Y-49877301D01*
X106035500Y-49205448D01*
X106055184Y-49138413D01*
X106071813Y-49117776D01*
X106267770Y-48921819D01*
X106329094Y-48888334D01*
X106355452Y-48885500D01*
X114751049Y-48885500D01*
X114818088Y-48905185D01*
G37*
%TD.AperFunction*%
%TA.AperFunction,Conductor*%
G36*
X91320248Y-38585974D02*
G01*
X91366003Y-38638778D01*
X91376498Y-38677032D01*
X91380920Y-38718162D01*
X91380922Y-38718168D01*
X91431164Y-38852875D01*
X91431168Y-38852882D01*
X91517328Y-38967976D01*
X91517331Y-38967979D01*
X91632425Y-39054139D01*
X91632432Y-39054143D01*
X91767139Y-39104385D01*
X91767146Y-39104387D01*
X91826674Y-39110788D01*
X91826691Y-39110789D01*
X92054519Y-39110789D01*
X92066444Y-39098863D01*
X92074204Y-39072437D01*
X92127008Y-39026682D01*
X92196166Y-39016738D01*
X92259722Y-39045763D01*
X92293811Y-39093829D01*
X92300526Y-39110789D01*
X92306009Y-39124639D01*
X92307901Y-39130166D01*
X92320900Y-39174907D01*
X92331099Y-39192153D01*
X92339657Y-39209622D01*
X92347033Y-39228251D01*
X92374417Y-39265942D01*
X92377625Y-39270826D01*
X92401346Y-39310935D01*
X92401352Y-39310943D01*
X92415509Y-39325099D01*
X92428146Y-39339894D01*
X92439925Y-39356106D01*
X92475175Y-39385268D01*
X92475827Y-39385807D01*
X92480138Y-39389728D01*
X92609558Y-39519148D01*
X92731122Y-39640712D01*
X92740945Y-39652973D01*
X92741167Y-39652791D01*
X92746140Y-39658803D01*
X92796565Y-39706156D01*
X92817451Y-39727043D01*
X92817455Y-39727046D01*
X92817457Y-39727048D01*
X92822939Y-39731301D01*
X92827371Y-39735085D01*
X92861346Y-39766990D01*
X92878904Y-39776642D01*
X92895163Y-39787323D01*
X92910992Y-39799601D01*
X92953766Y-39818110D01*
X92958984Y-39820666D01*
X92999836Y-39843125D01*
X93019244Y-39848108D01*
X93037645Y-39854408D01*
X93056032Y-39862365D01*
X93099416Y-39869236D01*
X93102047Y-39869653D01*
X93107767Y-39870837D01*
X93152909Y-39882428D01*
X93172944Y-39882428D01*
X93192342Y-39883954D01*
X93212122Y-39887087D01*
X93212123Y-39887088D01*
X93212123Y-39887087D01*
X93212124Y-39887088D01*
X93258511Y-39882703D01*
X93264350Y-39882428D01*
X93806870Y-39882428D01*
X93873909Y-39902113D01*
X93919664Y-39954917D01*
X93929608Y-40024075D01*
X93900583Y-40087631D01*
X93899020Y-40089400D01*
X93882466Y-40107785D01*
X93787821Y-40271715D01*
X93787818Y-40271722D01*
X93729572Y-40450986D01*
X93729326Y-40451744D01*
X93715809Y-40580351D01*
X93711679Y-40619649D01*
X93685094Y-40684263D01*
X93676039Y-40694368D01*
X93303213Y-41067194D01*
X93290956Y-41077015D01*
X93291139Y-41077236D01*
X93285128Y-41082208D01*
X93237777Y-41132631D01*
X93216894Y-41153514D01*
X93216882Y-41153527D01*
X93212626Y-41159012D01*
X93208842Y-41163442D01*
X93176942Y-41197413D01*
X93176941Y-41197415D01*
X93167289Y-41214971D01*
X93156615Y-41231221D01*
X93144334Y-41247056D01*
X93144329Y-41247063D01*
X93125820Y-41289833D01*
X93123250Y-41295079D01*
X93100808Y-41335901D01*
X93095827Y-41355302D01*
X93089526Y-41373705D01*
X93081567Y-41392097D01*
X93081566Y-41392100D01*
X93074276Y-41438122D01*
X93073092Y-41443841D01*
X93061506Y-41488967D01*
X93061505Y-41488977D01*
X93061505Y-41509011D01*
X93059978Y-41528410D01*
X93056845Y-41548189D01*
X93056845Y-41548190D01*
X93060763Y-41589641D01*
X93047474Y-41658236D01*
X93011559Y-41700626D01*
X93011250Y-41700857D01*
X92945769Y-41725231D01*
X92877506Y-41710334D01*
X92862698Y-41700811D01*
X92779336Y-41638406D01*
X92779333Y-41638404D01*
X92644487Y-41588110D01*
X92644488Y-41588110D01*
X92584888Y-41581703D01*
X92584886Y-41581702D01*
X92584878Y-41581702D01*
X92584869Y-41581702D01*
X91789134Y-41581702D01*
X91789128Y-41581703D01*
X91729521Y-41588110D01*
X91647015Y-41618884D01*
X91603682Y-41626702D01*
X91330654Y-41626702D01*
X91263615Y-41607017D01*
X91242973Y-41590383D01*
X90619572Y-40966981D01*
X90586087Y-40905658D01*
X90583253Y-40879300D01*
X90583253Y-39875495D01*
X90584977Y-39859875D01*
X90584692Y-39859849D01*
X90585424Y-39852093D01*
X90585426Y-39852086D01*
X90583253Y-39782938D01*
X90583253Y-39753403D01*
X90582384Y-39746525D01*
X90581925Y-39740696D01*
X90581887Y-39739500D01*
X90580462Y-39694126D01*
X90574875Y-39674897D01*
X90570927Y-39655837D01*
X90568417Y-39635961D01*
X90568416Y-39635959D01*
X90568416Y-39635957D01*
X90551265Y-39592640D01*
X90549372Y-39587111D01*
X90536371Y-39542362D01*
X90536369Y-39542359D01*
X90526176Y-39525124D01*
X90517614Y-39507647D01*
X90510241Y-39489025D01*
X90510240Y-39489023D01*
X90510239Y-39489021D01*
X90495784Y-39469125D01*
X90472306Y-39403321D01*
X90488132Y-39335267D01*
X90538238Y-39286573D01*
X90545639Y-39282977D01*
X90622730Y-39248654D01*
X90775871Y-39137391D01*
X90902533Y-38996719D01*
X90997179Y-38832787D01*
X91055674Y-38652759D01*
X91055674Y-38652758D01*
X91055930Y-38651971D01*
X91095367Y-38594295D01*
X91159726Y-38567097D01*
X91173861Y-38566289D01*
X91253209Y-38566289D01*
X91320248Y-38585974D01*
G37*
%TD.AperFunction*%
%TA.AperFunction,Conductor*%
G36*
X93819876Y-34300185D02*
G01*
X93865631Y-34352989D01*
X93875575Y-34422147D01*
X93846550Y-34485703D01*
X93825722Y-34504817D01*
X93825609Y-34504900D01*
X93793648Y-34528120D01*
X93666985Y-34668794D01*
X93572340Y-34832724D01*
X93572337Y-34832731D01*
X93521865Y-34988069D01*
X93482427Y-35045745D01*
X93429717Y-35071041D01*
X93395214Y-35078375D01*
X93395211Y-35078376D01*
X93222289Y-35155367D01*
X93222284Y-35155370D01*
X93069148Y-35266630D01*
X92942485Y-35407304D01*
X92847840Y-35571234D01*
X92847837Y-35571241D01*
X92795206Y-35733225D01*
X92789345Y-35751263D01*
X92769559Y-35939519D01*
X92789345Y-36127775D01*
X92789346Y-36127778D01*
X92847837Y-36307796D01*
X92847840Y-36307803D01*
X92942486Y-36471735D01*
X93040897Y-36581031D01*
X93067169Y-36610209D01*
X93097399Y-36673200D01*
X93099019Y-36693181D01*
X93099019Y-36789753D01*
X93079334Y-36856792D01*
X93049324Y-36889024D01*
X93048823Y-36889399D01*
X92983357Y-36913813D01*
X92915085Y-36898957D01*
X92900212Y-36889398D01*
X92816850Y-36826993D01*
X92816847Y-36826991D01*
X92682001Y-36776697D01*
X92682002Y-36776697D01*
X92622402Y-36770290D01*
X92622400Y-36770289D01*
X92622392Y-36770289D01*
X92622383Y-36770289D01*
X91826648Y-36770289D01*
X91826642Y-36770290D01*
X91767035Y-36776697D01*
X91684529Y-36807471D01*
X91641196Y-36815289D01*
X90848062Y-36815289D01*
X90781023Y-36795604D01*
X90775177Y-36791607D01*
X90622734Y-36680851D01*
X90622729Y-36680848D01*
X90449807Y-36603857D01*
X90449802Y-36603855D01*
X90276619Y-36567045D01*
X90264646Y-36564500D01*
X90233925Y-36564500D01*
X90166886Y-36544815D01*
X90121131Y-36492011D01*
X90111187Y-36422853D01*
X90140212Y-36359297D01*
X90142265Y-36356986D01*
X90234052Y-36256302D01*
X90346298Y-36075019D01*
X90423321Y-35876198D01*
X90462500Y-35666610D01*
X90462500Y-35453390D01*
X90423321Y-35243802D01*
X90346298Y-35044981D01*
X90234052Y-34863698D01*
X90090407Y-34706128D01*
X90090406Y-34706127D01*
X89920253Y-34577632D01*
X89795473Y-34515500D01*
X89744236Y-34467998D01*
X89726814Y-34400335D01*
X89748739Y-34333994D01*
X89803050Y-34290039D01*
X89850744Y-34280500D01*
X93752837Y-34280500D01*
X93819876Y-34300185D01*
G37*
%TD.AperFunction*%
%TA.AperFunction,Conductor*%
G36*
X118180039Y-27325185D02*
G01*
X118225794Y-27377989D01*
X118237000Y-27429500D01*
X118237000Y-38594870D01*
X118236933Y-38597742D01*
X118235702Y-38624295D01*
X118236604Y-38629395D01*
X118237000Y-38710089D01*
X118237000Y-62740500D01*
X118217315Y-62807539D01*
X118164511Y-62853294D01*
X118113000Y-62864500D01*
X46479000Y-62864500D01*
X46411961Y-62844815D01*
X46366206Y-62792011D01*
X46355000Y-62740500D01*
X46355000Y-54367500D01*
X49069375Y-54367500D01*
X49069375Y-54404154D01*
X49079693Y-54505152D01*
X49133920Y-54668800D01*
X49133925Y-54668811D01*
X49224426Y-54815534D01*
X49224429Y-54815538D01*
X49346335Y-54937444D01*
X49346339Y-54937447D01*
X49493062Y-55027948D01*
X49493073Y-55027953D01*
X49656721Y-55082180D01*
X49757725Y-55092499D01*
X49856874Y-55092498D01*
X49856874Y-54367500D01*
X49069375Y-54367500D01*
X46355000Y-54367500D01*
X46355000Y-53867500D01*
X49069374Y-53867500D01*
X49856874Y-53867500D01*
X49856874Y-53142499D01*
X49757734Y-53142500D01*
X49757718Y-53142501D01*
X49656721Y-53152819D01*
X49493073Y-53207046D01*
X49493062Y-53207051D01*
X49346339Y-53297552D01*
X49346335Y-53297555D01*
X49224429Y-53419461D01*
X49224426Y-53419465D01*
X49133925Y-53566188D01*
X49133920Y-53566199D01*
X49079693Y-53729847D01*
X49069374Y-53830845D01*
X49069374Y-53867500D01*
X46355000Y-53867500D01*
X46355000Y-50906610D01*
X47521500Y-50906610D01*
X47560679Y-51116198D01*
X47560680Y-51116200D01*
X47631883Y-51300000D01*
X47637702Y-51315019D01*
X47749948Y-51496302D01*
X47881387Y-51640483D01*
X47893593Y-51653872D01*
X48063746Y-51782367D01*
X48254606Y-51877403D01*
X48254608Y-51877403D01*
X48254611Y-51877405D01*
X48459690Y-51935756D01*
X48618806Y-51950500D01*
X48618810Y-51950500D01*
X48725190Y-51950500D01*
X48725194Y-51950500D01*
X48884310Y-51935756D01*
X49089389Y-51877405D01*
X49089393Y-51877403D01*
X49089394Y-51877403D01*
X49280253Y-51782367D01*
X49280253Y-51782366D01*
X49280255Y-51782366D01*
X49450407Y-51653872D01*
X49594052Y-51496302D01*
X49706298Y-51315019D01*
X49711300Y-51302106D01*
X49753872Y-51246705D01*
X49819639Y-51223114D01*
X49887719Y-51238825D01*
X49936499Y-51288848D01*
X49940483Y-51297090D01*
X50008198Y-51451466D01*
X50131842Y-51640716D01*
X50131850Y-51640727D01*
X50284950Y-51807036D01*
X50284954Y-51807040D01*
X50463351Y-51945893D01*
X50612462Y-52026588D01*
X50661810Y-52053294D01*
X50662169Y-52053488D01*
X50662172Y-52053489D01*
X50875982Y-52126890D01*
X50875984Y-52126890D01*
X50875986Y-52126891D01*
X51098967Y-52164100D01*
X51098968Y-52164100D01*
X51325032Y-52164100D01*
X51325033Y-52164100D01*
X51548014Y-52126891D01*
X51761831Y-52053488D01*
X51960649Y-51945893D01*
X52139046Y-51807040D01*
X52292156Y-51640719D01*
X52378193Y-51509028D01*
X52431338Y-51463675D01*
X52500569Y-51454251D01*
X52563905Y-51483753D01*
X52585804Y-51509025D01*
X52671844Y-51640719D01*
X52671849Y-51640724D01*
X52671850Y-51640727D01*
X52824950Y-51807036D01*
X52824954Y-51807040D01*
X53003351Y-51945893D01*
X53152462Y-52026588D01*
X53201810Y-52053294D01*
X53202169Y-52053488D01*
X53202172Y-52053489D01*
X53415982Y-52126890D01*
X53415984Y-52126890D01*
X53415986Y-52126891D01*
X53638967Y-52164100D01*
X53638968Y-52164100D01*
X53865032Y-52164100D01*
X53865033Y-52164100D01*
X54088014Y-52126891D01*
X54301831Y-52053488D01*
X54500649Y-51945893D01*
X54679046Y-51807040D01*
X54832156Y-51640719D01*
X54918193Y-51509028D01*
X54971338Y-51463675D01*
X55040569Y-51454251D01*
X55103905Y-51483753D01*
X55125804Y-51509025D01*
X55211844Y-51640719D01*
X55211849Y-51640724D01*
X55211850Y-51640727D01*
X55364950Y-51807036D01*
X55364954Y-51807040D01*
X55543351Y-51945893D01*
X55692462Y-52026588D01*
X55741810Y-52053294D01*
X55742169Y-52053488D01*
X55742172Y-52053489D01*
X55955982Y-52126890D01*
X55955984Y-52126890D01*
X55955986Y-52126891D01*
X56178967Y-52164100D01*
X56178968Y-52164100D01*
X56405032Y-52164100D01*
X56405033Y-52164100D01*
X56628014Y-52126891D01*
X56841831Y-52053488D01*
X57040649Y-51945893D01*
X57219046Y-51807040D01*
X57372156Y-51640719D01*
X57458193Y-51509028D01*
X57511338Y-51463675D01*
X57580569Y-51454251D01*
X57643905Y-51483753D01*
X57665804Y-51509025D01*
X57751844Y-51640719D01*
X57751849Y-51640724D01*
X57751850Y-51640727D01*
X57904950Y-51807036D01*
X57904954Y-51807040D01*
X58083351Y-51945893D01*
X58083353Y-51945894D01*
X58083356Y-51945896D01*
X58141516Y-51977370D01*
X58191107Y-52026589D01*
X58206499Y-52086425D01*
X58206499Y-52363546D01*
X58186814Y-52430585D01*
X58170180Y-52451227D01*
X57561017Y-53060390D01*
X57499694Y-53093875D01*
X57430002Y-53088891D01*
X57385659Y-53060393D01*
X57282404Y-52957138D01*
X57182675Y-52895625D01*
X57133084Y-52865037D01*
X57133079Y-52865035D01*
X57131610Y-52864548D01*
X56966545Y-52809851D01*
X56966543Y-52809850D01*
X56863758Y-52799350D01*
X56113746Y-52799350D01*
X56113728Y-52799351D01*
X56010951Y-52809850D01*
X56010948Y-52809851D01*
X55844416Y-52865035D01*
X55844411Y-52865037D01*
X55695090Y-52957139D01*
X55571036Y-53081193D01*
X55571030Y-53081201D01*
X55569279Y-53084040D01*
X55567571Y-53085575D01*
X55566555Y-53086861D01*
X55566335Y-53086687D01*
X55517327Y-53130760D01*
X55448363Y-53141975D01*
X55384284Y-53114125D01*
X55358207Y-53084026D01*
X55356460Y-53081194D01*
X55232404Y-52957138D01*
X55132675Y-52895625D01*
X55083084Y-52865037D01*
X55083079Y-52865035D01*
X55081610Y-52864548D01*
X54916545Y-52809851D01*
X54916543Y-52809850D01*
X54813758Y-52799350D01*
X54063746Y-52799350D01*
X54063728Y-52799351D01*
X53960951Y-52809850D01*
X53960948Y-52809851D01*
X53794416Y-52865035D01*
X53794411Y-52865037D01*
X53645090Y-52957139D01*
X53521037Y-53081192D01*
X53428935Y-53230513D01*
X53428934Y-53230516D01*
X53410656Y-53285677D01*
X53409437Y-53289355D01*
X53369664Y-53346799D01*
X53305148Y-53373622D01*
X53291731Y-53374350D01*
X52721276Y-53374350D01*
X52654237Y-53354665D01*
X52633595Y-53338031D01*
X52592725Y-53297161D01*
X52592724Y-53297160D01*
X52480533Y-53227960D01*
X52445892Y-53206593D01*
X52445887Y-53206591D01*
X52398387Y-53190851D01*
X52282127Y-53152326D01*
X52282125Y-53152325D01*
X52181052Y-53142000D01*
X51482704Y-53142000D01*
X51482686Y-53142001D01*
X51381621Y-53152325D01*
X51217858Y-53206592D01*
X51217855Y-53206593D01*
X51071022Y-53297161D01*
X51056699Y-53311484D01*
X50995375Y-53344968D01*
X50925683Y-53339982D01*
X50881339Y-53311482D01*
X50867412Y-53297555D01*
X50867408Y-53297552D01*
X50720685Y-53207051D01*
X50720674Y-53207046D01*
X50557026Y-53152819D01*
X50456028Y-53142500D01*
X50356873Y-53142500D01*
X50356874Y-53867500D01*
X50356873Y-55092498D01*
X50356874Y-55092499D01*
X50456014Y-55092499D01*
X50456028Y-55092498D01*
X50557026Y-55082180D01*
X50720674Y-55027953D01*
X50720685Y-55027948D01*
X50867409Y-54937447D01*
X50881334Y-54923521D01*
X50942656Y-54890033D01*
X51012347Y-54895014D01*
X51056701Y-54923517D01*
X51071024Y-54937840D01*
X51217858Y-55028408D01*
X51381621Y-55082674D01*
X51482697Y-55093000D01*
X51923368Y-55092999D01*
X51990406Y-55112683D01*
X52036161Y-55165487D01*
X52046105Y-55234646D01*
X52017080Y-55298202D01*
X52015518Y-55299970D01*
X51972466Y-55347785D01*
X51877821Y-55511715D01*
X51877818Y-55511722D01*
X51820824Y-55687134D01*
X51819326Y-55691744D01*
X51802296Y-55853779D01*
X51801679Y-55859650D01*
X51775094Y-55924264D01*
X51766039Y-55934369D01*
X51347227Y-56353181D01*
X51285904Y-56386666D01*
X51259546Y-56389500D01*
X49999998Y-56389500D01*
X49999981Y-56389501D01*
X49897203Y-56400000D01*
X49897200Y-56400001D01*
X49730668Y-56455185D01*
X49730663Y-56455187D01*
X49581342Y-56547289D01*
X49457289Y-56671342D01*
X49365187Y-56820663D01*
X49365185Y-56820668D01*
X49358747Y-56840098D01*
X49310001Y-56987203D01*
X49310001Y-56987204D01*
X49310000Y-56987204D01*
X49299500Y-57089983D01*
X49299500Y-60290001D01*
X49299501Y-60290018D01*
X49310000Y-60392796D01*
X49310001Y-60392799D01*
X49365185Y-60559331D01*
X49365187Y-60559336D01*
X49388874Y-60597738D01*
X49457288Y-60708656D01*
X49581344Y-60832712D01*
X49730666Y-60924814D01*
X49897203Y-60979999D01*
X49999991Y-60990500D01*
X51600008Y-60990499D01*
X51702797Y-60979999D01*
X51869334Y-60924814D01*
X51959618Y-60869126D01*
X52027009Y-60850687D01*
X52093672Y-60871609D01*
X52112394Y-60886985D01*
X53204197Y-61978788D01*
X53214022Y-61991051D01*
X53214243Y-61990869D01*
X53219214Y-61996878D01*
X53240043Y-62016437D01*
X53269635Y-62044226D01*
X53290529Y-62065120D01*
X53296011Y-62069373D01*
X53300443Y-62073157D01*
X53334418Y-62105062D01*
X53351976Y-62114714D01*
X53368235Y-62125395D01*
X53384064Y-62137673D01*
X53426838Y-62156182D01*
X53432056Y-62158738D01*
X53472908Y-62181197D01*
X53492316Y-62186180D01*
X53510717Y-62192480D01*
X53529104Y-62200437D01*
X53572488Y-62207308D01*
X53575119Y-62207725D01*
X53580839Y-62208909D01*
X53625981Y-62220500D01*
X53646016Y-62220500D01*
X53665414Y-62222026D01*
X53685194Y-62225159D01*
X53685195Y-62225160D01*
X53685195Y-62225159D01*
X53685196Y-62225160D01*
X53731583Y-62220775D01*
X53737422Y-62220500D01*
X65592257Y-62220500D01*
X65607877Y-62222224D01*
X65607904Y-62221939D01*
X65615660Y-62222671D01*
X65615667Y-62222673D01*
X65684814Y-62220500D01*
X65714350Y-62220500D01*
X65721228Y-62219630D01*
X65727041Y-62219172D01*
X65773627Y-62217709D01*
X65792869Y-62212117D01*
X65811912Y-62208174D01*
X65831792Y-62205664D01*
X65875122Y-62188507D01*
X65880646Y-62186617D01*
X65884396Y-62185527D01*
X65925390Y-62173618D01*
X65942629Y-62163422D01*
X65960103Y-62154862D01*
X65978727Y-62147488D01*
X65978727Y-62147487D01*
X65978732Y-62147486D01*
X66016449Y-62120082D01*
X66021305Y-62116892D01*
X66061420Y-62093170D01*
X66075589Y-62078999D01*
X66090379Y-62066368D01*
X66106587Y-62054594D01*
X66136299Y-62018676D01*
X66140212Y-62014376D01*
X67267607Y-60886982D01*
X67328928Y-60853499D01*
X67398620Y-60858483D01*
X67420380Y-60869125D01*
X67449335Y-60886985D01*
X67510657Y-60924809D01*
X67510660Y-60924810D01*
X67510666Y-60924814D01*
X67677203Y-60979999D01*
X67779991Y-60990500D01*
X69380008Y-60990499D01*
X69482797Y-60979999D01*
X69649334Y-60924814D01*
X69739618Y-60869126D01*
X69807009Y-60850687D01*
X69873672Y-60871609D01*
X69892394Y-60886985D01*
X70984197Y-61978788D01*
X70994022Y-61991051D01*
X70994243Y-61990869D01*
X70999214Y-61996878D01*
X71020043Y-62016437D01*
X71049635Y-62044226D01*
X71070529Y-62065120D01*
X71076011Y-62069373D01*
X71080443Y-62073157D01*
X71114418Y-62105062D01*
X71131976Y-62114714D01*
X71148235Y-62125395D01*
X71164064Y-62137673D01*
X71206838Y-62156182D01*
X71212056Y-62158738D01*
X71252908Y-62181197D01*
X71272316Y-62186180D01*
X71290717Y-62192480D01*
X71309104Y-62200437D01*
X71352488Y-62207308D01*
X71355119Y-62207725D01*
X71360839Y-62208909D01*
X71405981Y-62220500D01*
X71426016Y-62220500D01*
X71445414Y-62222026D01*
X71465194Y-62225159D01*
X71465195Y-62225160D01*
X71465195Y-62225159D01*
X71465196Y-62225160D01*
X71511583Y-62220775D01*
X71517422Y-62220500D01*
X83372257Y-62220500D01*
X83387877Y-62222224D01*
X83387904Y-62221939D01*
X83395660Y-62222671D01*
X83395667Y-62222673D01*
X83464814Y-62220500D01*
X83494350Y-62220500D01*
X83501228Y-62219630D01*
X83507041Y-62219172D01*
X83553627Y-62217709D01*
X83572869Y-62212117D01*
X83591912Y-62208174D01*
X83611792Y-62205664D01*
X83655122Y-62188507D01*
X83660646Y-62186617D01*
X83664396Y-62185527D01*
X83705390Y-62173618D01*
X83722629Y-62163422D01*
X83740103Y-62154862D01*
X83758727Y-62147488D01*
X83758727Y-62147487D01*
X83758732Y-62147486D01*
X83796449Y-62120082D01*
X83801305Y-62116892D01*
X83841420Y-62093170D01*
X83855589Y-62078999D01*
X83870379Y-62066368D01*
X83886587Y-62054594D01*
X83916299Y-62018676D01*
X83920212Y-62014376D01*
X85047607Y-60886982D01*
X85108928Y-60853499D01*
X85178620Y-60858483D01*
X85200380Y-60869125D01*
X85229335Y-60886985D01*
X85290657Y-60924809D01*
X85290660Y-60924810D01*
X85290666Y-60924814D01*
X85457203Y-60979999D01*
X85559991Y-60990500D01*
X87160008Y-60990499D01*
X87262797Y-60979999D01*
X87429334Y-60924814D01*
X87519618Y-60869126D01*
X87587009Y-60850687D01*
X87653672Y-60871609D01*
X87672394Y-60886985D01*
X88764197Y-61978788D01*
X88774022Y-61991051D01*
X88774243Y-61990869D01*
X88779214Y-61996878D01*
X88800043Y-62016437D01*
X88829635Y-62044226D01*
X88850529Y-62065120D01*
X88856011Y-62069373D01*
X88860443Y-62073157D01*
X88894418Y-62105062D01*
X88911976Y-62114714D01*
X88928235Y-62125395D01*
X88944064Y-62137673D01*
X88986838Y-62156182D01*
X88992056Y-62158738D01*
X89032908Y-62181197D01*
X89052316Y-62186180D01*
X89070717Y-62192480D01*
X89089104Y-62200437D01*
X89132488Y-62207308D01*
X89135119Y-62207725D01*
X89140839Y-62208909D01*
X89185981Y-62220500D01*
X89206016Y-62220500D01*
X89225414Y-62222026D01*
X89245194Y-62225159D01*
X89245195Y-62225160D01*
X89245195Y-62225159D01*
X89245196Y-62225160D01*
X89291583Y-62220775D01*
X89297422Y-62220500D01*
X101152257Y-62220500D01*
X101167877Y-62222224D01*
X101167904Y-62221939D01*
X101175660Y-62222671D01*
X101175667Y-62222673D01*
X101244814Y-62220500D01*
X101274350Y-62220500D01*
X101281228Y-62219630D01*
X101287041Y-62219172D01*
X101333627Y-62217709D01*
X101352869Y-62212117D01*
X101371912Y-62208174D01*
X101391792Y-62205664D01*
X101435122Y-62188507D01*
X101440646Y-62186617D01*
X101444396Y-62185527D01*
X101485390Y-62173618D01*
X101502629Y-62163422D01*
X101520103Y-62154862D01*
X101538727Y-62147488D01*
X101538727Y-62147487D01*
X101538732Y-62147486D01*
X101576449Y-62120082D01*
X101581305Y-62116892D01*
X101621420Y-62093170D01*
X101635589Y-62078999D01*
X101650379Y-62066368D01*
X101666587Y-62054594D01*
X101696299Y-62018676D01*
X101700212Y-62014376D01*
X102827607Y-60886982D01*
X102888928Y-60853499D01*
X102958620Y-60858483D01*
X102980380Y-60869125D01*
X103009335Y-60886985D01*
X103070657Y-60924809D01*
X103070660Y-60924810D01*
X103070666Y-60924814D01*
X103237203Y-60979999D01*
X103339991Y-60990500D01*
X104940008Y-60990499D01*
X105042797Y-60979999D01*
X105209334Y-60924814D01*
X105358656Y-60832712D01*
X105482712Y-60708656D01*
X105574814Y-60559334D01*
X105629999Y-60392797D01*
X105640500Y-60290009D01*
X105640499Y-57089992D01*
X105636891Y-57054673D01*
X105649660Y-56985981D01*
X105697541Y-56935097D01*
X105760249Y-56918072D01*
X106432120Y-56918072D01*
X106499159Y-56937757D01*
X106519801Y-56954390D01*
X107603182Y-58037772D01*
X107636666Y-58099093D01*
X107639500Y-58125451D01*
X107639500Y-59552065D01*
X107654890Y-59737813D01*
X107654892Y-59737824D01*
X107715936Y-59978881D01*
X107815826Y-60206606D01*
X107951833Y-60414782D01*
X107951836Y-60414785D01*
X108120256Y-60597738D01*
X108316491Y-60750474D01*
X108316493Y-60750475D01*
X108534332Y-60868364D01*
X108535190Y-60868828D01*
X108754141Y-60943994D01*
X108768964Y-60949083D01*
X108770386Y-60949571D01*
X109015665Y-60990500D01*
X109264335Y-60990500D01*
X109509614Y-60949571D01*
X109744810Y-60868828D01*
X109963509Y-60750474D01*
X110159744Y-60597738D01*
X110328164Y-60414785D01*
X110464173Y-60206607D01*
X110564063Y-59978881D01*
X110625108Y-59737821D01*
X110640500Y-59552067D01*
X110640500Y-59552041D01*
X112640000Y-59552041D01*
X112655385Y-59737730D01*
X112655387Y-59737738D01*
X112716412Y-59978717D01*
X112816267Y-60206367D01*
X112952232Y-60414478D01*
X113120592Y-60597364D01*
X113120602Y-60597373D01*
X113316762Y-60750051D01*
X113316771Y-60750057D01*
X113535385Y-60868364D01*
X113535396Y-60868369D01*
X113770507Y-60949083D01*
X113889999Y-60969023D01*
X113890000Y-60969022D01*
X113890000Y-59343837D01*
X113971249Y-59374651D01*
X114097660Y-59390000D01*
X114182340Y-59390000D01*
X114308751Y-59374651D01*
X114390000Y-59343837D01*
X114390000Y-60969023D01*
X114509492Y-60949083D01*
X114744603Y-60868369D01*
X114744614Y-60868364D01*
X114963228Y-60750057D01*
X114963237Y-60750051D01*
X115159397Y-60597373D01*
X115159407Y-60597364D01*
X115327767Y-60414478D01*
X115463732Y-60206367D01*
X115563587Y-59978717D01*
X115624612Y-59737738D01*
X115624614Y-59737730D01*
X115640000Y-59552041D01*
X115640000Y-58940000D01*
X114799329Y-58940000D01*
X114840000Y-58774995D01*
X114840000Y-58605005D01*
X114799329Y-58440000D01*
X115640000Y-58440000D01*
X115640000Y-57827959D01*
X115624614Y-57642269D01*
X115624612Y-57642261D01*
X115563587Y-57401282D01*
X115463732Y-57173632D01*
X115327767Y-56965521D01*
X115159407Y-56782635D01*
X115159397Y-56782626D01*
X114963237Y-56629948D01*
X114963228Y-56629942D01*
X114744614Y-56511635D01*
X114744603Y-56511630D01*
X114509492Y-56430916D01*
X114390000Y-56410976D01*
X114390000Y-58036162D01*
X114308751Y-58005349D01*
X114182340Y-57990000D01*
X114097660Y-57990000D01*
X113971249Y-58005349D01*
X113890000Y-58036162D01*
X113890000Y-56410976D01*
X113889999Y-56410976D01*
X113770507Y-56430916D01*
X113535396Y-56511630D01*
X113535385Y-56511635D01*
X113316771Y-56629942D01*
X113316762Y-56629948D01*
X113120602Y-56782626D01*
X113120592Y-56782635D01*
X112952232Y-56965521D01*
X112816267Y-57173632D01*
X112716412Y-57401282D01*
X112655387Y-57642261D01*
X112655385Y-57642269D01*
X112640000Y-57827959D01*
X112640000Y-58440000D01*
X113480671Y-58440000D01*
X113440000Y-58605005D01*
X113440000Y-58774995D01*
X113480671Y-58940000D01*
X112640000Y-58940000D01*
X112640000Y-59552041D01*
X110640500Y-59552041D01*
X110640500Y-57827933D01*
X110636145Y-57775376D01*
X110625109Y-57642186D01*
X110625107Y-57642175D01*
X110564063Y-57401118D01*
X110464173Y-57173393D01*
X110328166Y-56965217D01*
X110278017Y-56910741D01*
X110159744Y-56782262D01*
X109963509Y-56629526D01*
X109963507Y-56629525D01*
X109963506Y-56629524D01*
X109744811Y-56511172D01*
X109744802Y-56511169D01*
X109509616Y-56430429D01*
X109264335Y-56389500D01*
X109015665Y-56389500D01*
X108770383Y-56430429D01*
X108535197Y-56511169D01*
X108535188Y-56511172D01*
X108316493Y-56629524D01*
X108204755Y-56716494D01*
X108139761Y-56742136D01*
X108071221Y-56728569D01*
X108040912Y-56706321D01*
X107243375Y-55908784D01*
X107233552Y-55896522D01*
X107233331Y-55896706D01*
X107228358Y-55890695D01*
X107222066Y-55884786D01*
X107177936Y-55843345D01*
X107167491Y-55832900D01*
X107157047Y-55822455D01*
X107151558Y-55818197D01*
X107147133Y-55814419D01*
X107113154Y-55782510D01*
X107113152Y-55782508D01*
X107113149Y-55782507D01*
X107095601Y-55772860D01*
X107079335Y-55762176D01*
X107076870Y-55760264D01*
X107063508Y-55749899D01*
X107063507Y-55749898D01*
X107063505Y-55749897D01*
X107020740Y-55731390D01*
X107015494Y-55728820D01*
X106974665Y-55706375D01*
X106974664Y-55706374D01*
X106955265Y-55701394D01*
X106936853Y-55695090D01*
X106918470Y-55687134D01*
X106918464Y-55687132D01*
X106872446Y-55679844D01*
X106866724Y-55678659D01*
X106821593Y-55667072D01*
X106821591Y-55667072D01*
X106801556Y-55667072D01*
X106782158Y-55665545D01*
X106774734Y-55664369D01*
X106762377Y-55662412D01*
X106762376Y-55662412D01*
X106715988Y-55666797D01*
X106710150Y-55667072D01*
X106295163Y-55667072D01*
X106228124Y-55647387D01*
X106182369Y-55594583D01*
X106171842Y-55530111D01*
X106188460Y-55372000D01*
X106168674Y-55183744D01*
X106110179Y-55003716D01*
X106015533Y-54839784D01*
X105888871Y-54699112D01*
X105884118Y-54695659D01*
X105823826Y-54651854D01*
X105781160Y-54596524D01*
X105775181Y-54526911D01*
X105806893Y-54466810D01*
X105806535Y-54466474D01*
X105807757Y-54465172D01*
X105807787Y-54465116D01*
X105807959Y-54464956D01*
X105811872Y-54460788D01*
X105811877Y-54460786D01*
X105842916Y-54427732D01*
X105859227Y-54410364D01*
X105869671Y-54399918D01*
X105880120Y-54389471D01*
X105884379Y-54383978D01*
X105888152Y-54379561D01*
X105920062Y-54345582D01*
X105929713Y-54328024D01*
X105940396Y-54311761D01*
X105952673Y-54295936D01*
X105971185Y-54253153D01*
X105973738Y-54247941D01*
X105996197Y-54207092D01*
X106001180Y-54187680D01*
X106007481Y-54169280D01*
X106015437Y-54150896D01*
X106022729Y-54104852D01*
X106023906Y-54099171D01*
X106035500Y-54054019D01*
X106035500Y-54033982D01*
X106037027Y-54014582D01*
X106040160Y-53994804D01*
X106035775Y-53948415D01*
X106035500Y-53942577D01*
X106035500Y-52323185D01*
X106055185Y-52256146D01*
X106107989Y-52210391D01*
X106177147Y-52200447D01*
X106220373Y-52218087D01*
X106221637Y-52215899D01*
X106227270Y-52219151D01*
X106400192Y-52296142D01*
X106400197Y-52296144D01*
X106585354Y-52335500D01*
X106644548Y-52335500D01*
X106711587Y-52355185D01*
X106732228Y-52371818D01*
X107416753Y-53056344D01*
X108084197Y-53723788D01*
X108094022Y-53736051D01*
X108094243Y-53735869D01*
X108099214Y-53741878D01*
X108120778Y-53762127D01*
X108149635Y-53789226D01*
X108170529Y-53810120D01*
X108176011Y-53814373D01*
X108180443Y-53818157D01*
X108214418Y-53850062D01*
X108231976Y-53859714D01*
X108248233Y-53870393D01*
X108264064Y-53882673D01*
X108281428Y-53890187D01*
X108306833Y-53901182D01*
X108312077Y-53903750D01*
X108352908Y-53926197D01*
X108365523Y-53929435D01*
X108372305Y-53931177D01*
X108390719Y-53937481D01*
X108409104Y-53945438D01*
X108455157Y-53952732D01*
X108460826Y-53953906D01*
X108505981Y-53965500D01*
X108526016Y-53965500D01*
X108545413Y-53967026D01*
X108565196Y-53970160D01*
X108611583Y-53965775D01*
X108617422Y-53965500D01*
X114950321Y-53965500D01*
X115017360Y-53985185D01*
X115051896Y-54018377D01*
X115187048Y-54211395D01*
X115187053Y-54211401D01*
X115354147Y-54378495D01*
X115399661Y-54410364D01*
X115547713Y-54514032D01*
X115547715Y-54514033D01*
X115547718Y-54514035D01*
X115761885Y-54613903D01*
X115990140Y-54675063D01*
X116142808Y-54688420D01*
X116225547Y-54695659D01*
X116225548Y-54695659D01*
X116225549Y-54695659D01*
X116264782Y-54692226D01*
X116460956Y-54675063D01*
X116689211Y-54613903D01*
X116903378Y-54514035D01*
X117096949Y-54378495D01*
X117264043Y-54211401D01*
X117399583Y-54017830D01*
X117499451Y-53803663D01*
X117560611Y-53575408D01*
X117581207Y-53340000D01*
X117581205Y-53339982D01*
X117571405Y-53227961D01*
X117560611Y-53104592D01*
X117499451Y-52876337D01*
X117399583Y-52662171D01*
X117399200Y-52661623D01*
X117264042Y-52468597D01*
X117096950Y-52301506D01*
X117096949Y-52301505D01*
X116910953Y-52171269D01*
X116867329Y-52116692D01*
X116860136Y-52047193D01*
X116891658Y-51984839D01*
X116910953Y-51968119D01*
X117096630Y-51838105D01*
X117263653Y-51671082D01*
X117399148Y-51477578D01*
X117498977Y-51263492D01*
X117498980Y-51263486D01*
X117556184Y-51050000D01*
X116659234Y-51050000D01*
X116685041Y-51009844D01*
X116725548Y-50871889D01*
X116725548Y-50728111D01*
X116685041Y-50590156D01*
X116659234Y-50550000D01*
X117556184Y-50550000D01*
X117556183Y-50549999D01*
X117498980Y-50336513D01*
X117498977Y-50336507D01*
X117399148Y-50122422D01*
X117399147Y-50122420D01*
X117263661Y-49928926D01*
X117263656Y-49928920D01*
X117141601Y-49806865D01*
X117108116Y-49745542D01*
X117113100Y-49675850D01*
X117154972Y-49619917D01*
X117185948Y-49603002D01*
X117317879Y-49553796D01*
X117433094Y-49467546D01*
X117519344Y-49352331D01*
X117569639Y-49217483D01*
X117576048Y-49157873D01*
X117576047Y-47362128D01*
X117569639Y-47302517D01*
X117564484Y-47288697D01*
X117519345Y-47167671D01*
X117519341Y-47167664D01*
X117433095Y-47052455D01*
X117433092Y-47052452D01*
X117317883Y-46966206D01*
X117317876Y-46966202D01*
X117183030Y-46915908D01*
X117183031Y-46915908D01*
X117123431Y-46909501D01*
X117123429Y-46909500D01*
X117123421Y-46909500D01*
X117123412Y-46909500D01*
X115327677Y-46909500D01*
X115327671Y-46909501D01*
X115268064Y-46915908D01*
X115133219Y-46966202D01*
X115133212Y-46966206D01*
X115018003Y-47052452D01*
X115018000Y-47052455D01*
X114931754Y-47167664D01*
X114931750Y-47167671D01*
X114881456Y-47302517D01*
X114875462Y-47358277D01*
X114875049Y-47362123D01*
X114875048Y-47362135D01*
X114875048Y-47510500D01*
X114855363Y-47577539D01*
X114802559Y-47623294D01*
X114751048Y-47634500D01*
X106355452Y-47634500D01*
X106288413Y-47614815D01*
X106267771Y-47598181D01*
X104758675Y-46089084D01*
X104725190Y-46027761D01*
X104730174Y-45958069D01*
X104772046Y-45902136D01*
X104803023Y-45885221D01*
X104942086Y-45833354D01*
X104942093Y-45833350D01*
X105057187Y-45747190D01*
X105057190Y-45747187D01*
X105143350Y-45632093D01*
X105143354Y-45632086D01*
X105193596Y-45497379D01*
X105193598Y-45497372D01*
X105199999Y-45437844D01*
X105200000Y-45437827D01*
X105200000Y-44420000D01*
X105620000Y-44420000D01*
X105620000Y-45437844D01*
X105626401Y-45497372D01*
X105626403Y-45497379D01*
X105676645Y-45632086D01*
X105676649Y-45632093D01*
X105762809Y-45747187D01*
X105762812Y-45747190D01*
X105877906Y-45833350D01*
X105877913Y-45833354D01*
X106012620Y-45883596D01*
X106012627Y-45883598D01*
X106072155Y-45889999D01*
X106072172Y-45890000D01*
X106430000Y-45890000D01*
X106430000Y-44420000D01*
X105620000Y-44420000D01*
X105200000Y-44420000D01*
X103080000Y-44420000D01*
X103080000Y-45437844D01*
X103086401Y-45497372D01*
X103086403Y-45497380D01*
X103110567Y-45562167D01*
X103115551Y-45631859D01*
X103082066Y-45693182D01*
X103020742Y-45726666D01*
X102994385Y-45729500D01*
X102745615Y-45729500D01*
X102678576Y-45709815D01*
X102632821Y-45657011D01*
X102622877Y-45587853D01*
X102629433Y-45562167D01*
X102653596Y-45497380D01*
X102653598Y-45497372D01*
X102659999Y-45437844D01*
X102660000Y-45437827D01*
X102660000Y-44420000D01*
X100540000Y-44420000D01*
X100539999Y-45381047D01*
X100520314Y-45448087D01*
X100467510Y-45493841D01*
X100398352Y-45503785D01*
X100334796Y-45474760D01*
X100328318Y-45468728D01*
X99795441Y-44935851D01*
X99086819Y-44227228D01*
X99053334Y-44165905D01*
X99050500Y-44139547D01*
X99050500Y-43920000D01*
X100540000Y-43920000D01*
X101350000Y-43920000D01*
X101350000Y-42450000D01*
X101850000Y-42450000D01*
X101850000Y-43920000D01*
X102660000Y-43920000D01*
X103080000Y-43920000D01*
X103890000Y-43920000D01*
X103890000Y-42450000D01*
X104390000Y-42450000D01*
X104390000Y-43920000D01*
X105200000Y-43920000D01*
X105200000Y-42902172D01*
X105199999Y-42902155D01*
X105193598Y-42842627D01*
X105193596Y-42842620D01*
X105143354Y-42707913D01*
X105143350Y-42707906D01*
X105057190Y-42592812D01*
X105057187Y-42592809D01*
X104942093Y-42506649D01*
X104942086Y-42506645D01*
X104807379Y-42456403D01*
X104807372Y-42456401D01*
X104747844Y-42450000D01*
X104390000Y-42450000D01*
X103890000Y-42450000D01*
X103532155Y-42450000D01*
X103472627Y-42456401D01*
X103472620Y-42456403D01*
X103337913Y-42506645D01*
X103337906Y-42506649D01*
X103222812Y-42592809D01*
X103222809Y-42592812D01*
X103136649Y-42707906D01*
X103136645Y-42707913D01*
X103086403Y-42842620D01*
X103086401Y-42842627D01*
X103080000Y-42902155D01*
X103080000Y-43920000D01*
X102660000Y-43920000D01*
X102660000Y-42902172D01*
X102659999Y-42902155D01*
X102653598Y-42842627D01*
X102653596Y-42842620D01*
X102603354Y-42707913D01*
X102603350Y-42707906D01*
X102517190Y-42592812D01*
X102517187Y-42592809D01*
X102402093Y-42506649D01*
X102402086Y-42506645D01*
X102267379Y-42456403D01*
X102267372Y-42456401D01*
X102207844Y-42450000D01*
X101850000Y-42450000D01*
X101350000Y-42450000D01*
X100992155Y-42450000D01*
X100932627Y-42456401D01*
X100932620Y-42456403D01*
X100797913Y-42506645D01*
X100797906Y-42506649D01*
X100682812Y-42592809D01*
X100682809Y-42592812D01*
X100596649Y-42707906D01*
X100596645Y-42707913D01*
X100546403Y-42842620D01*
X100546401Y-42842627D01*
X100540000Y-42902155D01*
X100540000Y-43920000D01*
X99050500Y-43920000D01*
X99050500Y-41364500D01*
X105139540Y-41364500D01*
X105159326Y-41552756D01*
X105159327Y-41552759D01*
X105217818Y-41732777D01*
X105217821Y-41732784D01*
X105312467Y-41896716D01*
X105358543Y-41947888D01*
X105439129Y-42037388D01*
X105592265Y-42148648D01*
X105592270Y-42148651D01*
X105765192Y-42225642D01*
X105765193Y-42225642D01*
X105765197Y-42225644D01*
X105900156Y-42254330D01*
X105961638Y-42287522D01*
X105995415Y-42348685D01*
X105990763Y-42418399D01*
X105949159Y-42474532D01*
X105917711Y-42491801D01*
X105877916Y-42506644D01*
X105877906Y-42506649D01*
X105762812Y-42592809D01*
X105762809Y-42592812D01*
X105676649Y-42707906D01*
X105676645Y-42707913D01*
X105626403Y-42842620D01*
X105626401Y-42842627D01*
X105620000Y-42902155D01*
X105620000Y-43920000D01*
X106430000Y-43920000D01*
X106430000Y-42450000D01*
X106404265Y-42450000D01*
X106337226Y-42430315D01*
X106291471Y-42377511D01*
X106281527Y-42308353D01*
X106310552Y-42244797D01*
X106353829Y-42212721D01*
X106437427Y-42175500D01*
X106497730Y-42148651D01*
X106650871Y-42037388D01*
X106777533Y-41896716D01*
X106872179Y-41732784D01*
X106930674Y-41552756D01*
X106948321Y-41384845D01*
X106974905Y-41320232D01*
X106983952Y-41310136D01*
X107063786Y-41230302D01*
X107076048Y-41220480D01*
X107075865Y-41220259D01*
X107081867Y-41215292D01*
X107081877Y-41215286D01*
X107129241Y-41164848D01*
X107150120Y-41143970D01*
X107154373Y-41138486D01*
X107158150Y-41134063D01*
X107190062Y-41100082D01*
X107199714Y-41082523D01*
X107210389Y-41066272D01*
X107222674Y-41050436D01*
X107241186Y-41007652D01*
X107243742Y-41002435D01*
X107266197Y-40961592D01*
X107271180Y-40942180D01*
X107277477Y-40923791D01*
X107285438Y-40905395D01*
X107292154Y-40862982D01*
X107322080Y-40799851D01*
X107381391Y-40762917D01*
X107451253Y-40763913D01*
X107487512Y-40782062D01*
X107497265Y-40789148D01*
X107497270Y-40789151D01*
X107670192Y-40866142D01*
X107670197Y-40866144D01*
X107855354Y-40905500D01*
X107855355Y-40905500D01*
X108044644Y-40905500D01*
X108044646Y-40905500D01*
X108229803Y-40866144D01*
X108402730Y-40789151D01*
X108555871Y-40677888D01*
X108682533Y-40537216D01*
X108777179Y-40373284D01*
X108835674Y-40193256D01*
X108853321Y-40025346D01*
X108879905Y-39960733D01*
X108888950Y-39950638D01*
X109017822Y-39821767D01*
X109079140Y-39788285D01*
X109148832Y-39793269D01*
X109204766Y-39835140D01*
X109229183Y-39900604D01*
X109229499Y-39909451D01*
X109229499Y-42234547D01*
X109209814Y-42301586D01*
X109193180Y-42322228D01*
X108637228Y-42878181D01*
X108575905Y-42911666D01*
X108549547Y-42914500D01*
X108490354Y-42914500D01*
X108457897Y-42921398D01*
X108305197Y-42953855D01*
X108305192Y-42953857D01*
X108132270Y-43030848D01*
X108132265Y-43030851D01*
X107979129Y-43142111D01*
X107979128Y-43142112D01*
X107956149Y-43167633D01*
X107896662Y-43204281D01*
X107826805Y-43202950D01*
X107768757Y-43164063D01*
X107740948Y-43099965D01*
X107740000Y-43084660D01*
X107740000Y-42902172D01*
X107739999Y-42902155D01*
X107733598Y-42842627D01*
X107733596Y-42842620D01*
X107683354Y-42707913D01*
X107683350Y-42707906D01*
X107597190Y-42592812D01*
X107597187Y-42592809D01*
X107482093Y-42506649D01*
X107482086Y-42506645D01*
X107347379Y-42456403D01*
X107347372Y-42456401D01*
X107287844Y-42450000D01*
X106930000Y-42450000D01*
X106930000Y-45890000D01*
X107287828Y-45890000D01*
X107287844Y-45889999D01*
X107347372Y-45883598D01*
X107347379Y-45883596D01*
X107482086Y-45833354D01*
X107482093Y-45833350D01*
X107597187Y-45747190D01*
X107597190Y-45747187D01*
X107683350Y-45632093D01*
X107683354Y-45632086D01*
X107733596Y-45497379D01*
X107733598Y-45497372D01*
X107739999Y-45437844D01*
X107740000Y-45437827D01*
X107740000Y-44545339D01*
X107759685Y-44478300D01*
X107812489Y-44432545D01*
X107881647Y-44422601D01*
X107945203Y-44451626D01*
X107956150Y-44462367D01*
X107979129Y-44487888D01*
X108132265Y-44599148D01*
X108132270Y-44599151D01*
X108305192Y-44676142D01*
X108305197Y-44676144D01*
X108490354Y-44715500D01*
X108490355Y-44715500D01*
X108679644Y-44715500D01*
X108679646Y-44715500D01*
X108864803Y-44676144D01*
X109037730Y-44599151D01*
X109190871Y-44487888D01*
X109317533Y-44347216D01*
X109412179Y-44183284D01*
X109470674Y-44003256D01*
X109488321Y-43835344D01*
X109514904Y-43770734D01*
X109523942Y-43760647D01*
X109652821Y-43631768D01*
X109714142Y-43598286D01*
X109783834Y-43603270D01*
X109839767Y-43645142D01*
X109864184Y-43710606D01*
X109864500Y-43719452D01*
X109864500Y-44696950D01*
X109844815Y-44763989D01*
X109792011Y-44809744D01*
X109766281Y-44818240D01*
X109575197Y-44858855D01*
X109575192Y-44858857D01*
X109402270Y-44935848D01*
X109402265Y-44935851D01*
X109249129Y-45047111D01*
X109122466Y-45187785D01*
X109027821Y-45351715D01*
X109027818Y-45351722D01*
X108969327Y-45531740D01*
X108969326Y-45531744D01*
X108949540Y-45720000D01*
X108969326Y-45908256D01*
X108969327Y-45908259D01*
X109027818Y-46088277D01*
X109027821Y-46088284D01*
X109122467Y-46252216D01*
X109236930Y-46379340D01*
X109249129Y-46392888D01*
X109402265Y-46504148D01*
X109402270Y-46504151D01*
X109575192Y-46581142D01*
X109575197Y-46581144D01*
X109760354Y-46620500D01*
X109760355Y-46620500D01*
X109949644Y-46620500D01*
X109949646Y-46620500D01*
X110134803Y-46581144D01*
X110307730Y-46504151D01*
X110460871Y-46392888D01*
X110587533Y-46252216D01*
X110682179Y-46088284D01*
X110740674Y-45908256D01*
X110758321Y-45740345D01*
X110784905Y-45675732D01*
X110793952Y-45665636D01*
X110873786Y-45585802D01*
X110886048Y-45575980D01*
X110885865Y-45575759D01*
X110891867Y-45570792D01*
X110891877Y-45570786D01*
X110939241Y-45520348D01*
X110960120Y-45499470D01*
X110964373Y-45493986D01*
X110968150Y-45489563D01*
X111000062Y-45455582D01*
X111009714Y-45438023D01*
X111020389Y-45421772D01*
X111032674Y-45405936D01*
X111051186Y-45363152D01*
X111053742Y-45357935D01*
X111072932Y-45323031D01*
X111076194Y-45317098D01*
X111076194Y-45317097D01*
X111076197Y-45317092D01*
X111081180Y-45297680D01*
X111087477Y-45279291D01*
X111095438Y-45260895D01*
X111102729Y-45214853D01*
X111103908Y-45209162D01*
X111115500Y-45164019D01*
X111115500Y-45143982D01*
X111117027Y-45124582D01*
X111120160Y-45104804D01*
X111115775Y-45058415D01*
X111115500Y-45052577D01*
X111115500Y-39045451D01*
X111135185Y-38978412D01*
X111151814Y-38957775D01*
X112267712Y-37841876D01*
X112329033Y-37808393D01*
X112398725Y-37813377D01*
X112454658Y-37855249D01*
X112479075Y-37920713D01*
X112479391Y-37929559D01*
X112479391Y-38347032D01*
X112479392Y-38347038D01*
X112485799Y-38406645D01*
X112536093Y-38541490D01*
X112536097Y-38541497D01*
X112622343Y-38656706D01*
X112622346Y-38656709D01*
X112737555Y-38742955D01*
X112737562Y-38742959D01*
X112872408Y-38793253D01*
X112872407Y-38793253D01*
X112879198Y-38793983D01*
X112932018Y-38799662D01*
X114372148Y-38799661D01*
X114439185Y-38819346D01*
X114484940Y-38872149D01*
X114494884Y-38941308D01*
X114465859Y-39004864D01*
X114407081Y-39042638D01*
X114402984Y-39043765D01*
X114136780Y-39112115D01*
X113856008Y-39223279D01*
X113856000Y-39223283D01*
X113591370Y-39368764D01*
X113591352Y-39368776D01*
X113366456Y-39532172D01*
X113366455Y-39532174D01*
X114118517Y-40284236D01*
X114008813Y-40361052D01*
X113841781Y-40528084D01*
X113764964Y-40637788D01*
X113015203Y-39888026D01*
X112934407Y-39985692D01*
X112772598Y-40240664D01*
X112772595Y-40240670D01*
X112644018Y-40513909D01*
X112644016Y-40513914D01*
X112550696Y-40801121D01*
X112494107Y-41097771D01*
X112494106Y-41097778D01*
X112475146Y-41399156D01*
X112475146Y-41399167D01*
X112494106Y-41700545D01*
X112494107Y-41700552D01*
X112550696Y-41997202D01*
X112644016Y-42284409D01*
X112644018Y-42284414D01*
X112772595Y-42557653D01*
X112772598Y-42557659D01*
X112934404Y-42812626D01*
X113015203Y-42910295D01*
X113764964Y-42160534D01*
X113841781Y-42270240D01*
X114008813Y-42437272D01*
X114118517Y-42514087D01*
X113366455Y-43266148D01*
X113591365Y-43429555D01*
X113591376Y-43429562D01*
X113856000Y-43575040D01*
X113856008Y-43575044D01*
X114136780Y-43686209D01*
X114136783Y-43686210D01*
X114429290Y-43761312D01*
X114728886Y-43799161D01*
X114728898Y-43799162D01*
X115030884Y-43799162D01*
X115030895Y-43799161D01*
X115330491Y-43761312D01*
X115622998Y-43686210D01*
X115623001Y-43686209D01*
X115903773Y-43575044D01*
X115903781Y-43575040D01*
X116168405Y-43429562D01*
X116168416Y-43429555D01*
X116393324Y-43266148D01*
X116393325Y-43266148D01*
X115641264Y-42514087D01*
X115750969Y-42437272D01*
X115918001Y-42270240D01*
X115994817Y-42160535D01*
X116744577Y-42910295D01*
X116825374Y-42812631D01*
X116987183Y-42557659D01*
X116987186Y-42557653D01*
X117115763Y-42284414D01*
X117115765Y-42284409D01*
X117209085Y-41997202D01*
X117265674Y-41700552D01*
X117265675Y-41700545D01*
X117284636Y-41399167D01*
X117284636Y-41399156D01*
X117265675Y-41097778D01*
X117265674Y-41097771D01*
X117209085Y-40801121D01*
X117115765Y-40513914D01*
X117115763Y-40513909D01*
X116987186Y-40240670D01*
X116987183Y-40240664D01*
X116825377Y-39985697D01*
X116744576Y-39888026D01*
X115994816Y-40637787D01*
X115918001Y-40528084D01*
X115750969Y-40361052D01*
X115641264Y-40284235D01*
X116393325Y-39532174D01*
X116168421Y-39368771D01*
X116168411Y-39368764D01*
X115903781Y-39223283D01*
X115903773Y-39223279D01*
X115623002Y-39112115D01*
X115356796Y-39043765D01*
X115296759Y-39008027D01*
X115265573Y-38945503D01*
X115273141Y-38876045D01*
X115317059Y-38821704D01*
X115383385Y-38799734D01*
X115387612Y-38799661D01*
X116827763Y-38799661D01*
X116887374Y-38793253D01*
X117022222Y-38742958D01*
X117137437Y-38656708D01*
X117223687Y-38541493D01*
X117273982Y-38406645D01*
X117280391Y-38347035D01*
X117280390Y-34451290D01*
X117275175Y-34402777D01*
X117273982Y-34391678D01*
X117223688Y-34256833D01*
X117223684Y-34256826D01*
X117137438Y-34141617D01*
X117137435Y-34141614D01*
X117022226Y-34055368D01*
X117022219Y-34055364D01*
X116887373Y-34005070D01*
X116887374Y-34005070D01*
X116827774Y-33998663D01*
X116827772Y-33998662D01*
X116827764Y-33998662D01*
X116827755Y-33998662D01*
X112932020Y-33998662D01*
X112932014Y-33998663D01*
X112872407Y-34005070D01*
X112737562Y-34055364D01*
X112737555Y-34055368D01*
X112622346Y-34141614D01*
X112622343Y-34141617D01*
X112536097Y-34256826D01*
X112536093Y-34256833D01*
X112485799Y-34391679D01*
X112479392Y-34451278D01*
X112479390Y-34451297D01*
X112479391Y-35809655D01*
X112459706Y-35876694D01*
X112443072Y-35897336D01*
X112425253Y-35915155D01*
X112410463Y-35927788D01*
X112394251Y-35939567D01*
X112394249Y-35939569D01*
X112364548Y-35975471D01*
X112360615Y-35979793D01*
X110692181Y-37648227D01*
X110630858Y-37681712D01*
X110561166Y-37676728D01*
X110505233Y-37634856D01*
X110480816Y-37569392D01*
X110480500Y-37560546D01*
X110480500Y-33330451D01*
X110500185Y-33263412D01*
X110516819Y-33242770D01*
X110712771Y-33046819D01*
X110774094Y-33013334D01*
X110800452Y-33010500D01*
X111942345Y-33010500D01*
X111957965Y-33012224D01*
X111957992Y-33011939D01*
X111965748Y-33012671D01*
X111965755Y-33012673D01*
X112034902Y-33010500D01*
X112064438Y-33010500D01*
X112071316Y-33009630D01*
X112077129Y-33009172D01*
X112123715Y-33007709D01*
X112142957Y-33002117D01*
X112162000Y-32998174D01*
X112181880Y-32995664D01*
X112225210Y-32978507D01*
X112230734Y-32976617D01*
X112234484Y-32975527D01*
X112275478Y-32963618D01*
X112292717Y-32953422D01*
X112310191Y-32944862D01*
X112328815Y-32937488D01*
X112328815Y-32937487D01*
X112328820Y-32937486D01*
X112366537Y-32910082D01*
X112371393Y-32906892D01*
X112411508Y-32883170D01*
X112425677Y-32868999D01*
X112440467Y-32856368D01*
X112456675Y-32844594D01*
X112486387Y-32808676D01*
X112490300Y-32804376D01*
X112650195Y-32644481D01*
X112711515Y-32610999D01*
X112781207Y-32615983D01*
X112802964Y-32626623D01*
X112893254Y-32682314D01*
X113059791Y-32737499D01*
X113162579Y-32748000D01*
X114762596Y-32747999D01*
X114865385Y-32737499D01*
X115031922Y-32682314D01*
X115181244Y-32590212D01*
X115305300Y-32466156D01*
X115397402Y-32316834D01*
X115452587Y-32150297D01*
X115463088Y-32047509D01*
X115463087Y-28847492D01*
X115452587Y-28744703D01*
X115397402Y-28578166D01*
X115305300Y-28428844D01*
X115181244Y-28304788D01*
X115045265Y-28220916D01*
X115031924Y-28212687D01*
X115031919Y-28212685D01*
X115030450Y-28212198D01*
X114865385Y-28157501D01*
X114865383Y-28157500D01*
X114762598Y-28147000D01*
X113162586Y-28147000D01*
X113162569Y-28147001D01*
X113059791Y-28157500D01*
X113059788Y-28157501D01*
X112893256Y-28212685D01*
X112893251Y-28212687D01*
X112743930Y-28304789D01*
X112619877Y-28428842D01*
X112527775Y-28578163D01*
X112527773Y-28578168D01*
X112517004Y-28610668D01*
X112472589Y-28744703D01*
X112472589Y-28744704D01*
X112472588Y-28744704D01*
X112462088Y-28847483D01*
X112462088Y-31012046D01*
X112442403Y-31079085D01*
X112425769Y-31099727D01*
X111802316Y-31723181D01*
X111740993Y-31756666D01*
X111714635Y-31759500D01*
X110572743Y-31759500D01*
X110557122Y-31757775D01*
X110557095Y-31758061D01*
X110549327Y-31757326D01*
X110544494Y-31757478D01*
X110476871Y-31739904D01*
X110429483Y-31688560D01*
X110417377Y-31619747D01*
X110420403Y-31603098D01*
X110447693Y-31495333D01*
X110447695Y-31495324D01*
X110447696Y-31495321D01*
X110449791Y-31470046D01*
X110463088Y-31309565D01*
X110463088Y-29585435D01*
X110447697Y-29399686D01*
X110447695Y-29399675D01*
X110386651Y-29158618D01*
X110286761Y-28930893D01*
X110150754Y-28722717D01*
X110129145Y-28699244D01*
X109982332Y-28539762D01*
X109786097Y-28387026D01*
X109786095Y-28387025D01*
X109786094Y-28387024D01*
X109567399Y-28268672D01*
X109567390Y-28268669D01*
X109332204Y-28187929D01*
X109086923Y-28147000D01*
X108838253Y-28147000D01*
X108592971Y-28187929D01*
X108357785Y-28268669D01*
X108357776Y-28268672D01*
X108139081Y-28387024D01*
X107942845Y-28539761D01*
X107774421Y-28722717D01*
X107638414Y-28930893D01*
X107538524Y-29158618D01*
X107477480Y-29399675D01*
X107477478Y-29399686D01*
X107462088Y-29585435D01*
X107462088Y-31309565D01*
X107477478Y-31495313D01*
X107477480Y-31495324D01*
X107538524Y-31736381D01*
X107638414Y-31964106D01*
X107774421Y-32172282D01*
X107774424Y-32172285D01*
X107942844Y-32355238D01*
X108045548Y-32435176D01*
X108139076Y-32507972D01*
X108139081Y-32507975D01*
X108272105Y-32579964D01*
X108321696Y-32629183D01*
X108337088Y-32689019D01*
X108337088Y-38681959D01*
X108317403Y-38748998D01*
X108300769Y-38769640D01*
X108002228Y-39068181D01*
X107940905Y-39101666D01*
X107914547Y-39104500D01*
X107855354Y-39104500D01*
X107829328Y-39110032D01*
X107670197Y-39143855D01*
X107670192Y-39143857D01*
X107497270Y-39220848D01*
X107491637Y-39224101D01*
X107490145Y-39221517D01*
X107436483Y-39240617D01*
X107368441Y-39224739D01*
X107319785Y-39174595D01*
X107305500Y-39116814D01*
X107305500Y-37375845D01*
X107325185Y-37308806D01*
X107377989Y-37263051D01*
X107386167Y-37259663D01*
X107482328Y-37223797D01*
X107482327Y-37223797D01*
X107482331Y-37223796D01*
X107597546Y-37137546D01*
X107683796Y-37022331D01*
X107734091Y-36887483D01*
X107740500Y-36827873D01*
X107740499Y-34292128D01*
X107734091Y-34232517D01*
X107728845Y-34218453D01*
X107683797Y-34097671D01*
X107683793Y-34097664D01*
X107597547Y-33982455D01*
X107597544Y-33982452D01*
X107482335Y-33896206D01*
X107482328Y-33896202D01*
X107347482Y-33845908D01*
X107347483Y-33845908D01*
X107287883Y-33839501D01*
X107287881Y-33839500D01*
X107287873Y-33839500D01*
X107287864Y-33839500D01*
X106072129Y-33839500D01*
X106072123Y-33839501D01*
X106012516Y-33845908D01*
X105877671Y-33896202D01*
X105877664Y-33896206D01*
X105762455Y-33982452D01*
X105762452Y-33982455D01*
X105676206Y-34097664D01*
X105676202Y-34097671D01*
X105625908Y-34232517D01*
X105621050Y-34277709D01*
X105619501Y-34292123D01*
X105619500Y-34292135D01*
X105619500Y-36827870D01*
X105619501Y-36827876D01*
X105625908Y-36887483D01*
X105676202Y-37022328D01*
X105676206Y-37022335D01*
X105762452Y-37137544D01*
X105762455Y-37137547D01*
X105877664Y-37223793D01*
X105877671Y-37223797D01*
X105973833Y-37259663D01*
X106029767Y-37301534D01*
X106054184Y-37366998D01*
X106054500Y-37375845D01*
X106054500Y-40341450D01*
X106034815Y-40408489D01*
X105982011Y-40454244D01*
X105956281Y-40462740D01*
X105765197Y-40503355D01*
X105765192Y-40503357D01*
X105592270Y-40580348D01*
X105592265Y-40580351D01*
X105439129Y-40691611D01*
X105312466Y-40832285D01*
X105217821Y-40996215D01*
X105217818Y-40996222D01*
X105159327Y-41176240D01*
X105159326Y-41176244D01*
X105139540Y-41364500D01*
X99050500Y-41364500D01*
X99050500Y-38735000D01*
X100059540Y-38735000D01*
X100079326Y-38923256D01*
X100079327Y-38923259D01*
X100137818Y-39103277D01*
X100137821Y-39103284D01*
X100232467Y-39267216D01*
X100342788Y-39389739D01*
X100359129Y-39407888D01*
X100512265Y-39519148D01*
X100512270Y-39519151D01*
X100685192Y-39596142D01*
X100685197Y-39596144D01*
X100870354Y-39635500D01*
X100870355Y-39635500D01*
X101059644Y-39635500D01*
X101059646Y-39635500D01*
X101244803Y-39596144D01*
X101417730Y-39519151D01*
X101570871Y-39407888D01*
X101604986Y-39370000D01*
X102599540Y-39370000D01*
X102619326Y-39558256D01*
X102619642Y-39559228D01*
X102677818Y-39738277D01*
X102677821Y-39738284D01*
X102772467Y-39902216D01*
X102872154Y-40012929D01*
X102899129Y-40042888D01*
X103052265Y-40154148D01*
X103052270Y-40154151D01*
X103225192Y-40231142D01*
X103225197Y-40231144D01*
X103410354Y-40270500D01*
X103410355Y-40270500D01*
X103599644Y-40270500D01*
X103599646Y-40270500D01*
X103784803Y-40231144D01*
X103957730Y-40154151D01*
X104110871Y-40042888D01*
X104237533Y-39902216D01*
X104332179Y-39738284D01*
X104390674Y-39558256D01*
X104408321Y-39390345D01*
X104434905Y-39325732D01*
X104443952Y-39315636D01*
X104523786Y-39235802D01*
X104536048Y-39225980D01*
X104535865Y-39225759D01*
X104541867Y-39220792D01*
X104541877Y-39220786D01*
X104589241Y-39170348D01*
X104610120Y-39149470D01*
X104614373Y-39143986D01*
X104618150Y-39139563D01*
X104650062Y-39105582D01*
X104659714Y-39088023D01*
X104670389Y-39071772D01*
X104682674Y-39055936D01*
X104701186Y-39013152D01*
X104703742Y-39007935D01*
X104724952Y-38969357D01*
X104726194Y-38967098D01*
X104726194Y-38967097D01*
X104726197Y-38967092D01*
X104731180Y-38947680D01*
X104737477Y-38929291D01*
X104745438Y-38910895D01*
X104752729Y-38864853D01*
X104753908Y-38859162D01*
X104765500Y-38814019D01*
X104765500Y-38793982D01*
X104767027Y-38774582D01*
X104767810Y-38769640D01*
X104770160Y-38754804D01*
X104765775Y-38708415D01*
X104765500Y-38702577D01*
X104765500Y-37375845D01*
X104785185Y-37308806D01*
X104837989Y-37263051D01*
X104846167Y-37259663D01*
X104942328Y-37223797D01*
X104942327Y-37223797D01*
X104942331Y-37223796D01*
X105057546Y-37137546D01*
X105143796Y-37022331D01*
X105194091Y-36887483D01*
X105200500Y-36827873D01*
X105200499Y-34292128D01*
X105194091Y-34232517D01*
X105188845Y-34218453D01*
X105143797Y-34097671D01*
X105143793Y-34097664D01*
X105057547Y-33982455D01*
X105057544Y-33982452D01*
X104942335Y-33896206D01*
X104942328Y-33896202D01*
X104807482Y-33845908D01*
X104807483Y-33845908D01*
X104747883Y-33839501D01*
X104747881Y-33839500D01*
X104747873Y-33839500D01*
X104747864Y-33839500D01*
X103532129Y-33839500D01*
X103532123Y-33839501D01*
X103472516Y-33845908D01*
X103337671Y-33896202D01*
X103337664Y-33896206D01*
X103222455Y-33982452D01*
X103222452Y-33982455D01*
X103136206Y-34097664D01*
X103136202Y-34097671D01*
X103085908Y-34232517D01*
X103081050Y-34277709D01*
X103079501Y-34292123D01*
X103079500Y-34292135D01*
X103079500Y-36827870D01*
X103079501Y-36827876D01*
X103085908Y-36887483D01*
X103136202Y-37022328D01*
X103136206Y-37022335D01*
X103222452Y-37137544D01*
X103222455Y-37137547D01*
X103337664Y-37223793D01*
X103337671Y-37223797D01*
X103433832Y-37259663D01*
X103489766Y-37301534D01*
X103514183Y-37366999D01*
X103514499Y-37375845D01*
X103514500Y-38346950D01*
X103494816Y-38413989D01*
X103442012Y-38459744D01*
X103416281Y-38468240D01*
X103225197Y-38508855D01*
X103225192Y-38508857D01*
X103052270Y-38585848D01*
X103052265Y-38585851D01*
X102899129Y-38697111D01*
X102772466Y-38837785D01*
X102677821Y-39001715D01*
X102677818Y-39001722D01*
X102621649Y-39174595D01*
X102619326Y-39181744D01*
X102599540Y-39370000D01*
X101604986Y-39370000D01*
X101697533Y-39267216D01*
X101792179Y-39103284D01*
X101850674Y-38923256D01*
X101868321Y-38755345D01*
X101894905Y-38690732D01*
X101903952Y-38680636D01*
X101983786Y-38600802D01*
X101996048Y-38590980D01*
X101995865Y-38590759D01*
X102001867Y-38585792D01*
X102001877Y-38585786D01*
X102049241Y-38535348D01*
X102070120Y-38514470D01*
X102074373Y-38508986D01*
X102078150Y-38504563D01*
X102110062Y-38470582D01*
X102119714Y-38453023D01*
X102130389Y-38436772D01*
X102142674Y-38420936D01*
X102161186Y-38378152D01*
X102163742Y-38372935D01*
X102186197Y-38332092D01*
X102191180Y-38312680D01*
X102197477Y-38294291D01*
X102205438Y-38275895D01*
X102212729Y-38229853D01*
X102213908Y-38224162D01*
X102225500Y-38179019D01*
X102225500Y-38158982D01*
X102227027Y-38139582D01*
X102230160Y-38119804D01*
X102225775Y-38073415D01*
X102225500Y-38067577D01*
X102225500Y-37375845D01*
X102245185Y-37308806D01*
X102297989Y-37263051D01*
X102306167Y-37259663D01*
X102402328Y-37223797D01*
X102402327Y-37223797D01*
X102402331Y-37223796D01*
X102517546Y-37137546D01*
X102603796Y-37022331D01*
X102654091Y-36887483D01*
X102660500Y-36827873D01*
X102660499Y-34292128D01*
X102654091Y-34232517D01*
X102648845Y-34218453D01*
X102603797Y-34097671D01*
X102603793Y-34097664D01*
X102517547Y-33982455D01*
X102517544Y-33982452D01*
X102402335Y-33896206D01*
X102402328Y-33896202D01*
X102267482Y-33845908D01*
X102267483Y-33845908D01*
X102207883Y-33839501D01*
X102207881Y-33839500D01*
X102207873Y-33839500D01*
X102207864Y-33839500D01*
X100992129Y-33839500D01*
X100992123Y-33839501D01*
X100932516Y-33845908D01*
X100797671Y-33896202D01*
X100797664Y-33896206D01*
X100682455Y-33982452D01*
X100682452Y-33982455D01*
X100596206Y-34097664D01*
X100596202Y-34097671D01*
X100545908Y-34232517D01*
X100541050Y-34277709D01*
X100539501Y-34292123D01*
X100539500Y-34292135D01*
X100539500Y-36827870D01*
X100539501Y-36827876D01*
X100545908Y-36887483D01*
X100596202Y-37022328D01*
X100596206Y-37022335D01*
X100682452Y-37137544D01*
X100682455Y-37137547D01*
X100797664Y-37223793D01*
X100797671Y-37223797D01*
X100893833Y-37259663D01*
X100949767Y-37301534D01*
X100974184Y-37366998D01*
X100974500Y-37375845D01*
X100974500Y-37711950D01*
X100954815Y-37778989D01*
X100902011Y-37824744D01*
X100876281Y-37833240D01*
X100685197Y-37873855D01*
X100685192Y-37873857D01*
X100512270Y-37950848D01*
X100512265Y-37950851D01*
X100359129Y-38062111D01*
X100232466Y-38202785D01*
X100137821Y-38366715D01*
X100137818Y-38366722D01*
X100081033Y-38541490D01*
X100079326Y-38546744D01*
X100059540Y-38735000D01*
X99050500Y-38735000D01*
X99050500Y-33555540D01*
X99070185Y-33488501D01*
X99086819Y-33467859D01*
X99493190Y-33061488D01*
X99910195Y-32644482D01*
X99971516Y-32610999D01*
X100041207Y-32615983D01*
X100062968Y-32626625D01*
X100096807Y-32647498D01*
X100153245Y-32682309D01*
X100153248Y-32682310D01*
X100153254Y-32682314D01*
X100319791Y-32737499D01*
X100422579Y-32748000D01*
X102022596Y-32747999D01*
X102125385Y-32737499D01*
X102291922Y-32682314D01*
X102441244Y-32590212D01*
X102565300Y-32466156D01*
X102657402Y-32316834D01*
X102712587Y-32150297D01*
X102723088Y-32047509D01*
X102723087Y-28847492D01*
X102712587Y-28744703D01*
X102657402Y-28578166D01*
X102565300Y-28428844D01*
X102441244Y-28304788D01*
X102305265Y-28220916D01*
X102291924Y-28212687D01*
X102291919Y-28212685D01*
X102290450Y-28212198D01*
X102125385Y-28157501D01*
X102125383Y-28157500D01*
X102022598Y-28147000D01*
X100422586Y-28147000D01*
X100422569Y-28147001D01*
X100319791Y-28157500D01*
X100319788Y-28157501D01*
X100153256Y-28212685D01*
X100153251Y-28212687D01*
X100003930Y-28304789D01*
X99879877Y-28428842D01*
X99787775Y-28578163D01*
X99787773Y-28578168D01*
X99777004Y-28610668D01*
X99732589Y-28744703D01*
X99732589Y-28744704D01*
X99732588Y-28744704D01*
X99722088Y-28847483D01*
X99722087Y-28847496D01*
X99722087Y-31012046D01*
X99702402Y-31079086D01*
X99685768Y-31099727D01*
X98041208Y-32744287D01*
X98028951Y-32754108D01*
X98029134Y-32754329D01*
X98023123Y-32759301D01*
X97975772Y-32809724D01*
X97954889Y-32830607D01*
X97954877Y-32830620D01*
X97950621Y-32836105D01*
X97946837Y-32840535D01*
X97914937Y-32874506D01*
X97914936Y-32874508D01*
X97905284Y-32892064D01*
X97894610Y-32908314D01*
X97882329Y-32924149D01*
X97882324Y-32924156D01*
X97863815Y-32966926D01*
X97861245Y-32972172D01*
X97838803Y-33012994D01*
X97833822Y-33032395D01*
X97827521Y-33050798D01*
X97819562Y-33069190D01*
X97819561Y-33069193D01*
X97812271Y-33115215D01*
X97811087Y-33120934D01*
X97799501Y-33166060D01*
X97799500Y-33166070D01*
X97799500Y-33186104D01*
X97797973Y-33205503D01*
X97794840Y-33225282D01*
X97794840Y-33225283D01*
X97799225Y-33271671D01*
X97799500Y-33277509D01*
X97799500Y-36315058D01*
X97779815Y-36382097D01*
X97727011Y-36427852D01*
X97657853Y-36437796D01*
X97594297Y-36408771D01*
X97569964Y-36380158D01*
X97567454Y-36376089D01*
X97567449Y-36376083D01*
X97443478Y-36252112D01*
X97294257Y-36160071D01*
X97294252Y-36160069D01*
X97127830Y-36104922D01*
X97127823Y-36104921D01*
X97025119Y-36094428D01*
X96750133Y-36094428D01*
X96750133Y-37307928D01*
X96730448Y-37374967D01*
X96677644Y-37420722D01*
X96626133Y-37431928D01*
X95275134Y-37431928D01*
X95275134Y-37569414D01*
X95285627Y-37672125D01*
X95340774Y-37838547D01*
X95340776Y-37838552D01*
X95432817Y-37987773D01*
X95556788Y-38111744D01*
X95556792Y-38111747D01*
X95559789Y-38113596D01*
X95561412Y-38115400D01*
X95562456Y-38116226D01*
X95562314Y-38116404D01*
X95606514Y-38165544D01*
X95617735Y-38234507D01*
X95589892Y-38298589D01*
X95559794Y-38324669D01*
X95556482Y-38326711D01*
X95556476Y-38326716D01*
X95432422Y-38450770D01*
X95420202Y-38470582D01*
X95358377Y-38570818D01*
X95357324Y-38572525D01*
X95305376Y-38619249D01*
X95251785Y-38631428D01*
X95149019Y-38631428D01*
X95081980Y-38611743D01*
X95036225Y-38558939D01*
X95025019Y-38507428D01*
X95025019Y-38494772D01*
X95026546Y-38475371D01*
X95029679Y-38455593D01*
X95025294Y-38409204D01*
X95025019Y-38403366D01*
X95025019Y-36931927D01*
X95275132Y-36931927D01*
X95275133Y-36931928D01*
X96250133Y-36931928D01*
X96250133Y-36094428D01*
X95975162Y-36094428D01*
X95975145Y-36094429D01*
X95872435Y-36104922D01*
X95706013Y-36160069D01*
X95706008Y-36160071D01*
X95556787Y-36252112D01*
X95432817Y-36376082D01*
X95340776Y-36525303D01*
X95340774Y-36525308D01*
X95285627Y-36691730D01*
X95285626Y-36691737D01*
X95275133Y-36794441D01*
X95275133Y-36794454D01*
X95275132Y-36931927D01*
X95025019Y-36931927D01*
X95025019Y-35899696D01*
X95044704Y-35832657D01*
X95056869Y-35816724D01*
X95085169Y-35785293D01*
X95132052Y-35733225D01*
X95226698Y-35569293D01*
X95285193Y-35389265D01*
X95304979Y-35201009D01*
X95285193Y-35012753D01*
X95226698Y-34832725D01*
X95132052Y-34668793D01*
X95005390Y-34528121D01*
X95004822Y-34527708D01*
X94871830Y-34431084D01*
X94829164Y-34375754D01*
X94823185Y-34306141D01*
X94855791Y-34244346D01*
X94881582Y-34224041D01*
X94882629Y-34223422D01*
X94900103Y-34214862D01*
X94918727Y-34207488D01*
X94918727Y-34207487D01*
X94918732Y-34207486D01*
X94956449Y-34180082D01*
X94961305Y-34176892D01*
X95001420Y-34153170D01*
X95015589Y-34138999D01*
X95030379Y-34126368D01*
X95046587Y-34114594D01*
X95076299Y-34078676D01*
X95080212Y-34074376D01*
X96390452Y-32764136D01*
X96451773Y-32730653D01*
X96457693Y-32729515D01*
X96592202Y-32707071D01*
X96827398Y-32626328D01*
X97046097Y-32507974D01*
X97242332Y-32355238D01*
X97410752Y-32172285D01*
X97546761Y-31964107D01*
X97646651Y-31736381D01*
X97707696Y-31495321D01*
X97709791Y-31470046D01*
X97723088Y-31309565D01*
X97723088Y-29585435D01*
X97707697Y-29399686D01*
X97707695Y-29399675D01*
X97646651Y-29158618D01*
X97546761Y-28930893D01*
X97410754Y-28722717D01*
X97389145Y-28699244D01*
X97242332Y-28539762D01*
X97046097Y-28387026D01*
X97046095Y-28387025D01*
X97046094Y-28387024D01*
X96827399Y-28268672D01*
X96827390Y-28268669D01*
X96592204Y-28187929D01*
X96346923Y-28147000D01*
X96098253Y-28147000D01*
X95852971Y-28187929D01*
X95617785Y-28268669D01*
X95617776Y-28268672D01*
X95399081Y-28387024D01*
X95202845Y-28539761D01*
X95034421Y-28722717D01*
X94898414Y-28930893D01*
X94798524Y-29158618D01*
X94737480Y-29399675D01*
X94737478Y-29399686D01*
X94722088Y-29585435D01*
X94722088Y-31309565D01*
X94737478Y-31495313D01*
X94737480Y-31495324D01*
X94798524Y-31736381D01*
X94898414Y-31964106D01*
X95034421Y-32172282D01*
X95034424Y-32172285D01*
X95039495Y-32177794D01*
X95070418Y-32240447D01*
X95062560Y-32309873D01*
X95035948Y-32349459D01*
X94927308Y-32458099D01*
X94865985Y-32491584D01*
X94796293Y-32486600D01*
X94740360Y-32444728D01*
X94732244Y-32432424D01*
X94712533Y-32398284D01*
X94585871Y-32257612D01*
X94585870Y-32257611D01*
X94432734Y-32146351D01*
X94432729Y-32146348D01*
X94259807Y-32069357D01*
X94259802Y-32069355D01*
X94114000Y-32038365D01*
X94074646Y-32030000D01*
X93885354Y-32030000D01*
X93852897Y-32036898D01*
X93700197Y-32069355D01*
X93700192Y-32069357D01*
X93527270Y-32146348D01*
X93527265Y-32146351D01*
X93374130Y-32257610D01*
X93374126Y-32257614D01*
X93368400Y-32263974D01*
X93308913Y-32300621D01*
X93276252Y-32305000D01*
X92552580Y-32305000D01*
X92485541Y-32285315D01*
X92439786Y-32232511D01*
X92429842Y-32163353D01*
X92448771Y-32113179D01*
X92546320Y-31963867D01*
X92646175Y-31736217D01*
X92707200Y-31495238D01*
X92707202Y-31495230D01*
X92722588Y-31309541D01*
X92722588Y-30697500D01*
X91881917Y-30697500D01*
X91922588Y-30532495D01*
X91922588Y-30362505D01*
X91881917Y-30197500D01*
X92722588Y-30197500D01*
X92722588Y-29585459D01*
X92707202Y-29399769D01*
X92707200Y-29399761D01*
X92646175Y-29158782D01*
X92546320Y-28931132D01*
X92410355Y-28723021D01*
X92241995Y-28540135D01*
X92241985Y-28540126D01*
X92045825Y-28387448D01*
X92045816Y-28387442D01*
X91827202Y-28269135D01*
X91827191Y-28269130D01*
X91592080Y-28188416D01*
X91472588Y-28168476D01*
X91472588Y-29793662D01*
X91391339Y-29762849D01*
X91264928Y-29747500D01*
X91180248Y-29747500D01*
X91053837Y-29762849D01*
X90972588Y-29793662D01*
X90972588Y-28168476D01*
X90972587Y-28168476D01*
X90853095Y-28188416D01*
X90617984Y-28269130D01*
X90617973Y-28269135D01*
X90399359Y-28387442D01*
X90399350Y-28387448D01*
X90203190Y-28540126D01*
X90203180Y-28540135D01*
X90034820Y-28723021D01*
X89898855Y-28931132D01*
X89799000Y-29158782D01*
X89737975Y-29399761D01*
X89737973Y-29399769D01*
X89722588Y-29585459D01*
X89722588Y-30197500D01*
X90563259Y-30197500D01*
X90522588Y-30362505D01*
X90522588Y-30532495D01*
X90563259Y-30697500D01*
X89722588Y-30697500D01*
X89722588Y-31309541D01*
X89737973Y-31495230D01*
X89737975Y-31495238D01*
X89799000Y-31736217D01*
X89898855Y-31963867D01*
X89996405Y-32113179D01*
X90016592Y-32180068D01*
X89997412Y-32247254D01*
X89944953Y-32293404D01*
X89892596Y-32305000D01*
X76260953Y-32305000D01*
X76193914Y-32285315D01*
X76173272Y-32268681D01*
X75036818Y-31132226D01*
X75003333Y-31070903D01*
X75000499Y-31044545D01*
X75000499Y-28879998D01*
X75000498Y-28879981D01*
X74989999Y-28777203D01*
X74989998Y-28777200D01*
X74982814Y-28755521D01*
X74934814Y-28610666D01*
X74842712Y-28461344D01*
X74718656Y-28337288D01*
X74569334Y-28245186D01*
X74402797Y-28190001D01*
X74402795Y-28190000D01*
X74300010Y-28179500D01*
X72699998Y-28179500D01*
X72699981Y-28179501D01*
X72597203Y-28190000D01*
X72597200Y-28190001D01*
X72430668Y-28245185D01*
X72430663Y-28245187D01*
X72281342Y-28337289D01*
X72157289Y-28461342D01*
X72065187Y-28610663D01*
X72065185Y-28610666D01*
X72065186Y-28610666D01*
X72010001Y-28777203D01*
X72010001Y-28777204D01*
X72010000Y-28777204D01*
X71999500Y-28879983D01*
X71999500Y-32080001D01*
X71999501Y-32080018D01*
X72010000Y-32182796D01*
X72010001Y-32182799D01*
X72065185Y-32349331D01*
X72065187Y-32349336D01*
X72088874Y-32387738D01*
X72157288Y-32498656D01*
X72281344Y-32622712D01*
X72430666Y-32714814D01*
X72597203Y-32769999D01*
X72699991Y-32780500D01*
X73457073Y-32780499D01*
X73481511Y-32787675D01*
X73491049Y-32782752D01*
X73514574Y-32780499D01*
X74300008Y-32780499D01*
X74402797Y-32769999D01*
X74569334Y-32714814D01*
X74659618Y-32659126D01*
X74727009Y-32640687D01*
X74793672Y-32661609D01*
X74812394Y-32676985D01*
X74953228Y-32817819D01*
X74986713Y-32879142D01*
X74981729Y-32948834D01*
X74939857Y-33004767D01*
X74874393Y-33029184D01*
X74865547Y-33029500D01*
X73519743Y-33029500D01*
X73504075Y-33027770D01*
X73504048Y-33028057D01*
X73502858Y-33027944D01*
X73501793Y-33027518D01*
X73492695Y-33026514D01*
X73488722Y-33025626D01*
X73489098Y-33023940D01*
X73460969Y-33028438D01*
X73430029Y-33029410D01*
X73427186Y-33029500D01*
X73397649Y-33029500D01*
X73390766Y-33030369D01*
X73384949Y-33030826D01*
X73338373Y-33032290D01*
X73319129Y-33037881D01*
X73300079Y-33041825D01*
X73280211Y-33044334D01*
X73236884Y-33061488D01*
X73231358Y-33063379D01*
X73186614Y-33076379D01*
X73186610Y-33076381D01*
X73169366Y-33086579D01*
X73151905Y-33095133D01*
X73133274Y-33102510D01*
X73133262Y-33102517D01*
X73095570Y-33129902D01*
X73090687Y-33133109D01*
X73050580Y-33156829D01*
X73036414Y-33170995D01*
X73021624Y-33183627D01*
X73005414Y-33195404D01*
X73005411Y-33195407D01*
X72975710Y-33231309D01*
X72971777Y-33235631D01*
X72001869Y-34205538D01*
X71940546Y-34239023D01*
X71873925Y-34235138D01*
X71868015Y-34233109D01*
X71702790Y-34205538D01*
X71645033Y-34195900D01*
X71418967Y-34195900D01*
X71374370Y-34203341D01*
X71195982Y-34233109D01*
X70982172Y-34306510D01*
X70982167Y-34306512D01*
X70783352Y-34414106D01*
X70604955Y-34552959D01*
X70604950Y-34552963D01*
X70451850Y-34719272D01*
X70451842Y-34719283D01*
X70365808Y-34850968D01*
X70312662Y-34896325D01*
X70243430Y-34905748D01*
X70180095Y-34876246D01*
X70158192Y-34850968D01*
X70072157Y-34719283D01*
X70072149Y-34719272D01*
X69919049Y-34552963D01*
X69919048Y-34552962D01*
X69919046Y-34552960D01*
X69740649Y-34414107D01*
X69673135Y-34377570D01*
X69541832Y-34306512D01*
X69541827Y-34306510D01*
X69328017Y-34233109D01*
X69160778Y-34205202D01*
X69105033Y-34195900D01*
X68878967Y-34195900D01*
X68834370Y-34203341D01*
X68655982Y-34233109D01*
X68442172Y-34306510D01*
X68442167Y-34306512D01*
X68243352Y-34414106D01*
X68064955Y-34552959D01*
X68064950Y-34552963D01*
X67911850Y-34719272D01*
X67911842Y-34719283D01*
X67825808Y-34850968D01*
X67772662Y-34896325D01*
X67703430Y-34905748D01*
X67640095Y-34876246D01*
X67618192Y-34850968D01*
X67532157Y-34719283D01*
X67532149Y-34719272D01*
X67379049Y-34552963D01*
X67379048Y-34552962D01*
X67379046Y-34552960D01*
X67200649Y-34414107D01*
X67133135Y-34377570D01*
X67001832Y-34306512D01*
X67001827Y-34306510D01*
X66788017Y-34233109D01*
X66620778Y-34205202D01*
X66565033Y-34195900D01*
X66338967Y-34195900D01*
X66294370Y-34203341D01*
X66115982Y-34233109D01*
X65902172Y-34306510D01*
X65902152Y-34306519D01*
X65900725Y-34307292D01*
X65900074Y-34307430D01*
X65897466Y-34308575D01*
X65897230Y-34308038D01*
X65832395Y-34321881D01*
X65767026Y-34297212D01*
X65725370Y-34241118D01*
X65720654Y-34171407D01*
X65754035Y-34110553D01*
X67400913Y-32463675D01*
X67462234Y-32430192D01*
X67531926Y-32435176D01*
X67564749Y-32453501D01*
X67676491Y-32540474D01*
X67835135Y-32626328D01*
X67894332Y-32658364D01*
X67895190Y-32658828D01*
X68068079Y-32718181D01*
X68128964Y-32739083D01*
X68130386Y-32739571D01*
X68375665Y-32780500D01*
X68624335Y-32780500D01*
X68869614Y-32739571D01*
X69104810Y-32658828D01*
X69323509Y-32540474D01*
X69519744Y-32387738D01*
X69688164Y-32204785D01*
X69824173Y-31996607D01*
X69924063Y-31768881D01*
X69985108Y-31527821D01*
X69985640Y-31521408D01*
X70000500Y-31342065D01*
X70000500Y-29617935D01*
X69985109Y-29432186D01*
X69985107Y-29432175D01*
X69924063Y-29191118D01*
X69824173Y-28963393D01*
X69688166Y-28755217D01*
X69658527Y-28723021D01*
X69519744Y-28572262D01*
X69323509Y-28419526D01*
X69323507Y-28419525D01*
X69323506Y-28419524D01*
X69104811Y-28301172D01*
X69104802Y-28301169D01*
X68869616Y-28220429D01*
X68624335Y-28179500D01*
X68375665Y-28179500D01*
X68130383Y-28220429D01*
X67895197Y-28301169D01*
X67895188Y-28301172D01*
X67676493Y-28419524D01*
X67480257Y-28572261D01*
X67311833Y-28755217D01*
X67175826Y-28963393D01*
X67075936Y-29191118D01*
X67014892Y-29432175D01*
X67014890Y-29432186D01*
X66999500Y-29617935D01*
X66999499Y-31044546D01*
X66979814Y-31111586D01*
X66963180Y-31132227D01*
X64877828Y-33217581D01*
X64816505Y-33251066D01*
X64790147Y-33253900D01*
X58794185Y-33253900D01*
X58727146Y-33234215D01*
X58681391Y-33181411D01*
X58670864Y-33116942D01*
X58690460Y-32930500D01*
X58670674Y-32742244D01*
X58612179Y-32562216D01*
X58517533Y-32398284D01*
X58390871Y-32257612D01*
X58390870Y-32257611D01*
X58237734Y-32146351D01*
X58237729Y-32146348D01*
X58064807Y-32069357D01*
X58064802Y-32069355D01*
X57919001Y-32038365D01*
X57879646Y-32030000D01*
X57879645Y-32030000D01*
X57820453Y-32030000D01*
X57753414Y-32010315D01*
X57732772Y-31993681D01*
X57296818Y-31557727D01*
X57263333Y-31496404D01*
X57260499Y-31470046D01*
X57260499Y-31342041D01*
X62000000Y-31342041D01*
X62015385Y-31527730D01*
X62015387Y-31527738D01*
X62076412Y-31768717D01*
X62176267Y-31996367D01*
X62312232Y-32204478D01*
X62480592Y-32387364D01*
X62480602Y-32387373D01*
X62676762Y-32540051D01*
X62676771Y-32540057D01*
X62895385Y-32658364D01*
X62895396Y-32658369D01*
X63130507Y-32739083D01*
X63249999Y-32759023D01*
X63250000Y-32759022D01*
X63250000Y-31133837D01*
X63331249Y-31164651D01*
X63457660Y-31180000D01*
X63542340Y-31180000D01*
X63668751Y-31164651D01*
X63750000Y-31133837D01*
X63750000Y-32759023D01*
X63869492Y-32739083D01*
X64104603Y-32658369D01*
X64104614Y-32658364D01*
X64323228Y-32540057D01*
X64323237Y-32540051D01*
X64519397Y-32387373D01*
X64519407Y-32387364D01*
X64687767Y-32204478D01*
X64823732Y-31996367D01*
X64923587Y-31768717D01*
X64984612Y-31527738D01*
X64984614Y-31527730D01*
X65000000Y-31342041D01*
X65000000Y-30730000D01*
X64159329Y-30730000D01*
X64200000Y-30564995D01*
X64200000Y-30395005D01*
X64159329Y-30230000D01*
X65000000Y-30230000D01*
X65000000Y-29617959D01*
X64984614Y-29432269D01*
X64984612Y-29432261D01*
X64923587Y-29191282D01*
X64823732Y-28963632D01*
X64687767Y-28755521D01*
X64519407Y-28572635D01*
X64519397Y-28572626D01*
X64323237Y-28419948D01*
X64323228Y-28419942D01*
X64104614Y-28301635D01*
X64104603Y-28301630D01*
X63869492Y-28220916D01*
X63749999Y-28200976D01*
X63749999Y-29826162D01*
X63668751Y-29795349D01*
X63542340Y-29780000D01*
X63457660Y-29780000D01*
X63331249Y-29795349D01*
X63249999Y-29826163D01*
X63249999Y-28200976D01*
X63130507Y-28220916D01*
X62895396Y-28301630D01*
X62895385Y-28301635D01*
X62676771Y-28419942D01*
X62676762Y-28419948D01*
X62480602Y-28572626D01*
X62480592Y-28572635D01*
X62312232Y-28755521D01*
X62176267Y-28963632D01*
X62076412Y-29191282D01*
X62015387Y-29432261D01*
X62015385Y-29432269D01*
X62000000Y-29617959D01*
X62000000Y-30230000D01*
X62840671Y-30230000D01*
X62800000Y-30395005D01*
X62800000Y-30564995D01*
X62840671Y-30730000D01*
X62000000Y-30730000D01*
X62000000Y-31342041D01*
X57260499Y-31342041D01*
X57260499Y-28879998D01*
X57260498Y-28879981D01*
X57249999Y-28777203D01*
X57249998Y-28777200D01*
X57242814Y-28755521D01*
X57194814Y-28610666D01*
X57102712Y-28461344D01*
X56978656Y-28337288D01*
X56829334Y-28245186D01*
X56662797Y-28190001D01*
X56662795Y-28190000D01*
X56560010Y-28179500D01*
X54959998Y-28179500D01*
X54959981Y-28179501D01*
X54857203Y-28190000D01*
X54857200Y-28190001D01*
X54690668Y-28245185D01*
X54690663Y-28245187D01*
X54541342Y-28337289D01*
X54417289Y-28461342D01*
X54325187Y-28610663D01*
X54325185Y-28610666D01*
X54325186Y-28610666D01*
X54270001Y-28777203D01*
X54270001Y-28777204D01*
X54270000Y-28777204D01*
X54259500Y-28879983D01*
X54259500Y-32080001D01*
X54259501Y-32080018D01*
X54270000Y-32182796D01*
X54270001Y-32182799D01*
X54325185Y-32349331D01*
X54325187Y-32349336D01*
X54348874Y-32387738D01*
X54417288Y-32498656D01*
X54541344Y-32622712D01*
X54690666Y-32714814D01*
X54857203Y-32769999D01*
X54959991Y-32780500D01*
X56560008Y-32780499D01*
X56560018Y-32780498D01*
X56669533Y-32769311D01*
X56669728Y-32771226D01*
X56730008Y-32775723D01*
X56774000Y-32804091D01*
X56846038Y-32876129D01*
X56879523Y-32937452D01*
X56881678Y-32950848D01*
X56888210Y-33012994D01*
X56899326Y-33118756D01*
X56899327Y-33118759D01*
X56957818Y-33298777D01*
X56957821Y-33298784D01*
X57052467Y-33462716D01*
X57176644Y-33600628D01*
X57179132Y-33603391D01*
X57179316Y-33603557D01*
X57179391Y-33603679D01*
X57183478Y-33608218D01*
X57182647Y-33608965D01*
X57215963Y-33663044D01*
X57214630Y-33732901D01*
X57184022Y-33783385D01*
X56761869Y-34205538D01*
X56700546Y-34239023D01*
X56633925Y-34235138D01*
X56628015Y-34233109D01*
X56462790Y-34205538D01*
X56405033Y-34195900D01*
X56178967Y-34195900D01*
X56134370Y-34203341D01*
X55955982Y-34233109D01*
X55742172Y-34306510D01*
X55742167Y-34306512D01*
X55543352Y-34414106D01*
X55364955Y-34552959D01*
X55364950Y-34552963D01*
X55211850Y-34719272D01*
X55211842Y-34719283D01*
X55125808Y-34850968D01*
X55072662Y-34896325D01*
X55003430Y-34905748D01*
X54940095Y-34876246D01*
X54918192Y-34850968D01*
X54832157Y-34719283D01*
X54832149Y-34719272D01*
X54679049Y-34552963D01*
X54679048Y-34552962D01*
X54679046Y-34552960D01*
X54500649Y-34414107D01*
X54433135Y-34377570D01*
X54301832Y-34306512D01*
X54301827Y-34306510D01*
X54088017Y-34233109D01*
X53920778Y-34205202D01*
X53865033Y-34195900D01*
X53638967Y-34195900D01*
X53594370Y-34203341D01*
X53415982Y-34233109D01*
X53202172Y-34306510D01*
X53202167Y-34306512D01*
X53003352Y-34414106D01*
X52824955Y-34552959D01*
X52824950Y-34552963D01*
X52671850Y-34719272D01*
X52671842Y-34719283D01*
X52585808Y-34850968D01*
X52532662Y-34896325D01*
X52463430Y-34905748D01*
X52400095Y-34876246D01*
X52378192Y-34850968D01*
X52292157Y-34719283D01*
X52292156Y-34719281D01*
X52292148Y-34719272D01*
X52289002Y-34715229D01*
X52289909Y-34714522D01*
X52261455Y-34656859D01*
X52269321Y-34587433D01*
X52313472Y-34533281D01*
X52345305Y-34517605D01*
X52349796Y-34516145D01*
X52349803Y-34516144D01*
X52522730Y-34439151D01*
X52675871Y-34327888D01*
X52802533Y-34187216D01*
X52897179Y-34023284D01*
X52955674Y-33843256D01*
X52975460Y-33655000D01*
X52955674Y-33466744D01*
X52897179Y-33286716D01*
X52802533Y-33122784D01*
X52675871Y-32982112D01*
X52675870Y-32982111D01*
X52522734Y-32870851D01*
X52522729Y-32870848D01*
X52349807Y-32793857D01*
X52349802Y-32793855D01*
X52204001Y-32762865D01*
X52164646Y-32754500D01*
X52164645Y-32754500D01*
X52105452Y-32754500D01*
X52038413Y-32734815D01*
X52017771Y-32718181D01*
X51819577Y-32519986D01*
X51786092Y-32458663D01*
X51791076Y-32388971D01*
X51816026Y-32348325D01*
X51948164Y-32204785D01*
X52084173Y-31996607D01*
X52184063Y-31768881D01*
X52245108Y-31527821D01*
X52245640Y-31521408D01*
X52260500Y-31342065D01*
X52260500Y-29617935D01*
X52245109Y-29432186D01*
X52245107Y-29432175D01*
X52184063Y-29191118D01*
X52084173Y-28963393D01*
X51948166Y-28755217D01*
X51918527Y-28723021D01*
X51779744Y-28572262D01*
X51583509Y-28419526D01*
X51583507Y-28419525D01*
X51583506Y-28419524D01*
X51364811Y-28301172D01*
X51364802Y-28301169D01*
X51129616Y-28220429D01*
X50884335Y-28179500D01*
X50635665Y-28179500D01*
X50390383Y-28220429D01*
X50155197Y-28301169D01*
X50155188Y-28301172D01*
X49936493Y-28419524D01*
X49740257Y-28572261D01*
X49571833Y-28755217D01*
X49435826Y-28963393D01*
X49335936Y-29191118D01*
X49274892Y-29432175D01*
X49274890Y-29432186D01*
X49259500Y-29617935D01*
X49259500Y-31342065D01*
X49274890Y-31527813D01*
X49274892Y-31527824D01*
X49335936Y-31768881D01*
X49435826Y-31996606D01*
X49571833Y-32204782D01*
X49571836Y-32204785D01*
X49740256Y-32387738D01*
X49936491Y-32540474D01*
X50155190Y-32658828D01*
X50191917Y-32671436D01*
X50248931Y-32711820D01*
X50258383Y-32725593D01*
X50261825Y-32731414D01*
X50261833Y-32731424D01*
X50275990Y-32745580D01*
X50288628Y-32760376D01*
X50300405Y-32776586D01*
X50300406Y-32776587D01*
X50336309Y-32806288D01*
X50340620Y-32810210D01*
X50735913Y-33205503D01*
X51131038Y-33600628D01*
X51164523Y-33661951D01*
X51166678Y-33675347D01*
X51174139Y-33746338D01*
X51184326Y-33843256D01*
X51184327Y-33843259D01*
X51244829Y-34029465D01*
X51243156Y-34030008D01*
X51251295Y-34090715D01*
X51221667Y-34153991D01*
X51162531Y-34191204D01*
X51128731Y-34195900D01*
X51098967Y-34195900D01*
X51054370Y-34203341D01*
X50875982Y-34233109D01*
X50662172Y-34306510D01*
X50662167Y-34306512D01*
X50463352Y-34414106D01*
X50284955Y-34552959D01*
X50284950Y-34552963D01*
X50131850Y-34719272D01*
X50131842Y-34719283D01*
X50008198Y-34908533D01*
X49940483Y-35062909D01*
X49895527Y-35116395D01*
X49828791Y-35137085D01*
X49761463Y-35118410D01*
X49714920Y-35066300D01*
X49711301Y-35057894D01*
X49706301Y-35044988D01*
X49706298Y-35044982D01*
X49706298Y-35044981D01*
X49594052Y-34863698D01*
X49450407Y-34706128D01*
X49450406Y-34706127D01*
X49280253Y-34577632D01*
X49089393Y-34482596D01*
X48884310Y-34424244D01*
X48861679Y-34422147D01*
X48725194Y-34409500D01*
X48618806Y-34409500D01*
X48491513Y-34421295D01*
X48459689Y-34424244D01*
X48254607Y-34482596D01*
X48254605Y-34482596D01*
X48063746Y-34577632D01*
X47893593Y-34706127D01*
X47749947Y-34863699D01*
X47637702Y-35044980D01*
X47637701Y-35044982D01*
X47594938Y-35155368D01*
X47560679Y-35243802D01*
X47521500Y-35453390D01*
X47521500Y-35666610D01*
X47560679Y-35876198D01*
X47585229Y-35939569D01*
X47608184Y-35998825D01*
X47637702Y-36075019D01*
X47749948Y-36256302D01*
X47864139Y-36381563D01*
X47893593Y-36413872D01*
X48063746Y-36542367D01*
X48254606Y-36637403D01*
X48254608Y-36637403D01*
X48254611Y-36637405D01*
X48459690Y-36695756D01*
X48618806Y-36710500D01*
X48618810Y-36710500D01*
X48725190Y-36710500D01*
X48725194Y-36710500D01*
X48884310Y-36695756D01*
X49089389Y-36637405D01*
X49089393Y-36637403D01*
X49089394Y-36637403D01*
X49280253Y-36542367D01*
X49280253Y-36542366D01*
X49280255Y-36542366D01*
X49450407Y-36413872D01*
X49594052Y-36256302D01*
X49706298Y-36075019D01*
X49711300Y-36062106D01*
X49753872Y-36006705D01*
X49819639Y-35983114D01*
X49887719Y-35998825D01*
X49936499Y-36048848D01*
X49940483Y-36057090D01*
X50008198Y-36211466D01*
X50131842Y-36400716D01*
X50131850Y-36400727D01*
X50284950Y-36567036D01*
X50284954Y-36567040D01*
X50463351Y-36705893D01*
X50521517Y-36737370D01*
X50571107Y-36786588D01*
X50586500Y-36846425D01*
X50586500Y-37159255D01*
X50584775Y-37174872D01*
X50585061Y-37174899D01*
X50584326Y-37182665D01*
X50586500Y-37251814D01*
X50586500Y-37281343D01*
X50586501Y-37281360D01*
X50587368Y-37288231D01*
X50587826Y-37294050D01*
X50589290Y-37340624D01*
X50589291Y-37340627D01*
X50594880Y-37359867D01*
X50598824Y-37378911D01*
X50601336Y-37398792D01*
X50614455Y-37431928D01*
X50618490Y-37442119D01*
X50620382Y-37447647D01*
X50633381Y-37492388D01*
X50643580Y-37509634D01*
X50652138Y-37527103D01*
X50659514Y-37545732D01*
X50686898Y-37583423D01*
X50690106Y-37588307D01*
X50713827Y-37628416D01*
X50713833Y-37628424D01*
X50727990Y-37642580D01*
X50740628Y-37657376D01*
X50752405Y-37673586D01*
X50752406Y-37673587D01*
X50788309Y-37703288D01*
X50792620Y-37707210D01*
X51632149Y-38546740D01*
X51906340Y-38820931D01*
X51916165Y-38833194D01*
X51916386Y-38833012D01*
X51921357Y-38839021D01*
X51936118Y-38852882D01*
X51971778Y-38886369D01*
X51992672Y-38907263D01*
X51998154Y-38911516D01*
X52002586Y-38915300D01*
X52036561Y-38947205D01*
X52054119Y-38956857D01*
X52070378Y-38967538D01*
X52086207Y-38979816D01*
X52128981Y-38998325D01*
X52134199Y-39000881D01*
X52175051Y-39023340D01*
X52194459Y-39028323D01*
X52212860Y-39034623D01*
X52231247Y-39042580D01*
X52274631Y-39049451D01*
X52277262Y-39049868D01*
X52282982Y-39051052D01*
X52328124Y-39062643D01*
X52348159Y-39062643D01*
X52367557Y-39064169D01*
X52387337Y-39067302D01*
X52387338Y-39067303D01*
X52387338Y-39067302D01*
X52387339Y-39067303D01*
X52433726Y-39062918D01*
X52439565Y-39062643D01*
X52634705Y-39062643D01*
X52701744Y-39082328D01*
X52726853Y-39103669D01*
X52732579Y-39110028D01*
X52732583Y-39110032D01*
X52885718Y-39221291D01*
X52885723Y-39221294D01*
X53058645Y-39298285D01*
X53058650Y-39298287D01*
X53243807Y-39337643D01*
X53243808Y-39337643D01*
X53433097Y-39337643D01*
X53433099Y-39337643D01*
X53618256Y-39298287D01*
X53791183Y-39221294D01*
X53944324Y-39110031D01*
X54070986Y-38969359D01*
X54165632Y-38805427D01*
X54224127Y-38625399D01*
X54243913Y-38437143D01*
X54224127Y-38248887D01*
X54209135Y-38202749D01*
X54207141Y-38132911D01*
X54243221Y-38073078D01*
X54305921Y-38042249D01*
X54372714Y-38049140D01*
X54377905Y-38051195D01*
X54377908Y-38051197D01*
X54397316Y-38056180D01*
X54415717Y-38062480D01*
X54434104Y-38070437D01*
X54477488Y-38077308D01*
X54480119Y-38077725D01*
X54485839Y-38078909D01*
X54530981Y-38090500D01*
X54541252Y-38090500D01*
X54608291Y-38110185D01*
X54633400Y-38131526D01*
X54639127Y-38137886D01*
X54639135Y-38137893D01*
X54792265Y-38249148D01*
X54792270Y-38249151D01*
X54965192Y-38326142D01*
X54965197Y-38326144D01*
X55150354Y-38365500D01*
X55150355Y-38365500D01*
X55339644Y-38365500D01*
X55339646Y-38365500D01*
X55524803Y-38326144D01*
X55697730Y-38249151D01*
X55850871Y-38137888D01*
X55977533Y-37997216D01*
X56072179Y-37833284D01*
X56130674Y-37653256D01*
X56150460Y-37465000D01*
X56130674Y-37276744D01*
X56072179Y-37096716D01*
X56070171Y-37090535D01*
X56071843Y-37089991D01*
X56063705Y-37029285D01*
X56093333Y-36966009D01*
X56152469Y-36928796D01*
X56186269Y-36924100D01*
X56405032Y-36924100D01*
X56405033Y-36924100D01*
X56628014Y-36886891D01*
X56633919Y-36884864D01*
X56666083Y-36873822D01*
X56841831Y-36813488D01*
X57040649Y-36705893D01*
X57219046Y-36567040D01*
X57372156Y-36400719D01*
X57458193Y-36269028D01*
X57511338Y-36223675D01*
X57580569Y-36214251D01*
X57643905Y-36243753D01*
X57665804Y-36269025D01*
X57751844Y-36400719D01*
X57751849Y-36400724D01*
X57751850Y-36400727D01*
X57904950Y-36567036D01*
X57904954Y-36567040D01*
X58083351Y-36705893D01*
X58242670Y-36792112D01*
X58275422Y-36809837D01*
X58282169Y-36813488D01*
X58282172Y-36813489D01*
X58495982Y-36886890D01*
X58495984Y-36886890D01*
X58495986Y-36886891D01*
X58718967Y-36924100D01*
X58718968Y-36924100D01*
X58945032Y-36924100D01*
X58945033Y-36924100D01*
X59168014Y-36886891D01*
X59173919Y-36884864D01*
X59206083Y-36873822D01*
X59381831Y-36813488D01*
X59580649Y-36705893D01*
X59759046Y-36567040D01*
X59912156Y-36400719D01*
X59998193Y-36269028D01*
X60051338Y-36223675D01*
X60120569Y-36214251D01*
X60183905Y-36243753D01*
X60205804Y-36269025D01*
X60291844Y-36400719D01*
X60291849Y-36400724D01*
X60291850Y-36400727D01*
X60444950Y-36567036D01*
X60444954Y-36567040D01*
X60623351Y-36705893D01*
X60681517Y-36737370D01*
X60731107Y-36786588D01*
X60746500Y-36846425D01*
X60746500Y-44779255D01*
X60744775Y-44794872D01*
X60745061Y-44794899D01*
X60744326Y-44802665D01*
X60746500Y-44871814D01*
X60746500Y-44901343D01*
X60746501Y-44901360D01*
X60747368Y-44908231D01*
X60747826Y-44914050D01*
X60749290Y-44960624D01*
X60749291Y-44960627D01*
X60754880Y-44979867D01*
X60758824Y-44998911D01*
X60761336Y-45018792D01*
X60778490Y-45062119D01*
X60780382Y-45067647D01*
X60793382Y-45112390D01*
X60799590Y-45122888D01*
X60803580Y-45129634D01*
X60812138Y-45147103D01*
X60819514Y-45165732D01*
X60846898Y-45203423D01*
X60850106Y-45208307D01*
X60873827Y-45248416D01*
X60873833Y-45248424D01*
X60887990Y-45262580D01*
X60900627Y-45277375D01*
X60912406Y-45293587D01*
X60947994Y-45323028D01*
X60948309Y-45323288D01*
X60952620Y-45327210D01*
X61713686Y-46088277D01*
X61926038Y-46300629D01*
X61959523Y-46361952D01*
X61961678Y-46375348D01*
X61962098Y-46379340D01*
X61979326Y-46543256D01*
X61979327Y-46543259D01*
X62037818Y-46723277D01*
X62037821Y-46723284D01*
X62132467Y-46887216D01*
X62234185Y-47000185D01*
X62259129Y-47027888D01*
X62412265Y-47139148D01*
X62412270Y-47139151D01*
X62585192Y-47216142D01*
X62585197Y-47216144D01*
X62770354Y-47255500D01*
X62770355Y-47255500D01*
X62959644Y-47255500D01*
X62959646Y-47255500D01*
X63144803Y-47216144D01*
X63317730Y-47139151D01*
X63470871Y-47027888D01*
X63597533Y-46887216D01*
X63692179Y-46723284D01*
X63750674Y-46543256D01*
X63770460Y-46355000D01*
X63750674Y-46166744D01*
X63692179Y-45986716D01*
X63597533Y-45822784D01*
X63470871Y-45682112D01*
X63462090Y-45675732D01*
X63317734Y-45570851D01*
X63317729Y-45570848D01*
X63144807Y-45493857D01*
X63144802Y-45493855D01*
X62978742Y-45458559D01*
X62959646Y-45454500D01*
X62959645Y-45454500D01*
X62900452Y-45454500D01*
X62833413Y-45434815D01*
X62812771Y-45418181D01*
X62308813Y-44914223D01*
X83224566Y-44914223D01*
X83224566Y-45189209D01*
X83235059Y-45291920D01*
X83290206Y-45458342D01*
X83290208Y-45458347D01*
X83382249Y-45607568D01*
X83506219Y-45731538D01*
X83655440Y-45823579D01*
X83655445Y-45823581D01*
X83821867Y-45878728D01*
X83821874Y-45878729D01*
X83924584Y-45889222D01*
X84062064Y-45889222D01*
X84062065Y-45889221D01*
X84062065Y-44914223D01*
X83224566Y-44914223D01*
X62308813Y-44914223D01*
X62033818Y-44639228D01*
X62000333Y-44577905D01*
X61997499Y-44551547D01*
X61997499Y-44414223D01*
X83224565Y-44414223D01*
X84062065Y-44414223D01*
X84062065Y-43439223D01*
X83924592Y-43439223D01*
X83924577Y-43439224D01*
X83821867Y-43449717D01*
X83655445Y-43504864D01*
X83655440Y-43504866D01*
X83506219Y-43596907D01*
X83382249Y-43720877D01*
X83290208Y-43870098D01*
X83290206Y-43870103D01*
X83235059Y-44036525D01*
X83235058Y-44036532D01*
X83224565Y-44139236D01*
X83224565Y-44414223D01*
X61997499Y-44414223D01*
X61997499Y-40691611D01*
X61997499Y-36846421D01*
X62017184Y-36779386D01*
X62062481Y-36737371D01*
X62120649Y-36705893D01*
X62299046Y-36567040D01*
X62452156Y-36400719D01*
X62538193Y-36269028D01*
X62591338Y-36223675D01*
X62660569Y-36214251D01*
X62723905Y-36243753D01*
X62745804Y-36269025D01*
X62831844Y-36400719D01*
X62831849Y-36400724D01*
X62831850Y-36400727D01*
X62984950Y-36567036D01*
X62984954Y-36567040D01*
X63163351Y-36705893D01*
X63221517Y-36737370D01*
X63271107Y-36786588D01*
X63286500Y-36846425D01*
X63286500Y-39699255D01*
X63284775Y-39714872D01*
X63285061Y-39714899D01*
X63284326Y-39722665D01*
X63286500Y-39791814D01*
X63286500Y-39821343D01*
X63286501Y-39821360D01*
X63287368Y-39828231D01*
X63287826Y-39834050D01*
X63289290Y-39880624D01*
X63289291Y-39880627D01*
X63294880Y-39899867D01*
X63298824Y-39918911D01*
X63301336Y-39938792D01*
X63312549Y-39967114D01*
X63318490Y-39982119D01*
X63320382Y-39987647D01*
X63327727Y-40012929D01*
X63333382Y-40032390D01*
X63339590Y-40042888D01*
X63343580Y-40049634D01*
X63352138Y-40067103D01*
X63359514Y-40085732D01*
X63386898Y-40123423D01*
X63390106Y-40128307D01*
X63413827Y-40168416D01*
X63413833Y-40168424D01*
X63427990Y-40182580D01*
X63440627Y-40197375D01*
X63452406Y-40213587D01*
X63466881Y-40225562D01*
X63488309Y-40243288D01*
X63492620Y-40247210D01*
X64239089Y-40993680D01*
X64466038Y-41220629D01*
X64499523Y-41281952D01*
X64501678Y-41295348D01*
X64507980Y-41355302D01*
X64519326Y-41463256D01*
X64519327Y-41463259D01*
X64577818Y-41643277D01*
X64577821Y-41643284D01*
X64672467Y-41807216D01*
X64759813Y-41904223D01*
X64799129Y-41947888D01*
X64952265Y-42059148D01*
X64952270Y-42059151D01*
X65125192Y-42136142D01*
X65125197Y-42136144D01*
X65310354Y-42175500D01*
X65310355Y-42175500D01*
X65499644Y-42175500D01*
X65499646Y-42175500D01*
X65684803Y-42136144D01*
X65857730Y-42059151D01*
X66010871Y-41947888D01*
X66050187Y-41904223D01*
X83224566Y-41904223D01*
X83224566Y-42179209D01*
X83235059Y-42281920D01*
X83290206Y-42448342D01*
X83290208Y-42448347D01*
X83382249Y-42597568D01*
X83506219Y-42721538D01*
X83655440Y-42813579D01*
X83655445Y-42813581D01*
X83821867Y-42868728D01*
X83821874Y-42868729D01*
X83924584Y-42879222D01*
X84062064Y-42879222D01*
X84062065Y-42879221D01*
X84062065Y-41904223D01*
X83224566Y-41904223D01*
X66050187Y-41904223D01*
X66137533Y-41807216D01*
X66232179Y-41643284D01*
X66290674Y-41463256D01*
X66310460Y-41275000D01*
X66290674Y-41086744D01*
X66232179Y-40906716D01*
X66137533Y-40742784D01*
X66010871Y-40602112D01*
X66010870Y-40602111D01*
X65857734Y-40490851D01*
X65857729Y-40490848D01*
X65684807Y-40413857D01*
X65684802Y-40413855D01*
X65539001Y-40382865D01*
X65499646Y-40374500D01*
X65499645Y-40374500D01*
X65440452Y-40374500D01*
X65373413Y-40354815D01*
X65352771Y-40338181D01*
X64573819Y-39559228D01*
X64540334Y-39497905D01*
X64537500Y-39471547D01*
X64537500Y-38165544D01*
X64537500Y-36846421D01*
X64557184Y-36779386D01*
X64602481Y-36737371D01*
X64660649Y-36705893D01*
X64839046Y-36567040D01*
X64992156Y-36400719D01*
X65078193Y-36269028D01*
X65131338Y-36223675D01*
X65200569Y-36214251D01*
X65263905Y-36243753D01*
X65285804Y-36269025D01*
X65371844Y-36400719D01*
X65371849Y-36400724D01*
X65371850Y-36400727D01*
X65524950Y-36567036D01*
X65524954Y-36567040D01*
X65703351Y-36705893D01*
X65703353Y-36705894D01*
X65703356Y-36705896D01*
X65761516Y-36737370D01*
X65811107Y-36786589D01*
X65826499Y-36846425D01*
X65826500Y-39699255D01*
X65824775Y-39714872D01*
X65825061Y-39714899D01*
X65824326Y-39722665D01*
X65826500Y-39791814D01*
X65826500Y-39821343D01*
X65826501Y-39821360D01*
X65827368Y-39828231D01*
X65827826Y-39834050D01*
X65829290Y-39880624D01*
X65829291Y-39880627D01*
X65834880Y-39899867D01*
X65838824Y-39918911D01*
X65841336Y-39938792D01*
X65852549Y-39967114D01*
X65858490Y-39982119D01*
X65860382Y-39987647D01*
X65867727Y-40012929D01*
X65873382Y-40032390D01*
X65879590Y-40042888D01*
X65883580Y-40049634D01*
X65892138Y-40067103D01*
X65899514Y-40085732D01*
X65926898Y-40123423D01*
X65930106Y-40128307D01*
X65953827Y-40168416D01*
X65953833Y-40168424D01*
X65967990Y-40182580D01*
X65980627Y-40197375D01*
X65992406Y-40213587D01*
X66006881Y-40225562D01*
X66028309Y-40243288D01*
X66032620Y-40247210D01*
X66617693Y-40832284D01*
X66809197Y-41023788D01*
X66819022Y-41036051D01*
X66819243Y-41035869D01*
X66824214Y-41041878D01*
X66833328Y-41050436D01*
X66874635Y-41089226D01*
X66895529Y-41110120D01*
X66901011Y-41114373D01*
X66905443Y-41118157D01*
X66939418Y-41150062D01*
X66956976Y-41159714D01*
X66973235Y-41170395D01*
X66989064Y-41182673D01*
X67031838Y-41201182D01*
X67037056Y-41203738D01*
X67077908Y-41226197D01*
X67097316Y-41231180D01*
X67115717Y-41237480D01*
X67134104Y-41245437D01*
X67177488Y-41252308D01*
X67180119Y-41252725D01*
X67185839Y-41253909D01*
X67230981Y-41265500D01*
X67251016Y-41265500D01*
X67270414Y-41267026D01*
X67290194Y-41270159D01*
X67290195Y-41270160D01*
X67290195Y-41270159D01*
X67290196Y-41270160D01*
X67336583Y-41265775D01*
X67342422Y-41265500D01*
X68511252Y-41265500D01*
X68578291Y-41285185D01*
X68603400Y-41306526D01*
X68609126Y-41312885D01*
X68609130Y-41312889D01*
X68762265Y-41424148D01*
X68762270Y-41424151D01*
X68935192Y-41501142D01*
X68935197Y-41501144D01*
X69120354Y-41540500D01*
X69120355Y-41540500D01*
X69309644Y-41540500D01*
X69309646Y-41540500D01*
X69494803Y-41501144D01*
X69667730Y-41424151D01*
X69695159Y-41404223D01*
X83224565Y-41404223D01*
X84062065Y-41404223D01*
X84062065Y-40429223D01*
X83924592Y-40429223D01*
X83924577Y-40429224D01*
X83821867Y-40439717D01*
X83655445Y-40494864D01*
X83655440Y-40494866D01*
X83506219Y-40586907D01*
X83382249Y-40710877D01*
X83290208Y-40860098D01*
X83290206Y-40860103D01*
X83235059Y-41026525D01*
X83235058Y-41026532D01*
X83224565Y-41129236D01*
X83224565Y-41404223D01*
X69695159Y-41404223D01*
X69820871Y-41312888D01*
X69947533Y-41172216D01*
X70042179Y-41008284D01*
X70100674Y-40828256D01*
X70120460Y-40640000D01*
X70100674Y-40451744D01*
X70042179Y-40271716D01*
X69994912Y-40189847D01*
X69990093Y-40181500D01*
X69973620Y-40113599D01*
X69996473Y-40047573D01*
X70051394Y-40004382D01*
X70097480Y-39995500D01*
X71051252Y-39995500D01*
X71118291Y-40015185D01*
X71143400Y-40036526D01*
X71149126Y-40042885D01*
X71149130Y-40042889D01*
X71302265Y-40154148D01*
X71302270Y-40154151D01*
X71475192Y-40231142D01*
X71475197Y-40231144D01*
X71660354Y-40270500D01*
X71660355Y-40270500D01*
X71849644Y-40270500D01*
X71849646Y-40270500D01*
X72034803Y-40231144D01*
X72207730Y-40154151D01*
X72360871Y-40042888D01*
X72487533Y-39902216D01*
X72582179Y-39738284D01*
X72640674Y-39558256D01*
X72660460Y-39370000D01*
X72640674Y-39181744D01*
X72582179Y-39001716D01*
X72487533Y-38837784D01*
X72360871Y-38697112D01*
X72360870Y-38697111D01*
X72207734Y-38585851D01*
X72207729Y-38585848D01*
X72034807Y-38508857D01*
X72034802Y-38508855D01*
X71877267Y-38475371D01*
X71849646Y-38469500D01*
X71660354Y-38469500D01*
X71632733Y-38475371D01*
X71475197Y-38508855D01*
X71475192Y-38508857D01*
X71302270Y-38585848D01*
X71302265Y-38585851D01*
X71149130Y-38697110D01*
X71149126Y-38697114D01*
X71143400Y-38703474D01*
X71083913Y-38740121D01*
X71051252Y-38744500D01*
X70160453Y-38744500D01*
X70093414Y-38724815D01*
X70072772Y-38708181D01*
X69653819Y-38289228D01*
X69620334Y-38227905D01*
X69617500Y-38201547D01*
X69617500Y-36846425D01*
X69637185Y-36779386D01*
X69682481Y-36737371D01*
X69740649Y-36705893D01*
X69919046Y-36567040D01*
X70072156Y-36400719D01*
X70158193Y-36269028D01*
X70211338Y-36223675D01*
X70280569Y-36214251D01*
X70343905Y-36243753D01*
X70365804Y-36269025D01*
X70451844Y-36400719D01*
X70451849Y-36400724D01*
X70451850Y-36400727D01*
X70604950Y-36567036D01*
X70604954Y-36567040D01*
X70783351Y-36705893D01*
X70942670Y-36792112D01*
X70975422Y-36809837D01*
X70982169Y-36813488D01*
X70982172Y-36813489D01*
X71195982Y-36886890D01*
X71195984Y-36886890D01*
X71195986Y-36886891D01*
X71418967Y-36924100D01*
X71418968Y-36924100D01*
X71645032Y-36924100D01*
X71645033Y-36924100D01*
X71868014Y-36886891D01*
X71873919Y-36884864D01*
X71906083Y-36873822D01*
X72081831Y-36813488D01*
X72280649Y-36705893D01*
X72459046Y-36567040D01*
X72612156Y-36400719D01*
X72698193Y-36269028D01*
X72751338Y-36223675D01*
X72820569Y-36214251D01*
X72883905Y-36243753D01*
X72905804Y-36269025D01*
X72991844Y-36400719D01*
X72991849Y-36400724D01*
X72991850Y-36400727D01*
X73144950Y-36567036D01*
X73144954Y-36567040D01*
X73323351Y-36705893D01*
X73482670Y-36792112D01*
X73515422Y-36809837D01*
X73522169Y-36813488D01*
X73522172Y-36813489D01*
X73735982Y-36886890D01*
X73735984Y-36886890D01*
X73735986Y-36886891D01*
X73958967Y-36924100D01*
X73958968Y-36924100D01*
X74185032Y-36924100D01*
X74185033Y-36924100D01*
X74408014Y-36886891D01*
X74413919Y-36884863D01*
X74483711Y-36881707D01*
X74541870Y-36914460D01*
X76111892Y-38484482D01*
X76121717Y-38496746D01*
X76121938Y-38496564D01*
X76126908Y-38502571D01*
X76126911Y-38502574D01*
X76126912Y-38502575D01*
X76177349Y-38549939D01*
X76198228Y-38570818D01*
X76203702Y-38575064D01*
X76208140Y-38578854D01*
X76242116Y-38610760D01*
X76243799Y-38611685D01*
X76259671Y-38620411D01*
X76275929Y-38631090D01*
X76291762Y-38643372D01*
X76304579Y-38648918D01*
X76334535Y-38661881D01*
X76339779Y-38664450D01*
X76380606Y-38686895D01*
X76400010Y-38691877D01*
X76418408Y-38698176D01*
X76436803Y-38706136D01*
X76482827Y-38713424D01*
X76488530Y-38714605D01*
X76533679Y-38726198D01*
X76553714Y-38726198D01*
X76573111Y-38727724D01*
X76592894Y-38730858D01*
X76639281Y-38726473D01*
X76645120Y-38726198D01*
X87318850Y-38726198D01*
X87385889Y-38745883D01*
X87406531Y-38762517D01*
X88746182Y-40102168D01*
X88779666Y-40163489D01*
X88782500Y-40189847D01*
X88782500Y-41319255D01*
X88780775Y-41334872D01*
X88781061Y-41334899D01*
X88780326Y-41342665D01*
X88782500Y-41411814D01*
X88782500Y-41441343D01*
X88782501Y-41441360D01*
X88783368Y-41448231D01*
X88783826Y-41454050D01*
X88785290Y-41500624D01*
X88785291Y-41500627D01*
X88790880Y-41519867D01*
X88794824Y-41538911D01*
X88797336Y-41558792D01*
X88812656Y-41597487D01*
X88814490Y-41602119D01*
X88816382Y-41607647D01*
X88829381Y-41652388D01*
X88839580Y-41669634D01*
X88848138Y-41687103D01*
X88855514Y-41705732D01*
X88882898Y-41743423D01*
X88886106Y-41748307D01*
X88909827Y-41788416D01*
X88909833Y-41788424D01*
X88923990Y-41802580D01*
X88936628Y-41817376D01*
X88948405Y-41833586D01*
X88948406Y-41833587D01*
X88984309Y-41863288D01*
X88988620Y-41867210D01*
X89945829Y-42824420D01*
X90257399Y-43135990D01*
X90267224Y-43148253D01*
X90267445Y-43148071D01*
X90272416Y-43154080D01*
X90293246Y-43173640D01*
X90322837Y-43201428D01*
X90343731Y-43222322D01*
X90349213Y-43226575D01*
X90353645Y-43230359D01*
X90387620Y-43262264D01*
X90405178Y-43271916D01*
X90421435Y-43282595D01*
X90437266Y-43294875D01*
X90456939Y-43303388D01*
X90480035Y-43313384D01*
X90485279Y-43315952D01*
X90526110Y-43338399D01*
X90538725Y-43341637D01*
X90545507Y-43343379D01*
X90563921Y-43349683D01*
X90582306Y-43357640D01*
X90628359Y-43364934D01*
X90634028Y-43366108D01*
X90679183Y-43377702D01*
X90699218Y-43377702D01*
X90718615Y-43379228D01*
X90738398Y-43382362D01*
X90784785Y-43377977D01*
X90790624Y-43377702D01*
X91215695Y-43377702D01*
X91282734Y-43397387D01*
X91328489Y-43450191D01*
X91338984Y-43488445D01*
X91343406Y-43529575D01*
X91343408Y-43529581D01*
X91393650Y-43664288D01*
X91393654Y-43664295D01*
X91479814Y-43779388D01*
X91508994Y-43801233D01*
X91550865Y-43857167D01*
X91555849Y-43926859D01*
X91522364Y-43988182D01*
X91461040Y-44021666D01*
X91434683Y-44024500D01*
X90700510Y-44024500D01*
X90633471Y-44004815D01*
X90597145Y-43963246D01*
X90594606Y-43964813D01*
X90498713Y-43809348D01*
X90498710Y-43809344D01*
X90374655Y-43685289D01*
X90374651Y-43685286D01*
X90225337Y-43593187D01*
X90225335Y-43593186D01*
X90142065Y-43565593D01*
X90058797Y-43538001D01*
X90058795Y-43538000D01*
X89956015Y-43527500D01*
X89956008Y-43527500D01*
X88605992Y-43527500D01*
X88605984Y-43527500D01*
X88503204Y-43538000D01*
X88503203Y-43538001D01*
X88336664Y-43593186D01*
X88336662Y-43593187D01*
X88187348Y-43685286D01*
X88187344Y-43685289D01*
X88063289Y-43809344D01*
X88063286Y-43809348D01*
X87971187Y-43958662D01*
X87971186Y-43958664D01*
X87916001Y-44125203D01*
X87916000Y-44125204D01*
X87905500Y-44227984D01*
X87905500Y-45253015D01*
X87916000Y-45355795D01*
X87916001Y-45355797D01*
X87934324Y-45411092D01*
X87971186Y-45522335D01*
X87971187Y-45522337D01*
X88063286Y-45671651D01*
X88063289Y-45671655D01*
X88187344Y-45795710D01*
X88187348Y-45795713D01*
X88336662Y-45887812D01*
X88336664Y-45887813D01*
X88336666Y-45887814D01*
X88503203Y-45942999D01*
X88605992Y-45953500D01*
X88605997Y-45953500D01*
X89956003Y-45953500D01*
X89956008Y-45953500D01*
X90058797Y-45942999D01*
X90225334Y-45887814D01*
X90374655Y-45795711D01*
X90498711Y-45671655D01*
X90590814Y-45522334D01*
X90644442Y-45360495D01*
X90684213Y-45303051D01*
X90748729Y-45276228D01*
X90762147Y-45275500D01*
X91329548Y-45275500D01*
X91396587Y-45295185D01*
X91417228Y-45311818D01*
X92048182Y-45942772D01*
X92081666Y-46004093D01*
X92084500Y-46030451D01*
X92084500Y-46101814D01*
X92064815Y-46168853D01*
X92012011Y-46214608D01*
X91942853Y-46224552D01*
X91899572Y-46207005D01*
X91898363Y-46209101D01*
X91892729Y-46205848D01*
X91719807Y-46128857D01*
X91719802Y-46128855D01*
X91574001Y-46097865D01*
X91534646Y-46089500D01*
X91345354Y-46089500D01*
X91312897Y-46096398D01*
X91160197Y-46128855D01*
X91160192Y-46128857D01*
X90987270Y-46205848D01*
X90987265Y-46205851D01*
X90834129Y-46317111D01*
X90707466Y-46457785D01*
X90612821Y-46621715D01*
X90612818Y-46621723D01*
X90607482Y-46638145D01*
X90568043Y-46695819D01*
X90503684Y-46723016D01*
X90434838Y-46711100D01*
X90401871Y-46687505D01*
X90374655Y-46660289D01*
X90374651Y-46660286D01*
X90225337Y-46568187D01*
X90225335Y-46568186D01*
X90142065Y-46540593D01*
X90058797Y-46513001D01*
X90058795Y-46513000D01*
X89956015Y-46502500D01*
X89956008Y-46502500D01*
X88605992Y-46502500D01*
X88605984Y-46502500D01*
X88503204Y-46513000D01*
X88503203Y-46513001D01*
X88336664Y-46568186D01*
X88336662Y-46568187D01*
X88187348Y-46660286D01*
X88187344Y-46660289D01*
X88063289Y-46784344D01*
X88063286Y-46784348D01*
X87971190Y-46933657D01*
X87971186Y-46933666D01*
X87961223Y-46963729D01*
X87921452Y-47021172D01*
X87856936Y-47047995D01*
X87843519Y-47048723D01*
X87554866Y-47048723D01*
X87487827Y-47029038D01*
X87442072Y-46976234D01*
X87437161Y-46963730D01*
X87409379Y-46879889D01*
X87317277Y-46730567D01*
X87193221Y-46606511D01*
X87193221Y-46606510D01*
X87193220Y-46606510D01*
X87131086Y-46568186D01*
X87071467Y-46531413D01*
X87024743Y-46479466D01*
X87012565Y-46425879D01*
X87012565Y-45912566D01*
X87032249Y-45845531D01*
X87071464Y-45807034D01*
X87193221Y-45731935D01*
X87317277Y-45607879D01*
X87409379Y-45458557D01*
X87464564Y-45292020D01*
X87475065Y-45189232D01*
X87475064Y-44139215D01*
X87469190Y-44081716D01*
X87464564Y-44036426D01*
X87464563Y-44036423D01*
X87453713Y-44003680D01*
X87409379Y-43869889D01*
X87317277Y-43720567D01*
X87193221Y-43596511D01*
X87193220Y-43596510D01*
X87134076Y-43560030D01*
X87071467Y-43521413D01*
X87024743Y-43469466D01*
X87012565Y-43415879D01*
X87012565Y-42902566D01*
X87032249Y-42835531D01*
X87071464Y-42797034D01*
X87193221Y-42721935D01*
X87317277Y-42597879D01*
X87409379Y-42448557D01*
X87464564Y-42282020D01*
X87475065Y-42179232D01*
X87475064Y-41129215D01*
X87473113Y-41110120D01*
X87464564Y-41026426D01*
X87464563Y-41026423D01*
X87438289Y-40947133D01*
X87409379Y-40859889D01*
X87317277Y-40710567D01*
X87193221Y-40586511D01*
X87075514Y-40513909D01*
X87043901Y-40494410D01*
X87043896Y-40494408D01*
X87033153Y-40490848D01*
X86877362Y-40439224D01*
X86877360Y-40439223D01*
X86774575Y-40428723D01*
X85999563Y-40428723D01*
X85999545Y-40428724D01*
X85896768Y-40439223D01*
X85896765Y-40439224D01*
X85730233Y-40494408D01*
X85730228Y-40494410D01*
X85580907Y-40586512D01*
X85456853Y-40710566D01*
X85456848Y-40710572D01*
X85454806Y-40713884D01*
X85452812Y-40715676D01*
X85452372Y-40716234D01*
X85452276Y-40716158D01*
X85402856Y-40760606D01*
X85333893Y-40771825D01*
X85269812Y-40743978D01*
X85243733Y-40713879D01*
X85241884Y-40710882D01*
X85241881Y-40710878D01*
X85117910Y-40586907D01*
X84968689Y-40494866D01*
X84968684Y-40494864D01*
X84802262Y-40439717D01*
X84802255Y-40439716D01*
X84699551Y-40429223D01*
X84562065Y-40429223D01*
X84562065Y-42879222D01*
X84699537Y-42879222D01*
X84699551Y-42879221D01*
X84802262Y-42868728D01*
X84968684Y-42813581D01*
X84968689Y-42813579D01*
X85117910Y-42721538D01*
X85241883Y-42597565D01*
X85243730Y-42594571D01*
X85245534Y-42592947D01*
X85246363Y-42591900D01*
X85246541Y-42592041D01*
X85295675Y-42547844D01*
X85364638Y-42536619D01*
X85428721Y-42564459D01*
X85454808Y-42594564D01*
X85456853Y-42597879D01*
X85580909Y-42721935D01*
X85702662Y-42797032D01*
X85749386Y-42848978D01*
X85761565Y-42902570D01*
X85761565Y-43415875D01*
X85741880Y-43482914D01*
X85702663Y-43521412D01*
X85625400Y-43569068D01*
X85580907Y-43596512D01*
X85456853Y-43720566D01*
X85456848Y-43720572D01*
X85454806Y-43723884D01*
X85452812Y-43725676D01*
X85452372Y-43726234D01*
X85452276Y-43726158D01*
X85402856Y-43770606D01*
X85333893Y-43781825D01*
X85269812Y-43753978D01*
X85243733Y-43723879D01*
X85241884Y-43720882D01*
X85241881Y-43720878D01*
X85117910Y-43596907D01*
X84968689Y-43504866D01*
X84968684Y-43504864D01*
X84802262Y-43449717D01*
X84802255Y-43449716D01*
X84699551Y-43439223D01*
X84562065Y-43439223D01*
X84562065Y-45889222D01*
X84699537Y-45889222D01*
X84699551Y-45889221D01*
X84802262Y-45878728D01*
X84968684Y-45823581D01*
X84968689Y-45823579D01*
X85117910Y-45731538D01*
X85241883Y-45607565D01*
X85243730Y-45604571D01*
X85245534Y-45602947D01*
X85246363Y-45601900D01*
X85246541Y-45602041D01*
X85295675Y-45557844D01*
X85364638Y-45546619D01*
X85428721Y-45574459D01*
X85454808Y-45604564D01*
X85456853Y-45607879D01*
X85580909Y-45731935D01*
X85702662Y-45807032D01*
X85749386Y-45858978D01*
X85761565Y-45912570D01*
X85761565Y-46425875D01*
X85741880Y-46492914D01*
X85702663Y-46531412D01*
X85625400Y-46579068D01*
X85580907Y-46606512D01*
X85456853Y-46730566D01*
X85456848Y-46730572D01*
X85454806Y-46733884D01*
X85452812Y-46735676D01*
X85452372Y-46736234D01*
X85452276Y-46736158D01*
X85402856Y-46780606D01*
X85333893Y-46791825D01*
X85269812Y-46763978D01*
X85243733Y-46733879D01*
X85241884Y-46730882D01*
X85241881Y-46730878D01*
X85117910Y-46606907D01*
X84968689Y-46514866D01*
X84968684Y-46514864D01*
X84802262Y-46459717D01*
X84802255Y-46459716D01*
X84699551Y-46449223D01*
X84562065Y-46449223D01*
X84562065Y-48899222D01*
X84699537Y-48899222D01*
X84699551Y-48899221D01*
X84802262Y-48888728D01*
X84968684Y-48833581D01*
X84968689Y-48833579D01*
X85117910Y-48741538D01*
X85241883Y-48617565D01*
X85243730Y-48614571D01*
X85245534Y-48612947D01*
X85246363Y-48611900D01*
X85246541Y-48612041D01*
X85295675Y-48567844D01*
X85364638Y-48556619D01*
X85428721Y-48584459D01*
X85454808Y-48614564D01*
X85456853Y-48617879D01*
X85580909Y-48741935D01*
X85730231Y-48834037D01*
X85896768Y-48889222D01*
X85999556Y-48899723D01*
X86022497Y-48899722D01*
X86089535Y-48919404D01*
X86135292Y-48972206D01*
X86146500Y-49023722D01*
X86146500Y-49513573D01*
X86126815Y-49580612D01*
X86081519Y-49622627D01*
X86023356Y-49654103D01*
X86023353Y-49654105D01*
X85844955Y-49792958D01*
X85790186Y-49852453D01*
X85730298Y-49888443D01*
X85660460Y-49886342D01*
X85602845Y-49846817D01*
X85582775Y-49811802D01*
X85538954Y-49694313D01*
X85538950Y-49694306D01*
X85452790Y-49579212D01*
X85452787Y-49579209D01*
X85337693Y-49493049D01*
X85337686Y-49493045D01*
X85202979Y-49442803D01*
X85202972Y-49442801D01*
X85143444Y-49436400D01*
X84482000Y-49436400D01*
X84482000Y-50355702D01*
X84376592Y-50307565D01*
X84268334Y-50292000D01*
X84195666Y-50292000D01*
X84087408Y-50307565D01*
X83982000Y-50355702D01*
X83982000Y-49436400D01*
X83320555Y-49436400D01*
X83261027Y-49442801D01*
X83261020Y-49442803D01*
X83126313Y-49493045D01*
X83126306Y-49493049D01*
X83011212Y-49579209D01*
X83011209Y-49579212D01*
X82925049Y-49694306D01*
X82925046Y-49694312D01*
X82881224Y-49811803D01*
X82839352Y-49867736D01*
X82773887Y-49892153D01*
X82705615Y-49877301D01*
X82673813Y-49852452D01*
X82619049Y-49792963D01*
X82619048Y-49792962D01*
X82619046Y-49792960D01*
X82440649Y-49654107D01*
X82382479Y-49622627D01*
X82241832Y-49546512D01*
X82241827Y-49546510D01*
X82028017Y-49473109D01*
X81846388Y-49442801D01*
X81805033Y-49435900D01*
X81578967Y-49435900D01*
X81537612Y-49442801D01*
X81355982Y-49473109D01*
X81142172Y-49546510D01*
X81142167Y-49546512D01*
X80943352Y-49654106D01*
X80764955Y-49792959D01*
X80764950Y-49792963D01*
X80611850Y-49959272D01*
X80611842Y-49959283D01*
X80525808Y-50090968D01*
X80472662Y-50136325D01*
X80403430Y-50145748D01*
X80340095Y-50116246D01*
X80318192Y-50090968D01*
X80232157Y-49959283D01*
X80232149Y-49959272D01*
X80079049Y-49792963D01*
X80079048Y-49792962D01*
X80079046Y-49792960D01*
X79900649Y-49654107D01*
X79842479Y-49622627D01*
X79701832Y-49546512D01*
X79701827Y-49546510D01*
X79488017Y-49473109D01*
X79306388Y-49442801D01*
X79265033Y-49435900D01*
X79038967Y-49435900D01*
X78997612Y-49442801D01*
X78815982Y-49473109D01*
X78602172Y-49546510D01*
X78602167Y-49546512D01*
X78403352Y-49654106D01*
X78224955Y-49792959D01*
X78224950Y-49792963D01*
X78071850Y-49959272D01*
X78071842Y-49959283D01*
X77985808Y-50090968D01*
X77932662Y-50136325D01*
X77863430Y-50145748D01*
X77800095Y-50116246D01*
X77778192Y-50090968D01*
X77692157Y-49959283D01*
X77692149Y-49959272D01*
X77539049Y-49792963D01*
X77539048Y-49792962D01*
X77539046Y-49792960D01*
X77360649Y-49654107D01*
X77302479Y-49622627D01*
X77161832Y-49546512D01*
X77161827Y-49546510D01*
X76948017Y-49473109D01*
X76766388Y-49442801D01*
X76725033Y-49435900D01*
X76498967Y-49435900D01*
X76457612Y-49442801D01*
X76275982Y-49473109D01*
X76062172Y-49546510D01*
X76062167Y-49546512D01*
X75863352Y-49654106D01*
X75684955Y-49792959D01*
X75684950Y-49792963D01*
X75531850Y-49959272D01*
X75531842Y-49959283D01*
X75445808Y-50090968D01*
X75392662Y-50136325D01*
X75323430Y-50145748D01*
X75260095Y-50116246D01*
X75238192Y-50090968D01*
X75152157Y-49959283D01*
X75152149Y-49959272D01*
X74999049Y-49792963D01*
X74999048Y-49792962D01*
X74999046Y-49792960D01*
X74820649Y-49654107D01*
X74762479Y-49622627D01*
X74621832Y-49546512D01*
X74621827Y-49546510D01*
X74408017Y-49473109D01*
X74226388Y-49442801D01*
X74185033Y-49435900D01*
X73958967Y-49435900D01*
X73917612Y-49442801D01*
X73735982Y-49473109D01*
X73522172Y-49546510D01*
X73522167Y-49546512D01*
X73323352Y-49654106D01*
X73144955Y-49792959D01*
X73144950Y-49792963D01*
X72991850Y-49959272D01*
X72991842Y-49959283D01*
X72905808Y-50090968D01*
X72852662Y-50136325D01*
X72783430Y-50145748D01*
X72720095Y-50116246D01*
X72698192Y-50090968D01*
X72612157Y-49959283D01*
X72612149Y-49959272D01*
X72459049Y-49792963D01*
X72459048Y-49792962D01*
X72459046Y-49792960D01*
X72280649Y-49654107D01*
X72222479Y-49622627D01*
X72081832Y-49546512D01*
X72081827Y-49546510D01*
X71868017Y-49473109D01*
X71686388Y-49442801D01*
X71645033Y-49435900D01*
X71418967Y-49435900D01*
X71377612Y-49442801D01*
X71195982Y-49473109D01*
X70982172Y-49546510D01*
X70982167Y-49546512D01*
X70783352Y-49654106D01*
X70604955Y-49792959D01*
X70604950Y-49792963D01*
X70451850Y-49959272D01*
X70451842Y-49959283D01*
X70365808Y-50090968D01*
X70312662Y-50136325D01*
X70243430Y-50145748D01*
X70180095Y-50116246D01*
X70158192Y-50090968D01*
X70072157Y-49959283D01*
X70072149Y-49959272D01*
X69919049Y-49792963D01*
X69919048Y-49792962D01*
X69919046Y-49792960D01*
X69740649Y-49654107D01*
X69682479Y-49622627D01*
X69541832Y-49546512D01*
X69541827Y-49546510D01*
X69328017Y-49473109D01*
X69146388Y-49442801D01*
X69105033Y-49435900D01*
X68878967Y-49435900D01*
X68837612Y-49442801D01*
X68655982Y-49473109D01*
X68442172Y-49546510D01*
X68442167Y-49546512D01*
X68243352Y-49654106D01*
X68064955Y-49792959D01*
X68064950Y-49792963D01*
X67911850Y-49959272D01*
X67911842Y-49959283D01*
X67825808Y-50090968D01*
X67772662Y-50136325D01*
X67703430Y-50145748D01*
X67640095Y-50116246D01*
X67618192Y-50090968D01*
X67532157Y-49959283D01*
X67532149Y-49959272D01*
X67379049Y-49792963D01*
X67379048Y-49792962D01*
X67379046Y-49792960D01*
X67200649Y-49654107D01*
X67142479Y-49622627D01*
X67001832Y-49546512D01*
X67001827Y-49546510D01*
X66788017Y-49473109D01*
X66606388Y-49442801D01*
X66565033Y-49435900D01*
X66338967Y-49435900D01*
X66297612Y-49442801D01*
X66115982Y-49473109D01*
X65902172Y-49546510D01*
X65902167Y-49546512D01*
X65703352Y-49654106D01*
X65524955Y-49792959D01*
X65524950Y-49792963D01*
X65371850Y-49959272D01*
X65371842Y-49959283D01*
X65285808Y-50090968D01*
X65232662Y-50136325D01*
X65163430Y-50145748D01*
X65100095Y-50116246D01*
X65078192Y-50090968D01*
X64992157Y-49959283D01*
X64992149Y-49959272D01*
X64839049Y-49792963D01*
X64839048Y-49792962D01*
X64839046Y-49792960D01*
X64660649Y-49654107D01*
X64602479Y-49622627D01*
X64461832Y-49546512D01*
X64461827Y-49546510D01*
X64248017Y-49473109D01*
X64066388Y-49442801D01*
X64025033Y-49435900D01*
X63798967Y-49435900D01*
X63757612Y-49442801D01*
X63575982Y-49473109D01*
X63362172Y-49546510D01*
X63362167Y-49546512D01*
X63163352Y-49654106D01*
X62984955Y-49792959D01*
X62984950Y-49792963D01*
X62831850Y-49959272D01*
X62831842Y-49959283D01*
X62745808Y-50090968D01*
X62692662Y-50136325D01*
X62623430Y-50145748D01*
X62560095Y-50116246D01*
X62538192Y-50090968D01*
X62452157Y-49959283D01*
X62452149Y-49959272D01*
X62299049Y-49792963D01*
X62299048Y-49792962D01*
X62299046Y-49792960D01*
X62120649Y-49654107D01*
X62062479Y-49622627D01*
X61921832Y-49546512D01*
X61921827Y-49546510D01*
X61708017Y-49473109D01*
X61526388Y-49442801D01*
X61485033Y-49435900D01*
X61258967Y-49435900D01*
X61217612Y-49442801D01*
X61035982Y-49473109D01*
X60822172Y-49546510D01*
X60822167Y-49546512D01*
X60623352Y-49654106D01*
X60444955Y-49792959D01*
X60444950Y-49792963D01*
X60291850Y-49959272D01*
X60291842Y-49959283D01*
X60205808Y-50090968D01*
X60152662Y-50136325D01*
X60083430Y-50145748D01*
X60020095Y-50116246D01*
X59998192Y-50090968D01*
X59912157Y-49959283D01*
X59912149Y-49959272D01*
X59759049Y-49792963D01*
X59759048Y-49792962D01*
X59759046Y-49792960D01*
X59580649Y-49654107D01*
X59522479Y-49622627D01*
X59381832Y-49546512D01*
X59381827Y-49546510D01*
X59168017Y-49473109D01*
X58986388Y-49442801D01*
X58945033Y-49435900D01*
X58718967Y-49435900D01*
X58677612Y-49442801D01*
X58495982Y-49473109D01*
X58282172Y-49546510D01*
X58282167Y-49546512D01*
X58083352Y-49654106D01*
X57904955Y-49792959D01*
X57904950Y-49792963D01*
X57751850Y-49959272D01*
X57751842Y-49959283D01*
X57665808Y-50090968D01*
X57612662Y-50136325D01*
X57543430Y-50145748D01*
X57480095Y-50116246D01*
X57458192Y-50090968D01*
X57372157Y-49959283D01*
X57372149Y-49959272D01*
X57219049Y-49792963D01*
X57219048Y-49792962D01*
X57219046Y-49792960D01*
X57040649Y-49654107D01*
X56982479Y-49622627D01*
X56841832Y-49546512D01*
X56841827Y-49546510D01*
X56628017Y-49473109D01*
X56446388Y-49442801D01*
X56405033Y-49435900D01*
X56178967Y-49435900D01*
X56137612Y-49442801D01*
X55955982Y-49473109D01*
X55742172Y-49546510D01*
X55742167Y-49546512D01*
X55543352Y-49654106D01*
X55364955Y-49792959D01*
X55364950Y-49792963D01*
X55211850Y-49959272D01*
X55211842Y-49959283D01*
X55125808Y-50090968D01*
X55072662Y-50136325D01*
X55003430Y-50145748D01*
X54940095Y-50116246D01*
X54918192Y-50090968D01*
X54832157Y-49959283D01*
X54832149Y-49959272D01*
X54679049Y-49792963D01*
X54679048Y-49792962D01*
X54679046Y-49792960D01*
X54500649Y-49654107D01*
X54500647Y-49654106D01*
X54500646Y-49654105D01*
X54500643Y-49654103D01*
X54442481Y-49622627D01*
X54392891Y-49573407D01*
X54377500Y-49513573D01*
X54377500Y-48881754D01*
X54397185Y-48814715D01*
X54449989Y-48768960D01*
X54488897Y-48758396D01*
X54534917Y-48753696D01*
X54701454Y-48698511D01*
X54850776Y-48606409D01*
X54974832Y-48482353D01*
X54976872Y-48479044D01*
X54978865Y-48477252D01*
X54979313Y-48476686D01*
X54979409Y-48476762D01*
X55028814Y-48432320D01*
X55097776Y-48421092D01*
X55161860Y-48448931D01*
X55187949Y-48479036D01*
X55189801Y-48482038D01*
X55189803Y-48482041D01*
X55313774Y-48606012D01*
X55462995Y-48698053D01*
X55463000Y-48698055D01*
X55629422Y-48753202D01*
X55629429Y-48753203D01*
X55732139Y-48763696D01*
X55869619Y-48763696D01*
X55869620Y-48763695D01*
X55869620Y-47788697D01*
X56369620Y-47788697D01*
X56369620Y-48763696D01*
X56507092Y-48763696D01*
X56507106Y-48763695D01*
X56609817Y-48753202D01*
X56776239Y-48698055D01*
X56776244Y-48698053D01*
X56925465Y-48606012D01*
X57049435Y-48482042D01*
X57141476Y-48332821D01*
X57141478Y-48332816D01*
X57196625Y-48166394D01*
X57196626Y-48166387D01*
X57207119Y-48063683D01*
X57207120Y-48063670D01*
X57207120Y-47924223D01*
X83224566Y-47924223D01*
X83224566Y-48199209D01*
X83235059Y-48301920D01*
X83290206Y-48468342D01*
X83290208Y-48468347D01*
X83382249Y-48617568D01*
X83506219Y-48741538D01*
X83655440Y-48833579D01*
X83655445Y-48833581D01*
X83821867Y-48888728D01*
X83821874Y-48888729D01*
X83924584Y-48899222D01*
X84062064Y-48899222D01*
X84062065Y-48899221D01*
X84062065Y-47924223D01*
X83224566Y-47924223D01*
X57207120Y-47924223D01*
X57207120Y-47788697D01*
X56369620Y-47788697D01*
X55869620Y-47788697D01*
X55869620Y-47424223D01*
X83224565Y-47424223D01*
X84062065Y-47424223D01*
X84062065Y-46449223D01*
X83924592Y-46449223D01*
X83924577Y-46449224D01*
X83821867Y-46459717D01*
X83655445Y-46514864D01*
X83655440Y-46514866D01*
X83506219Y-46606907D01*
X83382249Y-46730877D01*
X83290208Y-46880098D01*
X83290206Y-46880103D01*
X83235059Y-47046525D01*
X83235058Y-47046532D01*
X83224565Y-47149236D01*
X83224565Y-47424223D01*
X55869620Y-47424223D01*
X55869619Y-46313697D01*
X56369620Y-46313697D01*
X56369620Y-47288697D01*
X57207119Y-47288697D01*
X57207119Y-47013725D01*
X57207118Y-47013710D01*
X57196625Y-46910999D01*
X57141478Y-46744577D01*
X57141476Y-46744572D01*
X57049435Y-46595351D01*
X56925465Y-46471381D01*
X56776244Y-46379340D01*
X56776239Y-46379338D01*
X56609817Y-46324191D01*
X56609810Y-46324190D01*
X56507106Y-46313697D01*
X56369620Y-46313697D01*
X55869619Y-46313697D01*
X55732147Y-46313697D01*
X55732132Y-46313698D01*
X55629422Y-46324191D01*
X55463000Y-46379338D01*
X55462995Y-46379340D01*
X55313774Y-46471381D01*
X55189803Y-46595352D01*
X55189799Y-46595357D01*
X55187946Y-46598362D01*
X55186138Y-46599987D01*
X55185322Y-46601020D01*
X55185145Y-46600880D01*
X55135994Y-46645082D01*
X55067031Y-46656298D01*
X55002951Y-46628449D01*
X54976873Y-46598350D01*
X54976857Y-46598325D01*
X54974832Y-46595041D01*
X54850776Y-46470985D01*
X54729022Y-46395887D01*
X54682299Y-46343940D01*
X54670120Y-46290349D01*
X54670120Y-45777044D01*
X54689805Y-45710005D01*
X54729021Y-45671507D01*
X54850776Y-45596409D01*
X54974832Y-45472353D01*
X54976872Y-45469044D01*
X54978865Y-45467252D01*
X54979313Y-45466686D01*
X54979409Y-45466762D01*
X55028814Y-45422320D01*
X55097776Y-45411092D01*
X55161860Y-45438931D01*
X55187949Y-45469036D01*
X55189801Y-45472038D01*
X55189803Y-45472041D01*
X55313774Y-45596012D01*
X55462995Y-45688053D01*
X55463000Y-45688055D01*
X55629422Y-45743202D01*
X55629429Y-45743203D01*
X55732139Y-45753696D01*
X55869619Y-45753696D01*
X55869620Y-45753695D01*
X55869620Y-44778697D01*
X56369620Y-44778697D01*
X56369620Y-45753696D01*
X56507092Y-45753696D01*
X56507106Y-45753695D01*
X56609817Y-45743202D01*
X56776239Y-45688055D01*
X56776244Y-45688053D01*
X56925465Y-45596012D01*
X57049435Y-45472042D01*
X57141476Y-45322821D01*
X57141478Y-45322816D01*
X57196625Y-45156394D01*
X57196626Y-45156387D01*
X57207119Y-45053683D01*
X57207120Y-45053670D01*
X57207120Y-44778697D01*
X56369620Y-44778697D01*
X55869620Y-44778697D01*
X55869619Y-43303697D01*
X56369620Y-43303697D01*
X56369620Y-44278697D01*
X57207119Y-44278697D01*
X57207119Y-44003725D01*
X57207118Y-44003710D01*
X57196625Y-43900999D01*
X57141478Y-43734577D01*
X57141476Y-43734572D01*
X57049435Y-43585351D01*
X56925465Y-43461381D01*
X56776244Y-43369340D01*
X56776239Y-43369338D01*
X56609817Y-43314191D01*
X56609810Y-43314190D01*
X56507106Y-43303697D01*
X56369620Y-43303697D01*
X55869619Y-43303697D01*
X55732147Y-43303697D01*
X55732132Y-43303698D01*
X55629422Y-43314191D01*
X55463000Y-43369338D01*
X55462995Y-43369340D01*
X55313774Y-43461381D01*
X55189803Y-43585352D01*
X55189799Y-43585357D01*
X55187946Y-43588362D01*
X55186138Y-43589987D01*
X55185322Y-43591020D01*
X55185145Y-43590880D01*
X55135994Y-43635082D01*
X55067031Y-43646298D01*
X55002951Y-43618449D01*
X54976873Y-43588350D01*
X54976857Y-43588325D01*
X54974832Y-43585041D01*
X54850776Y-43460985D01*
X54729022Y-43385887D01*
X54682299Y-43333940D01*
X54670120Y-43280349D01*
X54670120Y-42767044D01*
X54689805Y-42700005D01*
X54729021Y-42661507D01*
X54850776Y-42586409D01*
X54974832Y-42462353D01*
X54976872Y-42459044D01*
X54978865Y-42457252D01*
X54979313Y-42456686D01*
X54979409Y-42456762D01*
X55028814Y-42412320D01*
X55097776Y-42401092D01*
X55161860Y-42428931D01*
X55187949Y-42459036D01*
X55189801Y-42462038D01*
X55189803Y-42462041D01*
X55313774Y-42586012D01*
X55462995Y-42678053D01*
X55463000Y-42678055D01*
X55629422Y-42733202D01*
X55629429Y-42733203D01*
X55732139Y-42743696D01*
X55869619Y-42743696D01*
X55869620Y-42743695D01*
X55869620Y-41768697D01*
X56369620Y-41768697D01*
X56369620Y-42743696D01*
X56507092Y-42743696D01*
X56507106Y-42743695D01*
X56609817Y-42733202D01*
X56776239Y-42678055D01*
X56776244Y-42678053D01*
X56925465Y-42586012D01*
X57049435Y-42462042D01*
X57141476Y-42312821D01*
X57141478Y-42312816D01*
X57196625Y-42146394D01*
X57196626Y-42146387D01*
X57207119Y-42043683D01*
X57207120Y-42043670D01*
X57207120Y-41768697D01*
X56369620Y-41768697D01*
X55869620Y-41768697D01*
X55869619Y-40293697D01*
X56369620Y-40293697D01*
X56369620Y-41268697D01*
X57207119Y-41268697D01*
X57207119Y-40993725D01*
X57207118Y-40993710D01*
X57196625Y-40890999D01*
X57141478Y-40724577D01*
X57141476Y-40724572D01*
X57049435Y-40575351D01*
X56925465Y-40451381D01*
X56776244Y-40359340D01*
X56776239Y-40359338D01*
X56609817Y-40304191D01*
X56609810Y-40304190D01*
X56507106Y-40293697D01*
X56369620Y-40293697D01*
X55869619Y-40293697D01*
X55732147Y-40293697D01*
X55732132Y-40293698D01*
X55629422Y-40304191D01*
X55463000Y-40359338D01*
X55462995Y-40359340D01*
X55313774Y-40451381D01*
X55189803Y-40575352D01*
X55189799Y-40575357D01*
X55187946Y-40578362D01*
X55186138Y-40579987D01*
X55185322Y-40581020D01*
X55185145Y-40580880D01*
X55135994Y-40625082D01*
X55067031Y-40636298D01*
X55002951Y-40608449D01*
X54976873Y-40578350D01*
X54976857Y-40578325D01*
X54974832Y-40575041D01*
X54850776Y-40450985D01*
X54729142Y-40375961D01*
X54701456Y-40358884D01*
X54701451Y-40358882D01*
X54699982Y-40358395D01*
X54534917Y-40303698D01*
X54534915Y-40303697D01*
X54432130Y-40293197D01*
X53657118Y-40293197D01*
X53657100Y-40293198D01*
X53554323Y-40303697D01*
X53554320Y-40303698D01*
X53387788Y-40358882D01*
X53387783Y-40358884D01*
X53238462Y-40450986D01*
X53114409Y-40575039D01*
X53022307Y-40724360D01*
X53022305Y-40724365D01*
X53005601Y-40774774D01*
X52967121Y-40890900D01*
X52967121Y-40890901D01*
X52967120Y-40890901D01*
X52956620Y-40993680D01*
X52956620Y-42043698D01*
X52956621Y-42043716D01*
X52967120Y-42146493D01*
X52967121Y-42146496D01*
X53012823Y-42284414D01*
X53022306Y-42313031D01*
X53114408Y-42462353D01*
X53238464Y-42586409D01*
X53360217Y-42661506D01*
X53406941Y-42713452D01*
X53419120Y-42767044D01*
X53419120Y-43280349D01*
X53399435Y-43347388D01*
X53360218Y-43385886D01*
X53310922Y-43416293D01*
X53238462Y-43460986D01*
X53114409Y-43585039D01*
X53022307Y-43734360D01*
X53022305Y-43734365D01*
X53001843Y-43796115D01*
X52967121Y-43900900D01*
X52967121Y-43900901D01*
X52967120Y-43900901D01*
X52956620Y-44003680D01*
X52956620Y-45053698D01*
X52956621Y-45053716D01*
X52967120Y-45156493D01*
X52967121Y-45156496D01*
X53022305Y-45323028D01*
X53022307Y-45323033D01*
X53031574Y-45338057D01*
X53114408Y-45472353D01*
X53238464Y-45596409D01*
X53360217Y-45671506D01*
X53406941Y-45723452D01*
X53419120Y-45777044D01*
X53419120Y-46290349D01*
X53399435Y-46357388D01*
X53360218Y-46395886D01*
X53282955Y-46443542D01*
X53238462Y-46470986D01*
X53114409Y-46595039D01*
X53022307Y-46744360D01*
X53022305Y-46744365D01*
X53003293Y-46801740D01*
X52967121Y-46910900D01*
X52967121Y-46910901D01*
X52967120Y-46910901D01*
X52956620Y-47013680D01*
X52956620Y-48063698D01*
X52956621Y-48063716D01*
X52967120Y-48166493D01*
X52967121Y-48166496D01*
X53022305Y-48333028D01*
X53022307Y-48333033D01*
X53031342Y-48347681D01*
X53108039Y-48472028D01*
X53126500Y-48537123D01*
X53126500Y-49513573D01*
X53106815Y-49580612D01*
X53061519Y-49622627D01*
X53003356Y-49654103D01*
X53003353Y-49654105D01*
X52824955Y-49792959D01*
X52824950Y-49792963D01*
X52671850Y-49959272D01*
X52671842Y-49959283D01*
X52585808Y-50090968D01*
X52532662Y-50136325D01*
X52463430Y-50145748D01*
X52400095Y-50116246D01*
X52378192Y-50090968D01*
X52292157Y-49959283D01*
X52292149Y-49959272D01*
X52139049Y-49792963D01*
X52139048Y-49792962D01*
X52139046Y-49792960D01*
X51960649Y-49654107D01*
X51902479Y-49622627D01*
X51761832Y-49546512D01*
X51761827Y-49546510D01*
X51548017Y-49473109D01*
X51366388Y-49442801D01*
X51325033Y-49435900D01*
X51098967Y-49435900D01*
X51057612Y-49442801D01*
X50875982Y-49473109D01*
X50662172Y-49546510D01*
X50662167Y-49546512D01*
X50463352Y-49654106D01*
X50284955Y-49792959D01*
X50284950Y-49792963D01*
X50131850Y-49959272D01*
X50131842Y-49959283D01*
X50008198Y-50148533D01*
X49940483Y-50302909D01*
X49895527Y-50356395D01*
X49828791Y-50377085D01*
X49761463Y-50358410D01*
X49714920Y-50306300D01*
X49711301Y-50297894D01*
X49706301Y-50284988D01*
X49706298Y-50284982D01*
X49706298Y-50284981D01*
X49594052Y-50103698D01*
X49450407Y-49946128D01*
X49427628Y-49928926D01*
X49280253Y-49817632D01*
X49089393Y-49722596D01*
X48884310Y-49664244D01*
X48884309Y-49664244D01*
X48725194Y-49649500D01*
X48618806Y-49649500D01*
X48491513Y-49661295D01*
X48459689Y-49664244D01*
X48254607Y-49722596D01*
X48254605Y-49722596D01*
X48063746Y-49817632D01*
X47893593Y-49946127D01*
X47749947Y-50103699D01*
X47637702Y-50284980D01*
X47637701Y-50284982D01*
X47568385Y-50463910D01*
X47560679Y-50483802D01*
X47521500Y-50693390D01*
X47521500Y-50906610D01*
X46355000Y-50906610D01*
X46355000Y-27429500D01*
X46374685Y-27362461D01*
X46427489Y-27316706D01*
X46479000Y-27305500D01*
X118113000Y-27305500D01*
X118180039Y-27325185D01*
G37*
%TD.AperFunction*%
%TD*%
M02*
