%TF.GenerationSoftware,KiCad,Pcbnew,8.0.5*%
%TF.CreationDate,2024-09-28T12:56:33-04:00*%
%TF.ProjectId,luytenPCB,6c757974-656e-4504-9342-2e6b69636164,rev?*%
%TF.SameCoordinates,Original*%
%TF.FileFunction,Legend,Bot*%
%TF.FilePolarity,Positive*%
%FSLAX46Y46*%
G04 Gerber Fmt 4.6, Leading zero omitted, Abs format (unit mm)*
G04 Created by KiCad (PCBNEW 8.0.5) date 2024-09-28 12:56:33*
%MOMM*%
%LPD*%
G01*
G04 APERTURE LIST*
%ADD10C,0.150000*%
G04 APERTURE END LIST*
D10*
X76687030Y-55369819D02*
X77163220Y-55369819D01*
X77163220Y-55369819D02*
X77163220Y-54369819D01*
X75925125Y-54703152D02*
X75925125Y-55369819D01*
X76353696Y-54703152D02*
X76353696Y-55226961D01*
X76353696Y-55226961D02*
X76306077Y-55322200D01*
X76306077Y-55322200D02*
X76210839Y-55369819D01*
X76210839Y-55369819D02*
X76067982Y-55369819D01*
X76067982Y-55369819D02*
X75972744Y-55322200D01*
X75972744Y-55322200D02*
X75925125Y-55274580D01*
X75544172Y-54703152D02*
X75306077Y-55369819D01*
X75067982Y-54703152D02*
X75306077Y-55369819D01*
X75306077Y-55369819D02*
X75401315Y-55607914D01*
X75401315Y-55607914D02*
X75448934Y-55655533D01*
X75448934Y-55655533D02*
X75544172Y-55703152D01*
X74829886Y-54703152D02*
X74448934Y-54703152D01*
X74687029Y-54369819D02*
X74687029Y-55226961D01*
X74687029Y-55226961D02*
X74639410Y-55322200D01*
X74639410Y-55322200D02*
X74544172Y-55369819D01*
X74544172Y-55369819D02*
X74448934Y-55369819D01*
X73734648Y-55322200D02*
X73829886Y-55369819D01*
X73829886Y-55369819D02*
X74020362Y-55369819D01*
X74020362Y-55369819D02*
X74115600Y-55322200D01*
X74115600Y-55322200D02*
X74163219Y-55226961D01*
X74163219Y-55226961D02*
X74163219Y-54846009D01*
X74163219Y-54846009D02*
X74115600Y-54750771D01*
X74115600Y-54750771D02*
X74020362Y-54703152D01*
X74020362Y-54703152D02*
X73829886Y-54703152D01*
X73829886Y-54703152D02*
X73734648Y-54750771D01*
X73734648Y-54750771D02*
X73687029Y-54846009D01*
X73687029Y-54846009D02*
X73687029Y-54941247D01*
X73687029Y-54941247D02*
X74163219Y-55036485D01*
X73258457Y-54703152D02*
X73258457Y-55369819D01*
X73258457Y-54798390D02*
X73210838Y-54750771D01*
X73210838Y-54750771D02*
X73115600Y-54703152D01*
X73115600Y-54703152D02*
X72972743Y-54703152D01*
X72972743Y-54703152D02*
X72877505Y-54750771D01*
X72877505Y-54750771D02*
X72829886Y-54846009D01*
X72829886Y-54846009D02*
X72829886Y-55369819D01*
X72591791Y-55465057D02*
X71829886Y-55465057D01*
X71591790Y-55369819D02*
X71591790Y-54369819D01*
X71591790Y-54369819D02*
X71258457Y-55084104D01*
X71258457Y-55084104D02*
X70925124Y-54369819D01*
X70925124Y-54369819D02*
X70925124Y-55369819D01*
X70448933Y-55369819D02*
X70448933Y-54703152D01*
X70448933Y-54369819D02*
X70496552Y-54417438D01*
X70496552Y-54417438D02*
X70448933Y-54465057D01*
X70448933Y-54465057D02*
X70401314Y-54417438D01*
X70401314Y-54417438D02*
X70448933Y-54369819D01*
X70448933Y-54369819D02*
X70448933Y-54465057D01*
X69972743Y-54703152D02*
X69972743Y-55369819D01*
X69972743Y-54798390D02*
X69925124Y-54750771D01*
X69925124Y-54750771D02*
X69829886Y-54703152D01*
X69829886Y-54703152D02*
X69687029Y-54703152D01*
X69687029Y-54703152D02*
X69591791Y-54750771D01*
X69591791Y-54750771D02*
X69544172Y-54846009D01*
X69544172Y-54846009D02*
X69544172Y-55369819D01*
X69067981Y-55369819D02*
X69067981Y-54703152D01*
X69067981Y-54369819D02*
X69115600Y-54417438D01*
X69115600Y-54417438D02*
X69067981Y-54465057D01*
X69067981Y-54465057D02*
X69020362Y-54417438D01*
X69020362Y-54417438D02*
X69067981Y-54369819D01*
X69067981Y-54369819D02*
X69067981Y-54465057D01*
X68639410Y-55322200D02*
X68496553Y-55369819D01*
X68496553Y-55369819D02*
X68258458Y-55369819D01*
X68258458Y-55369819D02*
X68163220Y-55322200D01*
X68163220Y-55322200D02*
X68115601Y-55274580D01*
X68115601Y-55274580D02*
X68067982Y-55179342D01*
X68067982Y-55179342D02*
X68067982Y-55084104D01*
X68067982Y-55084104D02*
X68115601Y-54988866D01*
X68115601Y-54988866D02*
X68163220Y-54941247D01*
X68163220Y-54941247D02*
X68258458Y-54893628D01*
X68258458Y-54893628D02*
X68448934Y-54846009D01*
X68448934Y-54846009D02*
X68544172Y-54798390D01*
X68544172Y-54798390D02*
X68591791Y-54750771D01*
X68591791Y-54750771D02*
X68639410Y-54655533D01*
X68639410Y-54655533D02*
X68639410Y-54560295D01*
X68639410Y-54560295D02*
X68591791Y-54465057D01*
X68591791Y-54465057D02*
X68544172Y-54417438D01*
X68544172Y-54417438D02*
X68448934Y-54369819D01*
X68448934Y-54369819D02*
X68210839Y-54369819D01*
X68210839Y-54369819D02*
X68067982Y-54417438D01*
X67210839Y-54703152D02*
X67210839Y-55369819D01*
X67639410Y-54703152D02*
X67639410Y-55226961D01*
X67639410Y-55226961D02*
X67591791Y-55322200D01*
X67591791Y-55322200D02*
X67496553Y-55369819D01*
X67496553Y-55369819D02*
X67353696Y-55369819D01*
X67353696Y-55369819D02*
X67258458Y-55322200D01*
X67258458Y-55322200D02*
X67210839Y-55274580D01*
X66734648Y-55369819D02*
X66734648Y-54703152D01*
X66734648Y-54798390D02*
X66687029Y-54750771D01*
X66687029Y-54750771D02*
X66591791Y-54703152D01*
X66591791Y-54703152D02*
X66448934Y-54703152D01*
X66448934Y-54703152D02*
X66353696Y-54750771D01*
X66353696Y-54750771D02*
X66306077Y-54846009D01*
X66306077Y-54846009D02*
X66306077Y-55369819D01*
X66306077Y-54846009D02*
X66258458Y-54750771D01*
X66258458Y-54750771D02*
X66163220Y-54703152D01*
X66163220Y-54703152D02*
X66020363Y-54703152D01*
X66020363Y-54703152D02*
X65925124Y-54750771D01*
X65925124Y-54750771D02*
X65877505Y-54846009D01*
X65877505Y-54846009D02*
X65877505Y-55369819D01*
X65258458Y-55369819D02*
X65353696Y-55322200D01*
X65353696Y-55322200D02*
X65401315Y-55274580D01*
X65401315Y-55274580D02*
X65448934Y-55179342D01*
X65448934Y-55179342D02*
X65448934Y-54893628D01*
X65448934Y-54893628D02*
X65401315Y-54798390D01*
X65401315Y-54798390D02*
X65353696Y-54750771D01*
X65353696Y-54750771D02*
X65258458Y-54703152D01*
X65258458Y-54703152D02*
X65115601Y-54703152D01*
X65115601Y-54703152D02*
X65020363Y-54750771D01*
X65020363Y-54750771D02*
X64972744Y-54798390D01*
X64972744Y-54798390D02*
X64925125Y-54893628D01*
X64925125Y-54893628D02*
X64925125Y-55179342D01*
X64925125Y-55179342D02*
X64972744Y-55274580D01*
X64972744Y-55274580D02*
X65020363Y-55322200D01*
X65020363Y-55322200D02*
X65115601Y-55369819D01*
X65115601Y-55369819D02*
X65258458Y-55369819D01*
X64734649Y-55465057D02*
X63972744Y-55465057D01*
X63829886Y-54703152D02*
X63591791Y-55369819D01*
X63591791Y-55369819D02*
X63353696Y-54703152D01*
X63067981Y-54369819D02*
X62448934Y-54369819D01*
X62448934Y-54369819D02*
X62782267Y-54750771D01*
X62782267Y-54750771D02*
X62639410Y-54750771D01*
X62639410Y-54750771D02*
X62544172Y-54798390D01*
X62544172Y-54798390D02*
X62496553Y-54846009D01*
X62496553Y-54846009D02*
X62448934Y-54941247D01*
X62448934Y-54941247D02*
X62448934Y-55179342D01*
X62448934Y-55179342D02*
X62496553Y-55274580D01*
X62496553Y-55274580D02*
X62544172Y-55322200D01*
X62544172Y-55322200D02*
X62639410Y-55369819D01*
X62639410Y-55369819D02*
X62925124Y-55369819D01*
X62925124Y-55369819D02*
X63020362Y-55322200D01*
X63020362Y-55322200D02*
X63067981Y-55274580D01*
X62020362Y-55274580D02*
X61972743Y-55322200D01*
X61972743Y-55322200D02*
X62020362Y-55369819D01*
X62020362Y-55369819D02*
X62067981Y-55322200D01*
X62067981Y-55322200D02*
X62020362Y-55274580D01*
X62020362Y-55274580D02*
X62020362Y-55369819D01*
X61020363Y-55369819D02*
X61591791Y-55369819D01*
X61306077Y-55369819D02*
X61306077Y-54369819D01*
X61306077Y-54369819D02*
X61401315Y-54512676D01*
X61401315Y-54512676D02*
X61496553Y-54607914D01*
X61496553Y-54607914D02*
X61591791Y-54655533D01*
X59829886Y-54988866D02*
X59067982Y-54988866D01*
X57877505Y-55084104D02*
X57401315Y-55084104D01*
X57972743Y-55369819D02*
X57639410Y-54369819D01*
X57639410Y-54369819D02*
X57306077Y-55369819D01*
X56829886Y-55369819D02*
X56925124Y-55322200D01*
X56925124Y-55322200D02*
X56972743Y-55226961D01*
X56972743Y-55226961D02*
X56972743Y-54369819D01*
X56067981Y-55322200D02*
X56163219Y-55369819D01*
X56163219Y-55369819D02*
X56353695Y-55369819D01*
X56353695Y-55369819D02*
X56448933Y-55322200D01*
X56448933Y-55322200D02*
X56496552Y-55226961D01*
X56496552Y-55226961D02*
X56496552Y-54846009D01*
X56496552Y-54846009D02*
X56448933Y-54750771D01*
X56448933Y-54750771D02*
X56353695Y-54703152D01*
X56353695Y-54703152D02*
X56163219Y-54703152D01*
X56163219Y-54703152D02*
X56067981Y-54750771D01*
X56067981Y-54750771D02*
X56020362Y-54846009D01*
X56020362Y-54846009D02*
X56020362Y-54941247D01*
X56020362Y-54941247D02*
X56496552Y-55036485D01*
X55687028Y-55369819D02*
X55163219Y-54703152D01*
X55687028Y-54703152D02*
X55163219Y-55369819D01*
X54020361Y-55369819D02*
X54020361Y-54369819D01*
X54020361Y-54369819D02*
X53639409Y-54369819D01*
X53639409Y-54369819D02*
X53544171Y-54417438D01*
X53544171Y-54417438D02*
X53496552Y-54465057D01*
X53496552Y-54465057D02*
X53448933Y-54560295D01*
X53448933Y-54560295D02*
X53448933Y-54703152D01*
X53448933Y-54703152D02*
X53496552Y-54798390D01*
X53496552Y-54798390D02*
X53544171Y-54846009D01*
X53544171Y-54846009D02*
X53639409Y-54893628D01*
X53639409Y-54893628D02*
X54020361Y-54893628D01*
X52639409Y-55322200D02*
X52734647Y-55369819D01*
X52734647Y-55369819D02*
X52925123Y-55369819D01*
X52925123Y-55369819D02*
X53020361Y-55322200D01*
X53020361Y-55322200D02*
X53067980Y-55226961D01*
X53067980Y-55226961D02*
X53067980Y-54846009D01*
X53067980Y-54846009D02*
X53020361Y-54750771D01*
X53020361Y-54750771D02*
X52925123Y-54703152D01*
X52925123Y-54703152D02*
X52734647Y-54703152D01*
X52734647Y-54703152D02*
X52639409Y-54750771D01*
X52639409Y-54750771D02*
X52591790Y-54846009D01*
X52591790Y-54846009D02*
X52591790Y-54941247D01*
X52591790Y-54941247D02*
X53067980Y-55036485D01*
X52163218Y-54703152D02*
X52163218Y-55369819D01*
X52163218Y-54798390D02*
X52115599Y-54750771D01*
X52115599Y-54750771D02*
X52020361Y-54703152D01*
X52020361Y-54703152D02*
X51877504Y-54703152D01*
X51877504Y-54703152D02*
X51782266Y-54750771D01*
X51782266Y-54750771D02*
X51734647Y-54846009D01*
X51734647Y-54846009D02*
X51734647Y-55369819D01*
X50829885Y-54703152D02*
X50829885Y-55512676D01*
X50829885Y-55512676D02*
X50877504Y-55607914D01*
X50877504Y-55607914D02*
X50925123Y-55655533D01*
X50925123Y-55655533D02*
X51020361Y-55703152D01*
X51020361Y-55703152D02*
X51163218Y-55703152D01*
X51163218Y-55703152D02*
X51258456Y-55655533D01*
X50829885Y-55322200D02*
X50925123Y-55369819D01*
X50925123Y-55369819D02*
X51115599Y-55369819D01*
X51115599Y-55369819D02*
X51210837Y-55322200D01*
X51210837Y-55322200D02*
X51258456Y-55274580D01*
X51258456Y-55274580D02*
X51306075Y-55179342D01*
X51306075Y-55179342D02*
X51306075Y-54893628D01*
X51306075Y-54893628D02*
X51258456Y-54798390D01*
X51258456Y-54798390D02*
X51210837Y-54750771D01*
X51210837Y-54750771D02*
X51115599Y-54703152D01*
X51115599Y-54703152D02*
X50925123Y-54703152D01*
X50925123Y-54703152D02*
X50829885Y-54750771D01*
X49544170Y-54369819D02*
X49639408Y-54560295D01*
X49163218Y-54465057D02*
X49115599Y-54417438D01*
X49115599Y-54417438D02*
X49020361Y-54369819D01*
X49020361Y-54369819D02*
X48782266Y-54369819D01*
X48782266Y-54369819D02*
X48687028Y-54417438D01*
X48687028Y-54417438D02*
X48639409Y-54465057D01*
X48639409Y-54465057D02*
X48591790Y-54560295D01*
X48591790Y-54560295D02*
X48591790Y-54655533D01*
X48591790Y-54655533D02*
X48639409Y-54798390D01*
X48639409Y-54798390D02*
X49210837Y-55369819D01*
X49210837Y-55369819D02*
X48591790Y-55369819D01*
X47734647Y-54703152D02*
X47734647Y-55369819D01*
X47972742Y-54322200D02*
X48210837Y-55036485D01*
X48210837Y-55036485D02*
X47591790Y-55036485D01*
M02*
