%TF.GenerationSoftware,KiCad,Pcbnew,7.0.9*%
%TF.CreationDate,2024-06-02T15:37:05-06:00*%
%TF.ProjectId,luytenPCB,6c757974-656e-4504-9342-2e6b69636164,rev?*%
%TF.SameCoordinates,Original*%
%TF.FileFunction,Legend,Top*%
%TF.FilePolarity,Positive*%
%FSLAX46Y46*%
G04 Gerber Fmt 4.6, Leading zero omitted, Abs format (unit mm)*
G04 Created by KiCad (PCBNEW 7.0.9) date 2024-06-02 15:37:05*
%MOMM*%
%LPD*%
G01*
G04 APERTURE LIST*
%ADD10C,0.150000*%
%ADD11C,0.120000*%
%ADD12C,0.200000*%
%ADD13C,0.127000*%
G04 APERTURE END LIST*
D10*
G36*
X106222815Y-61382000D02*
G01*
X106222815Y-59349899D01*
X106493436Y-59349899D01*
X106493436Y-61163158D01*
X107443052Y-61163158D01*
X107443052Y-61382000D01*
X106222815Y-61382000D01*
G37*
G36*
X107814301Y-59349899D02*
G01*
X108084922Y-59349899D01*
X108084922Y-60673207D01*
X108085113Y-60702268D01*
X108085685Y-60730222D01*
X108086639Y-60757070D01*
X108087975Y-60782811D01*
X108089692Y-60807445D01*
X108091791Y-60830972D01*
X108094272Y-60853393D01*
X108097134Y-60874707D01*
X108100378Y-60894914D01*
X108105959Y-60923150D01*
X108112399Y-60948896D01*
X108119698Y-60972151D01*
X108127855Y-60992917D01*
X108133771Y-61005377D01*
X108143217Y-61022729D01*
X108156708Y-61044570D01*
X108171221Y-61064930D01*
X108186757Y-61083809D01*
X108203316Y-61101208D01*
X108220898Y-61117125D01*
X108239502Y-61131562D01*
X108259130Y-61144519D01*
X108264196Y-61147526D01*
X108285209Y-61158517D01*
X108307214Y-61168043D01*
X108330211Y-61176103D01*
X108354200Y-61182697D01*
X108379181Y-61187826D01*
X108398568Y-61190712D01*
X108418514Y-61192772D01*
X108439017Y-61194009D01*
X108460079Y-61194421D01*
X108480693Y-61194036D01*
X108500891Y-61192879D01*
X108520672Y-61190952D01*
X108540038Y-61188254D01*
X108568307Y-61182761D01*
X108595640Y-61175534D01*
X108622036Y-61166573D01*
X108647497Y-61155876D01*
X108672022Y-61143446D01*
X108695611Y-61129281D01*
X108718264Y-61113381D01*
X108739981Y-61095747D01*
X108760234Y-61075123D01*
X108772630Y-61059118D01*
X108784140Y-61041307D01*
X108794764Y-61021691D01*
X108804503Y-61000270D01*
X108813357Y-60977044D01*
X108821326Y-60952013D01*
X108828409Y-60925177D01*
X108834606Y-60896536D01*
X108839919Y-60866089D01*
X108844346Y-60833838D01*
X108847887Y-60799781D01*
X108850543Y-60763920D01*
X108852314Y-60726253D01*
X108853199Y-60686781D01*
X108853310Y-60666368D01*
X108853310Y-59349899D01*
X109089249Y-59349899D01*
X109089249Y-60639501D01*
X109089157Y-60666255D01*
X109088882Y-60692174D01*
X109088424Y-60717256D01*
X109087783Y-60741503D01*
X109086959Y-60764914D01*
X109085951Y-60787490D01*
X109084761Y-60809229D01*
X109083387Y-60830133D01*
X109081830Y-60850201D01*
X109079151Y-60878736D01*
X109076060Y-60905390D01*
X109072556Y-60930164D01*
X109068641Y-60953058D01*
X109065801Y-60967275D01*
X109060525Y-60989505D01*
X109054345Y-61011376D01*
X109047260Y-61032889D01*
X109039270Y-61054042D01*
X109030377Y-61074837D01*
X109020578Y-61095274D01*
X109009875Y-61115351D01*
X108998268Y-61135070D01*
X108985756Y-61154430D01*
X108972340Y-61173431D01*
X108958020Y-61192074D01*
X108942795Y-61210358D01*
X108926665Y-61228283D01*
X108909631Y-61245849D01*
X108891692Y-61263057D01*
X108872849Y-61279906D01*
X108853159Y-61296055D01*
X108832679Y-61311161D01*
X108811409Y-61325226D01*
X108789349Y-61338250D01*
X108766499Y-61350231D01*
X108742859Y-61361170D01*
X108718429Y-61371068D01*
X108693209Y-61379923D01*
X108667199Y-61387737D01*
X108640399Y-61394509D01*
X108612809Y-61400239D01*
X108584429Y-61404928D01*
X108555259Y-61408574D01*
X108525300Y-61411179D01*
X108494550Y-61412742D01*
X108463010Y-61413263D01*
X108425364Y-61412587D01*
X108388753Y-61410561D01*
X108353175Y-61407183D01*
X108318632Y-61402455D01*
X108285123Y-61396375D01*
X108252648Y-61388945D01*
X108221208Y-61380164D01*
X108190801Y-61370032D01*
X108161429Y-61358548D01*
X108133091Y-61345714D01*
X108105788Y-61331529D01*
X108079518Y-61315993D01*
X108054283Y-61299106D01*
X108030082Y-61280868D01*
X108006915Y-61261279D01*
X107984782Y-61240339D01*
X107968717Y-61223486D01*
X107953493Y-61206084D01*
X107939110Y-61188132D01*
X107925569Y-61169630D01*
X107912869Y-61150579D01*
X107901011Y-61130979D01*
X107889994Y-61110829D01*
X107879819Y-61090129D01*
X107870485Y-61068880D01*
X107861993Y-61047081D01*
X107856799Y-61032244D01*
X107850602Y-61012643D01*
X107844953Y-60993165D01*
X107839855Y-60973809D01*
X107835306Y-60954575D01*
X107830392Y-60930704D01*
X107826338Y-60907023D01*
X107823141Y-60883534D01*
X107822605Y-60878859D01*
X107820213Y-60854335D01*
X107818591Y-60833032D01*
X107817229Y-60810234D01*
X107816126Y-60785939D01*
X107815282Y-60760149D01*
X107814820Y-60739824D01*
X107814504Y-60718658D01*
X107814333Y-60696650D01*
X107814301Y-60681511D01*
X107814301Y-59349899D01*
G37*
G36*
X110003694Y-61382000D02*
G01*
X110003694Y-60525196D01*
X109334468Y-59349899D01*
X109646122Y-59349899D01*
X110169779Y-60266787D01*
X110719325Y-59349899D01*
X110976269Y-59349899D01*
X110274315Y-60525196D01*
X110274315Y-61382000D01*
X110003694Y-61382000D01*
G37*
G36*
X111688481Y-61382000D02*
G01*
X111688481Y-59568741D01*
X111010951Y-59568741D01*
X111010951Y-59349899D01*
X112637609Y-59349899D01*
X112637609Y-59568741D01*
X111960568Y-59568741D01*
X111960568Y-61382000D01*
X111688481Y-61382000D01*
G37*
G36*
X112960009Y-61382000D02*
G01*
X112960009Y-59349899D01*
X114150937Y-59349899D01*
X114150937Y-59568741D01*
X113230630Y-59568741D01*
X113230630Y-60194002D01*
X114010742Y-60194002D01*
X114010742Y-60412844D01*
X113230630Y-60412844D01*
X113230630Y-61163158D01*
X114213952Y-61163158D01*
X114213952Y-61382000D01*
X112960009Y-61382000D01*
G37*
G36*
X114552473Y-61382000D02*
G01*
X114552473Y-59349899D01*
X114807951Y-59349899D01*
X115617371Y-60832942D01*
X115620302Y-60837826D01*
X115620302Y-59349899D01*
X115841098Y-59349899D01*
X115841098Y-61382000D01*
X115591482Y-61382000D01*
X114776688Y-59888210D01*
X114772291Y-59879906D01*
X114772291Y-61382000D01*
X114552473Y-61382000D01*
G37*
X114994591Y-45970590D02*
X114994591Y-44827733D01*
X115566019Y-45399161D02*
X114423162Y-45399161D01*
X114994591Y-32970590D02*
X114994591Y-31827733D01*
D11*
%TO.C,J1*%
X116289891Y-33689162D02*
X113469891Y-33689162D01*
X116289891Y-33689162D02*
X117589891Y-35389162D01*
X113469891Y-33689162D02*
X112169891Y-35389162D01*
X117589891Y-35389162D02*
X117589891Y-44109162D01*
X112169891Y-35389162D02*
X112169891Y-44109162D01*
X117589891Y-44109162D02*
X112169891Y-44109162D01*
D12*
%TO.C,IC1*%
X88326000Y-28956000D02*
G75*
G03*
X88326000Y-28956000I-100000J0D01*
G01*
D13*
X90346000Y-33386000D02*
X94246000Y-33386000D01*
X90346000Y-28336000D02*
X94246000Y-28336000D01*
D12*
%TO.C,IC2*%
X75178000Y-32751000D02*
G75*
G03*
X75178000Y-32751000I-100000J0D01*
G01*
D13*
X72958000Y-28321000D02*
X69058000Y-28321000D01*
X72958000Y-33371000D02*
X69058000Y-33371000D01*
D11*
%TO.C,R9*%
X76118000Y-28250000D02*
X76118000Y-30170000D01*
X78978000Y-28250000D02*
X76118000Y-28250000D01*
X76118000Y-30170000D02*
X78978000Y-30170000D01*
%TO.C,R8*%
X87712000Y-30170000D02*
X87712000Y-28250000D01*
X84852000Y-30170000D02*
X87712000Y-30170000D01*
X87712000Y-28250000D02*
X84852000Y-28250000D01*
%TO.C,C10*%
X92483000Y-36329252D02*
X92483000Y-35806748D01*
X93953000Y-36329252D02*
X93953000Y-35806748D01*
%TO.C,C9*%
X93953000Y-39870748D02*
X93953000Y-40393252D01*
X92483000Y-39870748D02*
X92483000Y-40393252D01*
%TO.C,C6*%
X54820868Y-46803697D02*
X55343372Y-46803697D01*
X54820868Y-48273697D02*
X55343372Y-48273697D01*
%TO.C,D2*%
X100840000Y-48748733D02*
X100840000Y-49041267D01*
X99820000Y-48748733D02*
X99820000Y-49041267D01*
D10*
%TO.C,A1*%
X90582000Y-34290000D02*
X47402000Y-34290000D01*
X90582000Y-34290000D02*
X90582000Y-52070000D01*
X47402000Y-34290000D02*
X47402000Y-52070000D01*
X90582000Y-52070000D02*
X47402000Y-52070000D01*
D11*
%TO.C,C8*%
X97160359Y-42357180D02*
X97160359Y-42879684D01*
X95690359Y-42357180D02*
X95690359Y-42879684D01*
%TO.C,R1*%
X102545000Y-55672500D02*
X104465000Y-55672500D01*
X104465000Y-55672500D02*
X104465000Y-52812500D01*
X102545000Y-52812500D02*
X102545000Y-55672500D01*
%TO.C,SW2*%
X98940000Y-45055000D02*
X100323000Y-45055000D01*
X98940000Y-45055000D02*
X98940000Y-43671000D01*
X99180000Y-44815000D02*
X100800000Y-44815000D01*
X99180000Y-44815000D02*
X99180000Y-34915000D01*
X102400000Y-44815000D02*
X103340000Y-44815000D01*
X104940000Y-44815000D02*
X105880000Y-44815000D01*
X107480000Y-44815000D02*
X109100000Y-44815000D01*
X109100000Y-44815000D02*
X109100000Y-34915000D01*
X100965000Y-41895000D02*
X102235000Y-41895000D01*
X101085000Y-41895000D02*
X101085000Y-40541667D01*
X101205000Y-41895000D02*
X101205000Y-40541667D01*
X101325000Y-41895000D02*
X101325000Y-40541667D01*
X101445000Y-41895000D02*
X101445000Y-40541667D01*
X101565000Y-41895000D02*
X101565000Y-40541667D01*
X101685000Y-41895000D02*
X101685000Y-40541667D01*
X101805000Y-41895000D02*
X101805000Y-40541667D01*
X101925000Y-41895000D02*
X101925000Y-40541667D01*
X102045000Y-41895000D02*
X102045000Y-40541667D01*
X102165000Y-41895000D02*
X102165000Y-40541667D01*
X102235000Y-41895000D02*
X102235000Y-37835000D01*
X103505000Y-41895000D02*
X104775000Y-41895000D01*
X103625000Y-41895000D02*
X103625000Y-40541667D01*
X103745000Y-41895000D02*
X103745000Y-40541667D01*
X103865000Y-41895000D02*
X103865000Y-40541667D01*
X103985000Y-41895000D02*
X103985000Y-40541667D01*
X104105000Y-41895000D02*
X104105000Y-40541667D01*
X104225000Y-41895000D02*
X104225000Y-40541667D01*
X104345000Y-41895000D02*
X104345000Y-40541667D01*
X104465000Y-41895000D02*
X104465000Y-40541667D01*
X104585000Y-41895000D02*
X104585000Y-40541667D01*
X104705000Y-41895000D02*
X104705000Y-40541667D01*
X104775000Y-41895000D02*
X104775000Y-37835000D01*
X106045000Y-41895000D02*
X107315000Y-41895000D01*
X106165000Y-41895000D02*
X106165000Y-40541667D01*
X106285000Y-41895000D02*
X106285000Y-40541667D01*
X106405000Y-41895000D02*
X106405000Y-40541667D01*
X106525000Y-41895000D02*
X106525000Y-40541667D01*
X106645000Y-41895000D02*
X106645000Y-40541667D01*
X106765000Y-41895000D02*
X106765000Y-40541667D01*
X106885000Y-41895000D02*
X106885000Y-40541667D01*
X107005000Y-41895000D02*
X107005000Y-40541667D01*
X107125000Y-41895000D02*
X107125000Y-40541667D01*
X107245000Y-41895000D02*
X107245000Y-40541667D01*
X107315000Y-41895000D02*
X107315000Y-37835000D01*
X100965000Y-40541667D02*
X102235000Y-40541667D01*
X103505000Y-40541667D02*
X104775000Y-40541667D01*
X106045000Y-40541667D02*
X107315000Y-40541667D01*
X100965000Y-37835000D02*
X100965000Y-41895000D01*
X102235000Y-37835000D02*
X100965000Y-37835000D01*
X103505000Y-37835000D02*
X103505000Y-41895000D01*
X104775000Y-37835000D02*
X103505000Y-37835000D01*
X106045000Y-37835000D02*
X106045000Y-41895000D01*
X107315000Y-37835000D02*
X106045000Y-37835000D01*
X99180000Y-34915000D02*
X100800000Y-34915000D01*
X102400000Y-34915000D02*
X103340000Y-34915000D01*
X104940000Y-34915000D02*
X105880000Y-34915000D01*
X107480000Y-34915000D02*
X109100000Y-34915000D01*
%TO.C,J7*%
X84522000Y-61782000D02*
X84522000Y-60452000D01*
X85852000Y-61782000D02*
X84522000Y-61782000D01*
X87122000Y-61782000D02*
X92262000Y-61782000D01*
X87122000Y-61782000D02*
X87122000Y-59122000D01*
X92262000Y-61782000D02*
X92262000Y-59122000D01*
X87122000Y-59122000D02*
X92262000Y-59122000D01*
%TO.C,D3*%
X82442267Y-57152000D02*
X82149733Y-57152000D01*
X82442267Y-56132000D02*
X82149733Y-56132000D01*
%TO.C,J10*%
X114895548Y-49530000D02*
X114895548Y-54670000D01*
X114895548Y-49530000D02*
X117555548Y-49530000D01*
X114895548Y-54670000D02*
X117555548Y-54670000D01*
X116225548Y-46930000D02*
X117555548Y-46930000D01*
X117555548Y-46930000D02*
X117555548Y-48260000D01*
X117555548Y-49530000D02*
X117555548Y-54670000D01*
%TO.C,J8*%
X49470000Y-61782000D02*
X49470000Y-60452000D01*
X50800000Y-61782000D02*
X49470000Y-61782000D01*
X52070000Y-61782000D02*
X57210000Y-61782000D01*
X52070000Y-61782000D02*
X52070000Y-59122000D01*
X57210000Y-61782000D02*
X57210000Y-59122000D01*
X52070000Y-59122000D02*
X57210000Y-59122000D01*
%TO.C,C7*%
X95765133Y-38480680D02*
X95765133Y-37958176D01*
X97235133Y-38480680D02*
X97235133Y-37958176D01*
%TO.C,C3*%
X85610817Y-42389223D02*
X85088313Y-42389223D01*
X85610817Y-40919223D02*
X85088313Y-40919223D01*
%TO.C,D1*%
X104015000Y-48748733D02*
X104015000Y-49041267D01*
X102995000Y-48748733D02*
X102995000Y-49041267D01*
%TO.C,F1*%
X90191000Y-45625936D02*
X90191000Y-46830064D01*
X88371000Y-45625936D02*
X88371000Y-46830064D01*
%TO.C,D7*%
X67837267Y-57152000D02*
X67544733Y-57152000D01*
X67837267Y-56132000D02*
X67544733Y-56132000D01*
%TO.C,J6*%
X96221000Y-61782000D02*
X96221000Y-60452000D01*
X97551000Y-61782000D02*
X96221000Y-61782000D01*
X98821000Y-61782000D02*
X103961000Y-61782000D01*
X98821000Y-61782000D02*
X98821000Y-59122000D01*
X103961000Y-61782000D02*
X103961000Y-59122000D01*
X98821000Y-59122000D02*
X103961000Y-59122000D01*
%TO.C,R2*%
X99370000Y-52812500D02*
X99370000Y-55672500D01*
X101290000Y-55672500D02*
X101290000Y-52812500D01*
X99370000Y-55672500D02*
X101290000Y-55672500D01*
%TO.C,C4*%
X54820868Y-40783697D02*
X55343372Y-40783697D01*
X54820868Y-42253697D02*
X55343372Y-42253697D01*
%TO.C,R3*%
X84401000Y-55062000D02*
X84401000Y-53142000D01*
X84401000Y-53142000D02*
X81541000Y-53142000D01*
X81541000Y-55062000D02*
X84401000Y-55062000D01*
%TO.C,R4*%
X77044000Y-55062000D02*
X77044000Y-53142000D01*
X77044000Y-53142000D02*
X74184000Y-53142000D01*
X74184000Y-55062000D02*
X77044000Y-55062000D01*
%TO.C,R7*%
X69678000Y-55062000D02*
X69678000Y-53142000D01*
X69678000Y-53142000D02*
X66818000Y-53142000D01*
X66818000Y-55062000D02*
X69678000Y-55062000D01*
%TO.C,D6*%
X53232267Y-57152000D02*
X52939733Y-57152000D01*
X53232267Y-56132000D02*
X52939733Y-56132000D01*
%TO.C,C5*%
X54820868Y-43793697D02*
X55343372Y-43793697D01*
X54820868Y-45263697D02*
X55343372Y-45263697D01*
%TO.C,C1*%
X85610817Y-48409223D02*
X85088313Y-48409223D01*
X85610817Y-46939223D02*
X85088313Y-46939223D01*
%TO.C,R6*%
X55191000Y-55062000D02*
X55191000Y-53142000D01*
X55191000Y-53142000D02*
X52331000Y-53142000D01*
X52331000Y-55062000D02*
X55191000Y-55062000D01*
%TO.C,J4*%
X48723000Y-31810000D02*
X48723000Y-30480000D01*
X50053000Y-31810000D02*
X48723000Y-31810000D01*
X51323000Y-31810000D02*
X56463000Y-31810000D01*
X51323000Y-31810000D02*
X51323000Y-29150000D01*
X56463000Y-31810000D02*
X56463000Y-29150000D01*
X51323000Y-29150000D02*
X56463000Y-29150000D01*
%TO.C,J5*%
X114599000Y-29150000D02*
X114599000Y-30480000D01*
X113269000Y-29150000D02*
X114599000Y-29150000D01*
X111999000Y-29150000D02*
X106859000Y-29150000D01*
X111999000Y-29150000D02*
X111999000Y-31810000D01*
X106859000Y-29150000D02*
X106859000Y-31810000D01*
X111999000Y-31810000D02*
X106859000Y-31810000D01*
%TO.C,R5*%
X62312000Y-55062000D02*
X62312000Y-53142000D01*
X62312000Y-53142000D02*
X59452000Y-53142000D01*
X59452000Y-55062000D02*
X62312000Y-55062000D01*
%TO.C,D4*%
X75076267Y-57152000D02*
X74783733Y-57152000D01*
X75076267Y-56132000D02*
X74783733Y-56132000D01*
%TO.C,J2*%
X104200000Y-29150000D02*
X104200000Y-30480000D01*
X102870000Y-29150000D02*
X104200000Y-29150000D01*
X101600000Y-29150000D02*
X99000000Y-29150000D01*
X101600000Y-29150000D02*
X101600000Y-31810000D01*
X99000000Y-29150000D02*
X99000000Y-31810000D01*
X101600000Y-31810000D02*
X99000000Y-31810000D01*
%TO.C,J9*%
X61154000Y-61782000D02*
X61154000Y-60452000D01*
X62484000Y-61782000D02*
X61154000Y-61782000D01*
X63754000Y-61782000D02*
X68894000Y-61782000D01*
X63754000Y-61782000D02*
X63754000Y-59122000D01*
X68894000Y-61782000D02*
X68894000Y-59122000D01*
X63754000Y-59122000D02*
X68894000Y-59122000D01*
%TO.C,C2*%
X85610817Y-45399223D02*
X85088313Y-45399223D01*
X85610817Y-43929223D02*
X85088313Y-43929223D01*
%TO.C,J3*%
X58614000Y-31810000D02*
X58614000Y-30480000D01*
X59944000Y-31810000D02*
X58614000Y-31810000D01*
X61214000Y-31810000D02*
X63814000Y-31810000D01*
X61214000Y-31810000D02*
X61214000Y-29150000D01*
X63814000Y-31810000D02*
X63814000Y-29150000D01*
X61214000Y-29150000D02*
X63814000Y-29150000D01*
%TO.C,SW1*%
X91955000Y-55990000D02*
X93338000Y-55990000D01*
X91955000Y-55990000D02*
X91955000Y-54606000D01*
X92195000Y-55750000D02*
X97035000Y-55750000D01*
X92195000Y-55750000D02*
X92195000Y-45850000D01*
X97035000Y-55750000D02*
X97035000Y-45850000D01*
X93980000Y-52830000D02*
X95250000Y-52830000D01*
X94100000Y-52830000D02*
X94100000Y-51476667D01*
X94220000Y-52830000D02*
X94220000Y-51476667D01*
X94340000Y-52830000D02*
X94340000Y-51476667D01*
X94460000Y-52830000D02*
X94460000Y-51476667D01*
X94580000Y-52830000D02*
X94580000Y-51476667D01*
X94700000Y-52830000D02*
X94700000Y-51476667D01*
X94820000Y-52830000D02*
X94820000Y-51476667D01*
X94940000Y-52830000D02*
X94940000Y-51476667D01*
X95060000Y-52830000D02*
X95060000Y-51476667D01*
X95180000Y-52830000D02*
X95180000Y-51476667D01*
X95250000Y-52830000D02*
X95250000Y-48770000D01*
X93980000Y-51476667D02*
X95250000Y-51476667D01*
X93980000Y-48770000D02*
X93980000Y-52830000D01*
X95250000Y-48770000D02*
X93980000Y-48770000D01*
X92195000Y-45850000D02*
X97035000Y-45850000D01*
%TO.C,J11*%
X73092000Y-61782000D02*
X73092000Y-60452000D01*
X74422000Y-61782000D02*
X73092000Y-61782000D01*
X75692000Y-61782000D02*
X80832000Y-61782000D01*
X75692000Y-61782000D02*
X75692000Y-59122000D01*
X80832000Y-61782000D02*
X80832000Y-59122000D01*
X75692000Y-59122000D02*
X80832000Y-59122000D01*
%TO.C,D5*%
X60395067Y-57152000D02*
X60102533Y-57152000D01*
X60395067Y-56132000D02*
X60102533Y-56132000D01*
%TD*%
M02*
