M48
; DRILL file {KiCad 7.0.6} date Fri Feb  2 01:32:01 2024
; FORMAT={-:-/ absolute / metric / decimal}
; #@! TF.CreationDate,2024-02-02T01:32:01-05:00
; #@! TF.GenerationSoftware,Kicad,Pcbnew,7.0.6
; #@! TF.FileFunction,Plated,1,2,PTH
FMAT,2
METRIC
; #@! TA.AperFunction,Plated,PTH,ViaDrill
T1C0.400
; #@! TA.AperFunction,Plated,PTH,ComponentDrill
T2C0.800
; #@! TA.AperFunction,Plated,PTH,ComponentDrill
T3C1.000
; #@! TA.AperFunction,Plated,PTH,ComponentDrill
T4C1.016
; #@! TA.AperFunction,Plated,PTH,ComponentDrill
T5C1.400
; #@! TA.AperFunction,Plated,PTH,ComponentDrill
T6C2.700
%
G90
G05
T1
X52.07Y-33.655
X52.705Y-55.88
X53.338Y-38.437
X55.245Y-37.465
X57.785Y-32.93
X62.865Y-46.355
X65.405Y-41.275
X69.215Y-40.64
X71.755Y-39.37
X82.677Y-44.196
X85.344Y-52.705
X88.265Y-40.639
X88.265Y-43.18
X88.9Y-53.34
X90.17Y-37.465
X90.17Y-38.465
X91.059Y-34.38
X91.44Y-46.99
X91.567Y-40.639
X92.71Y-44.45
X93.675Y-35.94
X93.98Y-32.93
X94.4Y-35.201
X94.615Y-40.64
X94.615Y-44.45
X96.52Y-46.99
X98.171Y-45.847
X98.171Y-48.514
X98.425Y-53.975
X100.965Y-38.735
X103.505Y-39.37
X105.283Y-55.372
X106.045Y-41.364
X106.68Y-51.435
X106.807Y-49.53
X107.95Y-40.005
X108.585Y-43.815
X109.855Y-45.72
T2
X94.615Y-46.99
X94.615Y-54.61
T3
X116.226Y-48.26
X116.226Y-50.8
X116.226Y-53.34
T4
X51.212Y-35.56
X51.212Y-50.8
X53.752Y-35.56
X53.752Y-50.8
X56.292Y-35.56
X56.292Y-50.8
X58.832Y-35.56
X58.832Y-50.8
X61.372Y-35.56
X61.372Y-50.8
X63.912Y-35.56
X63.912Y-50.8
X66.452Y-35.56
X66.452Y-50.8
X68.992Y-35.56
X68.992Y-50.8
X71.532Y-35.56
X71.532Y-50.8
X74.072Y-35.56
X74.072Y-50.8
X76.612Y-35.56
X76.612Y-50.8
X79.152Y-35.56
X79.152Y-50.8
X81.692Y-35.56
X81.692Y-50.8
X84.232Y-35.56
X84.232Y-50.8
X86.772Y-35.56
X86.772Y-50.8
T5
X50.76Y-30.48
X50.8Y-58.69
X55.76Y-30.48
X55.8Y-58.69
X60.8Y-58.69
X63.5Y-30.48
X68.5Y-30.48
X68.58Y-58.69
X73.5Y-30.48
X73.58Y-58.69
X78.58Y-58.69
X86.36Y-58.69
X91.223Y-30.447
X91.36Y-58.69
X96.223Y-30.447
X96.36Y-58.69
X101.223Y-30.447
X104.14Y-58.69
X108.963Y-30.447
X109.14Y-58.69
X113.963Y-30.447
X114.14Y-58.69
T6
X114.88Y-36.399
X114.88Y-41.399
T0
M30
