%TF.GenerationSoftware,KiCad,Pcbnew,7.0.9*%
%TF.CreationDate,2024-06-02T15:37:05-06:00*%
%TF.ProjectId,luytenPCB,6c757974-656e-4504-9342-2e6b69636164,rev?*%
%TF.SameCoordinates,Original*%
%TF.FileFunction,Paste,Top*%
%TF.FilePolarity,Positive*%
%FSLAX46Y46*%
G04 Gerber Fmt 4.6, Leading zero omitted, Abs format (unit mm)*
G04 Created by KiCad (PCBNEW 7.0.9) date 2024-06-02 15:37:05*
%MOMM*%
%LPD*%
G01*
G04 APERTURE LIST*
G04 Aperture macros list*
%AMRoundRect*
0 Rectangle with rounded corners*
0 $1 Rounding radius*
0 $2 $3 $4 $5 $6 $7 $8 $9 X,Y pos of 4 corners*
0 Add a 4 corners polygon primitive as box body*
4,1,4,$2,$3,$4,$5,$6,$7,$8,$9,$2,$3,0*
0 Add four circle primitives for the rounded corners*
1,1,$1+$1,$2,$3*
1,1,$1+$1,$4,$5*
1,1,$1+$1,$6,$7*
1,1,$1+$1,$8,$9*
0 Add four rect primitives between the rounded corners*
20,1,$1+$1,$2,$3,$4,$5,0*
20,1,$1+$1,$4,$5,$6,$7,0*
20,1,$1+$1,$6,$7,$8,$9,0*
20,1,$1+$1,$8,$9,$2,$3,0*%
G04 Aperture macros list end*
%ADD10C,0.010000*%
%ADD11RoundRect,0.015000X-0.760000X-0.285000X0.760000X-0.285000X0.760000X0.285000X-0.760000X0.285000X0*%
%ADD12RoundRect,0.015000X0.760000X0.285000X-0.760000X0.285000X-0.760000X-0.285000X0.760000X-0.285000X0*%
%ADD13RoundRect,0.250000X-0.325000X-0.450000X0.325000X-0.450000X0.325000X0.450000X-0.325000X0.450000X0*%
%ADD14RoundRect,0.250000X0.325000X0.450000X-0.325000X0.450000X-0.325000X-0.450000X0.325000X-0.450000X0*%
%ADD15RoundRect,0.250000X0.475000X-0.337500X0.475000X0.337500X-0.475000X0.337500X-0.475000X-0.337500X0*%
%ADD16RoundRect,0.250000X-0.475000X0.337500X-0.475000X-0.337500X0.475000X-0.337500X0.475000X0.337500X0*%
%ADD17RoundRect,0.250000X-0.337500X-0.475000X0.337500X-0.475000X0.337500X0.475000X-0.337500X0.475000X0*%
%ADD18RoundRect,0.237500X-0.237500X0.300000X-0.237500X-0.300000X0.237500X-0.300000X0.237500X0.300000X0*%
%ADD19RoundRect,0.250000X0.450000X-0.325000X0.450000X0.325000X-0.450000X0.325000X-0.450000X-0.325000X0*%
%ADD20R,1.120000X2.440000*%
%ADD21RoundRect,0.237500X0.300000X0.237500X-0.300000X0.237500X-0.300000X-0.237500X0.300000X-0.237500X0*%
%ADD22RoundRect,0.250000X0.337500X0.475000X-0.337500X0.475000X-0.337500X-0.475000X0.337500X-0.475000X0*%
%ADD23RoundRect,0.250001X-0.624999X0.462499X-0.624999X-0.462499X0.624999X-0.462499X0.624999X0.462499X0*%
G04 APERTURE END LIST*
%TO.C,IC1*%
D10*
X93651000Y-32561000D02*
X90941000Y-32561000D01*
X90941000Y-29161000D01*
X93651000Y-29161000D01*
X93651000Y-32561000D01*
G36*
X93651000Y-32561000D02*
G01*
X90941000Y-32561000D01*
X90941000Y-29161000D01*
X93651000Y-29161000D01*
X93651000Y-32561000D01*
G37*
%TO.C,IC2*%
X72363000Y-32546000D02*
X69653000Y-32546000D01*
X69653000Y-29146000D01*
X72363000Y-29146000D01*
X72363000Y-32546000D01*
G36*
X72363000Y-32546000D02*
G01*
X69653000Y-32546000D01*
X69653000Y-29146000D01*
X72363000Y-29146000D01*
X72363000Y-32546000D01*
G37*
%TD*%
D11*
%TO.C,IC1*%
X89596000Y-28956000D03*
X89596000Y-30226000D03*
X89596000Y-31496000D03*
X89596000Y-32766000D03*
X94996000Y-32766000D03*
X94996000Y-31496000D03*
X94996000Y-30226000D03*
X94996000Y-28956000D03*
%TD*%
D12*
%TO.C,IC2*%
X73708000Y-32751000D03*
X73708000Y-31481000D03*
X73708000Y-30211000D03*
X73708000Y-28941000D03*
X68308000Y-28941000D03*
X68308000Y-30211000D03*
X68308000Y-31481000D03*
X68308000Y-32751000D03*
%TD*%
D13*
%TO.C,R9*%
X76953000Y-29210000D03*
X79003000Y-29210000D03*
%TD*%
D14*
%TO.C,R8*%
X86877000Y-29210000D03*
X84827000Y-29210000D03*
%TD*%
D15*
%TO.C,C10*%
X93218000Y-37105500D03*
X93218000Y-35030500D03*
%TD*%
D16*
%TO.C,C9*%
X93218000Y-39094500D03*
X93218000Y-41169500D03*
%TD*%
D17*
%TO.C,C6*%
X54044620Y-47538697D03*
X56119620Y-47538697D03*
%TD*%
D18*
%TO.C,D2*%
X100330000Y-48032500D03*
X100330000Y-49757500D03*
%TD*%
D16*
%TO.C,C8*%
X96425359Y-41580932D03*
X96425359Y-43655932D03*
%TD*%
D19*
%TO.C,R1*%
X103505000Y-54837500D03*
X103505000Y-52787500D03*
%TD*%
D20*
%TO.C,SW2*%
X101600000Y-44170000D03*
X104140000Y-44170000D03*
X106680000Y-44170000D03*
X106680000Y-35560000D03*
X104140000Y-35560000D03*
X101600000Y-35560000D03*
%TD*%
D21*
%TO.C,D3*%
X83158500Y-56642000D03*
X81433500Y-56642000D03*
%TD*%
D15*
%TO.C,C7*%
X96500133Y-39256928D03*
X96500133Y-37181928D03*
%TD*%
D22*
%TO.C,C3*%
X86387065Y-41654223D03*
X84312065Y-41654223D03*
%TD*%
D18*
%TO.C,D1*%
X103505000Y-48032500D03*
X103505000Y-49757500D03*
%TD*%
D23*
%TO.C,F1*%
X89281000Y-44740500D03*
X89281000Y-47715500D03*
%TD*%
D21*
%TO.C,D7*%
X68553500Y-56642000D03*
X66828500Y-56642000D03*
%TD*%
D19*
%TO.C,R2*%
X100330000Y-52787500D03*
X100330000Y-54837500D03*
%TD*%
D17*
%TO.C,C4*%
X54044620Y-41518697D03*
X56119620Y-41518697D03*
%TD*%
D14*
%TO.C,R3*%
X83566000Y-54102000D03*
X81516000Y-54102000D03*
%TD*%
%TO.C,R4*%
X76209000Y-54102000D03*
X74159000Y-54102000D03*
%TD*%
%TO.C,R7*%
X68843000Y-54102000D03*
X66793000Y-54102000D03*
%TD*%
D21*
%TO.C,D6*%
X53948500Y-56642000D03*
X52223500Y-56642000D03*
%TD*%
D17*
%TO.C,C5*%
X54044620Y-44528697D03*
X56119620Y-44528697D03*
%TD*%
D22*
%TO.C,C1*%
X86387065Y-47674223D03*
X84312065Y-47674223D03*
%TD*%
D14*
%TO.C,R6*%
X54356000Y-54102000D03*
X52306000Y-54102000D03*
%TD*%
%TO.C,R5*%
X61477000Y-54102000D03*
X59427000Y-54102000D03*
%TD*%
D21*
%TO.C,D4*%
X75792500Y-56642000D03*
X74067500Y-56642000D03*
%TD*%
D22*
%TO.C,C2*%
X86387065Y-44664223D03*
X84312065Y-44664223D03*
%TD*%
D21*
%TO.C,D5*%
X61111300Y-56642000D03*
X59386300Y-56642000D03*
%TD*%
M02*
