%TF.GenerationSoftware,KiCad,Pcbnew,7.0.9*%
%TF.CreationDate,2024-06-02T15:37:02-06:00*%
%TF.ProjectId,luytenPCB,6c757974-656e-4504-9342-2e6b69636164,rev?*%
%TF.SameCoordinates,Original*%
%TF.FileFunction,Drillmap*%
%TF.FilePolarity,Positive*%
%FSLAX45Y45*%
G04 Gerber Fmt 4.5, Leading zero omitted, Abs format (unit mm)*
G04 Created by KiCad (PCBNEW 7.0.9) date 2024-06-02 15:37:02*
%MOMM*%
%LPD*%
G01*
G04 APERTURE LIST*
%ADD10C,0.100000*%
%ADD11C,0.200000*%
%ADD12C,0.101600*%
%ADD13C,0.270000*%
G04 APERTURE END LIST*
D10*
X4629150Y-6286500D02*
X4184650Y-5880100D01*
X4184650Y-5562600D02*
X4629150Y-5156200D01*
X11830050Y-5156200D02*
X12274550Y-5562600D01*
X4629150Y-3860800D02*
X4629150Y-5156200D01*
X12274550Y-5562600D02*
X12274550Y-5880100D01*
X11823700Y-2730500D02*
X12268200Y-3136900D01*
X12268200Y-3454400D02*
X11823700Y-3860800D01*
X4184650Y-3454400D02*
X4184650Y-3136900D01*
X11830050Y-6286500D02*
X4629150Y-6286500D01*
X4629150Y-3860800D02*
X4184650Y-3454400D01*
X12274550Y-5880100D02*
X11830050Y-6286500D01*
X4629150Y-2730500D02*
X11823700Y-2730500D01*
X4184650Y-5880100D02*
X4184650Y-5562600D01*
X12268200Y-3136900D02*
X12268200Y-3454400D01*
X11823700Y-3860800D02*
X11830050Y-5156200D01*
X4184650Y-3136900D02*
X4629150Y-2730500D01*
D11*
D10*
X4983800Y-4348800D02*
X5023800Y-4388800D01*
X5023800Y-4348800D02*
X4983800Y-4388800D01*
X4983800Y-4526600D02*
X5023800Y-4566600D01*
X5023800Y-4526600D02*
X4983800Y-4566600D01*
X5085400Y-3993200D02*
X5125400Y-4033200D01*
X5125400Y-3993200D02*
X5085400Y-4033200D01*
X6117200Y-3790000D02*
X6157200Y-3830000D01*
X6157200Y-3790000D02*
X6117200Y-3830000D01*
X6371200Y-3790000D02*
X6411200Y-3830000D01*
X6411200Y-3790000D02*
X6371200Y-3830000D01*
X6380800Y-4221800D02*
X6420800Y-4261800D01*
X6420800Y-4221800D02*
X6380800Y-4261800D01*
X6380800Y-4425000D02*
X6420800Y-4465000D01*
X6420800Y-4425000D02*
X6380800Y-4465000D01*
X6482400Y-3078800D02*
X6522400Y-3118800D01*
X6522400Y-3078800D02*
X6482400Y-3118800D01*
X6584000Y-4221800D02*
X6624000Y-4261800D01*
X6624000Y-4221800D02*
X6584000Y-4261800D01*
X6584000Y-4425000D02*
X6624000Y-4465000D01*
X6624000Y-4425000D02*
X6584000Y-4465000D01*
X6609400Y-3129600D02*
X6649400Y-3169600D01*
X6649400Y-3129600D02*
X6609400Y-3169600D01*
X6625200Y-3790000D02*
X6665200Y-3830000D01*
X6665200Y-3790000D02*
X6625200Y-3830000D01*
X6879200Y-3790000D02*
X6919200Y-3830000D01*
X6919200Y-3790000D02*
X6879200Y-3830000D01*
X6888800Y-5237800D02*
X6928800Y-5277800D01*
X6928800Y-5237800D02*
X6888800Y-5277800D01*
X6914200Y-4348800D02*
X6954200Y-4388800D01*
X6954200Y-4348800D02*
X6914200Y-4388800D01*
X7041200Y-2926400D02*
X7081200Y-2966400D01*
X7081200Y-2926400D02*
X7041200Y-2966400D01*
X7041200Y-3104200D02*
X7081200Y-3144200D01*
X7081200Y-3104200D02*
X7041200Y-3144200D01*
X7142800Y-3028000D02*
X7182800Y-3068000D01*
X7182800Y-3028000D02*
X7142800Y-3068000D01*
X7142800Y-3180400D02*
X7182800Y-3220400D01*
X7182800Y-3180400D02*
X7142800Y-3220400D01*
X7142800Y-4348800D02*
X7182800Y-4388800D01*
X7182800Y-4348800D02*
X7142800Y-4388800D01*
X7142800Y-4501200D02*
X7182800Y-4541200D01*
X7182800Y-4501200D02*
X7142800Y-4541200D01*
X7295200Y-4348800D02*
X7335200Y-4388800D01*
X7335200Y-4348800D02*
X7295200Y-4388800D01*
X7295200Y-4501200D02*
X7335200Y-4541200D01*
X7335200Y-4501200D02*
X7295200Y-4541200D01*
X7498400Y-2774000D02*
X7538400Y-2814000D01*
X7538400Y-2774000D02*
X7498400Y-2814000D01*
X7625400Y-4501200D02*
X7665400Y-4541200D01*
X7665400Y-4501200D02*
X7625400Y-4541200D01*
X7727000Y-4196400D02*
X7767000Y-4236400D01*
X7767000Y-4196400D02*
X7727000Y-4236400D01*
X7803200Y-4323400D02*
X7843200Y-4363400D01*
X7843200Y-4323400D02*
X7803200Y-4363400D01*
X7854000Y-3332800D02*
X7894000Y-3372800D01*
X7894000Y-3332800D02*
X7854000Y-3372800D01*
X7904800Y-3764600D02*
X7944800Y-3804600D01*
X7944800Y-3764600D02*
X7904800Y-3804600D01*
X7904800Y-4044000D02*
X7944800Y-4084000D01*
X7944800Y-4044000D02*
X7904800Y-4084000D01*
X7930200Y-4501200D02*
X7970200Y-4541200D01*
X7970200Y-4501200D02*
X7930200Y-4541200D01*
X7955135Y-3103735D02*
X7995135Y-3143735D01*
X7995135Y-3103735D02*
X7955135Y-3143735D01*
X8006400Y-4856800D02*
X8046400Y-4896800D01*
X8046400Y-4856800D02*
X8006400Y-4896800D01*
X8108000Y-3053400D02*
X8148000Y-3093400D01*
X8148000Y-3053400D02*
X8108000Y-3093400D01*
X8184200Y-4272600D02*
X8224200Y-4312600D01*
X8224200Y-4272600D02*
X8184200Y-4312600D01*
X8514400Y-3129600D02*
X8554400Y-3169600D01*
X8554400Y-3129600D02*
X8514400Y-3169600D01*
X8565200Y-3790000D02*
X8605200Y-3830000D01*
X8605200Y-3790000D02*
X8565200Y-3830000D01*
X8717600Y-3790000D02*
X8757600Y-3830000D01*
X8757600Y-3790000D02*
X8717600Y-3830000D01*
X8768400Y-3002600D02*
X8808400Y-3042600D01*
X8808400Y-3002600D02*
X8768400Y-3042600D01*
X8768400Y-3129600D02*
X8808400Y-3169600D01*
X8808400Y-3129600D02*
X8768400Y-3169600D01*
X8870000Y-5314000D02*
X8910000Y-5354000D01*
X8910000Y-5314000D02*
X8870000Y-5354000D01*
X9124000Y-4679000D02*
X9164000Y-4719000D01*
X9164000Y-4679000D02*
X9124000Y-4719000D01*
X9149400Y-2926400D02*
X9189400Y-2966400D01*
X9189400Y-2926400D02*
X9149400Y-2966400D01*
X9149400Y-3104200D02*
X9189400Y-3144200D01*
X9189400Y-3104200D02*
X9149400Y-3144200D01*
X9149400Y-3790000D02*
X9189400Y-3830000D01*
X9189400Y-3790000D02*
X9149400Y-3830000D01*
X9251000Y-3002600D02*
X9291000Y-3042600D01*
X9291000Y-3002600D02*
X9251000Y-3042600D01*
X9251000Y-3180400D02*
X9291000Y-3220400D01*
X9291000Y-3180400D02*
X9251000Y-3220400D01*
X9251000Y-4425000D02*
X9291000Y-4465000D01*
X9291000Y-4425000D02*
X9251000Y-4465000D01*
X9632000Y-4679000D02*
X9672000Y-4719000D01*
X9672000Y-4679000D02*
X9632000Y-4719000D01*
X9733600Y-3002600D02*
X9773600Y-3042600D01*
X9773600Y-3002600D02*
X9733600Y-3042600D01*
X9822500Y-5377500D02*
X9862500Y-5417500D01*
X9862500Y-5377500D02*
X9822500Y-5417500D01*
X10076500Y-3853500D02*
X10116500Y-3893500D01*
X10116500Y-3853500D02*
X10076500Y-3893500D01*
X10330500Y-3917000D02*
X10370500Y-3957000D01*
X10370500Y-3917000D02*
X10330500Y-3957000D01*
X10584500Y-4116450D02*
X10624500Y-4156450D01*
X10624500Y-4116450D02*
X10584500Y-4156450D01*
X10648000Y-5123500D02*
X10688000Y-5163500D01*
X10688000Y-5123500D02*
X10648000Y-5163500D01*
X10724200Y-2774000D02*
X10764200Y-2814000D01*
X10764200Y-2774000D02*
X10724200Y-2814000D01*
X10825800Y-5745800D02*
X10865800Y-5785800D01*
X10865800Y-5745800D02*
X10825800Y-5785800D01*
X10965500Y-4552000D02*
X11005500Y-4592000D01*
X11005500Y-4552000D02*
X10965500Y-4592000D01*
X10978200Y-5745800D02*
X11018200Y-5785800D01*
X11018200Y-5745800D02*
X10978200Y-5785800D01*
X11054400Y-3332800D02*
X11094400Y-3372800D01*
X11094400Y-3332800D02*
X11054400Y-3372800D01*
X11054400Y-3459800D02*
X11094400Y-3499800D01*
X11094400Y-3459800D02*
X11054400Y-3499800D01*
X11054400Y-3586800D02*
X11094400Y-3626800D01*
X11094400Y-3586800D02*
X11054400Y-3626800D01*
X11130600Y-5745800D02*
X11170600Y-5785800D01*
X11170600Y-5745800D02*
X11130600Y-5785800D01*
X11283000Y-5745800D02*
X11323000Y-5785800D01*
X11323000Y-5745800D02*
X11283000Y-5785800D01*
X9501500Y-4699000D02*
G75*
G03*
X9501500Y-4699000I-40000J0D01*
G01*
X9501500Y-5461000D02*
G75*
G03*
X9501500Y-5461000I-40000J0D01*
G01*
X5005300Y-2998000D02*
X5005300Y-3098000D01*
X4955300Y-3048000D02*
X5055300Y-3048000D01*
X5080000Y-5995200D02*
X5080000Y-6095200D01*
X5030000Y-6045200D02*
X5130000Y-6045200D01*
X5259300Y-2998000D02*
X5259300Y-3098000D01*
X5209300Y-3048000D02*
X5309300Y-3048000D01*
X5334000Y-5995200D02*
X5334000Y-6095200D01*
X5284000Y-6045200D02*
X5384000Y-6045200D01*
X5513300Y-2998000D02*
X5513300Y-3098000D01*
X5463300Y-3048000D02*
X5563300Y-3048000D01*
X5588000Y-5995200D02*
X5588000Y-6095200D01*
X5538000Y-6045200D02*
X5638000Y-6045200D01*
X5994400Y-2998000D02*
X5994400Y-3098000D01*
X5944400Y-3048000D02*
X6044400Y-3048000D01*
X6248400Y-2998000D02*
X6248400Y-3098000D01*
X6198400Y-3048000D02*
X6298400Y-3048000D01*
X6248400Y-5995200D02*
X6248400Y-6095200D01*
X6198400Y-6045200D02*
X6298400Y-6045200D01*
X6502400Y-5995200D02*
X6502400Y-6095200D01*
X6452400Y-6045200D02*
X6552400Y-6045200D01*
X6756400Y-5995200D02*
X6756400Y-6095200D01*
X6706400Y-6045200D02*
X6806400Y-6045200D01*
X7442200Y-5995200D02*
X7442200Y-6095200D01*
X7392200Y-6045200D02*
X7492200Y-6045200D01*
X7696200Y-5995200D02*
X7696200Y-6095200D01*
X7646200Y-6045200D02*
X7746200Y-6045200D01*
X7950200Y-5995200D02*
X7950200Y-6095200D01*
X7900200Y-6045200D02*
X8000200Y-6045200D01*
X8585200Y-5995200D02*
X8585200Y-6095200D01*
X8535200Y-6045200D02*
X8635200Y-6045200D01*
X8839200Y-5995200D02*
X8839200Y-6095200D01*
X8789200Y-6045200D02*
X8889200Y-6045200D01*
X9093200Y-5995200D02*
X9093200Y-6095200D01*
X9043200Y-6045200D02*
X9143200Y-6045200D01*
X9755100Y-5995200D02*
X9755100Y-6095200D01*
X9705100Y-6045200D02*
X9805100Y-6045200D01*
X10009100Y-5995200D02*
X10009100Y-6095200D01*
X9959100Y-6045200D02*
X10059100Y-6045200D01*
X10033000Y-2998000D02*
X10033000Y-3098000D01*
X9983000Y-3048000D02*
X10083000Y-3048000D01*
X10263100Y-5995200D02*
X10263100Y-6095200D01*
X10213100Y-6045200D02*
X10313100Y-6045200D01*
X10287000Y-2998000D02*
X10287000Y-3098000D01*
X10237000Y-3048000D02*
X10337000Y-3048000D01*
X10818900Y-2998000D02*
X10818900Y-3098000D01*
X10768900Y-3048000D02*
X10868900Y-3048000D01*
X11072900Y-2998000D02*
X11072900Y-3098000D01*
X11022900Y-3048000D02*
X11122900Y-3048000D01*
X11326900Y-2998000D02*
X11326900Y-3098000D01*
X11276900Y-3048000D02*
X11376900Y-3048000D01*
X11622555Y-4776000D02*
X11622555Y-4876000D01*
X11572555Y-4826000D02*
X11672555Y-4826000D01*
X11622555Y-5030000D02*
X11622555Y-5130000D01*
X11572555Y-5080000D02*
X11672555Y-5080000D01*
X11622555Y-5284000D02*
X11622555Y-5384000D01*
X11572555Y-5334000D02*
X11672555Y-5334000D01*
D12*
X5157121Y-3591921D02*
X5157121Y-3520079D01*
X5085279Y-3520079D01*
X5085279Y-3591921D01*
X5157121Y-3591921D01*
X5157121Y-5115921D02*
X5157121Y-5044079D01*
X5085279Y-5044079D01*
X5085279Y-5115921D01*
X5157121Y-5115921D01*
X5411121Y-3591921D02*
X5411121Y-3520079D01*
X5339279Y-3520079D01*
X5339279Y-3591921D01*
X5411121Y-3591921D01*
X5411121Y-5115921D02*
X5411121Y-5044079D01*
X5339279Y-5044079D01*
X5339279Y-5115921D01*
X5411121Y-5115921D01*
X5665121Y-3591921D02*
X5665121Y-3520079D01*
X5593279Y-3520079D01*
X5593279Y-3591921D01*
X5665121Y-3591921D01*
X5665121Y-5115921D02*
X5665121Y-5044079D01*
X5593279Y-5044079D01*
X5593279Y-5115921D01*
X5665121Y-5115921D01*
X5919121Y-3591921D02*
X5919121Y-3520079D01*
X5847279Y-3520079D01*
X5847279Y-3591921D01*
X5919121Y-3591921D01*
X5919121Y-5115921D02*
X5919121Y-5044079D01*
X5847279Y-5044079D01*
X5847279Y-5115921D01*
X5919121Y-5115921D01*
X6173121Y-3591921D02*
X6173121Y-3520079D01*
X6101279Y-3520079D01*
X6101279Y-3591921D01*
X6173121Y-3591921D01*
X6173121Y-5115921D02*
X6173121Y-5044079D01*
X6101279Y-5044079D01*
X6101279Y-5115921D01*
X6173121Y-5115921D01*
X6427121Y-3591921D02*
X6427121Y-3520079D01*
X6355279Y-3520079D01*
X6355279Y-3591921D01*
X6427121Y-3591921D01*
X6427121Y-5115921D02*
X6427121Y-5044079D01*
X6355279Y-5044079D01*
X6355279Y-5115921D01*
X6427121Y-5115921D01*
X6681121Y-3591921D02*
X6681121Y-3520079D01*
X6609279Y-3520079D01*
X6609279Y-3591921D01*
X6681121Y-3591921D01*
X6681121Y-5115921D02*
X6681121Y-5044079D01*
X6609279Y-5044079D01*
X6609279Y-5115921D01*
X6681121Y-5115921D01*
X6935121Y-3591921D02*
X6935121Y-3520079D01*
X6863279Y-3520079D01*
X6863279Y-3591921D01*
X6935121Y-3591921D01*
X6935121Y-5115921D02*
X6935121Y-5044079D01*
X6863279Y-5044079D01*
X6863279Y-5115921D01*
X6935121Y-5115921D01*
X7189121Y-3591921D02*
X7189121Y-3520079D01*
X7117279Y-3520079D01*
X7117279Y-3591921D01*
X7189121Y-3591921D01*
X7189121Y-5115921D02*
X7189121Y-5044079D01*
X7117279Y-5044079D01*
X7117279Y-5115921D01*
X7189121Y-5115921D01*
X7443121Y-3591921D02*
X7443121Y-3520079D01*
X7371279Y-3520079D01*
X7371279Y-3591921D01*
X7443121Y-3591921D01*
X7443121Y-5115921D02*
X7443121Y-5044079D01*
X7371279Y-5044079D01*
X7371279Y-5115921D01*
X7443121Y-5115921D01*
X7697121Y-3591921D02*
X7697121Y-3520079D01*
X7625279Y-3520079D01*
X7625279Y-3591921D01*
X7697121Y-3591921D01*
X7697121Y-5115921D02*
X7697121Y-5044079D01*
X7625279Y-5044079D01*
X7625279Y-5115921D01*
X7697121Y-5115921D01*
X7951121Y-3591921D02*
X7951121Y-3520079D01*
X7879279Y-3520079D01*
X7879279Y-3591921D01*
X7951121Y-3591921D01*
X7951121Y-5115921D02*
X7951121Y-5044079D01*
X7879279Y-5044079D01*
X7879279Y-5115921D01*
X7951121Y-5115921D01*
X8205121Y-3591921D02*
X8205121Y-3520079D01*
X8133279Y-3520079D01*
X8133279Y-3591921D01*
X8205121Y-3591921D01*
X8205121Y-5115921D02*
X8205121Y-5044079D01*
X8133279Y-5044079D01*
X8133279Y-5115921D01*
X8205121Y-5115921D01*
X8459121Y-3591921D02*
X8459121Y-3520079D01*
X8387279Y-3520079D01*
X8387279Y-3591921D01*
X8459121Y-3591921D01*
X8459121Y-5115921D02*
X8459121Y-5044079D01*
X8387279Y-5044079D01*
X8387279Y-5115921D01*
X8459121Y-5115921D01*
X8713121Y-3591921D02*
X8713121Y-3520079D01*
X8641279Y-3520079D01*
X8641279Y-3591921D01*
X8713121Y-3591921D01*
X8713121Y-5115921D02*
X8713121Y-5044079D01*
X8641279Y-5044079D01*
X8641279Y-5115921D01*
X8713121Y-5115921D01*
D13*
X11487989Y-3774916D02*
X11622989Y-3639916D01*
X11487989Y-3504916D01*
X11352989Y-3639916D01*
X11487989Y-3774916D01*
X11487989Y-4274916D02*
X11622989Y-4139916D01*
X11487989Y-4004916D01*
X11352989Y-4139916D01*
X11487989Y-4274916D01*
D11*
X4440427Y-6602984D02*
X4440427Y-6402984D01*
X4440427Y-6402984D02*
X4488046Y-6402984D01*
X4488046Y-6402984D02*
X4516617Y-6412508D01*
X4516617Y-6412508D02*
X4535665Y-6431555D01*
X4535665Y-6431555D02*
X4545189Y-6450603D01*
X4545189Y-6450603D02*
X4554713Y-6488698D01*
X4554713Y-6488698D02*
X4554713Y-6517269D01*
X4554713Y-6517269D02*
X4545189Y-6555365D01*
X4545189Y-6555365D02*
X4535665Y-6574412D01*
X4535665Y-6574412D02*
X4516617Y-6593460D01*
X4516617Y-6593460D02*
X4488046Y-6602984D01*
X4488046Y-6602984D02*
X4440427Y-6602984D01*
X4640427Y-6602984D02*
X4640427Y-6469650D01*
X4640427Y-6507746D02*
X4649951Y-6488698D01*
X4649951Y-6488698D02*
X4659474Y-6479174D01*
X4659474Y-6479174D02*
X4678522Y-6469650D01*
X4678522Y-6469650D02*
X4697570Y-6469650D01*
X4764236Y-6602984D02*
X4764236Y-6469650D01*
X4764236Y-6402984D02*
X4754713Y-6412508D01*
X4754713Y-6412508D02*
X4764236Y-6422031D01*
X4764236Y-6422031D02*
X4773760Y-6412508D01*
X4773760Y-6412508D02*
X4764236Y-6402984D01*
X4764236Y-6402984D02*
X4764236Y-6422031D01*
X4888046Y-6602984D02*
X4868998Y-6593460D01*
X4868998Y-6593460D02*
X4859474Y-6574412D01*
X4859474Y-6574412D02*
X4859474Y-6402984D01*
X4992808Y-6602984D02*
X4973760Y-6593460D01*
X4973760Y-6593460D02*
X4964236Y-6574412D01*
X4964236Y-6574412D02*
X4964236Y-6402984D01*
X5221379Y-6602984D02*
X5221379Y-6402984D01*
X5221379Y-6402984D02*
X5288046Y-6545841D01*
X5288046Y-6545841D02*
X5354713Y-6402984D01*
X5354713Y-6402984D02*
X5354713Y-6602984D01*
X5535665Y-6602984D02*
X5535665Y-6498222D01*
X5535665Y-6498222D02*
X5526141Y-6479174D01*
X5526141Y-6479174D02*
X5507094Y-6469650D01*
X5507094Y-6469650D02*
X5468998Y-6469650D01*
X5468998Y-6469650D02*
X5449951Y-6479174D01*
X5535665Y-6593460D02*
X5516617Y-6602984D01*
X5516617Y-6602984D02*
X5468998Y-6602984D01*
X5468998Y-6602984D02*
X5449951Y-6593460D01*
X5449951Y-6593460D02*
X5440427Y-6574412D01*
X5440427Y-6574412D02*
X5440427Y-6555365D01*
X5440427Y-6555365D02*
X5449951Y-6536317D01*
X5449951Y-6536317D02*
X5468998Y-6526793D01*
X5468998Y-6526793D02*
X5516617Y-6526793D01*
X5516617Y-6526793D02*
X5535665Y-6517269D01*
X5630903Y-6469650D02*
X5630903Y-6669650D01*
X5630903Y-6479174D02*
X5649951Y-6469650D01*
X5649951Y-6469650D02*
X5688046Y-6469650D01*
X5688046Y-6469650D02*
X5707093Y-6479174D01*
X5707093Y-6479174D02*
X5716617Y-6488698D01*
X5716617Y-6488698D02*
X5726141Y-6507746D01*
X5726141Y-6507746D02*
X5726141Y-6564888D01*
X5726141Y-6564888D02*
X5716617Y-6583936D01*
X5716617Y-6583936D02*
X5707093Y-6593460D01*
X5707093Y-6593460D02*
X5688046Y-6602984D01*
X5688046Y-6602984D02*
X5649951Y-6602984D01*
X5649951Y-6602984D02*
X5630903Y-6593460D01*
X5811855Y-6583936D02*
X5821379Y-6593460D01*
X5821379Y-6593460D02*
X5811855Y-6602984D01*
X5811855Y-6602984D02*
X5802332Y-6593460D01*
X5802332Y-6593460D02*
X5811855Y-6583936D01*
X5811855Y-6583936D02*
X5811855Y-6602984D01*
X5811855Y-6479174D02*
X5821379Y-6488698D01*
X5821379Y-6488698D02*
X5811855Y-6498222D01*
X5811855Y-6498222D02*
X5802332Y-6488698D01*
X5802332Y-6488698D02*
X5811855Y-6479174D01*
X5811855Y-6479174D02*
X5811855Y-6498222D01*
D10*
X4139650Y-6911500D02*
X4179650Y-6951500D01*
X4179650Y-6911500D02*
X4139650Y-6951500D01*
D11*
X4478522Y-6822984D02*
X4497570Y-6822984D01*
X4497570Y-6822984D02*
X4516617Y-6832508D01*
X4516617Y-6832508D02*
X4526141Y-6842031D01*
X4526141Y-6842031D02*
X4535665Y-6861079D01*
X4535665Y-6861079D02*
X4545189Y-6899174D01*
X4545189Y-6899174D02*
X4545189Y-6946793D01*
X4545189Y-6946793D02*
X4535665Y-6984888D01*
X4535665Y-6984888D02*
X4526141Y-7003936D01*
X4526141Y-7003936D02*
X4516617Y-7013460D01*
X4516617Y-7013460D02*
X4497570Y-7022984D01*
X4497570Y-7022984D02*
X4478522Y-7022984D01*
X4478522Y-7022984D02*
X4459474Y-7013460D01*
X4459474Y-7013460D02*
X4449951Y-7003936D01*
X4449951Y-7003936D02*
X4440427Y-6984888D01*
X4440427Y-6984888D02*
X4430903Y-6946793D01*
X4430903Y-6946793D02*
X4430903Y-6899174D01*
X4430903Y-6899174D02*
X4440427Y-6861079D01*
X4440427Y-6861079D02*
X4449951Y-6842031D01*
X4449951Y-6842031D02*
X4459474Y-6832508D01*
X4459474Y-6832508D02*
X4478522Y-6822984D01*
X4630903Y-7003936D02*
X4640427Y-7013460D01*
X4640427Y-7013460D02*
X4630903Y-7022984D01*
X4630903Y-7022984D02*
X4621379Y-7013460D01*
X4621379Y-7013460D02*
X4630903Y-7003936D01*
X4630903Y-7003936D02*
X4630903Y-7022984D01*
X4811855Y-6889650D02*
X4811855Y-7022984D01*
X4764236Y-6813460D02*
X4716617Y-6956317D01*
X4716617Y-6956317D02*
X4840427Y-6956317D01*
X4954713Y-6822984D02*
X4973760Y-6822984D01*
X4973760Y-6822984D02*
X4992808Y-6832508D01*
X4992808Y-6832508D02*
X5002332Y-6842031D01*
X5002332Y-6842031D02*
X5011855Y-6861079D01*
X5011855Y-6861079D02*
X5021379Y-6899174D01*
X5021379Y-6899174D02*
X5021379Y-6946793D01*
X5021379Y-6946793D02*
X5011855Y-6984888D01*
X5011855Y-6984888D02*
X5002332Y-7003936D01*
X5002332Y-7003936D02*
X4992808Y-7013460D01*
X4992808Y-7013460D02*
X4973760Y-7022984D01*
X4973760Y-7022984D02*
X4954713Y-7022984D01*
X4954713Y-7022984D02*
X4935665Y-7013460D01*
X4935665Y-7013460D02*
X4926141Y-7003936D01*
X4926141Y-7003936D02*
X4916617Y-6984888D01*
X4916617Y-6984888D02*
X4907094Y-6946793D01*
X4907094Y-6946793D02*
X4907094Y-6899174D01*
X4907094Y-6899174D02*
X4916617Y-6861079D01*
X4916617Y-6861079D02*
X4926141Y-6842031D01*
X4926141Y-6842031D02*
X4935665Y-6832508D01*
X4935665Y-6832508D02*
X4954713Y-6822984D01*
X5145189Y-6822984D02*
X5164236Y-6822984D01*
X5164236Y-6822984D02*
X5183284Y-6832508D01*
X5183284Y-6832508D02*
X5192808Y-6842031D01*
X5192808Y-6842031D02*
X5202332Y-6861079D01*
X5202332Y-6861079D02*
X5211855Y-6899174D01*
X5211855Y-6899174D02*
X5211855Y-6946793D01*
X5211855Y-6946793D02*
X5202332Y-6984888D01*
X5202332Y-6984888D02*
X5192808Y-7003936D01*
X5192808Y-7003936D02*
X5183284Y-7013460D01*
X5183284Y-7013460D02*
X5164236Y-7022984D01*
X5164236Y-7022984D02*
X5145189Y-7022984D01*
X5145189Y-7022984D02*
X5126141Y-7013460D01*
X5126141Y-7013460D02*
X5116617Y-7003936D01*
X5116617Y-7003936D02*
X5107094Y-6984888D01*
X5107094Y-6984888D02*
X5097570Y-6946793D01*
X5097570Y-6946793D02*
X5097570Y-6899174D01*
X5097570Y-6899174D02*
X5107094Y-6861079D01*
X5107094Y-6861079D02*
X5116617Y-6842031D01*
X5116617Y-6842031D02*
X5126141Y-6832508D01*
X5126141Y-6832508D02*
X5145189Y-6822984D01*
X5297570Y-7022984D02*
X5297570Y-6889650D01*
X5297570Y-6908698D02*
X5307094Y-6899174D01*
X5307094Y-6899174D02*
X5326141Y-6889650D01*
X5326141Y-6889650D02*
X5354713Y-6889650D01*
X5354713Y-6889650D02*
X5373760Y-6899174D01*
X5373760Y-6899174D02*
X5383284Y-6918222D01*
X5383284Y-6918222D02*
X5383284Y-7022984D01*
X5383284Y-6918222D02*
X5392808Y-6899174D01*
X5392808Y-6899174D02*
X5411855Y-6889650D01*
X5411855Y-6889650D02*
X5440427Y-6889650D01*
X5440427Y-6889650D02*
X5459475Y-6899174D01*
X5459475Y-6899174D02*
X5468998Y-6918222D01*
X5468998Y-6918222D02*
X5468998Y-7022984D01*
X5564236Y-7022984D02*
X5564236Y-6889650D01*
X5564236Y-6908698D02*
X5573760Y-6899174D01*
X5573760Y-6899174D02*
X5592808Y-6889650D01*
X5592808Y-6889650D02*
X5621379Y-6889650D01*
X5621379Y-6889650D02*
X5640427Y-6899174D01*
X5640427Y-6899174D02*
X5649951Y-6918222D01*
X5649951Y-6918222D02*
X5649951Y-7022984D01*
X5649951Y-6918222D02*
X5659474Y-6899174D01*
X5659474Y-6899174D02*
X5678522Y-6889650D01*
X5678522Y-6889650D02*
X5707093Y-6889650D01*
X5707093Y-6889650D02*
X5726141Y-6899174D01*
X5726141Y-6899174D02*
X5735665Y-6918222D01*
X5735665Y-6918222D02*
X5735665Y-7022984D01*
X6126141Y-6813460D02*
X5954713Y-7070603D01*
X6383284Y-6822984D02*
X6402332Y-6822984D01*
X6402332Y-6822984D02*
X6421379Y-6832508D01*
X6421379Y-6832508D02*
X6430903Y-6842031D01*
X6430903Y-6842031D02*
X6440427Y-6861079D01*
X6440427Y-6861079D02*
X6449951Y-6899174D01*
X6449951Y-6899174D02*
X6449951Y-6946793D01*
X6449951Y-6946793D02*
X6440427Y-6984888D01*
X6440427Y-6984888D02*
X6430903Y-7003936D01*
X6430903Y-7003936D02*
X6421379Y-7013460D01*
X6421379Y-7013460D02*
X6402332Y-7022984D01*
X6402332Y-7022984D02*
X6383284Y-7022984D01*
X6383284Y-7022984D02*
X6364236Y-7013460D01*
X6364236Y-7013460D02*
X6354713Y-7003936D01*
X6354713Y-7003936D02*
X6345189Y-6984888D01*
X6345189Y-6984888D02*
X6335665Y-6946793D01*
X6335665Y-6946793D02*
X6335665Y-6899174D01*
X6335665Y-6899174D02*
X6345189Y-6861079D01*
X6345189Y-6861079D02*
X6354713Y-6842031D01*
X6354713Y-6842031D02*
X6364236Y-6832508D01*
X6364236Y-6832508D02*
X6383284Y-6822984D01*
X6535665Y-7003936D02*
X6545189Y-7013460D01*
X6545189Y-7013460D02*
X6535665Y-7022984D01*
X6535665Y-7022984D02*
X6526141Y-7013460D01*
X6526141Y-7013460D02*
X6535665Y-7003936D01*
X6535665Y-7003936D02*
X6535665Y-7022984D01*
X6668998Y-6822984D02*
X6688046Y-6822984D01*
X6688046Y-6822984D02*
X6707094Y-6832508D01*
X6707094Y-6832508D02*
X6716617Y-6842031D01*
X6716617Y-6842031D02*
X6726141Y-6861079D01*
X6726141Y-6861079D02*
X6735665Y-6899174D01*
X6735665Y-6899174D02*
X6735665Y-6946793D01*
X6735665Y-6946793D02*
X6726141Y-6984888D01*
X6726141Y-6984888D02*
X6716617Y-7003936D01*
X6716617Y-7003936D02*
X6707094Y-7013460D01*
X6707094Y-7013460D02*
X6688046Y-7022984D01*
X6688046Y-7022984D02*
X6668998Y-7022984D01*
X6668998Y-7022984D02*
X6649951Y-7013460D01*
X6649951Y-7013460D02*
X6640427Y-7003936D01*
X6640427Y-7003936D02*
X6630903Y-6984888D01*
X6630903Y-6984888D02*
X6621379Y-6946793D01*
X6621379Y-6946793D02*
X6621379Y-6899174D01*
X6621379Y-6899174D02*
X6630903Y-6861079D01*
X6630903Y-6861079D02*
X6640427Y-6842031D01*
X6640427Y-6842031D02*
X6649951Y-6832508D01*
X6649951Y-6832508D02*
X6668998Y-6822984D01*
X6926141Y-7022984D02*
X6811856Y-7022984D01*
X6868998Y-7022984D02*
X6868998Y-6822984D01*
X6868998Y-6822984D02*
X6849951Y-6851555D01*
X6849951Y-6851555D02*
X6830903Y-6870603D01*
X6830903Y-6870603D02*
X6811856Y-6880127D01*
X7107094Y-6822984D02*
X7011856Y-6822984D01*
X7011856Y-6822984D02*
X7002332Y-6918222D01*
X7002332Y-6918222D02*
X7011856Y-6908698D01*
X7011856Y-6908698D02*
X7030903Y-6899174D01*
X7030903Y-6899174D02*
X7078522Y-6899174D01*
X7078522Y-6899174D02*
X7097570Y-6908698D01*
X7097570Y-6908698D02*
X7107094Y-6918222D01*
X7107094Y-6918222D02*
X7116617Y-6937269D01*
X7116617Y-6937269D02*
X7116617Y-6984888D01*
X7116617Y-6984888D02*
X7107094Y-7003936D01*
X7107094Y-7003936D02*
X7097570Y-7013460D01*
X7097570Y-7013460D02*
X7078522Y-7022984D01*
X7078522Y-7022984D02*
X7030903Y-7022984D01*
X7030903Y-7022984D02*
X7011856Y-7013460D01*
X7011856Y-7013460D02*
X7002332Y-7003936D01*
X7183284Y-6822984D02*
X7316617Y-6822984D01*
X7316617Y-6822984D02*
X7230903Y-7022984D01*
X7383284Y-6822984D02*
X7383284Y-6861079D01*
X7459475Y-6822984D02*
X7459475Y-6861079D01*
X7754713Y-7099174D02*
X7745189Y-7089650D01*
X7745189Y-7089650D02*
X7726141Y-7061079D01*
X7726141Y-7061079D02*
X7716618Y-7042031D01*
X7716618Y-7042031D02*
X7707094Y-7013460D01*
X7707094Y-7013460D02*
X7697570Y-6965841D01*
X7697570Y-6965841D02*
X7697570Y-6927746D01*
X7697570Y-6927746D02*
X7707094Y-6880127D01*
X7707094Y-6880127D02*
X7716618Y-6851555D01*
X7716618Y-6851555D02*
X7726141Y-6832508D01*
X7726141Y-6832508D02*
X7745189Y-6803936D01*
X7745189Y-6803936D02*
X7754713Y-6794412D01*
X7916618Y-6822984D02*
X7878522Y-6822984D01*
X7878522Y-6822984D02*
X7859475Y-6832508D01*
X7859475Y-6832508D02*
X7849951Y-6842031D01*
X7849951Y-6842031D02*
X7830903Y-6870603D01*
X7830903Y-6870603D02*
X7821379Y-6908698D01*
X7821379Y-6908698D02*
X7821379Y-6984888D01*
X7821379Y-6984888D02*
X7830903Y-7003936D01*
X7830903Y-7003936D02*
X7840427Y-7013460D01*
X7840427Y-7013460D02*
X7859475Y-7022984D01*
X7859475Y-7022984D02*
X7897570Y-7022984D01*
X7897570Y-7022984D02*
X7916618Y-7013460D01*
X7916618Y-7013460D02*
X7926141Y-7003936D01*
X7926141Y-7003936D02*
X7935665Y-6984888D01*
X7935665Y-6984888D02*
X7935665Y-6937269D01*
X7935665Y-6937269D02*
X7926141Y-6918222D01*
X7926141Y-6918222D02*
X7916618Y-6908698D01*
X7916618Y-6908698D02*
X7897570Y-6899174D01*
X7897570Y-6899174D02*
X7859475Y-6899174D01*
X7859475Y-6899174D02*
X7840427Y-6908698D01*
X7840427Y-6908698D02*
X7830903Y-6918222D01*
X7830903Y-6918222D02*
X7821379Y-6937269D01*
X8107094Y-6889650D02*
X8107094Y-7022984D01*
X8059475Y-6813460D02*
X8011856Y-6956317D01*
X8011856Y-6956317D02*
X8135665Y-6956317D01*
X8364237Y-7022984D02*
X8364237Y-6822984D01*
X8449951Y-7022984D02*
X8449951Y-6918222D01*
X8449951Y-6918222D02*
X8440427Y-6899174D01*
X8440427Y-6899174D02*
X8421380Y-6889650D01*
X8421380Y-6889650D02*
X8392808Y-6889650D01*
X8392808Y-6889650D02*
X8373760Y-6899174D01*
X8373760Y-6899174D02*
X8364237Y-6908698D01*
X8573761Y-7022984D02*
X8554713Y-7013460D01*
X8554713Y-7013460D02*
X8545189Y-7003936D01*
X8545189Y-7003936D02*
X8535665Y-6984888D01*
X8535665Y-6984888D02*
X8535665Y-6927746D01*
X8535665Y-6927746D02*
X8545189Y-6908698D01*
X8545189Y-6908698D02*
X8554713Y-6899174D01*
X8554713Y-6899174D02*
X8573761Y-6889650D01*
X8573761Y-6889650D02*
X8602332Y-6889650D01*
X8602332Y-6889650D02*
X8621380Y-6899174D01*
X8621380Y-6899174D02*
X8630903Y-6908698D01*
X8630903Y-6908698D02*
X8640427Y-6927746D01*
X8640427Y-6927746D02*
X8640427Y-6984888D01*
X8640427Y-6984888D02*
X8630903Y-7003936D01*
X8630903Y-7003936D02*
X8621380Y-7013460D01*
X8621380Y-7013460D02*
X8602332Y-7022984D01*
X8602332Y-7022984D02*
X8573761Y-7022984D01*
X8754713Y-7022984D02*
X8735665Y-7013460D01*
X8735665Y-7013460D02*
X8726142Y-6994412D01*
X8726142Y-6994412D02*
X8726142Y-6822984D01*
X8907094Y-7013460D02*
X8888046Y-7022984D01*
X8888046Y-7022984D02*
X8849951Y-7022984D01*
X8849951Y-7022984D02*
X8830903Y-7013460D01*
X8830903Y-7013460D02*
X8821380Y-6994412D01*
X8821380Y-6994412D02*
X8821380Y-6918222D01*
X8821380Y-6918222D02*
X8830903Y-6899174D01*
X8830903Y-6899174D02*
X8849951Y-6889650D01*
X8849951Y-6889650D02*
X8888046Y-6889650D01*
X8888046Y-6889650D02*
X8907094Y-6899174D01*
X8907094Y-6899174D02*
X8916618Y-6918222D01*
X8916618Y-6918222D02*
X8916618Y-6937269D01*
X8916618Y-6937269D02*
X8821380Y-6956317D01*
X8992808Y-7013460D02*
X9011856Y-7022984D01*
X9011856Y-7022984D02*
X9049951Y-7022984D01*
X9049951Y-7022984D02*
X9068999Y-7013460D01*
X9068999Y-7013460D02*
X9078523Y-6994412D01*
X9078523Y-6994412D02*
X9078523Y-6984888D01*
X9078523Y-6984888D02*
X9068999Y-6965841D01*
X9068999Y-6965841D02*
X9049951Y-6956317D01*
X9049951Y-6956317D02*
X9021380Y-6956317D01*
X9021380Y-6956317D02*
X9002332Y-6946793D01*
X9002332Y-6946793D02*
X8992808Y-6927746D01*
X8992808Y-6927746D02*
X8992808Y-6918222D01*
X8992808Y-6918222D02*
X9002332Y-6899174D01*
X9002332Y-6899174D02*
X9021380Y-6889650D01*
X9021380Y-6889650D02*
X9049951Y-6889650D01*
X9049951Y-6889650D02*
X9068999Y-6899174D01*
X9145189Y-7099174D02*
X9154713Y-7089650D01*
X9154713Y-7089650D02*
X9173761Y-7061079D01*
X9173761Y-7061079D02*
X9183284Y-7042031D01*
X9183284Y-7042031D02*
X9192808Y-7013460D01*
X9192808Y-7013460D02*
X9202332Y-6965841D01*
X9202332Y-6965841D02*
X9202332Y-6927746D01*
X9202332Y-6927746D02*
X9192808Y-6880127D01*
X9192808Y-6880127D02*
X9183284Y-6851555D01*
X9183284Y-6851555D02*
X9173761Y-6832508D01*
X9173761Y-6832508D02*
X9154713Y-6803936D01*
X9154713Y-6803936D02*
X9145189Y-6794412D01*
D10*
X4179650Y-7195500D02*
G75*
G03*
X4179650Y-7195500I-40000J0D01*
G01*
D11*
X4478522Y-7086984D02*
X4497570Y-7086984D01*
X4497570Y-7086984D02*
X4516617Y-7096508D01*
X4516617Y-7096508D02*
X4526141Y-7106031D01*
X4526141Y-7106031D02*
X4535665Y-7125079D01*
X4535665Y-7125079D02*
X4545189Y-7163174D01*
X4545189Y-7163174D02*
X4545189Y-7210793D01*
X4545189Y-7210793D02*
X4535665Y-7248888D01*
X4535665Y-7248888D02*
X4526141Y-7267936D01*
X4526141Y-7267936D02*
X4516617Y-7277460D01*
X4516617Y-7277460D02*
X4497570Y-7286984D01*
X4497570Y-7286984D02*
X4478522Y-7286984D01*
X4478522Y-7286984D02*
X4459474Y-7277460D01*
X4459474Y-7277460D02*
X4449951Y-7267936D01*
X4449951Y-7267936D02*
X4440427Y-7248888D01*
X4440427Y-7248888D02*
X4430903Y-7210793D01*
X4430903Y-7210793D02*
X4430903Y-7163174D01*
X4430903Y-7163174D02*
X4440427Y-7125079D01*
X4440427Y-7125079D02*
X4449951Y-7106031D01*
X4449951Y-7106031D02*
X4459474Y-7096508D01*
X4459474Y-7096508D02*
X4478522Y-7086984D01*
X4630903Y-7267936D02*
X4640427Y-7277460D01*
X4640427Y-7277460D02*
X4630903Y-7286984D01*
X4630903Y-7286984D02*
X4621379Y-7277460D01*
X4621379Y-7277460D02*
X4630903Y-7267936D01*
X4630903Y-7267936D02*
X4630903Y-7286984D01*
X4754713Y-7172698D02*
X4735665Y-7163174D01*
X4735665Y-7163174D02*
X4726141Y-7153650D01*
X4726141Y-7153650D02*
X4716617Y-7134603D01*
X4716617Y-7134603D02*
X4716617Y-7125079D01*
X4716617Y-7125079D02*
X4726141Y-7106031D01*
X4726141Y-7106031D02*
X4735665Y-7096508D01*
X4735665Y-7096508D02*
X4754713Y-7086984D01*
X4754713Y-7086984D02*
X4792808Y-7086984D01*
X4792808Y-7086984D02*
X4811855Y-7096508D01*
X4811855Y-7096508D02*
X4821379Y-7106031D01*
X4821379Y-7106031D02*
X4830903Y-7125079D01*
X4830903Y-7125079D02*
X4830903Y-7134603D01*
X4830903Y-7134603D02*
X4821379Y-7153650D01*
X4821379Y-7153650D02*
X4811855Y-7163174D01*
X4811855Y-7163174D02*
X4792808Y-7172698D01*
X4792808Y-7172698D02*
X4754713Y-7172698D01*
X4754713Y-7172698D02*
X4735665Y-7182222D01*
X4735665Y-7182222D02*
X4726141Y-7191746D01*
X4726141Y-7191746D02*
X4716617Y-7210793D01*
X4716617Y-7210793D02*
X4716617Y-7248888D01*
X4716617Y-7248888D02*
X4726141Y-7267936D01*
X4726141Y-7267936D02*
X4735665Y-7277460D01*
X4735665Y-7277460D02*
X4754713Y-7286984D01*
X4754713Y-7286984D02*
X4792808Y-7286984D01*
X4792808Y-7286984D02*
X4811855Y-7277460D01*
X4811855Y-7277460D02*
X4821379Y-7267936D01*
X4821379Y-7267936D02*
X4830903Y-7248888D01*
X4830903Y-7248888D02*
X4830903Y-7210793D01*
X4830903Y-7210793D02*
X4821379Y-7191746D01*
X4821379Y-7191746D02*
X4811855Y-7182222D01*
X4811855Y-7182222D02*
X4792808Y-7172698D01*
X4954713Y-7086984D02*
X4973760Y-7086984D01*
X4973760Y-7086984D02*
X4992808Y-7096508D01*
X4992808Y-7096508D02*
X5002332Y-7106031D01*
X5002332Y-7106031D02*
X5011855Y-7125079D01*
X5011855Y-7125079D02*
X5021379Y-7163174D01*
X5021379Y-7163174D02*
X5021379Y-7210793D01*
X5021379Y-7210793D02*
X5011855Y-7248888D01*
X5011855Y-7248888D02*
X5002332Y-7267936D01*
X5002332Y-7267936D02*
X4992808Y-7277460D01*
X4992808Y-7277460D02*
X4973760Y-7286984D01*
X4973760Y-7286984D02*
X4954713Y-7286984D01*
X4954713Y-7286984D02*
X4935665Y-7277460D01*
X4935665Y-7277460D02*
X4926141Y-7267936D01*
X4926141Y-7267936D02*
X4916617Y-7248888D01*
X4916617Y-7248888D02*
X4907094Y-7210793D01*
X4907094Y-7210793D02*
X4907094Y-7163174D01*
X4907094Y-7163174D02*
X4916617Y-7125079D01*
X4916617Y-7125079D02*
X4926141Y-7106031D01*
X4926141Y-7106031D02*
X4935665Y-7096508D01*
X4935665Y-7096508D02*
X4954713Y-7086984D01*
X5145189Y-7086984D02*
X5164236Y-7086984D01*
X5164236Y-7086984D02*
X5183284Y-7096508D01*
X5183284Y-7096508D02*
X5192808Y-7106031D01*
X5192808Y-7106031D02*
X5202332Y-7125079D01*
X5202332Y-7125079D02*
X5211855Y-7163174D01*
X5211855Y-7163174D02*
X5211855Y-7210793D01*
X5211855Y-7210793D02*
X5202332Y-7248888D01*
X5202332Y-7248888D02*
X5192808Y-7267936D01*
X5192808Y-7267936D02*
X5183284Y-7277460D01*
X5183284Y-7277460D02*
X5164236Y-7286984D01*
X5164236Y-7286984D02*
X5145189Y-7286984D01*
X5145189Y-7286984D02*
X5126141Y-7277460D01*
X5126141Y-7277460D02*
X5116617Y-7267936D01*
X5116617Y-7267936D02*
X5107094Y-7248888D01*
X5107094Y-7248888D02*
X5097570Y-7210793D01*
X5097570Y-7210793D02*
X5097570Y-7163174D01*
X5097570Y-7163174D02*
X5107094Y-7125079D01*
X5107094Y-7125079D02*
X5116617Y-7106031D01*
X5116617Y-7106031D02*
X5126141Y-7096508D01*
X5126141Y-7096508D02*
X5145189Y-7086984D01*
X5297570Y-7286984D02*
X5297570Y-7153650D01*
X5297570Y-7172698D02*
X5307094Y-7163174D01*
X5307094Y-7163174D02*
X5326141Y-7153650D01*
X5326141Y-7153650D02*
X5354713Y-7153650D01*
X5354713Y-7153650D02*
X5373760Y-7163174D01*
X5373760Y-7163174D02*
X5383284Y-7182222D01*
X5383284Y-7182222D02*
X5383284Y-7286984D01*
X5383284Y-7182222D02*
X5392808Y-7163174D01*
X5392808Y-7163174D02*
X5411855Y-7153650D01*
X5411855Y-7153650D02*
X5440427Y-7153650D01*
X5440427Y-7153650D02*
X5459475Y-7163174D01*
X5459475Y-7163174D02*
X5468998Y-7182222D01*
X5468998Y-7182222D02*
X5468998Y-7286984D01*
X5564236Y-7286984D02*
X5564236Y-7153650D01*
X5564236Y-7172698D02*
X5573760Y-7163174D01*
X5573760Y-7163174D02*
X5592808Y-7153650D01*
X5592808Y-7153650D02*
X5621379Y-7153650D01*
X5621379Y-7153650D02*
X5640427Y-7163174D01*
X5640427Y-7163174D02*
X5649951Y-7182222D01*
X5649951Y-7182222D02*
X5649951Y-7286984D01*
X5649951Y-7182222D02*
X5659474Y-7163174D01*
X5659474Y-7163174D02*
X5678522Y-7153650D01*
X5678522Y-7153650D02*
X5707093Y-7153650D01*
X5707093Y-7153650D02*
X5726141Y-7163174D01*
X5726141Y-7163174D02*
X5735665Y-7182222D01*
X5735665Y-7182222D02*
X5735665Y-7286984D01*
X6126141Y-7077460D02*
X5954713Y-7334603D01*
X6383284Y-7086984D02*
X6402332Y-7086984D01*
X6402332Y-7086984D02*
X6421379Y-7096508D01*
X6421379Y-7096508D02*
X6430903Y-7106031D01*
X6430903Y-7106031D02*
X6440427Y-7125079D01*
X6440427Y-7125079D02*
X6449951Y-7163174D01*
X6449951Y-7163174D02*
X6449951Y-7210793D01*
X6449951Y-7210793D02*
X6440427Y-7248888D01*
X6440427Y-7248888D02*
X6430903Y-7267936D01*
X6430903Y-7267936D02*
X6421379Y-7277460D01*
X6421379Y-7277460D02*
X6402332Y-7286984D01*
X6402332Y-7286984D02*
X6383284Y-7286984D01*
X6383284Y-7286984D02*
X6364236Y-7277460D01*
X6364236Y-7277460D02*
X6354713Y-7267936D01*
X6354713Y-7267936D02*
X6345189Y-7248888D01*
X6345189Y-7248888D02*
X6335665Y-7210793D01*
X6335665Y-7210793D02*
X6335665Y-7163174D01*
X6335665Y-7163174D02*
X6345189Y-7125079D01*
X6345189Y-7125079D02*
X6354713Y-7106031D01*
X6354713Y-7106031D02*
X6364236Y-7096508D01*
X6364236Y-7096508D02*
X6383284Y-7086984D01*
X6535665Y-7267936D02*
X6545189Y-7277460D01*
X6545189Y-7277460D02*
X6535665Y-7286984D01*
X6535665Y-7286984D02*
X6526141Y-7277460D01*
X6526141Y-7277460D02*
X6535665Y-7267936D01*
X6535665Y-7267936D02*
X6535665Y-7286984D01*
X6668998Y-7086984D02*
X6688046Y-7086984D01*
X6688046Y-7086984D02*
X6707094Y-7096508D01*
X6707094Y-7096508D02*
X6716617Y-7106031D01*
X6716617Y-7106031D02*
X6726141Y-7125079D01*
X6726141Y-7125079D02*
X6735665Y-7163174D01*
X6735665Y-7163174D02*
X6735665Y-7210793D01*
X6735665Y-7210793D02*
X6726141Y-7248888D01*
X6726141Y-7248888D02*
X6716617Y-7267936D01*
X6716617Y-7267936D02*
X6707094Y-7277460D01*
X6707094Y-7277460D02*
X6688046Y-7286984D01*
X6688046Y-7286984D02*
X6668998Y-7286984D01*
X6668998Y-7286984D02*
X6649951Y-7277460D01*
X6649951Y-7277460D02*
X6640427Y-7267936D01*
X6640427Y-7267936D02*
X6630903Y-7248888D01*
X6630903Y-7248888D02*
X6621379Y-7210793D01*
X6621379Y-7210793D02*
X6621379Y-7163174D01*
X6621379Y-7163174D02*
X6630903Y-7125079D01*
X6630903Y-7125079D02*
X6640427Y-7106031D01*
X6640427Y-7106031D02*
X6649951Y-7096508D01*
X6649951Y-7096508D02*
X6668998Y-7086984D01*
X6802332Y-7086984D02*
X6926141Y-7086984D01*
X6926141Y-7086984D02*
X6859475Y-7163174D01*
X6859475Y-7163174D02*
X6888046Y-7163174D01*
X6888046Y-7163174D02*
X6907094Y-7172698D01*
X6907094Y-7172698D02*
X6916617Y-7182222D01*
X6916617Y-7182222D02*
X6926141Y-7201269D01*
X6926141Y-7201269D02*
X6926141Y-7248888D01*
X6926141Y-7248888D02*
X6916617Y-7267936D01*
X6916617Y-7267936D02*
X6907094Y-7277460D01*
X6907094Y-7277460D02*
X6888046Y-7286984D01*
X6888046Y-7286984D02*
X6830903Y-7286984D01*
X6830903Y-7286984D02*
X6811856Y-7277460D01*
X6811856Y-7277460D02*
X6802332Y-7267936D01*
X7116617Y-7286984D02*
X7002332Y-7286984D01*
X7059475Y-7286984D02*
X7059475Y-7086984D01*
X7059475Y-7086984D02*
X7040427Y-7115555D01*
X7040427Y-7115555D02*
X7021379Y-7134603D01*
X7021379Y-7134603D02*
X7002332Y-7144127D01*
X7297570Y-7086984D02*
X7202332Y-7086984D01*
X7202332Y-7086984D02*
X7192808Y-7182222D01*
X7192808Y-7182222D02*
X7202332Y-7172698D01*
X7202332Y-7172698D02*
X7221379Y-7163174D01*
X7221379Y-7163174D02*
X7268998Y-7163174D01*
X7268998Y-7163174D02*
X7288046Y-7172698D01*
X7288046Y-7172698D02*
X7297570Y-7182222D01*
X7297570Y-7182222D02*
X7307094Y-7201269D01*
X7307094Y-7201269D02*
X7307094Y-7248888D01*
X7307094Y-7248888D02*
X7297570Y-7267936D01*
X7297570Y-7267936D02*
X7288046Y-7277460D01*
X7288046Y-7277460D02*
X7268998Y-7286984D01*
X7268998Y-7286984D02*
X7221379Y-7286984D01*
X7221379Y-7286984D02*
X7202332Y-7277460D01*
X7202332Y-7277460D02*
X7192808Y-7267936D01*
X7383284Y-7086984D02*
X7383284Y-7125079D01*
X7459475Y-7086984D02*
X7459475Y-7125079D01*
X7754713Y-7363174D02*
X7745189Y-7353650D01*
X7745189Y-7353650D02*
X7726141Y-7325079D01*
X7726141Y-7325079D02*
X7716618Y-7306031D01*
X7716618Y-7306031D02*
X7707094Y-7277460D01*
X7707094Y-7277460D02*
X7697570Y-7229841D01*
X7697570Y-7229841D02*
X7697570Y-7191746D01*
X7697570Y-7191746D02*
X7707094Y-7144127D01*
X7707094Y-7144127D02*
X7716618Y-7115555D01*
X7716618Y-7115555D02*
X7726141Y-7096508D01*
X7726141Y-7096508D02*
X7745189Y-7067936D01*
X7745189Y-7067936D02*
X7754713Y-7058412D01*
X7821379Y-7106031D02*
X7830903Y-7096508D01*
X7830903Y-7096508D02*
X7849951Y-7086984D01*
X7849951Y-7086984D02*
X7897570Y-7086984D01*
X7897570Y-7086984D02*
X7916618Y-7096508D01*
X7916618Y-7096508D02*
X7926141Y-7106031D01*
X7926141Y-7106031D02*
X7935665Y-7125079D01*
X7935665Y-7125079D02*
X7935665Y-7144127D01*
X7935665Y-7144127D02*
X7926141Y-7172698D01*
X7926141Y-7172698D02*
X7811856Y-7286984D01*
X7811856Y-7286984D02*
X7935665Y-7286984D01*
X8173760Y-7286984D02*
X8173760Y-7086984D01*
X8259475Y-7286984D02*
X8259475Y-7182222D01*
X8259475Y-7182222D02*
X8249951Y-7163174D01*
X8249951Y-7163174D02*
X8230903Y-7153650D01*
X8230903Y-7153650D02*
X8202332Y-7153650D01*
X8202332Y-7153650D02*
X8183284Y-7163174D01*
X8183284Y-7163174D02*
X8173760Y-7172698D01*
X8383284Y-7286984D02*
X8364237Y-7277460D01*
X8364237Y-7277460D02*
X8354713Y-7267936D01*
X8354713Y-7267936D02*
X8345189Y-7248888D01*
X8345189Y-7248888D02*
X8345189Y-7191746D01*
X8345189Y-7191746D02*
X8354713Y-7172698D01*
X8354713Y-7172698D02*
X8364237Y-7163174D01*
X8364237Y-7163174D02*
X8383284Y-7153650D01*
X8383284Y-7153650D02*
X8411856Y-7153650D01*
X8411856Y-7153650D02*
X8430903Y-7163174D01*
X8430903Y-7163174D02*
X8440427Y-7172698D01*
X8440427Y-7172698D02*
X8449951Y-7191746D01*
X8449951Y-7191746D02*
X8449951Y-7248888D01*
X8449951Y-7248888D02*
X8440427Y-7267936D01*
X8440427Y-7267936D02*
X8430903Y-7277460D01*
X8430903Y-7277460D02*
X8411856Y-7286984D01*
X8411856Y-7286984D02*
X8383284Y-7286984D01*
X8564237Y-7286984D02*
X8545189Y-7277460D01*
X8545189Y-7277460D02*
X8535665Y-7258412D01*
X8535665Y-7258412D02*
X8535665Y-7086984D01*
X8716618Y-7277460D02*
X8697570Y-7286984D01*
X8697570Y-7286984D02*
X8659475Y-7286984D01*
X8659475Y-7286984D02*
X8640427Y-7277460D01*
X8640427Y-7277460D02*
X8630903Y-7258412D01*
X8630903Y-7258412D02*
X8630903Y-7182222D01*
X8630903Y-7182222D02*
X8640427Y-7163174D01*
X8640427Y-7163174D02*
X8659475Y-7153650D01*
X8659475Y-7153650D02*
X8697570Y-7153650D01*
X8697570Y-7153650D02*
X8716618Y-7163174D01*
X8716618Y-7163174D02*
X8726142Y-7182222D01*
X8726142Y-7182222D02*
X8726142Y-7201269D01*
X8726142Y-7201269D02*
X8630903Y-7220317D01*
X8802332Y-7277460D02*
X8821380Y-7286984D01*
X8821380Y-7286984D02*
X8859475Y-7286984D01*
X8859475Y-7286984D02*
X8878523Y-7277460D01*
X8878523Y-7277460D02*
X8888046Y-7258412D01*
X8888046Y-7258412D02*
X8888046Y-7248888D01*
X8888046Y-7248888D02*
X8878523Y-7229841D01*
X8878523Y-7229841D02*
X8859475Y-7220317D01*
X8859475Y-7220317D02*
X8830903Y-7220317D01*
X8830903Y-7220317D02*
X8811856Y-7210793D01*
X8811856Y-7210793D02*
X8802332Y-7191746D01*
X8802332Y-7191746D02*
X8802332Y-7182222D01*
X8802332Y-7182222D02*
X8811856Y-7163174D01*
X8811856Y-7163174D02*
X8830903Y-7153650D01*
X8830903Y-7153650D02*
X8859475Y-7153650D01*
X8859475Y-7153650D02*
X8878523Y-7163174D01*
X8954713Y-7363174D02*
X8964237Y-7353650D01*
X8964237Y-7353650D02*
X8983284Y-7325079D01*
X8983284Y-7325079D02*
X8992808Y-7306031D01*
X8992808Y-7306031D02*
X9002332Y-7277460D01*
X9002332Y-7277460D02*
X9011856Y-7229841D01*
X9011856Y-7229841D02*
X9011856Y-7191746D01*
X9011856Y-7191746D02*
X9002332Y-7144127D01*
X9002332Y-7144127D02*
X8992808Y-7115555D01*
X8992808Y-7115555D02*
X8983284Y-7096508D01*
X8983284Y-7096508D02*
X8964237Y-7067936D01*
X8964237Y-7067936D02*
X8954713Y-7058412D01*
D10*
X4129650Y-7409500D02*
X4129650Y-7509500D01*
X4079650Y-7459500D02*
X4179650Y-7459500D01*
D11*
X4545189Y-7550984D02*
X4430903Y-7550984D01*
X4488046Y-7550984D02*
X4488046Y-7350984D01*
X4488046Y-7350984D02*
X4468998Y-7379555D01*
X4468998Y-7379555D02*
X4449951Y-7398603D01*
X4449951Y-7398603D02*
X4430903Y-7408127D01*
X4630903Y-7531936D02*
X4640427Y-7541460D01*
X4640427Y-7541460D02*
X4630903Y-7550984D01*
X4630903Y-7550984D02*
X4621379Y-7541460D01*
X4621379Y-7541460D02*
X4630903Y-7531936D01*
X4630903Y-7531936D02*
X4630903Y-7550984D01*
X4764236Y-7350984D02*
X4783284Y-7350984D01*
X4783284Y-7350984D02*
X4802332Y-7360508D01*
X4802332Y-7360508D02*
X4811855Y-7370031D01*
X4811855Y-7370031D02*
X4821379Y-7389079D01*
X4821379Y-7389079D02*
X4830903Y-7427174D01*
X4830903Y-7427174D02*
X4830903Y-7474793D01*
X4830903Y-7474793D02*
X4821379Y-7512888D01*
X4821379Y-7512888D02*
X4811855Y-7531936D01*
X4811855Y-7531936D02*
X4802332Y-7541460D01*
X4802332Y-7541460D02*
X4783284Y-7550984D01*
X4783284Y-7550984D02*
X4764236Y-7550984D01*
X4764236Y-7550984D02*
X4745189Y-7541460D01*
X4745189Y-7541460D02*
X4735665Y-7531936D01*
X4735665Y-7531936D02*
X4726141Y-7512888D01*
X4726141Y-7512888D02*
X4716617Y-7474793D01*
X4716617Y-7474793D02*
X4716617Y-7427174D01*
X4716617Y-7427174D02*
X4726141Y-7389079D01*
X4726141Y-7389079D02*
X4735665Y-7370031D01*
X4735665Y-7370031D02*
X4745189Y-7360508D01*
X4745189Y-7360508D02*
X4764236Y-7350984D01*
X4954713Y-7350984D02*
X4973760Y-7350984D01*
X4973760Y-7350984D02*
X4992808Y-7360508D01*
X4992808Y-7360508D02*
X5002332Y-7370031D01*
X5002332Y-7370031D02*
X5011855Y-7389079D01*
X5011855Y-7389079D02*
X5021379Y-7427174D01*
X5021379Y-7427174D02*
X5021379Y-7474793D01*
X5021379Y-7474793D02*
X5011855Y-7512888D01*
X5011855Y-7512888D02*
X5002332Y-7531936D01*
X5002332Y-7531936D02*
X4992808Y-7541460D01*
X4992808Y-7541460D02*
X4973760Y-7550984D01*
X4973760Y-7550984D02*
X4954713Y-7550984D01*
X4954713Y-7550984D02*
X4935665Y-7541460D01*
X4935665Y-7541460D02*
X4926141Y-7531936D01*
X4926141Y-7531936D02*
X4916617Y-7512888D01*
X4916617Y-7512888D02*
X4907094Y-7474793D01*
X4907094Y-7474793D02*
X4907094Y-7427174D01*
X4907094Y-7427174D02*
X4916617Y-7389079D01*
X4916617Y-7389079D02*
X4926141Y-7370031D01*
X4926141Y-7370031D02*
X4935665Y-7360508D01*
X4935665Y-7360508D02*
X4954713Y-7350984D01*
X5145189Y-7350984D02*
X5164236Y-7350984D01*
X5164236Y-7350984D02*
X5183284Y-7360508D01*
X5183284Y-7360508D02*
X5192808Y-7370031D01*
X5192808Y-7370031D02*
X5202332Y-7389079D01*
X5202332Y-7389079D02*
X5211855Y-7427174D01*
X5211855Y-7427174D02*
X5211855Y-7474793D01*
X5211855Y-7474793D02*
X5202332Y-7512888D01*
X5202332Y-7512888D02*
X5192808Y-7531936D01*
X5192808Y-7531936D02*
X5183284Y-7541460D01*
X5183284Y-7541460D02*
X5164236Y-7550984D01*
X5164236Y-7550984D02*
X5145189Y-7550984D01*
X5145189Y-7550984D02*
X5126141Y-7541460D01*
X5126141Y-7541460D02*
X5116617Y-7531936D01*
X5116617Y-7531936D02*
X5107094Y-7512888D01*
X5107094Y-7512888D02*
X5097570Y-7474793D01*
X5097570Y-7474793D02*
X5097570Y-7427174D01*
X5097570Y-7427174D02*
X5107094Y-7389079D01*
X5107094Y-7389079D02*
X5116617Y-7370031D01*
X5116617Y-7370031D02*
X5126141Y-7360508D01*
X5126141Y-7360508D02*
X5145189Y-7350984D01*
X5297570Y-7550984D02*
X5297570Y-7417650D01*
X5297570Y-7436698D02*
X5307094Y-7427174D01*
X5307094Y-7427174D02*
X5326141Y-7417650D01*
X5326141Y-7417650D02*
X5354713Y-7417650D01*
X5354713Y-7417650D02*
X5373760Y-7427174D01*
X5373760Y-7427174D02*
X5383284Y-7446222D01*
X5383284Y-7446222D02*
X5383284Y-7550984D01*
X5383284Y-7446222D02*
X5392808Y-7427174D01*
X5392808Y-7427174D02*
X5411855Y-7417650D01*
X5411855Y-7417650D02*
X5440427Y-7417650D01*
X5440427Y-7417650D02*
X5459475Y-7427174D01*
X5459475Y-7427174D02*
X5468998Y-7446222D01*
X5468998Y-7446222D02*
X5468998Y-7550984D01*
X5564236Y-7550984D02*
X5564236Y-7417650D01*
X5564236Y-7436698D02*
X5573760Y-7427174D01*
X5573760Y-7427174D02*
X5592808Y-7417650D01*
X5592808Y-7417650D02*
X5621379Y-7417650D01*
X5621379Y-7417650D02*
X5640427Y-7427174D01*
X5640427Y-7427174D02*
X5649951Y-7446222D01*
X5649951Y-7446222D02*
X5649951Y-7550984D01*
X5649951Y-7446222D02*
X5659474Y-7427174D01*
X5659474Y-7427174D02*
X5678522Y-7417650D01*
X5678522Y-7417650D02*
X5707093Y-7417650D01*
X5707093Y-7417650D02*
X5726141Y-7427174D01*
X5726141Y-7427174D02*
X5735665Y-7446222D01*
X5735665Y-7446222D02*
X5735665Y-7550984D01*
X6126141Y-7341460D02*
X5954713Y-7598603D01*
X6383284Y-7350984D02*
X6402332Y-7350984D01*
X6402332Y-7350984D02*
X6421379Y-7360508D01*
X6421379Y-7360508D02*
X6430903Y-7370031D01*
X6430903Y-7370031D02*
X6440427Y-7389079D01*
X6440427Y-7389079D02*
X6449951Y-7427174D01*
X6449951Y-7427174D02*
X6449951Y-7474793D01*
X6449951Y-7474793D02*
X6440427Y-7512888D01*
X6440427Y-7512888D02*
X6430903Y-7531936D01*
X6430903Y-7531936D02*
X6421379Y-7541460D01*
X6421379Y-7541460D02*
X6402332Y-7550984D01*
X6402332Y-7550984D02*
X6383284Y-7550984D01*
X6383284Y-7550984D02*
X6364236Y-7541460D01*
X6364236Y-7541460D02*
X6354713Y-7531936D01*
X6354713Y-7531936D02*
X6345189Y-7512888D01*
X6345189Y-7512888D02*
X6335665Y-7474793D01*
X6335665Y-7474793D02*
X6335665Y-7427174D01*
X6335665Y-7427174D02*
X6345189Y-7389079D01*
X6345189Y-7389079D02*
X6354713Y-7370031D01*
X6354713Y-7370031D02*
X6364236Y-7360508D01*
X6364236Y-7360508D02*
X6383284Y-7350984D01*
X6535665Y-7531936D02*
X6545189Y-7541460D01*
X6545189Y-7541460D02*
X6535665Y-7550984D01*
X6535665Y-7550984D02*
X6526141Y-7541460D01*
X6526141Y-7541460D02*
X6535665Y-7531936D01*
X6535665Y-7531936D02*
X6535665Y-7550984D01*
X6668998Y-7350984D02*
X6688046Y-7350984D01*
X6688046Y-7350984D02*
X6707094Y-7360508D01*
X6707094Y-7360508D02*
X6716617Y-7370031D01*
X6716617Y-7370031D02*
X6726141Y-7389079D01*
X6726141Y-7389079D02*
X6735665Y-7427174D01*
X6735665Y-7427174D02*
X6735665Y-7474793D01*
X6735665Y-7474793D02*
X6726141Y-7512888D01*
X6726141Y-7512888D02*
X6716617Y-7531936D01*
X6716617Y-7531936D02*
X6707094Y-7541460D01*
X6707094Y-7541460D02*
X6688046Y-7550984D01*
X6688046Y-7550984D02*
X6668998Y-7550984D01*
X6668998Y-7550984D02*
X6649951Y-7541460D01*
X6649951Y-7541460D02*
X6640427Y-7531936D01*
X6640427Y-7531936D02*
X6630903Y-7512888D01*
X6630903Y-7512888D02*
X6621379Y-7474793D01*
X6621379Y-7474793D02*
X6621379Y-7427174D01*
X6621379Y-7427174D02*
X6630903Y-7389079D01*
X6630903Y-7389079D02*
X6640427Y-7370031D01*
X6640427Y-7370031D02*
X6649951Y-7360508D01*
X6649951Y-7360508D02*
X6668998Y-7350984D01*
X6802332Y-7350984D02*
X6926141Y-7350984D01*
X6926141Y-7350984D02*
X6859475Y-7427174D01*
X6859475Y-7427174D02*
X6888046Y-7427174D01*
X6888046Y-7427174D02*
X6907094Y-7436698D01*
X6907094Y-7436698D02*
X6916617Y-7446222D01*
X6916617Y-7446222D02*
X6926141Y-7465269D01*
X6926141Y-7465269D02*
X6926141Y-7512888D01*
X6926141Y-7512888D02*
X6916617Y-7531936D01*
X6916617Y-7531936D02*
X6907094Y-7541460D01*
X6907094Y-7541460D02*
X6888046Y-7550984D01*
X6888046Y-7550984D02*
X6830903Y-7550984D01*
X6830903Y-7550984D02*
X6811856Y-7541460D01*
X6811856Y-7541460D02*
X6802332Y-7531936D01*
X7021379Y-7550984D02*
X7059475Y-7550984D01*
X7059475Y-7550984D02*
X7078522Y-7541460D01*
X7078522Y-7541460D02*
X7088046Y-7531936D01*
X7088046Y-7531936D02*
X7107094Y-7503365D01*
X7107094Y-7503365D02*
X7116617Y-7465269D01*
X7116617Y-7465269D02*
X7116617Y-7389079D01*
X7116617Y-7389079D02*
X7107094Y-7370031D01*
X7107094Y-7370031D02*
X7097570Y-7360508D01*
X7097570Y-7360508D02*
X7078522Y-7350984D01*
X7078522Y-7350984D02*
X7040427Y-7350984D01*
X7040427Y-7350984D02*
X7021379Y-7360508D01*
X7021379Y-7360508D02*
X7011856Y-7370031D01*
X7011856Y-7370031D02*
X7002332Y-7389079D01*
X7002332Y-7389079D02*
X7002332Y-7436698D01*
X7002332Y-7436698D02*
X7011856Y-7455746D01*
X7011856Y-7455746D02*
X7021379Y-7465269D01*
X7021379Y-7465269D02*
X7040427Y-7474793D01*
X7040427Y-7474793D02*
X7078522Y-7474793D01*
X7078522Y-7474793D02*
X7097570Y-7465269D01*
X7097570Y-7465269D02*
X7107094Y-7455746D01*
X7107094Y-7455746D02*
X7116617Y-7436698D01*
X7288046Y-7417650D02*
X7288046Y-7550984D01*
X7240427Y-7341460D02*
X7192808Y-7484317D01*
X7192808Y-7484317D02*
X7316617Y-7484317D01*
X7383284Y-7350984D02*
X7383284Y-7389079D01*
X7459475Y-7350984D02*
X7459475Y-7389079D01*
X7754713Y-7627174D02*
X7745189Y-7617650D01*
X7745189Y-7617650D02*
X7726141Y-7589079D01*
X7726141Y-7589079D02*
X7716618Y-7570031D01*
X7716618Y-7570031D02*
X7707094Y-7541460D01*
X7707094Y-7541460D02*
X7697570Y-7493841D01*
X7697570Y-7493841D02*
X7697570Y-7455746D01*
X7697570Y-7455746D02*
X7707094Y-7408127D01*
X7707094Y-7408127D02*
X7716618Y-7379555D01*
X7716618Y-7379555D02*
X7726141Y-7360508D01*
X7726141Y-7360508D02*
X7745189Y-7331936D01*
X7745189Y-7331936D02*
X7754713Y-7322412D01*
X7821379Y-7370031D02*
X7830903Y-7360508D01*
X7830903Y-7360508D02*
X7849951Y-7350984D01*
X7849951Y-7350984D02*
X7897570Y-7350984D01*
X7897570Y-7350984D02*
X7916618Y-7360508D01*
X7916618Y-7360508D02*
X7926141Y-7370031D01*
X7926141Y-7370031D02*
X7935665Y-7389079D01*
X7935665Y-7389079D02*
X7935665Y-7408127D01*
X7935665Y-7408127D02*
X7926141Y-7436698D01*
X7926141Y-7436698D02*
X7811856Y-7550984D01*
X7811856Y-7550984D02*
X7935665Y-7550984D01*
X8049951Y-7436698D02*
X8030903Y-7427174D01*
X8030903Y-7427174D02*
X8021379Y-7417650D01*
X8021379Y-7417650D02*
X8011856Y-7398603D01*
X8011856Y-7398603D02*
X8011856Y-7389079D01*
X8011856Y-7389079D02*
X8021379Y-7370031D01*
X8021379Y-7370031D02*
X8030903Y-7360508D01*
X8030903Y-7360508D02*
X8049951Y-7350984D01*
X8049951Y-7350984D02*
X8088046Y-7350984D01*
X8088046Y-7350984D02*
X8107094Y-7360508D01*
X8107094Y-7360508D02*
X8116618Y-7370031D01*
X8116618Y-7370031D02*
X8126141Y-7389079D01*
X8126141Y-7389079D02*
X8126141Y-7398603D01*
X8126141Y-7398603D02*
X8116618Y-7417650D01*
X8116618Y-7417650D02*
X8107094Y-7427174D01*
X8107094Y-7427174D02*
X8088046Y-7436698D01*
X8088046Y-7436698D02*
X8049951Y-7436698D01*
X8049951Y-7436698D02*
X8030903Y-7446222D01*
X8030903Y-7446222D02*
X8021379Y-7455746D01*
X8021379Y-7455746D02*
X8011856Y-7474793D01*
X8011856Y-7474793D02*
X8011856Y-7512888D01*
X8011856Y-7512888D02*
X8021379Y-7531936D01*
X8021379Y-7531936D02*
X8030903Y-7541460D01*
X8030903Y-7541460D02*
X8049951Y-7550984D01*
X8049951Y-7550984D02*
X8088046Y-7550984D01*
X8088046Y-7550984D02*
X8107094Y-7541460D01*
X8107094Y-7541460D02*
X8116618Y-7531936D01*
X8116618Y-7531936D02*
X8126141Y-7512888D01*
X8126141Y-7512888D02*
X8126141Y-7474793D01*
X8126141Y-7474793D02*
X8116618Y-7455746D01*
X8116618Y-7455746D02*
X8107094Y-7446222D01*
X8107094Y-7446222D02*
X8088046Y-7436698D01*
X8364237Y-7550984D02*
X8364237Y-7350984D01*
X8449951Y-7550984D02*
X8449951Y-7446222D01*
X8449951Y-7446222D02*
X8440427Y-7427174D01*
X8440427Y-7427174D02*
X8421380Y-7417650D01*
X8421380Y-7417650D02*
X8392808Y-7417650D01*
X8392808Y-7417650D02*
X8373760Y-7427174D01*
X8373760Y-7427174D02*
X8364237Y-7436698D01*
X8573761Y-7550984D02*
X8554713Y-7541460D01*
X8554713Y-7541460D02*
X8545189Y-7531936D01*
X8545189Y-7531936D02*
X8535665Y-7512888D01*
X8535665Y-7512888D02*
X8535665Y-7455746D01*
X8535665Y-7455746D02*
X8545189Y-7436698D01*
X8545189Y-7436698D02*
X8554713Y-7427174D01*
X8554713Y-7427174D02*
X8573761Y-7417650D01*
X8573761Y-7417650D02*
X8602332Y-7417650D01*
X8602332Y-7417650D02*
X8621380Y-7427174D01*
X8621380Y-7427174D02*
X8630903Y-7436698D01*
X8630903Y-7436698D02*
X8640427Y-7455746D01*
X8640427Y-7455746D02*
X8640427Y-7512888D01*
X8640427Y-7512888D02*
X8630903Y-7531936D01*
X8630903Y-7531936D02*
X8621380Y-7541460D01*
X8621380Y-7541460D02*
X8602332Y-7550984D01*
X8602332Y-7550984D02*
X8573761Y-7550984D01*
X8754713Y-7550984D02*
X8735665Y-7541460D01*
X8735665Y-7541460D02*
X8726142Y-7522412D01*
X8726142Y-7522412D02*
X8726142Y-7350984D01*
X8907094Y-7541460D02*
X8888046Y-7550984D01*
X8888046Y-7550984D02*
X8849951Y-7550984D01*
X8849951Y-7550984D02*
X8830903Y-7541460D01*
X8830903Y-7541460D02*
X8821380Y-7522412D01*
X8821380Y-7522412D02*
X8821380Y-7446222D01*
X8821380Y-7446222D02*
X8830903Y-7427174D01*
X8830903Y-7427174D02*
X8849951Y-7417650D01*
X8849951Y-7417650D02*
X8888046Y-7417650D01*
X8888046Y-7417650D02*
X8907094Y-7427174D01*
X8907094Y-7427174D02*
X8916618Y-7446222D01*
X8916618Y-7446222D02*
X8916618Y-7465269D01*
X8916618Y-7465269D02*
X8821380Y-7484317D01*
X8992808Y-7541460D02*
X9011856Y-7550984D01*
X9011856Y-7550984D02*
X9049951Y-7550984D01*
X9049951Y-7550984D02*
X9068999Y-7541460D01*
X9068999Y-7541460D02*
X9078523Y-7522412D01*
X9078523Y-7522412D02*
X9078523Y-7512888D01*
X9078523Y-7512888D02*
X9068999Y-7493841D01*
X9068999Y-7493841D02*
X9049951Y-7484317D01*
X9049951Y-7484317D02*
X9021380Y-7484317D01*
X9021380Y-7484317D02*
X9002332Y-7474793D01*
X9002332Y-7474793D02*
X8992808Y-7455746D01*
X8992808Y-7455746D02*
X8992808Y-7446222D01*
X8992808Y-7446222D02*
X9002332Y-7427174D01*
X9002332Y-7427174D02*
X9021380Y-7417650D01*
X9021380Y-7417650D02*
X9049951Y-7417650D01*
X9049951Y-7417650D02*
X9068999Y-7427174D01*
X9145189Y-7627174D02*
X9154713Y-7617650D01*
X9154713Y-7617650D02*
X9173761Y-7589079D01*
X9173761Y-7589079D02*
X9183284Y-7570031D01*
X9183284Y-7570031D02*
X9192808Y-7541460D01*
X9192808Y-7541460D02*
X9202332Y-7493841D01*
X9202332Y-7493841D02*
X9202332Y-7455746D01*
X9202332Y-7455746D02*
X9192808Y-7408127D01*
X9192808Y-7408127D02*
X9183284Y-7379555D01*
X9183284Y-7379555D02*
X9173761Y-7360508D01*
X9173761Y-7360508D02*
X9154713Y-7331936D01*
X9154713Y-7331936D02*
X9145189Y-7322412D01*
D12*
X4164771Y-7759421D02*
X4164771Y-7687579D01*
X4092929Y-7687579D01*
X4092929Y-7759421D01*
X4164771Y-7759421D01*
D11*
X4545189Y-7814984D02*
X4430903Y-7814984D01*
X4488046Y-7814984D02*
X4488046Y-7614984D01*
X4488046Y-7614984D02*
X4468998Y-7643555D01*
X4468998Y-7643555D02*
X4449951Y-7662603D01*
X4449951Y-7662603D02*
X4430903Y-7672127D01*
X4630903Y-7795936D02*
X4640427Y-7805460D01*
X4640427Y-7805460D02*
X4630903Y-7814984D01*
X4630903Y-7814984D02*
X4621379Y-7805460D01*
X4621379Y-7805460D02*
X4630903Y-7795936D01*
X4630903Y-7795936D02*
X4630903Y-7814984D01*
X4764236Y-7614984D02*
X4783284Y-7614984D01*
X4783284Y-7614984D02*
X4802332Y-7624508D01*
X4802332Y-7624508D02*
X4811855Y-7634031D01*
X4811855Y-7634031D02*
X4821379Y-7653079D01*
X4821379Y-7653079D02*
X4830903Y-7691174D01*
X4830903Y-7691174D02*
X4830903Y-7738793D01*
X4830903Y-7738793D02*
X4821379Y-7776888D01*
X4821379Y-7776888D02*
X4811855Y-7795936D01*
X4811855Y-7795936D02*
X4802332Y-7805460D01*
X4802332Y-7805460D02*
X4783284Y-7814984D01*
X4783284Y-7814984D02*
X4764236Y-7814984D01*
X4764236Y-7814984D02*
X4745189Y-7805460D01*
X4745189Y-7805460D02*
X4735665Y-7795936D01*
X4735665Y-7795936D02*
X4726141Y-7776888D01*
X4726141Y-7776888D02*
X4716617Y-7738793D01*
X4716617Y-7738793D02*
X4716617Y-7691174D01*
X4716617Y-7691174D02*
X4726141Y-7653079D01*
X4726141Y-7653079D02*
X4735665Y-7634031D01*
X4735665Y-7634031D02*
X4745189Y-7624508D01*
X4745189Y-7624508D02*
X4764236Y-7614984D01*
X5021379Y-7814984D02*
X4907094Y-7814984D01*
X4964236Y-7814984D02*
X4964236Y-7614984D01*
X4964236Y-7614984D02*
X4945189Y-7643555D01*
X4945189Y-7643555D02*
X4926141Y-7662603D01*
X4926141Y-7662603D02*
X4907094Y-7672127D01*
X5192808Y-7614984D02*
X5154713Y-7614984D01*
X5154713Y-7614984D02*
X5135665Y-7624508D01*
X5135665Y-7624508D02*
X5126141Y-7634031D01*
X5126141Y-7634031D02*
X5107094Y-7662603D01*
X5107094Y-7662603D02*
X5097570Y-7700698D01*
X5097570Y-7700698D02*
X5097570Y-7776888D01*
X5097570Y-7776888D02*
X5107094Y-7795936D01*
X5107094Y-7795936D02*
X5116617Y-7805460D01*
X5116617Y-7805460D02*
X5135665Y-7814984D01*
X5135665Y-7814984D02*
X5173760Y-7814984D01*
X5173760Y-7814984D02*
X5192808Y-7805460D01*
X5192808Y-7805460D02*
X5202332Y-7795936D01*
X5202332Y-7795936D02*
X5211855Y-7776888D01*
X5211855Y-7776888D02*
X5211855Y-7729269D01*
X5211855Y-7729269D02*
X5202332Y-7710222D01*
X5202332Y-7710222D02*
X5192808Y-7700698D01*
X5192808Y-7700698D02*
X5173760Y-7691174D01*
X5173760Y-7691174D02*
X5135665Y-7691174D01*
X5135665Y-7691174D02*
X5116617Y-7700698D01*
X5116617Y-7700698D02*
X5107094Y-7710222D01*
X5107094Y-7710222D02*
X5097570Y-7729269D01*
X5297570Y-7814984D02*
X5297570Y-7681650D01*
X5297570Y-7700698D02*
X5307094Y-7691174D01*
X5307094Y-7691174D02*
X5326141Y-7681650D01*
X5326141Y-7681650D02*
X5354713Y-7681650D01*
X5354713Y-7681650D02*
X5373760Y-7691174D01*
X5373760Y-7691174D02*
X5383284Y-7710222D01*
X5383284Y-7710222D02*
X5383284Y-7814984D01*
X5383284Y-7710222D02*
X5392808Y-7691174D01*
X5392808Y-7691174D02*
X5411855Y-7681650D01*
X5411855Y-7681650D02*
X5440427Y-7681650D01*
X5440427Y-7681650D02*
X5459475Y-7691174D01*
X5459475Y-7691174D02*
X5468998Y-7710222D01*
X5468998Y-7710222D02*
X5468998Y-7814984D01*
X5564236Y-7814984D02*
X5564236Y-7681650D01*
X5564236Y-7700698D02*
X5573760Y-7691174D01*
X5573760Y-7691174D02*
X5592808Y-7681650D01*
X5592808Y-7681650D02*
X5621379Y-7681650D01*
X5621379Y-7681650D02*
X5640427Y-7691174D01*
X5640427Y-7691174D02*
X5649951Y-7710222D01*
X5649951Y-7710222D02*
X5649951Y-7814984D01*
X5649951Y-7710222D02*
X5659474Y-7691174D01*
X5659474Y-7691174D02*
X5678522Y-7681650D01*
X5678522Y-7681650D02*
X5707093Y-7681650D01*
X5707093Y-7681650D02*
X5726141Y-7691174D01*
X5726141Y-7691174D02*
X5735665Y-7710222D01*
X5735665Y-7710222D02*
X5735665Y-7814984D01*
X6126141Y-7605460D02*
X5954713Y-7862603D01*
X6383284Y-7614984D02*
X6402332Y-7614984D01*
X6402332Y-7614984D02*
X6421379Y-7624508D01*
X6421379Y-7624508D02*
X6430903Y-7634031D01*
X6430903Y-7634031D02*
X6440427Y-7653079D01*
X6440427Y-7653079D02*
X6449951Y-7691174D01*
X6449951Y-7691174D02*
X6449951Y-7738793D01*
X6449951Y-7738793D02*
X6440427Y-7776888D01*
X6440427Y-7776888D02*
X6430903Y-7795936D01*
X6430903Y-7795936D02*
X6421379Y-7805460D01*
X6421379Y-7805460D02*
X6402332Y-7814984D01*
X6402332Y-7814984D02*
X6383284Y-7814984D01*
X6383284Y-7814984D02*
X6364236Y-7805460D01*
X6364236Y-7805460D02*
X6354713Y-7795936D01*
X6354713Y-7795936D02*
X6345189Y-7776888D01*
X6345189Y-7776888D02*
X6335665Y-7738793D01*
X6335665Y-7738793D02*
X6335665Y-7691174D01*
X6335665Y-7691174D02*
X6345189Y-7653079D01*
X6345189Y-7653079D02*
X6354713Y-7634031D01*
X6354713Y-7634031D02*
X6364236Y-7624508D01*
X6364236Y-7624508D02*
X6383284Y-7614984D01*
X6535665Y-7795936D02*
X6545189Y-7805460D01*
X6545189Y-7805460D02*
X6535665Y-7814984D01*
X6535665Y-7814984D02*
X6526141Y-7805460D01*
X6526141Y-7805460D02*
X6535665Y-7795936D01*
X6535665Y-7795936D02*
X6535665Y-7814984D01*
X6668998Y-7614984D02*
X6688046Y-7614984D01*
X6688046Y-7614984D02*
X6707094Y-7624508D01*
X6707094Y-7624508D02*
X6716617Y-7634031D01*
X6716617Y-7634031D02*
X6726141Y-7653079D01*
X6726141Y-7653079D02*
X6735665Y-7691174D01*
X6735665Y-7691174D02*
X6735665Y-7738793D01*
X6735665Y-7738793D02*
X6726141Y-7776888D01*
X6726141Y-7776888D02*
X6716617Y-7795936D01*
X6716617Y-7795936D02*
X6707094Y-7805460D01*
X6707094Y-7805460D02*
X6688046Y-7814984D01*
X6688046Y-7814984D02*
X6668998Y-7814984D01*
X6668998Y-7814984D02*
X6649951Y-7805460D01*
X6649951Y-7805460D02*
X6640427Y-7795936D01*
X6640427Y-7795936D02*
X6630903Y-7776888D01*
X6630903Y-7776888D02*
X6621379Y-7738793D01*
X6621379Y-7738793D02*
X6621379Y-7691174D01*
X6621379Y-7691174D02*
X6630903Y-7653079D01*
X6630903Y-7653079D02*
X6640427Y-7634031D01*
X6640427Y-7634031D02*
X6649951Y-7624508D01*
X6649951Y-7624508D02*
X6668998Y-7614984D01*
X6907094Y-7681650D02*
X6907094Y-7814984D01*
X6859475Y-7605460D02*
X6811856Y-7748317D01*
X6811856Y-7748317D02*
X6935665Y-7748317D01*
X7049951Y-7614984D02*
X7068998Y-7614984D01*
X7068998Y-7614984D02*
X7088046Y-7624508D01*
X7088046Y-7624508D02*
X7097570Y-7634031D01*
X7097570Y-7634031D02*
X7107094Y-7653079D01*
X7107094Y-7653079D02*
X7116617Y-7691174D01*
X7116617Y-7691174D02*
X7116617Y-7738793D01*
X7116617Y-7738793D02*
X7107094Y-7776888D01*
X7107094Y-7776888D02*
X7097570Y-7795936D01*
X7097570Y-7795936D02*
X7088046Y-7805460D01*
X7088046Y-7805460D02*
X7068998Y-7814984D01*
X7068998Y-7814984D02*
X7049951Y-7814984D01*
X7049951Y-7814984D02*
X7030903Y-7805460D01*
X7030903Y-7805460D02*
X7021379Y-7795936D01*
X7021379Y-7795936D02*
X7011856Y-7776888D01*
X7011856Y-7776888D02*
X7002332Y-7738793D01*
X7002332Y-7738793D02*
X7002332Y-7691174D01*
X7002332Y-7691174D02*
X7011856Y-7653079D01*
X7011856Y-7653079D02*
X7021379Y-7634031D01*
X7021379Y-7634031D02*
X7030903Y-7624508D01*
X7030903Y-7624508D02*
X7049951Y-7614984D01*
X7240427Y-7614984D02*
X7259475Y-7614984D01*
X7259475Y-7614984D02*
X7278522Y-7624508D01*
X7278522Y-7624508D02*
X7288046Y-7634031D01*
X7288046Y-7634031D02*
X7297570Y-7653079D01*
X7297570Y-7653079D02*
X7307094Y-7691174D01*
X7307094Y-7691174D02*
X7307094Y-7738793D01*
X7307094Y-7738793D02*
X7297570Y-7776888D01*
X7297570Y-7776888D02*
X7288046Y-7795936D01*
X7288046Y-7795936D02*
X7278522Y-7805460D01*
X7278522Y-7805460D02*
X7259475Y-7814984D01*
X7259475Y-7814984D02*
X7240427Y-7814984D01*
X7240427Y-7814984D02*
X7221379Y-7805460D01*
X7221379Y-7805460D02*
X7211856Y-7795936D01*
X7211856Y-7795936D02*
X7202332Y-7776888D01*
X7202332Y-7776888D02*
X7192808Y-7738793D01*
X7192808Y-7738793D02*
X7192808Y-7691174D01*
X7192808Y-7691174D02*
X7202332Y-7653079D01*
X7202332Y-7653079D02*
X7211856Y-7634031D01*
X7211856Y-7634031D02*
X7221379Y-7624508D01*
X7221379Y-7624508D02*
X7240427Y-7614984D01*
X7383284Y-7614984D02*
X7383284Y-7653079D01*
X7459475Y-7614984D02*
X7459475Y-7653079D01*
X7754713Y-7891174D02*
X7745189Y-7881650D01*
X7745189Y-7881650D02*
X7726141Y-7853079D01*
X7726141Y-7853079D02*
X7716618Y-7834031D01*
X7716618Y-7834031D02*
X7707094Y-7805460D01*
X7707094Y-7805460D02*
X7697570Y-7757841D01*
X7697570Y-7757841D02*
X7697570Y-7719746D01*
X7697570Y-7719746D02*
X7707094Y-7672127D01*
X7707094Y-7672127D02*
X7716618Y-7643555D01*
X7716618Y-7643555D02*
X7726141Y-7624508D01*
X7726141Y-7624508D02*
X7745189Y-7595936D01*
X7745189Y-7595936D02*
X7754713Y-7586412D01*
X7811856Y-7614984D02*
X7935665Y-7614984D01*
X7935665Y-7614984D02*
X7868998Y-7691174D01*
X7868998Y-7691174D02*
X7897570Y-7691174D01*
X7897570Y-7691174D02*
X7916618Y-7700698D01*
X7916618Y-7700698D02*
X7926141Y-7710222D01*
X7926141Y-7710222D02*
X7935665Y-7729269D01*
X7935665Y-7729269D02*
X7935665Y-7776888D01*
X7935665Y-7776888D02*
X7926141Y-7795936D01*
X7926141Y-7795936D02*
X7916618Y-7805460D01*
X7916618Y-7805460D02*
X7897570Y-7814984D01*
X7897570Y-7814984D02*
X7840427Y-7814984D01*
X7840427Y-7814984D02*
X7821379Y-7805460D01*
X7821379Y-7805460D02*
X7811856Y-7795936D01*
X8059475Y-7614984D02*
X8078522Y-7614984D01*
X8078522Y-7614984D02*
X8097570Y-7624508D01*
X8097570Y-7624508D02*
X8107094Y-7634031D01*
X8107094Y-7634031D02*
X8116618Y-7653079D01*
X8116618Y-7653079D02*
X8126141Y-7691174D01*
X8126141Y-7691174D02*
X8126141Y-7738793D01*
X8126141Y-7738793D02*
X8116618Y-7776888D01*
X8116618Y-7776888D02*
X8107094Y-7795936D01*
X8107094Y-7795936D02*
X8097570Y-7805460D01*
X8097570Y-7805460D02*
X8078522Y-7814984D01*
X8078522Y-7814984D02*
X8059475Y-7814984D01*
X8059475Y-7814984D02*
X8040427Y-7805460D01*
X8040427Y-7805460D02*
X8030903Y-7795936D01*
X8030903Y-7795936D02*
X8021379Y-7776888D01*
X8021379Y-7776888D02*
X8011856Y-7738793D01*
X8011856Y-7738793D02*
X8011856Y-7691174D01*
X8011856Y-7691174D02*
X8021379Y-7653079D01*
X8021379Y-7653079D02*
X8030903Y-7634031D01*
X8030903Y-7634031D02*
X8040427Y-7624508D01*
X8040427Y-7624508D02*
X8059475Y-7614984D01*
X8364237Y-7814984D02*
X8364237Y-7614984D01*
X8449951Y-7814984D02*
X8449951Y-7710222D01*
X8449951Y-7710222D02*
X8440427Y-7691174D01*
X8440427Y-7691174D02*
X8421380Y-7681650D01*
X8421380Y-7681650D02*
X8392808Y-7681650D01*
X8392808Y-7681650D02*
X8373760Y-7691174D01*
X8373760Y-7691174D02*
X8364237Y-7700698D01*
X8573761Y-7814984D02*
X8554713Y-7805460D01*
X8554713Y-7805460D02*
X8545189Y-7795936D01*
X8545189Y-7795936D02*
X8535665Y-7776888D01*
X8535665Y-7776888D02*
X8535665Y-7719746D01*
X8535665Y-7719746D02*
X8545189Y-7700698D01*
X8545189Y-7700698D02*
X8554713Y-7691174D01*
X8554713Y-7691174D02*
X8573761Y-7681650D01*
X8573761Y-7681650D02*
X8602332Y-7681650D01*
X8602332Y-7681650D02*
X8621380Y-7691174D01*
X8621380Y-7691174D02*
X8630903Y-7700698D01*
X8630903Y-7700698D02*
X8640427Y-7719746D01*
X8640427Y-7719746D02*
X8640427Y-7776888D01*
X8640427Y-7776888D02*
X8630903Y-7795936D01*
X8630903Y-7795936D02*
X8621380Y-7805460D01*
X8621380Y-7805460D02*
X8602332Y-7814984D01*
X8602332Y-7814984D02*
X8573761Y-7814984D01*
X8754713Y-7814984D02*
X8735665Y-7805460D01*
X8735665Y-7805460D02*
X8726142Y-7786412D01*
X8726142Y-7786412D02*
X8726142Y-7614984D01*
X8907094Y-7805460D02*
X8888046Y-7814984D01*
X8888046Y-7814984D02*
X8849951Y-7814984D01*
X8849951Y-7814984D02*
X8830903Y-7805460D01*
X8830903Y-7805460D02*
X8821380Y-7786412D01*
X8821380Y-7786412D02*
X8821380Y-7710222D01*
X8821380Y-7710222D02*
X8830903Y-7691174D01*
X8830903Y-7691174D02*
X8849951Y-7681650D01*
X8849951Y-7681650D02*
X8888046Y-7681650D01*
X8888046Y-7681650D02*
X8907094Y-7691174D01*
X8907094Y-7691174D02*
X8916618Y-7710222D01*
X8916618Y-7710222D02*
X8916618Y-7729269D01*
X8916618Y-7729269D02*
X8821380Y-7748317D01*
X8992808Y-7805460D02*
X9011856Y-7814984D01*
X9011856Y-7814984D02*
X9049951Y-7814984D01*
X9049951Y-7814984D02*
X9068999Y-7805460D01*
X9068999Y-7805460D02*
X9078523Y-7786412D01*
X9078523Y-7786412D02*
X9078523Y-7776888D01*
X9078523Y-7776888D02*
X9068999Y-7757841D01*
X9068999Y-7757841D02*
X9049951Y-7748317D01*
X9049951Y-7748317D02*
X9021380Y-7748317D01*
X9021380Y-7748317D02*
X9002332Y-7738793D01*
X9002332Y-7738793D02*
X8992808Y-7719746D01*
X8992808Y-7719746D02*
X8992808Y-7710222D01*
X8992808Y-7710222D02*
X9002332Y-7691174D01*
X9002332Y-7691174D02*
X9021380Y-7681650D01*
X9021380Y-7681650D02*
X9049951Y-7681650D01*
X9049951Y-7681650D02*
X9068999Y-7691174D01*
X9145189Y-7891174D02*
X9154713Y-7881650D01*
X9154713Y-7881650D02*
X9173761Y-7853079D01*
X9173761Y-7853079D02*
X9183284Y-7834031D01*
X9183284Y-7834031D02*
X9192808Y-7805460D01*
X9192808Y-7805460D02*
X9202332Y-7757841D01*
X9202332Y-7757841D02*
X9202332Y-7719746D01*
X9202332Y-7719746D02*
X9192808Y-7672127D01*
X9192808Y-7672127D02*
X9183284Y-7643555D01*
X9183284Y-7643555D02*
X9173761Y-7624508D01*
X9173761Y-7624508D02*
X9154713Y-7595936D01*
X9154713Y-7595936D02*
X9145189Y-7586412D01*
X4079650Y-8087500D02*
X4179650Y-7987500D01*
X4079650Y-7887500D01*
X3979650Y-7987500D01*
X4079650Y-8087500D01*
X4430903Y-7898031D02*
X4440427Y-7888508D01*
X4440427Y-7888508D02*
X4459474Y-7878984D01*
X4459474Y-7878984D02*
X4507094Y-7878984D01*
X4507094Y-7878984D02*
X4526141Y-7888508D01*
X4526141Y-7888508D02*
X4535665Y-7898031D01*
X4535665Y-7898031D02*
X4545189Y-7917079D01*
X4545189Y-7917079D02*
X4545189Y-7936127D01*
X4545189Y-7936127D02*
X4535665Y-7964698D01*
X4535665Y-7964698D02*
X4421379Y-8078984D01*
X4421379Y-8078984D02*
X4545189Y-8078984D01*
X4630903Y-8059936D02*
X4640427Y-8069460D01*
X4640427Y-8069460D02*
X4630903Y-8078984D01*
X4630903Y-8078984D02*
X4621379Y-8069460D01*
X4621379Y-8069460D02*
X4630903Y-8059936D01*
X4630903Y-8059936D02*
X4630903Y-8078984D01*
X4707094Y-7878984D02*
X4840427Y-7878984D01*
X4840427Y-7878984D02*
X4754713Y-8078984D01*
X4954713Y-7878984D02*
X4973760Y-7878984D01*
X4973760Y-7878984D02*
X4992808Y-7888508D01*
X4992808Y-7888508D02*
X5002332Y-7898031D01*
X5002332Y-7898031D02*
X5011855Y-7917079D01*
X5011855Y-7917079D02*
X5021379Y-7955174D01*
X5021379Y-7955174D02*
X5021379Y-8002793D01*
X5021379Y-8002793D02*
X5011855Y-8040888D01*
X5011855Y-8040888D02*
X5002332Y-8059936D01*
X5002332Y-8059936D02*
X4992808Y-8069460D01*
X4992808Y-8069460D02*
X4973760Y-8078984D01*
X4973760Y-8078984D02*
X4954713Y-8078984D01*
X4954713Y-8078984D02*
X4935665Y-8069460D01*
X4935665Y-8069460D02*
X4926141Y-8059936D01*
X4926141Y-8059936D02*
X4916617Y-8040888D01*
X4916617Y-8040888D02*
X4907094Y-8002793D01*
X4907094Y-8002793D02*
X4907094Y-7955174D01*
X4907094Y-7955174D02*
X4916617Y-7917079D01*
X4916617Y-7917079D02*
X4926141Y-7898031D01*
X4926141Y-7898031D02*
X4935665Y-7888508D01*
X4935665Y-7888508D02*
X4954713Y-7878984D01*
X5145189Y-7878984D02*
X5164236Y-7878984D01*
X5164236Y-7878984D02*
X5183284Y-7888508D01*
X5183284Y-7888508D02*
X5192808Y-7898031D01*
X5192808Y-7898031D02*
X5202332Y-7917079D01*
X5202332Y-7917079D02*
X5211855Y-7955174D01*
X5211855Y-7955174D02*
X5211855Y-8002793D01*
X5211855Y-8002793D02*
X5202332Y-8040888D01*
X5202332Y-8040888D02*
X5192808Y-8059936D01*
X5192808Y-8059936D02*
X5183284Y-8069460D01*
X5183284Y-8069460D02*
X5164236Y-8078984D01*
X5164236Y-8078984D02*
X5145189Y-8078984D01*
X5145189Y-8078984D02*
X5126141Y-8069460D01*
X5126141Y-8069460D02*
X5116617Y-8059936D01*
X5116617Y-8059936D02*
X5107094Y-8040888D01*
X5107094Y-8040888D02*
X5097570Y-8002793D01*
X5097570Y-8002793D02*
X5097570Y-7955174D01*
X5097570Y-7955174D02*
X5107094Y-7917079D01*
X5107094Y-7917079D02*
X5116617Y-7898031D01*
X5116617Y-7898031D02*
X5126141Y-7888508D01*
X5126141Y-7888508D02*
X5145189Y-7878984D01*
X5297570Y-8078984D02*
X5297570Y-7945650D01*
X5297570Y-7964698D02*
X5307094Y-7955174D01*
X5307094Y-7955174D02*
X5326141Y-7945650D01*
X5326141Y-7945650D02*
X5354713Y-7945650D01*
X5354713Y-7945650D02*
X5373760Y-7955174D01*
X5373760Y-7955174D02*
X5383284Y-7974222D01*
X5383284Y-7974222D02*
X5383284Y-8078984D01*
X5383284Y-7974222D02*
X5392808Y-7955174D01*
X5392808Y-7955174D02*
X5411855Y-7945650D01*
X5411855Y-7945650D02*
X5440427Y-7945650D01*
X5440427Y-7945650D02*
X5459475Y-7955174D01*
X5459475Y-7955174D02*
X5468998Y-7974222D01*
X5468998Y-7974222D02*
X5468998Y-8078984D01*
X5564236Y-8078984D02*
X5564236Y-7945650D01*
X5564236Y-7964698D02*
X5573760Y-7955174D01*
X5573760Y-7955174D02*
X5592808Y-7945650D01*
X5592808Y-7945650D02*
X5621379Y-7945650D01*
X5621379Y-7945650D02*
X5640427Y-7955174D01*
X5640427Y-7955174D02*
X5649951Y-7974222D01*
X5649951Y-7974222D02*
X5649951Y-8078984D01*
X5649951Y-7974222D02*
X5659474Y-7955174D01*
X5659474Y-7955174D02*
X5678522Y-7945650D01*
X5678522Y-7945650D02*
X5707093Y-7945650D01*
X5707093Y-7945650D02*
X5726141Y-7955174D01*
X5726141Y-7955174D02*
X5735665Y-7974222D01*
X5735665Y-7974222D02*
X5735665Y-8078984D01*
X6126141Y-7869460D02*
X5954713Y-8126603D01*
X6383284Y-7878984D02*
X6402332Y-7878984D01*
X6402332Y-7878984D02*
X6421379Y-7888508D01*
X6421379Y-7888508D02*
X6430903Y-7898031D01*
X6430903Y-7898031D02*
X6440427Y-7917079D01*
X6440427Y-7917079D02*
X6449951Y-7955174D01*
X6449951Y-7955174D02*
X6449951Y-8002793D01*
X6449951Y-8002793D02*
X6440427Y-8040888D01*
X6440427Y-8040888D02*
X6430903Y-8059936D01*
X6430903Y-8059936D02*
X6421379Y-8069460D01*
X6421379Y-8069460D02*
X6402332Y-8078984D01*
X6402332Y-8078984D02*
X6383284Y-8078984D01*
X6383284Y-8078984D02*
X6364236Y-8069460D01*
X6364236Y-8069460D02*
X6354713Y-8059936D01*
X6354713Y-8059936D02*
X6345189Y-8040888D01*
X6345189Y-8040888D02*
X6335665Y-8002793D01*
X6335665Y-8002793D02*
X6335665Y-7955174D01*
X6335665Y-7955174D02*
X6345189Y-7917079D01*
X6345189Y-7917079D02*
X6354713Y-7898031D01*
X6354713Y-7898031D02*
X6364236Y-7888508D01*
X6364236Y-7888508D02*
X6383284Y-7878984D01*
X6535665Y-8059936D02*
X6545189Y-8069460D01*
X6545189Y-8069460D02*
X6535665Y-8078984D01*
X6535665Y-8078984D02*
X6526141Y-8069460D01*
X6526141Y-8069460D02*
X6535665Y-8059936D01*
X6535665Y-8059936D02*
X6535665Y-8078984D01*
X6735665Y-8078984D02*
X6621379Y-8078984D01*
X6678522Y-8078984D02*
X6678522Y-7878984D01*
X6678522Y-7878984D02*
X6659475Y-7907555D01*
X6659475Y-7907555D02*
X6640427Y-7926603D01*
X6640427Y-7926603D02*
X6621379Y-7936127D01*
X6859475Y-7878984D02*
X6878522Y-7878984D01*
X6878522Y-7878984D02*
X6897570Y-7888508D01*
X6897570Y-7888508D02*
X6907094Y-7898031D01*
X6907094Y-7898031D02*
X6916617Y-7917079D01*
X6916617Y-7917079D02*
X6926141Y-7955174D01*
X6926141Y-7955174D02*
X6926141Y-8002793D01*
X6926141Y-8002793D02*
X6916617Y-8040888D01*
X6916617Y-8040888D02*
X6907094Y-8059936D01*
X6907094Y-8059936D02*
X6897570Y-8069460D01*
X6897570Y-8069460D02*
X6878522Y-8078984D01*
X6878522Y-8078984D02*
X6859475Y-8078984D01*
X6859475Y-8078984D02*
X6840427Y-8069460D01*
X6840427Y-8069460D02*
X6830903Y-8059936D01*
X6830903Y-8059936D02*
X6821379Y-8040888D01*
X6821379Y-8040888D02*
X6811856Y-8002793D01*
X6811856Y-8002793D02*
X6811856Y-7955174D01*
X6811856Y-7955174D02*
X6821379Y-7917079D01*
X6821379Y-7917079D02*
X6830903Y-7898031D01*
X6830903Y-7898031D02*
X6840427Y-7888508D01*
X6840427Y-7888508D02*
X6859475Y-7878984D01*
X7097570Y-7878984D02*
X7059475Y-7878984D01*
X7059475Y-7878984D02*
X7040427Y-7888508D01*
X7040427Y-7888508D02*
X7030903Y-7898031D01*
X7030903Y-7898031D02*
X7011856Y-7926603D01*
X7011856Y-7926603D02*
X7002332Y-7964698D01*
X7002332Y-7964698D02*
X7002332Y-8040888D01*
X7002332Y-8040888D02*
X7011856Y-8059936D01*
X7011856Y-8059936D02*
X7021379Y-8069460D01*
X7021379Y-8069460D02*
X7040427Y-8078984D01*
X7040427Y-8078984D02*
X7078522Y-8078984D01*
X7078522Y-8078984D02*
X7097570Y-8069460D01*
X7097570Y-8069460D02*
X7107094Y-8059936D01*
X7107094Y-8059936D02*
X7116617Y-8040888D01*
X7116617Y-8040888D02*
X7116617Y-7993269D01*
X7116617Y-7993269D02*
X7107094Y-7974222D01*
X7107094Y-7974222D02*
X7097570Y-7964698D01*
X7097570Y-7964698D02*
X7078522Y-7955174D01*
X7078522Y-7955174D02*
X7040427Y-7955174D01*
X7040427Y-7955174D02*
X7021379Y-7964698D01*
X7021379Y-7964698D02*
X7011856Y-7974222D01*
X7011856Y-7974222D02*
X7002332Y-7993269D01*
X7183284Y-7878984D02*
X7307094Y-7878984D01*
X7307094Y-7878984D02*
X7240427Y-7955174D01*
X7240427Y-7955174D02*
X7268998Y-7955174D01*
X7268998Y-7955174D02*
X7288046Y-7964698D01*
X7288046Y-7964698D02*
X7297570Y-7974222D01*
X7297570Y-7974222D02*
X7307094Y-7993269D01*
X7307094Y-7993269D02*
X7307094Y-8040888D01*
X7307094Y-8040888D02*
X7297570Y-8059936D01*
X7297570Y-8059936D02*
X7288046Y-8069460D01*
X7288046Y-8069460D02*
X7268998Y-8078984D01*
X7268998Y-8078984D02*
X7211856Y-8078984D01*
X7211856Y-8078984D02*
X7192808Y-8069460D01*
X7192808Y-8069460D02*
X7183284Y-8059936D01*
X7383284Y-7878984D02*
X7383284Y-7917079D01*
X7459475Y-7878984D02*
X7459475Y-7917079D01*
X7754713Y-8155174D02*
X7745189Y-8145650D01*
X7745189Y-8145650D02*
X7726141Y-8117079D01*
X7726141Y-8117079D02*
X7716618Y-8098031D01*
X7716618Y-8098031D02*
X7707094Y-8069460D01*
X7707094Y-8069460D02*
X7697570Y-8021841D01*
X7697570Y-8021841D02*
X7697570Y-7983746D01*
X7697570Y-7983746D02*
X7707094Y-7936127D01*
X7707094Y-7936127D02*
X7716618Y-7907555D01*
X7716618Y-7907555D02*
X7726141Y-7888508D01*
X7726141Y-7888508D02*
X7745189Y-7859936D01*
X7745189Y-7859936D02*
X7754713Y-7850412D01*
X7821379Y-7898031D02*
X7830903Y-7888508D01*
X7830903Y-7888508D02*
X7849951Y-7878984D01*
X7849951Y-7878984D02*
X7897570Y-7878984D01*
X7897570Y-7878984D02*
X7916618Y-7888508D01*
X7916618Y-7888508D02*
X7926141Y-7898031D01*
X7926141Y-7898031D02*
X7935665Y-7917079D01*
X7935665Y-7917079D02*
X7935665Y-7936127D01*
X7935665Y-7936127D02*
X7926141Y-7964698D01*
X7926141Y-7964698D02*
X7811856Y-8078984D01*
X7811856Y-8078984D02*
X7935665Y-8078984D01*
X8173760Y-8078984D02*
X8173760Y-7878984D01*
X8259475Y-8078984D02*
X8259475Y-7974222D01*
X8259475Y-7974222D02*
X8249951Y-7955174D01*
X8249951Y-7955174D02*
X8230903Y-7945650D01*
X8230903Y-7945650D02*
X8202332Y-7945650D01*
X8202332Y-7945650D02*
X8183284Y-7955174D01*
X8183284Y-7955174D02*
X8173760Y-7964698D01*
X8383284Y-8078984D02*
X8364237Y-8069460D01*
X8364237Y-8069460D02*
X8354713Y-8059936D01*
X8354713Y-8059936D02*
X8345189Y-8040888D01*
X8345189Y-8040888D02*
X8345189Y-7983746D01*
X8345189Y-7983746D02*
X8354713Y-7964698D01*
X8354713Y-7964698D02*
X8364237Y-7955174D01*
X8364237Y-7955174D02*
X8383284Y-7945650D01*
X8383284Y-7945650D02*
X8411856Y-7945650D01*
X8411856Y-7945650D02*
X8430903Y-7955174D01*
X8430903Y-7955174D02*
X8440427Y-7964698D01*
X8440427Y-7964698D02*
X8449951Y-7983746D01*
X8449951Y-7983746D02*
X8449951Y-8040888D01*
X8449951Y-8040888D02*
X8440427Y-8059936D01*
X8440427Y-8059936D02*
X8430903Y-8069460D01*
X8430903Y-8069460D02*
X8411856Y-8078984D01*
X8411856Y-8078984D02*
X8383284Y-8078984D01*
X8564237Y-8078984D02*
X8545189Y-8069460D01*
X8545189Y-8069460D02*
X8535665Y-8050412D01*
X8535665Y-8050412D02*
X8535665Y-7878984D01*
X8716618Y-8069460D02*
X8697570Y-8078984D01*
X8697570Y-8078984D02*
X8659475Y-8078984D01*
X8659475Y-8078984D02*
X8640427Y-8069460D01*
X8640427Y-8069460D02*
X8630903Y-8050412D01*
X8630903Y-8050412D02*
X8630903Y-7974222D01*
X8630903Y-7974222D02*
X8640427Y-7955174D01*
X8640427Y-7955174D02*
X8659475Y-7945650D01*
X8659475Y-7945650D02*
X8697570Y-7945650D01*
X8697570Y-7945650D02*
X8716618Y-7955174D01*
X8716618Y-7955174D02*
X8726142Y-7974222D01*
X8726142Y-7974222D02*
X8726142Y-7993269D01*
X8726142Y-7993269D02*
X8630903Y-8012317D01*
X8802332Y-8069460D02*
X8821380Y-8078984D01*
X8821380Y-8078984D02*
X8859475Y-8078984D01*
X8859475Y-8078984D02*
X8878523Y-8069460D01*
X8878523Y-8069460D02*
X8888046Y-8050412D01*
X8888046Y-8050412D02*
X8888046Y-8040888D01*
X8888046Y-8040888D02*
X8878523Y-8021841D01*
X8878523Y-8021841D02*
X8859475Y-8012317D01*
X8859475Y-8012317D02*
X8830903Y-8012317D01*
X8830903Y-8012317D02*
X8811856Y-8002793D01*
X8811856Y-8002793D02*
X8802332Y-7983746D01*
X8802332Y-7983746D02*
X8802332Y-7974222D01*
X8802332Y-7974222D02*
X8811856Y-7955174D01*
X8811856Y-7955174D02*
X8830903Y-7945650D01*
X8830903Y-7945650D02*
X8859475Y-7945650D01*
X8859475Y-7945650D02*
X8878523Y-7955174D01*
X8954713Y-8155174D02*
X8964237Y-8145650D01*
X8964237Y-8145650D02*
X8983284Y-8117079D01*
X8983284Y-8117079D02*
X8992808Y-8098031D01*
X8992808Y-8098031D02*
X9002332Y-8069460D01*
X9002332Y-8069460D02*
X9011856Y-8021841D01*
X9011856Y-8021841D02*
X9011856Y-7983746D01*
X9011856Y-7983746D02*
X9002332Y-7936127D01*
X9002332Y-7936127D02*
X8992808Y-7907555D01*
X8992808Y-7907555D02*
X8983284Y-7888508D01*
X8983284Y-7888508D02*
X8964237Y-7859936D01*
X8964237Y-7859936D02*
X8954713Y-7850412D01*
M02*
