%TF.GenerationSoftware,KiCad,Pcbnew,8.0.5*%
%TF.CreationDate,2024-09-28T12:56:33-04:00*%
%TF.ProjectId,luytenPCB,6c757974-656e-4504-9342-2e6b69636164,rev?*%
%TF.SameCoordinates,Original*%
%TF.FileFunction,Soldermask,Top*%
%TF.FilePolarity,Negative*%
%FSLAX46Y46*%
G04 Gerber Fmt 4.6, Leading zero omitted, Abs format (unit mm)*
G04 Created by KiCad (PCBNEW 8.0.5) date 2024-09-28 12:56:33*
%MOMM*%
%LPD*%
G01*
G04 APERTURE LIST*
G04 Aperture macros list*
%AMRoundRect*
0 Rectangle with rounded corners*
0 $1 Rounding radius*
0 $2 $3 $4 $5 $6 $7 $8 $9 X,Y pos of 4 corners*
0 Add a 4 corners polygon primitive as box body*
4,1,4,$2,$3,$4,$5,$6,$7,$8,$9,$2,$3,0*
0 Add four circle primitives for the rounded corners*
1,1,$1+$1,$2,$3*
1,1,$1+$1,$4,$5*
1,1,$1+$1,$6,$7*
1,1,$1+$1,$8,$9*
0 Add four rect primitives between the rounded corners*
20,1,$1+$1,$2,$3,$4,$5,0*
20,1,$1+$1,$4,$5,$6,$7,0*
20,1,$1+$1,$6,$7,$8,$9,0*
20,1,$1+$1,$8,$9,$2,$3,0*%
G04 Aperture macros list end*
%ADD10R,1.350000X1.350000*%
%ADD11O,1.350000X1.350000*%
%ADD12R,1.700000X1.700000*%
%ADD13O,1.700000X1.700000*%
%ADD14RoundRect,0.085000X0.085000X-0.265000X0.085000X0.265000X-0.085000X0.265000X-0.085000X-0.265000X0*%
%ADD15RoundRect,0.250000X-0.475000X0.337500X-0.475000X-0.337500X0.475000X-0.337500X0.475000X0.337500X0*%
%ADD16RoundRect,0.250000X-0.337500X-0.475000X0.337500X-0.475000X0.337500X0.475000X-0.337500X0.475000X0*%
%ADD17RoundRect,0.237500X-0.237500X0.300000X-0.237500X-0.300000X0.237500X-0.300000X0.237500X0.300000X0*%
%ADD18C,2.200000*%
%ADD19R,1.600000X1.600000*%
%ADD20O,1.600000X1.600000*%
%ADD21RoundRect,0.250000X0.450000X-0.325000X0.450000X0.325000X-0.450000X0.325000X-0.450000X-0.325000X0*%
%ADD22R,1.120000X2.440000*%
%ADD23RoundRect,0.250000X0.337500X0.475000X-0.337500X0.475000X-0.337500X-0.475000X0.337500X-0.475000X0*%
%ADD24RoundRect,0.250001X-0.624999X0.462499X-0.624999X-0.462499X0.624999X-0.462499X0.624999X0.462499X0*%
%ADD25R,3.800000X3.800000*%
%ADD26C,3.800000*%
%ADD27RoundRect,0.102000X0.654000X0.654000X-0.654000X0.654000X-0.654000X-0.654000X0.654000X-0.654000X0*%
%ADD28C,1.512000*%
G04 APERTURE END LIST*
D10*
%TO.C,R3*%
X83000000Y-31000000D03*
D11*
X81000000Y-31000000D03*
%TD*%
D12*
%TO.C,J13*%
X60225000Y-30500000D03*
D13*
X62765000Y-30500000D03*
%TD*%
D12*
%TO.C,J12*%
X102775000Y-30500000D03*
D13*
X100235000Y-30500000D03*
%TD*%
D14*
%TO.C,IC4*%
X68000000Y-31500000D03*
X68500000Y-31500000D03*
X69000000Y-31500000D03*
X69000000Y-30000000D03*
X68500000Y-30000000D03*
X68000000Y-30000000D03*
%TD*%
%TO.C,IC3*%
X94000000Y-31500000D03*
X94500000Y-31500000D03*
X95000000Y-31500000D03*
X95000000Y-30000000D03*
X94500000Y-30000000D03*
X94000000Y-30000000D03*
%TD*%
D15*
%TO.C,C12*%
X72500000Y-32037500D03*
X72500000Y-29962500D03*
%TD*%
%TO.C,C11*%
X90500000Y-29962500D03*
X90500000Y-32037500D03*
%TD*%
D16*
%TO.C,C6*%
X78210500Y-47904400D03*
X80285500Y-47904400D03*
%TD*%
D17*
%TO.C,D2*%
X100330000Y-49757500D03*
X100330000Y-48032500D03*
%TD*%
D18*
%TO.C,H1*%
X44300000Y-33000000D03*
%TD*%
D19*
%TO.C,A1*%
X86918800Y-37439600D03*
D20*
X84378800Y-37439600D03*
X81838800Y-37439600D03*
X79298800Y-37439600D03*
X76758800Y-37439600D03*
X74218800Y-37439600D03*
X71678800Y-37439600D03*
X69138800Y-37439600D03*
X66598800Y-37439600D03*
X64058800Y-37439600D03*
X61518800Y-37439600D03*
X58978800Y-37439600D03*
X56438800Y-37439600D03*
X53898800Y-37439600D03*
X51358800Y-37439600D03*
X51358800Y-52679600D03*
X53898800Y-52679600D03*
X56438800Y-52679600D03*
X58978800Y-52679600D03*
X61518800Y-52679600D03*
X64058800Y-52679600D03*
X66598800Y-52679600D03*
X69138800Y-52679600D03*
X71678800Y-52679600D03*
X74218800Y-52679600D03*
X76758800Y-52679600D03*
X79298800Y-52679600D03*
X81838800Y-52679600D03*
X84378800Y-52679600D03*
X86918800Y-52679600D03*
%TD*%
D21*
%TO.C,R1*%
X103505000Y-54837500D03*
X103505000Y-52787500D03*
%TD*%
D18*
%TO.C,H2*%
X120300000Y-33000000D03*
%TD*%
D22*
%TO.C,SW2*%
X101600000Y-44170000D03*
X104140000Y-44170000D03*
X106680000Y-44170000D03*
X106680000Y-35560000D03*
X104140000Y-35560000D03*
X101600000Y-35560000D03*
%TD*%
D18*
%TO.C,H3*%
X44300000Y-57000000D03*
%TD*%
D12*
%TO.C,J7*%
X85852000Y-60452000D03*
D13*
X88392000Y-60452000D03*
X90932000Y-60452000D03*
%TD*%
D12*
%TO.C,J10*%
X116225548Y-48260000D03*
D13*
X116225548Y-50800000D03*
X116225548Y-53340000D03*
%TD*%
D12*
%TO.C,J8*%
X50800000Y-60452000D03*
D13*
X53340000Y-60452000D03*
X55880000Y-60452000D03*
%TD*%
D23*
%TO.C,C3*%
X86387065Y-41654223D03*
X84312065Y-41654223D03*
%TD*%
D17*
%TO.C,D1*%
X103505000Y-48032500D03*
X103505000Y-49757500D03*
%TD*%
D24*
%TO.C,F1*%
X89281000Y-44740500D03*
X89281000Y-47715500D03*
%TD*%
D12*
%TO.C,J6*%
X97551000Y-60452000D03*
D13*
X100091000Y-60452000D03*
X102631000Y-60452000D03*
%TD*%
D21*
%TO.C,R2*%
X100330000Y-54837500D03*
X100330000Y-52787500D03*
%TD*%
D16*
%TO.C,C4*%
X78210500Y-42011600D03*
X80285500Y-42011600D03*
%TD*%
%TO.C,C5*%
X78210500Y-44856400D03*
X80285500Y-44856400D03*
%TD*%
D23*
%TO.C,C1*%
X86387065Y-47674223D03*
X84312065Y-47674223D03*
%TD*%
D18*
%TO.C,H4*%
X120300000Y-57000000D03*
%TD*%
D12*
%TO.C,J4*%
X50053000Y-30480000D03*
D13*
X52593000Y-30480000D03*
X55133000Y-30480000D03*
%TD*%
D12*
%TO.C,J5*%
X113269000Y-30480000D03*
D13*
X110729000Y-30480000D03*
X108189000Y-30480000D03*
%TD*%
D25*
%TO.C,J1*%
X114879891Y-36399162D03*
D26*
X114879891Y-41399162D03*
%TD*%
D12*
%TO.C,J9*%
X62484000Y-60452000D03*
D13*
X65024000Y-60452000D03*
X67564000Y-60452000D03*
%TD*%
D23*
%TO.C,C2*%
X86387065Y-44664223D03*
X84312065Y-44664223D03*
%TD*%
D27*
%TO.C,SW1*%
X95802700Y-54051200D03*
D28*
X95802700Y-48971200D03*
%TD*%
D12*
%TO.C,J11*%
X74422000Y-60452000D03*
D13*
X76962000Y-60452000D03*
X79502000Y-60452000D03*
%TD*%
M02*
