%TF.GenerationSoftware,KiCad,Pcbnew,7.0.6*%
%TF.CreationDate,2024-02-02T01:32:10-05:00*%
%TF.ProjectId,luytenPCB,6c757974-656e-4504-9342-2e6b69636164,rev?*%
%TF.SameCoordinates,Original*%
%TF.FileFunction,Legend,Top*%
%TF.FilePolarity,Positive*%
%FSLAX46Y46*%
G04 Gerber Fmt 4.6, Leading zero omitted, Abs format (unit mm)*
G04 Created by KiCad (PCBNEW 7.0.6) date 2024-02-02 01:32:10*
%MOMM*%
%LPD*%
G01*
G04 APERTURE LIST*
%ADD10C,0.150000*%
%ADD11C,0.120000*%
G04 APERTURE END LIST*
D10*
G36*
X79781407Y-30183000D02*
G01*
X79781407Y-29166949D01*
X79916718Y-29166949D01*
X79916718Y-30073579D01*
X80391526Y-30073579D01*
X80391526Y-30183000D01*
X79781407Y-30183000D01*
G37*
G36*
X80577150Y-29166949D02*
G01*
X80712461Y-29166949D01*
X80712461Y-29828603D01*
X80712556Y-29843134D01*
X80712842Y-29857111D01*
X80713319Y-29870535D01*
X80713987Y-29883405D01*
X80714846Y-29895722D01*
X80715895Y-29907486D01*
X80717136Y-29918696D01*
X80718567Y-29929353D01*
X80720189Y-29939457D01*
X80722979Y-29953575D01*
X80726199Y-29966448D01*
X80729849Y-29978075D01*
X80733927Y-29988458D01*
X80736885Y-29994688D01*
X80741608Y-30003364D01*
X80748354Y-30014285D01*
X80755610Y-30024465D01*
X80763378Y-30033904D01*
X80771658Y-30042604D01*
X80780449Y-30050562D01*
X80789751Y-30057781D01*
X80799565Y-30064259D01*
X80802098Y-30065763D01*
X80812604Y-30071258D01*
X80823607Y-30076021D01*
X80835105Y-30080051D01*
X80847100Y-30083348D01*
X80859590Y-30085913D01*
X80869284Y-30087356D01*
X80879257Y-30088386D01*
X80889508Y-30089004D01*
X80900039Y-30089210D01*
X80910346Y-30089018D01*
X80920445Y-30088439D01*
X80930336Y-30087476D01*
X80940019Y-30086127D01*
X80954153Y-30083380D01*
X80967820Y-30079767D01*
X80981018Y-30075286D01*
X80993748Y-30069938D01*
X81006011Y-30063723D01*
X81017805Y-30056640D01*
X81029132Y-30048690D01*
X81039990Y-30039873D01*
X81050117Y-30029561D01*
X81056315Y-30021559D01*
X81062070Y-30012653D01*
X81067382Y-30002845D01*
X81072251Y-29992135D01*
X81076678Y-29980522D01*
X81080663Y-29968006D01*
X81084204Y-29954588D01*
X81087303Y-29940268D01*
X81089959Y-29925044D01*
X81092173Y-29908919D01*
X81093943Y-29891890D01*
X81095271Y-29873960D01*
X81096157Y-29855126D01*
X81096599Y-29835390D01*
X81096655Y-29825184D01*
X81096655Y-29166949D01*
X81214624Y-29166949D01*
X81214624Y-29811750D01*
X81214578Y-29825127D01*
X81214441Y-29838087D01*
X81214212Y-29850628D01*
X81213891Y-29862751D01*
X81213479Y-29874457D01*
X81212975Y-29885745D01*
X81212380Y-29896614D01*
X81211693Y-29907066D01*
X81210915Y-29917100D01*
X81209575Y-29931368D01*
X81208030Y-29944695D01*
X81206278Y-29957082D01*
X81204320Y-29968529D01*
X81202900Y-29975637D01*
X81200262Y-29986752D01*
X81197172Y-29997688D01*
X81193630Y-30008444D01*
X81189635Y-30019021D01*
X81185188Y-30029418D01*
X81180289Y-30039637D01*
X81174937Y-30049675D01*
X81169134Y-30059535D01*
X81162878Y-30069215D01*
X81156170Y-30078715D01*
X81149010Y-30088037D01*
X81141397Y-30097179D01*
X81133332Y-30106141D01*
X81124815Y-30114924D01*
X81115846Y-30123528D01*
X81106424Y-30131953D01*
X81096579Y-30140027D01*
X81086339Y-30147580D01*
X81075704Y-30154613D01*
X81064674Y-30161125D01*
X81053249Y-30167115D01*
X81041429Y-30172585D01*
X81029214Y-30177534D01*
X81016604Y-30181961D01*
X81003599Y-30185868D01*
X80990199Y-30189254D01*
X80976404Y-30192119D01*
X80962214Y-30194464D01*
X80947629Y-30196287D01*
X80932650Y-30197589D01*
X80917275Y-30198371D01*
X80901505Y-30198631D01*
X80882682Y-30198293D01*
X80864376Y-30197280D01*
X80846587Y-30195591D01*
X80829316Y-30193227D01*
X80812561Y-30190187D01*
X80796324Y-30186472D01*
X80780604Y-30182082D01*
X80765400Y-30177016D01*
X80750714Y-30171274D01*
X80736545Y-30164857D01*
X80722894Y-30157764D01*
X80709759Y-30149996D01*
X80697141Y-30141553D01*
X80685041Y-30132434D01*
X80673457Y-30122639D01*
X80662391Y-30112169D01*
X80654358Y-30103743D01*
X80646746Y-30095042D01*
X80639555Y-30086066D01*
X80632784Y-30076815D01*
X80626434Y-30067289D01*
X80620505Y-30057489D01*
X80614997Y-30047414D01*
X80609909Y-30037064D01*
X80605242Y-30026440D01*
X80600996Y-30015540D01*
X80598399Y-30008122D01*
X80595301Y-29998321D01*
X80592476Y-29988582D01*
X80589927Y-29978904D01*
X80587653Y-29969287D01*
X80585196Y-29957352D01*
X80583169Y-29945511D01*
X80581570Y-29933767D01*
X80581302Y-29931429D01*
X80580106Y-29919167D01*
X80579295Y-29908516D01*
X80578614Y-29897117D01*
X80578063Y-29884969D01*
X80577641Y-29872074D01*
X80577410Y-29861912D01*
X80577252Y-29851329D01*
X80577166Y-29840325D01*
X80577150Y-29832755D01*
X80577150Y-29166949D01*
G37*
G36*
X81671847Y-30183000D02*
G01*
X81671847Y-29754598D01*
X81337234Y-29166949D01*
X81493061Y-29166949D01*
X81754889Y-29625393D01*
X82029662Y-29166949D01*
X82158134Y-29166949D01*
X81807157Y-29754598D01*
X81807157Y-30183000D01*
X81671847Y-30183000D01*
G37*
G36*
X82514240Y-30183000D02*
G01*
X82514240Y-29276370D01*
X82175475Y-29276370D01*
X82175475Y-29166949D01*
X82988804Y-29166949D01*
X82988804Y-29276370D01*
X82650284Y-29276370D01*
X82650284Y-30183000D01*
X82514240Y-30183000D01*
G37*
G36*
X83150004Y-30183000D02*
G01*
X83150004Y-29166949D01*
X83745468Y-29166949D01*
X83745468Y-29276370D01*
X83285315Y-29276370D01*
X83285315Y-29589001D01*
X83675371Y-29589001D01*
X83675371Y-29698422D01*
X83285315Y-29698422D01*
X83285315Y-30073579D01*
X83776976Y-30073579D01*
X83776976Y-30183000D01*
X83150004Y-30183000D01*
G37*
G36*
X83946236Y-30183000D02*
G01*
X83946236Y-29166949D01*
X84073975Y-29166949D01*
X84478685Y-29908471D01*
X84480151Y-29910913D01*
X84480151Y-29166949D01*
X84590549Y-29166949D01*
X84590549Y-30183000D01*
X84465741Y-30183000D01*
X84058344Y-29436105D01*
X84056145Y-29431953D01*
X84056145Y-30183000D01*
X83946236Y-30183000D01*
G37*
X114994591Y-32970590D02*
X114994591Y-31827733D01*
X114994591Y-45970590D02*
X114994591Y-44827733D01*
X115566019Y-45399161D02*
X114423162Y-45399161D01*
D11*
%TO.C,F1*%
X90191000Y-45625936D02*
X90191000Y-46830064D01*
X88371000Y-45625936D02*
X88371000Y-46830064D01*
%TO.C,J1*%
X117589891Y-44109162D02*
X112169891Y-44109162D01*
X117589891Y-35389162D02*
X117589891Y-44109162D01*
X112169891Y-35389162D02*
X112169891Y-44109162D01*
X116289891Y-33689162D02*
X117589891Y-35389162D01*
X113469891Y-33689162D02*
X112169891Y-35389162D01*
X116289891Y-33689162D02*
X113469891Y-33689162D01*
%TO.C,R6*%
X57323748Y-53039850D02*
X54463748Y-53039850D01*
X54463748Y-54959850D02*
X57323748Y-54959850D01*
X57323748Y-54959850D02*
X57323748Y-53039850D01*
%TO.C,R5*%
X67718199Y-53015000D02*
X64858199Y-53015000D01*
X64858199Y-54935000D02*
X67718199Y-54935000D01*
X67718199Y-54935000D02*
X67718199Y-53015000D01*
%TO.C,R4*%
X77745101Y-53125625D02*
X74885101Y-53125625D01*
X74885101Y-55045625D02*
X77745101Y-55045625D01*
X77745101Y-55045625D02*
X77745101Y-53125625D01*
%TO.C,R3*%
X87563542Y-53088267D02*
X84703542Y-53088267D01*
X84703542Y-55008267D02*
X87563542Y-55008267D01*
X87563542Y-55008267D02*
X87563542Y-53088267D01*
%TO.C,D6*%
X50823107Y-53607500D02*
X51115641Y-53607500D01*
X50823107Y-54627500D02*
X51115641Y-54627500D01*
%TO.C,D5*%
X61087251Y-54712961D02*
X61379785Y-54712961D01*
X61087251Y-53692961D02*
X61379785Y-53692961D01*
%TO.C,D4*%
X70924441Y-54802229D02*
X71216975Y-54802229D01*
X70924441Y-53782229D02*
X71216975Y-53782229D01*
%TO.C,D3*%
X81071685Y-54787940D02*
X81364219Y-54787940D01*
X81071685Y-53767940D02*
X81364219Y-53767940D01*
%TO.C,R2*%
X101290000Y-55672500D02*
X101290000Y-52812500D01*
X99370000Y-52812500D02*
X99370000Y-55672500D01*
X99370000Y-55672500D02*
X101290000Y-55672500D01*
%TO.C,R1*%
X104465000Y-55672500D02*
X104465000Y-52812500D01*
X102545000Y-52812500D02*
X102545000Y-55672500D01*
X102545000Y-55672500D02*
X104465000Y-55672500D01*
%TO.C,IC2*%
X93624519Y-38840789D02*
X92324519Y-38840789D01*
X92074519Y-37040789D02*
X93624519Y-37040789D01*
%TO.C,IC1*%
X92037005Y-41852202D02*
X93587005Y-41852202D01*
X93587005Y-43652202D02*
X92287005Y-43652202D01*
%TO.C,D2*%
X100840000Y-48748733D02*
X100840000Y-49041267D01*
X99820000Y-48748733D02*
X99820000Y-49041267D01*
%TO.C,D1*%
X104015000Y-48748733D02*
X104015000Y-49041267D01*
X102995000Y-48748733D02*
X102995000Y-49041267D01*
%TO.C,C8*%
X95690359Y-42357180D02*
X95690359Y-42879684D01*
X97160359Y-42357180D02*
X97160359Y-42879684D01*
%TO.C,C7*%
X97235133Y-38480680D02*
X97235133Y-37958176D01*
X95765133Y-38480680D02*
X95765133Y-37958176D01*
%TO.C,SW2*%
X104345000Y-41895000D02*
X104345000Y-40541667D01*
X101085000Y-41895000D02*
X101085000Y-40541667D01*
X106645000Y-41895000D02*
X106645000Y-40541667D01*
X107245000Y-41895000D02*
X107245000Y-40541667D01*
X106765000Y-41895000D02*
X106765000Y-40541667D01*
X102400000Y-34915000D02*
X103340000Y-34915000D01*
X103625000Y-41895000D02*
X103625000Y-40541667D01*
X106285000Y-41895000D02*
X106285000Y-40541667D01*
X106165000Y-41895000D02*
X106165000Y-40541667D01*
X102400000Y-44815000D02*
X103340000Y-44815000D01*
X103505000Y-41895000D02*
X104775000Y-41895000D01*
X104585000Y-41895000D02*
X104585000Y-40541667D01*
X98940000Y-45055000D02*
X98940000Y-43671000D01*
X103505000Y-40541667D02*
X104775000Y-40541667D01*
X99180000Y-34915000D02*
X100800000Y-34915000D01*
X102165000Y-41895000D02*
X102165000Y-40541667D01*
X101805000Y-41895000D02*
X101805000Y-40541667D01*
X100965000Y-41895000D02*
X102235000Y-41895000D01*
X107315000Y-37835000D02*
X106045000Y-37835000D01*
X102235000Y-41895000D02*
X102235000Y-37835000D01*
X103985000Y-41895000D02*
X103985000Y-40541667D01*
X101565000Y-41895000D02*
X101565000Y-40541667D01*
X102235000Y-37835000D02*
X100965000Y-37835000D01*
X102045000Y-41895000D02*
X102045000Y-40541667D01*
X99180000Y-44815000D02*
X99180000Y-34915000D01*
X100965000Y-40541667D02*
X102235000Y-40541667D01*
X106405000Y-41895000D02*
X106405000Y-40541667D01*
X107480000Y-34915000D02*
X109100000Y-34915000D01*
X104705000Y-41895000D02*
X104705000Y-40541667D01*
X104225000Y-41895000D02*
X104225000Y-40541667D01*
X106045000Y-41895000D02*
X107315000Y-41895000D01*
X104105000Y-41895000D02*
X104105000Y-40541667D01*
X106885000Y-41895000D02*
X106885000Y-40541667D01*
X103745000Y-41895000D02*
X103745000Y-40541667D01*
X109100000Y-44815000D02*
X109100000Y-34915000D01*
X104465000Y-41895000D02*
X104465000Y-40541667D01*
X99180000Y-44815000D02*
X100800000Y-44815000D01*
X103865000Y-41895000D02*
X103865000Y-40541667D01*
X103505000Y-37835000D02*
X103505000Y-41895000D01*
X106525000Y-41895000D02*
X106525000Y-40541667D01*
X101925000Y-41895000D02*
X101925000Y-40541667D01*
X107480000Y-44815000D02*
X109100000Y-44815000D01*
X104940000Y-34915000D02*
X105880000Y-34915000D01*
X106045000Y-37835000D02*
X106045000Y-41895000D01*
X104940000Y-44815000D02*
X105880000Y-44815000D01*
X104775000Y-37835000D02*
X103505000Y-37835000D01*
X101205000Y-41895000D02*
X101205000Y-40541667D01*
X101445000Y-41895000D02*
X101445000Y-40541667D01*
X107125000Y-41895000D02*
X107125000Y-40541667D01*
X104775000Y-41895000D02*
X104775000Y-37835000D01*
X107315000Y-41895000D02*
X107315000Y-37835000D01*
X107005000Y-41895000D02*
X107005000Y-40541667D01*
X106045000Y-40541667D02*
X107315000Y-40541667D01*
X101325000Y-41895000D02*
X101325000Y-40541667D01*
X101685000Y-41895000D02*
X101685000Y-40541667D01*
X98940000Y-45055000D02*
X100323000Y-45055000D01*
X100965000Y-37835000D02*
X100965000Y-41895000D01*
%TO.C,SW1*%
X92195000Y-55750000D02*
X92195000Y-45850000D01*
X91955000Y-55990000D02*
X93338000Y-55990000D01*
X91955000Y-55990000D02*
X91955000Y-54606000D01*
X93980000Y-51476667D02*
X95250000Y-51476667D01*
X94460000Y-52830000D02*
X94460000Y-51476667D01*
X93980000Y-52830000D02*
X95250000Y-52830000D01*
X95250000Y-52830000D02*
X95250000Y-48770000D01*
X95180000Y-52830000D02*
X95180000Y-51476667D01*
X94580000Y-52830000D02*
X94580000Y-51476667D01*
X94340000Y-52830000D02*
X94340000Y-51476667D01*
X95250000Y-48770000D02*
X93980000Y-48770000D01*
X94940000Y-52830000D02*
X94940000Y-51476667D01*
X92195000Y-45850000D02*
X97035000Y-45850000D01*
X94220000Y-52830000D02*
X94220000Y-51476667D01*
X92195000Y-55750000D02*
X97035000Y-55750000D01*
X94700000Y-52830000D02*
X94700000Y-51476667D01*
X94100000Y-52830000D02*
X94100000Y-51476667D01*
X94820000Y-52830000D02*
X94820000Y-51476667D01*
X95060000Y-52830000D02*
X95060000Y-51476667D01*
X97035000Y-55750000D02*
X97035000Y-45850000D01*
X93980000Y-48770000D02*
X93980000Y-52830000D01*
%TO.C,J10*%
X114895548Y-54670000D02*
X117555548Y-54670000D01*
X117555548Y-46930000D02*
X117555548Y-48260000D01*
X114895548Y-49530000D02*
X117555548Y-49530000D01*
X114895548Y-49530000D02*
X114895548Y-54670000D01*
X117555548Y-49530000D02*
X117555548Y-54670000D01*
X116225548Y-46930000D02*
X117555548Y-46930000D01*
%TO.C,J9*%
X69330000Y-67300000D02*
X67830000Y-67300000D01*
X77830000Y-67300000D02*
X77580000Y-68800000D01*
X82190000Y-56580000D02*
X64970000Y-56580000D01*
X67580000Y-68800000D02*
X69580000Y-68800000D01*
X79330000Y-67300000D02*
X77830000Y-67300000D01*
X72580000Y-68800000D02*
X74580000Y-68800000D01*
X69580000Y-68800000D02*
X69330000Y-67300000D01*
X72830000Y-67300000D02*
X72580000Y-68800000D01*
X82190000Y-68800000D02*
X82190000Y-56580000D01*
X77580000Y-68800000D02*
X79580000Y-68800000D01*
X64970000Y-68800000D02*
X82190000Y-68800000D01*
X67830000Y-67300000D02*
X67580000Y-68800000D01*
X68280000Y-55780000D02*
X68880000Y-55780000D01*
X64970000Y-56580000D02*
X64970000Y-68800000D01*
X74330000Y-67300000D02*
X72830000Y-67300000D01*
X68880000Y-55780000D02*
X68580000Y-56380000D01*
X79580000Y-68800000D02*
X79330000Y-67300000D01*
X64970000Y-67300000D02*
X64970000Y-65500000D01*
X64970000Y-65500000D02*
X82190000Y-65500000D01*
X74580000Y-68800000D02*
X74330000Y-67300000D01*
X68580000Y-56380000D02*
X68280000Y-55780000D01*
X82190000Y-65500000D02*
X82190000Y-67300000D01*
X82190000Y-67300000D02*
X64970000Y-67300000D01*
%TO.C,J8*%
X51550000Y-67300000D02*
X50050000Y-67300000D01*
X60050000Y-67300000D02*
X59800000Y-68800000D01*
X64410000Y-56580000D02*
X47190000Y-56580000D01*
X49800000Y-68800000D02*
X51800000Y-68800000D01*
X61550000Y-67300000D02*
X60050000Y-67300000D01*
X54800000Y-68800000D02*
X56800000Y-68800000D01*
X51800000Y-68800000D02*
X51550000Y-67300000D01*
X55050000Y-67300000D02*
X54800000Y-68800000D01*
X64410000Y-68800000D02*
X64410000Y-56580000D01*
X59800000Y-68800000D02*
X61800000Y-68800000D01*
X47190000Y-68800000D02*
X64410000Y-68800000D01*
X50050000Y-67300000D02*
X49800000Y-68800000D01*
X50500000Y-55780000D02*
X51100000Y-55780000D01*
X47190000Y-56580000D02*
X47190000Y-68800000D01*
X56550000Y-67300000D02*
X55050000Y-67300000D01*
X51100000Y-55780000D02*
X50800000Y-56380000D01*
X61800000Y-68800000D02*
X61550000Y-67300000D01*
X47190000Y-67300000D02*
X47190000Y-65500000D01*
X47190000Y-65500000D02*
X64410000Y-65500000D01*
X56800000Y-68800000D02*
X56550000Y-67300000D01*
X50800000Y-56380000D02*
X50500000Y-55780000D01*
X64410000Y-65500000D02*
X64410000Y-67300000D01*
X64410000Y-67300000D02*
X47190000Y-67300000D01*
%TO.C,J7*%
X87110000Y-67300000D02*
X85610000Y-67300000D01*
X95610000Y-67300000D02*
X95360000Y-68800000D01*
X99970000Y-56580000D02*
X82750000Y-56580000D01*
X85360000Y-68800000D02*
X87360000Y-68800000D01*
X97110000Y-67300000D02*
X95610000Y-67300000D01*
X90360000Y-68800000D02*
X92360000Y-68800000D01*
X87360000Y-68800000D02*
X87110000Y-67300000D01*
X90610000Y-67300000D02*
X90360000Y-68800000D01*
X99970000Y-68800000D02*
X99970000Y-56580000D01*
X95360000Y-68800000D02*
X97360000Y-68800000D01*
X82750000Y-68800000D02*
X99970000Y-68800000D01*
X85610000Y-67300000D02*
X85360000Y-68800000D01*
X86060000Y-55780000D02*
X86660000Y-55780000D01*
X82750000Y-56580000D02*
X82750000Y-68800000D01*
X92110000Y-67300000D02*
X90610000Y-67300000D01*
X86660000Y-55780000D02*
X86360000Y-56380000D01*
X97360000Y-68800000D02*
X97110000Y-67300000D01*
X82750000Y-67300000D02*
X82750000Y-65500000D01*
X82750000Y-65500000D02*
X99970000Y-65500000D01*
X92360000Y-68800000D02*
X92110000Y-67300000D01*
X86360000Y-56380000D02*
X86060000Y-55780000D01*
X99970000Y-65500000D02*
X99970000Y-67300000D01*
X99970000Y-67300000D02*
X82750000Y-67300000D01*
%TO.C,J6*%
X104890000Y-67300000D02*
X103390000Y-67300000D01*
X113390000Y-67300000D02*
X113140000Y-68800000D01*
X117750000Y-56580000D02*
X100530000Y-56580000D01*
X103140000Y-68800000D02*
X105140000Y-68800000D01*
X114890000Y-67300000D02*
X113390000Y-67300000D01*
X108140000Y-68800000D02*
X110140000Y-68800000D01*
X105140000Y-68800000D02*
X104890000Y-67300000D01*
X108390000Y-67300000D02*
X108140000Y-68800000D01*
X117750000Y-68800000D02*
X117750000Y-56580000D01*
X113140000Y-68800000D02*
X115140000Y-68800000D01*
X100530000Y-68800000D02*
X117750000Y-68800000D01*
X103390000Y-67300000D02*
X103140000Y-68800000D01*
X103840000Y-55780000D02*
X104440000Y-55780000D01*
X100530000Y-56580000D02*
X100530000Y-68800000D01*
X109890000Y-67300000D02*
X108390000Y-67300000D01*
X104440000Y-55780000D02*
X104140000Y-56380000D01*
X115140000Y-68800000D02*
X114890000Y-67300000D01*
X100530000Y-67300000D02*
X100530000Y-65500000D01*
X100530000Y-65500000D02*
X117750000Y-65500000D01*
X110140000Y-68800000D02*
X109890000Y-67300000D01*
X104140000Y-56380000D02*
X103840000Y-55780000D01*
X117750000Y-65500000D02*
X117750000Y-67300000D01*
X117750000Y-67300000D02*
X100530000Y-67300000D01*
%TO.C,J5*%
X100472588Y-21837500D02*
X101972588Y-21837500D01*
X91972588Y-21837500D02*
X92222588Y-20337500D01*
X87612588Y-32557500D02*
X104832588Y-32557500D01*
X102222588Y-20337500D02*
X100222588Y-20337500D01*
X90472588Y-21837500D02*
X91972588Y-21837500D01*
X97222588Y-20337500D02*
X95222588Y-20337500D01*
X100222588Y-20337500D02*
X100472588Y-21837500D01*
X96972588Y-21837500D02*
X97222588Y-20337500D01*
X87612588Y-20337500D02*
X87612588Y-32557500D01*
X92222588Y-20337500D02*
X90222588Y-20337500D01*
X104832588Y-20337500D02*
X87612588Y-20337500D01*
X101972588Y-21837500D02*
X102222588Y-20337500D01*
X101522588Y-33357500D02*
X100922588Y-33357500D01*
X104832588Y-32557500D02*
X104832588Y-20337500D01*
X95472588Y-21837500D02*
X96972588Y-21837500D01*
X100922588Y-33357500D02*
X101222588Y-32757500D01*
X90222588Y-20337500D02*
X90472588Y-21837500D01*
X104832588Y-21837500D02*
X104832588Y-23637500D01*
X104832588Y-23637500D02*
X87612588Y-23637500D01*
X95222588Y-20337500D02*
X95472588Y-21837500D01*
X101222588Y-32757500D02*
X101522588Y-33357500D01*
X87612588Y-23637500D02*
X87612588Y-21837500D01*
X87612588Y-21837500D02*
X104832588Y-21837500D01*
%TO.C,J4*%
X72750000Y-21870000D02*
X74250000Y-21870000D01*
X64250000Y-21870000D02*
X64500000Y-20370000D01*
X59890000Y-32590000D02*
X77110000Y-32590000D01*
X74500000Y-20370000D02*
X72500000Y-20370000D01*
X62750000Y-21870000D02*
X64250000Y-21870000D01*
X69500000Y-20370000D02*
X67500000Y-20370000D01*
X72500000Y-20370000D02*
X72750000Y-21870000D01*
X69250000Y-21870000D02*
X69500000Y-20370000D01*
X59890000Y-20370000D02*
X59890000Y-32590000D01*
X64500000Y-20370000D02*
X62500000Y-20370000D01*
X77110000Y-20370000D02*
X59890000Y-20370000D01*
X74250000Y-21870000D02*
X74500000Y-20370000D01*
X73800000Y-33390000D02*
X73200000Y-33390000D01*
X77110000Y-32590000D02*
X77110000Y-20370000D01*
X67750000Y-21870000D02*
X69250000Y-21870000D01*
X73200000Y-33390000D02*
X73500000Y-32790000D01*
X62500000Y-20370000D02*
X62750000Y-21870000D01*
X77110000Y-21870000D02*
X77110000Y-23670000D01*
X77110000Y-23670000D02*
X59890000Y-23670000D01*
X67500000Y-20370000D02*
X67750000Y-21870000D01*
X73500000Y-32790000D02*
X73800000Y-33390000D01*
X59890000Y-23670000D02*
X59890000Y-21870000D01*
X59890000Y-21870000D02*
X77110000Y-21870000D01*
%TO.C,J3*%
X50010000Y-21870000D02*
X51510000Y-21870000D01*
X47150000Y-21870000D02*
X59370000Y-21870000D01*
X59370000Y-20370000D02*
X47150000Y-20370000D01*
X47150000Y-20370000D02*
X47150000Y-32590000D01*
X59370000Y-23670000D02*
X47150000Y-23670000D01*
X54760000Y-20370000D02*
X55010000Y-21870000D01*
X59370000Y-21870000D02*
X59370000Y-23670000D01*
X55760000Y-32790000D02*
X56060000Y-33390000D01*
X49760000Y-20370000D02*
X50010000Y-21870000D01*
X59370000Y-32590000D02*
X59370000Y-20370000D01*
X55460000Y-33390000D02*
X55760000Y-32790000D01*
X47150000Y-32590000D02*
X59370000Y-32590000D01*
X56060000Y-33390000D02*
X55460000Y-33390000D01*
X51760000Y-20370000D02*
X49760000Y-20370000D01*
X56510000Y-21870000D02*
X56760000Y-20370000D01*
X47150000Y-23670000D02*
X47150000Y-21870000D01*
X51510000Y-21870000D02*
X51760000Y-20370000D01*
X55010000Y-21870000D02*
X56510000Y-21870000D01*
X56760000Y-20370000D02*
X54760000Y-20370000D01*
%TO.C,J2*%
X108212588Y-21837500D02*
X109712588Y-21837500D01*
X105352588Y-21837500D02*
X117572588Y-21837500D01*
X117572588Y-20337500D02*
X105352588Y-20337500D01*
X105352588Y-20337500D02*
X105352588Y-32557500D01*
X117572588Y-23637500D02*
X105352588Y-23637500D01*
X112962588Y-20337500D02*
X113212588Y-21837500D01*
X117572588Y-21837500D02*
X117572588Y-23637500D01*
X113962588Y-32757500D02*
X114262588Y-33357500D01*
X107962588Y-20337500D02*
X108212588Y-21837500D01*
X117572588Y-32557500D02*
X117572588Y-20337500D01*
X113662588Y-33357500D02*
X113962588Y-32757500D01*
X105352588Y-32557500D02*
X117572588Y-32557500D01*
X114262588Y-33357500D02*
X113662588Y-33357500D01*
X109962588Y-20337500D02*
X107962588Y-20337500D01*
X114712588Y-21837500D02*
X114962588Y-20337500D01*
X105352588Y-23637500D02*
X105352588Y-21837500D01*
X109712588Y-21837500D02*
X109962588Y-20337500D01*
X113212588Y-21837500D02*
X114712588Y-21837500D01*
X114962588Y-20337500D02*
X112962588Y-20337500D01*
%TO.C,C6*%
X54820868Y-48273697D02*
X55343372Y-48273697D01*
X54820868Y-46803697D02*
X55343372Y-46803697D01*
%TO.C,C5*%
X54820868Y-45263697D02*
X55343372Y-45263697D01*
X54820868Y-43793697D02*
X55343372Y-43793697D01*
%TO.C,C4*%
X54820868Y-42253697D02*
X55343372Y-42253697D01*
X54820868Y-40783697D02*
X55343372Y-40783697D01*
%TO.C,C3*%
X85610817Y-42389223D02*
X85088313Y-42389223D01*
X85610817Y-40919223D02*
X85088313Y-40919223D01*
%TO.C,C2*%
X85610817Y-45399223D02*
X85088313Y-45399223D01*
X85610817Y-43929223D02*
X85088313Y-43929223D01*
%TO.C,C1*%
X85610817Y-48409223D02*
X85088313Y-48409223D01*
X85610817Y-46939223D02*
X85088313Y-46939223D01*
D10*
%TO.C,A1*%
X47402000Y-34290000D02*
X47402000Y-52070000D01*
X90582000Y-52070000D02*
X47402000Y-52070000D01*
X90582000Y-34290000D02*
X90582000Y-52070000D01*
X90582000Y-34290000D02*
X47402000Y-34290000D01*
%TD*%
M02*
