%TF.GenerationSoftware,KiCad,Pcbnew,8.0.4*%
%TF.CreationDate,2024-08-28T14:32:30-04:00*%
%TF.ProjectId,luytenPCB,6c757974-656e-4504-9342-2e6b69636164,rev?*%
%TF.SameCoordinates,Original*%
%TF.FileFunction,Legend,Top*%
%TF.FilePolarity,Positive*%
%FSLAX46Y46*%
G04 Gerber Fmt 4.6, Leading zero omitted, Abs format (unit mm)*
G04 Created by KiCad (PCBNEW 8.0.4) date 2024-08-28 14:32:30*
%MOMM*%
%LPD*%
G01*
G04 APERTURE LIST*
%ADD10C,0.150000*%
%ADD11C,0.127000*%
%ADD12C,0.200000*%
%ADD13C,0.120000*%
G04 APERTURE END LIST*
D10*
G36*
X106222815Y-61382000D02*
G01*
X106222815Y-59349899D01*
X106493436Y-59349899D01*
X106493436Y-61163158D01*
X107443052Y-61163158D01*
X107443052Y-61382000D01*
X106222815Y-61382000D01*
G37*
G36*
X107814301Y-59349899D02*
G01*
X108084922Y-59349899D01*
X108084922Y-60673207D01*
X108087975Y-60782811D01*
X108098708Y-60884949D01*
X108125041Y-60986272D01*
X108133771Y-61005377D01*
X108190801Y-61088297D01*
X108264196Y-61147526D01*
X108360352Y-61184117D01*
X108460079Y-61194421D01*
X108558988Y-61184785D01*
X108655776Y-61151926D01*
X108739981Y-61095747D01*
X108799745Y-61011206D01*
X108831618Y-60911082D01*
X108847887Y-60799781D01*
X108853199Y-60686781D01*
X108853310Y-60666368D01*
X108853310Y-59349899D01*
X109089249Y-59349899D01*
X109089249Y-60639501D01*
X109087783Y-60741503D01*
X109082631Y-60840271D01*
X109071297Y-60938004D01*
X109065801Y-60967275D01*
X109034937Y-61064485D01*
X108985756Y-61154430D01*
X108918261Y-61237111D01*
X108872849Y-61279906D01*
X108789349Y-61338250D01*
X108693209Y-61379923D01*
X108584429Y-61404928D01*
X108478879Y-61413132D01*
X108463010Y-61413263D01*
X108353175Y-61407183D01*
X108252648Y-61388945D01*
X108147131Y-61352300D01*
X108054283Y-61299106D01*
X107984782Y-61240339D01*
X107921242Y-61163341D01*
X107873503Y-61076024D01*
X107856799Y-61032244D01*
X107831306Y-60935463D01*
X107822605Y-60878859D01*
X107815890Y-60779632D01*
X107814301Y-60681511D01*
X107814301Y-59349899D01*
G37*
G36*
X110003694Y-61382000D02*
G01*
X110003694Y-60525196D01*
X109334468Y-59349899D01*
X109646122Y-59349899D01*
X110169779Y-60266787D01*
X110719325Y-59349899D01*
X110976269Y-59349899D01*
X110274315Y-60525196D01*
X110274315Y-61382000D01*
X110003694Y-61382000D01*
G37*
G36*
X111688481Y-61382000D02*
G01*
X111688481Y-59568741D01*
X111010951Y-59568741D01*
X111010951Y-59349899D01*
X112637609Y-59349899D01*
X112637609Y-59568741D01*
X111960568Y-59568741D01*
X111960568Y-61382000D01*
X111688481Y-61382000D01*
G37*
G36*
X112960009Y-61382000D02*
G01*
X112960009Y-59349899D01*
X114150937Y-59349899D01*
X114150937Y-59568741D01*
X113230630Y-59568741D01*
X113230630Y-60194002D01*
X114010742Y-60194002D01*
X114010742Y-60412844D01*
X113230630Y-60412844D01*
X113230630Y-61163158D01*
X114213952Y-61163158D01*
X114213952Y-61382000D01*
X112960009Y-61382000D01*
G37*
G36*
X114552473Y-61382000D02*
G01*
X114552473Y-59349899D01*
X114807951Y-59349899D01*
X115617371Y-60832942D01*
X115620302Y-60837826D01*
X115620302Y-59349899D01*
X115841098Y-59349899D01*
X115841098Y-61382000D01*
X115591482Y-61382000D01*
X114776688Y-59888210D01*
X114772291Y-59879906D01*
X114772291Y-61382000D01*
X114552473Y-61382000D01*
G37*
X51903980Y-43797695D02*
X51094457Y-43797695D01*
X51094457Y-43797695D02*
X50999219Y-43845314D01*
X50999219Y-43845314D02*
X50951600Y-43892933D01*
X50951600Y-43892933D02*
X50903980Y-43988171D01*
X50903980Y-43988171D02*
X50903980Y-44178647D01*
X50903980Y-44178647D02*
X50951600Y-44273885D01*
X50951600Y-44273885D02*
X50999219Y-44321504D01*
X50999219Y-44321504D02*
X51094457Y-44369123D01*
X51094457Y-44369123D02*
X51903980Y-44369123D01*
X50951600Y-44797695D02*
X50903980Y-44940552D01*
X50903980Y-44940552D02*
X50903980Y-45178647D01*
X50903980Y-45178647D02*
X50951600Y-45273885D01*
X50951600Y-45273885D02*
X50999219Y-45321504D01*
X50999219Y-45321504D02*
X51094457Y-45369123D01*
X51094457Y-45369123D02*
X51189695Y-45369123D01*
X51189695Y-45369123D02*
X51284933Y-45321504D01*
X51284933Y-45321504D02*
X51332552Y-45273885D01*
X51332552Y-45273885D02*
X51380171Y-45178647D01*
X51380171Y-45178647D02*
X51427790Y-44988171D01*
X51427790Y-44988171D02*
X51475409Y-44892933D01*
X51475409Y-44892933D02*
X51523028Y-44845314D01*
X51523028Y-44845314D02*
X51618266Y-44797695D01*
X51618266Y-44797695D02*
X51713504Y-44797695D01*
X51713504Y-44797695D02*
X51808742Y-44845314D01*
X51808742Y-44845314D02*
X51856361Y-44892933D01*
X51856361Y-44892933D02*
X51903980Y-44988171D01*
X51903980Y-44988171D02*
X51903980Y-45226266D01*
X51903980Y-45226266D02*
X51856361Y-45369123D01*
X51427790Y-46131028D02*
X51380171Y-46273885D01*
X51380171Y-46273885D02*
X51332552Y-46321504D01*
X51332552Y-46321504D02*
X51237314Y-46369123D01*
X51237314Y-46369123D02*
X51094457Y-46369123D01*
X51094457Y-46369123D02*
X50999219Y-46321504D01*
X50999219Y-46321504D02*
X50951600Y-46273885D01*
X50951600Y-46273885D02*
X50903980Y-46178647D01*
X50903980Y-46178647D02*
X50903980Y-45797695D01*
X50903980Y-45797695D02*
X51903980Y-45797695D01*
X51903980Y-45797695D02*
X51903980Y-46131028D01*
X51903980Y-46131028D02*
X51856361Y-46226266D01*
X51856361Y-46226266D02*
X51808742Y-46273885D01*
X51808742Y-46273885D02*
X51713504Y-46321504D01*
X51713504Y-46321504D02*
X51618266Y-46321504D01*
X51618266Y-46321504D02*
X51523028Y-46273885D01*
X51523028Y-46273885D02*
X51475409Y-46226266D01*
X51475409Y-46226266D02*
X51427790Y-46131028D01*
X51427790Y-46131028D02*
X51427790Y-45797695D01*
X114994591Y-45970590D02*
X114994591Y-44827733D01*
X115566019Y-45399161D02*
X114423162Y-45399161D01*
X114994591Y-32970590D02*
X114994591Y-31827733D01*
D11*
%TO.C,SW1*%
X97342700Y-56411200D02*
X92262700Y-56411200D01*
X97342700Y-46611200D02*
X97342700Y-56411200D01*
X92262700Y-56411200D02*
X92262700Y-51511200D01*
X92262700Y-51511200D02*
X92262700Y-50911200D01*
X92262700Y-51511200D02*
X91962700Y-51511200D01*
X92262700Y-50911200D02*
X92262700Y-46611200D01*
X92262700Y-46611200D02*
X97342700Y-46611200D01*
X91962700Y-51511200D02*
X91962700Y-50911200D01*
X91962700Y-50911200D02*
X92262700Y-50911200D01*
D12*
X98102700Y-54311200D02*
G75*
G02*
X97902700Y-54311200I-100000J0D01*
G01*
X97902700Y-54311200D02*
G75*
G02*
X98102700Y-54311200I100000J0D01*
G01*
D13*
%TO.C,A1*%
X90858800Y-36039600D02*
X88188800Y-36039600D01*
X85648800Y-36039600D02*
X47418800Y-36039600D01*
X47418800Y-36039600D02*
X47418800Y-41119600D01*
X88188800Y-38709600D02*
X88188800Y-36039600D01*
X85648800Y-38709600D02*
X85648800Y-36039600D01*
X85648800Y-38709600D02*
X88188800Y-38709600D01*
X85648800Y-38709600D02*
X50088800Y-38709600D01*
X50088800Y-38709600D02*
X50088800Y-36039600D01*
X55298800Y-41119600D02*
X55298800Y-48999600D01*
X44878800Y-41119600D02*
X55298800Y-41119600D01*
X55298800Y-48999600D02*
X44878800Y-48999600D01*
X44878800Y-48999600D02*
X44878800Y-41119600D01*
X88188800Y-51409600D02*
X50088800Y-51409600D01*
X88188800Y-51409600D02*
X88188800Y-54079600D01*
X50088800Y-51409600D02*
X50088800Y-54079600D01*
X90858800Y-54079600D02*
X90858800Y-36039600D01*
X47418800Y-54079600D02*
X47418800Y-48999600D01*
X47418800Y-54079600D02*
X90858800Y-54079600D01*
%TO.C,C6*%
X78986748Y-47169400D02*
X79509252Y-47169400D01*
X78986748Y-48639400D02*
X79509252Y-48639400D01*
%TO.C,D2*%
X100840000Y-48748733D02*
X100840000Y-49041267D01*
X99820000Y-48748733D02*
X99820000Y-49041267D01*
%TO.C,C8*%
X97160359Y-42357180D02*
X97160359Y-42879684D01*
X95690359Y-42357180D02*
X95690359Y-42879684D01*
%TO.C,R8*%
X87508800Y-33726000D02*
X87508800Y-31806000D01*
X87508800Y-31806000D02*
X84648800Y-31806000D01*
X84648800Y-33726000D02*
X87508800Y-33726000D01*
%TO.C,R1*%
X102545000Y-55672500D02*
X104465000Y-55672500D01*
X104465000Y-55672500D02*
X104465000Y-52812500D01*
X102545000Y-52812500D02*
X102545000Y-55672500D01*
%TO.C,SW2*%
X98940000Y-45055000D02*
X100323000Y-45055000D01*
X98940000Y-45055000D02*
X98940000Y-43671000D01*
X99180000Y-44815000D02*
X100800000Y-44815000D01*
X99180000Y-44815000D02*
X99180000Y-34915000D01*
X102400000Y-44815000D02*
X103340000Y-44815000D01*
X104940000Y-44815000D02*
X105880000Y-44815000D01*
X107480000Y-44815000D02*
X109100000Y-44815000D01*
X109100000Y-44815000D02*
X109100000Y-34915000D01*
X100965000Y-41895000D02*
X102235000Y-41895000D01*
X101085000Y-41895000D02*
X101085000Y-40541667D01*
X101205000Y-41895000D02*
X101205000Y-40541667D01*
X101325000Y-41895000D02*
X101325000Y-40541667D01*
X101445000Y-41895000D02*
X101445000Y-40541667D01*
X101565000Y-41895000D02*
X101565000Y-40541667D01*
X101685000Y-41895000D02*
X101685000Y-40541667D01*
X101805000Y-41895000D02*
X101805000Y-40541667D01*
X101925000Y-41895000D02*
X101925000Y-40541667D01*
X102045000Y-41895000D02*
X102045000Y-40541667D01*
X102165000Y-41895000D02*
X102165000Y-40541667D01*
X102235000Y-41895000D02*
X102235000Y-37835000D01*
X103505000Y-41895000D02*
X104775000Y-41895000D01*
X103625000Y-41895000D02*
X103625000Y-40541667D01*
X103745000Y-41895000D02*
X103745000Y-40541667D01*
X103865000Y-41895000D02*
X103865000Y-40541667D01*
X103985000Y-41895000D02*
X103985000Y-40541667D01*
X104105000Y-41895000D02*
X104105000Y-40541667D01*
X104225000Y-41895000D02*
X104225000Y-40541667D01*
X104345000Y-41895000D02*
X104345000Y-40541667D01*
X104465000Y-41895000D02*
X104465000Y-40541667D01*
X104585000Y-41895000D02*
X104585000Y-40541667D01*
X104705000Y-41895000D02*
X104705000Y-40541667D01*
X104775000Y-41895000D02*
X104775000Y-37835000D01*
X106045000Y-41895000D02*
X107315000Y-41895000D01*
X106165000Y-41895000D02*
X106165000Y-40541667D01*
X106285000Y-41895000D02*
X106285000Y-40541667D01*
X106405000Y-41895000D02*
X106405000Y-40541667D01*
X106525000Y-41895000D02*
X106525000Y-40541667D01*
X106645000Y-41895000D02*
X106645000Y-40541667D01*
X106765000Y-41895000D02*
X106765000Y-40541667D01*
X106885000Y-41895000D02*
X106885000Y-40541667D01*
X107005000Y-41895000D02*
X107005000Y-40541667D01*
X107125000Y-41895000D02*
X107125000Y-40541667D01*
X107245000Y-41895000D02*
X107245000Y-40541667D01*
X107315000Y-41895000D02*
X107315000Y-37835000D01*
X100965000Y-40541667D02*
X102235000Y-40541667D01*
X103505000Y-40541667D02*
X104775000Y-40541667D01*
X106045000Y-40541667D02*
X107315000Y-40541667D01*
X100965000Y-37835000D02*
X100965000Y-41895000D01*
X102235000Y-37835000D02*
X100965000Y-37835000D01*
X103505000Y-37835000D02*
X103505000Y-41895000D01*
X104775000Y-37835000D02*
X103505000Y-37835000D01*
X106045000Y-37835000D02*
X106045000Y-41895000D01*
X107315000Y-37835000D02*
X106045000Y-37835000D01*
X99180000Y-34915000D02*
X100800000Y-34915000D01*
X102400000Y-34915000D02*
X103340000Y-34915000D01*
X104940000Y-34915000D02*
X105880000Y-34915000D01*
X107480000Y-34915000D02*
X109100000Y-34915000D01*
%TO.C,J7*%
X87122000Y-59122000D02*
X92262000Y-59122000D01*
X92262000Y-61782000D02*
X92262000Y-59122000D01*
X87122000Y-61782000D02*
X87122000Y-59122000D01*
X87122000Y-61782000D02*
X92262000Y-61782000D01*
X85852000Y-61782000D02*
X84522000Y-61782000D01*
X84522000Y-61782000D02*
X84522000Y-60452000D01*
%TO.C,J10*%
X114895548Y-49530000D02*
X114895548Y-54670000D01*
X114895548Y-49530000D02*
X117555548Y-49530000D01*
X114895548Y-54670000D02*
X117555548Y-54670000D01*
X116225548Y-46930000D02*
X117555548Y-46930000D01*
X117555548Y-46930000D02*
X117555548Y-48260000D01*
X117555548Y-49530000D02*
X117555548Y-54670000D01*
%TO.C,J8*%
X49470000Y-61782000D02*
X49470000Y-60452000D01*
X50800000Y-61782000D02*
X49470000Y-61782000D01*
X52070000Y-61782000D02*
X57210000Y-61782000D01*
X52070000Y-61782000D02*
X52070000Y-59122000D01*
X57210000Y-61782000D02*
X57210000Y-59122000D01*
X52070000Y-59122000D02*
X57210000Y-59122000D01*
%TO.C,C7*%
X95765133Y-38480680D02*
X95765133Y-37958176D01*
X97235133Y-38480680D02*
X97235133Y-37958176D01*
%TO.C,C3*%
X85610817Y-42389223D02*
X85088313Y-42389223D01*
X85610817Y-40919223D02*
X85088313Y-40919223D01*
%TO.C,D1*%
X104015000Y-48748733D02*
X104015000Y-49041267D01*
X102995000Y-48748733D02*
X102995000Y-49041267D01*
%TO.C,F1*%
X90191000Y-45625936D02*
X90191000Y-46830064D01*
X88371000Y-45625936D02*
X88371000Y-46830064D01*
D11*
%TO.C,IC2*%
X72958000Y-33371000D02*
X69058000Y-33371000D01*
X72958000Y-28321000D02*
X69058000Y-28321000D01*
D12*
X75178000Y-32751000D02*
G75*
G02*
X74978000Y-32751000I-100000J0D01*
G01*
X74978000Y-32751000D02*
G75*
G02*
X75178000Y-32751000I100000J0D01*
G01*
D13*
%TO.C,C9*%
X93953000Y-39870748D02*
X93953000Y-40393252D01*
X92483000Y-39870748D02*
X92483000Y-40393252D01*
%TO.C,J6*%
X96221000Y-61782000D02*
X96221000Y-60452000D01*
X97551000Y-61782000D02*
X96221000Y-61782000D01*
X98821000Y-61782000D02*
X103961000Y-61782000D01*
X98821000Y-61782000D02*
X98821000Y-59122000D01*
X103961000Y-61782000D02*
X103961000Y-59122000D01*
X98821000Y-59122000D02*
X103961000Y-59122000D01*
%TO.C,R2*%
X99370000Y-55672500D02*
X101290000Y-55672500D01*
X101290000Y-55672500D02*
X101290000Y-52812500D01*
X99370000Y-52812500D02*
X99370000Y-55672500D01*
%TO.C,C4*%
X78986748Y-41276600D02*
X79509252Y-41276600D01*
X78986748Y-42746600D02*
X79509252Y-42746600D01*
%TO.C,C10*%
X92483000Y-36329252D02*
X92483000Y-35806748D01*
X93953000Y-36329252D02*
X93953000Y-35806748D01*
%TO.C,R9*%
X76118000Y-28250000D02*
X76118000Y-30170000D01*
X76118000Y-30170000D02*
X78978000Y-30170000D01*
X78978000Y-28250000D02*
X76118000Y-28250000D01*
%TO.C,C5*%
X78986748Y-44121400D02*
X79509252Y-44121400D01*
X78986748Y-45591400D02*
X79509252Y-45591400D01*
%TO.C,C1*%
X85610817Y-48409223D02*
X85088313Y-48409223D01*
X85610817Y-46939223D02*
X85088313Y-46939223D01*
%TO.C,J4*%
X48723000Y-31810000D02*
X48723000Y-30480000D01*
X50053000Y-31810000D02*
X48723000Y-31810000D01*
X51323000Y-31810000D02*
X56463000Y-31810000D01*
X51323000Y-31810000D02*
X51323000Y-29150000D01*
X56463000Y-31810000D02*
X56463000Y-29150000D01*
X51323000Y-29150000D02*
X56463000Y-29150000D01*
D11*
%TO.C,IC1*%
X90346000Y-28336000D02*
X94246000Y-28336000D01*
X90346000Y-33386000D02*
X94246000Y-33386000D01*
D12*
X88326000Y-28956000D02*
G75*
G02*
X88126000Y-28956000I-100000J0D01*
G01*
X88126000Y-28956000D02*
G75*
G02*
X88326000Y-28956000I100000J0D01*
G01*
D13*
%TO.C,J5*%
X114599000Y-29150000D02*
X114599000Y-30480000D01*
X113269000Y-29150000D02*
X114599000Y-29150000D01*
X111999000Y-29150000D02*
X106859000Y-29150000D01*
X111999000Y-29150000D02*
X111999000Y-31810000D01*
X106859000Y-29150000D02*
X106859000Y-31810000D01*
X111999000Y-31810000D02*
X106859000Y-31810000D01*
%TO.C,J2*%
X104200000Y-29150000D02*
X104200000Y-30480000D01*
X102870000Y-29150000D02*
X104200000Y-29150000D01*
X101600000Y-29150000D02*
X99000000Y-29150000D01*
X101600000Y-29150000D02*
X101600000Y-31810000D01*
X99000000Y-29150000D02*
X99000000Y-31810000D01*
X101600000Y-31810000D02*
X99000000Y-31810000D01*
%TO.C,J1*%
X116289891Y-33689162D02*
X113469891Y-33689162D01*
X116289891Y-33689162D02*
X117589891Y-35389162D01*
X113469891Y-33689162D02*
X112169891Y-35389162D01*
X117589891Y-35389162D02*
X117589891Y-44109162D01*
X112169891Y-35389162D02*
X112169891Y-44109162D01*
X117589891Y-44109162D02*
X112169891Y-44109162D01*
%TO.C,J9*%
X61154000Y-61782000D02*
X61154000Y-60452000D01*
X62484000Y-61782000D02*
X61154000Y-61782000D01*
X63754000Y-61782000D02*
X68894000Y-61782000D01*
X63754000Y-61782000D02*
X63754000Y-59122000D01*
X68894000Y-61782000D02*
X68894000Y-59122000D01*
X63754000Y-59122000D02*
X68894000Y-59122000D01*
%TO.C,C2*%
X85610817Y-45399223D02*
X85088313Y-45399223D01*
X85610817Y-43929223D02*
X85088313Y-43929223D01*
%TO.C,J3*%
X58614000Y-31810000D02*
X58614000Y-30480000D01*
X59944000Y-31810000D02*
X58614000Y-31810000D01*
X61214000Y-31810000D02*
X63814000Y-31810000D01*
X61214000Y-31810000D02*
X61214000Y-29150000D01*
X63814000Y-31810000D02*
X63814000Y-29150000D01*
X61214000Y-29150000D02*
X63814000Y-29150000D01*
%TO.C,J11*%
X75692000Y-59122000D02*
X80832000Y-59122000D01*
X80832000Y-61782000D02*
X80832000Y-59122000D01*
X75692000Y-61782000D02*
X75692000Y-59122000D01*
X75692000Y-61782000D02*
X80832000Y-61782000D01*
X74422000Y-61782000D02*
X73092000Y-61782000D01*
X73092000Y-61782000D02*
X73092000Y-60452000D01*
%TD*%
M02*
