%TF.GenerationSoftware,KiCad,Pcbnew,8.0.4*%
%TF.CreationDate,2024-08-28T14:32:30-04:00*%
%TF.ProjectId,luytenPCB,6c757974-656e-4504-9342-2e6b69636164,rev?*%
%TF.SameCoordinates,Original*%
%TF.FileFunction,Legend,Bot*%
%TF.FilePolarity,Positive*%
%FSLAX46Y46*%
G04 Gerber Fmt 4.6, Leading zero omitted, Abs format (unit mm)*
G04 Created by KiCad (PCBNEW 8.0.4) date 2024-08-28 14:32:30*
%MOMM*%
%LPD*%
G01*
G04 APERTURE LIST*
%ADD10C,0.150000*%
%ADD11C,0.120000*%
G04 APERTURE END LIST*
D10*
X74752030Y-62226819D02*
X75228220Y-62226819D01*
X75228220Y-62226819D02*
X75228220Y-61226819D01*
X73990125Y-61560152D02*
X73990125Y-62226819D01*
X74418696Y-61560152D02*
X74418696Y-62083961D01*
X74418696Y-62083961D02*
X74371077Y-62179200D01*
X74371077Y-62179200D02*
X74275839Y-62226819D01*
X74275839Y-62226819D02*
X74132982Y-62226819D01*
X74132982Y-62226819D02*
X74037744Y-62179200D01*
X74037744Y-62179200D02*
X73990125Y-62131580D01*
X73609172Y-61560152D02*
X73371077Y-62226819D01*
X73132982Y-61560152D02*
X73371077Y-62226819D01*
X73371077Y-62226819D02*
X73466315Y-62464914D01*
X73466315Y-62464914D02*
X73513934Y-62512533D01*
X73513934Y-62512533D02*
X73609172Y-62560152D01*
X72894886Y-61560152D02*
X72513934Y-61560152D01*
X72752029Y-61226819D02*
X72752029Y-62083961D01*
X72752029Y-62083961D02*
X72704410Y-62179200D01*
X72704410Y-62179200D02*
X72609172Y-62226819D01*
X72609172Y-62226819D02*
X72513934Y-62226819D01*
X71799648Y-62179200D02*
X71894886Y-62226819D01*
X71894886Y-62226819D02*
X72085362Y-62226819D01*
X72085362Y-62226819D02*
X72180600Y-62179200D01*
X72180600Y-62179200D02*
X72228219Y-62083961D01*
X72228219Y-62083961D02*
X72228219Y-61703009D01*
X72228219Y-61703009D02*
X72180600Y-61607771D01*
X72180600Y-61607771D02*
X72085362Y-61560152D01*
X72085362Y-61560152D02*
X71894886Y-61560152D01*
X71894886Y-61560152D02*
X71799648Y-61607771D01*
X71799648Y-61607771D02*
X71752029Y-61703009D01*
X71752029Y-61703009D02*
X71752029Y-61798247D01*
X71752029Y-61798247D02*
X72228219Y-61893485D01*
X71323457Y-61560152D02*
X71323457Y-62226819D01*
X71323457Y-61655390D02*
X71275838Y-61607771D01*
X71275838Y-61607771D02*
X71180600Y-61560152D01*
X71180600Y-61560152D02*
X71037743Y-61560152D01*
X71037743Y-61560152D02*
X70942505Y-61607771D01*
X70942505Y-61607771D02*
X70894886Y-61703009D01*
X70894886Y-61703009D02*
X70894886Y-62226819D01*
X70656791Y-62322057D02*
X69894886Y-62322057D01*
X69656790Y-62226819D02*
X69656790Y-61226819D01*
X69656790Y-61226819D02*
X69323457Y-61941104D01*
X69323457Y-61941104D02*
X68990124Y-61226819D01*
X68990124Y-61226819D02*
X68990124Y-62226819D01*
X68513933Y-62226819D02*
X68513933Y-61560152D01*
X68513933Y-61226819D02*
X68561552Y-61274438D01*
X68561552Y-61274438D02*
X68513933Y-61322057D01*
X68513933Y-61322057D02*
X68466314Y-61274438D01*
X68466314Y-61274438D02*
X68513933Y-61226819D01*
X68513933Y-61226819D02*
X68513933Y-61322057D01*
X68037743Y-61560152D02*
X68037743Y-62226819D01*
X68037743Y-61655390D02*
X67990124Y-61607771D01*
X67990124Y-61607771D02*
X67894886Y-61560152D01*
X67894886Y-61560152D02*
X67752029Y-61560152D01*
X67752029Y-61560152D02*
X67656791Y-61607771D01*
X67656791Y-61607771D02*
X67609172Y-61703009D01*
X67609172Y-61703009D02*
X67609172Y-62226819D01*
X67132981Y-62226819D02*
X67132981Y-61560152D01*
X67132981Y-61226819D02*
X67180600Y-61274438D01*
X67180600Y-61274438D02*
X67132981Y-61322057D01*
X67132981Y-61322057D02*
X67085362Y-61274438D01*
X67085362Y-61274438D02*
X67132981Y-61226819D01*
X67132981Y-61226819D02*
X67132981Y-61322057D01*
X66704410Y-62179200D02*
X66561553Y-62226819D01*
X66561553Y-62226819D02*
X66323458Y-62226819D01*
X66323458Y-62226819D02*
X66228220Y-62179200D01*
X66228220Y-62179200D02*
X66180601Y-62131580D01*
X66180601Y-62131580D02*
X66132982Y-62036342D01*
X66132982Y-62036342D02*
X66132982Y-61941104D01*
X66132982Y-61941104D02*
X66180601Y-61845866D01*
X66180601Y-61845866D02*
X66228220Y-61798247D01*
X66228220Y-61798247D02*
X66323458Y-61750628D01*
X66323458Y-61750628D02*
X66513934Y-61703009D01*
X66513934Y-61703009D02*
X66609172Y-61655390D01*
X66609172Y-61655390D02*
X66656791Y-61607771D01*
X66656791Y-61607771D02*
X66704410Y-61512533D01*
X66704410Y-61512533D02*
X66704410Y-61417295D01*
X66704410Y-61417295D02*
X66656791Y-61322057D01*
X66656791Y-61322057D02*
X66609172Y-61274438D01*
X66609172Y-61274438D02*
X66513934Y-61226819D01*
X66513934Y-61226819D02*
X66275839Y-61226819D01*
X66275839Y-61226819D02*
X66132982Y-61274438D01*
X65275839Y-61560152D02*
X65275839Y-62226819D01*
X65704410Y-61560152D02*
X65704410Y-62083961D01*
X65704410Y-62083961D02*
X65656791Y-62179200D01*
X65656791Y-62179200D02*
X65561553Y-62226819D01*
X65561553Y-62226819D02*
X65418696Y-62226819D01*
X65418696Y-62226819D02*
X65323458Y-62179200D01*
X65323458Y-62179200D02*
X65275839Y-62131580D01*
X64799648Y-62226819D02*
X64799648Y-61560152D01*
X64799648Y-61655390D02*
X64752029Y-61607771D01*
X64752029Y-61607771D02*
X64656791Y-61560152D01*
X64656791Y-61560152D02*
X64513934Y-61560152D01*
X64513934Y-61560152D02*
X64418696Y-61607771D01*
X64418696Y-61607771D02*
X64371077Y-61703009D01*
X64371077Y-61703009D02*
X64371077Y-62226819D01*
X64371077Y-61703009D02*
X64323458Y-61607771D01*
X64323458Y-61607771D02*
X64228220Y-61560152D01*
X64228220Y-61560152D02*
X64085363Y-61560152D01*
X64085363Y-61560152D02*
X63990124Y-61607771D01*
X63990124Y-61607771D02*
X63942505Y-61703009D01*
X63942505Y-61703009D02*
X63942505Y-62226819D01*
X63323458Y-62226819D02*
X63418696Y-62179200D01*
X63418696Y-62179200D02*
X63466315Y-62131580D01*
X63466315Y-62131580D02*
X63513934Y-62036342D01*
X63513934Y-62036342D02*
X63513934Y-61750628D01*
X63513934Y-61750628D02*
X63466315Y-61655390D01*
X63466315Y-61655390D02*
X63418696Y-61607771D01*
X63418696Y-61607771D02*
X63323458Y-61560152D01*
X63323458Y-61560152D02*
X63180601Y-61560152D01*
X63180601Y-61560152D02*
X63085363Y-61607771D01*
X63085363Y-61607771D02*
X63037744Y-61655390D01*
X63037744Y-61655390D02*
X62990125Y-61750628D01*
X62990125Y-61750628D02*
X62990125Y-62036342D01*
X62990125Y-62036342D02*
X63037744Y-62131580D01*
X63037744Y-62131580D02*
X63085363Y-62179200D01*
X63085363Y-62179200D02*
X63180601Y-62226819D01*
X63180601Y-62226819D02*
X63323458Y-62226819D01*
X62799649Y-62322057D02*
X62037744Y-62322057D01*
X61894886Y-61560152D02*
X61656791Y-62226819D01*
X61656791Y-62226819D02*
X61418696Y-61560152D01*
X60513934Y-62226819D02*
X61085362Y-62226819D01*
X60799648Y-62226819D02*
X60799648Y-61226819D01*
X60799648Y-61226819D02*
X60894886Y-61369676D01*
X60894886Y-61369676D02*
X60990124Y-61464914D01*
X60990124Y-61464914D02*
X61085362Y-61512533D01*
X59323457Y-61845866D02*
X58561553Y-61845866D01*
X57371076Y-61941104D02*
X56894886Y-61941104D01*
X57466314Y-62226819D02*
X57132981Y-61226819D01*
X57132981Y-61226819D02*
X56799648Y-62226819D01*
X56323457Y-62226819D02*
X56418695Y-62179200D01*
X56418695Y-62179200D02*
X56466314Y-62083961D01*
X56466314Y-62083961D02*
X56466314Y-61226819D01*
X55561552Y-62179200D02*
X55656790Y-62226819D01*
X55656790Y-62226819D02*
X55847266Y-62226819D01*
X55847266Y-62226819D02*
X55942504Y-62179200D01*
X55942504Y-62179200D02*
X55990123Y-62083961D01*
X55990123Y-62083961D02*
X55990123Y-61703009D01*
X55990123Y-61703009D02*
X55942504Y-61607771D01*
X55942504Y-61607771D02*
X55847266Y-61560152D01*
X55847266Y-61560152D02*
X55656790Y-61560152D01*
X55656790Y-61560152D02*
X55561552Y-61607771D01*
X55561552Y-61607771D02*
X55513933Y-61703009D01*
X55513933Y-61703009D02*
X55513933Y-61798247D01*
X55513933Y-61798247D02*
X55990123Y-61893485D01*
X55180599Y-62226819D02*
X54656790Y-61560152D01*
X55180599Y-61560152D02*
X54656790Y-62226819D01*
X53513932Y-62226819D02*
X53513932Y-61226819D01*
X53513932Y-61226819D02*
X53132980Y-61226819D01*
X53132980Y-61226819D02*
X53037742Y-61274438D01*
X53037742Y-61274438D02*
X52990123Y-61322057D01*
X52990123Y-61322057D02*
X52942504Y-61417295D01*
X52942504Y-61417295D02*
X52942504Y-61560152D01*
X52942504Y-61560152D02*
X52990123Y-61655390D01*
X52990123Y-61655390D02*
X53037742Y-61703009D01*
X53037742Y-61703009D02*
X53132980Y-61750628D01*
X53132980Y-61750628D02*
X53513932Y-61750628D01*
X52132980Y-62179200D02*
X52228218Y-62226819D01*
X52228218Y-62226819D02*
X52418694Y-62226819D01*
X52418694Y-62226819D02*
X52513932Y-62179200D01*
X52513932Y-62179200D02*
X52561551Y-62083961D01*
X52561551Y-62083961D02*
X52561551Y-61703009D01*
X52561551Y-61703009D02*
X52513932Y-61607771D01*
X52513932Y-61607771D02*
X52418694Y-61560152D01*
X52418694Y-61560152D02*
X52228218Y-61560152D01*
X52228218Y-61560152D02*
X52132980Y-61607771D01*
X52132980Y-61607771D02*
X52085361Y-61703009D01*
X52085361Y-61703009D02*
X52085361Y-61798247D01*
X52085361Y-61798247D02*
X52561551Y-61893485D01*
X51656789Y-61560152D02*
X51656789Y-62226819D01*
X51656789Y-61655390D02*
X51609170Y-61607771D01*
X51609170Y-61607771D02*
X51513932Y-61560152D01*
X51513932Y-61560152D02*
X51371075Y-61560152D01*
X51371075Y-61560152D02*
X51275837Y-61607771D01*
X51275837Y-61607771D02*
X51228218Y-61703009D01*
X51228218Y-61703009D02*
X51228218Y-62226819D01*
X50323456Y-61560152D02*
X50323456Y-62369676D01*
X50323456Y-62369676D02*
X50371075Y-62464914D01*
X50371075Y-62464914D02*
X50418694Y-62512533D01*
X50418694Y-62512533D02*
X50513932Y-62560152D01*
X50513932Y-62560152D02*
X50656789Y-62560152D01*
X50656789Y-62560152D02*
X50752027Y-62512533D01*
X50323456Y-62179200D02*
X50418694Y-62226819D01*
X50418694Y-62226819D02*
X50609170Y-62226819D01*
X50609170Y-62226819D02*
X50704408Y-62179200D01*
X50704408Y-62179200D02*
X50752027Y-62131580D01*
X50752027Y-62131580D02*
X50799646Y-62036342D01*
X50799646Y-62036342D02*
X50799646Y-61750628D01*
X50799646Y-61750628D02*
X50752027Y-61655390D01*
X50752027Y-61655390D02*
X50704408Y-61607771D01*
X50704408Y-61607771D02*
X50609170Y-61560152D01*
X50609170Y-61560152D02*
X50418694Y-61560152D01*
X50418694Y-61560152D02*
X50323456Y-61607771D01*
X49037741Y-61226819D02*
X49132979Y-61417295D01*
X48656789Y-61322057D02*
X48609170Y-61274438D01*
X48609170Y-61274438D02*
X48513932Y-61226819D01*
X48513932Y-61226819D02*
X48275837Y-61226819D01*
X48275837Y-61226819D02*
X48180599Y-61274438D01*
X48180599Y-61274438D02*
X48132980Y-61322057D01*
X48132980Y-61322057D02*
X48085361Y-61417295D01*
X48085361Y-61417295D02*
X48085361Y-61512533D01*
X48085361Y-61512533D02*
X48132980Y-61655390D01*
X48132980Y-61655390D02*
X48704408Y-62226819D01*
X48704408Y-62226819D02*
X48085361Y-62226819D01*
X47228218Y-61560152D02*
X47228218Y-62226819D01*
X47466313Y-61179200D02*
X47704408Y-61893485D01*
X47704408Y-61893485D02*
X47085361Y-61893485D01*
D11*
%TO.C,R4*%
X79736400Y-33218000D02*
X79736400Y-31298000D01*
X76876400Y-33218000D02*
X79736400Y-33218000D01*
X79736400Y-31298000D02*
X76876400Y-31298000D01*
%TO.C,R3*%
X94914000Y-33736400D02*
X94914000Y-35656400D01*
X97774000Y-33736400D02*
X94914000Y-33736400D01*
X94914000Y-35656400D02*
X97774000Y-35656400D01*
%TD*%
M02*
