M48
; DRILL file {KiCad 8.0.4} date 2024-08-28T14:32:12-0400
; FORMAT={-:-/ absolute / metric / decimal}
; #@! TF.CreationDate,2024-08-28T14:32:12-04:00
; #@! TF.GenerationSoftware,Kicad,Pcbnew,8.0.4
; #@! TF.FileFunction,Plated,1,2,PTH
FMAT,2
METRIC
; #@! TA.AperFunction,Plated,PTH,ViaDrill
T1C0.400
; #@! TA.AperFunction,Plated,PTH,ComponentDrill
T2C0.800
; #@! TA.AperFunction,Plated,PTH,ComponentDrill
T3C1.000
; #@! TA.AperFunction,Plated,PTH,ComponentDrill
T4C2.700
%
G90
G05
T1
X50.902Y-48.209
X51.054Y-40.132
X54.458Y-39.929
X58.014Y-43.637
X58.014Y-45.415
X63.957Y-46.279
X64.008Y-42.418
X64.008Y-44.45
X65.024Y-30.988
X66.04Y-42.418
X66.04Y-44.45
X66.04Y-46.33
X66.294Y-31.496
X70.612Y-29.464
X70.612Y-31.242
X71.628Y-30.48
X71.628Y-32.004
X71.628Y-43.688
X71.628Y-45.212
X73.152Y-43.688
X73.152Y-45.212
X75.184Y-27.94
X76.909Y-35.136
X76.962Y-34.138
X91.44Y-46.99
X91.5Y-53.34
X91.694Y-29.464
X91.694Y-31.242
X91.694Y-38.1
X92.71Y-30.226
X92.71Y-32.004
X92.71Y-44.45
X94.996Y-37.084
X97.282Y-32.969
X97.536Y-30.226
X97.79Y-56.998
X98.425Y-53.975
X100.787Y-38.303
X102.921Y-38.405
X105.156Y-38.506
X108.458Y-57.658
X109.855Y-45.72
X109.982Y-57.658
X110.744Y-33.528
X110.744Y-34.798
X110.744Y-36.068
X111.506Y-57.658
X113.03Y-57.658
T2
X95.803Y-48.971
X95.803Y-54.051
T3
X50.053Y-30.48
X50.8Y-60.452
X51.359Y-37.44
X51.359Y-52.68
X52.593Y-30.48
X53.34Y-60.452
X53.899Y-37.44
X53.899Y-52.68
X55.133Y-30.48
X55.88Y-60.452
X56.439Y-37.44
X56.439Y-52.68
X58.979Y-37.44
X58.979Y-52.68
X59.944Y-30.48
X61.519Y-37.44
X61.519Y-52.68
X62.484Y-30.48
X62.484Y-60.452
X64.059Y-37.44
X64.059Y-52.68
X65.024Y-60.452
X66.599Y-37.44
X66.599Y-52.68
X67.564Y-60.452
X69.139Y-37.44
X69.139Y-52.68
X71.679Y-37.44
X71.679Y-52.68
X74.219Y-37.44
X74.219Y-52.68
X74.422Y-60.452
X76.759Y-37.44
X76.759Y-52.68
X76.962Y-60.452
X79.299Y-37.44
X79.299Y-52.68
X79.502Y-60.452
X81.839Y-37.44
X81.839Y-52.68
X84.379Y-37.44
X84.379Y-52.68
X85.852Y-60.452
X86.919Y-37.44
X86.919Y-52.68
X88.392Y-60.452
X90.932Y-60.452
X97.551Y-60.452
X100.091Y-60.452
X100.33Y-30.48
X102.631Y-60.452
X102.87Y-30.48
X108.189Y-30.48
X110.729Y-30.48
X113.269Y-30.48
X116.226Y-48.26
X116.226Y-50.8
X116.226Y-53.34
T4
X114.88Y-36.399
X114.88Y-41.399
M30
