%TF.GenerationSoftware,KiCad,Pcbnew,8.0.4*%
%TF.CreationDate,2024-08-28T14:32:30-04:00*%
%TF.ProjectId,luytenPCB,6c757974-656e-4504-9342-2e6b69636164,rev?*%
%TF.SameCoordinates,Original*%
%TF.FileFunction,Soldermask,Top*%
%TF.FilePolarity,Negative*%
%FSLAX46Y46*%
G04 Gerber Fmt 4.6, Leading zero omitted, Abs format (unit mm)*
G04 Created by KiCad (PCBNEW 8.0.4) date 2024-08-28 14:32:30*
%MOMM*%
%LPD*%
G01*
G04 APERTURE LIST*
G04 Aperture macros list*
%AMRoundRect*
0 Rectangle with rounded corners*
0 $1 Rounding radius*
0 $2 $3 $4 $5 $6 $7 $8 $9 X,Y pos of 4 corners*
0 Add a 4 corners polygon primitive as box body*
4,1,4,$2,$3,$4,$5,$6,$7,$8,$9,$2,$3,0*
0 Add four circle primitives for the rounded corners*
1,1,$1+$1,$2,$3*
1,1,$1+$1,$4,$5*
1,1,$1+$1,$6,$7*
1,1,$1+$1,$8,$9*
0 Add four rect primitives between the rounded corners*
20,1,$1+$1,$2,$3,$4,$5,0*
20,1,$1+$1,$4,$5,$6,$7,0*
20,1,$1+$1,$6,$7,$8,$9,0*
20,1,$1+$1,$8,$9,$2,$3,0*%
G04 Aperture macros list end*
%ADD10C,0.010000*%
%ADD11RoundRect,0.102000X0.654000X0.654000X-0.654000X0.654000X-0.654000X-0.654000X0.654000X-0.654000X0*%
%ADD12C,1.512000*%
%ADD13R,1.600000X1.600000*%
%ADD14O,1.600000X1.600000*%
%ADD15RoundRect,0.250000X-0.337500X-0.475000X0.337500X-0.475000X0.337500X0.475000X-0.337500X0.475000X0*%
%ADD16RoundRect,0.237500X-0.237500X0.300000X-0.237500X-0.300000X0.237500X-0.300000X0.237500X0.300000X0*%
%ADD17C,2.200000*%
%ADD18RoundRect,0.250000X-0.475000X0.337500X-0.475000X-0.337500X0.475000X-0.337500X0.475000X0.337500X0*%
%ADD19RoundRect,0.250000X0.325000X0.450000X-0.325000X0.450000X-0.325000X-0.450000X0.325000X-0.450000X0*%
%ADD20RoundRect,0.250000X0.450000X-0.325000X0.450000X0.325000X-0.450000X0.325000X-0.450000X-0.325000X0*%
%ADD21R,1.120000X2.440000*%
%ADD22O,1.700000X1.700000*%
%ADD23R,1.700000X1.700000*%
%ADD24RoundRect,0.250000X0.475000X-0.337500X0.475000X0.337500X-0.475000X0.337500X-0.475000X-0.337500X0*%
%ADD25RoundRect,0.250000X0.337500X0.475000X-0.337500X0.475000X-0.337500X-0.475000X0.337500X-0.475000X0*%
%ADD26RoundRect,0.250001X-0.624999X0.462499X-0.624999X-0.462499X0.624999X-0.462499X0.624999X0.462499X0*%
%ADD27RoundRect,0.250000X-0.325000X-0.450000X0.325000X-0.450000X0.325000X0.450000X-0.325000X0.450000X0*%
%ADD28R,3.800000X3.800000*%
%ADD29C,3.800000*%
G04 APERTURE END LIST*
D10*
%TO.C,IC2*%
X72363000Y-32546000D02*
X69653000Y-32546000D01*
X69653000Y-29146000D01*
X72363000Y-29146000D01*
X72363000Y-32546000D01*
G36*
X72363000Y-32546000D02*
G01*
X69653000Y-32546000D01*
X69653000Y-29146000D01*
X72363000Y-29146000D01*
X72363000Y-32546000D01*
G37*
X74511000Y-32382000D02*
X74513000Y-32382000D01*
X74516000Y-32383000D01*
X74518000Y-32383000D01*
X74521000Y-32384000D01*
X74523000Y-32385000D01*
X74526000Y-32386000D01*
X74528000Y-32388000D01*
X74530000Y-32389000D01*
X74532000Y-32391000D01*
X74534000Y-32392000D01*
X74536000Y-32394000D01*
X74538000Y-32396000D01*
X74540000Y-32398000D01*
X74542000Y-32400000D01*
X74543000Y-32402000D01*
X74545000Y-32404000D01*
X74546000Y-32406000D01*
X74548000Y-32408000D01*
X74549000Y-32411000D01*
X74550000Y-32413000D01*
X74551000Y-32416000D01*
X74551000Y-32418000D01*
X74552000Y-32421000D01*
X74552000Y-32423000D01*
X74553000Y-32426000D01*
X74553000Y-32428000D01*
X74553000Y-32431000D01*
X74553000Y-33071000D01*
X74553000Y-33074000D01*
X74553000Y-33076000D01*
X74552000Y-33079000D01*
X74552000Y-33081000D01*
X74551000Y-33084000D01*
X74551000Y-33086000D01*
X74550000Y-33089000D01*
X74549000Y-33091000D01*
X74548000Y-33094000D01*
X74546000Y-33096000D01*
X74545000Y-33098000D01*
X74543000Y-33100000D01*
X74542000Y-33102000D01*
X74540000Y-33104000D01*
X74538000Y-33106000D01*
X74536000Y-33108000D01*
X74534000Y-33110000D01*
X74532000Y-33111000D01*
X74530000Y-33113000D01*
X74528000Y-33114000D01*
X74526000Y-33116000D01*
X74523000Y-33117000D01*
X74521000Y-33118000D01*
X74518000Y-33119000D01*
X74516000Y-33119000D01*
X74513000Y-33120000D01*
X74511000Y-33120000D01*
X74508000Y-33121000D01*
X74506000Y-33121000D01*
X74503000Y-33121000D01*
X72913000Y-33121000D01*
X72910000Y-33121000D01*
X72908000Y-33121000D01*
X72905000Y-33120000D01*
X72903000Y-33120000D01*
X72900000Y-33119000D01*
X72898000Y-33119000D01*
X72895000Y-33118000D01*
X72893000Y-33117000D01*
X72890000Y-33116000D01*
X72888000Y-33114000D01*
X72886000Y-33113000D01*
X72884000Y-33111000D01*
X72882000Y-33110000D01*
X72880000Y-33108000D01*
X72878000Y-33106000D01*
X72876000Y-33104000D01*
X72874000Y-33102000D01*
X72873000Y-33100000D01*
X72871000Y-33098000D01*
X72870000Y-33096000D01*
X72868000Y-33094000D01*
X72867000Y-33091000D01*
X72866000Y-33089000D01*
X72865000Y-33086000D01*
X72865000Y-33084000D01*
X72864000Y-33081000D01*
X72864000Y-33079000D01*
X72863000Y-33076000D01*
X72863000Y-33074000D01*
X72863000Y-33071000D01*
X72863000Y-32431000D01*
X72863000Y-32428000D01*
X72863000Y-32426000D01*
X72864000Y-32423000D01*
X72864000Y-32421000D01*
X72865000Y-32418000D01*
X72865000Y-32416000D01*
X72866000Y-32413000D01*
X72867000Y-32411000D01*
X72868000Y-32408000D01*
X72870000Y-32406000D01*
X72871000Y-32404000D01*
X72873000Y-32402000D01*
X72874000Y-32400000D01*
X72876000Y-32398000D01*
X72878000Y-32396000D01*
X72880000Y-32394000D01*
X72882000Y-32392000D01*
X72884000Y-32391000D01*
X72886000Y-32389000D01*
X72888000Y-32388000D01*
X72890000Y-32386000D01*
X72893000Y-32385000D01*
X72895000Y-32384000D01*
X72898000Y-32383000D01*
X72900000Y-32383000D01*
X72903000Y-32382000D01*
X72905000Y-32382000D01*
X72908000Y-32381000D01*
X72910000Y-32381000D01*
X72913000Y-32381000D01*
X74503000Y-32381000D01*
X74506000Y-32381000D01*
X74508000Y-32381000D01*
X74511000Y-32382000D01*
G36*
X74511000Y-32382000D02*
G01*
X74513000Y-32382000D01*
X74516000Y-32383000D01*
X74518000Y-32383000D01*
X74521000Y-32384000D01*
X74523000Y-32385000D01*
X74526000Y-32386000D01*
X74528000Y-32388000D01*
X74530000Y-32389000D01*
X74532000Y-32391000D01*
X74534000Y-32392000D01*
X74536000Y-32394000D01*
X74538000Y-32396000D01*
X74540000Y-32398000D01*
X74542000Y-32400000D01*
X74543000Y-32402000D01*
X74545000Y-32404000D01*
X74546000Y-32406000D01*
X74548000Y-32408000D01*
X74549000Y-32411000D01*
X74550000Y-32413000D01*
X74551000Y-32416000D01*
X74551000Y-32418000D01*
X74552000Y-32421000D01*
X74552000Y-32423000D01*
X74553000Y-32426000D01*
X74553000Y-32428000D01*
X74553000Y-32431000D01*
X74553000Y-33071000D01*
X74553000Y-33074000D01*
X74553000Y-33076000D01*
X74552000Y-33079000D01*
X74552000Y-33081000D01*
X74551000Y-33084000D01*
X74551000Y-33086000D01*
X74550000Y-33089000D01*
X74549000Y-33091000D01*
X74548000Y-33094000D01*
X74546000Y-33096000D01*
X74545000Y-33098000D01*
X74543000Y-33100000D01*
X74542000Y-33102000D01*
X74540000Y-33104000D01*
X74538000Y-33106000D01*
X74536000Y-33108000D01*
X74534000Y-33110000D01*
X74532000Y-33111000D01*
X74530000Y-33113000D01*
X74528000Y-33114000D01*
X74526000Y-33116000D01*
X74523000Y-33117000D01*
X74521000Y-33118000D01*
X74518000Y-33119000D01*
X74516000Y-33119000D01*
X74513000Y-33120000D01*
X74511000Y-33120000D01*
X74508000Y-33121000D01*
X74506000Y-33121000D01*
X74503000Y-33121000D01*
X72913000Y-33121000D01*
X72910000Y-33121000D01*
X72908000Y-33121000D01*
X72905000Y-33120000D01*
X72903000Y-33120000D01*
X72900000Y-33119000D01*
X72898000Y-33119000D01*
X72895000Y-33118000D01*
X72893000Y-33117000D01*
X72890000Y-33116000D01*
X72888000Y-33114000D01*
X72886000Y-33113000D01*
X72884000Y-33111000D01*
X72882000Y-33110000D01*
X72880000Y-33108000D01*
X72878000Y-33106000D01*
X72876000Y-33104000D01*
X72874000Y-33102000D01*
X72873000Y-33100000D01*
X72871000Y-33098000D01*
X72870000Y-33096000D01*
X72868000Y-33094000D01*
X72867000Y-33091000D01*
X72866000Y-33089000D01*
X72865000Y-33086000D01*
X72865000Y-33084000D01*
X72864000Y-33081000D01*
X72864000Y-33079000D01*
X72863000Y-33076000D01*
X72863000Y-33074000D01*
X72863000Y-33071000D01*
X72863000Y-32431000D01*
X72863000Y-32428000D01*
X72863000Y-32426000D01*
X72864000Y-32423000D01*
X72864000Y-32421000D01*
X72865000Y-32418000D01*
X72865000Y-32416000D01*
X72866000Y-32413000D01*
X72867000Y-32411000D01*
X72868000Y-32408000D01*
X72870000Y-32406000D01*
X72871000Y-32404000D01*
X72873000Y-32402000D01*
X72874000Y-32400000D01*
X72876000Y-32398000D01*
X72878000Y-32396000D01*
X72880000Y-32394000D01*
X72882000Y-32392000D01*
X72884000Y-32391000D01*
X72886000Y-32389000D01*
X72888000Y-32388000D01*
X72890000Y-32386000D01*
X72893000Y-32385000D01*
X72895000Y-32384000D01*
X72898000Y-32383000D01*
X72900000Y-32383000D01*
X72903000Y-32382000D01*
X72905000Y-32382000D01*
X72908000Y-32381000D01*
X72910000Y-32381000D01*
X72913000Y-32381000D01*
X74503000Y-32381000D01*
X74506000Y-32381000D01*
X74508000Y-32381000D01*
X74511000Y-32382000D01*
G37*
X74511000Y-31112000D02*
X74513000Y-31112000D01*
X74516000Y-31113000D01*
X74518000Y-31113000D01*
X74521000Y-31114000D01*
X74523000Y-31115000D01*
X74526000Y-31116000D01*
X74528000Y-31118000D01*
X74530000Y-31119000D01*
X74532000Y-31121000D01*
X74534000Y-31122000D01*
X74536000Y-31124000D01*
X74538000Y-31126000D01*
X74540000Y-31128000D01*
X74542000Y-31130000D01*
X74543000Y-31132000D01*
X74545000Y-31134000D01*
X74546000Y-31136000D01*
X74548000Y-31138000D01*
X74549000Y-31141000D01*
X74550000Y-31143000D01*
X74551000Y-31146000D01*
X74551000Y-31148000D01*
X74552000Y-31151000D01*
X74552000Y-31153000D01*
X74553000Y-31156000D01*
X74553000Y-31158000D01*
X74553000Y-31161000D01*
X74553000Y-31801000D01*
X74553000Y-31804000D01*
X74553000Y-31806000D01*
X74552000Y-31809000D01*
X74552000Y-31811000D01*
X74551000Y-31814000D01*
X74551000Y-31816000D01*
X74550000Y-31819000D01*
X74549000Y-31821000D01*
X74548000Y-31824000D01*
X74546000Y-31826000D01*
X74545000Y-31828000D01*
X74543000Y-31830000D01*
X74542000Y-31832000D01*
X74540000Y-31834000D01*
X74538000Y-31836000D01*
X74536000Y-31838000D01*
X74534000Y-31840000D01*
X74532000Y-31841000D01*
X74530000Y-31843000D01*
X74528000Y-31844000D01*
X74526000Y-31846000D01*
X74523000Y-31847000D01*
X74521000Y-31848000D01*
X74518000Y-31849000D01*
X74516000Y-31849000D01*
X74513000Y-31850000D01*
X74511000Y-31850000D01*
X74508000Y-31851000D01*
X74506000Y-31851000D01*
X74503000Y-31851000D01*
X72913000Y-31851000D01*
X72910000Y-31851000D01*
X72908000Y-31851000D01*
X72905000Y-31850000D01*
X72903000Y-31850000D01*
X72900000Y-31849000D01*
X72898000Y-31849000D01*
X72895000Y-31848000D01*
X72893000Y-31847000D01*
X72890000Y-31846000D01*
X72888000Y-31844000D01*
X72886000Y-31843000D01*
X72884000Y-31841000D01*
X72882000Y-31840000D01*
X72880000Y-31838000D01*
X72878000Y-31836000D01*
X72876000Y-31834000D01*
X72874000Y-31832000D01*
X72873000Y-31830000D01*
X72871000Y-31828000D01*
X72870000Y-31826000D01*
X72868000Y-31824000D01*
X72867000Y-31821000D01*
X72866000Y-31819000D01*
X72865000Y-31816000D01*
X72865000Y-31814000D01*
X72864000Y-31811000D01*
X72864000Y-31809000D01*
X72863000Y-31806000D01*
X72863000Y-31804000D01*
X72863000Y-31801000D01*
X72863000Y-31161000D01*
X72863000Y-31158000D01*
X72863000Y-31156000D01*
X72864000Y-31153000D01*
X72864000Y-31151000D01*
X72865000Y-31148000D01*
X72865000Y-31146000D01*
X72866000Y-31143000D01*
X72867000Y-31141000D01*
X72868000Y-31138000D01*
X72870000Y-31136000D01*
X72871000Y-31134000D01*
X72873000Y-31132000D01*
X72874000Y-31130000D01*
X72876000Y-31128000D01*
X72878000Y-31126000D01*
X72880000Y-31124000D01*
X72882000Y-31122000D01*
X72884000Y-31121000D01*
X72886000Y-31119000D01*
X72888000Y-31118000D01*
X72890000Y-31116000D01*
X72893000Y-31115000D01*
X72895000Y-31114000D01*
X72898000Y-31113000D01*
X72900000Y-31113000D01*
X72903000Y-31112000D01*
X72905000Y-31112000D01*
X72908000Y-31111000D01*
X72910000Y-31111000D01*
X72913000Y-31111000D01*
X74503000Y-31111000D01*
X74506000Y-31111000D01*
X74508000Y-31111000D01*
X74511000Y-31112000D01*
G36*
X74511000Y-31112000D02*
G01*
X74513000Y-31112000D01*
X74516000Y-31113000D01*
X74518000Y-31113000D01*
X74521000Y-31114000D01*
X74523000Y-31115000D01*
X74526000Y-31116000D01*
X74528000Y-31118000D01*
X74530000Y-31119000D01*
X74532000Y-31121000D01*
X74534000Y-31122000D01*
X74536000Y-31124000D01*
X74538000Y-31126000D01*
X74540000Y-31128000D01*
X74542000Y-31130000D01*
X74543000Y-31132000D01*
X74545000Y-31134000D01*
X74546000Y-31136000D01*
X74548000Y-31138000D01*
X74549000Y-31141000D01*
X74550000Y-31143000D01*
X74551000Y-31146000D01*
X74551000Y-31148000D01*
X74552000Y-31151000D01*
X74552000Y-31153000D01*
X74553000Y-31156000D01*
X74553000Y-31158000D01*
X74553000Y-31161000D01*
X74553000Y-31801000D01*
X74553000Y-31804000D01*
X74553000Y-31806000D01*
X74552000Y-31809000D01*
X74552000Y-31811000D01*
X74551000Y-31814000D01*
X74551000Y-31816000D01*
X74550000Y-31819000D01*
X74549000Y-31821000D01*
X74548000Y-31824000D01*
X74546000Y-31826000D01*
X74545000Y-31828000D01*
X74543000Y-31830000D01*
X74542000Y-31832000D01*
X74540000Y-31834000D01*
X74538000Y-31836000D01*
X74536000Y-31838000D01*
X74534000Y-31840000D01*
X74532000Y-31841000D01*
X74530000Y-31843000D01*
X74528000Y-31844000D01*
X74526000Y-31846000D01*
X74523000Y-31847000D01*
X74521000Y-31848000D01*
X74518000Y-31849000D01*
X74516000Y-31849000D01*
X74513000Y-31850000D01*
X74511000Y-31850000D01*
X74508000Y-31851000D01*
X74506000Y-31851000D01*
X74503000Y-31851000D01*
X72913000Y-31851000D01*
X72910000Y-31851000D01*
X72908000Y-31851000D01*
X72905000Y-31850000D01*
X72903000Y-31850000D01*
X72900000Y-31849000D01*
X72898000Y-31849000D01*
X72895000Y-31848000D01*
X72893000Y-31847000D01*
X72890000Y-31846000D01*
X72888000Y-31844000D01*
X72886000Y-31843000D01*
X72884000Y-31841000D01*
X72882000Y-31840000D01*
X72880000Y-31838000D01*
X72878000Y-31836000D01*
X72876000Y-31834000D01*
X72874000Y-31832000D01*
X72873000Y-31830000D01*
X72871000Y-31828000D01*
X72870000Y-31826000D01*
X72868000Y-31824000D01*
X72867000Y-31821000D01*
X72866000Y-31819000D01*
X72865000Y-31816000D01*
X72865000Y-31814000D01*
X72864000Y-31811000D01*
X72864000Y-31809000D01*
X72863000Y-31806000D01*
X72863000Y-31804000D01*
X72863000Y-31801000D01*
X72863000Y-31161000D01*
X72863000Y-31158000D01*
X72863000Y-31156000D01*
X72864000Y-31153000D01*
X72864000Y-31151000D01*
X72865000Y-31148000D01*
X72865000Y-31146000D01*
X72866000Y-31143000D01*
X72867000Y-31141000D01*
X72868000Y-31138000D01*
X72870000Y-31136000D01*
X72871000Y-31134000D01*
X72873000Y-31132000D01*
X72874000Y-31130000D01*
X72876000Y-31128000D01*
X72878000Y-31126000D01*
X72880000Y-31124000D01*
X72882000Y-31122000D01*
X72884000Y-31121000D01*
X72886000Y-31119000D01*
X72888000Y-31118000D01*
X72890000Y-31116000D01*
X72893000Y-31115000D01*
X72895000Y-31114000D01*
X72898000Y-31113000D01*
X72900000Y-31113000D01*
X72903000Y-31112000D01*
X72905000Y-31112000D01*
X72908000Y-31111000D01*
X72910000Y-31111000D01*
X72913000Y-31111000D01*
X74503000Y-31111000D01*
X74506000Y-31111000D01*
X74508000Y-31111000D01*
X74511000Y-31112000D01*
G37*
X74511000Y-29842000D02*
X74513000Y-29842000D01*
X74516000Y-29843000D01*
X74518000Y-29843000D01*
X74521000Y-29844000D01*
X74523000Y-29845000D01*
X74526000Y-29846000D01*
X74528000Y-29848000D01*
X74530000Y-29849000D01*
X74532000Y-29851000D01*
X74534000Y-29852000D01*
X74536000Y-29854000D01*
X74538000Y-29856000D01*
X74540000Y-29858000D01*
X74542000Y-29860000D01*
X74543000Y-29862000D01*
X74545000Y-29864000D01*
X74546000Y-29866000D01*
X74548000Y-29868000D01*
X74549000Y-29871000D01*
X74550000Y-29873000D01*
X74551000Y-29876000D01*
X74551000Y-29878000D01*
X74552000Y-29881000D01*
X74552000Y-29883000D01*
X74553000Y-29886000D01*
X74553000Y-29888000D01*
X74553000Y-29891000D01*
X74553000Y-30531000D01*
X74553000Y-30534000D01*
X74553000Y-30536000D01*
X74552000Y-30539000D01*
X74552000Y-30541000D01*
X74551000Y-30544000D01*
X74551000Y-30546000D01*
X74550000Y-30549000D01*
X74549000Y-30551000D01*
X74548000Y-30554000D01*
X74546000Y-30556000D01*
X74545000Y-30558000D01*
X74543000Y-30560000D01*
X74542000Y-30562000D01*
X74540000Y-30564000D01*
X74538000Y-30566000D01*
X74536000Y-30568000D01*
X74534000Y-30570000D01*
X74532000Y-30571000D01*
X74530000Y-30573000D01*
X74528000Y-30574000D01*
X74526000Y-30576000D01*
X74523000Y-30577000D01*
X74521000Y-30578000D01*
X74518000Y-30579000D01*
X74516000Y-30579000D01*
X74513000Y-30580000D01*
X74511000Y-30580000D01*
X74508000Y-30581000D01*
X74506000Y-30581000D01*
X74503000Y-30581000D01*
X72913000Y-30581000D01*
X72910000Y-30581000D01*
X72908000Y-30581000D01*
X72905000Y-30580000D01*
X72903000Y-30580000D01*
X72900000Y-30579000D01*
X72898000Y-30579000D01*
X72895000Y-30578000D01*
X72893000Y-30577000D01*
X72890000Y-30576000D01*
X72888000Y-30574000D01*
X72886000Y-30573000D01*
X72884000Y-30571000D01*
X72882000Y-30570000D01*
X72880000Y-30568000D01*
X72878000Y-30566000D01*
X72876000Y-30564000D01*
X72874000Y-30562000D01*
X72873000Y-30560000D01*
X72871000Y-30558000D01*
X72870000Y-30556000D01*
X72868000Y-30554000D01*
X72867000Y-30551000D01*
X72866000Y-30549000D01*
X72865000Y-30546000D01*
X72865000Y-30544000D01*
X72864000Y-30541000D01*
X72864000Y-30539000D01*
X72863000Y-30536000D01*
X72863000Y-30534000D01*
X72863000Y-30531000D01*
X72863000Y-29891000D01*
X72863000Y-29888000D01*
X72863000Y-29886000D01*
X72864000Y-29883000D01*
X72864000Y-29881000D01*
X72865000Y-29878000D01*
X72865000Y-29876000D01*
X72866000Y-29873000D01*
X72867000Y-29871000D01*
X72868000Y-29868000D01*
X72870000Y-29866000D01*
X72871000Y-29864000D01*
X72873000Y-29862000D01*
X72874000Y-29860000D01*
X72876000Y-29858000D01*
X72878000Y-29856000D01*
X72880000Y-29854000D01*
X72882000Y-29852000D01*
X72884000Y-29851000D01*
X72886000Y-29849000D01*
X72888000Y-29848000D01*
X72890000Y-29846000D01*
X72893000Y-29845000D01*
X72895000Y-29844000D01*
X72898000Y-29843000D01*
X72900000Y-29843000D01*
X72903000Y-29842000D01*
X72905000Y-29842000D01*
X72908000Y-29841000D01*
X72910000Y-29841000D01*
X72913000Y-29841000D01*
X74503000Y-29841000D01*
X74506000Y-29841000D01*
X74508000Y-29841000D01*
X74511000Y-29842000D01*
G36*
X74511000Y-29842000D02*
G01*
X74513000Y-29842000D01*
X74516000Y-29843000D01*
X74518000Y-29843000D01*
X74521000Y-29844000D01*
X74523000Y-29845000D01*
X74526000Y-29846000D01*
X74528000Y-29848000D01*
X74530000Y-29849000D01*
X74532000Y-29851000D01*
X74534000Y-29852000D01*
X74536000Y-29854000D01*
X74538000Y-29856000D01*
X74540000Y-29858000D01*
X74542000Y-29860000D01*
X74543000Y-29862000D01*
X74545000Y-29864000D01*
X74546000Y-29866000D01*
X74548000Y-29868000D01*
X74549000Y-29871000D01*
X74550000Y-29873000D01*
X74551000Y-29876000D01*
X74551000Y-29878000D01*
X74552000Y-29881000D01*
X74552000Y-29883000D01*
X74553000Y-29886000D01*
X74553000Y-29888000D01*
X74553000Y-29891000D01*
X74553000Y-30531000D01*
X74553000Y-30534000D01*
X74553000Y-30536000D01*
X74552000Y-30539000D01*
X74552000Y-30541000D01*
X74551000Y-30544000D01*
X74551000Y-30546000D01*
X74550000Y-30549000D01*
X74549000Y-30551000D01*
X74548000Y-30554000D01*
X74546000Y-30556000D01*
X74545000Y-30558000D01*
X74543000Y-30560000D01*
X74542000Y-30562000D01*
X74540000Y-30564000D01*
X74538000Y-30566000D01*
X74536000Y-30568000D01*
X74534000Y-30570000D01*
X74532000Y-30571000D01*
X74530000Y-30573000D01*
X74528000Y-30574000D01*
X74526000Y-30576000D01*
X74523000Y-30577000D01*
X74521000Y-30578000D01*
X74518000Y-30579000D01*
X74516000Y-30579000D01*
X74513000Y-30580000D01*
X74511000Y-30580000D01*
X74508000Y-30581000D01*
X74506000Y-30581000D01*
X74503000Y-30581000D01*
X72913000Y-30581000D01*
X72910000Y-30581000D01*
X72908000Y-30581000D01*
X72905000Y-30580000D01*
X72903000Y-30580000D01*
X72900000Y-30579000D01*
X72898000Y-30579000D01*
X72895000Y-30578000D01*
X72893000Y-30577000D01*
X72890000Y-30576000D01*
X72888000Y-30574000D01*
X72886000Y-30573000D01*
X72884000Y-30571000D01*
X72882000Y-30570000D01*
X72880000Y-30568000D01*
X72878000Y-30566000D01*
X72876000Y-30564000D01*
X72874000Y-30562000D01*
X72873000Y-30560000D01*
X72871000Y-30558000D01*
X72870000Y-30556000D01*
X72868000Y-30554000D01*
X72867000Y-30551000D01*
X72866000Y-30549000D01*
X72865000Y-30546000D01*
X72865000Y-30544000D01*
X72864000Y-30541000D01*
X72864000Y-30539000D01*
X72863000Y-30536000D01*
X72863000Y-30534000D01*
X72863000Y-30531000D01*
X72863000Y-29891000D01*
X72863000Y-29888000D01*
X72863000Y-29886000D01*
X72864000Y-29883000D01*
X72864000Y-29881000D01*
X72865000Y-29878000D01*
X72865000Y-29876000D01*
X72866000Y-29873000D01*
X72867000Y-29871000D01*
X72868000Y-29868000D01*
X72870000Y-29866000D01*
X72871000Y-29864000D01*
X72873000Y-29862000D01*
X72874000Y-29860000D01*
X72876000Y-29858000D01*
X72878000Y-29856000D01*
X72880000Y-29854000D01*
X72882000Y-29852000D01*
X72884000Y-29851000D01*
X72886000Y-29849000D01*
X72888000Y-29848000D01*
X72890000Y-29846000D01*
X72893000Y-29845000D01*
X72895000Y-29844000D01*
X72898000Y-29843000D01*
X72900000Y-29843000D01*
X72903000Y-29842000D01*
X72905000Y-29842000D01*
X72908000Y-29841000D01*
X72910000Y-29841000D01*
X72913000Y-29841000D01*
X74503000Y-29841000D01*
X74506000Y-29841000D01*
X74508000Y-29841000D01*
X74511000Y-29842000D01*
G37*
X74511000Y-28572000D02*
X74513000Y-28572000D01*
X74516000Y-28573000D01*
X74518000Y-28573000D01*
X74521000Y-28574000D01*
X74523000Y-28575000D01*
X74526000Y-28576000D01*
X74528000Y-28578000D01*
X74530000Y-28579000D01*
X74532000Y-28581000D01*
X74534000Y-28582000D01*
X74536000Y-28584000D01*
X74538000Y-28586000D01*
X74540000Y-28588000D01*
X74542000Y-28590000D01*
X74543000Y-28592000D01*
X74545000Y-28594000D01*
X74546000Y-28596000D01*
X74548000Y-28598000D01*
X74549000Y-28601000D01*
X74550000Y-28603000D01*
X74551000Y-28606000D01*
X74551000Y-28608000D01*
X74552000Y-28611000D01*
X74552000Y-28613000D01*
X74553000Y-28616000D01*
X74553000Y-28618000D01*
X74553000Y-28621000D01*
X74553000Y-29261000D01*
X74553000Y-29264000D01*
X74553000Y-29266000D01*
X74552000Y-29269000D01*
X74552000Y-29271000D01*
X74551000Y-29274000D01*
X74551000Y-29276000D01*
X74550000Y-29279000D01*
X74549000Y-29281000D01*
X74548000Y-29284000D01*
X74546000Y-29286000D01*
X74545000Y-29288000D01*
X74543000Y-29290000D01*
X74542000Y-29292000D01*
X74540000Y-29294000D01*
X74538000Y-29296000D01*
X74536000Y-29298000D01*
X74534000Y-29300000D01*
X74532000Y-29301000D01*
X74530000Y-29303000D01*
X74528000Y-29304000D01*
X74526000Y-29306000D01*
X74523000Y-29307000D01*
X74521000Y-29308000D01*
X74518000Y-29309000D01*
X74516000Y-29309000D01*
X74513000Y-29310000D01*
X74511000Y-29310000D01*
X74508000Y-29311000D01*
X74506000Y-29311000D01*
X74503000Y-29311000D01*
X72913000Y-29311000D01*
X72910000Y-29311000D01*
X72908000Y-29311000D01*
X72905000Y-29310000D01*
X72903000Y-29310000D01*
X72900000Y-29309000D01*
X72898000Y-29309000D01*
X72895000Y-29308000D01*
X72893000Y-29307000D01*
X72890000Y-29306000D01*
X72888000Y-29304000D01*
X72886000Y-29303000D01*
X72884000Y-29301000D01*
X72882000Y-29300000D01*
X72880000Y-29298000D01*
X72878000Y-29296000D01*
X72876000Y-29294000D01*
X72874000Y-29292000D01*
X72873000Y-29290000D01*
X72871000Y-29288000D01*
X72870000Y-29286000D01*
X72868000Y-29284000D01*
X72867000Y-29281000D01*
X72866000Y-29279000D01*
X72865000Y-29276000D01*
X72865000Y-29274000D01*
X72864000Y-29271000D01*
X72864000Y-29269000D01*
X72863000Y-29266000D01*
X72863000Y-29264000D01*
X72863000Y-29261000D01*
X72863000Y-28621000D01*
X72863000Y-28618000D01*
X72863000Y-28616000D01*
X72864000Y-28613000D01*
X72864000Y-28611000D01*
X72865000Y-28608000D01*
X72865000Y-28606000D01*
X72866000Y-28603000D01*
X72867000Y-28601000D01*
X72868000Y-28598000D01*
X72870000Y-28596000D01*
X72871000Y-28594000D01*
X72873000Y-28592000D01*
X72874000Y-28590000D01*
X72876000Y-28588000D01*
X72878000Y-28586000D01*
X72880000Y-28584000D01*
X72882000Y-28582000D01*
X72884000Y-28581000D01*
X72886000Y-28579000D01*
X72888000Y-28578000D01*
X72890000Y-28576000D01*
X72893000Y-28575000D01*
X72895000Y-28574000D01*
X72898000Y-28573000D01*
X72900000Y-28573000D01*
X72903000Y-28572000D01*
X72905000Y-28572000D01*
X72908000Y-28571000D01*
X72910000Y-28571000D01*
X72913000Y-28571000D01*
X74503000Y-28571000D01*
X74506000Y-28571000D01*
X74508000Y-28571000D01*
X74511000Y-28572000D01*
G36*
X74511000Y-28572000D02*
G01*
X74513000Y-28572000D01*
X74516000Y-28573000D01*
X74518000Y-28573000D01*
X74521000Y-28574000D01*
X74523000Y-28575000D01*
X74526000Y-28576000D01*
X74528000Y-28578000D01*
X74530000Y-28579000D01*
X74532000Y-28581000D01*
X74534000Y-28582000D01*
X74536000Y-28584000D01*
X74538000Y-28586000D01*
X74540000Y-28588000D01*
X74542000Y-28590000D01*
X74543000Y-28592000D01*
X74545000Y-28594000D01*
X74546000Y-28596000D01*
X74548000Y-28598000D01*
X74549000Y-28601000D01*
X74550000Y-28603000D01*
X74551000Y-28606000D01*
X74551000Y-28608000D01*
X74552000Y-28611000D01*
X74552000Y-28613000D01*
X74553000Y-28616000D01*
X74553000Y-28618000D01*
X74553000Y-28621000D01*
X74553000Y-29261000D01*
X74553000Y-29264000D01*
X74553000Y-29266000D01*
X74552000Y-29269000D01*
X74552000Y-29271000D01*
X74551000Y-29274000D01*
X74551000Y-29276000D01*
X74550000Y-29279000D01*
X74549000Y-29281000D01*
X74548000Y-29284000D01*
X74546000Y-29286000D01*
X74545000Y-29288000D01*
X74543000Y-29290000D01*
X74542000Y-29292000D01*
X74540000Y-29294000D01*
X74538000Y-29296000D01*
X74536000Y-29298000D01*
X74534000Y-29300000D01*
X74532000Y-29301000D01*
X74530000Y-29303000D01*
X74528000Y-29304000D01*
X74526000Y-29306000D01*
X74523000Y-29307000D01*
X74521000Y-29308000D01*
X74518000Y-29309000D01*
X74516000Y-29309000D01*
X74513000Y-29310000D01*
X74511000Y-29310000D01*
X74508000Y-29311000D01*
X74506000Y-29311000D01*
X74503000Y-29311000D01*
X72913000Y-29311000D01*
X72910000Y-29311000D01*
X72908000Y-29311000D01*
X72905000Y-29310000D01*
X72903000Y-29310000D01*
X72900000Y-29309000D01*
X72898000Y-29309000D01*
X72895000Y-29308000D01*
X72893000Y-29307000D01*
X72890000Y-29306000D01*
X72888000Y-29304000D01*
X72886000Y-29303000D01*
X72884000Y-29301000D01*
X72882000Y-29300000D01*
X72880000Y-29298000D01*
X72878000Y-29296000D01*
X72876000Y-29294000D01*
X72874000Y-29292000D01*
X72873000Y-29290000D01*
X72871000Y-29288000D01*
X72870000Y-29286000D01*
X72868000Y-29284000D01*
X72867000Y-29281000D01*
X72866000Y-29279000D01*
X72865000Y-29276000D01*
X72865000Y-29274000D01*
X72864000Y-29271000D01*
X72864000Y-29269000D01*
X72863000Y-29266000D01*
X72863000Y-29264000D01*
X72863000Y-29261000D01*
X72863000Y-28621000D01*
X72863000Y-28618000D01*
X72863000Y-28616000D01*
X72864000Y-28613000D01*
X72864000Y-28611000D01*
X72865000Y-28608000D01*
X72865000Y-28606000D01*
X72866000Y-28603000D01*
X72867000Y-28601000D01*
X72868000Y-28598000D01*
X72870000Y-28596000D01*
X72871000Y-28594000D01*
X72873000Y-28592000D01*
X72874000Y-28590000D01*
X72876000Y-28588000D01*
X72878000Y-28586000D01*
X72880000Y-28584000D01*
X72882000Y-28582000D01*
X72884000Y-28581000D01*
X72886000Y-28579000D01*
X72888000Y-28578000D01*
X72890000Y-28576000D01*
X72893000Y-28575000D01*
X72895000Y-28574000D01*
X72898000Y-28573000D01*
X72900000Y-28573000D01*
X72903000Y-28572000D01*
X72905000Y-28572000D01*
X72908000Y-28571000D01*
X72910000Y-28571000D01*
X72913000Y-28571000D01*
X74503000Y-28571000D01*
X74506000Y-28571000D01*
X74508000Y-28571000D01*
X74511000Y-28572000D01*
G37*
X69111000Y-32382000D02*
X69113000Y-32382000D01*
X69116000Y-32383000D01*
X69118000Y-32383000D01*
X69121000Y-32384000D01*
X69123000Y-32385000D01*
X69126000Y-32386000D01*
X69128000Y-32388000D01*
X69130000Y-32389000D01*
X69132000Y-32391000D01*
X69134000Y-32392000D01*
X69136000Y-32394000D01*
X69138000Y-32396000D01*
X69140000Y-32398000D01*
X69142000Y-32400000D01*
X69143000Y-32402000D01*
X69145000Y-32404000D01*
X69146000Y-32406000D01*
X69148000Y-32408000D01*
X69149000Y-32411000D01*
X69150000Y-32413000D01*
X69151000Y-32416000D01*
X69151000Y-32418000D01*
X69152000Y-32421000D01*
X69152000Y-32423000D01*
X69153000Y-32426000D01*
X69153000Y-32428000D01*
X69153000Y-32431000D01*
X69153000Y-33071000D01*
X69153000Y-33074000D01*
X69153000Y-33076000D01*
X69152000Y-33079000D01*
X69152000Y-33081000D01*
X69151000Y-33084000D01*
X69151000Y-33086000D01*
X69150000Y-33089000D01*
X69149000Y-33091000D01*
X69148000Y-33094000D01*
X69146000Y-33096000D01*
X69145000Y-33098000D01*
X69143000Y-33100000D01*
X69142000Y-33102000D01*
X69140000Y-33104000D01*
X69138000Y-33106000D01*
X69136000Y-33108000D01*
X69134000Y-33110000D01*
X69132000Y-33111000D01*
X69130000Y-33113000D01*
X69128000Y-33114000D01*
X69126000Y-33116000D01*
X69123000Y-33117000D01*
X69121000Y-33118000D01*
X69118000Y-33119000D01*
X69116000Y-33119000D01*
X69113000Y-33120000D01*
X69111000Y-33120000D01*
X69108000Y-33121000D01*
X69106000Y-33121000D01*
X69103000Y-33121000D01*
X67513000Y-33121000D01*
X67510000Y-33121000D01*
X67508000Y-33121000D01*
X67505000Y-33120000D01*
X67503000Y-33120000D01*
X67500000Y-33119000D01*
X67498000Y-33119000D01*
X67495000Y-33118000D01*
X67493000Y-33117000D01*
X67490000Y-33116000D01*
X67488000Y-33114000D01*
X67486000Y-33113000D01*
X67484000Y-33111000D01*
X67482000Y-33110000D01*
X67480000Y-33108000D01*
X67478000Y-33106000D01*
X67476000Y-33104000D01*
X67474000Y-33102000D01*
X67473000Y-33100000D01*
X67471000Y-33098000D01*
X67470000Y-33096000D01*
X67468000Y-33094000D01*
X67467000Y-33091000D01*
X67466000Y-33089000D01*
X67465000Y-33086000D01*
X67465000Y-33084000D01*
X67464000Y-33081000D01*
X67464000Y-33079000D01*
X67463000Y-33076000D01*
X67463000Y-33074000D01*
X67463000Y-33071000D01*
X67463000Y-32431000D01*
X67463000Y-32428000D01*
X67463000Y-32426000D01*
X67464000Y-32423000D01*
X67464000Y-32421000D01*
X67465000Y-32418000D01*
X67465000Y-32416000D01*
X67466000Y-32413000D01*
X67467000Y-32411000D01*
X67468000Y-32408000D01*
X67470000Y-32406000D01*
X67471000Y-32404000D01*
X67473000Y-32402000D01*
X67474000Y-32400000D01*
X67476000Y-32398000D01*
X67478000Y-32396000D01*
X67480000Y-32394000D01*
X67482000Y-32392000D01*
X67484000Y-32391000D01*
X67486000Y-32389000D01*
X67488000Y-32388000D01*
X67490000Y-32386000D01*
X67493000Y-32385000D01*
X67495000Y-32384000D01*
X67498000Y-32383000D01*
X67500000Y-32383000D01*
X67503000Y-32382000D01*
X67505000Y-32382000D01*
X67508000Y-32381000D01*
X67510000Y-32381000D01*
X67513000Y-32381000D01*
X69103000Y-32381000D01*
X69106000Y-32381000D01*
X69108000Y-32381000D01*
X69111000Y-32382000D01*
G36*
X69111000Y-32382000D02*
G01*
X69113000Y-32382000D01*
X69116000Y-32383000D01*
X69118000Y-32383000D01*
X69121000Y-32384000D01*
X69123000Y-32385000D01*
X69126000Y-32386000D01*
X69128000Y-32388000D01*
X69130000Y-32389000D01*
X69132000Y-32391000D01*
X69134000Y-32392000D01*
X69136000Y-32394000D01*
X69138000Y-32396000D01*
X69140000Y-32398000D01*
X69142000Y-32400000D01*
X69143000Y-32402000D01*
X69145000Y-32404000D01*
X69146000Y-32406000D01*
X69148000Y-32408000D01*
X69149000Y-32411000D01*
X69150000Y-32413000D01*
X69151000Y-32416000D01*
X69151000Y-32418000D01*
X69152000Y-32421000D01*
X69152000Y-32423000D01*
X69153000Y-32426000D01*
X69153000Y-32428000D01*
X69153000Y-32431000D01*
X69153000Y-33071000D01*
X69153000Y-33074000D01*
X69153000Y-33076000D01*
X69152000Y-33079000D01*
X69152000Y-33081000D01*
X69151000Y-33084000D01*
X69151000Y-33086000D01*
X69150000Y-33089000D01*
X69149000Y-33091000D01*
X69148000Y-33094000D01*
X69146000Y-33096000D01*
X69145000Y-33098000D01*
X69143000Y-33100000D01*
X69142000Y-33102000D01*
X69140000Y-33104000D01*
X69138000Y-33106000D01*
X69136000Y-33108000D01*
X69134000Y-33110000D01*
X69132000Y-33111000D01*
X69130000Y-33113000D01*
X69128000Y-33114000D01*
X69126000Y-33116000D01*
X69123000Y-33117000D01*
X69121000Y-33118000D01*
X69118000Y-33119000D01*
X69116000Y-33119000D01*
X69113000Y-33120000D01*
X69111000Y-33120000D01*
X69108000Y-33121000D01*
X69106000Y-33121000D01*
X69103000Y-33121000D01*
X67513000Y-33121000D01*
X67510000Y-33121000D01*
X67508000Y-33121000D01*
X67505000Y-33120000D01*
X67503000Y-33120000D01*
X67500000Y-33119000D01*
X67498000Y-33119000D01*
X67495000Y-33118000D01*
X67493000Y-33117000D01*
X67490000Y-33116000D01*
X67488000Y-33114000D01*
X67486000Y-33113000D01*
X67484000Y-33111000D01*
X67482000Y-33110000D01*
X67480000Y-33108000D01*
X67478000Y-33106000D01*
X67476000Y-33104000D01*
X67474000Y-33102000D01*
X67473000Y-33100000D01*
X67471000Y-33098000D01*
X67470000Y-33096000D01*
X67468000Y-33094000D01*
X67467000Y-33091000D01*
X67466000Y-33089000D01*
X67465000Y-33086000D01*
X67465000Y-33084000D01*
X67464000Y-33081000D01*
X67464000Y-33079000D01*
X67463000Y-33076000D01*
X67463000Y-33074000D01*
X67463000Y-33071000D01*
X67463000Y-32431000D01*
X67463000Y-32428000D01*
X67463000Y-32426000D01*
X67464000Y-32423000D01*
X67464000Y-32421000D01*
X67465000Y-32418000D01*
X67465000Y-32416000D01*
X67466000Y-32413000D01*
X67467000Y-32411000D01*
X67468000Y-32408000D01*
X67470000Y-32406000D01*
X67471000Y-32404000D01*
X67473000Y-32402000D01*
X67474000Y-32400000D01*
X67476000Y-32398000D01*
X67478000Y-32396000D01*
X67480000Y-32394000D01*
X67482000Y-32392000D01*
X67484000Y-32391000D01*
X67486000Y-32389000D01*
X67488000Y-32388000D01*
X67490000Y-32386000D01*
X67493000Y-32385000D01*
X67495000Y-32384000D01*
X67498000Y-32383000D01*
X67500000Y-32383000D01*
X67503000Y-32382000D01*
X67505000Y-32382000D01*
X67508000Y-32381000D01*
X67510000Y-32381000D01*
X67513000Y-32381000D01*
X69103000Y-32381000D01*
X69106000Y-32381000D01*
X69108000Y-32381000D01*
X69111000Y-32382000D01*
G37*
X69111000Y-31112000D02*
X69113000Y-31112000D01*
X69116000Y-31113000D01*
X69118000Y-31113000D01*
X69121000Y-31114000D01*
X69123000Y-31115000D01*
X69126000Y-31116000D01*
X69128000Y-31118000D01*
X69130000Y-31119000D01*
X69132000Y-31121000D01*
X69134000Y-31122000D01*
X69136000Y-31124000D01*
X69138000Y-31126000D01*
X69140000Y-31128000D01*
X69142000Y-31130000D01*
X69143000Y-31132000D01*
X69145000Y-31134000D01*
X69146000Y-31136000D01*
X69148000Y-31138000D01*
X69149000Y-31141000D01*
X69150000Y-31143000D01*
X69151000Y-31146000D01*
X69151000Y-31148000D01*
X69152000Y-31151000D01*
X69152000Y-31153000D01*
X69153000Y-31156000D01*
X69153000Y-31158000D01*
X69153000Y-31161000D01*
X69153000Y-31801000D01*
X69153000Y-31804000D01*
X69153000Y-31806000D01*
X69152000Y-31809000D01*
X69152000Y-31811000D01*
X69151000Y-31814000D01*
X69151000Y-31816000D01*
X69150000Y-31819000D01*
X69149000Y-31821000D01*
X69148000Y-31824000D01*
X69146000Y-31826000D01*
X69145000Y-31828000D01*
X69143000Y-31830000D01*
X69142000Y-31832000D01*
X69140000Y-31834000D01*
X69138000Y-31836000D01*
X69136000Y-31838000D01*
X69134000Y-31840000D01*
X69132000Y-31841000D01*
X69130000Y-31843000D01*
X69128000Y-31844000D01*
X69126000Y-31846000D01*
X69123000Y-31847000D01*
X69121000Y-31848000D01*
X69118000Y-31849000D01*
X69116000Y-31849000D01*
X69113000Y-31850000D01*
X69111000Y-31850000D01*
X69108000Y-31851000D01*
X69106000Y-31851000D01*
X69103000Y-31851000D01*
X67513000Y-31851000D01*
X67510000Y-31851000D01*
X67508000Y-31851000D01*
X67505000Y-31850000D01*
X67503000Y-31850000D01*
X67500000Y-31849000D01*
X67498000Y-31849000D01*
X67495000Y-31848000D01*
X67493000Y-31847000D01*
X67490000Y-31846000D01*
X67488000Y-31844000D01*
X67486000Y-31843000D01*
X67484000Y-31841000D01*
X67482000Y-31840000D01*
X67480000Y-31838000D01*
X67478000Y-31836000D01*
X67476000Y-31834000D01*
X67474000Y-31832000D01*
X67473000Y-31830000D01*
X67471000Y-31828000D01*
X67470000Y-31826000D01*
X67468000Y-31824000D01*
X67467000Y-31821000D01*
X67466000Y-31819000D01*
X67465000Y-31816000D01*
X67465000Y-31814000D01*
X67464000Y-31811000D01*
X67464000Y-31809000D01*
X67463000Y-31806000D01*
X67463000Y-31804000D01*
X67463000Y-31801000D01*
X67463000Y-31161000D01*
X67463000Y-31158000D01*
X67463000Y-31156000D01*
X67464000Y-31153000D01*
X67464000Y-31151000D01*
X67465000Y-31148000D01*
X67465000Y-31146000D01*
X67466000Y-31143000D01*
X67467000Y-31141000D01*
X67468000Y-31138000D01*
X67470000Y-31136000D01*
X67471000Y-31134000D01*
X67473000Y-31132000D01*
X67474000Y-31130000D01*
X67476000Y-31128000D01*
X67478000Y-31126000D01*
X67480000Y-31124000D01*
X67482000Y-31122000D01*
X67484000Y-31121000D01*
X67486000Y-31119000D01*
X67488000Y-31118000D01*
X67490000Y-31116000D01*
X67493000Y-31115000D01*
X67495000Y-31114000D01*
X67498000Y-31113000D01*
X67500000Y-31113000D01*
X67503000Y-31112000D01*
X67505000Y-31112000D01*
X67508000Y-31111000D01*
X67510000Y-31111000D01*
X67513000Y-31111000D01*
X69103000Y-31111000D01*
X69106000Y-31111000D01*
X69108000Y-31111000D01*
X69111000Y-31112000D01*
G36*
X69111000Y-31112000D02*
G01*
X69113000Y-31112000D01*
X69116000Y-31113000D01*
X69118000Y-31113000D01*
X69121000Y-31114000D01*
X69123000Y-31115000D01*
X69126000Y-31116000D01*
X69128000Y-31118000D01*
X69130000Y-31119000D01*
X69132000Y-31121000D01*
X69134000Y-31122000D01*
X69136000Y-31124000D01*
X69138000Y-31126000D01*
X69140000Y-31128000D01*
X69142000Y-31130000D01*
X69143000Y-31132000D01*
X69145000Y-31134000D01*
X69146000Y-31136000D01*
X69148000Y-31138000D01*
X69149000Y-31141000D01*
X69150000Y-31143000D01*
X69151000Y-31146000D01*
X69151000Y-31148000D01*
X69152000Y-31151000D01*
X69152000Y-31153000D01*
X69153000Y-31156000D01*
X69153000Y-31158000D01*
X69153000Y-31161000D01*
X69153000Y-31801000D01*
X69153000Y-31804000D01*
X69153000Y-31806000D01*
X69152000Y-31809000D01*
X69152000Y-31811000D01*
X69151000Y-31814000D01*
X69151000Y-31816000D01*
X69150000Y-31819000D01*
X69149000Y-31821000D01*
X69148000Y-31824000D01*
X69146000Y-31826000D01*
X69145000Y-31828000D01*
X69143000Y-31830000D01*
X69142000Y-31832000D01*
X69140000Y-31834000D01*
X69138000Y-31836000D01*
X69136000Y-31838000D01*
X69134000Y-31840000D01*
X69132000Y-31841000D01*
X69130000Y-31843000D01*
X69128000Y-31844000D01*
X69126000Y-31846000D01*
X69123000Y-31847000D01*
X69121000Y-31848000D01*
X69118000Y-31849000D01*
X69116000Y-31849000D01*
X69113000Y-31850000D01*
X69111000Y-31850000D01*
X69108000Y-31851000D01*
X69106000Y-31851000D01*
X69103000Y-31851000D01*
X67513000Y-31851000D01*
X67510000Y-31851000D01*
X67508000Y-31851000D01*
X67505000Y-31850000D01*
X67503000Y-31850000D01*
X67500000Y-31849000D01*
X67498000Y-31849000D01*
X67495000Y-31848000D01*
X67493000Y-31847000D01*
X67490000Y-31846000D01*
X67488000Y-31844000D01*
X67486000Y-31843000D01*
X67484000Y-31841000D01*
X67482000Y-31840000D01*
X67480000Y-31838000D01*
X67478000Y-31836000D01*
X67476000Y-31834000D01*
X67474000Y-31832000D01*
X67473000Y-31830000D01*
X67471000Y-31828000D01*
X67470000Y-31826000D01*
X67468000Y-31824000D01*
X67467000Y-31821000D01*
X67466000Y-31819000D01*
X67465000Y-31816000D01*
X67465000Y-31814000D01*
X67464000Y-31811000D01*
X67464000Y-31809000D01*
X67463000Y-31806000D01*
X67463000Y-31804000D01*
X67463000Y-31801000D01*
X67463000Y-31161000D01*
X67463000Y-31158000D01*
X67463000Y-31156000D01*
X67464000Y-31153000D01*
X67464000Y-31151000D01*
X67465000Y-31148000D01*
X67465000Y-31146000D01*
X67466000Y-31143000D01*
X67467000Y-31141000D01*
X67468000Y-31138000D01*
X67470000Y-31136000D01*
X67471000Y-31134000D01*
X67473000Y-31132000D01*
X67474000Y-31130000D01*
X67476000Y-31128000D01*
X67478000Y-31126000D01*
X67480000Y-31124000D01*
X67482000Y-31122000D01*
X67484000Y-31121000D01*
X67486000Y-31119000D01*
X67488000Y-31118000D01*
X67490000Y-31116000D01*
X67493000Y-31115000D01*
X67495000Y-31114000D01*
X67498000Y-31113000D01*
X67500000Y-31113000D01*
X67503000Y-31112000D01*
X67505000Y-31112000D01*
X67508000Y-31111000D01*
X67510000Y-31111000D01*
X67513000Y-31111000D01*
X69103000Y-31111000D01*
X69106000Y-31111000D01*
X69108000Y-31111000D01*
X69111000Y-31112000D01*
G37*
X69111000Y-29842000D02*
X69113000Y-29842000D01*
X69116000Y-29843000D01*
X69118000Y-29843000D01*
X69121000Y-29844000D01*
X69123000Y-29845000D01*
X69126000Y-29846000D01*
X69128000Y-29848000D01*
X69130000Y-29849000D01*
X69132000Y-29851000D01*
X69134000Y-29852000D01*
X69136000Y-29854000D01*
X69138000Y-29856000D01*
X69140000Y-29858000D01*
X69142000Y-29860000D01*
X69143000Y-29862000D01*
X69145000Y-29864000D01*
X69146000Y-29866000D01*
X69148000Y-29868000D01*
X69149000Y-29871000D01*
X69150000Y-29873000D01*
X69151000Y-29876000D01*
X69151000Y-29878000D01*
X69152000Y-29881000D01*
X69152000Y-29883000D01*
X69153000Y-29886000D01*
X69153000Y-29888000D01*
X69153000Y-29891000D01*
X69153000Y-30531000D01*
X69153000Y-30534000D01*
X69153000Y-30536000D01*
X69152000Y-30539000D01*
X69152000Y-30541000D01*
X69151000Y-30544000D01*
X69151000Y-30546000D01*
X69150000Y-30549000D01*
X69149000Y-30551000D01*
X69148000Y-30554000D01*
X69146000Y-30556000D01*
X69145000Y-30558000D01*
X69143000Y-30560000D01*
X69142000Y-30562000D01*
X69140000Y-30564000D01*
X69138000Y-30566000D01*
X69136000Y-30568000D01*
X69134000Y-30570000D01*
X69132000Y-30571000D01*
X69130000Y-30573000D01*
X69128000Y-30574000D01*
X69126000Y-30576000D01*
X69123000Y-30577000D01*
X69121000Y-30578000D01*
X69118000Y-30579000D01*
X69116000Y-30579000D01*
X69113000Y-30580000D01*
X69111000Y-30580000D01*
X69108000Y-30581000D01*
X69106000Y-30581000D01*
X69103000Y-30581000D01*
X67513000Y-30581000D01*
X67510000Y-30581000D01*
X67508000Y-30581000D01*
X67505000Y-30580000D01*
X67503000Y-30580000D01*
X67500000Y-30579000D01*
X67498000Y-30579000D01*
X67495000Y-30578000D01*
X67493000Y-30577000D01*
X67490000Y-30576000D01*
X67488000Y-30574000D01*
X67486000Y-30573000D01*
X67484000Y-30571000D01*
X67482000Y-30570000D01*
X67480000Y-30568000D01*
X67478000Y-30566000D01*
X67476000Y-30564000D01*
X67474000Y-30562000D01*
X67473000Y-30560000D01*
X67471000Y-30558000D01*
X67470000Y-30556000D01*
X67468000Y-30554000D01*
X67467000Y-30551000D01*
X67466000Y-30549000D01*
X67465000Y-30546000D01*
X67465000Y-30544000D01*
X67464000Y-30541000D01*
X67464000Y-30539000D01*
X67463000Y-30536000D01*
X67463000Y-30534000D01*
X67463000Y-30531000D01*
X67463000Y-29891000D01*
X67463000Y-29888000D01*
X67463000Y-29886000D01*
X67464000Y-29883000D01*
X67464000Y-29881000D01*
X67465000Y-29878000D01*
X67465000Y-29876000D01*
X67466000Y-29873000D01*
X67467000Y-29871000D01*
X67468000Y-29868000D01*
X67470000Y-29866000D01*
X67471000Y-29864000D01*
X67473000Y-29862000D01*
X67474000Y-29860000D01*
X67476000Y-29858000D01*
X67478000Y-29856000D01*
X67480000Y-29854000D01*
X67482000Y-29852000D01*
X67484000Y-29851000D01*
X67486000Y-29849000D01*
X67488000Y-29848000D01*
X67490000Y-29846000D01*
X67493000Y-29845000D01*
X67495000Y-29844000D01*
X67498000Y-29843000D01*
X67500000Y-29843000D01*
X67503000Y-29842000D01*
X67505000Y-29842000D01*
X67508000Y-29841000D01*
X67510000Y-29841000D01*
X67513000Y-29841000D01*
X69103000Y-29841000D01*
X69106000Y-29841000D01*
X69108000Y-29841000D01*
X69111000Y-29842000D01*
G36*
X69111000Y-29842000D02*
G01*
X69113000Y-29842000D01*
X69116000Y-29843000D01*
X69118000Y-29843000D01*
X69121000Y-29844000D01*
X69123000Y-29845000D01*
X69126000Y-29846000D01*
X69128000Y-29848000D01*
X69130000Y-29849000D01*
X69132000Y-29851000D01*
X69134000Y-29852000D01*
X69136000Y-29854000D01*
X69138000Y-29856000D01*
X69140000Y-29858000D01*
X69142000Y-29860000D01*
X69143000Y-29862000D01*
X69145000Y-29864000D01*
X69146000Y-29866000D01*
X69148000Y-29868000D01*
X69149000Y-29871000D01*
X69150000Y-29873000D01*
X69151000Y-29876000D01*
X69151000Y-29878000D01*
X69152000Y-29881000D01*
X69152000Y-29883000D01*
X69153000Y-29886000D01*
X69153000Y-29888000D01*
X69153000Y-29891000D01*
X69153000Y-30531000D01*
X69153000Y-30534000D01*
X69153000Y-30536000D01*
X69152000Y-30539000D01*
X69152000Y-30541000D01*
X69151000Y-30544000D01*
X69151000Y-30546000D01*
X69150000Y-30549000D01*
X69149000Y-30551000D01*
X69148000Y-30554000D01*
X69146000Y-30556000D01*
X69145000Y-30558000D01*
X69143000Y-30560000D01*
X69142000Y-30562000D01*
X69140000Y-30564000D01*
X69138000Y-30566000D01*
X69136000Y-30568000D01*
X69134000Y-30570000D01*
X69132000Y-30571000D01*
X69130000Y-30573000D01*
X69128000Y-30574000D01*
X69126000Y-30576000D01*
X69123000Y-30577000D01*
X69121000Y-30578000D01*
X69118000Y-30579000D01*
X69116000Y-30579000D01*
X69113000Y-30580000D01*
X69111000Y-30580000D01*
X69108000Y-30581000D01*
X69106000Y-30581000D01*
X69103000Y-30581000D01*
X67513000Y-30581000D01*
X67510000Y-30581000D01*
X67508000Y-30581000D01*
X67505000Y-30580000D01*
X67503000Y-30580000D01*
X67500000Y-30579000D01*
X67498000Y-30579000D01*
X67495000Y-30578000D01*
X67493000Y-30577000D01*
X67490000Y-30576000D01*
X67488000Y-30574000D01*
X67486000Y-30573000D01*
X67484000Y-30571000D01*
X67482000Y-30570000D01*
X67480000Y-30568000D01*
X67478000Y-30566000D01*
X67476000Y-30564000D01*
X67474000Y-30562000D01*
X67473000Y-30560000D01*
X67471000Y-30558000D01*
X67470000Y-30556000D01*
X67468000Y-30554000D01*
X67467000Y-30551000D01*
X67466000Y-30549000D01*
X67465000Y-30546000D01*
X67465000Y-30544000D01*
X67464000Y-30541000D01*
X67464000Y-30539000D01*
X67463000Y-30536000D01*
X67463000Y-30534000D01*
X67463000Y-30531000D01*
X67463000Y-29891000D01*
X67463000Y-29888000D01*
X67463000Y-29886000D01*
X67464000Y-29883000D01*
X67464000Y-29881000D01*
X67465000Y-29878000D01*
X67465000Y-29876000D01*
X67466000Y-29873000D01*
X67467000Y-29871000D01*
X67468000Y-29868000D01*
X67470000Y-29866000D01*
X67471000Y-29864000D01*
X67473000Y-29862000D01*
X67474000Y-29860000D01*
X67476000Y-29858000D01*
X67478000Y-29856000D01*
X67480000Y-29854000D01*
X67482000Y-29852000D01*
X67484000Y-29851000D01*
X67486000Y-29849000D01*
X67488000Y-29848000D01*
X67490000Y-29846000D01*
X67493000Y-29845000D01*
X67495000Y-29844000D01*
X67498000Y-29843000D01*
X67500000Y-29843000D01*
X67503000Y-29842000D01*
X67505000Y-29842000D01*
X67508000Y-29841000D01*
X67510000Y-29841000D01*
X67513000Y-29841000D01*
X69103000Y-29841000D01*
X69106000Y-29841000D01*
X69108000Y-29841000D01*
X69111000Y-29842000D01*
G37*
X69111000Y-28572000D02*
X69113000Y-28572000D01*
X69116000Y-28573000D01*
X69118000Y-28573000D01*
X69121000Y-28574000D01*
X69123000Y-28575000D01*
X69126000Y-28576000D01*
X69128000Y-28578000D01*
X69130000Y-28579000D01*
X69132000Y-28581000D01*
X69134000Y-28582000D01*
X69136000Y-28584000D01*
X69138000Y-28586000D01*
X69140000Y-28588000D01*
X69142000Y-28590000D01*
X69143000Y-28592000D01*
X69145000Y-28594000D01*
X69146000Y-28596000D01*
X69148000Y-28598000D01*
X69149000Y-28601000D01*
X69150000Y-28603000D01*
X69151000Y-28606000D01*
X69151000Y-28608000D01*
X69152000Y-28611000D01*
X69152000Y-28613000D01*
X69153000Y-28616000D01*
X69153000Y-28618000D01*
X69153000Y-28621000D01*
X69153000Y-29261000D01*
X69153000Y-29264000D01*
X69153000Y-29266000D01*
X69152000Y-29269000D01*
X69152000Y-29271000D01*
X69151000Y-29274000D01*
X69151000Y-29276000D01*
X69150000Y-29279000D01*
X69149000Y-29281000D01*
X69148000Y-29284000D01*
X69146000Y-29286000D01*
X69145000Y-29288000D01*
X69143000Y-29290000D01*
X69142000Y-29292000D01*
X69140000Y-29294000D01*
X69138000Y-29296000D01*
X69136000Y-29298000D01*
X69134000Y-29300000D01*
X69132000Y-29301000D01*
X69130000Y-29303000D01*
X69128000Y-29304000D01*
X69126000Y-29306000D01*
X69123000Y-29307000D01*
X69121000Y-29308000D01*
X69118000Y-29309000D01*
X69116000Y-29309000D01*
X69113000Y-29310000D01*
X69111000Y-29310000D01*
X69108000Y-29311000D01*
X69106000Y-29311000D01*
X69103000Y-29311000D01*
X67513000Y-29311000D01*
X67510000Y-29311000D01*
X67508000Y-29311000D01*
X67505000Y-29310000D01*
X67503000Y-29310000D01*
X67500000Y-29309000D01*
X67498000Y-29309000D01*
X67495000Y-29308000D01*
X67493000Y-29307000D01*
X67490000Y-29306000D01*
X67488000Y-29304000D01*
X67486000Y-29303000D01*
X67484000Y-29301000D01*
X67482000Y-29300000D01*
X67480000Y-29298000D01*
X67478000Y-29296000D01*
X67476000Y-29294000D01*
X67474000Y-29292000D01*
X67473000Y-29290000D01*
X67471000Y-29288000D01*
X67470000Y-29286000D01*
X67468000Y-29284000D01*
X67467000Y-29281000D01*
X67466000Y-29279000D01*
X67465000Y-29276000D01*
X67465000Y-29274000D01*
X67464000Y-29271000D01*
X67464000Y-29269000D01*
X67463000Y-29266000D01*
X67463000Y-29264000D01*
X67463000Y-29261000D01*
X67463000Y-28621000D01*
X67463000Y-28618000D01*
X67463000Y-28616000D01*
X67464000Y-28613000D01*
X67464000Y-28611000D01*
X67465000Y-28608000D01*
X67465000Y-28606000D01*
X67466000Y-28603000D01*
X67467000Y-28601000D01*
X67468000Y-28598000D01*
X67470000Y-28596000D01*
X67471000Y-28594000D01*
X67473000Y-28592000D01*
X67474000Y-28590000D01*
X67476000Y-28588000D01*
X67478000Y-28586000D01*
X67480000Y-28584000D01*
X67482000Y-28582000D01*
X67484000Y-28581000D01*
X67486000Y-28579000D01*
X67488000Y-28578000D01*
X67490000Y-28576000D01*
X67493000Y-28575000D01*
X67495000Y-28574000D01*
X67498000Y-28573000D01*
X67500000Y-28573000D01*
X67503000Y-28572000D01*
X67505000Y-28572000D01*
X67508000Y-28571000D01*
X67510000Y-28571000D01*
X67513000Y-28571000D01*
X69103000Y-28571000D01*
X69106000Y-28571000D01*
X69108000Y-28571000D01*
X69111000Y-28572000D01*
G36*
X69111000Y-28572000D02*
G01*
X69113000Y-28572000D01*
X69116000Y-28573000D01*
X69118000Y-28573000D01*
X69121000Y-28574000D01*
X69123000Y-28575000D01*
X69126000Y-28576000D01*
X69128000Y-28578000D01*
X69130000Y-28579000D01*
X69132000Y-28581000D01*
X69134000Y-28582000D01*
X69136000Y-28584000D01*
X69138000Y-28586000D01*
X69140000Y-28588000D01*
X69142000Y-28590000D01*
X69143000Y-28592000D01*
X69145000Y-28594000D01*
X69146000Y-28596000D01*
X69148000Y-28598000D01*
X69149000Y-28601000D01*
X69150000Y-28603000D01*
X69151000Y-28606000D01*
X69151000Y-28608000D01*
X69152000Y-28611000D01*
X69152000Y-28613000D01*
X69153000Y-28616000D01*
X69153000Y-28618000D01*
X69153000Y-28621000D01*
X69153000Y-29261000D01*
X69153000Y-29264000D01*
X69153000Y-29266000D01*
X69152000Y-29269000D01*
X69152000Y-29271000D01*
X69151000Y-29274000D01*
X69151000Y-29276000D01*
X69150000Y-29279000D01*
X69149000Y-29281000D01*
X69148000Y-29284000D01*
X69146000Y-29286000D01*
X69145000Y-29288000D01*
X69143000Y-29290000D01*
X69142000Y-29292000D01*
X69140000Y-29294000D01*
X69138000Y-29296000D01*
X69136000Y-29298000D01*
X69134000Y-29300000D01*
X69132000Y-29301000D01*
X69130000Y-29303000D01*
X69128000Y-29304000D01*
X69126000Y-29306000D01*
X69123000Y-29307000D01*
X69121000Y-29308000D01*
X69118000Y-29309000D01*
X69116000Y-29309000D01*
X69113000Y-29310000D01*
X69111000Y-29310000D01*
X69108000Y-29311000D01*
X69106000Y-29311000D01*
X69103000Y-29311000D01*
X67513000Y-29311000D01*
X67510000Y-29311000D01*
X67508000Y-29311000D01*
X67505000Y-29310000D01*
X67503000Y-29310000D01*
X67500000Y-29309000D01*
X67498000Y-29309000D01*
X67495000Y-29308000D01*
X67493000Y-29307000D01*
X67490000Y-29306000D01*
X67488000Y-29304000D01*
X67486000Y-29303000D01*
X67484000Y-29301000D01*
X67482000Y-29300000D01*
X67480000Y-29298000D01*
X67478000Y-29296000D01*
X67476000Y-29294000D01*
X67474000Y-29292000D01*
X67473000Y-29290000D01*
X67471000Y-29288000D01*
X67470000Y-29286000D01*
X67468000Y-29284000D01*
X67467000Y-29281000D01*
X67466000Y-29279000D01*
X67465000Y-29276000D01*
X67465000Y-29274000D01*
X67464000Y-29271000D01*
X67464000Y-29269000D01*
X67463000Y-29266000D01*
X67463000Y-29264000D01*
X67463000Y-29261000D01*
X67463000Y-28621000D01*
X67463000Y-28618000D01*
X67463000Y-28616000D01*
X67464000Y-28613000D01*
X67464000Y-28611000D01*
X67465000Y-28608000D01*
X67465000Y-28606000D01*
X67466000Y-28603000D01*
X67467000Y-28601000D01*
X67468000Y-28598000D01*
X67470000Y-28596000D01*
X67471000Y-28594000D01*
X67473000Y-28592000D01*
X67474000Y-28590000D01*
X67476000Y-28588000D01*
X67478000Y-28586000D01*
X67480000Y-28584000D01*
X67482000Y-28582000D01*
X67484000Y-28581000D01*
X67486000Y-28579000D01*
X67488000Y-28578000D01*
X67490000Y-28576000D01*
X67493000Y-28575000D01*
X67495000Y-28574000D01*
X67498000Y-28573000D01*
X67500000Y-28573000D01*
X67503000Y-28572000D01*
X67505000Y-28572000D01*
X67508000Y-28571000D01*
X67510000Y-28571000D01*
X67513000Y-28571000D01*
X69103000Y-28571000D01*
X69106000Y-28571000D01*
X69108000Y-28571000D01*
X69111000Y-28572000D01*
G37*
%TO.C,IC1*%
X93651000Y-32561000D02*
X90941000Y-32561000D01*
X90941000Y-29161000D01*
X93651000Y-29161000D01*
X93651000Y-32561000D01*
G36*
X93651000Y-32561000D02*
G01*
X90941000Y-32561000D01*
X90941000Y-29161000D01*
X93651000Y-29161000D01*
X93651000Y-32561000D01*
G37*
X90399000Y-28587000D02*
X90401000Y-28587000D01*
X90404000Y-28588000D01*
X90406000Y-28588000D01*
X90409000Y-28589000D01*
X90411000Y-28590000D01*
X90414000Y-28591000D01*
X90416000Y-28593000D01*
X90418000Y-28594000D01*
X90420000Y-28596000D01*
X90422000Y-28597000D01*
X90424000Y-28599000D01*
X90426000Y-28601000D01*
X90428000Y-28603000D01*
X90430000Y-28605000D01*
X90431000Y-28607000D01*
X90433000Y-28609000D01*
X90434000Y-28611000D01*
X90436000Y-28613000D01*
X90437000Y-28616000D01*
X90438000Y-28618000D01*
X90439000Y-28621000D01*
X90439000Y-28623000D01*
X90440000Y-28626000D01*
X90440000Y-28628000D01*
X90441000Y-28631000D01*
X90441000Y-28633000D01*
X90441000Y-28636000D01*
X90441000Y-29276000D01*
X90441000Y-29279000D01*
X90441000Y-29281000D01*
X90440000Y-29284000D01*
X90440000Y-29286000D01*
X90439000Y-29289000D01*
X90439000Y-29291000D01*
X90438000Y-29294000D01*
X90437000Y-29296000D01*
X90436000Y-29299000D01*
X90434000Y-29301000D01*
X90433000Y-29303000D01*
X90431000Y-29305000D01*
X90430000Y-29307000D01*
X90428000Y-29309000D01*
X90426000Y-29311000D01*
X90424000Y-29313000D01*
X90422000Y-29315000D01*
X90420000Y-29316000D01*
X90418000Y-29318000D01*
X90416000Y-29319000D01*
X90414000Y-29321000D01*
X90411000Y-29322000D01*
X90409000Y-29323000D01*
X90406000Y-29324000D01*
X90404000Y-29324000D01*
X90401000Y-29325000D01*
X90399000Y-29325000D01*
X90396000Y-29326000D01*
X90394000Y-29326000D01*
X90391000Y-29326000D01*
X88801000Y-29326000D01*
X88798000Y-29326000D01*
X88796000Y-29326000D01*
X88793000Y-29325000D01*
X88791000Y-29325000D01*
X88788000Y-29324000D01*
X88786000Y-29324000D01*
X88783000Y-29323000D01*
X88781000Y-29322000D01*
X88778000Y-29321000D01*
X88776000Y-29319000D01*
X88774000Y-29318000D01*
X88772000Y-29316000D01*
X88770000Y-29315000D01*
X88768000Y-29313000D01*
X88766000Y-29311000D01*
X88764000Y-29309000D01*
X88762000Y-29307000D01*
X88761000Y-29305000D01*
X88759000Y-29303000D01*
X88758000Y-29301000D01*
X88756000Y-29299000D01*
X88755000Y-29296000D01*
X88754000Y-29294000D01*
X88753000Y-29291000D01*
X88753000Y-29289000D01*
X88752000Y-29286000D01*
X88752000Y-29284000D01*
X88751000Y-29281000D01*
X88751000Y-29279000D01*
X88751000Y-29276000D01*
X88751000Y-28636000D01*
X88751000Y-28633000D01*
X88751000Y-28631000D01*
X88752000Y-28628000D01*
X88752000Y-28626000D01*
X88753000Y-28623000D01*
X88753000Y-28621000D01*
X88754000Y-28618000D01*
X88755000Y-28616000D01*
X88756000Y-28613000D01*
X88758000Y-28611000D01*
X88759000Y-28609000D01*
X88761000Y-28607000D01*
X88762000Y-28605000D01*
X88764000Y-28603000D01*
X88766000Y-28601000D01*
X88768000Y-28599000D01*
X88770000Y-28597000D01*
X88772000Y-28596000D01*
X88774000Y-28594000D01*
X88776000Y-28593000D01*
X88778000Y-28591000D01*
X88781000Y-28590000D01*
X88783000Y-28589000D01*
X88786000Y-28588000D01*
X88788000Y-28588000D01*
X88791000Y-28587000D01*
X88793000Y-28587000D01*
X88796000Y-28586000D01*
X88798000Y-28586000D01*
X88801000Y-28586000D01*
X90391000Y-28586000D01*
X90394000Y-28586000D01*
X90396000Y-28586000D01*
X90399000Y-28587000D01*
G36*
X90399000Y-28587000D02*
G01*
X90401000Y-28587000D01*
X90404000Y-28588000D01*
X90406000Y-28588000D01*
X90409000Y-28589000D01*
X90411000Y-28590000D01*
X90414000Y-28591000D01*
X90416000Y-28593000D01*
X90418000Y-28594000D01*
X90420000Y-28596000D01*
X90422000Y-28597000D01*
X90424000Y-28599000D01*
X90426000Y-28601000D01*
X90428000Y-28603000D01*
X90430000Y-28605000D01*
X90431000Y-28607000D01*
X90433000Y-28609000D01*
X90434000Y-28611000D01*
X90436000Y-28613000D01*
X90437000Y-28616000D01*
X90438000Y-28618000D01*
X90439000Y-28621000D01*
X90439000Y-28623000D01*
X90440000Y-28626000D01*
X90440000Y-28628000D01*
X90441000Y-28631000D01*
X90441000Y-28633000D01*
X90441000Y-28636000D01*
X90441000Y-29276000D01*
X90441000Y-29279000D01*
X90441000Y-29281000D01*
X90440000Y-29284000D01*
X90440000Y-29286000D01*
X90439000Y-29289000D01*
X90439000Y-29291000D01*
X90438000Y-29294000D01*
X90437000Y-29296000D01*
X90436000Y-29299000D01*
X90434000Y-29301000D01*
X90433000Y-29303000D01*
X90431000Y-29305000D01*
X90430000Y-29307000D01*
X90428000Y-29309000D01*
X90426000Y-29311000D01*
X90424000Y-29313000D01*
X90422000Y-29315000D01*
X90420000Y-29316000D01*
X90418000Y-29318000D01*
X90416000Y-29319000D01*
X90414000Y-29321000D01*
X90411000Y-29322000D01*
X90409000Y-29323000D01*
X90406000Y-29324000D01*
X90404000Y-29324000D01*
X90401000Y-29325000D01*
X90399000Y-29325000D01*
X90396000Y-29326000D01*
X90394000Y-29326000D01*
X90391000Y-29326000D01*
X88801000Y-29326000D01*
X88798000Y-29326000D01*
X88796000Y-29326000D01*
X88793000Y-29325000D01*
X88791000Y-29325000D01*
X88788000Y-29324000D01*
X88786000Y-29324000D01*
X88783000Y-29323000D01*
X88781000Y-29322000D01*
X88778000Y-29321000D01*
X88776000Y-29319000D01*
X88774000Y-29318000D01*
X88772000Y-29316000D01*
X88770000Y-29315000D01*
X88768000Y-29313000D01*
X88766000Y-29311000D01*
X88764000Y-29309000D01*
X88762000Y-29307000D01*
X88761000Y-29305000D01*
X88759000Y-29303000D01*
X88758000Y-29301000D01*
X88756000Y-29299000D01*
X88755000Y-29296000D01*
X88754000Y-29294000D01*
X88753000Y-29291000D01*
X88753000Y-29289000D01*
X88752000Y-29286000D01*
X88752000Y-29284000D01*
X88751000Y-29281000D01*
X88751000Y-29279000D01*
X88751000Y-29276000D01*
X88751000Y-28636000D01*
X88751000Y-28633000D01*
X88751000Y-28631000D01*
X88752000Y-28628000D01*
X88752000Y-28626000D01*
X88753000Y-28623000D01*
X88753000Y-28621000D01*
X88754000Y-28618000D01*
X88755000Y-28616000D01*
X88756000Y-28613000D01*
X88758000Y-28611000D01*
X88759000Y-28609000D01*
X88761000Y-28607000D01*
X88762000Y-28605000D01*
X88764000Y-28603000D01*
X88766000Y-28601000D01*
X88768000Y-28599000D01*
X88770000Y-28597000D01*
X88772000Y-28596000D01*
X88774000Y-28594000D01*
X88776000Y-28593000D01*
X88778000Y-28591000D01*
X88781000Y-28590000D01*
X88783000Y-28589000D01*
X88786000Y-28588000D01*
X88788000Y-28588000D01*
X88791000Y-28587000D01*
X88793000Y-28587000D01*
X88796000Y-28586000D01*
X88798000Y-28586000D01*
X88801000Y-28586000D01*
X90391000Y-28586000D01*
X90394000Y-28586000D01*
X90396000Y-28586000D01*
X90399000Y-28587000D01*
G37*
X90399000Y-29857000D02*
X90401000Y-29857000D01*
X90404000Y-29858000D01*
X90406000Y-29858000D01*
X90409000Y-29859000D01*
X90411000Y-29860000D01*
X90414000Y-29861000D01*
X90416000Y-29863000D01*
X90418000Y-29864000D01*
X90420000Y-29866000D01*
X90422000Y-29867000D01*
X90424000Y-29869000D01*
X90426000Y-29871000D01*
X90428000Y-29873000D01*
X90430000Y-29875000D01*
X90431000Y-29877000D01*
X90433000Y-29879000D01*
X90434000Y-29881000D01*
X90436000Y-29883000D01*
X90437000Y-29886000D01*
X90438000Y-29888000D01*
X90439000Y-29891000D01*
X90439000Y-29893000D01*
X90440000Y-29896000D01*
X90440000Y-29898000D01*
X90441000Y-29901000D01*
X90441000Y-29903000D01*
X90441000Y-29906000D01*
X90441000Y-30546000D01*
X90441000Y-30549000D01*
X90441000Y-30551000D01*
X90440000Y-30554000D01*
X90440000Y-30556000D01*
X90439000Y-30559000D01*
X90439000Y-30561000D01*
X90438000Y-30564000D01*
X90437000Y-30566000D01*
X90436000Y-30569000D01*
X90434000Y-30571000D01*
X90433000Y-30573000D01*
X90431000Y-30575000D01*
X90430000Y-30577000D01*
X90428000Y-30579000D01*
X90426000Y-30581000D01*
X90424000Y-30583000D01*
X90422000Y-30585000D01*
X90420000Y-30586000D01*
X90418000Y-30588000D01*
X90416000Y-30589000D01*
X90414000Y-30591000D01*
X90411000Y-30592000D01*
X90409000Y-30593000D01*
X90406000Y-30594000D01*
X90404000Y-30594000D01*
X90401000Y-30595000D01*
X90399000Y-30595000D01*
X90396000Y-30596000D01*
X90394000Y-30596000D01*
X90391000Y-30596000D01*
X88801000Y-30596000D01*
X88798000Y-30596000D01*
X88796000Y-30596000D01*
X88793000Y-30595000D01*
X88791000Y-30595000D01*
X88788000Y-30594000D01*
X88786000Y-30594000D01*
X88783000Y-30593000D01*
X88781000Y-30592000D01*
X88778000Y-30591000D01*
X88776000Y-30589000D01*
X88774000Y-30588000D01*
X88772000Y-30586000D01*
X88770000Y-30585000D01*
X88768000Y-30583000D01*
X88766000Y-30581000D01*
X88764000Y-30579000D01*
X88762000Y-30577000D01*
X88761000Y-30575000D01*
X88759000Y-30573000D01*
X88758000Y-30571000D01*
X88756000Y-30569000D01*
X88755000Y-30566000D01*
X88754000Y-30564000D01*
X88753000Y-30561000D01*
X88753000Y-30559000D01*
X88752000Y-30556000D01*
X88752000Y-30554000D01*
X88751000Y-30551000D01*
X88751000Y-30549000D01*
X88751000Y-30546000D01*
X88751000Y-29906000D01*
X88751000Y-29903000D01*
X88751000Y-29901000D01*
X88752000Y-29898000D01*
X88752000Y-29896000D01*
X88753000Y-29893000D01*
X88753000Y-29891000D01*
X88754000Y-29888000D01*
X88755000Y-29886000D01*
X88756000Y-29883000D01*
X88758000Y-29881000D01*
X88759000Y-29879000D01*
X88761000Y-29877000D01*
X88762000Y-29875000D01*
X88764000Y-29873000D01*
X88766000Y-29871000D01*
X88768000Y-29869000D01*
X88770000Y-29867000D01*
X88772000Y-29866000D01*
X88774000Y-29864000D01*
X88776000Y-29863000D01*
X88778000Y-29861000D01*
X88781000Y-29860000D01*
X88783000Y-29859000D01*
X88786000Y-29858000D01*
X88788000Y-29858000D01*
X88791000Y-29857000D01*
X88793000Y-29857000D01*
X88796000Y-29856000D01*
X88798000Y-29856000D01*
X88801000Y-29856000D01*
X90391000Y-29856000D01*
X90394000Y-29856000D01*
X90396000Y-29856000D01*
X90399000Y-29857000D01*
G36*
X90399000Y-29857000D02*
G01*
X90401000Y-29857000D01*
X90404000Y-29858000D01*
X90406000Y-29858000D01*
X90409000Y-29859000D01*
X90411000Y-29860000D01*
X90414000Y-29861000D01*
X90416000Y-29863000D01*
X90418000Y-29864000D01*
X90420000Y-29866000D01*
X90422000Y-29867000D01*
X90424000Y-29869000D01*
X90426000Y-29871000D01*
X90428000Y-29873000D01*
X90430000Y-29875000D01*
X90431000Y-29877000D01*
X90433000Y-29879000D01*
X90434000Y-29881000D01*
X90436000Y-29883000D01*
X90437000Y-29886000D01*
X90438000Y-29888000D01*
X90439000Y-29891000D01*
X90439000Y-29893000D01*
X90440000Y-29896000D01*
X90440000Y-29898000D01*
X90441000Y-29901000D01*
X90441000Y-29903000D01*
X90441000Y-29906000D01*
X90441000Y-30546000D01*
X90441000Y-30549000D01*
X90441000Y-30551000D01*
X90440000Y-30554000D01*
X90440000Y-30556000D01*
X90439000Y-30559000D01*
X90439000Y-30561000D01*
X90438000Y-30564000D01*
X90437000Y-30566000D01*
X90436000Y-30569000D01*
X90434000Y-30571000D01*
X90433000Y-30573000D01*
X90431000Y-30575000D01*
X90430000Y-30577000D01*
X90428000Y-30579000D01*
X90426000Y-30581000D01*
X90424000Y-30583000D01*
X90422000Y-30585000D01*
X90420000Y-30586000D01*
X90418000Y-30588000D01*
X90416000Y-30589000D01*
X90414000Y-30591000D01*
X90411000Y-30592000D01*
X90409000Y-30593000D01*
X90406000Y-30594000D01*
X90404000Y-30594000D01*
X90401000Y-30595000D01*
X90399000Y-30595000D01*
X90396000Y-30596000D01*
X90394000Y-30596000D01*
X90391000Y-30596000D01*
X88801000Y-30596000D01*
X88798000Y-30596000D01*
X88796000Y-30596000D01*
X88793000Y-30595000D01*
X88791000Y-30595000D01*
X88788000Y-30594000D01*
X88786000Y-30594000D01*
X88783000Y-30593000D01*
X88781000Y-30592000D01*
X88778000Y-30591000D01*
X88776000Y-30589000D01*
X88774000Y-30588000D01*
X88772000Y-30586000D01*
X88770000Y-30585000D01*
X88768000Y-30583000D01*
X88766000Y-30581000D01*
X88764000Y-30579000D01*
X88762000Y-30577000D01*
X88761000Y-30575000D01*
X88759000Y-30573000D01*
X88758000Y-30571000D01*
X88756000Y-30569000D01*
X88755000Y-30566000D01*
X88754000Y-30564000D01*
X88753000Y-30561000D01*
X88753000Y-30559000D01*
X88752000Y-30556000D01*
X88752000Y-30554000D01*
X88751000Y-30551000D01*
X88751000Y-30549000D01*
X88751000Y-30546000D01*
X88751000Y-29906000D01*
X88751000Y-29903000D01*
X88751000Y-29901000D01*
X88752000Y-29898000D01*
X88752000Y-29896000D01*
X88753000Y-29893000D01*
X88753000Y-29891000D01*
X88754000Y-29888000D01*
X88755000Y-29886000D01*
X88756000Y-29883000D01*
X88758000Y-29881000D01*
X88759000Y-29879000D01*
X88761000Y-29877000D01*
X88762000Y-29875000D01*
X88764000Y-29873000D01*
X88766000Y-29871000D01*
X88768000Y-29869000D01*
X88770000Y-29867000D01*
X88772000Y-29866000D01*
X88774000Y-29864000D01*
X88776000Y-29863000D01*
X88778000Y-29861000D01*
X88781000Y-29860000D01*
X88783000Y-29859000D01*
X88786000Y-29858000D01*
X88788000Y-29858000D01*
X88791000Y-29857000D01*
X88793000Y-29857000D01*
X88796000Y-29856000D01*
X88798000Y-29856000D01*
X88801000Y-29856000D01*
X90391000Y-29856000D01*
X90394000Y-29856000D01*
X90396000Y-29856000D01*
X90399000Y-29857000D01*
G37*
X90399000Y-31127000D02*
X90401000Y-31127000D01*
X90404000Y-31128000D01*
X90406000Y-31128000D01*
X90409000Y-31129000D01*
X90411000Y-31130000D01*
X90414000Y-31131000D01*
X90416000Y-31133000D01*
X90418000Y-31134000D01*
X90420000Y-31136000D01*
X90422000Y-31137000D01*
X90424000Y-31139000D01*
X90426000Y-31141000D01*
X90428000Y-31143000D01*
X90430000Y-31145000D01*
X90431000Y-31147000D01*
X90433000Y-31149000D01*
X90434000Y-31151000D01*
X90436000Y-31153000D01*
X90437000Y-31156000D01*
X90438000Y-31158000D01*
X90439000Y-31161000D01*
X90439000Y-31163000D01*
X90440000Y-31166000D01*
X90440000Y-31168000D01*
X90441000Y-31171000D01*
X90441000Y-31173000D01*
X90441000Y-31176000D01*
X90441000Y-31816000D01*
X90441000Y-31819000D01*
X90441000Y-31821000D01*
X90440000Y-31824000D01*
X90440000Y-31826000D01*
X90439000Y-31829000D01*
X90439000Y-31831000D01*
X90438000Y-31834000D01*
X90437000Y-31836000D01*
X90436000Y-31839000D01*
X90434000Y-31841000D01*
X90433000Y-31843000D01*
X90431000Y-31845000D01*
X90430000Y-31847000D01*
X90428000Y-31849000D01*
X90426000Y-31851000D01*
X90424000Y-31853000D01*
X90422000Y-31855000D01*
X90420000Y-31856000D01*
X90418000Y-31858000D01*
X90416000Y-31859000D01*
X90414000Y-31861000D01*
X90411000Y-31862000D01*
X90409000Y-31863000D01*
X90406000Y-31864000D01*
X90404000Y-31864000D01*
X90401000Y-31865000D01*
X90399000Y-31865000D01*
X90396000Y-31866000D01*
X90394000Y-31866000D01*
X90391000Y-31866000D01*
X88801000Y-31866000D01*
X88798000Y-31866000D01*
X88796000Y-31866000D01*
X88793000Y-31865000D01*
X88791000Y-31865000D01*
X88788000Y-31864000D01*
X88786000Y-31864000D01*
X88783000Y-31863000D01*
X88781000Y-31862000D01*
X88778000Y-31861000D01*
X88776000Y-31859000D01*
X88774000Y-31858000D01*
X88772000Y-31856000D01*
X88770000Y-31855000D01*
X88768000Y-31853000D01*
X88766000Y-31851000D01*
X88764000Y-31849000D01*
X88762000Y-31847000D01*
X88761000Y-31845000D01*
X88759000Y-31843000D01*
X88758000Y-31841000D01*
X88756000Y-31839000D01*
X88755000Y-31836000D01*
X88754000Y-31834000D01*
X88753000Y-31831000D01*
X88753000Y-31829000D01*
X88752000Y-31826000D01*
X88752000Y-31824000D01*
X88751000Y-31821000D01*
X88751000Y-31819000D01*
X88751000Y-31816000D01*
X88751000Y-31176000D01*
X88751000Y-31173000D01*
X88751000Y-31171000D01*
X88752000Y-31168000D01*
X88752000Y-31166000D01*
X88753000Y-31163000D01*
X88753000Y-31161000D01*
X88754000Y-31158000D01*
X88755000Y-31156000D01*
X88756000Y-31153000D01*
X88758000Y-31151000D01*
X88759000Y-31149000D01*
X88761000Y-31147000D01*
X88762000Y-31145000D01*
X88764000Y-31143000D01*
X88766000Y-31141000D01*
X88768000Y-31139000D01*
X88770000Y-31137000D01*
X88772000Y-31136000D01*
X88774000Y-31134000D01*
X88776000Y-31133000D01*
X88778000Y-31131000D01*
X88781000Y-31130000D01*
X88783000Y-31129000D01*
X88786000Y-31128000D01*
X88788000Y-31128000D01*
X88791000Y-31127000D01*
X88793000Y-31127000D01*
X88796000Y-31126000D01*
X88798000Y-31126000D01*
X88801000Y-31126000D01*
X90391000Y-31126000D01*
X90394000Y-31126000D01*
X90396000Y-31126000D01*
X90399000Y-31127000D01*
G36*
X90399000Y-31127000D02*
G01*
X90401000Y-31127000D01*
X90404000Y-31128000D01*
X90406000Y-31128000D01*
X90409000Y-31129000D01*
X90411000Y-31130000D01*
X90414000Y-31131000D01*
X90416000Y-31133000D01*
X90418000Y-31134000D01*
X90420000Y-31136000D01*
X90422000Y-31137000D01*
X90424000Y-31139000D01*
X90426000Y-31141000D01*
X90428000Y-31143000D01*
X90430000Y-31145000D01*
X90431000Y-31147000D01*
X90433000Y-31149000D01*
X90434000Y-31151000D01*
X90436000Y-31153000D01*
X90437000Y-31156000D01*
X90438000Y-31158000D01*
X90439000Y-31161000D01*
X90439000Y-31163000D01*
X90440000Y-31166000D01*
X90440000Y-31168000D01*
X90441000Y-31171000D01*
X90441000Y-31173000D01*
X90441000Y-31176000D01*
X90441000Y-31816000D01*
X90441000Y-31819000D01*
X90441000Y-31821000D01*
X90440000Y-31824000D01*
X90440000Y-31826000D01*
X90439000Y-31829000D01*
X90439000Y-31831000D01*
X90438000Y-31834000D01*
X90437000Y-31836000D01*
X90436000Y-31839000D01*
X90434000Y-31841000D01*
X90433000Y-31843000D01*
X90431000Y-31845000D01*
X90430000Y-31847000D01*
X90428000Y-31849000D01*
X90426000Y-31851000D01*
X90424000Y-31853000D01*
X90422000Y-31855000D01*
X90420000Y-31856000D01*
X90418000Y-31858000D01*
X90416000Y-31859000D01*
X90414000Y-31861000D01*
X90411000Y-31862000D01*
X90409000Y-31863000D01*
X90406000Y-31864000D01*
X90404000Y-31864000D01*
X90401000Y-31865000D01*
X90399000Y-31865000D01*
X90396000Y-31866000D01*
X90394000Y-31866000D01*
X90391000Y-31866000D01*
X88801000Y-31866000D01*
X88798000Y-31866000D01*
X88796000Y-31866000D01*
X88793000Y-31865000D01*
X88791000Y-31865000D01*
X88788000Y-31864000D01*
X88786000Y-31864000D01*
X88783000Y-31863000D01*
X88781000Y-31862000D01*
X88778000Y-31861000D01*
X88776000Y-31859000D01*
X88774000Y-31858000D01*
X88772000Y-31856000D01*
X88770000Y-31855000D01*
X88768000Y-31853000D01*
X88766000Y-31851000D01*
X88764000Y-31849000D01*
X88762000Y-31847000D01*
X88761000Y-31845000D01*
X88759000Y-31843000D01*
X88758000Y-31841000D01*
X88756000Y-31839000D01*
X88755000Y-31836000D01*
X88754000Y-31834000D01*
X88753000Y-31831000D01*
X88753000Y-31829000D01*
X88752000Y-31826000D01*
X88752000Y-31824000D01*
X88751000Y-31821000D01*
X88751000Y-31819000D01*
X88751000Y-31816000D01*
X88751000Y-31176000D01*
X88751000Y-31173000D01*
X88751000Y-31171000D01*
X88752000Y-31168000D01*
X88752000Y-31166000D01*
X88753000Y-31163000D01*
X88753000Y-31161000D01*
X88754000Y-31158000D01*
X88755000Y-31156000D01*
X88756000Y-31153000D01*
X88758000Y-31151000D01*
X88759000Y-31149000D01*
X88761000Y-31147000D01*
X88762000Y-31145000D01*
X88764000Y-31143000D01*
X88766000Y-31141000D01*
X88768000Y-31139000D01*
X88770000Y-31137000D01*
X88772000Y-31136000D01*
X88774000Y-31134000D01*
X88776000Y-31133000D01*
X88778000Y-31131000D01*
X88781000Y-31130000D01*
X88783000Y-31129000D01*
X88786000Y-31128000D01*
X88788000Y-31128000D01*
X88791000Y-31127000D01*
X88793000Y-31127000D01*
X88796000Y-31126000D01*
X88798000Y-31126000D01*
X88801000Y-31126000D01*
X90391000Y-31126000D01*
X90394000Y-31126000D01*
X90396000Y-31126000D01*
X90399000Y-31127000D01*
G37*
X90399000Y-32397000D02*
X90401000Y-32397000D01*
X90404000Y-32398000D01*
X90406000Y-32398000D01*
X90409000Y-32399000D01*
X90411000Y-32400000D01*
X90414000Y-32401000D01*
X90416000Y-32403000D01*
X90418000Y-32404000D01*
X90420000Y-32406000D01*
X90422000Y-32407000D01*
X90424000Y-32409000D01*
X90426000Y-32411000D01*
X90428000Y-32413000D01*
X90430000Y-32415000D01*
X90431000Y-32417000D01*
X90433000Y-32419000D01*
X90434000Y-32421000D01*
X90436000Y-32423000D01*
X90437000Y-32426000D01*
X90438000Y-32428000D01*
X90439000Y-32431000D01*
X90439000Y-32433000D01*
X90440000Y-32436000D01*
X90440000Y-32438000D01*
X90441000Y-32441000D01*
X90441000Y-32443000D01*
X90441000Y-32446000D01*
X90441000Y-33086000D01*
X90441000Y-33089000D01*
X90441000Y-33091000D01*
X90440000Y-33094000D01*
X90440000Y-33096000D01*
X90439000Y-33099000D01*
X90439000Y-33101000D01*
X90438000Y-33104000D01*
X90437000Y-33106000D01*
X90436000Y-33109000D01*
X90434000Y-33111000D01*
X90433000Y-33113000D01*
X90431000Y-33115000D01*
X90430000Y-33117000D01*
X90428000Y-33119000D01*
X90426000Y-33121000D01*
X90424000Y-33123000D01*
X90422000Y-33125000D01*
X90420000Y-33126000D01*
X90418000Y-33128000D01*
X90416000Y-33129000D01*
X90414000Y-33131000D01*
X90411000Y-33132000D01*
X90409000Y-33133000D01*
X90406000Y-33134000D01*
X90404000Y-33134000D01*
X90401000Y-33135000D01*
X90399000Y-33135000D01*
X90396000Y-33136000D01*
X90394000Y-33136000D01*
X90391000Y-33136000D01*
X88801000Y-33136000D01*
X88798000Y-33136000D01*
X88796000Y-33136000D01*
X88793000Y-33135000D01*
X88791000Y-33135000D01*
X88788000Y-33134000D01*
X88786000Y-33134000D01*
X88783000Y-33133000D01*
X88781000Y-33132000D01*
X88778000Y-33131000D01*
X88776000Y-33129000D01*
X88774000Y-33128000D01*
X88772000Y-33126000D01*
X88770000Y-33125000D01*
X88768000Y-33123000D01*
X88766000Y-33121000D01*
X88764000Y-33119000D01*
X88762000Y-33117000D01*
X88761000Y-33115000D01*
X88759000Y-33113000D01*
X88758000Y-33111000D01*
X88756000Y-33109000D01*
X88755000Y-33106000D01*
X88754000Y-33104000D01*
X88753000Y-33101000D01*
X88753000Y-33099000D01*
X88752000Y-33096000D01*
X88752000Y-33094000D01*
X88751000Y-33091000D01*
X88751000Y-33089000D01*
X88751000Y-33086000D01*
X88751000Y-32446000D01*
X88751000Y-32443000D01*
X88751000Y-32441000D01*
X88752000Y-32438000D01*
X88752000Y-32436000D01*
X88753000Y-32433000D01*
X88753000Y-32431000D01*
X88754000Y-32428000D01*
X88755000Y-32426000D01*
X88756000Y-32423000D01*
X88758000Y-32421000D01*
X88759000Y-32419000D01*
X88761000Y-32417000D01*
X88762000Y-32415000D01*
X88764000Y-32413000D01*
X88766000Y-32411000D01*
X88768000Y-32409000D01*
X88770000Y-32407000D01*
X88772000Y-32406000D01*
X88774000Y-32404000D01*
X88776000Y-32403000D01*
X88778000Y-32401000D01*
X88781000Y-32400000D01*
X88783000Y-32399000D01*
X88786000Y-32398000D01*
X88788000Y-32398000D01*
X88791000Y-32397000D01*
X88793000Y-32397000D01*
X88796000Y-32396000D01*
X88798000Y-32396000D01*
X88801000Y-32396000D01*
X90391000Y-32396000D01*
X90394000Y-32396000D01*
X90396000Y-32396000D01*
X90399000Y-32397000D01*
G36*
X90399000Y-32397000D02*
G01*
X90401000Y-32397000D01*
X90404000Y-32398000D01*
X90406000Y-32398000D01*
X90409000Y-32399000D01*
X90411000Y-32400000D01*
X90414000Y-32401000D01*
X90416000Y-32403000D01*
X90418000Y-32404000D01*
X90420000Y-32406000D01*
X90422000Y-32407000D01*
X90424000Y-32409000D01*
X90426000Y-32411000D01*
X90428000Y-32413000D01*
X90430000Y-32415000D01*
X90431000Y-32417000D01*
X90433000Y-32419000D01*
X90434000Y-32421000D01*
X90436000Y-32423000D01*
X90437000Y-32426000D01*
X90438000Y-32428000D01*
X90439000Y-32431000D01*
X90439000Y-32433000D01*
X90440000Y-32436000D01*
X90440000Y-32438000D01*
X90441000Y-32441000D01*
X90441000Y-32443000D01*
X90441000Y-32446000D01*
X90441000Y-33086000D01*
X90441000Y-33089000D01*
X90441000Y-33091000D01*
X90440000Y-33094000D01*
X90440000Y-33096000D01*
X90439000Y-33099000D01*
X90439000Y-33101000D01*
X90438000Y-33104000D01*
X90437000Y-33106000D01*
X90436000Y-33109000D01*
X90434000Y-33111000D01*
X90433000Y-33113000D01*
X90431000Y-33115000D01*
X90430000Y-33117000D01*
X90428000Y-33119000D01*
X90426000Y-33121000D01*
X90424000Y-33123000D01*
X90422000Y-33125000D01*
X90420000Y-33126000D01*
X90418000Y-33128000D01*
X90416000Y-33129000D01*
X90414000Y-33131000D01*
X90411000Y-33132000D01*
X90409000Y-33133000D01*
X90406000Y-33134000D01*
X90404000Y-33134000D01*
X90401000Y-33135000D01*
X90399000Y-33135000D01*
X90396000Y-33136000D01*
X90394000Y-33136000D01*
X90391000Y-33136000D01*
X88801000Y-33136000D01*
X88798000Y-33136000D01*
X88796000Y-33136000D01*
X88793000Y-33135000D01*
X88791000Y-33135000D01*
X88788000Y-33134000D01*
X88786000Y-33134000D01*
X88783000Y-33133000D01*
X88781000Y-33132000D01*
X88778000Y-33131000D01*
X88776000Y-33129000D01*
X88774000Y-33128000D01*
X88772000Y-33126000D01*
X88770000Y-33125000D01*
X88768000Y-33123000D01*
X88766000Y-33121000D01*
X88764000Y-33119000D01*
X88762000Y-33117000D01*
X88761000Y-33115000D01*
X88759000Y-33113000D01*
X88758000Y-33111000D01*
X88756000Y-33109000D01*
X88755000Y-33106000D01*
X88754000Y-33104000D01*
X88753000Y-33101000D01*
X88753000Y-33099000D01*
X88752000Y-33096000D01*
X88752000Y-33094000D01*
X88751000Y-33091000D01*
X88751000Y-33089000D01*
X88751000Y-33086000D01*
X88751000Y-32446000D01*
X88751000Y-32443000D01*
X88751000Y-32441000D01*
X88752000Y-32438000D01*
X88752000Y-32436000D01*
X88753000Y-32433000D01*
X88753000Y-32431000D01*
X88754000Y-32428000D01*
X88755000Y-32426000D01*
X88756000Y-32423000D01*
X88758000Y-32421000D01*
X88759000Y-32419000D01*
X88761000Y-32417000D01*
X88762000Y-32415000D01*
X88764000Y-32413000D01*
X88766000Y-32411000D01*
X88768000Y-32409000D01*
X88770000Y-32407000D01*
X88772000Y-32406000D01*
X88774000Y-32404000D01*
X88776000Y-32403000D01*
X88778000Y-32401000D01*
X88781000Y-32400000D01*
X88783000Y-32399000D01*
X88786000Y-32398000D01*
X88788000Y-32398000D01*
X88791000Y-32397000D01*
X88793000Y-32397000D01*
X88796000Y-32396000D01*
X88798000Y-32396000D01*
X88801000Y-32396000D01*
X90391000Y-32396000D01*
X90394000Y-32396000D01*
X90396000Y-32396000D01*
X90399000Y-32397000D01*
G37*
X95799000Y-28587000D02*
X95801000Y-28587000D01*
X95804000Y-28588000D01*
X95806000Y-28588000D01*
X95809000Y-28589000D01*
X95811000Y-28590000D01*
X95814000Y-28591000D01*
X95816000Y-28593000D01*
X95818000Y-28594000D01*
X95820000Y-28596000D01*
X95822000Y-28597000D01*
X95824000Y-28599000D01*
X95826000Y-28601000D01*
X95828000Y-28603000D01*
X95830000Y-28605000D01*
X95831000Y-28607000D01*
X95833000Y-28609000D01*
X95834000Y-28611000D01*
X95836000Y-28613000D01*
X95837000Y-28616000D01*
X95838000Y-28618000D01*
X95839000Y-28621000D01*
X95839000Y-28623000D01*
X95840000Y-28626000D01*
X95840000Y-28628000D01*
X95841000Y-28631000D01*
X95841000Y-28633000D01*
X95841000Y-28636000D01*
X95841000Y-29276000D01*
X95841000Y-29279000D01*
X95841000Y-29281000D01*
X95840000Y-29284000D01*
X95840000Y-29286000D01*
X95839000Y-29289000D01*
X95839000Y-29291000D01*
X95838000Y-29294000D01*
X95837000Y-29296000D01*
X95836000Y-29299000D01*
X95834000Y-29301000D01*
X95833000Y-29303000D01*
X95831000Y-29305000D01*
X95830000Y-29307000D01*
X95828000Y-29309000D01*
X95826000Y-29311000D01*
X95824000Y-29313000D01*
X95822000Y-29315000D01*
X95820000Y-29316000D01*
X95818000Y-29318000D01*
X95816000Y-29319000D01*
X95814000Y-29321000D01*
X95811000Y-29322000D01*
X95809000Y-29323000D01*
X95806000Y-29324000D01*
X95804000Y-29324000D01*
X95801000Y-29325000D01*
X95799000Y-29325000D01*
X95796000Y-29326000D01*
X95794000Y-29326000D01*
X95791000Y-29326000D01*
X94201000Y-29326000D01*
X94198000Y-29326000D01*
X94196000Y-29326000D01*
X94193000Y-29325000D01*
X94191000Y-29325000D01*
X94188000Y-29324000D01*
X94186000Y-29324000D01*
X94183000Y-29323000D01*
X94181000Y-29322000D01*
X94178000Y-29321000D01*
X94176000Y-29319000D01*
X94174000Y-29318000D01*
X94172000Y-29316000D01*
X94170000Y-29315000D01*
X94168000Y-29313000D01*
X94166000Y-29311000D01*
X94164000Y-29309000D01*
X94162000Y-29307000D01*
X94161000Y-29305000D01*
X94159000Y-29303000D01*
X94158000Y-29301000D01*
X94156000Y-29299000D01*
X94155000Y-29296000D01*
X94154000Y-29294000D01*
X94153000Y-29291000D01*
X94153000Y-29289000D01*
X94152000Y-29286000D01*
X94152000Y-29284000D01*
X94151000Y-29281000D01*
X94151000Y-29279000D01*
X94151000Y-29276000D01*
X94151000Y-28636000D01*
X94151000Y-28633000D01*
X94151000Y-28631000D01*
X94152000Y-28628000D01*
X94152000Y-28626000D01*
X94153000Y-28623000D01*
X94153000Y-28621000D01*
X94154000Y-28618000D01*
X94155000Y-28616000D01*
X94156000Y-28613000D01*
X94158000Y-28611000D01*
X94159000Y-28609000D01*
X94161000Y-28607000D01*
X94162000Y-28605000D01*
X94164000Y-28603000D01*
X94166000Y-28601000D01*
X94168000Y-28599000D01*
X94170000Y-28597000D01*
X94172000Y-28596000D01*
X94174000Y-28594000D01*
X94176000Y-28593000D01*
X94178000Y-28591000D01*
X94181000Y-28590000D01*
X94183000Y-28589000D01*
X94186000Y-28588000D01*
X94188000Y-28588000D01*
X94191000Y-28587000D01*
X94193000Y-28587000D01*
X94196000Y-28586000D01*
X94198000Y-28586000D01*
X94201000Y-28586000D01*
X95791000Y-28586000D01*
X95794000Y-28586000D01*
X95796000Y-28586000D01*
X95799000Y-28587000D01*
G36*
X95799000Y-28587000D02*
G01*
X95801000Y-28587000D01*
X95804000Y-28588000D01*
X95806000Y-28588000D01*
X95809000Y-28589000D01*
X95811000Y-28590000D01*
X95814000Y-28591000D01*
X95816000Y-28593000D01*
X95818000Y-28594000D01*
X95820000Y-28596000D01*
X95822000Y-28597000D01*
X95824000Y-28599000D01*
X95826000Y-28601000D01*
X95828000Y-28603000D01*
X95830000Y-28605000D01*
X95831000Y-28607000D01*
X95833000Y-28609000D01*
X95834000Y-28611000D01*
X95836000Y-28613000D01*
X95837000Y-28616000D01*
X95838000Y-28618000D01*
X95839000Y-28621000D01*
X95839000Y-28623000D01*
X95840000Y-28626000D01*
X95840000Y-28628000D01*
X95841000Y-28631000D01*
X95841000Y-28633000D01*
X95841000Y-28636000D01*
X95841000Y-29276000D01*
X95841000Y-29279000D01*
X95841000Y-29281000D01*
X95840000Y-29284000D01*
X95840000Y-29286000D01*
X95839000Y-29289000D01*
X95839000Y-29291000D01*
X95838000Y-29294000D01*
X95837000Y-29296000D01*
X95836000Y-29299000D01*
X95834000Y-29301000D01*
X95833000Y-29303000D01*
X95831000Y-29305000D01*
X95830000Y-29307000D01*
X95828000Y-29309000D01*
X95826000Y-29311000D01*
X95824000Y-29313000D01*
X95822000Y-29315000D01*
X95820000Y-29316000D01*
X95818000Y-29318000D01*
X95816000Y-29319000D01*
X95814000Y-29321000D01*
X95811000Y-29322000D01*
X95809000Y-29323000D01*
X95806000Y-29324000D01*
X95804000Y-29324000D01*
X95801000Y-29325000D01*
X95799000Y-29325000D01*
X95796000Y-29326000D01*
X95794000Y-29326000D01*
X95791000Y-29326000D01*
X94201000Y-29326000D01*
X94198000Y-29326000D01*
X94196000Y-29326000D01*
X94193000Y-29325000D01*
X94191000Y-29325000D01*
X94188000Y-29324000D01*
X94186000Y-29324000D01*
X94183000Y-29323000D01*
X94181000Y-29322000D01*
X94178000Y-29321000D01*
X94176000Y-29319000D01*
X94174000Y-29318000D01*
X94172000Y-29316000D01*
X94170000Y-29315000D01*
X94168000Y-29313000D01*
X94166000Y-29311000D01*
X94164000Y-29309000D01*
X94162000Y-29307000D01*
X94161000Y-29305000D01*
X94159000Y-29303000D01*
X94158000Y-29301000D01*
X94156000Y-29299000D01*
X94155000Y-29296000D01*
X94154000Y-29294000D01*
X94153000Y-29291000D01*
X94153000Y-29289000D01*
X94152000Y-29286000D01*
X94152000Y-29284000D01*
X94151000Y-29281000D01*
X94151000Y-29279000D01*
X94151000Y-29276000D01*
X94151000Y-28636000D01*
X94151000Y-28633000D01*
X94151000Y-28631000D01*
X94152000Y-28628000D01*
X94152000Y-28626000D01*
X94153000Y-28623000D01*
X94153000Y-28621000D01*
X94154000Y-28618000D01*
X94155000Y-28616000D01*
X94156000Y-28613000D01*
X94158000Y-28611000D01*
X94159000Y-28609000D01*
X94161000Y-28607000D01*
X94162000Y-28605000D01*
X94164000Y-28603000D01*
X94166000Y-28601000D01*
X94168000Y-28599000D01*
X94170000Y-28597000D01*
X94172000Y-28596000D01*
X94174000Y-28594000D01*
X94176000Y-28593000D01*
X94178000Y-28591000D01*
X94181000Y-28590000D01*
X94183000Y-28589000D01*
X94186000Y-28588000D01*
X94188000Y-28588000D01*
X94191000Y-28587000D01*
X94193000Y-28587000D01*
X94196000Y-28586000D01*
X94198000Y-28586000D01*
X94201000Y-28586000D01*
X95791000Y-28586000D01*
X95794000Y-28586000D01*
X95796000Y-28586000D01*
X95799000Y-28587000D01*
G37*
X95799000Y-29857000D02*
X95801000Y-29857000D01*
X95804000Y-29858000D01*
X95806000Y-29858000D01*
X95809000Y-29859000D01*
X95811000Y-29860000D01*
X95814000Y-29861000D01*
X95816000Y-29863000D01*
X95818000Y-29864000D01*
X95820000Y-29866000D01*
X95822000Y-29867000D01*
X95824000Y-29869000D01*
X95826000Y-29871000D01*
X95828000Y-29873000D01*
X95830000Y-29875000D01*
X95831000Y-29877000D01*
X95833000Y-29879000D01*
X95834000Y-29881000D01*
X95836000Y-29883000D01*
X95837000Y-29886000D01*
X95838000Y-29888000D01*
X95839000Y-29891000D01*
X95839000Y-29893000D01*
X95840000Y-29896000D01*
X95840000Y-29898000D01*
X95841000Y-29901000D01*
X95841000Y-29903000D01*
X95841000Y-29906000D01*
X95841000Y-30546000D01*
X95841000Y-30549000D01*
X95841000Y-30551000D01*
X95840000Y-30554000D01*
X95840000Y-30556000D01*
X95839000Y-30559000D01*
X95839000Y-30561000D01*
X95838000Y-30564000D01*
X95837000Y-30566000D01*
X95836000Y-30569000D01*
X95834000Y-30571000D01*
X95833000Y-30573000D01*
X95831000Y-30575000D01*
X95830000Y-30577000D01*
X95828000Y-30579000D01*
X95826000Y-30581000D01*
X95824000Y-30583000D01*
X95822000Y-30585000D01*
X95820000Y-30586000D01*
X95818000Y-30588000D01*
X95816000Y-30589000D01*
X95814000Y-30591000D01*
X95811000Y-30592000D01*
X95809000Y-30593000D01*
X95806000Y-30594000D01*
X95804000Y-30594000D01*
X95801000Y-30595000D01*
X95799000Y-30595000D01*
X95796000Y-30596000D01*
X95794000Y-30596000D01*
X95791000Y-30596000D01*
X94201000Y-30596000D01*
X94198000Y-30596000D01*
X94196000Y-30596000D01*
X94193000Y-30595000D01*
X94191000Y-30595000D01*
X94188000Y-30594000D01*
X94186000Y-30594000D01*
X94183000Y-30593000D01*
X94181000Y-30592000D01*
X94178000Y-30591000D01*
X94176000Y-30589000D01*
X94174000Y-30588000D01*
X94172000Y-30586000D01*
X94170000Y-30585000D01*
X94168000Y-30583000D01*
X94166000Y-30581000D01*
X94164000Y-30579000D01*
X94162000Y-30577000D01*
X94161000Y-30575000D01*
X94159000Y-30573000D01*
X94158000Y-30571000D01*
X94156000Y-30569000D01*
X94155000Y-30566000D01*
X94154000Y-30564000D01*
X94153000Y-30561000D01*
X94153000Y-30559000D01*
X94152000Y-30556000D01*
X94152000Y-30554000D01*
X94151000Y-30551000D01*
X94151000Y-30549000D01*
X94151000Y-30546000D01*
X94151000Y-29906000D01*
X94151000Y-29903000D01*
X94151000Y-29901000D01*
X94152000Y-29898000D01*
X94152000Y-29896000D01*
X94153000Y-29893000D01*
X94153000Y-29891000D01*
X94154000Y-29888000D01*
X94155000Y-29886000D01*
X94156000Y-29883000D01*
X94158000Y-29881000D01*
X94159000Y-29879000D01*
X94161000Y-29877000D01*
X94162000Y-29875000D01*
X94164000Y-29873000D01*
X94166000Y-29871000D01*
X94168000Y-29869000D01*
X94170000Y-29867000D01*
X94172000Y-29866000D01*
X94174000Y-29864000D01*
X94176000Y-29863000D01*
X94178000Y-29861000D01*
X94181000Y-29860000D01*
X94183000Y-29859000D01*
X94186000Y-29858000D01*
X94188000Y-29858000D01*
X94191000Y-29857000D01*
X94193000Y-29857000D01*
X94196000Y-29856000D01*
X94198000Y-29856000D01*
X94201000Y-29856000D01*
X95791000Y-29856000D01*
X95794000Y-29856000D01*
X95796000Y-29856000D01*
X95799000Y-29857000D01*
G36*
X95799000Y-29857000D02*
G01*
X95801000Y-29857000D01*
X95804000Y-29858000D01*
X95806000Y-29858000D01*
X95809000Y-29859000D01*
X95811000Y-29860000D01*
X95814000Y-29861000D01*
X95816000Y-29863000D01*
X95818000Y-29864000D01*
X95820000Y-29866000D01*
X95822000Y-29867000D01*
X95824000Y-29869000D01*
X95826000Y-29871000D01*
X95828000Y-29873000D01*
X95830000Y-29875000D01*
X95831000Y-29877000D01*
X95833000Y-29879000D01*
X95834000Y-29881000D01*
X95836000Y-29883000D01*
X95837000Y-29886000D01*
X95838000Y-29888000D01*
X95839000Y-29891000D01*
X95839000Y-29893000D01*
X95840000Y-29896000D01*
X95840000Y-29898000D01*
X95841000Y-29901000D01*
X95841000Y-29903000D01*
X95841000Y-29906000D01*
X95841000Y-30546000D01*
X95841000Y-30549000D01*
X95841000Y-30551000D01*
X95840000Y-30554000D01*
X95840000Y-30556000D01*
X95839000Y-30559000D01*
X95839000Y-30561000D01*
X95838000Y-30564000D01*
X95837000Y-30566000D01*
X95836000Y-30569000D01*
X95834000Y-30571000D01*
X95833000Y-30573000D01*
X95831000Y-30575000D01*
X95830000Y-30577000D01*
X95828000Y-30579000D01*
X95826000Y-30581000D01*
X95824000Y-30583000D01*
X95822000Y-30585000D01*
X95820000Y-30586000D01*
X95818000Y-30588000D01*
X95816000Y-30589000D01*
X95814000Y-30591000D01*
X95811000Y-30592000D01*
X95809000Y-30593000D01*
X95806000Y-30594000D01*
X95804000Y-30594000D01*
X95801000Y-30595000D01*
X95799000Y-30595000D01*
X95796000Y-30596000D01*
X95794000Y-30596000D01*
X95791000Y-30596000D01*
X94201000Y-30596000D01*
X94198000Y-30596000D01*
X94196000Y-30596000D01*
X94193000Y-30595000D01*
X94191000Y-30595000D01*
X94188000Y-30594000D01*
X94186000Y-30594000D01*
X94183000Y-30593000D01*
X94181000Y-30592000D01*
X94178000Y-30591000D01*
X94176000Y-30589000D01*
X94174000Y-30588000D01*
X94172000Y-30586000D01*
X94170000Y-30585000D01*
X94168000Y-30583000D01*
X94166000Y-30581000D01*
X94164000Y-30579000D01*
X94162000Y-30577000D01*
X94161000Y-30575000D01*
X94159000Y-30573000D01*
X94158000Y-30571000D01*
X94156000Y-30569000D01*
X94155000Y-30566000D01*
X94154000Y-30564000D01*
X94153000Y-30561000D01*
X94153000Y-30559000D01*
X94152000Y-30556000D01*
X94152000Y-30554000D01*
X94151000Y-30551000D01*
X94151000Y-30549000D01*
X94151000Y-30546000D01*
X94151000Y-29906000D01*
X94151000Y-29903000D01*
X94151000Y-29901000D01*
X94152000Y-29898000D01*
X94152000Y-29896000D01*
X94153000Y-29893000D01*
X94153000Y-29891000D01*
X94154000Y-29888000D01*
X94155000Y-29886000D01*
X94156000Y-29883000D01*
X94158000Y-29881000D01*
X94159000Y-29879000D01*
X94161000Y-29877000D01*
X94162000Y-29875000D01*
X94164000Y-29873000D01*
X94166000Y-29871000D01*
X94168000Y-29869000D01*
X94170000Y-29867000D01*
X94172000Y-29866000D01*
X94174000Y-29864000D01*
X94176000Y-29863000D01*
X94178000Y-29861000D01*
X94181000Y-29860000D01*
X94183000Y-29859000D01*
X94186000Y-29858000D01*
X94188000Y-29858000D01*
X94191000Y-29857000D01*
X94193000Y-29857000D01*
X94196000Y-29856000D01*
X94198000Y-29856000D01*
X94201000Y-29856000D01*
X95791000Y-29856000D01*
X95794000Y-29856000D01*
X95796000Y-29856000D01*
X95799000Y-29857000D01*
G37*
X95799000Y-31127000D02*
X95801000Y-31127000D01*
X95804000Y-31128000D01*
X95806000Y-31128000D01*
X95809000Y-31129000D01*
X95811000Y-31130000D01*
X95814000Y-31131000D01*
X95816000Y-31133000D01*
X95818000Y-31134000D01*
X95820000Y-31136000D01*
X95822000Y-31137000D01*
X95824000Y-31139000D01*
X95826000Y-31141000D01*
X95828000Y-31143000D01*
X95830000Y-31145000D01*
X95831000Y-31147000D01*
X95833000Y-31149000D01*
X95834000Y-31151000D01*
X95836000Y-31153000D01*
X95837000Y-31156000D01*
X95838000Y-31158000D01*
X95839000Y-31161000D01*
X95839000Y-31163000D01*
X95840000Y-31166000D01*
X95840000Y-31168000D01*
X95841000Y-31171000D01*
X95841000Y-31173000D01*
X95841000Y-31176000D01*
X95841000Y-31816000D01*
X95841000Y-31819000D01*
X95841000Y-31821000D01*
X95840000Y-31824000D01*
X95840000Y-31826000D01*
X95839000Y-31829000D01*
X95839000Y-31831000D01*
X95838000Y-31834000D01*
X95837000Y-31836000D01*
X95836000Y-31839000D01*
X95834000Y-31841000D01*
X95833000Y-31843000D01*
X95831000Y-31845000D01*
X95830000Y-31847000D01*
X95828000Y-31849000D01*
X95826000Y-31851000D01*
X95824000Y-31853000D01*
X95822000Y-31855000D01*
X95820000Y-31856000D01*
X95818000Y-31858000D01*
X95816000Y-31859000D01*
X95814000Y-31861000D01*
X95811000Y-31862000D01*
X95809000Y-31863000D01*
X95806000Y-31864000D01*
X95804000Y-31864000D01*
X95801000Y-31865000D01*
X95799000Y-31865000D01*
X95796000Y-31866000D01*
X95794000Y-31866000D01*
X95791000Y-31866000D01*
X94201000Y-31866000D01*
X94198000Y-31866000D01*
X94196000Y-31866000D01*
X94193000Y-31865000D01*
X94191000Y-31865000D01*
X94188000Y-31864000D01*
X94186000Y-31864000D01*
X94183000Y-31863000D01*
X94181000Y-31862000D01*
X94178000Y-31861000D01*
X94176000Y-31859000D01*
X94174000Y-31858000D01*
X94172000Y-31856000D01*
X94170000Y-31855000D01*
X94168000Y-31853000D01*
X94166000Y-31851000D01*
X94164000Y-31849000D01*
X94162000Y-31847000D01*
X94161000Y-31845000D01*
X94159000Y-31843000D01*
X94158000Y-31841000D01*
X94156000Y-31839000D01*
X94155000Y-31836000D01*
X94154000Y-31834000D01*
X94153000Y-31831000D01*
X94153000Y-31829000D01*
X94152000Y-31826000D01*
X94152000Y-31824000D01*
X94151000Y-31821000D01*
X94151000Y-31819000D01*
X94151000Y-31816000D01*
X94151000Y-31176000D01*
X94151000Y-31173000D01*
X94151000Y-31171000D01*
X94152000Y-31168000D01*
X94152000Y-31166000D01*
X94153000Y-31163000D01*
X94153000Y-31161000D01*
X94154000Y-31158000D01*
X94155000Y-31156000D01*
X94156000Y-31153000D01*
X94158000Y-31151000D01*
X94159000Y-31149000D01*
X94161000Y-31147000D01*
X94162000Y-31145000D01*
X94164000Y-31143000D01*
X94166000Y-31141000D01*
X94168000Y-31139000D01*
X94170000Y-31137000D01*
X94172000Y-31136000D01*
X94174000Y-31134000D01*
X94176000Y-31133000D01*
X94178000Y-31131000D01*
X94181000Y-31130000D01*
X94183000Y-31129000D01*
X94186000Y-31128000D01*
X94188000Y-31128000D01*
X94191000Y-31127000D01*
X94193000Y-31127000D01*
X94196000Y-31126000D01*
X94198000Y-31126000D01*
X94201000Y-31126000D01*
X95791000Y-31126000D01*
X95794000Y-31126000D01*
X95796000Y-31126000D01*
X95799000Y-31127000D01*
G36*
X95799000Y-31127000D02*
G01*
X95801000Y-31127000D01*
X95804000Y-31128000D01*
X95806000Y-31128000D01*
X95809000Y-31129000D01*
X95811000Y-31130000D01*
X95814000Y-31131000D01*
X95816000Y-31133000D01*
X95818000Y-31134000D01*
X95820000Y-31136000D01*
X95822000Y-31137000D01*
X95824000Y-31139000D01*
X95826000Y-31141000D01*
X95828000Y-31143000D01*
X95830000Y-31145000D01*
X95831000Y-31147000D01*
X95833000Y-31149000D01*
X95834000Y-31151000D01*
X95836000Y-31153000D01*
X95837000Y-31156000D01*
X95838000Y-31158000D01*
X95839000Y-31161000D01*
X95839000Y-31163000D01*
X95840000Y-31166000D01*
X95840000Y-31168000D01*
X95841000Y-31171000D01*
X95841000Y-31173000D01*
X95841000Y-31176000D01*
X95841000Y-31816000D01*
X95841000Y-31819000D01*
X95841000Y-31821000D01*
X95840000Y-31824000D01*
X95840000Y-31826000D01*
X95839000Y-31829000D01*
X95839000Y-31831000D01*
X95838000Y-31834000D01*
X95837000Y-31836000D01*
X95836000Y-31839000D01*
X95834000Y-31841000D01*
X95833000Y-31843000D01*
X95831000Y-31845000D01*
X95830000Y-31847000D01*
X95828000Y-31849000D01*
X95826000Y-31851000D01*
X95824000Y-31853000D01*
X95822000Y-31855000D01*
X95820000Y-31856000D01*
X95818000Y-31858000D01*
X95816000Y-31859000D01*
X95814000Y-31861000D01*
X95811000Y-31862000D01*
X95809000Y-31863000D01*
X95806000Y-31864000D01*
X95804000Y-31864000D01*
X95801000Y-31865000D01*
X95799000Y-31865000D01*
X95796000Y-31866000D01*
X95794000Y-31866000D01*
X95791000Y-31866000D01*
X94201000Y-31866000D01*
X94198000Y-31866000D01*
X94196000Y-31866000D01*
X94193000Y-31865000D01*
X94191000Y-31865000D01*
X94188000Y-31864000D01*
X94186000Y-31864000D01*
X94183000Y-31863000D01*
X94181000Y-31862000D01*
X94178000Y-31861000D01*
X94176000Y-31859000D01*
X94174000Y-31858000D01*
X94172000Y-31856000D01*
X94170000Y-31855000D01*
X94168000Y-31853000D01*
X94166000Y-31851000D01*
X94164000Y-31849000D01*
X94162000Y-31847000D01*
X94161000Y-31845000D01*
X94159000Y-31843000D01*
X94158000Y-31841000D01*
X94156000Y-31839000D01*
X94155000Y-31836000D01*
X94154000Y-31834000D01*
X94153000Y-31831000D01*
X94153000Y-31829000D01*
X94152000Y-31826000D01*
X94152000Y-31824000D01*
X94151000Y-31821000D01*
X94151000Y-31819000D01*
X94151000Y-31816000D01*
X94151000Y-31176000D01*
X94151000Y-31173000D01*
X94151000Y-31171000D01*
X94152000Y-31168000D01*
X94152000Y-31166000D01*
X94153000Y-31163000D01*
X94153000Y-31161000D01*
X94154000Y-31158000D01*
X94155000Y-31156000D01*
X94156000Y-31153000D01*
X94158000Y-31151000D01*
X94159000Y-31149000D01*
X94161000Y-31147000D01*
X94162000Y-31145000D01*
X94164000Y-31143000D01*
X94166000Y-31141000D01*
X94168000Y-31139000D01*
X94170000Y-31137000D01*
X94172000Y-31136000D01*
X94174000Y-31134000D01*
X94176000Y-31133000D01*
X94178000Y-31131000D01*
X94181000Y-31130000D01*
X94183000Y-31129000D01*
X94186000Y-31128000D01*
X94188000Y-31128000D01*
X94191000Y-31127000D01*
X94193000Y-31127000D01*
X94196000Y-31126000D01*
X94198000Y-31126000D01*
X94201000Y-31126000D01*
X95791000Y-31126000D01*
X95794000Y-31126000D01*
X95796000Y-31126000D01*
X95799000Y-31127000D01*
G37*
X95799000Y-32397000D02*
X95801000Y-32397000D01*
X95804000Y-32398000D01*
X95806000Y-32398000D01*
X95809000Y-32399000D01*
X95811000Y-32400000D01*
X95814000Y-32401000D01*
X95816000Y-32403000D01*
X95818000Y-32404000D01*
X95820000Y-32406000D01*
X95822000Y-32407000D01*
X95824000Y-32409000D01*
X95826000Y-32411000D01*
X95828000Y-32413000D01*
X95830000Y-32415000D01*
X95831000Y-32417000D01*
X95833000Y-32419000D01*
X95834000Y-32421000D01*
X95836000Y-32423000D01*
X95837000Y-32426000D01*
X95838000Y-32428000D01*
X95839000Y-32431000D01*
X95839000Y-32433000D01*
X95840000Y-32436000D01*
X95840000Y-32438000D01*
X95841000Y-32441000D01*
X95841000Y-32443000D01*
X95841000Y-32446000D01*
X95841000Y-33086000D01*
X95841000Y-33089000D01*
X95841000Y-33091000D01*
X95840000Y-33094000D01*
X95840000Y-33096000D01*
X95839000Y-33099000D01*
X95839000Y-33101000D01*
X95838000Y-33104000D01*
X95837000Y-33106000D01*
X95836000Y-33109000D01*
X95834000Y-33111000D01*
X95833000Y-33113000D01*
X95831000Y-33115000D01*
X95830000Y-33117000D01*
X95828000Y-33119000D01*
X95826000Y-33121000D01*
X95824000Y-33123000D01*
X95822000Y-33125000D01*
X95820000Y-33126000D01*
X95818000Y-33128000D01*
X95816000Y-33129000D01*
X95814000Y-33131000D01*
X95811000Y-33132000D01*
X95809000Y-33133000D01*
X95806000Y-33134000D01*
X95804000Y-33134000D01*
X95801000Y-33135000D01*
X95799000Y-33135000D01*
X95796000Y-33136000D01*
X95794000Y-33136000D01*
X95791000Y-33136000D01*
X94201000Y-33136000D01*
X94198000Y-33136000D01*
X94196000Y-33136000D01*
X94193000Y-33135000D01*
X94191000Y-33135000D01*
X94188000Y-33134000D01*
X94186000Y-33134000D01*
X94183000Y-33133000D01*
X94181000Y-33132000D01*
X94178000Y-33131000D01*
X94176000Y-33129000D01*
X94174000Y-33128000D01*
X94172000Y-33126000D01*
X94170000Y-33125000D01*
X94168000Y-33123000D01*
X94166000Y-33121000D01*
X94164000Y-33119000D01*
X94162000Y-33117000D01*
X94161000Y-33115000D01*
X94159000Y-33113000D01*
X94158000Y-33111000D01*
X94156000Y-33109000D01*
X94155000Y-33106000D01*
X94154000Y-33104000D01*
X94153000Y-33101000D01*
X94153000Y-33099000D01*
X94152000Y-33096000D01*
X94152000Y-33094000D01*
X94151000Y-33091000D01*
X94151000Y-33089000D01*
X94151000Y-33086000D01*
X94151000Y-32446000D01*
X94151000Y-32443000D01*
X94151000Y-32441000D01*
X94152000Y-32438000D01*
X94152000Y-32436000D01*
X94153000Y-32433000D01*
X94153000Y-32431000D01*
X94154000Y-32428000D01*
X94155000Y-32426000D01*
X94156000Y-32423000D01*
X94158000Y-32421000D01*
X94159000Y-32419000D01*
X94161000Y-32417000D01*
X94162000Y-32415000D01*
X94164000Y-32413000D01*
X94166000Y-32411000D01*
X94168000Y-32409000D01*
X94170000Y-32407000D01*
X94172000Y-32406000D01*
X94174000Y-32404000D01*
X94176000Y-32403000D01*
X94178000Y-32401000D01*
X94181000Y-32400000D01*
X94183000Y-32399000D01*
X94186000Y-32398000D01*
X94188000Y-32398000D01*
X94191000Y-32397000D01*
X94193000Y-32397000D01*
X94196000Y-32396000D01*
X94198000Y-32396000D01*
X94201000Y-32396000D01*
X95791000Y-32396000D01*
X95794000Y-32396000D01*
X95796000Y-32396000D01*
X95799000Y-32397000D01*
G36*
X95799000Y-32397000D02*
G01*
X95801000Y-32397000D01*
X95804000Y-32398000D01*
X95806000Y-32398000D01*
X95809000Y-32399000D01*
X95811000Y-32400000D01*
X95814000Y-32401000D01*
X95816000Y-32403000D01*
X95818000Y-32404000D01*
X95820000Y-32406000D01*
X95822000Y-32407000D01*
X95824000Y-32409000D01*
X95826000Y-32411000D01*
X95828000Y-32413000D01*
X95830000Y-32415000D01*
X95831000Y-32417000D01*
X95833000Y-32419000D01*
X95834000Y-32421000D01*
X95836000Y-32423000D01*
X95837000Y-32426000D01*
X95838000Y-32428000D01*
X95839000Y-32431000D01*
X95839000Y-32433000D01*
X95840000Y-32436000D01*
X95840000Y-32438000D01*
X95841000Y-32441000D01*
X95841000Y-32443000D01*
X95841000Y-32446000D01*
X95841000Y-33086000D01*
X95841000Y-33089000D01*
X95841000Y-33091000D01*
X95840000Y-33094000D01*
X95840000Y-33096000D01*
X95839000Y-33099000D01*
X95839000Y-33101000D01*
X95838000Y-33104000D01*
X95837000Y-33106000D01*
X95836000Y-33109000D01*
X95834000Y-33111000D01*
X95833000Y-33113000D01*
X95831000Y-33115000D01*
X95830000Y-33117000D01*
X95828000Y-33119000D01*
X95826000Y-33121000D01*
X95824000Y-33123000D01*
X95822000Y-33125000D01*
X95820000Y-33126000D01*
X95818000Y-33128000D01*
X95816000Y-33129000D01*
X95814000Y-33131000D01*
X95811000Y-33132000D01*
X95809000Y-33133000D01*
X95806000Y-33134000D01*
X95804000Y-33134000D01*
X95801000Y-33135000D01*
X95799000Y-33135000D01*
X95796000Y-33136000D01*
X95794000Y-33136000D01*
X95791000Y-33136000D01*
X94201000Y-33136000D01*
X94198000Y-33136000D01*
X94196000Y-33136000D01*
X94193000Y-33135000D01*
X94191000Y-33135000D01*
X94188000Y-33134000D01*
X94186000Y-33134000D01*
X94183000Y-33133000D01*
X94181000Y-33132000D01*
X94178000Y-33131000D01*
X94176000Y-33129000D01*
X94174000Y-33128000D01*
X94172000Y-33126000D01*
X94170000Y-33125000D01*
X94168000Y-33123000D01*
X94166000Y-33121000D01*
X94164000Y-33119000D01*
X94162000Y-33117000D01*
X94161000Y-33115000D01*
X94159000Y-33113000D01*
X94158000Y-33111000D01*
X94156000Y-33109000D01*
X94155000Y-33106000D01*
X94154000Y-33104000D01*
X94153000Y-33101000D01*
X94153000Y-33099000D01*
X94152000Y-33096000D01*
X94152000Y-33094000D01*
X94151000Y-33091000D01*
X94151000Y-33089000D01*
X94151000Y-33086000D01*
X94151000Y-32446000D01*
X94151000Y-32443000D01*
X94151000Y-32441000D01*
X94152000Y-32438000D01*
X94152000Y-32436000D01*
X94153000Y-32433000D01*
X94153000Y-32431000D01*
X94154000Y-32428000D01*
X94155000Y-32426000D01*
X94156000Y-32423000D01*
X94158000Y-32421000D01*
X94159000Y-32419000D01*
X94161000Y-32417000D01*
X94162000Y-32415000D01*
X94164000Y-32413000D01*
X94166000Y-32411000D01*
X94168000Y-32409000D01*
X94170000Y-32407000D01*
X94172000Y-32406000D01*
X94174000Y-32404000D01*
X94176000Y-32403000D01*
X94178000Y-32401000D01*
X94181000Y-32400000D01*
X94183000Y-32399000D01*
X94186000Y-32398000D01*
X94188000Y-32398000D01*
X94191000Y-32397000D01*
X94193000Y-32397000D01*
X94196000Y-32396000D01*
X94198000Y-32396000D01*
X94201000Y-32396000D01*
X95791000Y-32396000D01*
X95794000Y-32396000D01*
X95796000Y-32396000D01*
X95799000Y-32397000D01*
G37*
%TD*%
D11*
%TO.C,SW1*%
X95802700Y-54051200D03*
D12*
X95802700Y-48971200D03*
%TD*%
D13*
%TO.C,A1*%
X86918800Y-37439600D03*
D14*
X84378800Y-37439600D03*
X81838800Y-37439600D03*
X79298800Y-37439600D03*
X76758800Y-37439600D03*
X74218800Y-37439600D03*
X71678800Y-37439600D03*
X69138800Y-37439600D03*
X66598800Y-37439600D03*
X64058800Y-37439600D03*
X61518800Y-37439600D03*
X58978800Y-37439600D03*
X56438800Y-37439600D03*
X53898800Y-37439600D03*
X51358800Y-37439600D03*
X51358800Y-52679600D03*
X53898800Y-52679600D03*
X56438800Y-52679600D03*
X58978800Y-52679600D03*
X61518800Y-52679600D03*
X64058800Y-52679600D03*
X66598800Y-52679600D03*
X69138800Y-52679600D03*
X71678800Y-52679600D03*
X74218800Y-52679600D03*
X76758800Y-52679600D03*
X79298800Y-52679600D03*
X81838800Y-52679600D03*
X84378800Y-52679600D03*
X86918800Y-52679600D03*
%TD*%
D15*
%TO.C,C6*%
X78210500Y-47904400D03*
X80285500Y-47904400D03*
%TD*%
D16*
%TO.C,D2*%
X100330000Y-48032500D03*
X100330000Y-49757500D03*
%TD*%
D17*
%TO.C,H1*%
X44300000Y-33000000D03*
%TD*%
D18*
%TO.C,C8*%
X96425359Y-41580932D03*
X96425359Y-43655932D03*
%TD*%
D19*
%TO.C,R8*%
X86673800Y-32766000D03*
X84623800Y-32766000D03*
%TD*%
D20*
%TO.C,R1*%
X103505000Y-54837500D03*
X103505000Y-52787500D03*
%TD*%
D17*
%TO.C,H2*%
X120300000Y-33000000D03*
%TD*%
D21*
%TO.C,SW2*%
X101600000Y-44170000D03*
X104140000Y-44170000D03*
X106680000Y-44170000D03*
X106680000Y-35560000D03*
X104140000Y-35560000D03*
X101600000Y-35560000D03*
%TD*%
D17*
%TO.C,H3*%
X44300000Y-57000000D03*
%TD*%
D22*
%TO.C,J7*%
X90932000Y-60452000D03*
X88392000Y-60452000D03*
D23*
X85852000Y-60452000D03*
%TD*%
%TO.C,J10*%
X116225548Y-48260000D03*
D22*
X116225548Y-50800000D03*
X116225548Y-53340000D03*
%TD*%
D23*
%TO.C,J8*%
X50800000Y-60452000D03*
D22*
X53340000Y-60452000D03*
X55880000Y-60452000D03*
%TD*%
D24*
%TO.C,C7*%
X96500133Y-39256928D03*
X96500133Y-37181928D03*
%TD*%
D25*
%TO.C,C3*%
X86387065Y-41654223D03*
X84312065Y-41654223D03*
%TD*%
D16*
%TO.C,D1*%
X103505000Y-48032500D03*
X103505000Y-49757500D03*
%TD*%
D26*
%TO.C,F1*%
X89281000Y-44740500D03*
X89281000Y-47715500D03*
%TD*%
D18*
%TO.C,C9*%
X93218000Y-39094500D03*
X93218000Y-41169500D03*
%TD*%
D23*
%TO.C,J6*%
X97551000Y-60452000D03*
D22*
X100091000Y-60452000D03*
X102631000Y-60452000D03*
%TD*%
D20*
%TO.C,R2*%
X100330000Y-54837500D03*
X100330000Y-52787500D03*
%TD*%
D15*
%TO.C,C4*%
X78210500Y-42011600D03*
X80285500Y-42011600D03*
%TD*%
D24*
%TO.C,C10*%
X93218000Y-37105500D03*
X93218000Y-35030500D03*
%TD*%
D27*
%TO.C,R9*%
X76953000Y-29210000D03*
X79003000Y-29210000D03*
%TD*%
D15*
%TO.C,C5*%
X78210500Y-44856400D03*
X80285500Y-44856400D03*
%TD*%
D25*
%TO.C,C1*%
X86387065Y-47674223D03*
X84312065Y-47674223D03*
%TD*%
D17*
%TO.C,H4*%
X120300000Y-57000000D03*
%TD*%
D23*
%TO.C,J4*%
X50053000Y-30480000D03*
D22*
X52593000Y-30480000D03*
X55133000Y-30480000D03*
%TD*%
D23*
%TO.C,J5*%
X113269000Y-30480000D03*
D22*
X110729000Y-30480000D03*
X108189000Y-30480000D03*
%TD*%
D23*
%TO.C,J2*%
X102870000Y-30480000D03*
D22*
X100330000Y-30480000D03*
%TD*%
D28*
%TO.C,J1*%
X114879891Y-36399162D03*
D29*
X114879891Y-41399162D03*
%TD*%
D23*
%TO.C,J9*%
X62484000Y-60452000D03*
D22*
X65024000Y-60452000D03*
X67564000Y-60452000D03*
%TD*%
D25*
%TO.C,C2*%
X86387065Y-44664223D03*
X84312065Y-44664223D03*
%TD*%
D23*
%TO.C,J3*%
X59944000Y-30480000D03*
D22*
X62484000Y-30480000D03*
%TD*%
%TO.C,J11*%
X79502000Y-60452000D03*
X76962000Y-60452000D03*
D23*
X74422000Y-60452000D03*
%TD*%
M02*
