%TF.GenerationSoftware,KiCad,Pcbnew,8.0.4*%
%TF.CreationDate,2024-08-28T14:32:29-04:00*%
%TF.ProjectId,luytenPCB,6c757974-656e-4504-9342-2e6b69636164,rev?*%
%TF.SameCoordinates,Original*%
%TF.FileFunction,Copper,L1,Top*%
%TF.FilePolarity,Positive*%
%FSLAX46Y46*%
G04 Gerber Fmt 4.6, Leading zero omitted, Abs format (unit mm)*
G04 Created by KiCad (PCBNEW 8.0.4) date 2024-08-28 14:32:29*
%MOMM*%
%LPD*%
G01*
G04 APERTURE LIST*
G04 Aperture macros list*
%AMRoundRect*
0 Rectangle with rounded corners*
0 $1 Rounding radius*
0 $2 $3 $4 $5 $6 $7 $8 $9 X,Y pos of 4 corners*
0 Add a 4 corners polygon primitive as box body*
4,1,4,$2,$3,$4,$5,$6,$7,$8,$9,$2,$3,0*
0 Add four circle primitives for the rounded corners*
1,1,$1+$1,$2,$3*
1,1,$1+$1,$4,$5*
1,1,$1+$1,$6,$7*
1,1,$1+$1,$8,$9*
0 Add four rect primitives between the rounded corners*
20,1,$1+$1,$2,$3,$4,$5,0*
20,1,$1+$1,$4,$5,$6,$7,0*
20,1,$1+$1,$6,$7,$8,$9,0*
20,1,$1+$1,$8,$9,$2,$3,0*%
G04 Aperture macros list end*
%TA.AperFunction,ComponentPad*%
%ADD10R,1.308000X1.308000*%
%TD*%
%TA.AperFunction,ComponentPad*%
%ADD11C,1.308000*%
%TD*%
%TA.AperFunction,ComponentPad*%
%ADD12R,1.600000X1.600000*%
%TD*%
%TA.AperFunction,ComponentPad*%
%ADD13O,1.600000X1.600000*%
%TD*%
%TA.AperFunction,SMDPad,CuDef*%
%ADD14RoundRect,0.250000X-0.337500X-0.475000X0.337500X-0.475000X0.337500X0.475000X-0.337500X0.475000X0*%
%TD*%
%TA.AperFunction,SMDPad,CuDef*%
%ADD15RoundRect,0.237500X-0.237500X0.300000X-0.237500X-0.300000X0.237500X-0.300000X0.237500X0.300000X0*%
%TD*%
%TA.AperFunction,SMDPad,CuDef*%
%ADD16RoundRect,0.250000X-0.475000X0.337500X-0.475000X-0.337500X0.475000X-0.337500X0.475000X0.337500X0*%
%TD*%
%TA.AperFunction,SMDPad,CuDef*%
%ADD17RoundRect,0.250000X0.325000X0.450000X-0.325000X0.450000X-0.325000X-0.450000X0.325000X-0.450000X0*%
%TD*%
%TA.AperFunction,SMDPad,CuDef*%
%ADD18RoundRect,0.250000X0.450000X-0.325000X0.450000X0.325000X-0.450000X0.325000X-0.450000X-0.325000X0*%
%TD*%
%TA.AperFunction,SMDPad,CuDef*%
%ADD19R,1.120000X2.440000*%
%TD*%
%TA.AperFunction,ComponentPad*%
%ADD20O,1.700000X1.700000*%
%TD*%
%TA.AperFunction,ComponentPad*%
%ADD21R,1.700000X1.700000*%
%TD*%
%TA.AperFunction,SMDPad,CuDef*%
%ADD22RoundRect,0.250000X0.475000X-0.337500X0.475000X0.337500X-0.475000X0.337500X-0.475000X-0.337500X0*%
%TD*%
%TA.AperFunction,SMDPad,CuDef*%
%ADD23RoundRect,0.250000X0.337500X0.475000X-0.337500X0.475000X-0.337500X-0.475000X0.337500X-0.475000X0*%
%TD*%
%TA.AperFunction,SMDPad,CuDef*%
%ADD24RoundRect,0.250001X-0.624999X0.462499X-0.624999X-0.462499X0.624999X-0.462499X0.624999X0.462499X0*%
%TD*%
%TA.AperFunction,SMDPad,CuDef*%
%ADD25RoundRect,0.015000X0.760000X0.285000X-0.760000X0.285000X-0.760000X-0.285000X0.760000X-0.285000X0*%
%TD*%
%TA.AperFunction,SMDPad,CuDef*%
%ADD26R,2.950000X4.900000*%
%TD*%
%TA.AperFunction,SMDPad,CuDef*%
%ADD27RoundRect,0.250000X-0.325000X-0.450000X0.325000X-0.450000X0.325000X0.450000X-0.325000X0.450000X0*%
%TD*%
%TA.AperFunction,SMDPad,CuDef*%
%ADD28RoundRect,0.015000X-0.760000X-0.285000X0.760000X-0.285000X0.760000X0.285000X-0.760000X0.285000X0*%
%TD*%
%TA.AperFunction,ComponentPad*%
%ADD29R,3.800000X3.800000*%
%TD*%
%TA.AperFunction,ComponentPad*%
%ADD30C,3.800000*%
%TD*%
%TA.AperFunction,ViaPad*%
%ADD31C,0.800000*%
%TD*%
%TA.AperFunction,Conductor*%
%ADD32C,0.500000*%
%TD*%
%TA.AperFunction,Conductor*%
%ADD33C,0.250000*%
%TD*%
G04 APERTURE END LIST*
D10*
%TO.P,SW1,1,A*%
%TO.N,Net-(SW1-A)*%
X95802700Y-54051200D03*
D11*
%TO.P,SW1,3,B*%
%TO.N,Net-(J1-Pin_2)*%
X95802700Y-48971200D03*
%TD*%
D12*
%TO.P,A1,1,D1/TX*%
%TO.N,unconnected-(A1-D1{slash}TX-Pad1)*%
X86918800Y-37439600D03*
D13*
%TO.P,A1,2,D0/RX*%
%TO.N,unconnected-(A1-D0{slash}RX-Pad2)*%
X84378800Y-37439600D03*
%TO.P,A1,3,~{RESET}*%
%TO.N,unconnected-(A1-~{RESET}-Pad3)*%
X81838800Y-37439600D03*
%TO.P,A1,4,GND*%
%TO.N,GND*%
X79298800Y-37439600D03*
%TO.P,A1,5,D2*%
%TO.N,PS1*%
X76758800Y-37439600D03*
%TO.P,A1,6,D3*%
%TO.N,PS2*%
X74218800Y-37439600D03*
%TO.P,A1,7,D4*%
%TO.N,PS3*%
X71678800Y-37439600D03*
%TO.P,A1,8,D5*%
%TO.N,MDC1_1*%
X69138800Y-37439600D03*
%TO.P,A1,9,D6*%
%TO.N,MDC1_2*%
X66598800Y-37439600D03*
%TO.P,A1,10,D7*%
%TO.N,START_SIGNAL*%
X64058800Y-37439600D03*
%TO.P,A1,11,D8*%
%TO.N,unconnected-(A1-D8-Pad11)*%
X61518800Y-37439600D03*
%TO.P,A1,12,D9*%
%TO.N,MDC2_1*%
X58978800Y-37439600D03*
%TO.P,A1,13,D10*%
%TO.N,MDC2_2*%
X56438800Y-37439600D03*
%TO.P,A1,14,D11*%
%TO.N,unconnected-(A1-D11-Pad14)*%
X53898800Y-37439600D03*
%TO.P,A1,15,D12*%
%TO.N,unconnected-(A1-D12-Pad15)*%
X51358800Y-37439600D03*
%TO.P,A1,16,D13*%
%TO.N,unconnected-(A1-D13-Pad16)*%
X51358800Y-52679600D03*
%TO.P,A1,17,3V3*%
%TO.N,unconnected-(A1-3V3-Pad17)*%
X53898800Y-52679600D03*
%TO.P,A1,18,AREF*%
%TO.N,unconnected-(A1-AREF-Pad18)*%
X56438800Y-52679600D03*
%TO.P,A1,19,A0*%
%TO.N,unconnected-(A1-A0-Pad19)*%
X58978800Y-52679600D03*
%TO.P,A1,20,A1*%
%TO.N,RF_INT*%
X61518800Y-52679600D03*
%TO.P,A1,21,A2*%
%TO.N,DIST_R_INT*%
X64058800Y-52679600D03*
%TO.P,A1,22,A3*%
%TO.N,DIST_RM_INT*%
X66598800Y-52679600D03*
%TO.P,A1,23,A4*%
%TO.N,DIST_C_INT*%
X69138800Y-52679600D03*
%TO.P,A1,24,A5*%
%TO.N,DIST_LM_INT*%
X71678800Y-52679600D03*
%TO.P,A1,25,A6*%
%TO.N,DIST_L_INT*%
X74218800Y-52679600D03*
%TO.P,A1,26,A7*%
%TO.N,LF_INT*%
X76758800Y-52679600D03*
%TO.P,A1,27,+5V*%
%TO.N,Arduino5V*%
X79298800Y-52679600D03*
%TO.P,A1,28,~{RESET}*%
%TO.N,unconnected-(A1-~{RESET}-Pad28)*%
X81838800Y-52679600D03*
%TO.P,A1,29,GND*%
%TO.N,GND*%
X84378800Y-52679600D03*
%TO.P,A1,30,VIN*%
%TO.N,ArduinoVIN*%
X86918800Y-52679600D03*
%TD*%
D14*
%TO.P,C6,1*%
%TO.N,Arduino5V*%
X78210500Y-47904400D03*
%TO.P,C6,2*%
%TO.N,GND*%
X80285500Y-47904400D03*
%TD*%
D15*
%TO.P,D2,1,K*%
%TO.N,GND*%
X100330000Y-48032500D03*
%TO.P,D2,2,A*%
%TO.N,Net-(D2-A)*%
X100330000Y-49757500D03*
%TD*%
D16*
%TO.P,C8,1*%
%TO.N,ArduinoVIN*%
X96425359Y-41580932D03*
%TO.P,C8,2*%
%TO.N,GND*%
X96425359Y-43655932D03*
%TD*%
D17*
%TO.P,R8,1*%
%TO.N,Net-(IC1-ILIM)*%
X86673800Y-32766000D03*
%TO.P,R8,2*%
%TO.N,GND*%
X84623800Y-32766000D03*
%TD*%
D18*
%TO.P,R1,1*%
%TO.N,Arduino5V*%
X103505000Y-54837500D03*
%TO.P,R1,2*%
%TO.N,Net-(D1-A)*%
X103505000Y-52787500D03*
%TD*%
D19*
%TO.P,SW2,1*%
%TO.N,GND*%
X101600000Y-44170000D03*
%TO.P,SW2,2*%
X104140000Y-44170000D03*
%TO.P,SW2,3*%
X106680000Y-44170000D03*
%TO.P,SW2,4*%
%TO.N,PS3*%
X106680000Y-35560000D03*
%TO.P,SW2,5*%
%TO.N,PS2*%
X104140000Y-35560000D03*
%TO.P,SW2,6*%
%TO.N,PS1*%
X101600000Y-35560000D03*
%TD*%
D20*
%TO.P,J7,3,Pin_3*%
%TO.N,GND*%
X90932000Y-60452000D03*
%TO.P,J7,2,Pin_2*%
%TO.N,DIST_LM_INT*%
X88392000Y-60452000D03*
D21*
%TO.P,J7,1,Pin_1*%
%TO.N,Arduino5V*%
X85852000Y-60452000D03*
%TD*%
%TO.P,J10,1,Pin_1*%
%TO.N,Arduino5V*%
X116225548Y-48260000D03*
D20*
%TO.P,J10,2,Pin_2*%
%TO.N,GND*%
X116225548Y-50800000D03*
%TO.P,J10,3,Pin_3*%
%TO.N,START_SIGNAL*%
X116225548Y-53340000D03*
%TD*%
D21*
%TO.P,J8,1,Pin_1*%
%TO.N,Arduino5V*%
X50800000Y-60452000D03*
D20*
%TO.P,J8,2,Pin_2*%
%TO.N,DIST_R_INT*%
X53340000Y-60452000D03*
%TO.P,J8,3,Pin_3*%
%TO.N,GND*%
X55880000Y-60452000D03*
%TD*%
D22*
%TO.P,C7,1*%
%TO.N,ArduinoVIN*%
X96500133Y-39256928D03*
%TO.P,C7,2*%
%TO.N,GND*%
X96500133Y-37181928D03*
%TD*%
D23*
%TO.P,C3,1*%
%TO.N,ArduinoVIN*%
X86387065Y-41654223D03*
%TO.P,C3,2*%
%TO.N,GND*%
X84312065Y-41654223D03*
%TD*%
D15*
%TO.P,D1,1,K*%
%TO.N,GND*%
X103505000Y-48032500D03*
%TO.P,D1,2,A*%
%TO.N,Net-(D1-A)*%
X103505000Y-49757500D03*
%TD*%
D24*
%TO.P,F1,1*%
%TO.N,Net-(SW1-A)*%
X89281000Y-44740500D03*
%TO.P,F1,2*%
%TO.N,ArduinoVIN*%
X89281000Y-47715500D03*
%TD*%
D25*
%TO.P,IC2,1,GND*%
%TO.N,GND*%
X73708000Y-32751000D03*
%TO.P,IC2,2,IN2*%
%TO.N,MDC2_2*%
X73708000Y-31481000D03*
%TO.P,IC2,3,IN1*%
%TO.N,MDC2_1*%
X73708000Y-30211000D03*
%TO.P,IC2,4,ILIM*%
%TO.N,Net-(IC2-ILIM)*%
X73708000Y-28941000D03*
%TO.P,IC2,5,VM*%
%TO.N,Net-(IC2-VM)*%
X68308000Y-28941000D03*
%TO.P,IC2,6,OUT1*%
%TO.N,Net-(IC2-OUT1)*%
X68308000Y-30211000D03*
%TO.P,IC2,7,PGND*%
%TO.N,GND*%
X68308000Y-31481000D03*
%TO.P,IC2,8,OUT2*%
%TO.N,Net-(IC2-OUT2)*%
X68308000Y-32751000D03*
D26*
%TO.P,IC2,9,PAD*%
%TO.N,GND*%
X71008000Y-30846000D03*
%TD*%
D16*
%TO.P,C9,1*%
%TO.N,ArduinoVIN*%
X93218000Y-39094500D03*
%TO.P,C9,2*%
%TO.N,GND*%
X93218000Y-41169500D03*
%TD*%
D21*
%TO.P,J6,1,Pin_1*%
%TO.N,Arduino5V*%
X97551000Y-60452000D03*
D20*
%TO.P,J6,2,Pin_2*%
%TO.N,DIST_L_INT*%
X100091000Y-60452000D03*
%TO.P,J6,3,Pin_3*%
%TO.N,GND*%
X102631000Y-60452000D03*
%TD*%
D18*
%TO.P,R2,1*%
%TO.N,ArduinoVIN*%
X100330000Y-54837500D03*
%TO.P,R2,2*%
%TO.N,Net-(D2-A)*%
X100330000Y-52787500D03*
%TD*%
D14*
%TO.P,C4,1*%
%TO.N,Arduino5V*%
X78210500Y-42011600D03*
%TO.P,C4,2*%
%TO.N,GND*%
X80285500Y-42011600D03*
%TD*%
D22*
%TO.P,C10,1*%
%TO.N,ArduinoVIN*%
X93218000Y-37105500D03*
%TO.P,C10,2*%
%TO.N,GND*%
X93218000Y-35030500D03*
%TD*%
D27*
%TO.P,R9,1*%
%TO.N,Net-(IC2-ILIM)*%
X76953000Y-29210000D03*
%TO.P,R9,2*%
%TO.N,GND*%
X79003000Y-29210000D03*
%TD*%
D14*
%TO.P,C5,1*%
%TO.N,Arduino5V*%
X78210500Y-44856400D03*
%TO.P,C5,2*%
%TO.N,GND*%
X80285500Y-44856400D03*
%TD*%
D23*
%TO.P,C1,1*%
%TO.N,ArduinoVIN*%
X86387065Y-47674223D03*
%TO.P,C1,2*%
%TO.N,GND*%
X84312065Y-47674223D03*
%TD*%
D21*
%TO.P,J4,1,Pin_1*%
%TO.N,Arduino5V*%
X50053000Y-30480000D03*
D20*
%TO.P,J4,2,Pin_2*%
%TO.N,RF_INT*%
X52593000Y-30480000D03*
%TO.P,J4,3,Pin_3*%
%TO.N,GND*%
X55133000Y-30480000D03*
%TD*%
D28*
%TO.P,IC1,1,GND*%
%TO.N,GND*%
X89596000Y-28956000D03*
%TO.P,IC1,2,IN2*%
%TO.N,MDC1_2*%
X89596000Y-30226000D03*
%TO.P,IC1,3,IN1*%
%TO.N,MDC1_1*%
X89596000Y-31496000D03*
%TO.P,IC1,4,ILIM*%
%TO.N,Net-(IC1-ILIM)*%
X89596000Y-32766000D03*
%TO.P,IC1,5,VM*%
%TO.N,Net-(IC1-VM)*%
X94996000Y-32766000D03*
%TO.P,IC1,6,OUT1*%
%TO.N,Net-(IC1-OUT1)*%
X94996000Y-31496000D03*
%TO.P,IC1,7,PGND*%
%TO.N,GND*%
X94996000Y-30226000D03*
%TO.P,IC1,8,OUT2*%
%TO.N,Net-(IC1-OUT2)*%
X94996000Y-28956000D03*
D26*
%TO.P,IC1,9,PAD*%
%TO.N,GND*%
X92296000Y-30861000D03*
%TD*%
D21*
%TO.P,J5,1,Pin_1*%
%TO.N,Arduino5V*%
X113269000Y-30480000D03*
D20*
%TO.P,J5,2,Pin_2*%
%TO.N,LF_INT*%
X110729000Y-30480000D03*
%TO.P,J5,3,Pin_3*%
%TO.N,GND*%
X108189000Y-30480000D03*
%TD*%
D21*
%TO.P,J2,1,Pin_1*%
%TO.N,Net-(IC1-OUT1)*%
X102870000Y-30480000D03*
D20*
%TO.P,J2,2,Pin_2*%
%TO.N,Net-(IC1-OUT2)*%
X100330000Y-30480000D03*
%TD*%
D29*
%TO.P,J1,1,Pin_1*%
%TO.N,GND*%
X114879891Y-36399162D03*
D30*
%TO.P,J1,2,Pin_2*%
%TO.N,Net-(J1-Pin_2)*%
X114879891Y-41399162D03*
%TD*%
D21*
%TO.P,J9,1,Pin_1*%
%TO.N,Arduino5V*%
X62484000Y-60452000D03*
D20*
%TO.P,J9,2,Pin_2*%
%TO.N,DIST_RM_INT*%
X65024000Y-60452000D03*
%TO.P,J9,3,Pin_3*%
%TO.N,GND*%
X67564000Y-60452000D03*
%TD*%
D23*
%TO.P,C2,1*%
%TO.N,ArduinoVIN*%
X86387065Y-44664223D03*
%TO.P,C2,2*%
%TO.N,GND*%
X84312065Y-44664223D03*
%TD*%
D21*
%TO.P,J3,1,Pin_1*%
%TO.N,Net-(IC2-OUT1)*%
X59944000Y-30480000D03*
D20*
%TO.P,J3,2,Pin_2*%
%TO.N,Net-(IC2-OUT2)*%
X62484000Y-30480000D03*
%TD*%
%TO.P,J11,3,Pin_3*%
%TO.N,GND*%
X79502000Y-60452000D03*
%TO.P,J11,2,Pin_2*%
%TO.N,DIST_C_INT*%
X76962000Y-60452000D03*
D21*
%TO.P,J11,1,Pin_1*%
%TO.N,Arduino5V*%
X74422000Y-60452000D03*
%TD*%
D31*
%TO.N,PS3*%
X105156000Y-38506400D03*
%TO.N,PS2*%
X102920800Y-38404800D03*
%TO.N,PS1*%
X100787200Y-38303200D03*
%TO.N,RF_INT*%
X50901600Y-48209200D03*
%TO.N,START_SIGNAL*%
X54457600Y-39928800D03*
%TO.N,MDC1_1*%
X76909441Y-35136221D03*
%TO.N,MDC1_2*%
X76962000Y-34137600D03*
%TO.N,Net-(IC1-VM)*%
X97282000Y-32969200D03*
%TO.N,ArduinoVIN*%
X94996000Y-37084000D03*
%TO.N,Arduino5V*%
X51054000Y-40132000D03*
%TO.N,GND*%
X73152000Y-45212000D03*
X71628000Y-45212000D03*
X108458000Y-57658000D03*
X66040000Y-42418000D03*
X58013600Y-45415200D03*
X63957200Y-46278800D03*
X70612000Y-31242000D03*
X91694000Y-29464000D03*
X91694000Y-31242000D03*
X71628000Y-30480000D03*
X66040000Y-44450000D03*
X109982000Y-57658000D03*
X113030000Y-57658000D03*
X92710000Y-30226000D03*
X73152000Y-43688000D03*
X65024000Y-30988000D03*
X70612000Y-29464000D03*
X110744000Y-34798000D03*
X110744000Y-33528000D03*
X71628000Y-32004000D03*
X111506000Y-57658000D03*
X92710000Y-32004000D03*
X64008000Y-42418000D03*
X66040000Y-46329600D03*
X64008000Y-44450000D03*
X110744000Y-36068000D03*
X71628000Y-43688000D03*
X66294000Y-31496000D03*
X97536000Y-30226000D03*
X58013600Y-43637200D03*
%TO.N,ArduinoVIN*%
X91440000Y-46990000D03*
X92710000Y-44450000D03*
X91500000Y-53340000D03*
X91694000Y-38100000D03*
X98425000Y-53975000D03*
%TO.N,Net-(IC2-VM)*%
X75184000Y-27940000D03*
%TO.N,Net-(J1-Pin_2)*%
X109855000Y-45720000D03*
%TO.N,DIST_L_INT*%
X97790000Y-56997600D03*
%TD*%
D32*
%TO.N,Net-(SW1-A)*%
X95802700Y-52114700D02*
X95802700Y-54051200D01*
X92710000Y-49022000D02*
X95802700Y-52114700D01*
X92710000Y-45720000D02*
X92710000Y-49022000D01*
X89535000Y-44650000D02*
X91640000Y-44650000D01*
X91640000Y-44650000D02*
X92710000Y-45720000D01*
D33*
%TO.N,Arduino5V*%
X51714400Y-40792400D02*
X76991300Y-40792400D01*
X76991300Y-40792400D02*
X78210500Y-42011600D01*
X51054000Y-40132000D02*
X51714400Y-40792400D01*
%TO.N,GND*%
X83954688Y-42011600D02*
X84312065Y-41654223D01*
X80285500Y-42011600D02*
X83954688Y-42011600D01*
X84119888Y-44856400D02*
X84312065Y-44664223D01*
X80285500Y-44856400D02*
X84119888Y-44856400D01*
X84378800Y-52679600D02*
X84378800Y-47740958D01*
X84378800Y-47740958D02*
X84312065Y-47674223D01*
X84081888Y-47904400D02*
X84312065Y-47674223D01*
X80285500Y-47904400D02*
X84081888Y-47904400D01*
%TO.N,PS3*%
X105156000Y-38506400D02*
X106680000Y-36982400D01*
X106680000Y-36982400D02*
X106680000Y-35560000D01*
%TO.N,PS2*%
X102920800Y-38404800D02*
X104140000Y-37185600D01*
X104140000Y-37185600D02*
X104140000Y-35560000D01*
%TO.N,PS1*%
X101600000Y-37490400D02*
X101600000Y-35560000D01*
X100787200Y-38303200D02*
X101600000Y-37490400D01*
%TO.N,RF_INT*%
X52593000Y-31938200D02*
X52593000Y-30480000D01*
X51714400Y-32816800D02*
X52593000Y-31938200D01*
X49174400Y-32816800D02*
X51714400Y-32816800D01*
X47294800Y-34696400D02*
X49174400Y-32816800D01*
X50901600Y-48209200D02*
X47294800Y-44602400D01*
X47294800Y-44602400D02*
X47294800Y-34696400D01*
%TO.N,START_SIGNAL*%
X54979400Y-39407000D02*
X54457600Y-39928800D01*
X62091400Y-39407000D02*
X54979400Y-39407000D01*
X64058800Y-37439600D02*
X62091400Y-39407000D01*
%TO.N,DIST_LM_INT*%
X88392000Y-56337200D02*
X88392000Y-60452000D01*
X72999600Y-55118000D02*
X87172800Y-55118000D01*
X71678800Y-53797200D02*
X72999600Y-55118000D01*
X71678800Y-52679600D02*
X71678800Y-53797200D01*
X87172800Y-55118000D02*
X88392000Y-56337200D01*
%TO.N,DIST_C_INT*%
X76962000Y-57454800D02*
X76962000Y-60452000D01*
X71170800Y-56235600D02*
X75742800Y-56235600D01*
X69138800Y-54203600D02*
X71170800Y-56235600D01*
X69138800Y-52679600D02*
X69138800Y-54203600D01*
X75742800Y-56235600D02*
X76962000Y-57454800D01*
%TO.N,DIST_RM_INT*%
X65024000Y-56032400D02*
X65024000Y-60452000D01*
X66598800Y-54457600D02*
X65024000Y-56032400D01*
X66598800Y-52679600D02*
X66598800Y-54457600D01*
%TO.N,DIST_R_INT*%
X55321200Y-55270400D02*
X53340000Y-57251600D01*
X61468000Y-55270400D02*
X55321200Y-55270400D01*
X64058800Y-52679600D02*
X61468000Y-55270400D01*
X53340000Y-57251600D02*
X53340000Y-60452000D01*
%TO.N,MDC2_1*%
X58978800Y-36169600D02*
X58978800Y-37439600D01*
X60147200Y-35001200D02*
X58978800Y-36169600D01*
X75184000Y-35001200D02*
X60147200Y-35001200D01*
X76149200Y-34036000D02*
X75184000Y-35001200D01*
X76149200Y-31242000D02*
X76149200Y-34036000D01*
X75118200Y-30211000D02*
X76149200Y-31242000D01*
X73708000Y-30211000D02*
X75118200Y-30211000D01*
%TO.N,MDC2_2*%
X56438800Y-35509200D02*
X56438800Y-37439600D01*
X57861200Y-34086800D02*
X56438800Y-35509200D01*
X74777600Y-34086800D02*
X57861200Y-34086800D01*
X75082400Y-33782000D02*
X74777600Y-34086800D01*
X75082400Y-32080400D02*
X75082400Y-33782000D01*
X74483000Y-31481000D02*
X75082400Y-32080400D01*
X73708000Y-31481000D02*
X74483000Y-31481000D01*
%TO.N,MDC1_1*%
X79857600Y-34696400D02*
X79417779Y-35136221D01*
X83058000Y-31496000D02*
X79857600Y-34696400D01*
X79417779Y-35136221D02*
X76909441Y-35136221D01*
X89596000Y-31496000D02*
X83058000Y-31496000D01*
%TO.N,MDC1_2*%
X79451200Y-34137600D02*
X76962000Y-34137600D01*
X83362800Y-30226000D02*
X79451200Y-34137600D01*
X89596000Y-30226000D02*
X83362800Y-30226000D01*
%TO.N,Net-(IC1-ILIM)*%
X86673800Y-32766000D02*
X89596000Y-32766000D01*
%TO.N,Arduino5V*%
X78210500Y-51591300D02*
X79298800Y-52679600D01*
X78210500Y-47904400D02*
X78210500Y-51591300D01*
%TO.N,GND*%
X80285500Y-44856400D02*
X80285500Y-47904400D01*
X80285500Y-42011600D02*
X80285500Y-44856400D01*
%TO.N,Arduino5V*%
X78210500Y-44856400D02*
X78210500Y-47904400D01*
X78210500Y-42011600D02*
X78210500Y-44856400D01*
D32*
%TO.N,ArduinoVIN*%
X87579200Y-53340000D02*
X86918800Y-52679600D01*
X91500000Y-53340000D02*
X87579200Y-53340000D01*
X86387065Y-52147865D02*
X86918800Y-52679600D01*
X86387065Y-47674223D02*
X86387065Y-52147865D01*
%TO.N,Net-(IC1-VM)*%
X97282000Y-32969200D02*
X95199200Y-32969200D01*
X95199200Y-32969200D02*
X94996000Y-32766000D01*
%TO.N,ArduinoVIN*%
X94996000Y-38840500D02*
X94996000Y-37084000D01*
X86772000Y-48059158D02*
X86387065Y-47674223D01*
D33*
%TO.N,Arduino5V*%
X106045000Y-48260000D02*
X105410000Y-48895000D01*
X105410000Y-53975000D02*
X104547500Y-54837500D01*
X103505000Y-54837500D02*
X104547500Y-54837500D01*
X116225548Y-48260000D02*
X106045000Y-48260000D01*
X105410000Y-48895000D02*
X105410000Y-53975000D01*
%TO.N,GND*%
X70612000Y-31242000D02*
X68547000Y-31242000D01*
X89596000Y-28956000D02*
X90391000Y-28956000D01*
X68547000Y-31242000D02*
X68308000Y-31481000D01*
X92931000Y-30226000D02*
X92296000Y-30861000D01*
X90391000Y-28956000D02*
X92296000Y-30861000D01*
X72913000Y-32751000D02*
X73708000Y-32751000D01*
X71008000Y-30846000D02*
X72913000Y-32751000D01*
X84312065Y-41654223D02*
X84312065Y-44664223D01*
X84312065Y-44664223D02*
X84312065Y-47674223D01*
X94996000Y-30226000D02*
X92931000Y-30226000D01*
D32*
%TO.N,ArduinoVIN*%
X91694000Y-38100000D02*
X93218000Y-38100000D01*
X94742000Y-39094500D02*
X94996000Y-38840500D01*
X100330000Y-54837500D02*
X99287500Y-54837500D01*
X86387065Y-44664223D02*
X86387065Y-41654223D01*
X91440000Y-46990000D02*
X90714500Y-47715500D01*
X89239723Y-47674223D02*
X86387065Y-47674223D01*
X93218000Y-37105500D02*
X93218000Y-38100000D01*
D33*
X96425359Y-39331702D02*
X96500133Y-39256928D01*
D32*
X94357005Y-42752202D02*
X94615000Y-42494207D01*
%TO.N,Net-(IC2-VM)*%
X69309000Y-27940000D02*
X75184000Y-27940000D01*
%TO.N,ArduinoVIN*%
X96188157Y-39094500D02*
X96425359Y-39331702D01*
X93087005Y-42752202D02*
X94357005Y-42752202D01*
X96425359Y-41580932D02*
X96425359Y-39331702D01*
X93218000Y-39094500D02*
X94742000Y-39094500D01*
D33*
X92862005Y-44297995D02*
X92710000Y-44450000D01*
D32*
X94615000Y-42494207D02*
X94615000Y-41899466D01*
X94742000Y-39094500D02*
X96188157Y-39094500D01*
X99287500Y-54837500D02*
X98425000Y-53975000D01*
X93218000Y-38100000D02*
X93218000Y-39094500D01*
D33*
X89281000Y-47715500D02*
X89239723Y-47674223D01*
D32*
X92862005Y-42977202D02*
X92862005Y-44297995D01*
X94615000Y-41899466D02*
X94933534Y-41580932D01*
X86387065Y-47674223D02*
X86387065Y-44664223D01*
X94933534Y-41580932D02*
X96425359Y-41580932D01*
X90714500Y-47715500D02*
X89281000Y-47715500D01*
%TO.N,Net-(IC2-VM)*%
X68308000Y-28941000D02*
X69309000Y-27940000D01*
%TO.N,ArduinoVIN*%
X93087005Y-42752202D02*
X92862005Y-42977202D01*
%TO.N,Net-(J1-Pin_2)*%
X110490000Y-45085000D02*
X113284000Y-45085000D01*
X109855000Y-45720000D02*
X110490000Y-45085000D01*
X113284000Y-45085000D02*
X114879891Y-43489109D01*
X114879891Y-43489109D02*
X114879891Y-41399162D01*
%TO.N,Net-(IC1-OUT2)*%
X94996000Y-28956000D02*
X98806000Y-28956000D01*
X98806000Y-28956000D02*
X100330000Y-30480000D01*
%TO.N,Net-(IC1-OUT1)*%
X94996000Y-31496000D02*
X95296000Y-31796000D01*
X95296000Y-31796000D02*
X101554000Y-31796000D01*
X101554000Y-31796000D02*
X102870000Y-30480000D01*
%TO.N,Net-(IC2-OUT2)*%
X64755000Y-32751000D02*
X62484000Y-30480000D01*
X68308000Y-32751000D02*
X64755000Y-32751000D01*
%TO.N,Net-(IC2-OUT1)*%
X66279000Y-30211000D02*
X64262000Y-28194000D01*
X59944000Y-29972000D02*
X59944000Y-30480000D01*
X64262000Y-28194000D02*
X61722000Y-28194000D01*
X61722000Y-28194000D02*
X59944000Y-29972000D01*
X68308000Y-30211000D02*
X66279000Y-30211000D01*
D33*
%TO.N,Net-(D2-A)*%
X100330000Y-49757500D02*
X100330000Y-52787500D01*
%TO.N,Net-(D1-A)*%
X103505000Y-49757500D02*
X103505000Y-52787500D01*
%TO.N,Net-(IC2-ILIM)*%
X73708000Y-28941000D02*
X76684000Y-28941000D01*
X76684000Y-28941000D02*
X76953000Y-29210000D01*
%TO.N,Arduino5V*%
X103505000Y-56515000D02*
X103505000Y-54837500D01*
X103124000Y-56896000D02*
X103505000Y-56515000D01*
X99822000Y-56896000D02*
X103124000Y-56896000D01*
X97551000Y-60452000D02*
X97551000Y-59167000D01*
X97551000Y-59167000D02*
X99822000Y-56896000D01*
%TO.N,DIST_L_INT*%
X74218800Y-52679600D02*
X75742800Y-54203600D01*
X75742800Y-54203600D02*
X87172800Y-54203600D01*
X87172800Y-54203600D02*
X87528400Y-54203600D01*
X87528400Y-54203600D02*
X89306400Y-55981600D01*
X90322400Y-56997600D02*
X97790000Y-56997600D01*
X89306400Y-55981600D02*
X90322400Y-56997600D01*
%TD*%
%TA.AperFunction,Conductor*%
%TO.N,GND*%
G36*
X98510809Y-29726185D02*
G01*
X98531451Y-29742819D01*
X98957130Y-30168497D01*
X98990615Y-30229820D01*
X98992977Y-30266985D01*
X98974341Y-30479997D01*
X98974341Y-30480000D01*
X98994936Y-30715403D01*
X98994938Y-30715413D01*
X99041559Y-30889407D01*
X99039896Y-30959257D01*
X99000733Y-31017119D01*
X98936505Y-31044623D01*
X98921784Y-31045500D01*
X96329265Y-31045500D01*
X96262226Y-31025815D01*
X96216471Y-30973011D01*
X96213911Y-30966990D01*
X96209567Y-30955976D01*
X96209566Y-30955973D01*
X96209405Y-30955761D01*
X96194050Y-30935512D01*
X96169226Y-30870201D01*
X96183653Y-30801837D01*
X96194051Y-30785658D01*
X96209125Y-30765779D01*
X96261060Y-30634081D01*
X96261061Y-30634077D01*
X96271000Y-30551319D01*
X96271000Y-30476000D01*
X94870000Y-30476000D01*
X94802961Y-30456315D01*
X94757206Y-30403511D01*
X94746000Y-30352000D01*
X94746000Y-30100000D01*
X94765685Y-30032961D01*
X94818489Y-29987206D01*
X94870000Y-29976000D01*
X96270999Y-29976000D01*
X96270999Y-29900689D01*
X96264346Y-29845284D01*
X96275898Y-29776375D01*
X96322870Y-29724651D01*
X96387462Y-29706500D01*
X98443770Y-29706500D01*
X98510809Y-29726185D01*
G37*
%TD.AperFunction*%
%TA.AperFunction,Conductor*%
G36*
X61359885Y-27324685D02*
G01*
X61405640Y-27377489D01*
X61415584Y-27446647D01*
X61386559Y-27510203D01*
X61361739Y-27532100D01*
X61317270Y-27561813D01*
X61317269Y-27561814D01*
X61317268Y-27561813D01*
X61243588Y-27611044D01*
X61243580Y-27611050D01*
X59761449Y-29093181D01*
X59700126Y-29126666D01*
X59673768Y-29129500D01*
X59046129Y-29129500D01*
X59046123Y-29129501D01*
X58986516Y-29135908D01*
X58851671Y-29186202D01*
X58851664Y-29186206D01*
X58736455Y-29272452D01*
X58736452Y-29272455D01*
X58650206Y-29387664D01*
X58650202Y-29387671D01*
X58599908Y-29522517D01*
X58593501Y-29582116D01*
X58593501Y-29582123D01*
X58593500Y-29582135D01*
X58593500Y-31377870D01*
X58593501Y-31377876D01*
X58599908Y-31437483D01*
X58650202Y-31572328D01*
X58650206Y-31572335D01*
X58736452Y-31687544D01*
X58736455Y-31687547D01*
X58851664Y-31773793D01*
X58851671Y-31773797D01*
X58986517Y-31824091D01*
X58986516Y-31824091D01*
X58993444Y-31824835D01*
X59046127Y-31830500D01*
X60841872Y-31830499D01*
X60901483Y-31824091D01*
X61036331Y-31773796D01*
X61151546Y-31687546D01*
X61237796Y-31572331D01*
X61286810Y-31440916D01*
X61328681Y-31384984D01*
X61394145Y-31360566D01*
X61462418Y-31375417D01*
X61490673Y-31396569D01*
X61612599Y-31518495D01*
X61709384Y-31586265D01*
X61806165Y-31654032D01*
X61806167Y-31654033D01*
X61806170Y-31654035D01*
X62020337Y-31753903D01*
X62020343Y-31753904D01*
X62020344Y-31753905D01*
X62075285Y-31768626D01*
X62248592Y-31815063D01*
X62436918Y-31831539D01*
X62483999Y-31835659D01*
X62484000Y-31835659D01*
X62484001Y-31835659D01*
X62519284Y-31832571D01*
X62697013Y-31817022D01*
X62765512Y-31830788D01*
X62795501Y-31852869D01*
X64192251Y-33249619D01*
X64225736Y-33310942D01*
X64220752Y-33380634D01*
X64178880Y-33436567D01*
X64113416Y-33460984D01*
X64104570Y-33461300D01*
X57922806Y-33461300D01*
X57799593Y-33461300D01*
X57742492Y-33472658D01*
X57742491Y-33472657D01*
X57678755Y-33485335D01*
X57678745Y-33485338D01*
X57614137Y-33512100D01*
X57564915Y-33532487D01*
X57462465Y-33600942D01*
X57462462Y-33600945D01*
X56351109Y-34712300D01*
X56040069Y-35023340D01*
X56040067Y-35023342D01*
X56014247Y-35049162D01*
X55952944Y-35110464D01*
X55935733Y-35136223D01*
X55935732Y-35136223D01*
X55884490Y-35212909D01*
X55884485Y-35212918D01*
X55856493Y-35280500D01*
X55851147Y-35293407D01*
X55845623Y-35306743D01*
X55837337Y-35326745D01*
X55837335Y-35326753D01*
X55813300Y-35447589D01*
X55813300Y-36225411D01*
X55793615Y-36292450D01*
X55760423Y-36326986D01*
X55599659Y-36439553D01*
X55438754Y-36600458D01*
X55308232Y-36786865D01*
X55308231Y-36786867D01*
X55281182Y-36844875D01*
X55235009Y-36897314D01*
X55167816Y-36916466D01*
X55100935Y-36896250D01*
X55056418Y-36844875D01*
X55029368Y-36786866D01*
X54898847Y-36600461D01*
X54898845Y-36600458D01*
X54737941Y-36439554D01*
X54551534Y-36309032D01*
X54551532Y-36309031D01*
X54345297Y-36212861D01*
X54345288Y-36212858D01*
X54125497Y-36153966D01*
X54125493Y-36153965D01*
X54125492Y-36153965D01*
X54125491Y-36153964D01*
X54125486Y-36153964D01*
X53898802Y-36134132D01*
X53898798Y-36134132D01*
X53672113Y-36153964D01*
X53672102Y-36153966D01*
X53452311Y-36212858D01*
X53452302Y-36212861D01*
X53246067Y-36309031D01*
X53246065Y-36309032D01*
X53059658Y-36439554D01*
X52898754Y-36600458D01*
X52768232Y-36786865D01*
X52768231Y-36786867D01*
X52741182Y-36844875D01*
X52695009Y-36897314D01*
X52627816Y-36916466D01*
X52560935Y-36896250D01*
X52516418Y-36844875D01*
X52489368Y-36786866D01*
X52358847Y-36600461D01*
X52358845Y-36600458D01*
X52197941Y-36439554D01*
X52011534Y-36309032D01*
X52011532Y-36309031D01*
X51805297Y-36212861D01*
X51805288Y-36212858D01*
X51585497Y-36153966D01*
X51585493Y-36153965D01*
X51585492Y-36153965D01*
X51585491Y-36153964D01*
X51585486Y-36153964D01*
X51358802Y-36134132D01*
X51358798Y-36134132D01*
X51132113Y-36153964D01*
X51132102Y-36153966D01*
X50912311Y-36212858D01*
X50912302Y-36212861D01*
X50706067Y-36309031D01*
X50706065Y-36309032D01*
X50519658Y-36439554D01*
X50358754Y-36600458D01*
X50228232Y-36786865D01*
X50228231Y-36786867D01*
X50132061Y-36993102D01*
X50132058Y-36993111D01*
X50073166Y-37212902D01*
X50073164Y-37212913D01*
X50053332Y-37439598D01*
X50053332Y-37439601D01*
X50073164Y-37666286D01*
X50073166Y-37666297D01*
X50132058Y-37886088D01*
X50132061Y-37886097D01*
X50228231Y-38092332D01*
X50228232Y-38092334D01*
X50358754Y-38278741D01*
X50519658Y-38439645D01*
X50519661Y-38439647D01*
X50706066Y-38570168D01*
X50912304Y-38666339D01*
X50912309Y-38666340D01*
X50912311Y-38666341D01*
X50936652Y-38672863D01*
X51132108Y-38725235D01*
X51289580Y-38739012D01*
X51358798Y-38745068D01*
X51358800Y-38745068D01*
X51358802Y-38745068D01*
X51428020Y-38739012D01*
X51585492Y-38725235D01*
X51805296Y-38666339D01*
X52011534Y-38570168D01*
X52197939Y-38439647D01*
X52358847Y-38278739D01*
X52489368Y-38092334D01*
X52516418Y-38034324D01*
X52562590Y-37981885D01*
X52629783Y-37962733D01*
X52696665Y-37982948D01*
X52741181Y-38034324D01*
X52755317Y-38064638D01*
X52768229Y-38092328D01*
X52768232Y-38092334D01*
X52898754Y-38278741D01*
X53059658Y-38439645D01*
X53059661Y-38439647D01*
X53246066Y-38570168D01*
X53452304Y-38666339D01*
X53452309Y-38666340D01*
X53452311Y-38666341D01*
X53476652Y-38672863D01*
X53672108Y-38725235D01*
X53829580Y-38739012D01*
X53898798Y-38745068D01*
X53898800Y-38745068D01*
X53898802Y-38745068D01*
X53968020Y-38739012D01*
X54125492Y-38725235D01*
X54345296Y-38666339D01*
X54551534Y-38570168D01*
X54737939Y-38439647D01*
X54898847Y-38278739D01*
X55029368Y-38092334D01*
X55056418Y-38034324D01*
X55102590Y-37981885D01*
X55169783Y-37962733D01*
X55236665Y-37982948D01*
X55281181Y-38034324D01*
X55295317Y-38064638D01*
X55308229Y-38092328D01*
X55308232Y-38092334D01*
X55438754Y-38278741D01*
X55599658Y-38439645D01*
X55765725Y-38555925D01*
X55809350Y-38610501D01*
X55816544Y-38680000D01*
X55785022Y-38742355D01*
X55724792Y-38777769D01*
X55694602Y-38781500D01*
X55047141Y-38781500D01*
X55047121Y-38781499D01*
X55041007Y-38781499D01*
X54917794Y-38781499D01*
X54816997Y-38801548D01*
X54816992Y-38801548D01*
X54796948Y-38805536D01*
X54796944Y-38805537D01*
X54758031Y-38821657D01*
X54758029Y-38821658D01*
X54683111Y-38852689D01*
X54580668Y-38921140D01*
X54561000Y-38940809D01*
X54509826Y-38991982D01*
X54448506Y-39025466D01*
X54422147Y-39028300D01*
X54362954Y-39028300D01*
X54330497Y-39035198D01*
X54177797Y-39067655D01*
X54177792Y-39067657D01*
X54004870Y-39144648D01*
X54004865Y-39144651D01*
X53851729Y-39255911D01*
X53725066Y-39396585D01*
X53630421Y-39560515D01*
X53630418Y-39560522D01*
X53571927Y-39740540D01*
X53571926Y-39740544D01*
X53552140Y-39928800D01*
X53562691Y-40029193D01*
X53562770Y-40029939D01*
X53550200Y-40098669D01*
X53502468Y-40149692D01*
X53439449Y-40166900D01*
X52074778Y-40166900D01*
X52007739Y-40147215D01*
X51961984Y-40094411D01*
X51951458Y-40055865D01*
X51939674Y-39943744D01*
X51881179Y-39763716D01*
X51786533Y-39599784D01*
X51659871Y-39459112D01*
X51659870Y-39459111D01*
X51506734Y-39347851D01*
X51506729Y-39347848D01*
X51333807Y-39270857D01*
X51333802Y-39270855D01*
X51188001Y-39239865D01*
X51148646Y-39231500D01*
X50959354Y-39231500D01*
X50926897Y-39238398D01*
X50774197Y-39270855D01*
X50774192Y-39270857D01*
X50601270Y-39347848D01*
X50601265Y-39347851D01*
X50448129Y-39459111D01*
X50321466Y-39599785D01*
X50226821Y-39763715D01*
X50226818Y-39763722D01*
X50168327Y-39943740D01*
X50168326Y-39943744D01*
X50148540Y-40132000D01*
X50168326Y-40320256D01*
X50168327Y-40320259D01*
X50226818Y-40500277D01*
X50226821Y-40500284D01*
X50321467Y-40664216D01*
X50408257Y-40760606D01*
X50448129Y-40804888D01*
X50601265Y-40916148D01*
X50601270Y-40916151D01*
X50774192Y-40993142D01*
X50774197Y-40993144D01*
X50959354Y-41032500D01*
X51018547Y-41032500D01*
X51085586Y-41052185D01*
X51106228Y-41068819D01*
X51315663Y-41278255D01*
X51315667Y-41278258D01*
X51418110Y-41346709D01*
X51418111Y-41346709D01*
X51418115Y-41346712D01*
X51484796Y-41374331D01*
X51484798Y-41374333D01*
X51531943Y-41393861D01*
X51531948Y-41393863D01*
X51551997Y-41397851D01*
X51584031Y-41404223D01*
X51652792Y-41417901D01*
X51652794Y-41417901D01*
X51782121Y-41417901D01*
X51782141Y-41417900D01*
X76680848Y-41417900D01*
X76747887Y-41437585D01*
X76768529Y-41454219D01*
X77086181Y-41771871D01*
X77119666Y-41833194D01*
X77122500Y-41859552D01*
X77122500Y-42536601D01*
X77122501Y-42536619D01*
X77133000Y-42639396D01*
X77133001Y-42639399D01*
X77188185Y-42805931D01*
X77188187Y-42805936D01*
X77200236Y-42825471D01*
X77280288Y-42955256D01*
X77404344Y-43079312D01*
X77526097Y-43154409D01*
X77572821Y-43206355D01*
X77585000Y-43259947D01*
X77585000Y-43608052D01*
X77565315Y-43675091D01*
X77526098Y-43713589D01*
X77505722Y-43726158D01*
X77404342Y-43788689D01*
X77280289Y-43912742D01*
X77188187Y-44062063D01*
X77188185Y-44062068D01*
X77188115Y-44062280D01*
X77133001Y-44228603D01*
X77133001Y-44228604D01*
X77133000Y-44228604D01*
X77122500Y-44331383D01*
X77122500Y-45381401D01*
X77122501Y-45381419D01*
X77133000Y-45484196D01*
X77133001Y-45484199D01*
X77188185Y-45650731D01*
X77188187Y-45650736D01*
X77201090Y-45671655D01*
X77280288Y-45800056D01*
X77404344Y-45924112D01*
X77526097Y-45999209D01*
X77572821Y-46051155D01*
X77585000Y-46104747D01*
X77585000Y-46656052D01*
X77565315Y-46723091D01*
X77526098Y-46761589D01*
X77489206Y-46784345D01*
X77404342Y-46836689D01*
X77280289Y-46960742D01*
X77188187Y-47110063D01*
X77188185Y-47110068D01*
X77160349Y-47194070D01*
X77133001Y-47276603D01*
X77133001Y-47276604D01*
X77133000Y-47276604D01*
X77122500Y-47379383D01*
X77122500Y-48429401D01*
X77122501Y-48429419D01*
X77133000Y-48532196D01*
X77133001Y-48532199D01*
X77188185Y-48698731D01*
X77188187Y-48698736D01*
X77214511Y-48741414D01*
X77280288Y-48848056D01*
X77404344Y-48972112D01*
X77526097Y-49047209D01*
X77572821Y-49099155D01*
X77585000Y-49152747D01*
X77585000Y-51435279D01*
X77565315Y-51502318D01*
X77512511Y-51548073D01*
X77443353Y-51558017D01*
X77408595Y-51547661D01*
X77258301Y-51477578D01*
X77205296Y-51452861D01*
X77205292Y-51452860D01*
X77205288Y-51452858D01*
X76985497Y-51393966D01*
X76985493Y-51393965D01*
X76985492Y-51393965D01*
X76985491Y-51393964D01*
X76985486Y-51393964D01*
X76758802Y-51374132D01*
X76758798Y-51374132D01*
X76532113Y-51393964D01*
X76532102Y-51393966D01*
X76312311Y-51452858D01*
X76312302Y-51452861D01*
X76106067Y-51549031D01*
X76106065Y-51549032D01*
X75919658Y-51679554D01*
X75758754Y-51840458D01*
X75628232Y-52026865D01*
X75628231Y-52026867D01*
X75601182Y-52084875D01*
X75555009Y-52137314D01*
X75487816Y-52156466D01*
X75420935Y-52136250D01*
X75376418Y-52084875D01*
X75367662Y-52066097D01*
X75349368Y-52026866D01*
X75239382Y-51869788D01*
X75218845Y-51840458D01*
X75057941Y-51679554D01*
X74871534Y-51549032D01*
X74871532Y-51549031D01*
X74665297Y-51452861D01*
X74665288Y-51452858D01*
X74445497Y-51393966D01*
X74445493Y-51393965D01*
X74445492Y-51393965D01*
X74445491Y-51393964D01*
X74445486Y-51393964D01*
X74218802Y-51374132D01*
X74218798Y-51374132D01*
X73992113Y-51393964D01*
X73992102Y-51393966D01*
X73772311Y-51452858D01*
X73772302Y-51452861D01*
X73566067Y-51549031D01*
X73566065Y-51549032D01*
X73379658Y-51679554D01*
X73218754Y-51840458D01*
X73088232Y-52026865D01*
X73088231Y-52026867D01*
X73061182Y-52084875D01*
X73015009Y-52137314D01*
X72947816Y-52156466D01*
X72880935Y-52136250D01*
X72836418Y-52084875D01*
X72827662Y-52066097D01*
X72809368Y-52026866D01*
X72699382Y-51869788D01*
X72678845Y-51840458D01*
X72517941Y-51679554D01*
X72331534Y-51549032D01*
X72331532Y-51549031D01*
X72125297Y-51452861D01*
X72125288Y-51452858D01*
X71905497Y-51393966D01*
X71905493Y-51393965D01*
X71905492Y-51393965D01*
X71905491Y-51393964D01*
X71905486Y-51393964D01*
X71678802Y-51374132D01*
X71678798Y-51374132D01*
X71452113Y-51393964D01*
X71452102Y-51393966D01*
X71232311Y-51452858D01*
X71232302Y-51452861D01*
X71026067Y-51549031D01*
X71026065Y-51549032D01*
X70839658Y-51679554D01*
X70678754Y-51840458D01*
X70548232Y-52026865D01*
X70548231Y-52026867D01*
X70521182Y-52084875D01*
X70475009Y-52137314D01*
X70407816Y-52156466D01*
X70340935Y-52136250D01*
X70296418Y-52084875D01*
X70287662Y-52066097D01*
X70269368Y-52026866D01*
X70159382Y-51869788D01*
X70138845Y-51840458D01*
X69977941Y-51679554D01*
X69791534Y-51549032D01*
X69791532Y-51549031D01*
X69585297Y-51452861D01*
X69585288Y-51452858D01*
X69365497Y-51393966D01*
X69365493Y-51393965D01*
X69365492Y-51393965D01*
X69365491Y-51393964D01*
X69365486Y-51393964D01*
X69138802Y-51374132D01*
X69138798Y-51374132D01*
X68912113Y-51393964D01*
X68912102Y-51393966D01*
X68692311Y-51452858D01*
X68692302Y-51452861D01*
X68486067Y-51549031D01*
X68486065Y-51549032D01*
X68299658Y-51679554D01*
X68138754Y-51840458D01*
X68008232Y-52026865D01*
X68008231Y-52026867D01*
X67981182Y-52084875D01*
X67935009Y-52137314D01*
X67867816Y-52156466D01*
X67800935Y-52136250D01*
X67756418Y-52084875D01*
X67747662Y-52066097D01*
X67729368Y-52026866D01*
X67619382Y-51869788D01*
X67598845Y-51840458D01*
X67437941Y-51679554D01*
X67251534Y-51549032D01*
X67251532Y-51549031D01*
X67045297Y-51452861D01*
X67045288Y-51452858D01*
X66825497Y-51393966D01*
X66825493Y-51393965D01*
X66825492Y-51393965D01*
X66825491Y-51393964D01*
X66825486Y-51393964D01*
X66598802Y-51374132D01*
X66598798Y-51374132D01*
X66372113Y-51393964D01*
X66372102Y-51393966D01*
X66152311Y-51452858D01*
X66152302Y-51452861D01*
X65946067Y-51549031D01*
X65946065Y-51549032D01*
X65759658Y-51679554D01*
X65598754Y-51840458D01*
X65468232Y-52026865D01*
X65468231Y-52026867D01*
X65441182Y-52084875D01*
X65395009Y-52137314D01*
X65327816Y-52156466D01*
X65260935Y-52136250D01*
X65216418Y-52084875D01*
X65207662Y-52066097D01*
X65189368Y-52026866D01*
X65079382Y-51869788D01*
X65058845Y-51840458D01*
X64897941Y-51679554D01*
X64711534Y-51549032D01*
X64711532Y-51549031D01*
X64505297Y-51452861D01*
X64505288Y-51452858D01*
X64285497Y-51393966D01*
X64285493Y-51393965D01*
X64285492Y-51393965D01*
X64285491Y-51393964D01*
X64285486Y-51393964D01*
X64058802Y-51374132D01*
X64058798Y-51374132D01*
X63832113Y-51393964D01*
X63832102Y-51393966D01*
X63612311Y-51452858D01*
X63612302Y-51452861D01*
X63406067Y-51549031D01*
X63406065Y-51549032D01*
X63219658Y-51679554D01*
X63058754Y-51840458D01*
X62928232Y-52026865D01*
X62928231Y-52026867D01*
X62901182Y-52084875D01*
X62855009Y-52137314D01*
X62787816Y-52156466D01*
X62720935Y-52136250D01*
X62676418Y-52084875D01*
X62667662Y-52066097D01*
X62649368Y-52026866D01*
X62539382Y-51869788D01*
X62518845Y-51840458D01*
X62357941Y-51679554D01*
X62171534Y-51549032D01*
X62171532Y-51549031D01*
X61965297Y-51452861D01*
X61965288Y-51452858D01*
X61745497Y-51393966D01*
X61745493Y-51393965D01*
X61745492Y-51393965D01*
X61745491Y-51393964D01*
X61745486Y-51393964D01*
X61518802Y-51374132D01*
X61518798Y-51374132D01*
X61292113Y-51393964D01*
X61292102Y-51393966D01*
X61072311Y-51452858D01*
X61072302Y-51452861D01*
X60866067Y-51549031D01*
X60866065Y-51549032D01*
X60679658Y-51679554D01*
X60518754Y-51840458D01*
X60388232Y-52026865D01*
X60388231Y-52026867D01*
X60361182Y-52084875D01*
X60315009Y-52137314D01*
X60247816Y-52156466D01*
X60180935Y-52136250D01*
X60136418Y-52084875D01*
X60127662Y-52066097D01*
X60109368Y-52026866D01*
X59999382Y-51869788D01*
X59978845Y-51840458D01*
X59817941Y-51679554D01*
X59631534Y-51549032D01*
X59631532Y-51549031D01*
X59425297Y-51452861D01*
X59425288Y-51452858D01*
X59205497Y-51393966D01*
X59205493Y-51393965D01*
X59205492Y-51393965D01*
X59205491Y-51393964D01*
X59205486Y-51393964D01*
X58978802Y-51374132D01*
X58978798Y-51374132D01*
X58752113Y-51393964D01*
X58752102Y-51393966D01*
X58532311Y-51452858D01*
X58532302Y-51452861D01*
X58326067Y-51549031D01*
X58326065Y-51549032D01*
X58139658Y-51679554D01*
X57978754Y-51840458D01*
X57848232Y-52026865D01*
X57848231Y-52026867D01*
X57821182Y-52084875D01*
X57775009Y-52137314D01*
X57707816Y-52156466D01*
X57640935Y-52136250D01*
X57596418Y-52084875D01*
X57587662Y-52066097D01*
X57569368Y-52026866D01*
X57459382Y-51869788D01*
X57438845Y-51840458D01*
X57277941Y-51679554D01*
X57091534Y-51549032D01*
X57091532Y-51549031D01*
X56885297Y-51452861D01*
X56885288Y-51452858D01*
X56665497Y-51393966D01*
X56665493Y-51393965D01*
X56665492Y-51393965D01*
X56665491Y-51393964D01*
X56665486Y-51393964D01*
X56438802Y-51374132D01*
X56438798Y-51374132D01*
X56212113Y-51393964D01*
X56212102Y-51393966D01*
X55992311Y-51452858D01*
X55992302Y-51452861D01*
X55786067Y-51549031D01*
X55786065Y-51549032D01*
X55599658Y-51679554D01*
X55438754Y-51840458D01*
X55308232Y-52026865D01*
X55308231Y-52026867D01*
X55281182Y-52084875D01*
X55235009Y-52137314D01*
X55167816Y-52156466D01*
X55100935Y-52136250D01*
X55056418Y-52084875D01*
X55047662Y-52066097D01*
X55029368Y-52026866D01*
X54919382Y-51869788D01*
X54898845Y-51840458D01*
X54737941Y-51679554D01*
X54551534Y-51549032D01*
X54551532Y-51549031D01*
X54345297Y-51452861D01*
X54345288Y-51452858D01*
X54125497Y-51393966D01*
X54125493Y-51393965D01*
X54125492Y-51393965D01*
X54125491Y-51393964D01*
X54125486Y-51393964D01*
X53898802Y-51374132D01*
X53898798Y-51374132D01*
X53672113Y-51393964D01*
X53672102Y-51393966D01*
X53452311Y-51452858D01*
X53452302Y-51452861D01*
X53246067Y-51549031D01*
X53246065Y-51549032D01*
X53059658Y-51679554D01*
X52898754Y-51840458D01*
X52768232Y-52026865D01*
X52768231Y-52026867D01*
X52741182Y-52084875D01*
X52695009Y-52137314D01*
X52627816Y-52156466D01*
X52560935Y-52136250D01*
X52516418Y-52084875D01*
X52507662Y-52066097D01*
X52489368Y-52026866D01*
X52379382Y-51869788D01*
X52358845Y-51840458D01*
X52197941Y-51679554D01*
X52011534Y-51549032D01*
X52011532Y-51549031D01*
X51805297Y-51452861D01*
X51805288Y-51452858D01*
X51585497Y-51393966D01*
X51585493Y-51393965D01*
X51585492Y-51393965D01*
X51585491Y-51393964D01*
X51585486Y-51393964D01*
X51358802Y-51374132D01*
X51358798Y-51374132D01*
X51132113Y-51393964D01*
X51132102Y-51393966D01*
X50912311Y-51452858D01*
X50912302Y-51452861D01*
X50706067Y-51549031D01*
X50706065Y-51549032D01*
X50519658Y-51679554D01*
X50358754Y-51840458D01*
X50228232Y-52026865D01*
X50228231Y-52026867D01*
X50132061Y-52233102D01*
X50132058Y-52233111D01*
X50073166Y-52452902D01*
X50073164Y-52452913D01*
X50053332Y-52679598D01*
X50053332Y-52679601D01*
X50073164Y-52906286D01*
X50073166Y-52906297D01*
X50132058Y-53126088D01*
X50132061Y-53126097D01*
X50228231Y-53332332D01*
X50228232Y-53332334D01*
X50358754Y-53518741D01*
X50519658Y-53679645D01*
X50562069Y-53709341D01*
X50706066Y-53810168D01*
X50912304Y-53906339D01*
X50912309Y-53906340D01*
X50912311Y-53906341D01*
X50936652Y-53912863D01*
X51132108Y-53965235D01*
X51289580Y-53979012D01*
X51358798Y-53985068D01*
X51358800Y-53985068D01*
X51358802Y-53985068D01*
X51415473Y-53980109D01*
X51585492Y-53965235D01*
X51805296Y-53906339D01*
X52011534Y-53810168D01*
X52197939Y-53679647D01*
X52358847Y-53518739D01*
X52489368Y-53332334D01*
X52516418Y-53274324D01*
X52562590Y-53221885D01*
X52629783Y-53202733D01*
X52696665Y-53222948D01*
X52741182Y-53274325D01*
X52768229Y-53332328D01*
X52768232Y-53332334D01*
X52898754Y-53518741D01*
X53059658Y-53679645D01*
X53102069Y-53709341D01*
X53246066Y-53810168D01*
X53452304Y-53906339D01*
X53452309Y-53906340D01*
X53452311Y-53906341D01*
X53476652Y-53912863D01*
X53672108Y-53965235D01*
X53829580Y-53979012D01*
X53898798Y-53985068D01*
X53898800Y-53985068D01*
X53898802Y-53985068D01*
X53955473Y-53980109D01*
X54125492Y-53965235D01*
X54345296Y-53906339D01*
X54551534Y-53810168D01*
X54737939Y-53679647D01*
X54898847Y-53518739D01*
X55029368Y-53332334D01*
X55056418Y-53274324D01*
X55102590Y-53221885D01*
X55169783Y-53202733D01*
X55236665Y-53222948D01*
X55281182Y-53274325D01*
X55308229Y-53332328D01*
X55308232Y-53332334D01*
X55438754Y-53518741D01*
X55599658Y-53679645D01*
X55642069Y-53709341D01*
X55786066Y-53810168D01*
X55992304Y-53906339D01*
X55992309Y-53906340D01*
X55992311Y-53906341D01*
X56016652Y-53912863D01*
X56212108Y-53965235D01*
X56369580Y-53979012D01*
X56438798Y-53985068D01*
X56438800Y-53985068D01*
X56438802Y-53985068D01*
X56495473Y-53980109D01*
X56665492Y-53965235D01*
X56885296Y-53906339D01*
X57091534Y-53810168D01*
X57277939Y-53679647D01*
X57438847Y-53518739D01*
X57569368Y-53332334D01*
X57596418Y-53274324D01*
X57642590Y-53221885D01*
X57709783Y-53202733D01*
X57776665Y-53222948D01*
X57821182Y-53274325D01*
X57848229Y-53332328D01*
X57848232Y-53332334D01*
X57978754Y-53518741D01*
X58139658Y-53679645D01*
X58182069Y-53709341D01*
X58326066Y-53810168D01*
X58532304Y-53906339D01*
X58532309Y-53906340D01*
X58532311Y-53906341D01*
X58556652Y-53912863D01*
X58752108Y-53965235D01*
X58909580Y-53979012D01*
X58978798Y-53985068D01*
X58978800Y-53985068D01*
X58978802Y-53985068D01*
X59035473Y-53980109D01*
X59205492Y-53965235D01*
X59425296Y-53906339D01*
X59631534Y-53810168D01*
X59817939Y-53679647D01*
X59978847Y-53518739D01*
X60109368Y-53332334D01*
X60136418Y-53274324D01*
X60182590Y-53221885D01*
X60249783Y-53202733D01*
X60316665Y-53222948D01*
X60361182Y-53274325D01*
X60388229Y-53332328D01*
X60388232Y-53332334D01*
X60518754Y-53518741D01*
X60679658Y-53679645D01*
X60722069Y-53709341D01*
X60866066Y-53810168D01*
X61072304Y-53906339D01*
X61072309Y-53906340D01*
X61072311Y-53906341D01*
X61096652Y-53912863D01*
X61292108Y-53965235D01*
X61449580Y-53979012D01*
X61518798Y-53985068D01*
X61518799Y-53985068D01*
X61518799Y-53985067D01*
X61518800Y-53985068D01*
X61562902Y-53981209D01*
X61631400Y-53994975D01*
X61681584Y-54043589D01*
X61697518Y-54111618D01*
X61674144Y-54177462D01*
X61661390Y-54192418D01*
X61245229Y-54608581D01*
X61183906Y-54642066D01*
X61157548Y-54644900D01*
X55382807Y-54644900D01*
X55259593Y-54644900D01*
X55208575Y-54655048D01*
X55208574Y-54655047D01*
X55138754Y-54668935D01*
X55138744Y-54668938D01*
X55123958Y-54675063D01*
X55024919Y-54716086D01*
X55024911Y-54716090D01*
X55007820Y-54727510D01*
X54999390Y-54733143D01*
X54999389Y-54733144D01*
X54999388Y-54733143D01*
X54922466Y-54784542D01*
X54922465Y-54784543D01*
X54894327Y-54812682D01*
X54835342Y-54871667D01*
X54835339Y-54871670D01*
X52941270Y-56765739D01*
X52941267Y-56765742D01*
X52918038Y-56788971D01*
X52854140Y-56852868D01*
X52828323Y-56891508D01*
X52828321Y-56891511D01*
X52813473Y-56913732D01*
X52785687Y-56955314D01*
X52785685Y-56955318D01*
X52752347Y-57035807D01*
X52746823Y-57049143D01*
X52738537Y-57069145D01*
X52738535Y-57069154D01*
X52729125Y-57116462D01*
X52729126Y-57116463D01*
X52716478Y-57180052D01*
X52714500Y-57189994D01*
X52714500Y-57189997D01*
X52714500Y-59176773D01*
X52694815Y-59243812D01*
X52661623Y-59278348D01*
X52468600Y-59413503D01*
X52346673Y-59535430D01*
X52285350Y-59568914D01*
X52215658Y-59563930D01*
X52159725Y-59522058D01*
X52142810Y-59491081D01*
X52093797Y-59359671D01*
X52093793Y-59359664D01*
X52007547Y-59244455D01*
X52007544Y-59244452D01*
X51892335Y-59158206D01*
X51892328Y-59158202D01*
X51757482Y-59107908D01*
X51757483Y-59107908D01*
X51697883Y-59101501D01*
X51697881Y-59101500D01*
X51697873Y-59101500D01*
X51697864Y-59101500D01*
X49902129Y-59101500D01*
X49902123Y-59101501D01*
X49842516Y-59107908D01*
X49707671Y-59158202D01*
X49707664Y-59158206D01*
X49592455Y-59244452D01*
X49592452Y-59244455D01*
X49506206Y-59359664D01*
X49506202Y-59359671D01*
X49455908Y-59494517D01*
X49449501Y-59554116D01*
X49449500Y-59554135D01*
X49449500Y-61349870D01*
X49449501Y-61349876D01*
X49455908Y-61409483D01*
X49506202Y-61544328D01*
X49506206Y-61544335D01*
X49592452Y-61659544D01*
X49592455Y-61659547D01*
X49707664Y-61745793D01*
X49707671Y-61745797D01*
X49842517Y-61796091D01*
X49842516Y-61796091D01*
X49849444Y-61796835D01*
X49902127Y-61802500D01*
X51697872Y-61802499D01*
X51757483Y-61796091D01*
X51892331Y-61745796D01*
X52007546Y-61659546D01*
X52093796Y-61544331D01*
X52142810Y-61412916D01*
X52184681Y-61356984D01*
X52250145Y-61332566D01*
X52318418Y-61347417D01*
X52346673Y-61368569D01*
X52468599Y-61490495D01*
X52565384Y-61558265D01*
X52662165Y-61626032D01*
X52662167Y-61626033D01*
X52662170Y-61626035D01*
X52876337Y-61725903D01*
X53104592Y-61787063D01*
X53281034Y-61802500D01*
X53339999Y-61807659D01*
X53340000Y-61807659D01*
X53340001Y-61807659D01*
X53398966Y-61802500D01*
X53575408Y-61787063D01*
X53803663Y-61725903D01*
X54017830Y-61626035D01*
X54211401Y-61490495D01*
X54378495Y-61323401D01*
X54508730Y-61137405D01*
X54563307Y-61093781D01*
X54632805Y-61086587D01*
X54695160Y-61118110D01*
X54711879Y-61137405D01*
X54841890Y-61323078D01*
X55008917Y-61490105D01*
X55202421Y-61625600D01*
X55416507Y-61725429D01*
X55416516Y-61725433D01*
X55630000Y-61782634D01*
X55630000Y-60885012D01*
X55687007Y-60917925D01*
X55814174Y-60952000D01*
X55945826Y-60952000D01*
X56072993Y-60917925D01*
X56130000Y-60885012D01*
X56130000Y-61782633D01*
X56343483Y-61725433D01*
X56343492Y-61725429D01*
X56557578Y-61625600D01*
X56751082Y-61490105D01*
X56918105Y-61323082D01*
X57053600Y-61129578D01*
X57153429Y-60915492D01*
X57153432Y-60915486D01*
X57210636Y-60702000D01*
X56313012Y-60702000D01*
X56345925Y-60644993D01*
X56380000Y-60517826D01*
X56380000Y-60386174D01*
X56345925Y-60259007D01*
X56313012Y-60202000D01*
X57210636Y-60202000D01*
X57210635Y-60201999D01*
X57153432Y-59988513D01*
X57153429Y-59988507D01*
X57053600Y-59774422D01*
X57053599Y-59774420D01*
X56918113Y-59580926D01*
X56918108Y-59580920D01*
X56751082Y-59413894D01*
X56557578Y-59278399D01*
X56343492Y-59178570D01*
X56343486Y-59178567D01*
X56130000Y-59121364D01*
X56130000Y-60018988D01*
X56072993Y-59986075D01*
X55945826Y-59952000D01*
X55814174Y-59952000D01*
X55687007Y-59986075D01*
X55630000Y-60018988D01*
X55630000Y-59121364D01*
X55629999Y-59121364D01*
X55416513Y-59178567D01*
X55416507Y-59178570D01*
X55202422Y-59278399D01*
X55202420Y-59278400D01*
X55008926Y-59413886D01*
X55008920Y-59413891D01*
X54841891Y-59580920D01*
X54841890Y-59580922D01*
X54711880Y-59766595D01*
X54657303Y-59810219D01*
X54587804Y-59817412D01*
X54525450Y-59785890D01*
X54508730Y-59766594D01*
X54378494Y-59580597D01*
X54211402Y-59413506D01*
X54211401Y-59413505D01*
X54078093Y-59320161D01*
X54018376Y-59278347D01*
X53974751Y-59223770D01*
X53965500Y-59176772D01*
X53965500Y-57562052D01*
X53985185Y-57495013D01*
X54001819Y-57474371D01*
X55543971Y-55932219D01*
X55605294Y-55898734D01*
X55631652Y-55895900D01*
X61529607Y-55895900D01*
X61590029Y-55883881D01*
X61650452Y-55871863D01*
X61703357Y-55849949D01*
X61764286Y-55824712D01*
X61826877Y-55782889D01*
X61826878Y-55782889D01*
X61856366Y-55763185D01*
X61866733Y-55756258D01*
X61953858Y-55669133D01*
X61953858Y-55669131D01*
X61964066Y-55658924D01*
X61964067Y-55658921D01*
X63643979Y-53979010D01*
X63705300Y-53945527D01*
X63763747Y-53946917D01*
X63832108Y-53965235D01*
X63989580Y-53979012D01*
X64058798Y-53985068D01*
X64058800Y-53985068D01*
X64058802Y-53985068D01*
X64115473Y-53980109D01*
X64285492Y-53965235D01*
X64505296Y-53906339D01*
X64711534Y-53810168D01*
X64897939Y-53679647D01*
X65058847Y-53518739D01*
X65189368Y-53332334D01*
X65216418Y-53274324D01*
X65262590Y-53221885D01*
X65329783Y-53202733D01*
X65396665Y-53222948D01*
X65441182Y-53274325D01*
X65468229Y-53332328D01*
X65468232Y-53332334D01*
X65598754Y-53518741D01*
X65759658Y-53679645D01*
X65920423Y-53792213D01*
X65964048Y-53846789D01*
X65973300Y-53893788D01*
X65973300Y-54147147D01*
X65953615Y-54214186D01*
X65936981Y-54234828D01*
X64625269Y-55546540D01*
X64625267Y-55546542D01*
X64598028Y-55573781D01*
X64538140Y-55633668D01*
X64512323Y-55672308D01*
X64512321Y-55672311D01*
X64469690Y-55736110D01*
X64469685Y-55736119D01*
X64450313Y-55782888D01*
X64450314Y-55782889D01*
X64427956Y-55836867D01*
X64423629Y-55847314D01*
X64422538Y-55849947D01*
X64422537Y-55849949D01*
X64404761Y-55939315D01*
X64404761Y-55939316D01*
X64398500Y-55970791D01*
X64398500Y-59176773D01*
X64378815Y-59243812D01*
X64345623Y-59278348D01*
X64152600Y-59413503D01*
X64030673Y-59535430D01*
X63969350Y-59568914D01*
X63899658Y-59563930D01*
X63843725Y-59522058D01*
X63826810Y-59491081D01*
X63777797Y-59359671D01*
X63777793Y-59359664D01*
X63691547Y-59244455D01*
X63691544Y-59244452D01*
X63576335Y-59158206D01*
X63576328Y-59158202D01*
X63441482Y-59107908D01*
X63441483Y-59107908D01*
X63381883Y-59101501D01*
X63381881Y-59101500D01*
X63381873Y-59101500D01*
X63381864Y-59101500D01*
X61586129Y-59101500D01*
X61586123Y-59101501D01*
X61526516Y-59107908D01*
X61391671Y-59158202D01*
X61391664Y-59158206D01*
X61276455Y-59244452D01*
X61276452Y-59244455D01*
X61190206Y-59359664D01*
X61190202Y-59359671D01*
X61139908Y-59494517D01*
X61133501Y-59554116D01*
X61133500Y-59554135D01*
X61133500Y-61349870D01*
X61133501Y-61349876D01*
X61139908Y-61409483D01*
X61190202Y-61544328D01*
X61190206Y-61544335D01*
X61276452Y-61659544D01*
X61276455Y-61659547D01*
X61391664Y-61745793D01*
X61391671Y-61745797D01*
X61526517Y-61796091D01*
X61526516Y-61796091D01*
X61533444Y-61796835D01*
X61586127Y-61802500D01*
X63381872Y-61802499D01*
X63441483Y-61796091D01*
X63576331Y-61745796D01*
X63691546Y-61659546D01*
X63777796Y-61544331D01*
X63826810Y-61412916D01*
X63868681Y-61356984D01*
X63934145Y-61332566D01*
X64002418Y-61347417D01*
X64030673Y-61368569D01*
X64152599Y-61490495D01*
X64249384Y-61558265D01*
X64346165Y-61626032D01*
X64346167Y-61626033D01*
X64346170Y-61626035D01*
X64560337Y-61725903D01*
X64788592Y-61787063D01*
X64965034Y-61802500D01*
X65023999Y-61807659D01*
X65024000Y-61807659D01*
X65024001Y-61807659D01*
X65082966Y-61802500D01*
X65259408Y-61787063D01*
X65487663Y-61725903D01*
X65701830Y-61626035D01*
X65895401Y-61490495D01*
X66062495Y-61323401D01*
X66192730Y-61137405D01*
X66247307Y-61093781D01*
X66316805Y-61086587D01*
X66379160Y-61118110D01*
X66395879Y-61137405D01*
X66525890Y-61323078D01*
X66692917Y-61490105D01*
X66886421Y-61625600D01*
X67100507Y-61725429D01*
X67100516Y-61725433D01*
X67314000Y-61782634D01*
X67314000Y-60885012D01*
X67371007Y-60917925D01*
X67498174Y-60952000D01*
X67629826Y-60952000D01*
X67756993Y-60917925D01*
X67814000Y-60885012D01*
X67814000Y-61782633D01*
X68027483Y-61725433D01*
X68027492Y-61725429D01*
X68241578Y-61625600D01*
X68435082Y-61490105D01*
X68602105Y-61323082D01*
X68737600Y-61129578D01*
X68837429Y-60915492D01*
X68837432Y-60915486D01*
X68894636Y-60702000D01*
X67997012Y-60702000D01*
X68029925Y-60644993D01*
X68064000Y-60517826D01*
X68064000Y-60386174D01*
X68029925Y-60259007D01*
X67997012Y-60202000D01*
X68894636Y-60202000D01*
X68894635Y-60201999D01*
X68837432Y-59988513D01*
X68837429Y-59988507D01*
X68737600Y-59774422D01*
X68737599Y-59774420D01*
X68602113Y-59580926D01*
X68602108Y-59580920D01*
X68435082Y-59413894D01*
X68241578Y-59278399D01*
X68027492Y-59178570D01*
X68027486Y-59178567D01*
X67814000Y-59121364D01*
X67814000Y-60018988D01*
X67756993Y-59986075D01*
X67629826Y-59952000D01*
X67498174Y-59952000D01*
X67371007Y-59986075D01*
X67314000Y-60018988D01*
X67314000Y-59121364D01*
X67313999Y-59121364D01*
X67100513Y-59178567D01*
X67100507Y-59178570D01*
X66886422Y-59278399D01*
X66886420Y-59278400D01*
X66692926Y-59413886D01*
X66692920Y-59413891D01*
X66525891Y-59580920D01*
X66525890Y-59580922D01*
X66395880Y-59766595D01*
X66341303Y-59810219D01*
X66271804Y-59817412D01*
X66209450Y-59785890D01*
X66192730Y-59766594D01*
X66062494Y-59580597D01*
X65895402Y-59413506D01*
X65895401Y-59413505D01*
X65762093Y-59320161D01*
X65702376Y-59278347D01*
X65658751Y-59223770D01*
X65649500Y-59176772D01*
X65649500Y-56342852D01*
X65669185Y-56275813D01*
X65685819Y-56255171D01*
X66367210Y-55573781D01*
X67084658Y-54856333D01*
X67153112Y-54753885D01*
X67200263Y-54640051D01*
X67201310Y-54634790D01*
X67206523Y-54608581D01*
X67208130Y-54600502D01*
X67208130Y-54600500D01*
X67224301Y-54519206D01*
X67224301Y-54395993D01*
X67224301Y-54390883D01*
X67224300Y-54390857D01*
X67224300Y-53893788D01*
X67243985Y-53826749D01*
X67277177Y-53792213D01*
X67361672Y-53733049D01*
X67437939Y-53679647D01*
X67598847Y-53518739D01*
X67729368Y-53332334D01*
X67756418Y-53274324D01*
X67802590Y-53221885D01*
X67869783Y-53202733D01*
X67936665Y-53222948D01*
X67981182Y-53274325D01*
X68008229Y-53332328D01*
X68008232Y-53332334D01*
X68138754Y-53518741D01*
X68299658Y-53679645D01*
X68460423Y-53792213D01*
X68504048Y-53846789D01*
X68513300Y-53893788D01*
X68513300Y-54265211D01*
X68537335Y-54386044D01*
X68537340Y-54386061D01*
X68584485Y-54499880D01*
X68584490Y-54499889D01*
X68618714Y-54551107D01*
X68618715Y-54551109D01*
X68652941Y-54602333D01*
X68744386Y-54693778D01*
X68744408Y-54693798D01*
X70681816Y-56631206D01*
X70681845Y-56631237D01*
X70772063Y-56721455D01*
X70772067Y-56721458D01*
X70838343Y-56765742D01*
X70874515Y-56789912D01*
X70921429Y-56809344D01*
X70988348Y-56837063D01*
X71048771Y-56849081D01*
X71109193Y-56861100D01*
X71109194Y-56861100D01*
X75432348Y-56861100D01*
X75499387Y-56880785D01*
X75520029Y-56897419D01*
X76300181Y-57677571D01*
X76333666Y-57738894D01*
X76336500Y-57765252D01*
X76336500Y-59176773D01*
X76316815Y-59243812D01*
X76283623Y-59278348D01*
X76090600Y-59413503D01*
X75968673Y-59535430D01*
X75907350Y-59568914D01*
X75837658Y-59563930D01*
X75781725Y-59522058D01*
X75764810Y-59491081D01*
X75715797Y-59359671D01*
X75715793Y-59359664D01*
X75629547Y-59244455D01*
X75629544Y-59244452D01*
X75514335Y-59158206D01*
X75514328Y-59158202D01*
X75379482Y-59107908D01*
X75379483Y-59107908D01*
X75319883Y-59101501D01*
X75319881Y-59101500D01*
X75319873Y-59101500D01*
X75319864Y-59101500D01*
X73524129Y-59101500D01*
X73524123Y-59101501D01*
X73464516Y-59107908D01*
X73329671Y-59158202D01*
X73329664Y-59158206D01*
X73214455Y-59244452D01*
X73214452Y-59244455D01*
X73128206Y-59359664D01*
X73128202Y-59359671D01*
X73077908Y-59494517D01*
X73071501Y-59554116D01*
X73071500Y-59554135D01*
X73071500Y-61349870D01*
X73071501Y-61349876D01*
X73077908Y-61409483D01*
X73128202Y-61544328D01*
X73128206Y-61544335D01*
X73214452Y-61659544D01*
X73214455Y-61659547D01*
X73329664Y-61745793D01*
X73329671Y-61745797D01*
X73464517Y-61796091D01*
X73464516Y-61796091D01*
X73471444Y-61796835D01*
X73524127Y-61802500D01*
X75319872Y-61802499D01*
X75379483Y-61796091D01*
X75514331Y-61745796D01*
X75629546Y-61659546D01*
X75715796Y-61544331D01*
X75764810Y-61412916D01*
X75806681Y-61356984D01*
X75872145Y-61332566D01*
X75940418Y-61347417D01*
X75968673Y-61368569D01*
X76090599Y-61490495D01*
X76187384Y-61558265D01*
X76284165Y-61626032D01*
X76284167Y-61626033D01*
X76284170Y-61626035D01*
X76498337Y-61725903D01*
X76726592Y-61787063D01*
X76903034Y-61802500D01*
X76961999Y-61807659D01*
X76962000Y-61807659D01*
X76962001Y-61807659D01*
X77020966Y-61802500D01*
X77197408Y-61787063D01*
X77425663Y-61725903D01*
X77639830Y-61626035D01*
X77833401Y-61490495D01*
X78000495Y-61323401D01*
X78130730Y-61137405D01*
X78185307Y-61093781D01*
X78254805Y-61086587D01*
X78317160Y-61118110D01*
X78333879Y-61137405D01*
X78463890Y-61323078D01*
X78630917Y-61490105D01*
X78824421Y-61625600D01*
X79038507Y-61725429D01*
X79038516Y-61725433D01*
X79252000Y-61782634D01*
X79252000Y-60885012D01*
X79309007Y-60917925D01*
X79436174Y-60952000D01*
X79567826Y-60952000D01*
X79694993Y-60917925D01*
X79752000Y-60885012D01*
X79752000Y-61782633D01*
X79965483Y-61725433D01*
X79965492Y-61725429D01*
X80179578Y-61625600D01*
X80373082Y-61490105D01*
X80540105Y-61323082D01*
X80675600Y-61129578D01*
X80775429Y-60915492D01*
X80775432Y-60915486D01*
X80832636Y-60702000D01*
X79935012Y-60702000D01*
X79967925Y-60644993D01*
X80002000Y-60517826D01*
X80002000Y-60386174D01*
X79967925Y-60259007D01*
X79935012Y-60202000D01*
X80832636Y-60202000D01*
X80832635Y-60201999D01*
X80775432Y-59988513D01*
X80775429Y-59988507D01*
X80675600Y-59774422D01*
X80675599Y-59774420D01*
X80540113Y-59580926D01*
X80540108Y-59580920D01*
X80373082Y-59413894D01*
X80179578Y-59278399D01*
X79965492Y-59178570D01*
X79965486Y-59178567D01*
X79752000Y-59121364D01*
X79752000Y-60018988D01*
X79694993Y-59986075D01*
X79567826Y-59952000D01*
X79436174Y-59952000D01*
X79309007Y-59986075D01*
X79252000Y-60018988D01*
X79252000Y-59121364D01*
X79251999Y-59121364D01*
X79038513Y-59178567D01*
X79038507Y-59178570D01*
X78824422Y-59278399D01*
X78824420Y-59278400D01*
X78630926Y-59413886D01*
X78630920Y-59413891D01*
X78463891Y-59580920D01*
X78463890Y-59580922D01*
X78333880Y-59766595D01*
X78279303Y-59810219D01*
X78209804Y-59817412D01*
X78147450Y-59785890D01*
X78130730Y-59766594D01*
X78000494Y-59580597D01*
X77833402Y-59413506D01*
X77833401Y-59413505D01*
X77700093Y-59320161D01*
X77640376Y-59278347D01*
X77596751Y-59223770D01*
X77587500Y-59176772D01*
X77587500Y-57393193D01*
X77587499Y-57393189D01*
X77585245Y-57381857D01*
X77563463Y-57272348D01*
X77516311Y-57158514D01*
X77516310Y-57158513D01*
X77516307Y-57158507D01*
X77447858Y-57056067D01*
X77447855Y-57056063D01*
X77357637Y-56965845D01*
X77357606Y-56965816D01*
X76346971Y-55955181D01*
X76313486Y-55893858D01*
X76318470Y-55824166D01*
X76360342Y-55768233D01*
X76425806Y-55743816D01*
X76434652Y-55743500D01*
X86862348Y-55743500D01*
X86929387Y-55763185D01*
X86950029Y-55779819D01*
X87730181Y-56559971D01*
X87763666Y-56621294D01*
X87766500Y-56647652D01*
X87766500Y-59176773D01*
X87746815Y-59243812D01*
X87713623Y-59278348D01*
X87520600Y-59413503D01*
X87398673Y-59535430D01*
X87337350Y-59568914D01*
X87267658Y-59563930D01*
X87211725Y-59522058D01*
X87194810Y-59491081D01*
X87145797Y-59359671D01*
X87145793Y-59359664D01*
X87059547Y-59244455D01*
X87059544Y-59244452D01*
X86944335Y-59158206D01*
X86944328Y-59158202D01*
X86809482Y-59107908D01*
X86809483Y-59107908D01*
X86749883Y-59101501D01*
X86749881Y-59101500D01*
X86749873Y-59101500D01*
X86749864Y-59101500D01*
X84954129Y-59101500D01*
X84954123Y-59101501D01*
X84894516Y-59107908D01*
X84759671Y-59158202D01*
X84759664Y-59158206D01*
X84644455Y-59244452D01*
X84644452Y-59244455D01*
X84558206Y-59359664D01*
X84558202Y-59359671D01*
X84507908Y-59494517D01*
X84501501Y-59554116D01*
X84501500Y-59554135D01*
X84501500Y-61349870D01*
X84501501Y-61349876D01*
X84507908Y-61409483D01*
X84558202Y-61544328D01*
X84558206Y-61544335D01*
X84644452Y-61659544D01*
X84644455Y-61659547D01*
X84759664Y-61745793D01*
X84759671Y-61745797D01*
X84894517Y-61796091D01*
X84894516Y-61796091D01*
X84901444Y-61796835D01*
X84954127Y-61802500D01*
X86749872Y-61802499D01*
X86809483Y-61796091D01*
X86944331Y-61745796D01*
X87059546Y-61659546D01*
X87145796Y-61544331D01*
X87194810Y-61412916D01*
X87236681Y-61356984D01*
X87302145Y-61332566D01*
X87370418Y-61347417D01*
X87398673Y-61368569D01*
X87520599Y-61490495D01*
X87617384Y-61558265D01*
X87714165Y-61626032D01*
X87714167Y-61626033D01*
X87714170Y-61626035D01*
X87928337Y-61725903D01*
X88156592Y-61787063D01*
X88333034Y-61802500D01*
X88391999Y-61807659D01*
X88392000Y-61807659D01*
X88392001Y-61807659D01*
X88450966Y-61802500D01*
X88627408Y-61787063D01*
X88855663Y-61725903D01*
X89069830Y-61626035D01*
X89263401Y-61490495D01*
X89430495Y-61323401D01*
X89560730Y-61137405D01*
X89615307Y-61093781D01*
X89684805Y-61086587D01*
X89747160Y-61118110D01*
X89763879Y-61137405D01*
X89893890Y-61323078D01*
X90060917Y-61490105D01*
X90254421Y-61625600D01*
X90468507Y-61725429D01*
X90468516Y-61725433D01*
X90682000Y-61782634D01*
X90682000Y-60885012D01*
X90739007Y-60917925D01*
X90866174Y-60952000D01*
X90997826Y-60952000D01*
X91124993Y-60917925D01*
X91182000Y-60885012D01*
X91182000Y-61782633D01*
X91395483Y-61725433D01*
X91395492Y-61725429D01*
X91609578Y-61625600D01*
X91803082Y-61490105D01*
X91970105Y-61323082D01*
X92105600Y-61129578D01*
X92205429Y-60915492D01*
X92205432Y-60915486D01*
X92262636Y-60702000D01*
X91365012Y-60702000D01*
X91397925Y-60644993D01*
X91432000Y-60517826D01*
X91432000Y-60386174D01*
X91397925Y-60259007D01*
X91365012Y-60202000D01*
X92262636Y-60202000D01*
X92262635Y-60201999D01*
X92205432Y-59988513D01*
X92205429Y-59988507D01*
X92105600Y-59774422D01*
X92105599Y-59774420D01*
X91970113Y-59580926D01*
X91970108Y-59580920D01*
X91803082Y-59413894D01*
X91609578Y-59278399D01*
X91395492Y-59178570D01*
X91395486Y-59178567D01*
X91182000Y-59121364D01*
X91182000Y-60018988D01*
X91124993Y-59986075D01*
X90997826Y-59952000D01*
X90866174Y-59952000D01*
X90739007Y-59986075D01*
X90682000Y-60018988D01*
X90682000Y-59121364D01*
X90681999Y-59121364D01*
X90468513Y-59178567D01*
X90468507Y-59178570D01*
X90254422Y-59278399D01*
X90254420Y-59278400D01*
X90060926Y-59413886D01*
X90060920Y-59413891D01*
X89893891Y-59580920D01*
X89893890Y-59580922D01*
X89763880Y-59766595D01*
X89709303Y-59810219D01*
X89639804Y-59817412D01*
X89577450Y-59785890D01*
X89560730Y-59766594D01*
X89430494Y-59580597D01*
X89263402Y-59413506D01*
X89263401Y-59413505D01*
X89130093Y-59320161D01*
X89070376Y-59278347D01*
X89026751Y-59223770D01*
X89017500Y-59176772D01*
X89017500Y-56876652D01*
X89037185Y-56809613D01*
X89089989Y-56763858D01*
X89159147Y-56753914D01*
X89222703Y-56782939D01*
X89229181Y-56788971D01*
X89833416Y-57393206D01*
X89833445Y-57393237D01*
X89923665Y-57483457D01*
X89923668Y-57483459D01*
X89972977Y-57516405D01*
X89972979Y-57516408D01*
X89972979Y-57516407D01*
X90026114Y-57551912D01*
X90089902Y-57578333D01*
X90089903Y-57578334D01*
X90117271Y-57589670D01*
X90139948Y-57599063D01*
X90200371Y-57611081D01*
X90260793Y-57623100D01*
X90260794Y-57623100D01*
X97086252Y-57623100D01*
X97153291Y-57642785D01*
X97178400Y-57664126D01*
X97184126Y-57670485D01*
X97184130Y-57670489D01*
X97337265Y-57781748D01*
X97337270Y-57781751D01*
X97510192Y-57858742D01*
X97510193Y-57858742D01*
X97510197Y-57858744D01*
X97669856Y-57892680D01*
X97731338Y-57925872D01*
X97765115Y-57987035D01*
X97760463Y-58056749D01*
X97731757Y-58101651D01*
X97152270Y-58681139D01*
X97065144Y-58768264D01*
X97065138Y-58768272D01*
X96996690Y-58870708D01*
X96996688Y-58870713D01*
X96949540Y-58984538D01*
X96949534Y-58984557D01*
X96946125Y-59001696D01*
X96913738Y-59063606D01*
X96853021Y-59098178D01*
X96824510Y-59101500D01*
X96653130Y-59101500D01*
X96653123Y-59101501D01*
X96593516Y-59107908D01*
X96458671Y-59158202D01*
X96458664Y-59158206D01*
X96343455Y-59244452D01*
X96343452Y-59244455D01*
X96257206Y-59359664D01*
X96257202Y-59359671D01*
X96206908Y-59494517D01*
X96200501Y-59554116D01*
X96200500Y-59554135D01*
X96200500Y-61349870D01*
X96200501Y-61349876D01*
X96206908Y-61409483D01*
X96257202Y-61544328D01*
X96257206Y-61544335D01*
X96343452Y-61659544D01*
X96343455Y-61659547D01*
X96458664Y-61745793D01*
X96458671Y-61745797D01*
X96593517Y-61796091D01*
X96593516Y-61796091D01*
X96600444Y-61796835D01*
X96653127Y-61802500D01*
X98448872Y-61802499D01*
X98508483Y-61796091D01*
X98643331Y-61745796D01*
X98758546Y-61659546D01*
X98844796Y-61544331D01*
X98893810Y-61412916D01*
X98935681Y-61356984D01*
X99001145Y-61332566D01*
X99069418Y-61347417D01*
X99097673Y-61368569D01*
X99219599Y-61490495D01*
X99316384Y-61558265D01*
X99413165Y-61626032D01*
X99413167Y-61626033D01*
X99413170Y-61626035D01*
X99627337Y-61725903D01*
X99855592Y-61787063D01*
X100032034Y-61802500D01*
X100090999Y-61807659D01*
X100091000Y-61807659D01*
X100091001Y-61807659D01*
X100149966Y-61802500D01*
X100326408Y-61787063D01*
X100554663Y-61725903D01*
X100768830Y-61626035D01*
X100962401Y-61490495D01*
X101129495Y-61323401D01*
X101259730Y-61137405D01*
X101314307Y-61093781D01*
X101383805Y-61086587D01*
X101446160Y-61118110D01*
X101462879Y-61137405D01*
X101592890Y-61323078D01*
X101759917Y-61490105D01*
X101953421Y-61625600D01*
X102167507Y-61725429D01*
X102167516Y-61725433D01*
X102381000Y-61782634D01*
X102381000Y-60885012D01*
X102438007Y-60917925D01*
X102565174Y-60952000D01*
X102696826Y-60952000D01*
X102823993Y-60917925D01*
X102881000Y-60885012D01*
X102881000Y-61782633D01*
X103094483Y-61725433D01*
X103094492Y-61725429D01*
X103308578Y-61625600D01*
X103502082Y-61490105D01*
X103669105Y-61323082D01*
X103804600Y-61129578D01*
X103904429Y-60915492D01*
X103904432Y-60915486D01*
X103961636Y-60702000D01*
X103064012Y-60702000D01*
X103096925Y-60644993D01*
X103131000Y-60517826D01*
X103131000Y-60386174D01*
X103096925Y-60259007D01*
X103064012Y-60202000D01*
X103961636Y-60202000D01*
X103961635Y-60201999D01*
X103904432Y-59988513D01*
X103904429Y-59988507D01*
X103804600Y-59774422D01*
X103804599Y-59774420D01*
X103669113Y-59580926D01*
X103669108Y-59580920D01*
X103502082Y-59413894D01*
X103308578Y-59278399D01*
X103094492Y-59178570D01*
X103094486Y-59178567D01*
X102881000Y-59121364D01*
X102881000Y-60018988D01*
X102823993Y-59986075D01*
X102696826Y-59952000D01*
X102565174Y-59952000D01*
X102438007Y-59986075D01*
X102381000Y-60018988D01*
X102381000Y-59121364D01*
X102380999Y-59121364D01*
X102167513Y-59178567D01*
X102167507Y-59178570D01*
X101953422Y-59278399D01*
X101953420Y-59278400D01*
X101759926Y-59413886D01*
X101759920Y-59413891D01*
X101592891Y-59580920D01*
X101592890Y-59580922D01*
X101462880Y-59766595D01*
X101408303Y-59810219D01*
X101338804Y-59817412D01*
X101276450Y-59785890D01*
X101259730Y-59766594D01*
X101129494Y-59580597D01*
X100962402Y-59413506D01*
X100962395Y-59413501D01*
X100768834Y-59277967D01*
X100768830Y-59277965D01*
X100716500Y-59253563D01*
X100554663Y-59178097D01*
X100554659Y-59178096D01*
X100554655Y-59178094D01*
X100326413Y-59116938D01*
X100326403Y-59116936D01*
X100091001Y-59096341D01*
X100090999Y-59096341D01*
X99855596Y-59116936D01*
X99855586Y-59116938D01*
X99627344Y-59178094D01*
X99627335Y-59178098D01*
X99413171Y-59277964D01*
X99413169Y-59277965D01*
X99219600Y-59413503D01*
X99097673Y-59535430D01*
X99036350Y-59568914D01*
X98966658Y-59563930D01*
X98910725Y-59522058D01*
X98893810Y-59491081D01*
X98844797Y-59359671D01*
X98844793Y-59359664D01*
X98758547Y-59244455D01*
X98758544Y-59244452D01*
X98644115Y-59158790D01*
X98602244Y-59102856D01*
X98597260Y-59033165D01*
X98630743Y-58971845D01*
X100044771Y-57557819D01*
X100106094Y-57524334D01*
X100132452Y-57521500D01*
X103185607Y-57521500D01*
X103246029Y-57509481D01*
X103306452Y-57497463D01*
X103340265Y-57483457D01*
X103420286Y-57450312D01*
X103471509Y-57416084D01*
X103522733Y-57381858D01*
X103609858Y-57294733D01*
X103609859Y-57294730D01*
X103990857Y-56913734D01*
X104059311Y-56811286D01*
X104062075Y-56804611D01*
X104078176Y-56765743D01*
X104078176Y-56765742D01*
X104083075Y-56753914D01*
X104106463Y-56697452D01*
X104130500Y-56576606D01*
X104130500Y-55984516D01*
X104150185Y-55917477D01*
X104202989Y-55871722D01*
X104215488Y-55866813D01*
X104274334Y-55847314D01*
X104423656Y-55755212D01*
X104547712Y-55631156D01*
X104628989Y-55499383D01*
X104680936Y-55452660D01*
X104710336Y-55442864D01*
X104729952Y-55438963D01*
X104774644Y-55420451D01*
X104843786Y-55391812D01*
X104897231Y-55356100D01*
X104946233Y-55323358D01*
X105033358Y-55236233D01*
X105033359Y-55236231D01*
X105040425Y-55229165D01*
X105040428Y-55229161D01*
X105808729Y-54460860D01*
X105808733Y-54460858D01*
X105895858Y-54373733D01*
X105964311Y-54271286D01*
X106011463Y-54157452D01*
X106024780Y-54090500D01*
X106034061Y-54043843D01*
X106034062Y-54043843D01*
X106034062Y-54043833D01*
X106035500Y-54036607D01*
X106035500Y-53913393D01*
X106035500Y-49205452D01*
X106055185Y-49138413D01*
X106071819Y-49117771D01*
X106267772Y-48921819D01*
X106329095Y-48888334D01*
X106355453Y-48885500D01*
X114751049Y-48885500D01*
X114818088Y-48905185D01*
X114863843Y-48957989D01*
X114875049Y-49009500D01*
X114875049Y-49157876D01*
X114881456Y-49217483D01*
X114931750Y-49352328D01*
X114931754Y-49352335D01*
X115018000Y-49467544D01*
X115018003Y-49467547D01*
X115133212Y-49553793D01*
X115133219Y-49553797D01*
X115133222Y-49553798D01*
X115265146Y-49603002D01*
X115321079Y-49644873D01*
X115345497Y-49710337D01*
X115330646Y-49778610D01*
X115309495Y-49806865D01*
X115187434Y-49928926D01*
X115051948Y-50122420D01*
X115051947Y-50122422D01*
X114952118Y-50336507D01*
X114952115Y-50336513D01*
X114894912Y-50549999D01*
X114894912Y-50550000D01*
X115792536Y-50550000D01*
X115759623Y-50607007D01*
X115725548Y-50734174D01*
X115725548Y-50865826D01*
X115759623Y-50992993D01*
X115792536Y-51050000D01*
X114894912Y-51050000D01*
X114952115Y-51263486D01*
X114952118Y-51263492D01*
X115051947Y-51477578D01*
X115187442Y-51671082D01*
X115354465Y-51838105D01*
X115540143Y-51968119D01*
X115583767Y-52022696D01*
X115590960Y-52092195D01*
X115559438Y-52154549D01*
X115540143Y-52171269D01*
X115354142Y-52301508D01*
X115187053Y-52468597D01*
X115051513Y-52662169D01*
X115051512Y-52662171D01*
X114951646Y-52876335D01*
X114951642Y-52876344D01*
X114890486Y-53104586D01*
X114890484Y-53104596D01*
X114869889Y-53339999D01*
X114869889Y-53340000D01*
X114890484Y-53575403D01*
X114890486Y-53575413D01*
X114951642Y-53803655D01*
X114951644Y-53803659D01*
X114951645Y-53803663D01*
X115043098Y-53999784D01*
X115051513Y-54017830D01*
X115051515Y-54017834D01*
X115138453Y-54141993D01*
X115187053Y-54211401D01*
X115354147Y-54378495D01*
X115379137Y-54395993D01*
X115547713Y-54514032D01*
X115547715Y-54514033D01*
X115547718Y-54514035D01*
X115761885Y-54613903D01*
X115990140Y-54675063D01*
X116154672Y-54689458D01*
X116225547Y-54695659D01*
X116225548Y-54695659D01*
X116225549Y-54695659D01*
X116264782Y-54692226D01*
X116460956Y-54675063D01*
X116689211Y-54613903D01*
X116903378Y-54514035D01*
X117096949Y-54378495D01*
X117264043Y-54211401D01*
X117399583Y-54017830D01*
X117499451Y-53803663D01*
X117560611Y-53575408D01*
X117581207Y-53340000D01*
X117560611Y-53104592D01*
X117507476Y-52906286D01*
X117499453Y-52876344D01*
X117499452Y-52876343D01*
X117499451Y-52876337D01*
X117399583Y-52662171D01*
X117365696Y-52613774D01*
X117264042Y-52468597D01*
X117096950Y-52301506D01*
X117096949Y-52301505D01*
X116910953Y-52171269D01*
X116867329Y-52116692D01*
X116860136Y-52047193D01*
X116891658Y-51984839D01*
X116910953Y-51968119D01*
X117096630Y-51838105D01*
X117263653Y-51671082D01*
X117399148Y-51477578D01*
X117498977Y-51263492D01*
X117498980Y-51263486D01*
X117556184Y-51050000D01*
X116658560Y-51050000D01*
X116691473Y-50992993D01*
X116725548Y-50865826D01*
X116725548Y-50734174D01*
X116691473Y-50607007D01*
X116658560Y-50550000D01*
X117556184Y-50550000D01*
X117556183Y-50549999D01*
X117498980Y-50336513D01*
X117498977Y-50336507D01*
X117399148Y-50122422D01*
X117399147Y-50122420D01*
X117263661Y-49928926D01*
X117263656Y-49928920D01*
X117141601Y-49806865D01*
X117108116Y-49745542D01*
X117113100Y-49675850D01*
X117154972Y-49619917D01*
X117185948Y-49603002D01*
X117317879Y-49553796D01*
X117433094Y-49467546D01*
X117519344Y-49352331D01*
X117569639Y-49217483D01*
X117576048Y-49157873D01*
X117576047Y-47362128D01*
X117569639Y-47302517D01*
X117558242Y-47271961D01*
X117519345Y-47167671D01*
X117519341Y-47167664D01*
X117433095Y-47052455D01*
X117433092Y-47052452D01*
X117317883Y-46966206D01*
X117317876Y-46966202D01*
X117183030Y-46915908D01*
X117183031Y-46915908D01*
X117123431Y-46909501D01*
X117123429Y-46909500D01*
X117123421Y-46909500D01*
X117123412Y-46909500D01*
X115327677Y-46909500D01*
X115327671Y-46909501D01*
X115268064Y-46915908D01*
X115133219Y-46966202D01*
X115133212Y-46966206D01*
X115018003Y-47052452D01*
X115018000Y-47052455D01*
X114931754Y-47167664D01*
X114931750Y-47167671D01*
X114881456Y-47302517D01*
X114875049Y-47362116D01*
X114875049Y-47362123D01*
X114875048Y-47362135D01*
X114875048Y-47510500D01*
X114855363Y-47577539D01*
X114802559Y-47623294D01*
X114751048Y-47634500D01*
X106112741Y-47634500D01*
X106112721Y-47634499D01*
X106106607Y-47634499D01*
X105983394Y-47634499D01*
X105983392Y-47634499D01*
X105885898Y-47653892D01*
X105862554Y-47658535D01*
X105862552Y-47658536D01*
X105862548Y-47658537D01*
X105818013Y-47676984D01*
X105818012Y-47676984D01*
X105748721Y-47705684D01*
X105748708Y-47705691D01*
X105646267Y-47774141D01*
X105646263Y-47774144D01*
X105011269Y-48409140D01*
X104924144Y-48496264D01*
X104924138Y-48496272D01*
X104889914Y-48547489D01*
X104889915Y-48547490D01*
X104855691Y-48598708D01*
X104855689Y-48598712D01*
X104855688Y-48598714D01*
X104837714Y-48642109D01*
X104808538Y-48712545D01*
X104808535Y-48712555D01*
X104784500Y-48833389D01*
X104784500Y-51940500D01*
X104764815Y-52007539D01*
X104712011Y-52053294D01*
X104642853Y-52063238D01*
X104579297Y-52034213D01*
X104554962Y-52005598D01*
X104547712Y-51993844D01*
X104423657Y-51869789D01*
X104423656Y-51869788D01*
X104274334Y-51777686D01*
X104215493Y-51758188D01*
X104158051Y-51718416D01*
X104131228Y-51653900D01*
X104130500Y-51640483D01*
X104130500Y-50754481D01*
X104150185Y-50687442D01*
X104189404Y-50648942D01*
X104190295Y-50648392D01*
X104203350Y-50640340D01*
X104325340Y-50518350D01*
X104415908Y-50371516D01*
X104470174Y-50207753D01*
X104480500Y-50106677D01*
X104480499Y-49408324D01*
X104478631Y-49390041D01*
X104470174Y-49307247D01*
X104448191Y-49240907D01*
X104415908Y-49143484D01*
X104325340Y-48996650D01*
X104311017Y-48982327D01*
X104277532Y-48921004D01*
X104282516Y-48851312D01*
X104311021Y-48806960D01*
X104324947Y-48793035D01*
X104415448Y-48646311D01*
X104415453Y-48646300D01*
X104469680Y-48482652D01*
X104479999Y-48381654D01*
X104480000Y-48381641D01*
X104480000Y-48282500D01*
X102530001Y-48282500D01*
X102530001Y-48381654D01*
X102540319Y-48482652D01*
X102594546Y-48646300D01*
X102594551Y-48646311D01*
X102685052Y-48793034D01*
X102685055Y-48793038D01*
X102698982Y-48806965D01*
X102732467Y-48868288D01*
X102727483Y-48937980D01*
X102698984Y-48982325D01*
X102684661Y-48996648D01*
X102594093Y-49143481D01*
X102594091Y-49143486D01*
X102580584Y-49184247D01*
X102539826Y-49307247D01*
X102539826Y-49307248D01*
X102539825Y-49307248D01*
X102529500Y-49408315D01*
X102529500Y-50106669D01*
X102529501Y-50106687D01*
X102539825Y-50207752D01*
X102570394Y-50300000D01*
X102594092Y-50371516D01*
X102684660Y-50518350D01*
X102806650Y-50640340D01*
X102818920Y-50647908D01*
X102820596Y-50648942D01*
X102867321Y-50700890D01*
X102879500Y-50754481D01*
X102879500Y-51640483D01*
X102859815Y-51707522D01*
X102807011Y-51753277D01*
X102794510Y-51758186D01*
X102735666Y-51777686D01*
X102735663Y-51777687D01*
X102586342Y-51869789D01*
X102462289Y-51993842D01*
X102370187Y-52143163D01*
X102370185Y-52143168D01*
X102358113Y-52179600D01*
X102315001Y-52309703D01*
X102315001Y-52309704D01*
X102315000Y-52309704D01*
X102304500Y-52412483D01*
X102304500Y-53162501D01*
X102304501Y-53162519D01*
X102315000Y-53265296D01*
X102315001Y-53265299D01*
X102370185Y-53431831D01*
X102370187Y-53431836D01*
X102462289Y-53581157D01*
X102586346Y-53705214D01*
X102589182Y-53706963D01*
X102590717Y-53708670D01*
X102592011Y-53709693D01*
X102591836Y-53709914D01*
X102635905Y-53758911D01*
X102647126Y-53827874D01*
X102619282Y-53891956D01*
X102589182Y-53918037D01*
X102586346Y-53919785D01*
X102462289Y-54043842D01*
X102370187Y-54193163D01*
X102370185Y-54193168D01*
X102354501Y-54240500D01*
X102315001Y-54359703D01*
X102315001Y-54359704D01*
X102315000Y-54359704D01*
X102304500Y-54462483D01*
X102304500Y-55212501D01*
X102304501Y-55212519D01*
X102315000Y-55315296D01*
X102315001Y-55315299D01*
X102370185Y-55481831D01*
X102370187Y-55481836D01*
X102382986Y-55502587D01*
X102462288Y-55631156D01*
X102586344Y-55755212D01*
X102735663Y-55847312D01*
X102735668Y-55847315D01*
X102756110Y-55854088D01*
X102794502Y-55866810D01*
X102851947Y-55906581D01*
X102878772Y-55971096D01*
X102879500Y-55984516D01*
X102879500Y-56146500D01*
X102859815Y-56213539D01*
X102807011Y-56259294D01*
X102755500Y-56270500D01*
X99883607Y-56270500D01*
X99760393Y-56270500D01*
X99723261Y-56277886D01*
X99723260Y-56277885D01*
X99639554Y-56294535D01*
X99639545Y-56294537D01*
X99619543Y-56302823D01*
X99606207Y-56308347D01*
X99525718Y-56341685D01*
X99525709Y-56341690D01*
X99480200Y-56372100D01*
X99480199Y-56372101D01*
X99423268Y-56410140D01*
X99379705Y-56453703D01*
X99336142Y-56497267D01*
X99336139Y-56497270D01*
X98892635Y-56940773D01*
X98831312Y-56974258D01*
X98761620Y-56969274D01*
X98705687Y-56927402D01*
X98681634Y-56866055D01*
X98675674Y-56809344D01*
X98669054Y-56788971D01*
X98617181Y-56629322D01*
X98617180Y-56629321D01*
X98617179Y-56629316D01*
X98522533Y-56465384D01*
X98395871Y-56324712D01*
X98395870Y-56324711D01*
X98242734Y-56213451D01*
X98242729Y-56213448D01*
X98069807Y-56136457D01*
X98069802Y-56136455D01*
X97924001Y-56105465D01*
X97884646Y-56097100D01*
X97695354Y-56097100D01*
X97662897Y-56103998D01*
X97510197Y-56136455D01*
X97510192Y-56136457D01*
X97337270Y-56213448D01*
X97337265Y-56213451D01*
X97184130Y-56324710D01*
X97184126Y-56324714D01*
X97178400Y-56331074D01*
X97118913Y-56367721D01*
X97086252Y-56372100D01*
X90632852Y-56372100D01*
X90565813Y-56352415D01*
X90545171Y-56335781D01*
X89796598Y-55587208D01*
X89796578Y-55587186D01*
X88511571Y-54302181D01*
X88478086Y-54240858D01*
X88483070Y-54171167D01*
X88524941Y-54115233D01*
X88590406Y-54090816D01*
X88599252Y-54090500D01*
X90960663Y-54090500D01*
X91027702Y-54110185D01*
X91033548Y-54114182D01*
X91047265Y-54124148D01*
X91047270Y-54124151D01*
X91220192Y-54201142D01*
X91220197Y-54201144D01*
X91405354Y-54240500D01*
X91405355Y-54240500D01*
X91594644Y-54240500D01*
X91594646Y-54240500D01*
X91779803Y-54201144D01*
X91952730Y-54124151D01*
X92105871Y-54012888D01*
X92232533Y-53872216D01*
X92327179Y-53708284D01*
X92385674Y-53528256D01*
X92405460Y-53340000D01*
X92385674Y-53151744D01*
X92327179Y-52971716D01*
X92232533Y-52807784D01*
X92105871Y-52667112D01*
X92105870Y-52667111D01*
X91952734Y-52555851D01*
X91952729Y-52555848D01*
X91779807Y-52478857D01*
X91779802Y-52478855D01*
X91634001Y-52447865D01*
X91594646Y-52439500D01*
X91405354Y-52439500D01*
X91372897Y-52446398D01*
X91220197Y-52478855D01*
X91220192Y-52478857D01*
X91047270Y-52555848D01*
X91047265Y-52555851D01*
X91033548Y-52565818D01*
X90967742Y-52589298D01*
X90960663Y-52589500D01*
X88330010Y-52589500D01*
X88262971Y-52569815D01*
X88217216Y-52517011D01*
X88206482Y-52476307D01*
X88204435Y-52452908D01*
X88145539Y-52233104D01*
X88049368Y-52026866D01*
X87939382Y-51869788D01*
X87918845Y-51840458D01*
X87757941Y-51679554D01*
X87571534Y-51549032D01*
X87571532Y-51549031D01*
X87365297Y-51452861D01*
X87365290Y-51452859D01*
X87229471Y-51416466D01*
X87169811Y-51380100D01*
X87139282Y-51317253D01*
X87137565Y-51296691D01*
X87137565Y-48845471D01*
X87157250Y-48778432D01*
X87188561Y-48747694D01*
X87187552Y-48746418D01*
X87193219Y-48741936D01*
X87193218Y-48741936D01*
X87193221Y-48741935D01*
X87317277Y-48617879D01*
X87400084Y-48483625D01*
X87452032Y-48436902D01*
X87505623Y-48424723D01*
X87858330Y-48424723D01*
X87925369Y-48444408D01*
X87966638Y-48491652D01*
X87967394Y-48491187D01*
X87970187Y-48495715D01*
X87970711Y-48496315D01*
X87971188Y-48497338D01*
X88063286Y-48646651D01*
X88063289Y-48646655D01*
X88187344Y-48770710D01*
X88187348Y-48770713D01*
X88336662Y-48862812D01*
X88336664Y-48862813D01*
X88336666Y-48862814D01*
X88503203Y-48917999D01*
X88605992Y-48928500D01*
X88605997Y-48928500D01*
X89956003Y-48928500D01*
X89956008Y-48928500D01*
X90058797Y-48917999D01*
X90225334Y-48862814D01*
X90374655Y-48770711D01*
X90498711Y-48646655D01*
X90573810Y-48524902D01*
X90625758Y-48478178D01*
X90679348Y-48466000D01*
X90788420Y-48466000D01*
X90885962Y-48446596D01*
X90933413Y-48437158D01*
X91069995Y-48380584D01*
X91144507Y-48330797D01*
X91192916Y-48298452D01*
X91592772Y-47898594D01*
X91654091Y-47865112D01*
X91654423Y-47865040D01*
X91719803Y-47851144D01*
X91748313Y-47838450D01*
X91785064Y-47822088D01*
X91854314Y-47812803D01*
X91917591Y-47842431D01*
X91954804Y-47901566D01*
X91959500Y-47935367D01*
X91959500Y-49095918D01*
X91959500Y-49095920D01*
X91959499Y-49095920D01*
X91988340Y-49240907D01*
X91988343Y-49240917D01*
X92044912Y-49377488D01*
X92044918Y-49377499D01*
X92058445Y-49397742D01*
X92058447Y-49397747D01*
X92127046Y-49500414D01*
X92127052Y-49500421D01*
X95015881Y-52389248D01*
X95049366Y-52450571D01*
X95052200Y-52476929D01*
X95052200Y-52812917D01*
X95032515Y-52879956D01*
X94979711Y-52925711D01*
X94971533Y-52929099D01*
X94906371Y-52953402D01*
X94906364Y-52953406D01*
X94791155Y-53039652D01*
X94791152Y-53039655D01*
X94704906Y-53154864D01*
X94704902Y-53154871D01*
X94654608Y-53289717D01*
X94648201Y-53349316D01*
X94648201Y-53349323D01*
X94648200Y-53349335D01*
X94648200Y-54753070D01*
X94648201Y-54753076D01*
X94654608Y-54812683D01*
X94704902Y-54947528D01*
X94704906Y-54947535D01*
X94791152Y-55062744D01*
X94791155Y-55062747D01*
X94906364Y-55148993D01*
X94906371Y-55148997D01*
X95041217Y-55199291D01*
X95041216Y-55199291D01*
X95048144Y-55200035D01*
X95100827Y-55205700D01*
X96504572Y-55205699D01*
X96564183Y-55199291D01*
X96699031Y-55148996D01*
X96814246Y-55062746D01*
X96900496Y-54947531D01*
X96950791Y-54812683D01*
X96957200Y-54753073D01*
X96957199Y-53975000D01*
X97519540Y-53975000D01*
X97539326Y-54163256D01*
X97539327Y-54163259D01*
X97597818Y-54343277D01*
X97597821Y-54343284D01*
X97692467Y-54507216D01*
X97812071Y-54640049D01*
X97819129Y-54647888D01*
X97972265Y-54759148D01*
X97972270Y-54759151D01*
X98145191Y-54836142D01*
X98145194Y-54836142D01*
X98145197Y-54836144D01*
X98179221Y-54843375D01*
X98210329Y-54849988D01*
X98271811Y-54883180D01*
X98272230Y-54883597D01*
X98809080Y-55420448D01*
X98809081Y-55420449D01*
X98931998Y-55502580D01*
X98932011Y-55502587D01*
X99068582Y-55559156D01*
X99068587Y-55559158D01*
X99068591Y-55559158D01*
X99068592Y-55559159D01*
X99215786Y-55588439D01*
X99277697Y-55620824D01*
X99284851Y-55628719D01*
X99287287Y-55631155D01*
X99287288Y-55631156D01*
X99411344Y-55755212D01*
X99560666Y-55847314D01*
X99727203Y-55902499D01*
X99829991Y-55913000D01*
X100830008Y-55912999D01*
X100830016Y-55912998D01*
X100830019Y-55912998D01*
X100886302Y-55907248D01*
X100932797Y-55902499D01*
X101099334Y-55847314D01*
X101248656Y-55755212D01*
X101372712Y-55631156D01*
X101464814Y-55481834D01*
X101519999Y-55315297D01*
X101530500Y-55212509D01*
X101530499Y-54462492D01*
X101530332Y-54460860D01*
X101519999Y-54359703D01*
X101519998Y-54359700D01*
X101488686Y-54265207D01*
X101464814Y-54193166D01*
X101372712Y-54043844D01*
X101248656Y-53919788D01*
X101245819Y-53918038D01*
X101244283Y-53916330D01*
X101242989Y-53915307D01*
X101243163Y-53915085D01*
X101199096Y-53866094D01*
X101187872Y-53797132D01*
X101215713Y-53733049D01*
X101245817Y-53706962D01*
X101248656Y-53705212D01*
X101372712Y-53581156D01*
X101464814Y-53431834D01*
X101519999Y-53265297D01*
X101530500Y-53162509D01*
X101530499Y-52412492D01*
X101519999Y-52309703D01*
X101464814Y-52143166D01*
X101372712Y-51993844D01*
X101248656Y-51869788D01*
X101099334Y-51777686D01*
X101040493Y-51758188D01*
X100983051Y-51718416D01*
X100956228Y-51653900D01*
X100955500Y-51640483D01*
X100955500Y-50754481D01*
X100975185Y-50687442D01*
X101014404Y-50648942D01*
X101015295Y-50648392D01*
X101028350Y-50640340D01*
X101150340Y-50518350D01*
X101240908Y-50371516D01*
X101295174Y-50207753D01*
X101305500Y-50106677D01*
X101305499Y-49408324D01*
X101303631Y-49390041D01*
X101295174Y-49307247D01*
X101273191Y-49240907D01*
X101240908Y-49143484D01*
X101150340Y-48996650D01*
X101136017Y-48982327D01*
X101102532Y-48921004D01*
X101107516Y-48851312D01*
X101136021Y-48806960D01*
X101149947Y-48793035D01*
X101240448Y-48646311D01*
X101240453Y-48646300D01*
X101294680Y-48482652D01*
X101304999Y-48381654D01*
X101305000Y-48381641D01*
X101305000Y-48282500D01*
X99355001Y-48282500D01*
X99355001Y-48381654D01*
X99365319Y-48482652D01*
X99419546Y-48646300D01*
X99419551Y-48646311D01*
X99510052Y-48793034D01*
X99510055Y-48793038D01*
X99523982Y-48806965D01*
X99557467Y-48868288D01*
X99552483Y-48937980D01*
X99523984Y-48982325D01*
X99509661Y-48996648D01*
X99419093Y-49143481D01*
X99419091Y-49143486D01*
X99405584Y-49184247D01*
X99364826Y-49307247D01*
X99364826Y-49307248D01*
X99364825Y-49307248D01*
X99354500Y-49408315D01*
X99354500Y-50106669D01*
X99354501Y-50106687D01*
X99364825Y-50207752D01*
X99395394Y-50300000D01*
X99419092Y-50371516D01*
X99509660Y-50518350D01*
X99631650Y-50640340D01*
X99643920Y-50647908D01*
X99645596Y-50648942D01*
X99692321Y-50700890D01*
X99704500Y-50754481D01*
X99704500Y-51640483D01*
X99684815Y-51707522D01*
X99632011Y-51753277D01*
X99619510Y-51758186D01*
X99560666Y-51777686D01*
X99560663Y-51777687D01*
X99411342Y-51869789D01*
X99287289Y-51993842D01*
X99195187Y-52143163D01*
X99195185Y-52143168D01*
X99183113Y-52179600D01*
X99140001Y-52309703D01*
X99140001Y-52309704D01*
X99140000Y-52309704D01*
X99129500Y-52412483D01*
X99129500Y-53130407D01*
X99109815Y-53197446D01*
X99057011Y-53243201D01*
X98987853Y-53253145D01*
X98932615Y-53230725D01*
X98877730Y-53190849D01*
X98877729Y-53190848D01*
X98704807Y-53113857D01*
X98704802Y-53113855D01*
X98559001Y-53082865D01*
X98519646Y-53074500D01*
X98330354Y-53074500D01*
X98297897Y-53081398D01*
X98145197Y-53113855D01*
X98145192Y-53113857D01*
X97972270Y-53190848D01*
X97972265Y-53190851D01*
X97819129Y-53302111D01*
X97692466Y-53442785D01*
X97597821Y-53606715D01*
X97597818Y-53606722D01*
X97539327Y-53786740D01*
X97539326Y-53786744D01*
X97519540Y-53975000D01*
X96957199Y-53975000D01*
X96957199Y-53349328D01*
X96950791Y-53289717D01*
X96945050Y-53274325D01*
X96900497Y-53154871D01*
X96900493Y-53154864D01*
X96814247Y-53039655D01*
X96814244Y-53039652D01*
X96699035Y-52953406D01*
X96699028Y-52953402D01*
X96633867Y-52929099D01*
X96577933Y-52887228D01*
X96553516Y-52821764D01*
X96553200Y-52812917D01*
X96553200Y-52040779D01*
X96524359Y-51895792D01*
X96524358Y-51895791D01*
X96524358Y-51895787D01*
X96501573Y-51840779D01*
X96467787Y-51759211D01*
X96467780Y-51759198D01*
X96385652Y-51636285D01*
X96357028Y-51607661D01*
X96281116Y-51531749D01*
X94957118Y-50207751D01*
X93720567Y-48971199D01*
X94643254Y-48971199D01*
X94643254Y-48971200D01*
X94662995Y-49184247D01*
X94662996Y-49184250D01*
X94721546Y-49390035D01*
X94721549Y-49390041D01*
X94776508Y-49500414D01*
X94816919Y-49581570D01*
X94945859Y-49752314D01*
X95103978Y-49896458D01*
X95103983Y-49896461D01*
X95103986Y-49896463D01*
X95285886Y-50009091D01*
X95285887Y-50009091D01*
X95285890Y-50009093D01*
X95485403Y-50086385D01*
X95695720Y-50125700D01*
X95695722Y-50125700D01*
X95909678Y-50125700D01*
X95909680Y-50125700D01*
X96119997Y-50086385D01*
X96319510Y-50009093D01*
X96501422Y-49896458D01*
X96659541Y-49752314D01*
X96788481Y-49581570D01*
X96883851Y-49390040D01*
X96883851Y-49390037D01*
X96883853Y-49390035D01*
X96942403Y-49184250D01*
X96942404Y-49184247D01*
X96945199Y-49154090D01*
X96962146Y-48971200D01*
X96953888Y-48882088D01*
X96942404Y-48758152D01*
X96942403Y-48758149D01*
X96883853Y-48552364D01*
X96883850Y-48552358D01*
X96853622Y-48491652D01*
X96788481Y-48360830D01*
X96659541Y-48190086D01*
X96501422Y-48045942D01*
X96501416Y-48045938D01*
X96501413Y-48045936D01*
X96319513Y-47933308D01*
X96319507Y-47933306D01*
X96119997Y-47856015D01*
X95909680Y-47816700D01*
X95695720Y-47816700D01*
X95485403Y-47856015D01*
X95375487Y-47898597D01*
X95285892Y-47933306D01*
X95285886Y-47933308D01*
X95103986Y-48045936D01*
X95103983Y-48045938D01*
X95103979Y-48045940D01*
X95103978Y-48045942D01*
X94985005Y-48154400D01*
X94945858Y-48190087D01*
X94816919Y-48360829D01*
X94721549Y-48552358D01*
X94721546Y-48552364D01*
X94662996Y-48758149D01*
X94662995Y-48758152D01*
X94643254Y-48971199D01*
X93720567Y-48971199D01*
X93496819Y-48747451D01*
X93463334Y-48686128D01*
X93460500Y-48659770D01*
X93460500Y-47683345D01*
X99355000Y-47683345D01*
X99355000Y-47782500D01*
X100080000Y-47782500D01*
X100580000Y-47782500D01*
X101304999Y-47782500D01*
X101304999Y-47683360D01*
X101304998Y-47683345D01*
X102530000Y-47683345D01*
X102530000Y-47782500D01*
X103255000Y-47782500D01*
X103755000Y-47782500D01*
X104479999Y-47782500D01*
X104479999Y-47683360D01*
X104479998Y-47683345D01*
X104469680Y-47582347D01*
X104415453Y-47418699D01*
X104415448Y-47418688D01*
X104324947Y-47271965D01*
X104324944Y-47271961D01*
X104203038Y-47150055D01*
X104203034Y-47150052D01*
X104056311Y-47059551D01*
X104056300Y-47059546D01*
X103892652Y-47005319D01*
X103791654Y-46995000D01*
X103755000Y-46995000D01*
X103755000Y-47782500D01*
X103255000Y-47782500D01*
X103255000Y-46995000D01*
X103218361Y-46995000D01*
X103218343Y-46995001D01*
X103117347Y-47005319D01*
X102953699Y-47059546D01*
X102953688Y-47059551D01*
X102806965Y-47150052D01*
X102806961Y-47150055D01*
X102685055Y-47271961D01*
X102685052Y-47271965D01*
X102594551Y-47418688D01*
X102594546Y-47418699D01*
X102540319Y-47582347D01*
X102530000Y-47683345D01*
X101304998Y-47683345D01*
X101294680Y-47582347D01*
X101240453Y-47418699D01*
X101240448Y-47418688D01*
X101149947Y-47271965D01*
X101149944Y-47271961D01*
X101028038Y-47150055D01*
X101028034Y-47150052D01*
X100881311Y-47059551D01*
X100881300Y-47059546D01*
X100717652Y-47005319D01*
X100616654Y-46995000D01*
X100580000Y-46995000D01*
X100580000Y-47782500D01*
X100080000Y-47782500D01*
X100080000Y-46995000D01*
X100043361Y-46995000D01*
X100043343Y-46995001D01*
X99942347Y-47005319D01*
X99778699Y-47059546D01*
X99778688Y-47059551D01*
X99631965Y-47150052D01*
X99631961Y-47150055D01*
X99510055Y-47271961D01*
X99510052Y-47271965D01*
X99419551Y-47418688D01*
X99419546Y-47418699D01*
X99365319Y-47582347D01*
X99355000Y-47683345D01*
X93460500Y-47683345D01*
X93460500Y-45646081D01*
X93460499Y-45646080D01*
X93452901Y-45607879D01*
X93431659Y-45501088D01*
X93405462Y-45437844D01*
X100540000Y-45437844D01*
X100546401Y-45497372D01*
X100546403Y-45497379D01*
X100596645Y-45632086D01*
X100596649Y-45632093D01*
X100682809Y-45747187D01*
X100682812Y-45747190D01*
X100797906Y-45833350D01*
X100797913Y-45833354D01*
X100932620Y-45883596D01*
X100932627Y-45883598D01*
X100992155Y-45889999D01*
X100992172Y-45890000D01*
X101350000Y-45890000D01*
X101850000Y-45890000D01*
X102207828Y-45890000D01*
X102207844Y-45889999D01*
X102267372Y-45883598D01*
X102267379Y-45883596D01*
X102402086Y-45833354D01*
X102402093Y-45833350D01*
X102517187Y-45747190D01*
X102517190Y-45747187D01*
X102603350Y-45632093D01*
X102603354Y-45632086D01*
X102653596Y-45497379D01*
X102653598Y-45497372D01*
X102659999Y-45437844D01*
X103080000Y-45437844D01*
X103086401Y-45497372D01*
X103086403Y-45497379D01*
X103136645Y-45632086D01*
X103136649Y-45632093D01*
X103222809Y-45747187D01*
X103222812Y-45747190D01*
X103337906Y-45833350D01*
X103337913Y-45833354D01*
X103472620Y-45883596D01*
X103472627Y-45883598D01*
X103532155Y-45889999D01*
X103532172Y-45890000D01*
X103890000Y-45890000D01*
X104390000Y-45890000D01*
X104747828Y-45890000D01*
X104747844Y-45889999D01*
X104807372Y-45883598D01*
X104807379Y-45883596D01*
X104942086Y-45833354D01*
X104942093Y-45833350D01*
X105057187Y-45747190D01*
X105057190Y-45747187D01*
X105143350Y-45632093D01*
X105143354Y-45632086D01*
X105193596Y-45497379D01*
X105193598Y-45497372D01*
X105199999Y-45437844D01*
X105620000Y-45437844D01*
X105626401Y-45497372D01*
X105626403Y-45497379D01*
X105676645Y-45632086D01*
X105676649Y-45632093D01*
X105762809Y-45747187D01*
X105762812Y-45747190D01*
X105877906Y-45833350D01*
X105877913Y-45833354D01*
X106012620Y-45883596D01*
X106012627Y-45883598D01*
X106072155Y-45889999D01*
X106072172Y-45890000D01*
X106430000Y-45890000D01*
X106930000Y-45890000D01*
X107287828Y-45890000D01*
X107287844Y-45889999D01*
X107347372Y-45883598D01*
X107347379Y-45883596D01*
X107482086Y-45833354D01*
X107482093Y-45833350D01*
X107597187Y-45747190D01*
X107597190Y-45747187D01*
X107617542Y-45720000D01*
X108949540Y-45720000D01*
X108969326Y-45908256D01*
X108969327Y-45908259D01*
X109027818Y-46088277D01*
X109027821Y-46088284D01*
X109122467Y-46252216D01*
X109180899Y-46317111D01*
X109249129Y-46392888D01*
X109402265Y-46504148D01*
X109402270Y-46504151D01*
X109575192Y-46581142D01*
X109575197Y-46581144D01*
X109760354Y-46620500D01*
X109760355Y-46620500D01*
X109949644Y-46620500D01*
X109949646Y-46620500D01*
X110134803Y-46581144D01*
X110307730Y-46504151D01*
X110460871Y-46392888D01*
X110587533Y-46252216D01*
X110682179Y-46088284D01*
X110687826Y-46070906D01*
X110736474Y-45921182D01*
X110775911Y-45863506D01*
X110840270Y-45836308D01*
X110854405Y-45835500D01*
X113357920Y-45835500D01*
X113455462Y-45816096D01*
X113502913Y-45806658D01*
X113639495Y-45750084D01*
X113688729Y-45717186D01*
X113762416Y-45667952D01*
X115462843Y-43967525D01*
X115491089Y-43925250D01*
X115528496Y-43869268D01*
X115528496Y-43869267D01*
X115536762Y-43856894D01*
X115544975Y-43844604D01*
X115579272Y-43761804D01*
X115587788Y-43741244D01*
X115631626Y-43686842D01*
X115656702Y-43673404D01*
X115903986Y-43575498D01*
X115903987Y-43575497D01*
X115903985Y-43575497D01*
X115903995Y-43575494D01*
X116168686Y-43429978D01*
X116413053Y-43252436D01*
X116633240Y-43045666D01*
X116825776Y-42812930D01*
X116987624Y-42557898D01*
X116987623Y-42557898D01*
X116987626Y-42557895D01*
X116987625Y-42557894D01*
X117116232Y-42284592D01*
X117209572Y-41997322D01*
X117266171Y-41700619D01*
X117266172Y-41700608D01*
X117285137Y-41399167D01*
X117285137Y-41399156D01*
X117266172Y-41097715D01*
X117266171Y-41097708D01*
X117266171Y-41097705D01*
X117209572Y-40801002D01*
X117116232Y-40513732D01*
X117107354Y-40494866D01*
X117034972Y-40341046D01*
X116987624Y-40240426D01*
X116987620Y-40240419D01*
X116825779Y-39985398D01*
X116806172Y-39961697D01*
X116633240Y-39752658D01*
X116627454Y-39747225D01*
X116413054Y-39545889D01*
X116413044Y-39545881D01*
X116168697Y-39368353D01*
X116168690Y-39368348D01*
X116168686Y-39368346D01*
X115903995Y-39222830D01*
X115903992Y-39222828D01*
X115903987Y-39222826D01*
X115903986Y-39222825D01*
X115623156Y-39111637D01*
X115623153Y-39111636D01*
X115356863Y-39043266D01*
X115296825Y-39007528D01*
X115265639Y-38945005D01*
X115273207Y-38875546D01*
X115317125Y-38821205D01*
X115383451Y-38799235D01*
X115387700Y-38799162D01*
X116827719Y-38799162D01*
X116827735Y-38799161D01*
X116887263Y-38792760D01*
X116887270Y-38792758D01*
X117021977Y-38742516D01*
X117021984Y-38742512D01*
X117137078Y-38656352D01*
X117137081Y-38656349D01*
X117223241Y-38541255D01*
X117223245Y-38541248D01*
X117273487Y-38406541D01*
X117273489Y-38406534D01*
X117279890Y-38347006D01*
X117279891Y-38346989D01*
X117279891Y-36649162D01*
X116207122Y-36649162D01*
X116229891Y-36505409D01*
X116229891Y-36292915D01*
X116207122Y-36149162D01*
X117279891Y-36149162D01*
X117279891Y-34451334D01*
X117279890Y-34451317D01*
X117273489Y-34391789D01*
X117273487Y-34391782D01*
X117223245Y-34257075D01*
X117223241Y-34257068D01*
X117137081Y-34141974D01*
X117137078Y-34141971D01*
X117021984Y-34055811D01*
X117021977Y-34055807D01*
X116887270Y-34005565D01*
X116887263Y-34005563D01*
X116827735Y-33999162D01*
X115129891Y-33999162D01*
X115129891Y-35071930D01*
X114986138Y-35049162D01*
X114773644Y-35049162D01*
X114629891Y-35071930D01*
X114629891Y-33999162D01*
X112932046Y-33999162D01*
X112872518Y-34005563D01*
X112872511Y-34005565D01*
X112737804Y-34055807D01*
X112737797Y-34055811D01*
X112622703Y-34141971D01*
X112622700Y-34141974D01*
X112536540Y-34257068D01*
X112536536Y-34257075D01*
X112486294Y-34391782D01*
X112486292Y-34391789D01*
X112479891Y-34451317D01*
X112479891Y-36149162D01*
X113552660Y-36149162D01*
X113529891Y-36292915D01*
X113529891Y-36505409D01*
X113552660Y-36649162D01*
X112479891Y-36649162D01*
X112479891Y-38347006D01*
X112486292Y-38406534D01*
X112486294Y-38406541D01*
X112536536Y-38541248D01*
X112536540Y-38541255D01*
X112622700Y-38656349D01*
X112622703Y-38656352D01*
X112737797Y-38742512D01*
X112737804Y-38742516D01*
X112872511Y-38792758D01*
X112872518Y-38792760D01*
X112932046Y-38799161D01*
X112932063Y-38799162D01*
X114372082Y-38799162D01*
X114439121Y-38818847D01*
X114484876Y-38871651D01*
X114494820Y-38940809D01*
X114465795Y-39004365D01*
X114407017Y-39042139D01*
X114402919Y-39043266D01*
X114136628Y-39111636D01*
X114136625Y-39111637D01*
X113855795Y-39222825D01*
X113855794Y-39222826D01*
X113591096Y-39368346D01*
X113591084Y-39368353D01*
X113346737Y-39545881D01*
X113346727Y-39545889D01*
X113126543Y-39752656D01*
X112934002Y-39985398D01*
X112772162Y-40240419D01*
X112772156Y-40240429D01*
X112643552Y-40513725D01*
X112643550Y-40513730D01*
X112550211Y-40800997D01*
X112493610Y-41097708D01*
X112493609Y-41097715D01*
X112474645Y-41399156D01*
X112474645Y-41399167D01*
X112493609Y-41700608D01*
X112493610Y-41700615D01*
X112493611Y-41700619D01*
X112532450Y-41904223D01*
X112550211Y-41997326D01*
X112643550Y-42284593D01*
X112643552Y-42284598D01*
X112772156Y-42557894D01*
X112772156Y-42557895D01*
X112934002Y-42812925D01*
X112934005Y-42812929D01*
X112934006Y-42812930D01*
X113126542Y-43045666D01*
X113318690Y-43226106D01*
X113346727Y-43252434D01*
X113346737Y-43252442D01*
X113591085Y-43429970D01*
X113591096Y-43429978D01*
X113605842Y-43438085D01*
X113631276Y-43452068D01*
X113680540Y-43501615D01*
X113695196Y-43569930D01*
X113670592Y-43635324D01*
X113659219Y-43648411D01*
X113009451Y-44298181D01*
X112948128Y-44331666D01*
X112921770Y-44334500D01*
X110416076Y-44334500D01*
X110387242Y-44340234D01*
X110387243Y-44340235D01*
X110271093Y-44363339D01*
X110271089Y-44363340D01*
X110210608Y-44388393D01*
X110134507Y-44419914D01*
X110134498Y-44419919D01*
X110089482Y-44449999D01*
X110011582Y-44502049D01*
X109702229Y-44811402D01*
X109640906Y-44844887D01*
X109640330Y-44845011D01*
X109575196Y-44858856D01*
X109575192Y-44858857D01*
X109402270Y-44935848D01*
X109402265Y-44935851D01*
X109249129Y-45047111D01*
X109122466Y-45187785D01*
X109027821Y-45351715D01*
X109027818Y-45351722D01*
X108969327Y-45531740D01*
X108969326Y-45531744D01*
X108949540Y-45720000D01*
X107617542Y-45720000D01*
X107683350Y-45632093D01*
X107683354Y-45632086D01*
X107733596Y-45497379D01*
X107733598Y-45497372D01*
X107739999Y-45437844D01*
X107740000Y-45437827D01*
X107740000Y-44420000D01*
X106930000Y-44420000D01*
X106930000Y-45890000D01*
X106430000Y-45890000D01*
X106430000Y-44420000D01*
X105620000Y-44420000D01*
X105620000Y-45437844D01*
X105199999Y-45437844D01*
X105200000Y-45437827D01*
X105200000Y-44420000D01*
X104390000Y-44420000D01*
X104390000Y-45890000D01*
X103890000Y-45890000D01*
X103890000Y-44420000D01*
X103080000Y-44420000D01*
X103080000Y-45437844D01*
X102659999Y-45437844D01*
X102660000Y-45437827D01*
X102660000Y-44420000D01*
X101850000Y-44420000D01*
X101850000Y-45890000D01*
X101350000Y-45890000D01*
X101350000Y-44420000D01*
X100540000Y-44420000D01*
X100540000Y-45437844D01*
X93405462Y-45437844D01*
X93394223Y-45410711D01*
X93389993Y-45400500D01*
X93375085Y-45364507D01*
X93369265Y-45355797D01*
X93310770Y-45268252D01*
X93289892Y-45201574D01*
X93308377Y-45134194D01*
X93321713Y-45116398D01*
X93442533Y-44982216D01*
X93537179Y-44818284D01*
X93595674Y-44638256D01*
X93615460Y-44450000D01*
X93611034Y-44407892D01*
X93612405Y-44378024D01*
X93611908Y-44377975D01*
X93612505Y-44371916D01*
X93612505Y-44043418D01*
X95200360Y-44043418D01*
X95210853Y-44146129D01*
X95266000Y-44312551D01*
X95266002Y-44312556D01*
X95358043Y-44461777D01*
X95482013Y-44585747D01*
X95631234Y-44677788D01*
X95631239Y-44677790D01*
X95797661Y-44732937D01*
X95797668Y-44732938D01*
X95900378Y-44743431D01*
X96175358Y-44743431D01*
X96675359Y-44743431D01*
X96950331Y-44743431D01*
X96950345Y-44743430D01*
X97053056Y-44732937D01*
X97219478Y-44677790D01*
X97219483Y-44677788D01*
X97368704Y-44585747D01*
X97492674Y-44461777D01*
X97584715Y-44312556D01*
X97584717Y-44312551D01*
X97639864Y-44146129D01*
X97639865Y-44146122D01*
X97650358Y-44043418D01*
X97650359Y-44043405D01*
X97650359Y-43905932D01*
X96675359Y-43905932D01*
X96675359Y-44743431D01*
X96175358Y-44743431D01*
X96175359Y-44743430D01*
X96175359Y-43905932D01*
X95200360Y-43905932D01*
X95200360Y-44043418D01*
X93612505Y-44043418D01*
X93612505Y-43626702D01*
X93632190Y-43559663D01*
X93684994Y-43513908D01*
X93736505Y-43502702D01*
X94430925Y-43502702D01*
X94528467Y-43483298D01*
X94575918Y-43473860D01*
X94712500Y-43417286D01*
X94761734Y-43384388D01*
X94835421Y-43335154D01*
X94988678Y-43181897D01*
X95050001Y-43148412D01*
X95119693Y-43153396D01*
X95175626Y-43195268D01*
X95200043Y-43260732D01*
X95200359Y-43269578D01*
X95200359Y-43405932D01*
X97650358Y-43405932D01*
X97650358Y-43268460D01*
X97650357Y-43268445D01*
X97639864Y-43165734D01*
X97584717Y-42999312D01*
X97584715Y-42999307D01*
X97524791Y-42902155D01*
X100540000Y-42902155D01*
X100540000Y-43920000D01*
X101350000Y-43920000D01*
X101850000Y-43920000D01*
X102660000Y-43920000D01*
X102660000Y-42902172D01*
X102659999Y-42902155D01*
X103080000Y-42902155D01*
X103080000Y-43920000D01*
X103890000Y-43920000D01*
X104390000Y-43920000D01*
X105200000Y-43920000D01*
X105200000Y-42902172D01*
X105199999Y-42902155D01*
X105620000Y-42902155D01*
X105620000Y-43920000D01*
X106430000Y-43920000D01*
X106930000Y-43920000D01*
X107740000Y-43920000D01*
X107740000Y-42902172D01*
X107739999Y-42902155D01*
X107733598Y-42842627D01*
X107733596Y-42842620D01*
X107683354Y-42707913D01*
X107683350Y-42707906D01*
X107597190Y-42592812D01*
X107597187Y-42592809D01*
X107482093Y-42506649D01*
X107482086Y-42506645D01*
X107347379Y-42456403D01*
X107347372Y-42456401D01*
X107287844Y-42450000D01*
X106930000Y-42450000D01*
X106930000Y-43920000D01*
X106430000Y-43920000D01*
X106430000Y-42450000D01*
X106072155Y-42450000D01*
X106012627Y-42456401D01*
X106012620Y-42456403D01*
X105877913Y-42506645D01*
X105877906Y-42506649D01*
X105762812Y-42592809D01*
X105762809Y-42592812D01*
X105676649Y-42707906D01*
X105676645Y-42707913D01*
X105626403Y-42842620D01*
X105626401Y-42842627D01*
X105620000Y-42902155D01*
X105199999Y-42902155D01*
X105193598Y-42842627D01*
X105193596Y-42842620D01*
X105143354Y-42707913D01*
X105143350Y-42707906D01*
X105057190Y-42592812D01*
X105057187Y-42592809D01*
X104942093Y-42506649D01*
X104942086Y-42506645D01*
X104807379Y-42456403D01*
X104807372Y-42456401D01*
X104747844Y-42450000D01*
X104390000Y-42450000D01*
X104390000Y-43920000D01*
X103890000Y-43920000D01*
X103890000Y-42450000D01*
X103532155Y-42450000D01*
X103472627Y-42456401D01*
X103472620Y-42456403D01*
X103337913Y-42506645D01*
X103337906Y-42506649D01*
X103222812Y-42592809D01*
X103222809Y-42592812D01*
X103136649Y-42707906D01*
X103136645Y-42707913D01*
X103086403Y-42842620D01*
X103086401Y-42842627D01*
X103080000Y-42902155D01*
X102659999Y-42902155D01*
X102653598Y-42842627D01*
X102653596Y-42842620D01*
X102603354Y-42707913D01*
X102603350Y-42707906D01*
X102517190Y-42592812D01*
X102517187Y-42592809D01*
X102402093Y-42506649D01*
X102402086Y-42506645D01*
X102267379Y-42456403D01*
X102267372Y-42456401D01*
X102207844Y-42450000D01*
X101850000Y-42450000D01*
X101850000Y-43920000D01*
X101350000Y-43920000D01*
X101350000Y-42450000D01*
X100992155Y-42450000D01*
X100932627Y-42456401D01*
X100932620Y-42456403D01*
X100797913Y-42506645D01*
X100797906Y-42506649D01*
X100682812Y-42592809D01*
X100682809Y-42592812D01*
X100596649Y-42707906D01*
X100596645Y-42707913D01*
X100546403Y-42842620D01*
X100546401Y-42842627D01*
X100540000Y-42902155D01*
X97524791Y-42902155D01*
X97492674Y-42850086D01*
X97368703Y-42726115D01*
X97368700Y-42726113D01*
X97365698Y-42724261D01*
X97364072Y-42722453D01*
X97363036Y-42721634D01*
X97363176Y-42721456D01*
X97318976Y-42672312D01*
X97307756Y-42603349D01*
X97335602Y-42539268D01*
X97365703Y-42513186D01*
X97369015Y-42511144D01*
X97493071Y-42387088D01*
X97585173Y-42237766D01*
X97640358Y-42071229D01*
X97650859Y-41968441D01*
X97650858Y-41193424D01*
X97640358Y-41090635D01*
X97585173Y-40924098D01*
X97493071Y-40774776D01*
X97369015Y-40650720D01*
X97234761Y-40567912D01*
X97188038Y-40515965D01*
X97175859Y-40462374D01*
X97175859Y-40408085D01*
X97195544Y-40341046D01*
X97248348Y-40295291D01*
X97260853Y-40290380D01*
X97294467Y-40279242D01*
X97443789Y-40187140D01*
X97567845Y-40063084D01*
X97659947Y-39913762D01*
X97715132Y-39747225D01*
X97725633Y-39644437D01*
X97725632Y-38869420D01*
X97722158Y-38835416D01*
X97715132Y-38766631D01*
X97715131Y-38766628D01*
X97701414Y-38725233D01*
X97659947Y-38600094D01*
X97567845Y-38450772D01*
X97443789Y-38326716D01*
X97440475Y-38324671D01*
X97438679Y-38322676D01*
X97438122Y-38322235D01*
X97438197Y-38322139D01*
X97421162Y-38303200D01*
X99881740Y-38303200D01*
X99901526Y-38491456D01*
X99901527Y-38491459D01*
X99960018Y-38671477D01*
X99960021Y-38671484D01*
X100054667Y-38835416D01*
X100167872Y-38961142D01*
X100181329Y-38976088D01*
X100334465Y-39087348D01*
X100334470Y-39087351D01*
X100507392Y-39164342D01*
X100507397Y-39164344D01*
X100692554Y-39203700D01*
X100692555Y-39203700D01*
X100881844Y-39203700D01*
X100881846Y-39203700D01*
X101067003Y-39164344D01*
X101239930Y-39087351D01*
X101393071Y-38976088D01*
X101519733Y-38835416D01*
X101614379Y-38671484D01*
X101672874Y-38491456D01*
X101690521Y-38323545D01*
X101717105Y-38258932D01*
X101726152Y-38248836D01*
X101820020Y-38154968D01*
X101881341Y-38121485D01*
X101951033Y-38126469D01*
X102006966Y-38168341D01*
X102031383Y-38233805D01*
X102031020Y-38255610D01*
X102015340Y-38404800D01*
X102035126Y-38593056D01*
X102035127Y-38593059D01*
X102093618Y-38773077D01*
X102093621Y-38773084D01*
X102188267Y-38937016D01*
X102283935Y-39043266D01*
X102314929Y-39077688D01*
X102468065Y-39188948D01*
X102468070Y-39188951D01*
X102640992Y-39265942D01*
X102640997Y-39265944D01*
X102826154Y-39305300D01*
X102826155Y-39305300D01*
X103015444Y-39305300D01*
X103015446Y-39305300D01*
X103200603Y-39265944D01*
X103373530Y-39188951D01*
X103526671Y-39077688D01*
X103653333Y-38937016D01*
X103747979Y-38773084D01*
X103806474Y-38593056D01*
X103824121Y-38425145D01*
X103850705Y-38360532D01*
X103859752Y-38350436D01*
X104087178Y-38123010D01*
X104148499Y-38089527D01*
X104218191Y-38094511D01*
X104274124Y-38136383D01*
X104298541Y-38201847D01*
X104292788Y-38249010D01*
X104270327Y-38318139D01*
X104270326Y-38318141D01*
X104270326Y-38318144D01*
X104250540Y-38506400D01*
X104270326Y-38694656D01*
X104270327Y-38694659D01*
X104328818Y-38874677D01*
X104328821Y-38874684D01*
X104423467Y-39038616D01*
X104489215Y-39111636D01*
X104550129Y-39179288D01*
X104703265Y-39290548D01*
X104703270Y-39290551D01*
X104876192Y-39367542D01*
X104876197Y-39367544D01*
X105061354Y-39406900D01*
X105061355Y-39406900D01*
X105250644Y-39406900D01*
X105250646Y-39406900D01*
X105435803Y-39367544D01*
X105608730Y-39290551D01*
X105761871Y-39179288D01*
X105888533Y-39038616D01*
X105983179Y-38874684D01*
X106041674Y-38694656D01*
X106059321Y-38526744D01*
X106085904Y-38462134D01*
X106094951Y-38452038D01*
X107165857Y-37381134D01*
X107170775Y-37373774D01*
X107186996Y-37349499D01*
X107196651Y-37335048D01*
X107250262Y-37290241D01*
X107286502Y-37280646D01*
X107287870Y-37280499D01*
X107287872Y-37280499D01*
X107347483Y-37274091D01*
X107482331Y-37223796D01*
X107597546Y-37137546D01*
X107683796Y-37022331D01*
X107734091Y-36887483D01*
X107740500Y-36827873D01*
X107740499Y-34292128D01*
X107734091Y-34232517D01*
X107731158Y-34224654D01*
X107683797Y-34097671D01*
X107683793Y-34097664D01*
X107597547Y-33982455D01*
X107597544Y-33982452D01*
X107482335Y-33896206D01*
X107482328Y-33896202D01*
X107347482Y-33845908D01*
X107347483Y-33845908D01*
X107287883Y-33839501D01*
X107287881Y-33839500D01*
X107287873Y-33839500D01*
X107287864Y-33839500D01*
X106072129Y-33839500D01*
X106072123Y-33839501D01*
X106012516Y-33845908D01*
X105877671Y-33896202D01*
X105877664Y-33896206D01*
X105762455Y-33982452D01*
X105762452Y-33982455D01*
X105676206Y-34097664D01*
X105676202Y-34097671D01*
X105625908Y-34232517D01*
X105619501Y-34292116D01*
X105619501Y-34292123D01*
X105619500Y-34292135D01*
X105619500Y-36827870D01*
X105619501Y-36827876D01*
X105625908Y-36887483D01*
X105669890Y-37005404D01*
X105674874Y-37075096D01*
X105641390Y-37136418D01*
X105566815Y-37210994D01*
X105208227Y-37569582D01*
X105146907Y-37603066D01*
X105120548Y-37605900D01*
X105061354Y-37605900D01*
X105035535Y-37611388D01*
X104876197Y-37645255D01*
X104876196Y-37645255D01*
X104853071Y-37655552D01*
X104783820Y-37664836D01*
X104720544Y-37635207D01*
X104683331Y-37576072D01*
X104683997Y-37506205D01*
X104693280Y-37483814D01*
X104694307Y-37481891D01*
X104694311Y-37481886D01*
X104741463Y-37368052D01*
X104742868Y-37360987D01*
X104775250Y-37299076D01*
X104821154Y-37268992D01*
X104846167Y-37259663D01*
X104879635Y-37247180D01*
X104942326Y-37223798D01*
X104942326Y-37223797D01*
X104942331Y-37223796D01*
X105057546Y-37137546D01*
X105143796Y-37022331D01*
X105194091Y-36887483D01*
X105200500Y-36827873D01*
X105200499Y-34292128D01*
X105194091Y-34232517D01*
X105191158Y-34224654D01*
X105143797Y-34097671D01*
X105143793Y-34097664D01*
X105057547Y-33982455D01*
X105057544Y-33982452D01*
X104942335Y-33896206D01*
X104942328Y-33896202D01*
X104807482Y-33845908D01*
X104807483Y-33845908D01*
X104747883Y-33839501D01*
X104747881Y-33839500D01*
X104747873Y-33839500D01*
X104747864Y-33839500D01*
X103532129Y-33839500D01*
X103532123Y-33839501D01*
X103472516Y-33845908D01*
X103337671Y-33896202D01*
X103337664Y-33896206D01*
X103222455Y-33982452D01*
X103222452Y-33982455D01*
X103136206Y-34097664D01*
X103136202Y-34097671D01*
X103085908Y-34232517D01*
X103079501Y-34292116D01*
X103079501Y-34292123D01*
X103079500Y-34292135D01*
X103079500Y-36827870D01*
X103079501Y-36827876D01*
X103085908Y-36887483D01*
X103136202Y-37022328D01*
X103136206Y-37022335D01*
X103192743Y-37097858D01*
X103217161Y-37163322D01*
X103202310Y-37231595D01*
X103181159Y-37259850D01*
X102973027Y-37467982D01*
X102911707Y-37501466D01*
X102885348Y-37504300D01*
X102826154Y-37504300D01*
X102820857Y-37505426D01*
X102640997Y-37543655D01*
X102640992Y-37543657D01*
X102468071Y-37620648D01*
X102422385Y-37653841D01*
X102356578Y-37677320D01*
X102288524Y-37661494D01*
X102239830Y-37611388D01*
X102225500Y-37553522D01*
X102225500Y-37375845D01*
X102245185Y-37308806D01*
X102297989Y-37263051D01*
X102306167Y-37259663D01*
X102381421Y-37231595D01*
X102402331Y-37223796D01*
X102517546Y-37137546D01*
X102603796Y-37022331D01*
X102654091Y-36887483D01*
X102660500Y-36827873D01*
X102660499Y-34292128D01*
X102654091Y-34232517D01*
X102651158Y-34224654D01*
X102603797Y-34097671D01*
X102603793Y-34097664D01*
X102517547Y-33982455D01*
X102517544Y-33982452D01*
X102402335Y-33896206D01*
X102402328Y-33896202D01*
X102267482Y-33845908D01*
X102267483Y-33845908D01*
X102207883Y-33839501D01*
X102207881Y-33839500D01*
X102207873Y-33839500D01*
X102207864Y-33839500D01*
X100992129Y-33839500D01*
X100992123Y-33839501D01*
X100932516Y-33845908D01*
X100797671Y-33896202D01*
X100797664Y-33896206D01*
X100682455Y-33982452D01*
X100682452Y-33982455D01*
X100596206Y-34097664D01*
X100596202Y-34097671D01*
X100545908Y-34232517D01*
X100539501Y-34292116D01*
X100539501Y-34292123D01*
X100539500Y-34292135D01*
X100539500Y-36827870D01*
X100539501Y-36827876D01*
X100545908Y-36887483D01*
X100596202Y-37022328D01*
X100596206Y-37022335D01*
X100659375Y-37106716D01*
X100682454Y-37137546D01*
X100741820Y-37181987D01*
X100783690Y-37237920D01*
X100788674Y-37307612D01*
X100755189Y-37368935D01*
X100693865Y-37402419D01*
X100693289Y-37402543D01*
X100507397Y-37442055D01*
X100507392Y-37442057D01*
X100334470Y-37519048D01*
X100334465Y-37519051D01*
X100181329Y-37630311D01*
X100054666Y-37770985D01*
X99960021Y-37934915D01*
X99960018Y-37934922D01*
X99902565Y-38111746D01*
X99901526Y-38114944D01*
X99881740Y-38303200D01*
X97421162Y-38303200D01*
X97393751Y-38272725D01*
X97382530Y-38203762D01*
X97410373Y-38139680D01*
X97440481Y-38113593D01*
X97443475Y-38111746D01*
X97567448Y-37987773D01*
X97659489Y-37838552D01*
X97659491Y-37838547D01*
X97714638Y-37672125D01*
X97714639Y-37672118D01*
X97725132Y-37569414D01*
X97725133Y-37569401D01*
X97725133Y-37431928D01*
X96374133Y-37431928D01*
X96307094Y-37412243D01*
X96261339Y-37359439D01*
X96250133Y-37307928D01*
X96250133Y-36931928D01*
X96750133Y-36931928D01*
X97725132Y-36931928D01*
X97725132Y-36794456D01*
X97725131Y-36794441D01*
X97714638Y-36691730D01*
X97659491Y-36525308D01*
X97659489Y-36525303D01*
X97567448Y-36376082D01*
X97443478Y-36252112D01*
X97294257Y-36160071D01*
X97294252Y-36160069D01*
X97127830Y-36104922D01*
X97127823Y-36104921D01*
X97025119Y-36094428D01*
X96750133Y-36094428D01*
X96750133Y-36931928D01*
X96250133Y-36931928D01*
X96250133Y-36094428D01*
X95975162Y-36094428D01*
X95975145Y-36094429D01*
X95872435Y-36104922D01*
X95706013Y-36160069D01*
X95706008Y-36160071D01*
X95556784Y-36252114D01*
X95556781Y-36252116D01*
X95550720Y-36258177D01*
X95489394Y-36291657D01*
X95419703Y-36286666D01*
X95412611Y-36283767D01*
X95275807Y-36222857D01*
X95275802Y-36222855D01*
X95130001Y-36191865D01*
X95090646Y-36183500D01*
X94901354Y-36183500D01*
X94868897Y-36190398D01*
X94716197Y-36222855D01*
X94716192Y-36222857D01*
X94543270Y-36299848D01*
X94543266Y-36299851D01*
X94473835Y-36350295D01*
X94408029Y-36373774D01*
X94339975Y-36357948D01*
X94295414Y-36315074D01*
X94285712Y-36299344D01*
X94161656Y-36175288D01*
X94158342Y-36173243D01*
X94156546Y-36171248D01*
X94155989Y-36170807D01*
X94156064Y-36170711D01*
X94111618Y-36121297D01*
X94100397Y-36052334D01*
X94128240Y-35988252D01*
X94158348Y-35962165D01*
X94161342Y-35960318D01*
X94285315Y-35836345D01*
X94377356Y-35687124D01*
X94377358Y-35687119D01*
X94432505Y-35520697D01*
X94432506Y-35520690D01*
X94442999Y-35417986D01*
X94443000Y-35417973D01*
X94443000Y-35280500D01*
X91993001Y-35280500D01*
X91993001Y-35417986D01*
X92003494Y-35520697D01*
X92058641Y-35687119D01*
X92058643Y-35687124D01*
X92150684Y-35836345D01*
X92274655Y-35960316D01*
X92274659Y-35960319D01*
X92277656Y-35962168D01*
X92279279Y-35963972D01*
X92280323Y-35964798D01*
X92280181Y-35964976D01*
X92324381Y-36014116D01*
X92335602Y-36083079D01*
X92307759Y-36147161D01*
X92277661Y-36173241D01*
X92274349Y-36175283D01*
X92274343Y-36175288D01*
X92150289Y-36299342D01*
X92058187Y-36448663D01*
X92058186Y-36448666D01*
X92003001Y-36615203D01*
X92003001Y-36615204D01*
X92003000Y-36615204D01*
X91992500Y-36717983D01*
X91992500Y-37089703D01*
X91972815Y-37156742D01*
X91920011Y-37202497D01*
X91850853Y-37212441D01*
X91842729Y-37210995D01*
X91788646Y-37199500D01*
X91599354Y-37199500D01*
X91566897Y-37206398D01*
X91414197Y-37238855D01*
X91414192Y-37238857D01*
X91241270Y-37315848D01*
X91241265Y-37315851D01*
X91088129Y-37427111D01*
X90961466Y-37567785D01*
X90866821Y-37731715D01*
X90866818Y-37731722D01*
X90808327Y-37911740D01*
X90808326Y-37911744D01*
X90788540Y-38100000D01*
X90808326Y-38288256D01*
X90808327Y-38288259D01*
X90866818Y-38468277D01*
X90866821Y-38468284D01*
X90961467Y-38632216D01*
X91060637Y-38742355D01*
X91088129Y-38772888D01*
X91241265Y-38884148D01*
X91241270Y-38884151D01*
X91414192Y-38961142D01*
X91414197Y-38961144D01*
X91599354Y-39000500D01*
X91599355Y-39000500D01*
X91788644Y-39000500D01*
X91788646Y-39000500D01*
X91842720Y-38989006D01*
X91912386Y-38994322D01*
X91968119Y-39036459D01*
X91992225Y-39102038D01*
X91992500Y-39110296D01*
X91992500Y-39482001D01*
X91992501Y-39482019D01*
X92003000Y-39584796D01*
X92003001Y-39584799D01*
X92058185Y-39751331D01*
X92058187Y-39751336D01*
X92065823Y-39763716D01*
X92150288Y-39900656D01*
X92274344Y-40024712D01*
X92277628Y-40026737D01*
X92277653Y-40026753D01*
X92279445Y-40028746D01*
X92280011Y-40029193D01*
X92279934Y-40029289D01*
X92324379Y-40078699D01*
X92335603Y-40147661D01*
X92307761Y-40211744D01*
X92277665Y-40237826D01*
X92274660Y-40239679D01*
X92274655Y-40239683D01*
X92150684Y-40363654D01*
X92058643Y-40512875D01*
X92058641Y-40512880D01*
X92003494Y-40679302D01*
X92003493Y-40679309D01*
X91993000Y-40782013D01*
X91993000Y-40919500D01*
X93344000Y-40919500D01*
X93411039Y-40939185D01*
X93456794Y-40991989D01*
X93468000Y-41043500D01*
X93468000Y-41295500D01*
X93448315Y-41362539D01*
X93395511Y-41408294D01*
X93344000Y-41419500D01*
X91993001Y-41419500D01*
X91993001Y-41556986D01*
X92003494Y-41659697D01*
X92058641Y-41826119D01*
X92058643Y-41826124D01*
X92150684Y-41975345D01*
X92274654Y-42099315D01*
X92390972Y-42171061D01*
X92437696Y-42223009D01*
X92448919Y-42291972D01*
X92421075Y-42356054D01*
X92413557Y-42364281D01*
X92279049Y-42498790D01*
X92239560Y-42557894D01*
X92239557Y-42557898D01*
X92232724Y-42568125D01*
X92196921Y-42621706D01*
X92196917Y-42621713D01*
X92140348Y-42758284D01*
X92140345Y-42758294D01*
X92111505Y-42903281D01*
X92111505Y-43721320D01*
X92091820Y-43788359D01*
X92079655Y-43804292D01*
X91996976Y-43896116D01*
X91937489Y-43932765D01*
X91867632Y-43931434D01*
X91860213Y-43928736D01*
X91858906Y-43928340D01*
X91713920Y-43899500D01*
X91713918Y-43899500D01*
X90623526Y-43899500D01*
X90556487Y-43879815D01*
X90517988Y-43840598D01*
X90498711Y-43809345D01*
X90374655Y-43685289D01*
X90374651Y-43685286D01*
X90225337Y-43593187D01*
X90225335Y-43593186D01*
X90084620Y-43546558D01*
X90058797Y-43538001D01*
X90058795Y-43538000D01*
X89956015Y-43527500D01*
X89956008Y-43527500D01*
X88605992Y-43527500D01*
X88605984Y-43527500D01*
X88503204Y-43538000D01*
X88503203Y-43538001D01*
X88336664Y-43593186D01*
X88336662Y-43593187D01*
X88187348Y-43685286D01*
X88187344Y-43685289D01*
X88063289Y-43809344D01*
X88063286Y-43809348D01*
X87971187Y-43958662D01*
X87971186Y-43958664D01*
X87916001Y-44125203D01*
X87916000Y-44125204D01*
X87905500Y-44227984D01*
X87905500Y-45253015D01*
X87916000Y-45355795D01*
X87916001Y-45355797D01*
X87934198Y-45410711D01*
X87971186Y-45522335D01*
X87971187Y-45522337D01*
X88063286Y-45671651D01*
X88063289Y-45671655D01*
X88187344Y-45795710D01*
X88187348Y-45795713D01*
X88336662Y-45887812D01*
X88336664Y-45887813D01*
X88336666Y-45887814D01*
X88503203Y-45942999D01*
X88605992Y-45953500D01*
X88605997Y-45953500D01*
X89956003Y-45953500D01*
X89956008Y-45953500D01*
X90058797Y-45942999D01*
X90225334Y-45887814D01*
X90374655Y-45795711D01*
X90498711Y-45671655D01*
X90590814Y-45522334D01*
X90603021Y-45485496D01*
X90642794Y-45428051D01*
X90707310Y-45401228D01*
X90720727Y-45400500D01*
X91277770Y-45400500D01*
X91344809Y-45420185D01*
X91365451Y-45436819D01*
X91855411Y-45926778D01*
X91888896Y-45988101D01*
X91883912Y-46057792D01*
X91842041Y-46113726D01*
X91776576Y-46138143D01*
X91726478Y-46129352D01*
X91725987Y-46130865D01*
X91719802Y-46128855D01*
X91574001Y-46097865D01*
X91534646Y-46089500D01*
X91345354Y-46089500D01*
X91312897Y-46096398D01*
X91160197Y-46128855D01*
X91160192Y-46128857D01*
X90987270Y-46205848D01*
X90987265Y-46205851D01*
X90834129Y-46317111D01*
X90707466Y-46457785D01*
X90612821Y-46621715D01*
X90612818Y-46621723D01*
X90607482Y-46638145D01*
X90568043Y-46695819D01*
X90503684Y-46723016D01*
X90434838Y-46711100D01*
X90401871Y-46687505D01*
X90374655Y-46660289D01*
X90374651Y-46660286D01*
X90225337Y-46568187D01*
X90225335Y-46568186D01*
X90142065Y-46540593D01*
X90058797Y-46513001D01*
X90058795Y-46513000D01*
X89956015Y-46502500D01*
X89956008Y-46502500D01*
X88605992Y-46502500D01*
X88605984Y-46502500D01*
X88503204Y-46513000D01*
X88503203Y-46513001D01*
X88336664Y-46568186D01*
X88336662Y-46568187D01*
X88187348Y-46660286D01*
X88187344Y-46660289D01*
X88063290Y-46784343D01*
X88063289Y-46784345D01*
X88013649Y-46864821D01*
X87961704Y-46911544D01*
X87908113Y-46923723D01*
X87505623Y-46923723D01*
X87438584Y-46904038D01*
X87400084Y-46864820D01*
X87383093Y-46837273D01*
X87317277Y-46730567D01*
X87193221Y-46606511D01*
X87187554Y-46602030D01*
X87188995Y-46600207D01*
X87149740Y-46556558D01*
X87137565Y-46502975D01*
X87137565Y-45835471D01*
X87157250Y-45768432D01*
X87188561Y-45737694D01*
X87187552Y-45736418D01*
X87193219Y-45731936D01*
X87193218Y-45731936D01*
X87193221Y-45731935D01*
X87317277Y-45607879D01*
X87409379Y-45458557D01*
X87464564Y-45292020D01*
X87475065Y-45189232D01*
X87475064Y-44139215D01*
X87464564Y-44036426D01*
X87409379Y-43869889D01*
X87317277Y-43720567D01*
X87193221Y-43596511D01*
X87187554Y-43592030D01*
X87188995Y-43590207D01*
X87149740Y-43546558D01*
X87137565Y-43492975D01*
X87137565Y-42825471D01*
X87157250Y-42758432D01*
X87188561Y-42727694D01*
X87187552Y-42726418D01*
X87193219Y-42721936D01*
X87193218Y-42721936D01*
X87193221Y-42721935D01*
X87317277Y-42597879D01*
X87409379Y-42448557D01*
X87464564Y-42282020D01*
X87475065Y-42179232D01*
X87475064Y-41129215D01*
X87471846Y-41097715D01*
X87464564Y-41026426D01*
X87464563Y-41026423D01*
X87453153Y-40991989D01*
X87409379Y-40859889D01*
X87317277Y-40710567D01*
X87193221Y-40586511D01*
X87075224Y-40513730D01*
X87043901Y-40494410D01*
X87043896Y-40494408D01*
X87042427Y-40493921D01*
X86877362Y-40439224D01*
X86877360Y-40439223D01*
X86774575Y-40428723D01*
X85999563Y-40428723D01*
X85999545Y-40428724D01*
X85896768Y-40439223D01*
X85896765Y-40439224D01*
X85730233Y-40494408D01*
X85730228Y-40494410D01*
X85580907Y-40586512D01*
X85456853Y-40710566D01*
X85456848Y-40710572D01*
X85454806Y-40713884D01*
X85452812Y-40715676D01*
X85452372Y-40716234D01*
X85452276Y-40716158D01*
X85402856Y-40760606D01*
X85333893Y-40771825D01*
X85269812Y-40743978D01*
X85243733Y-40713879D01*
X85241884Y-40710882D01*
X85241881Y-40710878D01*
X85117910Y-40586907D01*
X84968689Y-40494866D01*
X84968684Y-40494864D01*
X84802262Y-40439717D01*
X84802255Y-40439716D01*
X84699551Y-40429223D01*
X84562065Y-40429223D01*
X84562065Y-42879222D01*
X84699537Y-42879222D01*
X84699551Y-42879221D01*
X84802262Y-42868728D01*
X84968684Y-42813581D01*
X84968689Y-42813579D01*
X85117910Y-42721538D01*
X85241883Y-42597565D01*
X85243730Y-42594571D01*
X85245534Y-42592947D01*
X85246363Y-42591900D01*
X85246541Y-42592041D01*
X85295675Y-42547844D01*
X85364638Y-42536619D01*
X85428721Y-42564459D01*
X85454808Y-42594564D01*
X85456853Y-42597879D01*
X85456854Y-42597880D01*
X85580910Y-42721936D01*
X85586578Y-42726418D01*
X85585135Y-42728242D01*
X85624385Y-42771877D01*
X85636565Y-42825471D01*
X85636565Y-43492975D01*
X85616880Y-43560014D01*
X85585567Y-43590754D01*
X85586576Y-43592030D01*
X85580908Y-43596511D01*
X85456853Y-43720566D01*
X85456848Y-43720572D01*
X85454806Y-43723884D01*
X85452812Y-43725676D01*
X85452372Y-43726234D01*
X85452276Y-43726158D01*
X85402856Y-43770606D01*
X85333893Y-43781825D01*
X85269812Y-43753978D01*
X85243733Y-43723879D01*
X85241884Y-43720882D01*
X85241881Y-43720878D01*
X85117910Y-43596907D01*
X84968689Y-43504866D01*
X84968684Y-43504864D01*
X84802262Y-43449717D01*
X84802255Y-43449716D01*
X84699551Y-43439223D01*
X84562065Y-43439223D01*
X84562065Y-45889222D01*
X84699537Y-45889222D01*
X84699551Y-45889221D01*
X84802262Y-45878728D01*
X84968684Y-45823581D01*
X84968689Y-45823579D01*
X85117910Y-45731538D01*
X85241883Y-45607565D01*
X85243730Y-45604571D01*
X85245534Y-45602947D01*
X85246363Y-45601900D01*
X85246541Y-45602041D01*
X85295675Y-45557844D01*
X85364638Y-45546619D01*
X85428721Y-45574459D01*
X85454810Y-45604566D01*
X85456853Y-45607879D01*
X85580910Y-45731936D01*
X85586578Y-45736418D01*
X85585135Y-45738242D01*
X85624385Y-45781877D01*
X85636565Y-45835471D01*
X85636565Y-46502975D01*
X85616880Y-46570014D01*
X85585567Y-46600754D01*
X85586576Y-46602030D01*
X85580908Y-46606511D01*
X85456853Y-46730566D01*
X85456848Y-46730572D01*
X85454806Y-46733884D01*
X85452812Y-46735676D01*
X85452372Y-46736234D01*
X85452276Y-46736158D01*
X85402856Y-46780606D01*
X85333893Y-46791825D01*
X85269812Y-46763978D01*
X85243733Y-46733879D01*
X85241884Y-46730882D01*
X85241881Y-46730878D01*
X85117910Y-46606907D01*
X84968689Y-46514866D01*
X84968684Y-46514864D01*
X84802262Y-46459717D01*
X84802255Y-46459716D01*
X84699551Y-46449223D01*
X84562065Y-46449223D01*
X84562065Y-48899222D01*
X84699537Y-48899222D01*
X84699551Y-48899221D01*
X84802262Y-48888728D01*
X84968684Y-48833581D01*
X84968689Y-48833579D01*
X85117910Y-48741538D01*
X85241883Y-48617565D01*
X85243730Y-48614571D01*
X85245534Y-48612947D01*
X85246363Y-48611900D01*
X85246541Y-48612041D01*
X85295675Y-48567844D01*
X85364638Y-48556619D01*
X85428721Y-48584459D01*
X85454808Y-48614564D01*
X85456853Y-48617879D01*
X85456854Y-48617880D01*
X85580910Y-48741936D01*
X85586578Y-48746418D01*
X85585135Y-48748242D01*
X85624385Y-48791877D01*
X85636565Y-48845471D01*
X85636565Y-51816116D01*
X85616880Y-51883155D01*
X85564076Y-51928910D01*
X85494918Y-51938854D01*
X85431362Y-51909829D01*
X85410991Y-51887240D01*
X85378461Y-51840783D01*
X85217620Y-51679942D01*
X85031282Y-51549465D01*
X84825128Y-51453334D01*
X84628800Y-51400727D01*
X84628800Y-52246588D01*
X84571793Y-52213675D01*
X84444626Y-52179600D01*
X84312974Y-52179600D01*
X84185807Y-52213675D01*
X84128800Y-52246588D01*
X84128800Y-51400727D01*
X83932471Y-51453334D01*
X83726317Y-51549465D01*
X83539979Y-51679942D01*
X83379142Y-51840779D01*
X83248667Y-52027115D01*
X83221457Y-52085467D01*
X83175284Y-52137906D01*
X83108090Y-52157057D01*
X83041209Y-52136841D01*
X82996693Y-52085465D01*
X82987661Y-52066097D01*
X82969368Y-52026866D01*
X82859382Y-51869788D01*
X82838845Y-51840458D01*
X82677941Y-51679554D01*
X82491534Y-51549032D01*
X82491532Y-51549031D01*
X82285297Y-51452861D01*
X82285288Y-51452858D01*
X82065497Y-51393966D01*
X82065493Y-51393965D01*
X82065492Y-51393965D01*
X82065491Y-51393964D01*
X82065486Y-51393964D01*
X81838802Y-51374132D01*
X81838798Y-51374132D01*
X81612113Y-51393964D01*
X81612102Y-51393966D01*
X81392311Y-51452858D01*
X81392302Y-51452861D01*
X81186067Y-51549031D01*
X81186065Y-51549032D01*
X80999658Y-51679554D01*
X80838754Y-51840458D01*
X80708232Y-52026865D01*
X80708231Y-52026867D01*
X80681182Y-52084875D01*
X80635009Y-52137314D01*
X80567816Y-52156466D01*
X80500935Y-52136250D01*
X80456418Y-52084875D01*
X80447662Y-52066097D01*
X80429368Y-52026866D01*
X80319382Y-51869788D01*
X80298845Y-51840458D01*
X80137941Y-51679554D01*
X79951534Y-51549032D01*
X79951532Y-51549031D01*
X79745297Y-51452861D01*
X79745288Y-51452858D01*
X79525497Y-51393966D01*
X79525493Y-51393965D01*
X79525492Y-51393965D01*
X79525491Y-51393964D01*
X79525486Y-51393964D01*
X79298802Y-51374132D01*
X79298799Y-51374132D01*
X79072113Y-51393964D01*
X79072096Y-51393967D01*
X79003749Y-51412280D01*
X78933899Y-51410616D01*
X78883977Y-51380186D01*
X78872319Y-51368528D01*
X78838834Y-51307205D01*
X78836000Y-51280847D01*
X78836000Y-49152747D01*
X78855685Y-49085708D01*
X78894901Y-49047210D01*
X79016656Y-48972112D01*
X79140712Y-48848056D01*
X79142752Y-48844747D01*
X79144745Y-48842955D01*
X79145193Y-48842389D01*
X79145289Y-48842465D01*
X79194694Y-48798023D01*
X79263656Y-48786795D01*
X79327740Y-48814634D01*
X79353829Y-48844739D01*
X79355681Y-48847741D01*
X79355683Y-48847744D01*
X79479654Y-48971715D01*
X79628875Y-49063756D01*
X79628880Y-49063758D01*
X79795302Y-49118905D01*
X79795309Y-49118906D01*
X79898019Y-49129399D01*
X80035499Y-49129399D01*
X80535500Y-49129399D01*
X80672972Y-49129399D01*
X80672986Y-49129398D01*
X80775697Y-49118905D01*
X80942119Y-49063758D01*
X80942124Y-49063756D01*
X81091345Y-48971715D01*
X81215315Y-48847745D01*
X81307356Y-48698524D01*
X81307358Y-48698519D01*
X81362505Y-48532097D01*
X81362506Y-48532090D01*
X81372999Y-48429386D01*
X81373000Y-48429373D01*
X81373000Y-48199209D01*
X83224566Y-48199209D01*
X83235059Y-48301920D01*
X83290206Y-48468342D01*
X83290208Y-48468347D01*
X83382249Y-48617568D01*
X83506219Y-48741538D01*
X83655440Y-48833579D01*
X83655445Y-48833581D01*
X83821867Y-48888728D01*
X83821874Y-48888729D01*
X83924584Y-48899222D01*
X84062064Y-48899222D01*
X84062065Y-48899221D01*
X84062065Y-47924223D01*
X83224566Y-47924223D01*
X83224566Y-48199209D01*
X81373000Y-48199209D01*
X81373000Y-48154400D01*
X80535500Y-48154400D01*
X80535500Y-49129399D01*
X80035499Y-49129399D01*
X80035500Y-49129398D01*
X80035500Y-47654400D01*
X80535500Y-47654400D01*
X81372999Y-47654400D01*
X81372999Y-47379428D01*
X81372998Y-47379413D01*
X81362505Y-47276702D01*
X81320267Y-47149236D01*
X83224565Y-47149236D01*
X83224565Y-47424223D01*
X84062065Y-47424223D01*
X84062065Y-46449223D01*
X83924592Y-46449223D01*
X83924577Y-46449224D01*
X83821867Y-46459717D01*
X83655445Y-46514864D01*
X83655440Y-46514866D01*
X83506219Y-46606907D01*
X83382249Y-46730877D01*
X83290208Y-46880098D01*
X83290206Y-46880103D01*
X83235059Y-47046525D01*
X83235058Y-47046532D01*
X83224565Y-47149236D01*
X81320267Y-47149236D01*
X81307358Y-47110280D01*
X81307356Y-47110275D01*
X81215315Y-46961054D01*
X81091345Y-46837084D01*
X80942124Y-46745043D01*
X80942119Y-46745041D01*
X80775697Y-46689894D01*
X80775690Y-46689893D01*
X80672986Y-46679400D01*
X80535500Y-46679400D01*
X80535500Y-47654400D01*
X80035500Y-47654400D01*
X80035500Y-46679400D01*
X79898027Y-46679400D01*
X79898012Y-46679401D01*
X79795302Y-46689894D01*
X79628880Y-46745041D01*
X79628875Y-46745043D01*
X79479654Y-46837084D01*
X79355683Y-46961055D01*
X79355679Y-46961060D01*
X79353826Y-46964065D01*
X79352018Y-46965690D01*
X79351202Y-46966723D01*
X79351025Y-46966583D01*
X79301874Y-47010785D01*
X79232911Y-47022001D01*
X79168831Y-46994152D01*
X79142753Y-46964053D01*
X79142737Y-46964028D01*
X79140712Y-46960744D01*
X79016656Y-46836688D01*
X78894902Y-46761590D01*
X78848179Y-46709643D01*
X78836000Y-46656052D01*
X78836000Y-46104747D01*
X78855685Y-46037708D01*
X78894901Y-45999210D01*
X79016656Y-45924112D01*
X79140712Y-45800056D01*
X79142752Y-45796747D01*
X79144745Y-45794955D01*
X79145193Y-45794389D01*
X79145289Y-45794465D01*
X79194694Y-45750023D01*
X79263656Y-45738795D01*
X79327740Y-45766634D01*
X79353829Y-45796739D01*
X79355681Y-45799741D01*
X79355683Y-45799744D01*
X79479654Y-45923715D01*
X79628875Y-46015756D01*
X79628880Y-46015758D01*
X79795302Y-46070905D01*
X79795309Y-46070906D01*
X79898019Y-46081399D01*
X80035499Y-46081399D01*
X80535500Y-46081399D01*
X80672972Y-46081399D01*
X80672986Y-46081398D01*
X80775697Y-46070905D01*
X80942119Y-46015758D01*
X80942124Y-46015756D01*
X81091345Y-45923715D01*
X81215315Y-45799745D01*
X81307356Y-45650524D01*
X81307358Y-45650519D01*
X81362505Y-45484097D01*
X81362506Y-45484090D01*
X81372999Y-45381386D01*
X81373000Y-45381373D01*
X81373000Y-45189209D01*
X83224566Y-45189209D01*
X83235059Y-45291920D01*
X83290206Y-45458342D01*
X83290208Y-45458347D01*
X83382249Y-45607568D01*
X83506219Y-45731538D01*
X83655440Y-45823579D01*
X83655445Y-45823581D01*
X83821867Y-45878728D01*
X83821874Y-45878729D01*
X83924584Y-45889222D01*
X84062064Y-45889222D01*
X84062065Y-45889221D01*
X84062065Y-44914223D01*
X83224566Y-44914223D01*
X83224566Y-45189209D01*
X81373000Y-45189209D01*
X81373000Y-45106400D01*
X80535500Y-45106400D01*
X80535500Y-46081399D01*
X80035499Y-46081399D01*
X80035500Y-46081398D01*
X80035500Y-44606400D01*
X80535500Y-44606400D01*
X81372999Y-44606400D01*
X81372999Y-44331428D01*
X81372998Y-44331413D01*
X81362505Y-44228702D01*
X81332859Y-44139236D01*
X83224565Y-44139236D01*
X83224565Y-44414223D01*
X84062065Y-44414223D01*
X84062065Y-43439223D01*
X83924592Y-43439223D01*
X83924577Y-43439224D01*
X83821867Y-43449717D01*
X83655445Y-43504864D01*
X83655440Y-43504866D01*
X83506219Y-43596907D01*
X83382249Y-43720877D01*
X83290208Y-43870098D01*
X83290206Y-43870103D01*
X83235059Y-44036525D01*
X83235058Y-44036532D01*
X83224565Y-44139236D01*
X81332859Y-44139236D01*
X81307358Y-44062280D01*
X81307356Y-44062275D01*
X81215315Y-43913054D01*
X81091345Y-43789084D01*
X80942124Y-43697043D01*
X80942119Y-43697041D01*
X80775697Y-43641894D01*
X80775690Y-43641893D01*
X80672986Y-43631400D01*
X80535500Y-43631400D01*
X80535500Y-44606400D01*
X80035500Y-44606400D01*
X80035500Y-43631400D01*
X79898027Y-43631400D01*
X79898012Y-43631401D01*
X79795302Y-43641894D01*
X79628880Y-43697041D01*
X79628875Y-43697043D01*
X79479654Y-43789084D01*
X79355683Y-43913055D01*
X79355679Y-43913060D01*
X79353826Y-43916065D01*
X79352018Y-43917690D01*
X79351202Y-43918723D01*
X79351025Y-43918583D01*
X79301874Y-43962785D01*
X79232911Y-43974001D01*
X79168831Y-43946152D01*
X79142753Y-43916053D01*
X79142737Y-43916028D01*
X79140712Y-43912744D01*
X79016656Y-43788688D01*
X78894902Y-43713590D01*
X78848179Y-43661643D01*
X78836000Y-43608052D01*
X78836000Y-43259947D01*
X78855685Y-43192908D01*
X78894901Y-43154410D01*
X79016656Y-43079312D01*
X79140712Y-42955256D01*
X79142752Y-42951947D01*
X79144745Y-42950155D01*
X79145193Y-42949589D01*
X79145289Y-42949665D01*
X79194694Y-42905223D01*
X79263656Y-42893995D01*
X79327740Y-42921834D01*
X79353829Y-42951939D01*
X79355681Y-42954941D01*
X79355683Y-42954944D01*
X79479654Y-43078915D01*
X79628875Y-43170956D01*
X79628880Y-43170958D01*
X79795302Y-43226105D01*
X79795309Y-43226106D01*
X79898019Y-43236599D01*
X80035499Y-43236599D01*
X80535500Y-43236599D01*
X80672972Y-43236599D01*
X80672986Y-43236598D01*
X80775697Y-43226105D01*
X80942119Y-43170958D01*
X80942124Y-43170956D01*
X81091345Y-43078915D01*
X81215315Y-42954945D01*
X81307356Y-42805724D01*
X81307358Y-42805719D01*
X81362505Y-42639297D01*
X81362506Y-42639290D01*
X81372999Y-42536586D01*
X81373000Y-42536573D01*
X81373000Y-42261600D01*
X80535500Y-42261600D01*
X80535500Y-43236599D01*
X80035499Y-43236599D01*
X80035500Y-43236598D01*
X80035500Y-42179209D01*
X83224566Y-42179209D01*
X83235059Y-42281920D01*
X83290206Y-42448342D01*
X83290208Y-42448347D01*
X83382249Y-42597568D01*
X83506219Y-42721538D01*
X83655440Y-42813579D01*
X83655445Y-42813581D01*
X83821867Y-42868728D01*
X83821874Y-42868729D01*
X83924584Y-42879222D01*
X84062064Y-42879222D01*
X84062065Y-42879221D01*
X84062065Y-41904223D01*
X83224566Y-41904223D01*
X83224566Y-42179209D01*
X80035500Y-42179209D01*
X80035500Y-41761600D01*
X80535500Y-41761600D01*
X81372999Y-41761600D01*
X81372999Y-41486628D01*
X81372998Y-41486613D01*
X81362505Y-41383902D01*
X81307358Y-41217480D01*
X81307356Y-41217475D01*
X81252929Y-41129236D01*
X83224565Y-41129236D01*
X83224565Y-41404223D01*
X84062065Y-41404223D01*
X84062065Y-40429223D01*
X83924592Y-40429223D01*
X83924577Y-40429224D01*
X83821867Y-40439717D01*
X83655445Y-40494864D01*
X83655440Y-40494866D01*
X83506219Y-40586907D01*
X83382249Y-40710877D01*
X83290208Y-40860098D01*
X83290206Y-40860103D01*
X83235059Y-41026525D01*
X83235058Y-41026532D01*
X83224565Y-41129236D01*
X81252929Y-41129236D01*
X81215315Y-41068254D01*
X81091345Y-40944284D01*
X80942124Y-40852243D01*
X80942119Y-40852241D01*
X80775697Y-40797094D01*
X80775690Y-40797093D01*
X80672986Y-40786600D01*
X80535500Y-40786600D01*
X80535500Y-41761600D01*
X80035500Y-41761600D01*
X80035500Y-40786600D01*
X79898027Y-40786600D01*
X79898012Y-40786601D01*
X79795302Y-40797094D01*
X79628880Y-40852241D01*
X79628875Y-40852243D01*
X79479654Y-40944284D01*
X79355683Y-41068255D01*
X79355679Y-41068260D01*
X79353826Y-41071265D01*
X79352018Y-41072890D01*
X79351202Y-41073923D01*
X79351025Y-41073783D01*
X79301874Y-41117985D01*
X79232911Y-41129201D01*
X79168831Y-41101352D01*
X79142753Y-41071253D01*
X79142737Y-41071228D01*
X79140712Y-41067944D01*
X79016656Y-40943888D01*
X78880810Y-40860098D01*
X78867336Y-40851787D01*
X78867331Y-40851785D01*
X78865862Y-40851298D01*
X78700797Y-40796601D01*
X78700795Y-40796600D01*
X78598016Y-40786100D01*
X78598009Y-40786100D01*
X77920952Y-40786100D01*
X77853913Y-40766415D01*
X77833271Y-40749781D01*
X77481498Y-40398008D01*
X77481478Y-40397986D01*
X77390033Y-40306541D01*
X77338809Y-40272315D01*
X77287587Y-40238089D01*
X77287586Y-40238088D01*
X77287583Y-40238086D01*
X77287580Y-40238085D01*
X77207092Y-40204747D01*
X77173754Y-40190938D01*
X77173755Y-40190938D01*
X77173752Y-40190937D01*
X77173748Y-40190936D01*
X77173744Y-40190935D01*
X77100787Y-40176423D01*
X77100786Y-40176423D01*
X77052911Y-40166900D01*
X77052907Y-40166900D01*
X77052906Y-40166900D01*
X62488773Y-40166900D01*
X62421734Y-40147215D01*
X62375979Y-40094411D01*
X62366035Y-40025253D01*
X62395060Y-39961697D01*
X62419875Y-39939803D01*
X62422839Y-39937822D01*
X62438903Y-39927087D01*
X62438908Y-39927086D01*
X62438908Y-39927085D01*
X62458847Y-39913762D01*
X62490133Y-39892858D01*
X62577258Y-39805733D01*
X62577259Y-39805731D01*
X62584325Y-39798665D01*
X62584328Y-39798661D01*
X63643978Y-38739010D01*
X63705299Y-38705527D01*
X63763746Y-38706917D01*
X63832108Y-38725235D01*
X63989580Y-38739012D01*
X64058798Y-38745068D01*
X64058800Y-38745068D01*
X64058802Y-38745068D01*
X64128020Y-38739012D01*
X64285492Y-38725235D01*
X64505296Y-38666339D01*
X64711534Y-38570168D01*
X64897939Y-38439647D01*
X65058847Y-38278739D01*
X65189368Y-38092334D01*
X65216418Y-38034324D01*
X65262590Y-37981885D01*
X65329783Y-37962733D01*
X65396665Y-37982948D01*
X65441181Y-38034324D01*
X65455317Y-38064638D01*
X65468229Y-38092328D01*
X65468232Y-38092334D01*
X65598754Y-38278741D01*
X65759658Y-38439645D01*
X65759661Y-38439647D01*
X65946066Y-38570168D01*
X66152304Y-38666339D01*
X66152309Y-38666340D01*
X66152311Y-38666341D01*
X66176652Y-38672863D01*
X66372108Y-38725235D01*
X66529580Y-38739012D01*
X66598798Y-38745068D01*
X66598800Y-38745068D01*
X66598802Y-38745068D01*
X66668020Y-38739012D01*
X66825492Y-38725235D01*
X67045296Y-38666339D01*
X67251534Y-38570168D01*
X67437939Y-38439647D01*
X67598847Y-38278739D01*
X67729368Y-38092334D01*
X67756418Y-38034324D01*
X67802590Y-37981885D01*
X67869783Y-37962733D01*
X67936665Y-37982948D01*
X67981181Y-38034324D01*
X67995317Y-38064638D01*
X68008229Y-38092328D01*
X68008232Y-38092334D01*
X68138754Y-38278741D01*
X68299658Y-38439645D01*
X68299661Y-38439647D01*
X68486066Y-38570168D01*
X68692304Y-38666339D01*
X68692309Y-38666340D01*
X68692311Y-38666341D01*
X68716652Y-38672863D01*
X68912108Y-38725235D01*
X69069580Y-38739012D01*
X69138798Y-38745068D01*
X69138800Y-38745068D01*
X69138802Y-38745068D01*
X69208020Y-38739012D01*
X69365492Y-38725235D01*
X69585296Y-38666339D01*
X69791534Y-38570168D01*
X69977939Y-38439647D01*
X70138847Y-38278739D01*
X70269368Y-38092334D01*
X70296418Y-38034324D01*
X70342590Y-37981885D01*
X70409783Y-37962733D01*
X70476665Y-37982948D01*
X70521181Y-38034324D01*
X70535317Y-38064638D01*
X70548229Y-38092328D01*
X70548232Y-38092334D01*
X70678754Y-38278741D01*
X70839658Y-38439645D01*
X70839661Y-38439647D01*
X71026066Y-38570168D01*
X71232304Y-38666339D01*
X71232309Y-38666340D01*
X71232311Y-38666341D01*
X71256652Y-38672863D01*
X71452108Y-38725235D01*
X71609580Y-38739012D01*
X71678798Y-38745068D01*
X71678800Y-38745068D01*
X71678802Y-38745068D01*
X71748020Y-38739012D01*
X71905492Y-38725235D01*
X72125296Y-38666339D01*
X72331534Y-38570168D01*
X72517939Y-38439647D01*
X72678847Y-38278739D01*
X72809368Y-38092334D01*
X72836418Y-38034324D01*
X72882590Y-37981885D01*
X72949783Y-37962733D01*
X73016665Y-37982948D01*
X73061181Y-38034324D01*
X73075317Y-38064638D01*
X73088229Y-38092328D01*
X73088232Y-38092334D01*
X73218754Y-38278741D01*
X73379658Y-38439645D01*
X73379661Y-38439647D01*
X73566066Y-38570168D01*
X73772304Y-38666339D01*
X73772309Y-38666340D01*
X73772311Y-38666341D01*
X73796652Y-38672863D01*
X73992108Y-38725235D01*
X74149580Y-38739012D01*
X74218798Y-38745068D01*
X74218800Y-38745068D01*
X74218802Y-38745068D01*
X74288020Y-38739012D01*
X74445492Y-38725235D01*
X74665296Y-38666339D01*
X74871534Y-38570168D01*
X75057939Y-38439647D01*
X75218847Y-38278739D01*
X75349368Y-38092334D01*
X75376418Y-38034324D01*
X75422590Y-37981885D01*
X75489783Y-37962733D01*
X75556665Y-37982948D01*
X75601181Y-38034324D01*
X75615317Y-38064638D01*
X75628229Y-38092328D01*
X75628232Y-38092334D01*
X75758754Y-38278741D01*
X75919658Y-38439645D01*
X75919661Y-38439647D01*
X76106066Y-38570168D01*
X76312304Y-38666339D01*
X76312309Y-38666340D01*
X76312311Y-38666341D01*
X76336652Y-38672863D01*
X76532108Y-38725235D01*
X76689580Y-38739012D01*
X76758798Y-38745068D01*
X76758800Y-38745068D01*
X76758802Y-38745068D01*
X76828020Y-38739012D01*
X76985492Y-38725235D01*
X77205296Y-38666339D01*
X77411534Y-38570168D01*
X77597939Y-38439647D01*
X77758847Y-38278739D01*
X77889368Y-38092334D01*
X77916695Y-38033729D01*
X77962864Y-37981295D01*
X78030057Y-37962142D01*
X78096939Y-37982357D01*
X78141457Y-38033733D01*
X78168665Y-38092082D01*
X78299142Y-38278420D01*
X78459979Y-38439257D01*
X78646317Y-38569734D01*
X78852473Y-38665865D01*
X78852482Y-38665869D01*
X79048799Y-38718472D01*
X79048800Y-38718471D01*
X79048800Y-37872612D01*
X79105807Y-37905525D01*
X79232974Y-37939600D01*
X79364626Y-37939600D01*
X79491793Y-37905525D01*
X79548800Y-37872612D01*
X79548800Y-38718472D01*
X79745117Y-38665869D01*
X79745126Y-38665865D01*
X79951282Y-38569734D01*
X80137620Y-38439257D01*
X80298457Y-38278420D01*
X80428932Y-38092084D01*
X80456141Y-38033734D01*
X80502313Y-37981295D01*
X80569507Y-37962142D01*
X80636388Y-37982357D01*
X80680905Y-38033732D01*
X80702888Y-38080875D01*
X80708231Y-38092332D01*
X80708232Y-38092334D01*
X80838754Y-38278741D01*
X80999658Y-38439645D01*
X80999661Y-38439647D01*
X81186066Y-38570168D01*
X81392304Y-38666339D01*
X81392309Y-38666340D01*
X81392311Y-38666341D01*
X81416652Y-38672863D01*
X81612108Y-38725235D01*
X81769580Y-38739012D01*
X81838798Y-38745068D01*
X81838800Y-38745068D01*
X81838802Y-38745068D01*
X81908020Y-38739012D01*
X82065492Y-38725235D01*
X82285296Y-38666339D01*
X82491534Y-38570168D01*
X82677939Y-38439647D01*
X82838847Y-38278739D01*
X82969368Y-38092334D01*
X82996418Y-38034324D01*
X83042590Y-37981885D01*
X83109783Y-37962733D01*
X83176665Y-37982948D01*
X83221181Y-38034324D01*
X83235317Y-38064638D01*
X83248229Y-38092328D01*
X83248232Y-38092334D01*
X83378754Y-38278741D01*
X83539658Y-38439645D01*
X83539661Y-38439647D01*
X83726066Y-38570168D01*
X83932304Y-38666339D01*
X83932309Y-38666340D01*
X83932311Y-38666341D01*
X83956652Y-38672863D01*
X84152108Y-38725235D01*
X84309580Y-38739012D01*
X84378798Y-38745068D01*
X84378800Y-38745068D01*
X84378802Y-38745068D01*
X84448020Y-38739012D01*
X84605492Y-38725235D01*
X84825296Y-38666339D01*
X85031534Y-38570168D01*
X85217939Y-38439647D01*
X85378847Y-38278739D01*
X85396072Y-38254139D01*
X85450648Y-38210513D01*
X85520146Y-38203318D01*
X85582501Y-38234839D01*
X85617916Y-38295068D01*
X85620938Y-38312006D01*
X85624708Y-38347083D01*
X85675002Y-38481928D01*
X85675006Y-38481935D01*
X85761252Y-38597144D01*
X85761255Y-38597147D01*
X85876464Y-38683393D01*
X85876471Y-38683397D01*
X86011317Y-38733691D01*
X86011316Y-38733691D01*
X86018244Y-38734435D01*
X86070927Y-38740100D01*
X87766672Y-38740099D01*
X87826283Y-38733691D01*
X87961131Y-38683396D01*
X88076346Y-38597146D01*
X88162596Y-38481931D01*
X88212891Y-38347083D01*
X88219300Y-38287473D01*
X88219299Y-36591728D01*
X88212891Y-36532117D01*
X88210351Y-36525308D01*
X88162597Y-36397271D01*
X88162593Y-36397264D01*
X88076347Y-36282055D01*
X88076344Y-36282052D01*
X87961135Y-36195806D01*
X87961128Y-36195802D01*
X87826282Y-36145508D01*
X87826283Y-36145508D01*
X87766683Y-36139101D01*
X87766681Y-36139100D01*
X87766673Y-36139100D01*
X87766664Y-36139100D01*
X86070929Y-36139100D01*
X86070923Y-36139101D01*
X86011316Y-36145508D01*
X85876471Y-36195802D01*
X85876464Y-36195806D01*
X85761255Y-36282052D01*
X85761252Y-36282055D01*
X85675006Y-36397264D01*
X85675002Y-36397271D01*
X85624708Y-36532116D01*
X85620937Y-36567196D01*
X85594198Y-36631746D01*
X85536806Y-36671594D01*
X85466980Y-36674087D01*
X85406892Y-36638434D01*
X85396073Y-36625062D01*
X85378845Y-36600458D01*
X85217941Y-36439554D01*
X85031534Y-36309032D01*
X85031532Y-36309031D01*
X84825297Y-36212861D01*
X84825288Y-36212858D01*
X84605497Y-36153966D01*
X84605493Y-36153965D01*
X84605492Y-36153965D01*
X84605491Y-36153964D01*
X84605486Y-36153964D01*
X84378802Y-36134132D01*
X84378798Y-36134132D01*
X84152113Y-36153964D01*
X84152102Y-36153966D01*
X83932311Y-36212858D01*
X83932302Y-36212861D01*
X83726067Y-36309031D01*
X83726065Y-36309032D01*
X83539658Y-36439554D01*
X83378754Y-36600458D01*
X83248232Y-36786865D01*
X83248231Y-36786867D01*
X83221182Y-36844875D01*
X83175009Y-36897314D01*
X83107816Y-36916466D01*
X83040935Y-36896250D01*
X82996418Y-36844875D01*
X82969368Y-36786866D01*
X82838847Y-36600461D01*
X82838845Y-36600458D01*
X82677941Y-36439554D01*
X82491534Y-36309032D01*
X82491532Y-36309031D01*
X82285297Y-36212861D01*
X82285288Y-36212858D01*
X82065497Y-36153966D01*
X82065493Y-36153965D01*
X82065492Y-36153965D01*
X82065491Y-36153964D01*
X82065486Y-36153964D01*
X81838802Y-36134132D01*
X81838798Y-36134132D01*
X81612113Y-36153964D01*
X81612102Y-36153966D01*
X81392311Y-36212858D01*
X81392302Y-36212861D01*
X81186067Y-36309031D01*
X81186065Y-36309032D01*
X80999658Y-36439554D01*
X80838754Y-36600458D01*
X80756458Y-36717991D01*
X80708232Y-36786866D01*
X80689106Y-36827883D01*
X80680906Y-36845467D01*
X80634733Y-36897906D01*
X80567539Y-36917057D01*
X80500658Y-36896841D01*
X80456142Y-36845465D01*
X80428935Y-36787120D01*
X80428934Y-36787118D01*
X80298457Y-36600779D01*
X80137620Y-36439942D01*
X79951282Y-36309465D01*
X79745128Y-36213334D01*
X79548800Y-36160727D01*
X79548800Y-37006588D01*
X79491793Y-36973675D01*
X79364626Y-36939600D01*
X79232974Y-36939600D01*
X79105807Y-36973675D01*
X79048800Y-37006588D01*
X79048800Y-36160727D01*
X78852471Y-36213334D01*
X78646317Y-36309465D01*
X78459979Y-36439942D01*
X78299142Y-36600779D01*
X78168667Y-36787115D01*
X78141457Y-36845467D01*
X78095284Y-36897906D01*
X78028090Y-36917057D01*
X77961209Y-36896841D01*
X77916693Y-36845465D01*
X77908494Y-36827883D01*
X77889368Y-36786866D01*
X77758847Y-36600461D01*
X77758845Y-36600458D01*
X77597941Y-36439554D01*
X77411534Y-36309032D01*
X77411532Y-36309031D01*
X77207645Y-36213956D01*
X77155206Y-36167783D01*
X77136054Y-36100590D01*
X77156270Y-36033709D01*
X77209433Y-35988375D01*
X77362171Y-35920372D01*
X77515312Y-35809109D01*
X77518229Y-35805868D01*
X77521041Y-35802747D01*
X77580528Y-35766100D01*
X77613189Y-35761721D01*
X79479386Y-35761721D01*
X79539808Y-35749702D01*
X79600231Y-35737684D01*
X79650275Y-35716955D01*
X79714065Y-35690533D01*
X79765288Y-35656305D01*
X79816512Y-35622079D01*
X79903637Y-35534954D01*
X79903638Y-35534952D01*
X79910704Y-35527886D01*
X79910706Y-35527882D01*
X80343457Y-35095133D01*
X80795577Y-34643013D01*
X91993000Y-34643013D01*
X91993000Y-34780500D01*
X94442999Y-34780500D01*
X94442999Y-34643028D01*
X94442998Y-34643013D01*
X94432505Y-34540302D01*
X94377358Y-34373880D01*
X94377356Y-34373875D01*
X94285315Y-34224654D01*
X94161345Y-34100684D01*
X94012124Y-34008643D01*
X94012115Y-34008640D01*
X93985959Y-33999972D01*
X93928515Y-33960199D01*
X93901693Y-33895683D01*
X93914009Y-33826907D01*
X93961553Y-33775708D01*
X93981635Y-33766084D01*
X94013086Y-33754354D01*
X94013093Y-33754350D01*
X94128185Y-33668191D01*
X94128190Y-33668186D01*
X94167116Y-33616189D01*
X94223050Y-33574318D01*
X94266383Y-33566500D01*
X94704644Y-33566500D01*
X94771683Y-33586185D01*
X94773535Y-33587398D01*
X94843705Y-33634284D01*
X94843707Y-33634285D01*
X94843711Y-33634287D01*
X94964556Y-33684342D01*
X94980287Y-33690858D01*
X94980291Y-33690858D01*
X94980292Y-33690859D01*
X95125279Y-33719700D01*
X95125282Y-33719700D01*
X95273117Y-33719700D01*
X96742663Y-33719700D01*
X96809702Y-33739385D01*
X96815548Y-33743382D01*
X96829265Y-33753348D01*
X96829270Y-33753351D01*
X97002192Y-33830342D01*
X97002197Y-33830344D01*
X97187354Y-33869700D01*
X97187355Y-33869700D01*
X97376644Y-33869700D01*
X97376646Y-33869700D01*
X97561803Y-33830344D01*
X97734730Y-33753351D01*
X97887871Y-33642088D01*
X98014533Y-33501416D01*
X98109179Y-33337484D01*
X98167674Y-33157456D01*
X98187460Y-32969200D01*
X98167674Y-32780944D01*
X98144239Y-32708818D01*
X98142244Y-32638977D01*
X98178324Y-32579144D01*
X98241025Y-32548316D01*
X98262170Y-32546500D01*
X101627920Y-32546500D01*
X101725462Y-32527096D01*
X101772913Y-32517658D01*
X101909495Y-32461084D01*
X101962544Y-32425638D01*
X101962544Y-32425637D01*
X101962546Y-32425637D01*
X101997480Y-32402295D01*
X102032416Y-32378952D01*
X102544549Y-31866817D01*
X102605872Y-31833333D01*
X102632230Y-31830499D01*
X103767871Y-31830499D01*
X103767872Y-31830499D01*
X103827483Y-31824091D01*
X103962331Y-31773796D01*
X104077546Y-31687546D01*
X104163796Y-31572331D01*
X104214091Y-31437483D01*
X104220500Y-31377873D01*
X104220499Y-30229999D01*
X106858364Y-30229999D01*
X106858364Y-30230000D01*
X107755988Y-30230000D01*
X107723075Y-30287007D01*
X107689000Y-30414174D01*
X107689000Y-30545826D01*
X107723075Y-30672993D01*
X107755988Y-30730000D01*
X106858364Y-30730000D01*
X106915567Y-30943486D01*
X106915570Y-30943492D01*
X107015399Y-31157578D01*
X107150894Y-31351082D01*
X107317917Y-31518105D01*
X107511421Y-31653600D01*
X107725507Y-31753429D01*
X107725516Y-31753433D01*
X107939000Y-31810634D01*
X107939000Y-30913012D01*
X107996007Y-30945925D01*
X108123174Y-30980000D01*
X108254826Y-30980000D01*
X108381993Y-30945925D01*
X108439000Y-30913012D01*
X108439000Y-31810633D01*
X108652483Y-31753433D01*
X108652492Y-31753429D01*
X108866578Y-31653600D01*
X109060082Y-31518105D01*
X109227105Y-31351082D01*
X109357119Y-31165405D01*
X109411696Y-31121781D01*
X109481195Y-31114588D01*
X109543549Y-31146110D01*
X109560269Y-31165405D01*
X109690505Y-31351401D01*
X109857599Y-31518495D01*
X109954384Y-31586265D01*
X110051165Y-31654032D01*
X110051167Y-31654033D01*
X110051170Y-31654035D01*
X110265337Y-31753903D01*
X110265343Y-31753904D01*
X110265344Y-31753905D01*
X110320285Y-31768626D01*
X110493592Y-31815063D01*
X110681918Y-31831539D01*
X110728999Y-31835659D01*
X110729000Y-31835659D01*
X110729001Y-31835659D01*
X110768234Y-31832226D01*
X110964408Y-31815063D01*
X111192663Y-31753903D01*
X111406830Y-31654035D01*
X111600401Y-31518495D01*
X111722329Y-31396566D01*
X111783648Y-31363084D01*
X111853340Y-31368068D01*
X111909274Y-31409939D01*
X111926189Y-31440917D01*
X111975202Y-31572328D01*
X111975206Y-31572335D01*
X112061452Y-31687544D01*
X112061455Y-31687547D01*
X112176664Y-31773793D01*
X112176671Y-31773797D01*
X112311517Y-31824091D01*
X112311516Y-31824091D01*
X112318444Y-31824835D01*
X112371127Y-31830500D01*
X114166872Y-31830499D01*
X114226483Y-31824091D01*
X114361331Y-31773796D01*
X114476546Y-31687546D01*
X114562796Y-31572331D01*
X114613091Y-31437483D01*
X114619500Y-31377873D01*
X114619499Y-29582128D01*
X114613091Y-29522517D01*
X114611810Y-29519083D01*
X114562797Y-29387671D01*
X114562793Y-29387664D01*
X114476547Y-29272455D01*
X114476544Y-29272452D01*
X114361335Y-29186206D01*
X114361328Y-29186202D01*
X114226482Y-29135908D01*
X114226483Y-29135908D01*
X114166883Y-29129501D01*
X114166881Y-29129500D01*
X114166873Y-29129500D01*
X114166864Y-29129500D01*
X112371129Y-29129500D01*
X112371123Y-29129501D01*
X112311516Y-29135908D01*
X112176671Y-29186202D01*
X112176664Y-29186206D01*
X112061455Y-29272452D01*
X112061452Y-29272455D01*
X111975206Y-29387664D01*
X111975203Y-29387669D01*
X111926189Y-29519083D01*
X111884317Y-29575016D01*
X111818853Y-29599433D01*
X111750580Y-29584581D01*
X111722326Y-29563430D01*
X111600402Y-29441506D01*
X111600395Y-29441501D01*
X111599415Y-29440815D01*
X111561521Y-29414281D01*
X111406834Y-29305967D01*
X111406830Y-29305965D01*
X111353959Y-29281311D01*
X111192663Y-29206097D01*
X111192659Y-29206096D01*
X111192655Y-29206094D01*
X110964413Y-29144938D01*
X110964403Y-29144936D01*
X110729001Y-29124341D01*
X110728999Y-29124341D01*
X110493596Y-29144936D01*
X110493586Y-29144938D01*
X110265344Y-29206094D01*
X110265335Y-29206098D01*
X110051171Y-29305964D01*
X110051169Y-29305965D01*
X109857597Y-29441505D01*
X109690508Y-29608594D01*
X109560269Y-29794595D01*
X109505692Y-29838219D01*
X109436193Y-29845412D01*
X109373839Y-29813890D01*
X109357119Y-29794594D01*
X109227113Y-29608926D01*
X109227108Y-29608920D01*
X109060082Y-29441894D01*
X108866578Y-29306399D01*
X108652492Y-29206570D01*
X108652486Y-29206567D01*
X108439000Y-29149364D01*
X108439000Y-30046988D01*
X108381993Y-30014075D01*
X108254826Y-29980000D01*
X108123174Y-29980000D01*
X107996007Y-30014075D01*
X107939000Y-30046988D01*
X107939000Y-29149364D01*
X107938999Y-29149364D01*
X107725513Y-29206567D01*
X107725507Y-29206570D01*
X107511422Y-29306399D01*
X107511420Y-29306400D01*
X107317926Y-29441886D01*
X107317920Y-29441891D01*
X107150891Y-29608920D01*
X107150886Y-29608926D01*
X107015400Y-29802420D01*
X107015399Y-29802422D01*
X106915570Y-30016507D01*
X106915567Y-30016513D01*
X106858364Y-30229999D01*
X104220499Y-30229999D01*
X104220499Y-29582128D01*
X104214091Y-29522517D01*
X104212810Y-29519083D01*
X104163797Y-29387671D01*
X104163793Y-29387664D01*
X104077547Y-29272455D01*
X104077544Y-29272452D01*
X103962335Y-29186206D01*
X103962328Y-29186202D01*
X103827482Y-29135908D01*
X103827483Y-29135908D01*
X103767883Y-29129501D01*
X103767881Y-29129500D01*
X103767873Y-29129500D01*
X103767864Y-29129500D01*
X101972129Y-29129500D01*
X101972123Y-29129501D01*
X101912516Y-29135908D01*
X101777671Y-29186202D01*
X101777664Y-29186206D01*
X101662455Y-29272452D01*
X101662452Y-29272455D01*
X101576206Y-29387664D01*
X101576203Y-29387669D01*
X101527189Y-29519083D01*
X101485317Y-29575016D01*
X101419853Y-29599433D01*
X101351580Y-29584581D01*
X101323326Y-29563430D01*
X101201402Y-29441506D01*
X101201395Y-29441501D01*
X101200415Y-29440815D01*
X101162521Y-29414281D01*
X101007834Y-29305967D01*
X101007830Y-29305965D01*
X100954959Y-29281311D01*
X100793663Y-29206097D01*
X100793659Y-29206096D01*
X100793655Y-29206094D01*
X100565413Y-29144938D01*
X100565403Y-29144936D01*
X100330001Y-29124341D01*
X100329998Y-29124341D01*
X100116985Y-29142977D01*
X100048485Y-29129210D01*
X100018497Y-29107130D01*
X99284421Y-28373052D01*
X99284414Y-28373046D01*
X99210729Y-28323812D01*
X99210729Y-28323813D01*
X99161491Y-28290913D01*
X99024917Y-28234343D01*
X99024907Y-28234340D01*
X98879920Y-28205500D01*
X98879918Y-28205500D01*
X96004332Y-28205500D01*
X95958843Y-28196855D01*
X95879200Y-28165448D01*
X95879199Y-28165447D01*
X95796363Y-28155500D01*
X95796362Y-28155500D01*
X94266383Y-28155500D01*
X94199344Y-28135815D01*
X94167116Y-28105811D01*
X94128190Y-28053813D01*
X94128185Y-28053808D01*
X94013093Y-27967649D01*
X94013086Y-27967645D01*
X93878379Y-27917403D01*
X93878372Y-27917401D01*
X93818844Y-27911000D01*
X92546000Y-27911000D01*
X92546000Y-33831034D01*
X92555387Y-33848225D01*
X92550403Y-33917917D01*
X92508531Y-33973850D01*
X92473228Y-33992288D01*
X92423882Y-34008640D01*
X92423875Y-34008643D01*
X92274654Y-34100684D01*
X92150684Y-34224654D01*
X92058643Y-34373875D01*
X92058641Y-34373880D01*
X92003494Y-34540302D01*
X92003493Y-34540309D01*
X91993000Y-34643013D01*
X80795577Y-34643013D01*
X82172604Y-33265986D01*
X83548801Y-33265986D01*
X83559294Y-33368697D01*
X83614441Y-33535119D01*
X83614443Y-33535124D01*
X83706484Y-33684345D01*
X83830454Y-33808315D01*
X83979675Y-33900356D01*
X83979680Y-33900358D01*
X84146102Y-33955505D01*
X84146109Y-33955506D01*
X84248819Y-33965999D01*
X84373799Y-33965999D01*
X84373800Y-33965998D01*
X84373800Y-33016000D01*
X83548801Y-33016000D01*
X83548801Y-33265986D01*
X82172604Y-33265986D01*
X83280771Y-32157819D01*
X83342094Y-32124334D01*
X83368452Y-32121500D01*
X83426251Y-32121500D01*
X83493290Y-32141185D01*
X83539045Y-32193989D01*
X83549609Y-32258105D01*
X83548800Y-32266018D01*
X83548800Y-32516000D01*
X84749800Y-32516000D01*
X84816839Y-32535685D01*
X84862594Y-32588489D01*
X84873800Y-32640000D01*
X84873800Y-33965999D01*
X84998772Y-33965999D01*
X84998786Y-33965998D01*
X85101497Y-33955505D01*
X85267919Y-33900358D01*
X85267924Y-33900356D01*
X85417145Y-33808315D01*
X85541118Y-33684342D01*
X85542965Y-33681348D01*
X85544769Y-33679724D01*
X85545598Y-33678677D01*
X85545776Y-33678818D01*
X85594910Y-33634621D01*
X85663873Y-33623396D01*
X85727956Y-33651236D01*
X85754043Y-33681341D01*
X85756088Y-33684656D01*
X85880144Y-33808712D01*
X86029466Y-33900814D01*
X86196003Y-33955999D01*
X86298791Y-33966500D01*
X87048808Y-33966499D01*
X87048816Y-33966498D01*
X87048819Y-33966498D01*
X87110481Y-33960199D01*
X87151597Y-33955999D01*
X87318134Y-33900814D01*
X87467456Y-33808712D01*
X87591512Y-33684656D01*
X87683614Y-33535334D01*
X87703111Y-33476493D01*
X87742884Y-33419051D01*
X87807400Y-33392228D01*
X87820817Y-33391500D01*
X88390173Y-33391500D01*
X88457212Y-33411185D01*
X88465098Y-33416696D01*
X88555617Y-33485338D01*
X88580973Y-33504566D01*
X88658995Y-33535334D01*
X88712795Y-33556550D01*
X88712800Y-33556552D01*
X88795637Y-33566500D01*
X90325617Y-33566500D01*
X90392656Y-33586185D01*
X90424884Y-33616189D01*
X90463809Y-33668186D01*
X90463814Y-33668191D01*
X90578906Y-33754350D01*
X90578913Y-33754354D01*
X90713620Y-33804596D01*
X90713627Y-33804598D01*
X90773155Y-33810999D01*
X90773172Y-33811000D01*
X92046000Y-33811000D01*
X92046000Y-27911000D01*
X90773155Y-27911000D01*
X90713627Y-27917401D01*
X90713620Y-27917403D01*
X90578913Y-27967645D01*
X90578906Y-27967649D01*
X90463814Y-28053808D01*
X90463805Y-28053817D01*
X90424508Y-28106311D01*
X90368574Y-28148182D01*
X90325242Y-28156000D01*
X89846000Y-28156000D01*
X89846000Y-29082000D01*
X89826315Y-29149039D01*
X89773511Y-29194794D01*
X89722000Y-29206000D01*
X88321001Y-29206000D01*
X88321001Y-29281311D01*
X88330938Y-29364078D01*
X88357333Y-29431011D01*
X88363614Y-29500598D01*
X88331276Y-29562534D01*
X88270587Y-29597155D01*
X88241978Y-29600500D01*
X83424407Y-29600500D01*
X83301193Y-29600500D01*
X83258757Y-29608941D01*
X83258756Y-29608940D01*
X83180354Y-29624535D01*
X83180341Y-29624539D01*
X83148062Y-29637909D01*
X83133197Y-29644067D01*
X83066518Y-29671685D01*
X83049783Y-29682868D01*
X83040990Y-29688743D01*
X83040989Y-29688744D01*
X83040988Y-29688743D01*
X82964066Y-29740142D01*
X82964065Y-29740143D01*
X82927834Y-29776375D01*
X82876942Y-29827267D01*
X82876939Y-29827270D01*
X81048482Y-31655728D01*
X79228429Y-33475781D01*
X79167106Y-33509266D01*
X79140748Y-33512100D01*
X77665748Y-33512100D01*
X77598709Y-33492415D01*
X77573600Y-33471074D01*
X77567873Y-33464714D01*
X77567869Y-33464710D01*
X77414734Y-33353451D01*
X77414729Y-33353448D01*
X77241807Y-33276457D01*
X77241802Y-33276455D01*
X77096001Y-33245465D01*
X77056646Y-33237100D01*
X76898700Y-33237100D01*
X76831661Y-33217415D01*
X76785906Y-33164611D01*
X76774700Y-33113100D01*
X76774700Y-31180396D01*
X76774700Y-31180394D01*
X76772760Y-31170643D01*
X76772760Y-31170637D01*
X76772759Y-31170638D01*
X76762246Y-31117782D01*
X76762246Y-31117781D01*
X76750664Y-31059555D01*
X76750663Y-31059548D01*
X76707762Y-30955976D01*
X76703512Y-30945716D01*
X76703507Y-30945707D01*
X76635058Y-30843267D01*
X76635055Y-30843263D01*
X76544837Y-30753045D01*
X76544806Y-30753016D01*
X76406003Y-30614213D01*
X76372518Y-30552890D01*
X76377502Y-30483198D01*
X76419374Y-30427265D01*
X76484838Y-30402848D01*
X76506279Y-30403173D01*
X76577991Y-30410500D01*
X77328008Y-30410499D01*
X77328016Y-30410498D01*
X77328019Y-30410498D01*
X77384302Y-30404748D01*
X77430797Y-30399999D01*
X77597334Y-30344814D01*
X77746656Y-30252712D01*
X77870712Y-30128656D01*
X77872752Y-30125347D01*
X77874745Y-30123555D01*
X77875193Y-30122989D01*
X77875289Y-30123065D01*
X77924694Y-30078623D01*
X77993656Y-30067395D01*
X78057740Y-30095234D01*
X78083829Y-30125339D01*
X78085681Y-30128341D01*
X78085683Y-30128344D01*
X78209654Y-30252315D01*
X78358875Y-30344356D01*
X78358880Y-30344358D01*
X78525302Y-30399505D01*
X78525309Y-30399506D01*
X78628019Y-30409999D01*
X78752999Y-30409999D01*
X79253000Y-30409999D01*
X79377972Y-30409999D01*
X79377986Y-30409998D01*
X79480697Y-30399505D01*
X79647119Y-30344358D01*
X79647124Y-30344356D01*
X79796345Y-30252315D01*
X79920315Y-30128345D01*
X80012356Y-29979124D01*
X80012358Y-29979119D01*
X80067505Y-29812697D01*
X80067506Y-29812690D01*
X80077999Y-29709986D01*
X80078000Y-29709973D01*
X80078000Y-29460000D01*
X79253000Y-29460000D01*
X79253000Y-30409999D01*
X78752999Y-30409999D01*
X78753000Y-30409998D01*
X78753000Y-28960000D01*
X79253000Y-28960000D01*
X80077999Y-28960000D01*
X80077999Y-28710028D01*
X80077998Y-28710013D01*
X80069893Y-28630680D01*
X88321000Y-28630680D01*
X88321000Y-28706000D01*
X89346000Y-28706000D01*
X89346000Y-28156000D01*
X88795688Y-28156000D01*
X88712921Y-28165938D01*
X88581219Y-28217874D01*
X88581217Y-28217875D01*
X88468415Y-28303415D01*
X88382875Y-28416217D01*
X88382874Y-28416219D01*
X88330939Y-28547918D01*
X88330938Y-28547922D01*
X88321000Y-28630680D01*
X80069893Y-28630680D01*
X80067505Y-28607302D01*
X80012358Y-28440880D01*
X80012356Y-28440875D01*
X79920315Y-28291654D01*
X79796345Y-28167684D01*
X79647124Y-28075643D01*
X79647119Y-28075641D01*
X79480697Y-28020494D01*
X79480690Y-28020493D01*
X79377986Y-28010000D01*
X79253000Y-28010000D01*
X79253000Y-28960000D01*
X78753000Y-28960000D01*
X78753000Y-28010000D01*
X78628027Y-28010000D01*
X78628012Y-28010001D01*
X78525302Y-28020494D01*
X78358880Y-28075641D01*
X78358875Y-28075643D01*
X78209654Y-28167684D01*
X78085683Y-28291655D01*
X78085679Y-28291660D01*
X78083826Y-28294665D01*
X78082018Y-28296290D01*
X78081202Y-28297323D01*
X78081025Y-28297183D01*
X78031874Y-28341385D01*
X77962911Y-28352601D01*
X77898831Y-28324752D01*
X77872753Y-28294653D01*
X77872737Y-28294628D01*
X77870712Y-28291344D01*
X77746656Y-28167288D01*
X77597334Y-28075186D01*
X77430797Y-28020001D01*
X77430795Y-28020000D01*
X77328010Y-28009500D01*
X76577998Y-28009500D01*
X76577980Y-28009501D01*
X76475203Y-28020000D01*
X76475200Y-28020001D01*
X76308668Y-28075185D01*
X76308666Y-28075185D01*
X76308666Y-28075186D01*
X76308662Y-28075187D01*
X76308661Y-28075189D01*
X76273866Y-28096650D01*
X76206473Y-28115089D01*
X76139810Y-28094165D01*
X76095041Y-28040522D01*
X76085450Y-27978150D01*
X76089460Y-27940000D01*
X76069674Y-27751744D01*
X76011179Y-27571716D01*
X75964576Y-27490998D01*
X75948105Y-27423099D01*
X75970958Y-27357072D01*
X76025880Y-27313882D01*
X76071965Y-27305000D01*
X117987777Y-27305000D01*
X118054816Y-27324685D01*
X118100571Y-27377489D01*
X118111774Y-27428121D01*
X118143017Y-31833333D01*
X118167937Y-35347146D01*
X118355599Y-61807659D01*
X118362213Y-62740121D01*
X118343004Y-62807298D01*
X118290526Y-62853426D01*
X118238216Y-62865000D01*
X46352000Y-62865000D01*
X46284961Y-62845315D01*
X46239206Y-62792511D01*
X46228000Y-62741000D01*
X46228000Y-51674700D01*
X46247685Y-51607661D01*
X46268326Y-51583187D01*
X46291500Y-51562000D01*
X46291500Y-38608000D01*
X46268327Y-38586813D01*
X46232134Y-38527049D01*
X46228000Y-38495299D01*
X46228000Y-34634789D01*
X46669300Y-34634789D01*
X46669300Y-44664011D01*
X46693335Y-44784844D01*
X46693340Y-44784861D01*
X46740485Y-44898681D01*
X46740487Y-44898685D01*
X46765326Y-44935857D01*
X46765327Y-44935859D01*
X46808940Y-45001131D01*
X46808941Y-45001132D01*
X46808942Y-45001133D01*
X46896067Y-45088258D01*
X46896068Y-45088258D01*
X46903135Y-45095325D01*
X46903134Y-45095325D01*
X46903138Y-45095328D01*
X49962638Y-48154829D01*
X49996123Y-48216152D01*
X49998278Y-48229548D01*
X50006568Y-48308427D01*
X50015926Y-48397456D01*
X50015927Y-48397459D01*
X50074418Y-48577477D01*
X50074421Y-48577484D01*
X50169067Y-48741416D01*
X50265087Y-48848057D01*
X50295729Y-48882088D01*
X50448865Y-48993348D01*
X50448870Y-48993351D01*
X50621792Y-49070342D01*
X50621797Y-49070344D01*
X50806954Y-49109700D01*
X50806955Y-49109700D01*
X50996244Y-49109700D01*
X50996246Y-49109700D01*
X51181403Y-49070344D01*
X51354330Y-48993351D01*
X51507471Y-48882088D01*
X51634133Y-48741416D01*
X51728779Y-48577484D01*
X51787274Y-48397456D01*
X51807060Y-48209200D01*
X51787274Y-48020944D01*
X51728779Y-47840916D01*
X51634133Y-47676984D01*
X51507471Y-47536312D01*
X51471944Y-47510500D01*
X51354334Y-47425051D01*
X51354329Y-47425048D01*
X51181407Y-47348057D01*
X51181402Y-47348055D01*
X51035601Y-47317065D01*
X50996246Y-47308700D01*
X50996245Y-47308700D01*
X50937053Y-47308700D01*
X50870014Y-47289015D01*
X50849372Y-47272381D01*
X47956619Y-44379628D01*
X47923134Y-44318305D01*
X47920300Y-44291947D01*
X47920300Y-35006852D01*
X47939985Y-34939813D01*
X47956619Y-34919171D01*
X49397171Y-33478619D01*
X49458494Y-33445134D01*
X49484852Y-33442300D01*
X51776007Y-33442300D01*
X51836429Y-33430281D01*
X51896852Y-33418263D01*
X51931428Y-33403941D01*
X52010686Y-33371112D01*
X52080152Y-33324695D01*
X52113133Y-33302658D01*
X52200258Y-33215533D01*
X52200259Y-33215531D01*
X52207325Y-33208465D01*
X52207328Y-33208461D01*
X52991729Y-32424060D01*
X52991733Y-32424058D01*
X53078858Y-32336933D01*
X53121855Y-32272584D01*
X53147312Y-32234486D01*
X53185617Y-32142007D01*
X53194463Y-32120652D01*
X53198957Y-32098059D01*
X53209643Y-32044340D01*
X53218500Y-31999806D01*
X53218500Y-31755226D01*
X53238185Y-31688187D01*
X53271374Y-31653654D01*
X53464401Y-31518495D01*
X53631495Y-31351401D01*
X53761730Y-31165405D01*
X53816307Y-31121781D01*
X53885805Y-31114587D01*
X53948160Y-31146110D01*
X53964879Y-31165405D01*
X54094890Y-31351078D01*
X54261917Y-31518105D01*
X54455421Y-31653600D01*
X54669507Y-31753429D01*
X54669516Y-31753433D01*
X54883000Y-31810634D01*
X54883000Y-30913012D01*
X54940007Y-30945925D01*
X55067174Y-30980000D01*
X55198826Y-30980000D01*
X55325993Y-30945925D01*
X55383000Y-30913012D01*
X55383000Y-31810633D01*
X55596483Y-31753433D01*
X55596492Y-31753429D01*
X55810578Y-31653600D01*
X56004082Y-31518105D01*
X56171105Y-31351082D01*
X56306600Y-31157578D01*
X56406429Y-30943492D01*
X56406432Y-30943486D01*
X56463636Y-30730000D01*
X55566012Y-30730000D01*
X55598925Y-30672993D01*
X55633000Y-30545826D01*
X55633000Y-30414174D01*
X55598925Y-30287007D01*
X55566012Y-30230000D01*
X56463636Y-30230000D01*
X56463635Y-30229999D01*
X56406432Y-30016513D01*
X56406429Y-30016507D01*
X56306600Y-29802422D01*
X56306599Y-29802420D01*
X56171113Y-29608926D01*
X56171108Y-29608920D01*
X56004082Y-29441894D01*
X55810578Y-29306399D01*
X55596492Y-29206570D01*
X55596486Y-29206567D01*
X55383000Y-29149364D01*
X55383000Y-30046988D01*
X55325993Y-30014075D01*
X55198826Y-29980000D01*
X55067174Y-29980000D01*
X54940007Y-30014075D01*
X54883000Y-30046988D01*
X54883000Y-29149364D01*
X54882999Y-29149364D01*
X54669513Y-29206567D01*
X54669507Y-29206570D01*
X54455422Y-29306399D01*
X54455420Y-29306400D01*
X54261926Y-29441886D01*
X54261920Y-29441891D01*
X54094891Y-29608920D01*
X54094890Y-29608922D01*
X53964880Y-29794595D01*
X53910303Y-29838219D01*
X53840804Y-29845412D01*
X53778450Y-29813890D01*
X53761730Y-29794594D01*
X53631494Y-29608597D01*
X53464402Y-29441506D01*
X53464395Y-29441501D01*
X53463415Y-29440815D01*
X53425521Y-29414281D01*
X53270834Y-29305967D01*
X53270830Y-29305965D01*
X53217959Y-29281311D01*
X53056663Y-29206097D01*
X53056659Y-29206096D01*
X53056655Y-29206094D01*
X52828413Y-29144938D01*
X52828403Y-29144936D01*
X52593001Y-29124341D01*
X52592999Y-29124341D01*
X52357596Y-29144936D01*
X52357586Y-29144938D01*
X52129344Y-29206094D01*
X52129335Y-29206098D01*
X51915171Y-29305964D01*
X51915169Y-29305965D01*
X51721600Y-29441503D01*
X51599673Y-29563430D01*
X51538350Y-29596914D01*
X51468658Y-29591930D01*
X51412725Y-29550058D01*
X51395810Y-29519081D01*
X51346797Y-29387671D01*
X51346793Y-29387664D01*
X51260547Y-29272455D01*
X51260544Y-29272452D01*
X51145335Y-29186206D01*
X51145328Y-29186202D01*
X51010482Y-29135908D01*
X51010483Y-29135908D01*
X50950883Y-29129501D01*
X50950881Y-29129500D01*
X50950873Y-29129500D01*
X50950864Y-29129500D01*
X49155129Y-29129500D01*
X49155123Y-29129501D01*
X49095516Y-29135908D01*
X48960671Y-29186202D01*
X48960664Y-29186206D01*
X48845455Y-29272452D01*
X48845452Y-29272455D01*
X48759206Y-29387664D01*
X48759202Y-29387671D01*
X48708908Y-29522517D01*
X48702501Y-29582116D01*
X48702501Y-29582123D01*
X48702500Y-29582135D01*
X48702500Y-31377870D01*
X48702501Y-31377876D01*
X48708908Y-31437483D01*
X48759202Y-31572328D01*
X48759206Y-31572335D01*
X48845452Y-31687544D01*
X48845455Y-31687547D01*
X48960664Y-31773793D01*
X48960671Y-31773797D01*
X49095517Y-31824091D01*
X49095516Y-31824091D01*
X49102444Y-31824835D01*
X49155127Y-31830500D01*
X50950872Y-31830499D01*
X51010483Y-31824091D01*
X51145331Y-31773796D01*
X51260546Y-31687546D01*
X51346796Y-31572331D01*
X51395810Y-31440916D01*
X51437681Y-31384984D01*
X51503145Y-31360566D01*
X51571418Y-31375417D01*
X51599673Y-31396569D01*
X51721597Y-31518493D01*
X51721603Y-31518498D01*
X51839644Y-31601151D01*
X51883269Y-31655728D01*
X51890463Y-31725226D01*
X51858940Y-31787581D01*
X51856202Y-31790407D01*
X51491629Y-32154981D01*
X51430306Y-32188466D01*
X51403948Y-32191300D01*
X49112789Y-32191300D01*
X49052371Y-32203318D01*
X48991948Y-32215337D01*
X48991943Y-32215338D01*
X48957946Y-32229420D01*
X48944797Y-32234867D01*
X48878119Y-32262485D01*
X48878116Y-32262487D01*
X48864548Y-32271551D01*
X48864549Y-32271552D01*
X48775668Y-32330940D01*
X48748809Y-32357800D01*
X48688542Y-32418067D01*
X48688539Y-32418070D01*
X46896070Y-34210539D01*
X46896067Y-34210542D01*
X46874093Y-34232516D01*
X46808940Y-34297668D01*
X46783123Y-34336308D01*
X46783121Y-34336311D01*
X46766043Y-34361867D01*
X46740487Y-34400114D01*
X46740485Y-34400118D01*
X46708877Y-34476428D01*
X46708878Y-34476429D01*
X46693337Y-34513949D01*
X46693335Y-34513956D01*
X46669300Y-34634789D01*
X46228000Y-34634789D01*
X46228000Y-27429000D01*
X46247685Y-27361961D01*
X46300489Y-27316206D01*
X46352000Y-27305000D01*
X61292846Y-27305000D01*
X61359885Y-27324685D01*
G37*
%TD.AperFunction*%
%TA.AperFunction,Conductor*%
G36*
X63966809Y-28964185D02*
G01*
X63987451Y-28980819D01*
X65800584Y-30793952D01*
X65812385Y-30801837D01*
X65862754Y-30835492D01*
X65862756Y-30835493D01*
X65862759Y-30835495D01*
X65923505Y-30876084D01*
X65968055Y-30894537D01*
X66060088Y-30932659D01*
X66176241Y-30955763D01*
X66193806Y-30959257D01*
X66205081Y-30961500D01*
X66205082Y-30961500D01*
X66205083Y-30961500D01*
X66352918Y-30961500D01*
X66916538Y-30961500D01*
X66983577Y-30981185D01*
X67029332Y-31033989D01*
X67039653Y-31100286D01*
X67033000Y-31155681D01*
X67033000Y-31231000D01*
X68434000Y-31231000D01*
X68501039Y-31250685D01*
X68546794Y-31303489D01*
X68558000Y-31355000D01*
X68558000Y-31607000D01*
X68538315Y-31674039D01*
X68485511Y-31719794D01*
X68434000Y-31731000D01*
X67033001Y-31731000D01*
X67033001Y-31806310D01*
X67039654Y-31861716D01*
X67028102Y-31930625D01*
X66981130Y-31982349D01*
X66916538Y-32000500D01*
X65117230Y-32000500D01*
X65050191Y-31980815D01*
X65029549Y-31964181D01*
X63856869Y-30791501D01*
X63823384Y-30730178D01*
X63821022Y-30693012D01*
X63826179Y-30634077D01*
X63839659Y-30480000D01*
X63819063Y-30244592D01*
X63757903Y-30016337D01*
X63658035Y-29802171D01*
X63652731Y-29794595D01*
X63522494Y-29608597D01*
X63355402Y-29441506D01*
X63355395Y-29441501D01*
X63354415Y-29440815D01*
X63316521Y-29414281D01*
X63161834Y-29305967D01*
X63161830Y-29305965D01*
X63108959Y-29281311D01*
X62947663Y-29206097D01*
X62947659Y-29206096D01*
X62947655Y-29206094D01*
X62881150Y-29188275D01*
X62821490Y-29151910D01*
X62790960Y-29089064D01*
X62799254Y-29019688D01*
X62843739Y-28965810D01*
X62910291Y-28944535D01*
X62913243Y-28944500D01*
X63899770Y-28944500D01*
X63966809Y-28964185D01*
G37*
%TD.AperFunction*%
%TD*%
M02*
