%TF.GenerationSoftware,KiCad,Pcbnew,8.0.4*%
%TF.CreationDate,2024-08-28T14:32:16-04:00*%
%TF.ProjectId,luytenPCB,6c757974-656e-4504-9342-2e6b69636164,rev?*%
%TF.SameCoordinates,Original*%
%TF.FileFunction,Drillmap*%
%TF.FilePolarity,Positive*%
%FSLAX45Y45*%
G04 Gerber Fmt 4.5, Leading zero omitted, Abs format (unit mm)*
G04 Created by KiCad (PCBNEW 8.0.4) date 2024-08-28 14:32:16*
%MOMM*%
%LPD*%
G01*
G04 APERTURE LIST*
%ADD10C,0.100000*%
%ADD11C,0.200000*%
%ADD12C,0.220000*%
G04 APERTURE END LIST*
D10*
X4629150Y-6286500D02*
X4184650Y-5880100D01*
X4184650Y-5562600D02*
X4629150Y-5156200D01*
X11830050Y-5156200D02*
X12274550Y-5562600D01*
X4629150Y-3860800D02*
X4629150Y-5156200D01*
X12274550Y-5562600D02*
X12274550Y-5880100D01*
X11823700Y-2730500D02*
X12268200Y-3136900D01*
X12268200Y-3454400D02*
X11823700Y-3860800D01*
X4184650Y-3454400D02*
X4184650Y-3136900D01*
X11830050Y-6286500D02*
X4629150Y-6286500D01*
X4629150Y-3860800D02*
X4184650Y-3454400D01*
X12274550Y-5880100D02*
X11830050Y-6286500D01*
X4629150Y-2730500D02*
X11823700Y-2730500D01*
X4184650Y-5880100D02*
X4184650Y-5562600D01*
X12268200Y-3136900D02*
X12268200Y-3454400D01*
X11823700Y-3860800D02*
X11830050Y-5156200D01*
X4184650Y-3136900D02*
X4629150Y-2730500D01*
D11*
D12*
X4320000Y-3190000D02*
X4540000Y-3410000D01*
X4540000Y-3190000D02*
X4320000Y-3410000D01*
X4320000Y-5590000D02*
X4540000Y-5810000D01*
X4540000Y-5590000D02*
X4320000Y-5810000D01*
X11920000Y-3190000D02*
X12140000Y-3410000D01*
X12140000Y-3190000D02*
X11920000Y-3410000D01*
X11920000Y-5590000D02*
X12140000Y-5810000D01*
X12140000Y-5590000D02*
X11920000Y-5810000D01*
D11*
X4440427Y-6602984D02*
X4440427Y-6402984D01*
X4440427Y-6402984D02*
X4488046Y-6402984D01*
X4488046Y-6402984D02*
X4516617Y-6412508D01*
X4516617Y-6412508D02*
X4535665Y-6431555D01*
X4535665Y-6431555D02*
X4545189Y-6450603D01*
X4545189Y-6450603D02*
X4554713Y-6488698D01*
X4554713Y-6488698D02*
X4554713Y-6517269D01*
X4554713Y-6517269D02*
X4545189Y-6555365D01*
X4545189Y-6555365D02*
X4535665Y-6574412D01*
X4535665Y-6574412D02*
X4516617Y-6593460D01*
X4516617Y-6593460D02*
X4488046Y-6602984D01*
X4488046Y-6602984D02*
X4440427Y-6602984D01*
X4640427Y-6602984D02*
X4640427Y-6469650D01*
X4640427Y-6507746D02*
X4649951Y-6488698D01*
X4649951Y-6488698D02*
X4659474Y-6479174D01*
X4659474Y-6479174D02*
X4678522Y-6469650D01*
X4678522Y-6469650D02*
X4697570Y-6469650D01*
X4764236Y-6602984D02*
X4764236Y-6469650D01*
X4764236Y-6402984D02*
X4754713Y-6412508D01*
X4754713Y-6412508D02*
X4764236Y-6422031D01*
X4764236Y-6422031D02*
X4773760Y-6412508D01*
X4773760Y-6412508D02*
X4764236Y-6402984D01*
X4764236Y-6402984D02*
X4764236Y-6422031D01*
X4888046Y-6602984D02*
X4868998Y-6593460D01*
X4868998Y-6593460D02*
X4859474Y-6574412D01*
X4859474Y-6574412D02*
X4859474Y-6402984D01*
X4992808Y-6602984D02*
X4973760Y-6593460D01*
X4973760Y-6593460D02*
X4964236Y-6574412D01*
X4964236Y-6574412D02*
X4964236Y-6402984D01*
X5221379Y-6602984D02*
X5221379Y-6402984D01*
X5221379Y-6402984D02*
X5288046Y-6545841D01*
X5288046Y-6545841D02*
X5354713Y-6402984D01*
X5354713Y-6402984D02*
X5354713Y-6602984D01*
X5535665Y-6602984D02*
X5535665Y-6498222D01*
X5535665Y-6498222D02*
X5526141Y-6479174D01*
X5526141Y-6479174D02*
X5507094Y-6469650D01*
X5507094Y-6469650D02*
X5468998Y-6469650D01*
X5468998Y-6469650D02*
X5449951Y-6479174D01*
X5535665Y-6593460D02*
X5516617Y-6602984D01*
X5516617Y-6602984D02*
X5468998Y-6602984D01*
X5468998Y-6602984D02*
X5449951Y-6593460D01*
X5449951Y-6593460D02*
X5440427Y-6574412D01*
X5440427Y-6574412D02*
X5440427Y-6555365D01*
X5440427Y-6555365D02*
X5449951Y-6536317D01*
X5449951Y-6536317D02*
X5468998Y-6526793D01*
X5468998Y-6526793D02*
X5516617Y-6526793D01*
X5516617Y-6526793D02*
X5535665Y-6517269D01*
X5630903Y-6469650D02*
X5630903Y-6669650D01*
X5630903Y-6479174D02*
X5649951Y-6469650D01*
X5649951Y-6469650D02*
X5688046Y-6469650D01*
X5688046Y-6469650D02*
X5707093Y-6479174D01*
X5707093Y-6479174D02*
X5716617Y-6488698D01*
X5716617Y-6488698D02*
X5726141Y-6507746D01*
X5726141Y-6507746D02*
X5726141Y-6564888D01*
X5726141Y-6564888D02*
X5716617Y-6583936D01*
X5716617Y-6583936D02*
X5707093Y-6593460D01*
X5707093Y-6593460D02*
X5688046Y-6602984D01*
X5688046Y-6602984D02*
X5649951Y-6602984D01*
X5649951Y-6602984D02*
X5630903Y-6593460D01*
X5811855Y-6583936D02*
X5821379Y-6593460D01*
X5821379Y-6593460D02*
X5811855Y-6602984D01*
X5811855Y-6602984D02*
X5802332Y-6593460D01*
X5802332Y-6593460D02*
X5811855Y-6583936D01*
X5811855Y-6583936D02*
X5811855Y-6602984D01*
X5811855Y-6479174D02*
X5821379Y-6488698D01*
X5821379Y-6488698D02*
X5811855Y-6498222D01*
X5811855Y-6498222D02*
X5802332Y-6488698D01*
X5802332Y-6488698D02*
X5811855Y-6479174D01*
X5811855Y-6479174D02*
X5811855Y-6498222D01*
X3979650Y-6831500D02*
X4179650Y-7031500D01*
X4179650Y-6831500D02*
X3979650Y-7031500D01*
X4430903Y-6842031D02*
X4440427Y-6832508D01*
X4440427Y-6832508D02*
X4459474Y-6822984D01*
X4459474Y-6822984D02*
X4507094Y-6822984D01*
X4507094Y-6822984D02*
X4526141Y-6832508D01*
X4526141Y-6832508D02*
X4535665Y-6842031D01*
X4535665Y-6842031D02*
X4545189Y-6861079D01*
X4545189Y-6861079D02*
X4545189Y-6880127D01*
X4545189Y-6880127D02*
X4535665Y-6908698D01*
X4535665Y-6908698D02*
X4421379Y-7022984D01*
X4421379Y-7022984D02*
X4545189Y-7022984D01*
X4630903Y-7003936D02*
X4640427Y-7013460D01*
X4640427Y-7013460D02*
X4630903Y-7022984D01*
X4630903Y-7022984D02*
X4621379Y-7013460D01*
X4621379Y-7013460D02*
X4630903Y-7003936D01*
X4630903Y-7003936D02*
X4630903Y-7022984D01*
X4716617Y-6842031D02*
X4726141Y-6832508D01*
X4726141Y-6832508D02*
X4745189Y-6822984D01*
X4745189Y-6822984D02*
X4792808Y-6822984D01*
X4792808Y-6822984D02*
X4811855Y-6832508D01*
X4811855Y-6832508D02*
X4821379Y-6842031D01*
X4821379Y-6842031D02*
X4830903Y-6861079D01*
X4830903Y-6861079D02*
X4830903Y-6880127D01*
X4830903Y-6880127D02*
X4821379Y-6908698D01*
X4821379Y-6908698D02*
X4707094Y-7022984D01*
X4707094Y-7022984D02*
X4830903Y-7022984D01*
X4954713Y-6822984D02*
X4973760Y-6822984D01*
X4973760Y-6822984D02*
X4992808Y-6832508D01*
X4992808Y-6832508D02*
X5002332Y-6842031D01*
X5002332Y-6842031D02*
X5011855Y-6861079D01*
X5011855Y-6861079D02*
X5021379Y-6899174D01*
X5021379Y-6899174D02*
X5021379Y-6946793D01*
X5021379Y-6946793D02*
X5011855Y-6984888D01*
X5011855Y-6984888D02*
X5002332Y-7003936D01*
X5002332Y-7003936D02*
X4992808Y-7013460D01*
X4992808Y-7013460D02*
X4973760Y-7022984D01*
X4973760Y-7022984D02*
X4954713Y-7022984D01*
X4954713Y-7022984D02*
X4935665Y-7013460D01*
X4935665Y-7013460D02*
X4926141Y-7003936D01*
X4926141Y-7003936D02*
X4916617Y-6984888D01*
X4916617Y-6984888D02*
X4907094Y-6946793D01*
X4907094Y-6946793D02*
X4907094Y-6899174D01*
X4907094Y-6899174D02*
X4916617Y-6861079D01*
X4916617Y-6861079D02*
X4926141Y-6842031D01*
X4926141Y-6842031D02*
X4935665Y-6832508D01*
X4935665Y-6832508D02*
X4954713Y-6822984D01*
X5145189Y-6822984D02*
X5164236Y-6822984D01*
X5164236Y-6822984D02*
X5183284Y-6832508D01*
X5183284Y-6832508D02*
X5192808Y-6842031D01*
X5192808Y-6842031D02*
X5202332Y-6861079D01*
X5202332Y-6861079D02*
X5211855Y-6899174D01*
X5211855Y-6899174D02*
X5211855Y-6946793D01*
X5211855Y-6946793D02*
X5202332Y-6984888D01*
X5202332Y-6984888D02*
X5192808Y-7003936D01*
X5192808Y-7003936D02*
X5183284Y-7013460D01*
X5183284Y-7013460D02*
X5164236Y-7022984D01*
X5164236Y-7022984D02*
X5145189Y-7022984D01*
X5145189Y-7022984D02*
X5126141Y-7013460D01*
X5126141Y-7013460D02*
X5116617Y-7003936D01*
X5116617Y-7003936D02*
X5107094Y-6984888D01*
X5107094Y-6984888D02*
X5097570Y-6946793D01*
X5097570Y-6946793D02*
X5097570Y-6899174D01*
X5097570Y-6899174D02*
X5107094Y-6861079D01*
X5107094Y-6861079D02*
X5116617Y-6842031D01*
X5116617Y-6842031D02*
X5126141Y-6832508D01*
X5126141Y-6832508D02*
X5145189Y-6822984D01*
X5297570Y-7022984D02*
X5297570Y-6889650D01*
X5297570Y-6908698D02*
X5307094Y-6899174D01*
X5307094Y-6899174D02*
X5326141Y-6889650D01*
X5326141Y-6889650D02*
X5354713Y-6889650D01*
X5354713Y-6889650D02*
X5373760Y-6899174D01*
X5373760Y-6899174D02*
X5383284Y-6918222D01*
X5383284Y-6918222D02*
X5383284Y-7022984D01*
X5383284Y-6918222D02*
X5392808Y-6899174D01*
X5392808Y-6899174D02*
X5411855Y-6889650D01*
X5411855Y-6889650D02*
X5440427Y-6889650D01*
X5440427Y-6889650D02*
X5459475Y-6899174D01*
X5459475Y-6899174D02*
X5468998Y-6918222D01*
X5468998Y-6918222D02*
X5468998Y-7022984D01*
X5564236Y-7022984D02*
X5564236Y-6889650D01*
X5564236Y-6908698D02*
X5573760Y-6899174D01*
X5573760Y-6899174D02*
X5592808Y-6889650D01*
X5592808Y-6889650D02*
X5621379Y-6889650D01*
X5621379Y-6889650D02*
X5640427Y-6899174D01*
X5640427Y-6899174D02*
X5649951Y-6918222D01*
X5649951Y-6918222D02*
X5649951Y-7022984D01*
X5649951Y-6918222D02*
X5659474Y-6899174D01*
X5659474Y-6899174D02*
X5678522Y-6889650D01*
X5678522Y-6889650D02*
X5707093Y-6889650D01*
X5707093Y-6889650D02*
X5726141Y-6899174D01*
X5726141Y-6899174D02*
X5735665Y-6918222D01*
X5735665Y-6918222D02*
X5735665Y-7022984D01*
X6126141Y-6813460D02*
X5954713Y-7070603D01*
X6383284Y-6822984D02*
X6402332Y-6822984D01*
X6402332Y-6822984D02*
X6421379Y-6832508D01*
X6421379Y-6832508D02*
X6430903Y-6842031D01*
X6430903Y-6842031D02*
X6440427Y-6861079D01*
X6440427Y-6861079D02*
X6449951Y-6899174D01*
X6449951Y-6899174D02*
X6449951Y-6946793D01*
X6449951Y-6946793D02*
X6440427Y-6984888D01*
X6440427Y-6984888D02*
X6430903Y-7003936D01*
X6430903Y-7003936D02*
X6421379Y-7013460D01*
X6421379Y-7013460D02*
X6402332Y-7022984D01*
X6402332Y-7022984D02*
X6383284Y-7022984D01*
X6383284Y-7022984D02*
X6364236Y-7013460D01*
X6364236Y-7013460D02*
X6354713Y-7003936D01*
X6354713Y-7003936D02*
X6345189Y-6984888D01*
X6345189Y-6984888D02*
X6335665Y-6946793D01*
X6335665Y-6946793D02*
X6335665Y-6899174D01*
X6335665Y-6899174D02*
X6345189Y-6861079D01*
X6345189Y-6861079D02*
X6354713Y-6842031D01*
X6354713Y-6842031D02*
X6364236Y-6832508D01*
X6364236Y-6832508D02*
X6383284Y-6822984D01*
X6535665Y-7003936D02*
X6545189Y-7013460D01*
X6545189Y-7013460D02*
X6535665Y-7022984D01*
X6535665Y-7022984D02*
X6526141Y-7013460D01*
X6526141Y-7013460D02*
X6535665Y-7003936D01*
X6535665Y-7003936D02*
X6535665Y-7022984D01*
X6668998Y-6822984D02*
X6688046Y-6822984D01*
X6688046Y-6822984D02*
X6707094Y-6832508D01*
X6707094Y-6832508D02*
X6716617Y-6842031D01*
X6716617Y-6842031D02*
X6726141Y-6861079D01*
X6726141Y-6861079D02*
X6735665Y-6899174D01*
X6735665Y-6899174D02*
X6735665Y-6946793D01*
X6735665Y-6946793D02*
X6726141Y-6984888D01*
X6726141Y-6984888D02*
X6716617Y-7003936D01*
X6716617Y-7003936D02*
X6707094Y-7013460D01*
X6707094Y-7013460D02*
X6688046Y-7022984D01*
X6688046Y-7022984D02*
X6668998Y-7022984D01*
X6668998Y-7022984D02*
X6649951Y-7013460D01*
X6649951Y-7013460D02*
X6640427Y-7003936D01*
X6640427Y-7003936D02*
X6630903Y-6984888D01*
X6630903Y-6984888D02*
X6621379Y-6946793D01*
X6621379Y-6946793D02*
X6621379Y-6899174D01*
X6621379Y-6899174D02*
X6630903Y-6861079D01*
X6630903Y-6861079D02*
X6640427Y-6842031D01*
X6640427Y-6842031D02*
X6649951Y-6832508D01*
X6649951Y-6832508D02*
X6668998Y-6822984D01*
X6849951Y-6908698D02*
X6830903Y-6899174D01*
X6830903Y-6899174D02*
X6821379Y-6889650D01*
X6821379Y-6889650D02*
X6811856Y-6870603D01*
X6811856Y-6870603D02*
X6811856Y-6861079D01*
X6811856Y-6861079D02*
X6821379Y-6842031D01*
X6821379Y-6842031D02*
X6830903Y-6832508D01*
X6830903Y-6832508D02*
X6849951Y-6822984D01*
X6849951Y-6822984D02*
X6888046Y-6822984D01*
X6888046Y-6822984D02*
X6907094Y-6832508D01*
X6907094Y-6832508D02*
X6916617Y-6842031D01*
X6916617Y-6842031D02*
X6926141Y-6861079D01*
X6926141Y-6861079D02*
X6926141Y-6870603D01*
X6926141Y-6870603D02*
X6916617Y-6889650D01*
X6916617Y-6889650D02*
X6907094Y-6899174D01*
X6907094Y-6899174D02*
X6888046Y-6908698D01*
X6888046Y-6908698D02*
X6849951Y-6908698D01*
X6849951Y-6908698D02*
X6830903Y-6918222D01*
X6830903Y-6918222D02*
X6821379Y-6927746D01*
X6821379Y-6927746D02*
X6811856Y-6946793D01*
X6811856Y-6946793D02*
X6811856Y-6984888D01*
X6811856Y-6984888D02*
X6821379Y-7003936D01*
X6821379Y-7003936D02*
X6830903Y-7013460D01*
X6830903Y-7013460D02*
X6849951Y-7022984D01*
X6849951Y-7022984D02*
X6888046Y-7022984D01*
X6888046Y-7022984D02*
X6907094Y-7013460D01*
X6907094Y-7013460D02*
X6916617Y-7003936D01*
X6916617Y-7003936D02*
X6926141Y-6984888D01*
X6926141Y-6984888D02*
X6926141Y-6946793D01*
X6926141Y-6946793D02*
X6916617Y-6927746D01*
X6916617Y-6927746D02*
X6907094Y-6918222D01*
X6907094Y-6918222D02*
X6888046Y-6908698D01*
X7097570Y-6822984D02*
X7059475Y-6822984D01*
X7059475Y-6822984D02*
X7040427Y-6832508D01*
X7040427Y-6832508D02*
X7030903Y-6842031D01*
X7030903Y-6842031D02*
X7011856Y-6870603D01*
X7011856Y-6870603D02*
X7002332Y-6908698D01*
X7002332Y-6908698D02*
X7002332Y-6984888D01*
X7002332Y-6984888D02*
X7011856Y-7003936D01*
X7011856Y-7003936D02*
X7021379Y-7013460D01*
X7021379Y-7013460D02*
X7040427Y-7022984D01*
X7040427Y-7022984D02*
X7078522Y-7022984D01*
X7078522Y-7022984D02*
X7097570Y-7013460D01*
X7097570Y-7013460D02*
X7107094Y-7003936D01*
X7107094Y-7003936D02*
X7116617Y-6984888D01*
X7116617Y-6984888D02*
X7116617Y-6937269D01*
X7116617Y-6937269D02*
X7107094Y-6918222D01*
X7107094Y-6918222D02*
X7097570Y-6908698D01*
X7097570Y-6908698D02*
X7078522Y-6899174D01*
X7078522Y-6899174D02*
X7040427Y-6899174D01*
X7040427Y-6899174D02*
X7021379Y-6908698D01*
X7021379Y-6908698D02*
X7011856Y-6918222D01*
X7011856Y-6918222D02*
X7002332Y-6937269D01*
X7288046Y-6822984D02*
X7249951Y-6822984D01*
X7249951Y-6822984D02*
X7230903Y-6832508D01*
X7230903Y-6832508D02*
X7221379Y-6842031D01*
X7221379Y-6842031D02*
X7202332Y-6870603D01*
X7202332Y-6870603D02*
X7192808Y-6908698D01*
X7192808Y-6908698D02*
X7192808Y-6984888D01*
X7192808Y-6984888D02*
X7202332Y-7003936D01*
X7202332Y-7003936D02*
X7211856Y-7013460D01*
X7211856Y-7013460D02*
X7230903Y-7022984D01*
X7230903Y-7022984D02*
X7268998Y-7022984D01*
X7268998Y-7022984D02*
X7288046Y-7013460D01*
X7288046Y-7013460D02*
X7297570Y-7003936D01*
X7297570Y-7003936D02*
X7307094Y-6984888D01*
X7307094Y-6984888D02*
X7307094Y-6937269D01*
X7307094Y-6937269D02*
X7297570Y-6918222D01*
X7297570Y-6918222D02*
X7288046Y-6908698D01*
X7288046Y-6908698D02*
X7268998Y-6899174D01*
X7268998Y-6899174D02*
X7230903Y-6899174D01*
X7230903Y-6899174D02*
X7211856Y-6908698D01*
X7211856Y-6908698D02*
X7202332Y-6918222D01*
X7202332Y-6918222D02*
X7192808Y-6937269D01*
X7383284Y-6822984D02*
X7383284Y-6861079D01*
X7459475Y-6822984D02*
X7459475Y-6861079D01*
X7754713Y-7099174D02*
X7745189Y-7089650D01*
X7745189Y-7089650D02*
X7726141Y-7061079D01*
X7726141Y-7061079D02*
X7716618Y-7042031D01*
X7716618Y-7042031D02*
X7707094Y-7013460D01*
X7707094Y-7013460D02*
X7697570Y-6965841D01*
X7697570Y-6965841D02*
X7697570Y-6927746D01*
X7697570Y-6927746D02*
X7707094Y-6880127D01*
X7707094Y-6880127D02*
X7716618Y-6851555D01*
X7716618Y-6851555D02*
X7726141Y-6832508D01*
X7726141Y-6832508D02*
X7745189Y-6803936D01*
X7745189Y-6803936D02*
X7754713Y-6794412D01*
X7916618Y-6889650D02*
X7916618Y-7022984D01*
X7868998Y-6813460D02*
X7821379Y-6956317D01*
X7821379Y-6956317D02*
X7945189Y-6956317D01*
X8173760Y-7022984D02*
X8173760Y-6822984D01*
X8259475Y-7022984D02*
X8259475Y-6918222D01*
X8259475Y-6918222D02*
X8249951Y-6899174D01*
X8249951Y-6899174D02*
X8230903Y-6889650D01*
X8230903Y-6889650D02*
X8202332Y-6889650D01*
X8202332Y-6889650D02*
X8183284Y-6899174D01*
X8183284Y-6899174D02*
X8173760Y-6908698D01*
X8383284Y-7022984D02*
X8364237Y-7013460D01*
X8364237Y-7013460D02*
X8354713Y-7003936D01*
X8354713Y-7003936D02*
X8345189Y-6984888D01*
X8345189Y-6984888D02*
X8345189Y-6927746D01*
X8345189Y-6927746D02*
X8354713Y-6908698D01*
X8354713Y-6908698D02*
X8364237Y-6899174D01*
X8364237Y-6899174D02*
X8383284Y-6889650D01*
X8383284Y-6889650D02*
X8411856Y-6889650D01*
X8411856Y-6889650D02*
X8430903Y-6899174D01*
X8430903Y-6899174D02*
X8440427Y-6908698D01*
X8440427Y-6908698D02*
X8449951Y-6927746D01*
X8449951Y-6927746D02*
X8449951Y-6984888D01*
X8449951Y-6984888D02*
X8440427Y-7003936D01*
X8440427Y-7003936D02*
X8430903Y-7013460D01*
X8430903Y-7013460D02*
X8411856Y-7022984D01*
X8411856Y-7022984D02*
X8383284Y-7022984D01*
X8564237Y-7022984D02*
X8545189Y-7013460D01*
X8545189Y-7013460D02*
X8535665Y-6994412D01*
X8535665Y-6994412D02*
X8535665Y-6822984D01*
X8716618Y-7013460D02*
X8697570Y-7022984D01*
X8697570Y-7022984D02*
X8659475Y-7022984D01*
X8659475Y-7022984D02*
X8640427Y-7013460D01*
X8640427Y-7013460D02*
X8630903Y-6994412D01*
X8630903Y-6994412D02*
X8630903Y-6918222D01*
X8630903Y-6918222D02*
X8640427Y-6899174D01*
X8640427Y-6899174D02*
X8659475Y-6889650D01*
X8659475Y-6889650D02*
X8697570Y-6889650D01*
X8697570Y-6889650D02*
X8716618Y-6899174D01*
X8716618Y-6899174D02*
X8726142Y-6918222D01*
X8726142Y-6918222D02*
X8726142Y-6937269D01*
X8726142Y-6937269D02*
X8630903Y-6956317D01*
X8802332Y-7013460D02*
X8821380Y-7022984D01*
X8821380Y-7022984D02*
X8859475Y-7022984D01*
X8859475Y-7022984D02*
X8878523Y-7013460D01*
X8878523Y-7013460D02*
X8888046Y-6994412D01*
X8888046Y-6994412D02*
X8888046Y-6984888D01*
X8888046Y-6984888D02*
X8878523Y-6965841D01*
X8878523Y-6965841D02*
X8859475Y-6956317D01*
X8859475Y-6956317D02*
X8830903Y-6956317D01*
X8830903Y-6956317D02*
X8811856Y-6946793D01*
X8811856Y-6946793D02*
X8802332Y-6927746D01*
X8802332Y-6927746D02*
X8802332Y-6918222D01*
X8802332Y-6918222D02*
X8811856Y-6899174D01*
X8811856Y-6899174D02*
X8830903Y-6889650D01*
X8830903Y-6889650D02*
X8859475Y-6889650D01*
X8859475Y-6889650D02*
X8878523Y-6899174D01*
X8954713Y-7099174D02*
X8964237Y-7089650D01*
X8964237Y-7089650D02*
X8983284Y-7061079D01*
X8983284Y-7061079D02*
X8992808Y-7042031D01*
X8992808Y-7042031D02*
X9002332Y-7013460D01*
X9002332Y-7013460D02*
X9011856Y-6965841D01*
X9011856Y-6965841D02*
X9011856Y-6927746D01*
X9011856Y-6927746D02*
X9002332Y-6880127D01*
X9002332Y-6880127D02*
X8992808Y-6851555D01*
X8992808Y-6851555D02*
X8983284Y-6832508D01*
X8983284Y-6832508D02*
X8964237Y-6803936D01*
X8964237Y-6803936D02*
X8954713Y-6794412D01*
X9316618Y-7099174D02*
X9307094Y-7089650D01*
X9307094Y-7089650D02*
X9288046Y-7061079D01*
X9288046Y-7061079D02*
X9278523Y-7042031D01*
X9278523Y-7042031D02*
X9268999Y-7013460D01*
X9268999Y-7013460D02*
X9259475Y-6965841D01*
X9259475Y-6965841D02*
X9259475Y-6927746D01*
X9259475Y-6927746D02*
X9268999Y-6880127D01*
X9268999Y-6880127D02*
X9278523Y-6851555D01*
X9278523Y-6851555D02*
X9288046Y-6832508D01*
X9288046Y-6832508D02*
X9307094Y-6803936D01*
X9307094Y-6803936D02*
X9316618Y-6794412D01*
X9392808Y-6889650D02*
X9392808Y-7022984D01*
X9392808Y-6908698D02*
X9402332Y-6899174D01*
X9402332Y-6899174D02*
X9421380Y-6889650D01*
X9421380Y-6889650D02*
X9449951Y-6889650D01*
X9449951Y-6889650D02*
X9468999Y-6899174D01*
X9468999Y-6899174D02*
X9478523Y-6918222D01*
X9478523Y-6918222D02*
X9478523Y-7022984D01*
X9602332Y-7022984D02*
X9583284Y-7013460D01*
X9583284Y-7013460D02*
X9573761Y-7003936D01*
X9573761Y-7003936D02*
X9564237Y-6984888D01*
X9564237Y-6984888D02*
X9564237Y-6927746D01*
X9564237Y-6927746D02*
X9573761Y-6908698D01*
X9573761Y-6908698D02*
X9583284Y-6899174D01*
X9583284Y-6899174D02*
X9602332Y-6889650D01*
X9602332Y-6889650D02*
X9630904Y-6889650D01*
X9630904Y-6889650D02*
X9649951Y-6899174D01*
X9649951Y-6899174D02*
X9659475Y-6908698D01*
X9659475Y-6908698D02*
X9668999Y-6927746D01*
X9668999Y-6927746D02*
X9668999Y-6984888D01*
X9668999Y-6984888D02*
X9659475Y-7003936D01*
X9659475Y-7003936D02*
X9649951Y-7013460D01*
X9649951Y-7013460D02*
X9630904Y-7022984D01*
X9630904Y-7022984D02*
X9602332Y-7022984D01*
X9726142Y-6889650D02*
X9802332Y-6889650D01*
X9754713Y-6822984D02*
X9754713Y-6994412D01*
X9754713Y-6994412D02*
X9764237Y-7013460D01*
X9764237Y-7013460D02*
X9783284Y-7022984D01*
X9783284Y-7022984D02*
X9802332Y-7022984D01*
X10021380Y-6889650D02*
X10021380Y-7089650D01*
X10021380Y-6899174D02*
X10040427Y-6889650D01*
X10040427Y-6889650D02*
X10078523Y-6889650D01*
X10078523Y-6889650D02*
X10097570Y-6899174D01*
X10097570Y-6899174D02*
X10107094Y-6908698D01*
X10107094Y-6908698D02*
X10116618Y-6927746D01*
X10116618Y-6927746D02*
X10116618Y-6984888D01*
X10116618Y-6984888D02*
X10107094Y-7003936D01*
X10107094Y-7003936D02*
X10097570Y-7013460D01*
X10097570Y-7013460D02*
X10078523Y-7022984D01*
X10078523Y-7022984D02*
X10040427Y-7022984D01*
X10040427Y-7022984D02*
X10021380Y-7013460D01*
X10230904Y-7022984D02*
X10211856Y-7013460D01*
X10211856Y-7013460D02*
X10202332Y-6994412D01*
X10202332Y-6994412D02*
X10202332Y-6822984D01*
X10392808Y-7022984D02*
X10392808Y-6918222D01*
X10392808Y-6918222D02*
X10383285Y-6899174D01*
X10383285Y-6899174D02*
X10364237Y-6889650D01*
X10364237Y-6889650D02*
X10326142Y-6889650D01*
X10326142Y-6889650D02*
X10307094Y-6899174D01*
X10392808Y-7013460D02*
X10373761Y-7022984D01*
X10373761Y-7022984D02*
X10326142Y-7022984D01*
X10326142Y-7022984D02*
X10307094Y-7013460D01*
X10307094Y-7013460D02*
X10297570Y-6994412D01*
X10297570Y-6994412D02*
X10297570Y-6975365D01*
X10297570Y-6975365D02*
X10307094Y-6956317D01*
X10307094Y-6956317D02*
X10326142Y-6946793D01*
X10326142Y-6946793D02*
X10373761Y-6946793D01*
X10373761Y-6946793D02*
X10392808Y-6937269D01*
X10459475Y-6889650D02*
X10535665Y-6889650D01*
X10488046Y-6822984D02*
X10488046Y-6994412D01*
X10488046Y-6994412D02*
X10497570Y-7013460D01*
X10497570Y-7013460D02*
X10516618Y-7022984D01*
X10516618Y-7022984D02*
X10535665Y-7022984D01*
X10678523Y-7013460D02*
X10659475Y-7022984D01*
X10659475Y-7022984D02*
X10621380Y-7022984D01*
X10621380Y-7022984D02*
X10602332Y-7013460D01*
X10602332Y-7013460D02*
X10592808Y-6994412D01*
X10592808Y-6994412D02*
X10592808Y-6918222D01*
X10592808Y-6918222D02*
X10602332Y-6899174D01*
X10602332Y-6899174D02*
X10621380Y-6889650D01*
X10621380Y-6889650D02*
X10659475Y-6889650D01*
X10659475Y-6889650D02*
X10678523Y-6899174D01*
X10678523Y-6899174D02*
X10688046Y-6918222D01*
X10688046Y-6918222D02*
X10688046Y-6937269D01*
X10688046Y-6937269D02*
X10592808Y-6956317D01*
X10859475Y-7022984D02*
X10859475Y-6822984D01*
X10859475Y-7013460D02*
X10840427Y-7022984D01*
X10840427Y-7022984D02*
X10802332Y-7022984D01*
X10802332Y-7022984D02*
X10783285Y-7013460D01*
X10783285Y-7013460D02*
X10773761Y-7003936D01*
X10773761Y-7003936D02*
X10764237Y-6984888D01*
X10764237Y-6984888D02*
X10764237Y-6927746D01*
X10764237Y-6927746D02*
X10773761Y-6908698D01*
X10773761Y-6908698D02*
X10783285Y-6899174D01*
X10783285Y-6899174D02*
X10802332Y-6889650D01*
X10802332Y-6889650D02*
X10840427Y-6889650D01*
X10840427Y-6889650D02*
X10859475Y-6899174D01*
X10935666Y-7099174D02*
X10945189Y-7089650D01*
X10945189Y-7089650D02*
X10964237Y-7061079D01*
X10964237Y-7061079D02*
X10973761Y-7042031D01*
X10973761Y-7042031D02*
X10983285Y-7013460D01*
X10983285Y-7013460D02*
X10992808Y-6965841D01*
X10992808Y-6965841D02*
X10992808Y-6927746D01*
X10992808Y-6927746D02*
X10983285Y-6880127D01*
X10983285Y-6880127D02*
X10973761Y-6851555D01*
X10973761Y-6851555D02*
X10964237Y-6832508D01*
X10964237Y-6832508D02*
X10945189Y-6803936D01*
X10945189Y-6803936D02*
X10935666Y-6794412D01*
M02*
