%TF.GenerationSoftware,KiCad,Pcbnew,8.0.4*%
%TF.CreationDate,2024-08-28T14:32:16-04:00*%
%TF.ProjectId,luytenPCB,6c757974-656e-4504-9342-2e6b69636164,rev?*%
%TF.SameCoordinates,Original*%
%TF.FileFunction,Drillmap*%
%TF.FilePolarity,Positive*%
%FSLAX45Y45*%
G04 Gerber Fmt 4.5, Leading zero omitted, Abs format (unit mm)*
G04 Created by KiCad (PCBNEW 8.0.4) date 2024-08-28 14:32:16*
%MOMM*%
%LPD*%
G01*
G04 APERTURE LIST*
%ADD10C,0.100000*%
%ADD11C,0.200000*%
%ADD12C,0.270000*%
G04 APERTURE END LIST*
D10*
X4629150Y-6286500D02*
X4184650Y-5880100D01*
X4184650Y-5562600D02*
X4629150Y-5156200D01*
X11830050Y-5156200D02*
X12274550Y-5562600D01*
X4629150Y-3860800D02*
X4629150Y-5156200D01*
X12274550Y-5562600D02*
X12274550Y-5880100D01*
X11823700Y-2730500D02*
X12268200Y-3136900D01*
X12268200Y-3454400D02*
X11823700Y-3860800D01*
X4184650Y-3454400D02*
X4184650Y-3136900D01*
X11830050Y-6286500D02*
X4629150Y-6286500D01*
X4629150Y-3860800D02*
X4184650Y-3454400D01*
X12274550Y-5880100D02*
X11830050Y-6286500D01*
X4629150Y-2730500D02*
X11823700Y-2730500D01*
X4184650Y-5880100D02*
X4184650Y-5562600D01*
X12268200Y-3136900D02*
X12268200Y-3454400D01*
X11823700Y-3860800D02*
X11830050Y-5156200D01*
X4184650Y-3136900D02*
X4629150Y-2730500D01*
D11*
D10*
X5070160Y-4800920D02*
X5110160Y-4840920D01*
X5110160Y-4800920D02*
X5070160Y-4840920D01*
X5085400Y-3993200D02*
X5125400Y-4033200D01*
X5125400Y-3993200D02*
X5085400Y-4033200D01*
X5425760Y-3972880D02*
X5465760Y-4012880D01*
X5465760Y-3972880D02*
X5425760Y-4012880D01*
X5781360Y-4343720D02*
X5821360Y-4383720D01*
X5821360Y-4343720D02*
X5781360Y-4383720D01*
X5781360Y-4521520D02*
X5821360Y-4561520D01*
X5821360Y-4521520D02*
X5781360Y-4561520D01*
X6375720Y-4607880D02*
X6415720Y-4647880D01*
X6415720Y-4607880D02*
X6375720Y-4647880D01*
X6380800Y-4221800D02*
X6420800Y-4261800D01*
X6420800Y-4221800D02*
X6380800Y-4261800D01*
X6380800Y-4425000D02*
X6420800Y-4465000D01*
X6420800Y-4425000D02*
X6380800Y-4465000D01*
X6482400Y-3078800D02*
X6522400Y-3118800D01*
X6522400Y-3078800D02*
X6482400Y-3118800D01*
X6584000Y-4221800D02*
X6624000Y-4261800D01*
X6624000Y-4221800D02*
X6584000Y-4261800D01*
X6584000Y-4425000D02*
X6624000Y-4465000D01*
X6624000Y-4425000D02*
X6584000Y-4465000D01*
X6584000Y-4612960D02*
X6624000Y-4652960D01*
X6624000Y-4612960D02*
X6584000Y-4652960D01*
X6609400Y-3129600D02*
X6649400Y-3169600D01*
X6649400Y-3129600D02*
X6609400Y-3169600D01*
X7041200Y-2926400D02*
X7081200Y-2966400D01*
X7081200Y-2926400D02*
X7041200Y-2966400D01*
X7041200Y-3104200D02*
X7081200Y-3144200D01*
X7081200Y-3104200D02*
X7041200Y-3144200D01*
X7142800Y-3028000D02*
X7182800Y-3068000D01*
X7182800Y-3028000D02*
X7142800Y-3068000D01*
X7142800Y-3180400D02*
X7182800Y-3220400D01*
X7182800Y-3180400D02*
X7142800Y-3220400D01*
X7142800Y-4348800D02*
X7182800Y-4388800D01*
X7182800Y-4348800D02*
X7142800Y-4388800D01*
X7142800Y-4501200D02*
X7182800Y-4541200D01*
X7182800Y-4501200D02*
X7142800Y-4541200D01*
X7295200Y-4348800D02*
X7335200Y-4388800D01*
X7335200Y-4348800D02*
X7295200Y-4388800D01*
X7295200Y-4501200D02*
X7335200Y-4541200D01*
X7335200Y-4501200D02*
X7295200Y-4541200D01*
X7498400Y-2774000D02*
X7538400Y-2814000D01*
X7538400Y-2774000D02*
X7498400Y-2814000D01*
X7670944Y-3493622D02*
X7710944Y-3533622D01*
X7710944Y-3493622D02*
X7670944Y-3533622D01*
X7676200Y-3393760D02*
X7716200Y-3433760D01*
X7716200Y-3393760D02*
X7676200Y-3433760D01*
X9124000Y-4679000D02*
X9164000Y-4719000D01*
X9164000Y-4679000D02*
X9124000Y-4719000D01*
X9130000Y-5314000D02*
X9170000Y-5354000D01*
X9170000Y-5314000D02*
X9130000Y-5354000D01*
X9149400Y-2926400D02*
X9189400Y-2966400D01*
X9189400Y-2926400D02*
X9149400Y-2966400D01*
X9149400Y-3104200D02*
X9189400Y-3144200D01*
X9189400Y-3104200D02*
X9149400Y-3144200D01*
X9149400Y-3790000D02*
X9189400Y-3830000D01*
X9189400Y-3790000D02*
X9149400Y-3830000D01*
X9251000Y-3002600D02*
X9291000Y-3042600D01*
X9291000Y-3002600D02*
X9251000Y-3042600D01*
X9251000Y-3180400D02*
X9291000Y-3220400D01*
X9291000Y-3180400D02*
X9251000Y-3220400D01*
X9251000Y-4425000D02*
X9291000Y-4465000D01*
X9291000Y-4425000D02*
X9251000Y-4465000D01*
X9479600Y-3688400D02*
X9519600Y-3728400D01*
X9519600Y-3688400D02*
X9479600Y-3728400D01*
X9708200Y-3276920D02*
X9748200Y-3316920D01*
X9748200Y-3276920D02*
X9708200Y-3316920D01*
X9733600Y-3002600D02*
X9773600Y-3042600D01*
X9773600Y-3002600D02*
X9733600Y-3042600D01*
X9759000Y-5679760D02*
X9799000Y-5719760D01*
X9799000Y-5679760D02*
X9759000Y-5719760D01*
X9822500Y-5377500D02*
X9862500Y-5417500D01*
X9862500Y-5377500D02*
X9822500Y-5417500D01*
X10058720Y-3810320D02*
X10098720Y-3850320D01*
X10098720Y-3810320D02*
X10058720Y-3850320D01*
X10272080Y-3820480D02*
X10312080Y-3860480D01*
X10312080Y-3820480D02*
X10272080Y-3860480D01*
X10495600Y-3830640D02*
X10535600Y-3870640D01*
X10535600Y-3830640D02*
X10495600Y-3870640D01*
X10825800Y-5745800D02*
X10865800Y-5785800D01*
X10865800Y-5745800D02*
X10825800Y-5785800D01*
X10965500Y-4552000D02*
X11005500Y-4592000D01*
X11005500Y-4552000D02*
X10965500Y-4592000D01*
X10978200Y-5745800D02*
X11018200Y-5785800D01*
X11018200Y-5745800D02*
X10978200Y-5785800D01*
X11054400Y-3332800D02*
X11094400Y-3372800D01*
X11094400Y-3332800D02*
X11054400Y-3372800D01*
X11054400Y-3459800D02*
X11094400Y-3499800D01*
X11094400Y-3459800D02*
X11054400Y-3499800D01*
X11054400Y-3586800D02*
X11094400Y-3626800D01*
X11094400Y-3586800D02*
X11054400Y-3626800D01*
X11130600Y-5745800D02*
X11170600Y-5785800D01*
X11170600Y-5745800D02*
X11130600Y-5785800D01*
X11283000Y-5745800D02*
X11323000Y-5785800D01*
X11323000Y-5745800D02*
X11283000Y-5785800D01*
X9620270Y-4897120D02*
G75*
G02*
X9540270Y-4897120I-40000J0D01*
G01*
X9540270Y-4897120D02*
G75*
G02*
X9620270Y-4897120I40000J0D01*
G01*
X9620270Y-5405120D02*
G75*
G02*
X9540270Y-5405120I-40000J0D01*
G01*
X9540270Y-5405120D02*
G75*
G02*
X9620270Y-5405120I40000J0D01*
G01*
X5005300Y-2998000D02*
X5005300Y-3098000D01*
X4955300Y-3048000D02*
X5055300Y-3048000D01*
X5080000Y-5995200D02*
X5080000Y-6095200D01*
X5030000Y-6045200D02*
X5130000Y-6045200D01*
X5135880Y-3693960D02*
X5135880Y-3793960D01*
X5085880Y-3743960D02*
X5185880Y-3743960D01*
X5135880Y-5217960D02*
X5135880Y-5317960D01*
X5085880Y-5267960D02*
X5185880Y-5267960D01*
X5259300Y-2998000D02*
X5259300Y-3098000D01*
X5209300Y-3048000D02*
X5309300Y-3048000D01*
X5334000Y-5995200D02*
X5334000Y-6095200D01*
X5284000Y-6045200D02*
X5384000Y-6045200D01*
X5389880Y-3693960D02*
X5389880Y-3793960D01*
X5339880Y-3743960D02*
X5439880Y-3743960D01*
X5389880Y-5217960D02*
X5389880Y-5317960D01*
X5339880Y-5267960D02*
X5439880Y-5267960D01*
X5513300Y-2998000D02*
X5513300Y-3098000D01*
X5463300Y-3048000D02*
X5563300Y-3048000D01*
X5588000Y-5995200D02*
X5588000Y-6095200D01*
X5538000Y-6045200D02*
X5638000Y-6045200D01*
X5643880Y-3693960D02*
X5643880Y-3793960D01*
X5593880Y-3743960D02*
X5693880Y-3743960D01*
X5643880Y-5217960D02*
X5643880Y-5317960D01*
X5593880Y-5267960D02*
X5693880Y-5267960D01*
X5897880Y-3693960D02*
X5897880Y-3793960D01*
X5847880Y-3743960D02*
X5947880Y-3743960D01*
X5897880Y-5217960D02*
X5897880Y-5317960D01*
X5847880Y-5267960D02*
X5947880Y-5267960D01*
X5994400Y-2998000D02*
X5994400Y-3098000D01*
X5944400Y-3048000D02*
X6044400Y-3048000D01*
X6151880Y-3693960D02*
X6151880Y-3793960D01*
X6101880Y-3743960D02*
X6201880Y-3743960D01*
X6151880Y-5217960D02*
X6151880Y-5317960D01*
X6101880Y-5267960D02*
X6201880Y-5267960D01*
X6248400Y-2998000D02*
X6248400Y-3098000D01*
X6198400Y-3048000D02*
X6298400Y-3048000D01*
X6248400Y-5995200D02*
X6248400Y-6095200D01*
X6198400Y-6045200D02*
X6298400Y-6045200D01*
X6405880Y-3693960D02*
X6405880Y-3793960D01*
X6355880Y-3743960D02*
X6455880Y-3743960D01*
X6405880Y-5217960D02*
X6405880Y-5317960D01*
X6355880Y-5267960D02*
X6455880Y-5267960D01*
X6502400Y-5995200D02*
X6502400Y-6095200D01*
X6452400Y-6045200D02*
X6552400Y-6045200D01*
X6659880Y-3693960D02*
X6659880Y-3793960D01*
X6609880Y-3743960D02*
X6709880Y-3743960D01*
X6659880Y-5217960D02*
X6659880Y-5317960D01*
X6609880Y-5267960D02*
X6709880Y-5267960D01*
X6756400Y-5995200D02*
X6756400Y-6095200D01*
X6706400Y-6045200D02*
X6806400Y-6045200D01*
X6913880Y-3693960D02*
X6913880Y-3793960D01*
X6863880Y-3743960D02*
X6963880Y-3743960D01*
X6913880Y-5217960D02*
X6913880Y-5317960D01*
X6863880Y-5267960D02*
X6963880Y-5267960D01*
X7167880Y-3693960D02*
X7167880Y-3793960D01*
X7117880Y-3743960D02*
X7217880Y-3743960D01*
X7167880Y-5217960D02*
X7167880Y-5317960D01*
X7117880Y-5267960D02*
X7217880Y-5267960D01*
X7421880Y-3693960D02*
X7421880Y-3793960D01*
X7371880Y-3743960D02*
X7471880Y-3743960D01*
X7421880Y-5217960D02*
X7421880Y-5317960D01*
X7371880Y-5267960D02*
X7471880Y-5267960D01*
X7442200Y-5995200D02*
X7442200Y-6095200D01*
X7392200Y-6045200D02*
X7492200Y-6045200D01*
X7675880Y-3693960D02*
X7675880Y-3793960D01*
X7625880Y-3743960D02*
X7725880Y-3743960D01*
X7675880Y-5217960D02*
X7675880Y-5317960D01*
X7625880Y-5267960D02*
X7725880Y-5267960D01*
X7696200Y-5995200D02*
X7696200Y-6095200D01*
X7646200Y-6045200D02*
X7746200Y-6045200D01*
X7929880Y-3693960D02*
X7929880Y-3793960D01*
X7879880Y-3743960D02*
X7979880Y-3743960D01*
X7929880Y-5217960D02*
X7929880Y-5317960D01*
X7879880Y-5267960D02*
X7979880Y-5267960D01*
X7950200Y-5995200D02*
X7950200Y-6095200D01*
X7900200Y-6045200D02*
X8000200Y-6045200D01*
X8183880Y-3693960D02*
X8183880Y-3793960D01*
X8133880Y-3743960D02*
X8233880Y-3743960D01*
X8183880Y-5217960D02*
X8183880Y-5317960D01*
X8133880Y-5267960D02*
X8233880Y-5267960D01*
X8437880Y-3693960D02*
X8437880Y-3793960D01*
X8387880Y-3743960D02*
X8487880Y-3743960D01*
X8437880Y-5217960D02*
X8437880Y-5317960D01*
X8387880Y-5267960D02*
X8487880Y-5267960D01*
X8585200Y-5995200D02*
X8585200Y-6095200D01*
X8535200Y-6045200D02*
X8635200Y-6045200D01*
X8691880Y-3693960D02*
X8691880Y-3793960D01*
X8641880Y-3743960D02*
X8741880Y-3743960D01*
X8691880Y-5217960D02*
X8691880Y-5317960D01*
X8641880Y-5267960D02*
X8741880Y-5267960D01*
X8839200Y-5995200D02*
X8839200Y-6095200D01*
X8789200Y-6045200D02*
X8889200Y-6045200D01*
X9093200Y-5995200D02*
X9093200Y-6095200D01*
X9043200Y-6045200D02*
X9143200Y-6045200D01*
X9755100Y-5995200D02*
X9755100Y-6095200D01*
X9705100Y-6045200D02*
X9805100Y-6045200D01*
X10009100Y-5995200D02*
X10009100Y-6095200D01*
X9959100Y-6045200D02*
X10059100Y-6045200D01*
X10033000Y-2998000D02*
X10033000Y-3098000D01*
X9983000Y-3048000D02*
X10083000Y-3048000D01*
X10263100Y-5995200D02*
X10263100Y-6095200D01*
X10213100Y-6045200D02*
X10313100Y-6045200D01*
X10287000Y-2998000D02*
X10287000Y-3098000D01*
X10237000Y-3048000D02*
X10337000Y-3048000D01*
X10818900Y-2998000D02*
X10818900Y-3098000D01*
X10768900Y-3048000D02*
X10868900Y-3048000D01*
X11072900Y-2998000D02*
X11072900Y-3098000D01*
X11022900Y-3048000D02*
X11122900Y-3048000D01*
X11326900Y-2998000D02*
X11326900Y-3098000D01*
X11276900Y-3048000D02*
X11376900Y-3048000D01*
X11622555Y-4776000D02*
X11622555Y-4876000D01*
X11572555Y-4826000D02*
X11672555Y-4826000D01*
X11622555Y-5030000D02*
X11622555Y-5130000D01*
X11572555Y-5080000D02*
X11672555Y-5080000D01*
X11622555Y-5284000D02*
X11622555Y-5384000D01*
X11572555Y-5334000D02*
X11672555Y-5334000D01*
D12*
X11583449Y-3735376D02*
X11583449Y-3544456D01*
X11392529Y-3544456D01*
X11392529Y-3735376D01*
X11583449Y-3735376D01*
X11583449Y-4235377D02*
X11583449Y-4044456D01*
X11392529Y-4044456D01*
X11392529Y-4235377D01*
X11583449Y-4235377D01*
D11*
X4440427Y-6602984D02*
X4440427Y-6402984D01*
X4440427Y-6402984D02*
X4488046Y-6402984D01*
X4488046Y-6402984D02*
X4516617Y-6412508D01*
X4516617Y-6412508D02*
X4535665Y-6431555D01*
X4535665Y-6431555D02*
X4545189Y-6450603D01*
X4545189Y-6450603D02*
X4554713Y-6488698D01*
X4554713Y-6488698D02*
X4554713Y-6517269D01*
X4554713Y-6517269D02*
X4545189Y-6555365D01*
X4545189Y-6555365D02*
X4535665Y-6574412D01*
X4535665Y-6574412D02*
X4516617Y-6593460D01*
X4516617Y-6593460D02*
X4488046Y-6602984D01*
X4488046Y-6602984D02*
X4440427Y-6602984D01*
X4640427Y-6602984D02*
X4640427Y-6469650D01*
X4640427Y-6507746D02*
X4649951Y-6488698D01*
X4649951Y-6488698D02*
X4659474Y-6479174D01*
X4659474Y-6479174D02*
X4678522Y-6469650D01*
X4678522Y-6469650D02*
X4697570Y-6469650D01*
X4764236Y-6602984D02*
X4764236Y-6469650D01*
X4764236Y-6402984D02*
X4754713Y-6412508D01*
X4754713Y-6412508D02*
X4764236Y-6422031D01*
X4764236Y-6422031D02*
X4773760Y-6412508D01*
X4773760Y-6412508D02*
X4764236Y-6402984D01*
X4764236Y-6402984D02*
X4764236Y-6422031D01*
X4888046Y-6602984D02*
X4868998Y-6593460D01*
X4868998Y-6593460D02*
X4859474Y-6574412D01*
X4859474Y-6574412D02*
X4859474Y-6402984D01*
X4992808Y-6602984D02*
X4973760Y-6593460D01*
X4973760Y-6593460D02*
X4964236Y-6574412D01*
X4964236Y-6574412D02*
X4964236Y-6402984D01*
X5221379Y-6602984D02*
X5221379Y-6402984D01*
X5221379Y-6402984D02*
X5288046Y-6545841D01*
X5288046Y-6545841D02*
X5354713Y-6402984D01*
X5354713Y-6402984D02*
X5354713Y-6602984D01*
X5535665Y-6602984D02*
X5535665Y-6498222D01*
X5535665Y-6498222D02*
X5526141Y-6479174D01*
X5526141Y-6479174D02*
X5507094Y-6469650D01*
X5507094Y-6469650D02*
X5468998Y-6469650D01*
X5468998Y-6469650D02*
X5449951Y-6479174D01*
X5535665Y-6593460D02*
X5516617Y-6602984D01*
X5516617Y-6602984D02*
X5468998Y-6602984D01*
X5468998Y-6602984D02*
X5449951Y-6593460D01*
X5449951Y-6593460D02*
X5440427Y-6574412D01*
X5440427Y-6574412D02*
X5440427Y-6555365D01*
X5440427Y-6555365D02*
X5449951Y-6536317D01*
X5449951Y-6536317D02*
X5468998Y-6526793D01*
X5468998Y-6526793D02*
X5516617Y-6526793D01*
X5516617Y-6526793D02*
X5535665Y-6517269D01*
X5630903Y-6469650D02*
X5630903Y-6669650D01*
X5630903Y-6479174D02*
X5649951Y-6469650D01*
X5649951Y-6469650D02*
X5688046Y-6469650D01*
X5688046Y-6469650D02*
X5707093Y-6479174D01*
X5707093Y-6479174D02*
X5716617Y-6488698D01*
X5716617Y-6488698D02*
X5726141Y-6507746D01*
X5726141Y-6507746D02*
X5726141Y-6564888D01*
X5726141Y-6564888D02*
X5716617Y-6583936D01*
X5716617Y-6583936D02*
X5707093Y-6593460D01*
X5707093Y-6593460D02*
X5688046Y-6602984D01*
X5688046Y-6602984D02*
X5649951Y-6602984D01*
X5649951Y-6602984D02*
X5630903Y-6593460D01*
X5811855Y-6583936D02*
X5821379Y-6593460D01*
X5821379Y-6593460D02*
X5811855Y-6602984D01*
X5811855Y-6602984D02*
X5802332Y-6593460D01*
X5802332Y-6593460D02*
X5811855Y-6583936D01*
X5811855Y-6583936D02*
X5811855Y-6602984D01*
X5811855Y-6479174D02*
X5821379Y-6488698D01*
X5821379Y-6488698D02*
X5811855Y-6498222D01*
X5811855Y-6498222D02*
X5802332Y-6488698D01*
X5802332Y-6488698D02*
X5811855Y-6479174D01*
X5811855Y-6479174D02*
X5811855Y-6498222D01*
D10*
X4139650Y-6911500D02*
X4179650Y-6951500D01*
X4179650Y-6911500D02*
X4139650Y-6951500D01*
D11*
X4478522Y-6822984D02*
X4497570Y-6822984D01*
X4497570Y-6822984D02*
X4516617Y-6832508D01*
X4516617Y-6832508D02*
X4526141Y-6842031D01*
X4526141Y-6842031D02*
X4535665Y-6861079D01*
X4535665Y-6861079D02*
X4545189Y-6899174D01*
X4545189Y-6899174D02*
X4545189Y-6946793D01*
X4545189Y-6946793D02*
X4535665Y-6984888D01*
X4535665Y-6984888D02*
X4526141Y-7003936D01*
X4526141Y-7003936D02*
X4516617Y-7013460D01*
X4516617Y-7013460D02*
X4497570Y-7022984D01*
X4497570Y-7022984D02*
X4478522Y-7022984D01*
X4478522Y-7022984D02*
X4459474Y-7013460D01*
X4459474Y-7013460D02*
X4449951Y-7003936D01*
X4449951Y-7003936D02*
X4440427Y-6984888D01*
X4440427Y-6984888D02*
X4430903Y-6946793D01*
X4430903Y-6946793D02*
X4430903Y-6899174D01*
X4430903Y-6899174D02*
X4440427Y-6861079D01*
X4440427Y-6861079D02*
X4449951Y-6842031D01*
X4449951Y-6842031D02*
X4459474Y-6832508D01*
X4459474Y-6832508D02*
X4478522Y-6822984D01*
X4630903Y-7003936D02*
X4640427Y-7013460D01*
X4640427Y-7013460D02*
X4630903Y-7022984D01*
X4630903Y-7022984D02*
X4621379Y-7013460D01*
X4621379Y-7013460D02*
X4630903Y-7003936D01*
X4630903Y-7003936D02*
X4630903Y-7022984D01*
X4811855Y-6889650D02*
X4811855Y-7022984D01*
X4764236Y-6813460D02*
X4716617Y-6956317D01*
X4716617Y-6956317D02*
X4840427Y-6956317D01*
X4954713Y-6822984D02*
X4973760Y-6822984D01*
X4973760Y-6822984D02*
X4992808Y-6832508D01*
X4992808Y-6832508D02*
X5002332Y-6842031D01*
X5002332Y-6842031D02*
X5011855Y-6861079D01*
X5011855Y-6861079D02*
X5021379Y-6899174D01*
X5021379Y-6899174D02*
X5021379Y-6946793D01*
X5021379Y-6946793D02*
X5011855Y-6984888D01*
X5011855Y-6984888D02*
X5002332Y-7003936D01*
X5002332Y-7003936D02*
X4992808Y-7013460D01*
X4992808Y-7013460D02*
X4973760Y-7022984D01*
X4973760Y-7022984D02*
X4954713Y-7022984D01*
X4954713Y-7022984D02*
X4935665Y-7013460D01*
X4935665Y-7013460D02*
X4926141Y-7003936D01*
X4926141Y-7003936D02*
X4916617Y-6984888D01*
X4916617Y-6984888D02*
X4907094Y-6946793D01*
X4907094Y-6946793D02*
X4907094Y-6899174D01*
X4907094Y-6899174D02*
X4916617Y-6861079D01*
X4916617Y-6861079D02*
X4926141Y-6842031D01*
X4926141Y-6842031D02*
X4935665Y-6832508D01*
X4935665Y-6832508D02*
X4954713Y-6822984D01*
X5145189Y-6822984D02*
X5164236Y-6822984D01*
X5164236Y-6822984D02*
X5183284Y-6832508D01*
X5183284Y-6832508D02*
X5192808Y-6842031D01*
X5192808Y-6842031D02*
X5202332Y-6861079D01*
X5202332Y-6861079D02*
X5211855Y-6899174D01*
X5211855Y-6899174D02*
X5211855Y-6946793D01*
X5211855Y-6946793D02*
X5202332Y-6984888D01*
X5202332Y-6984888D02*
X5192808Y-7003936D01*
X5192808Y-7003936D02*
X5183284Y-7013460D01*
X5183284Y-7013460D02*
X5164236Y-7022984D01*
X5164236Y-7022984D02*
X5145189Y-7022984D01*
X5145189Y-7022984D02*
X5126141Y-7013460D01*
X5126141Y-7013460D02*
X5116617Y-7003936D01*
X5116617Y-7003936D02*
X5107094Y-6984888D01*
X5107094Y-6984888D02*
X5097570Y-6946793D01*
X5097570Y-6946793D02*
X5097570Y-6899174D01*
X5097570Y-6899174D02*
X5107094Y-6861079D01*
X5107094Y-6861079D02*
X5116617Y-6842031D01*
X5116617Y-6842031D02*
X5126141Y-6832508D01*
X5126141Y-6832508D02*
X5145189Y-6822984D01*
X5297570Y-7022984D02*
X5297570Y-6889650D01*
X5297570Y-6908698D02*
X5307094Y-6899174D01*
X5307094Y-6899174D02*
X5326141Y-6889650D01*
X5326141Y-6889650D02*
X5354713Y-6889650D01*
X5354713Y-6889650D02*
X5373760Y-6899174D01*
X5373760Y-6899174D02*
X5383284Y-6918222D01*
X5383284Y-6918222D02*
X5383284Y-7022984D01*
X5383284Y-6918222D02*
X5392808Y-6899174D01*
X5392808Y-6899174D02*
X5411855Y-6889650D01*
X5411855Y-6889650D02*
X5440427Y-6889650D01*
X5440427Y-6889650D02*
X5459475Y-6899174D01*
X5459475Y-6899174D02*
X5468998Y-6918222D01*
X5468998Y-6918222D02*
X5468998Y-7022984D01*
X5564236Y-7022984D02*
X5564236Y-6889650D01*
X5564236Y-6908698D02*
X5573760Y-6899174D01*
X5573760Y-6899174D02*
X5592808Y-6889650D01*
X5592808Y-6889650D02*
X5621379Y-6889650D01*
X5621379Y-6889650D02*
X5640427Y-6899174D01*
X5640427Y-6899174D02*
X5649951Y-6918222D01*
X5649951Y-6918222D02*
X5649951Y-7022984D01*
X5649951Y-6918222D02*
X5659474Y-6899174D01*
X5659474Y-6899174D02*
X5678522Y-6889650D01*
X5678522Y-6889650D02*
X5707093Y-6889650D01*
X5707093Y-6889650D02*
X5726141Y-6899174D01*
X5726141Y-6899174D02*
X5735665Y-6918222D01*
X5735665Y-6918222D02*
X5735665Y-7022984D01*
X6126141Y-6813460D02*
X5954713Y-7070603D01*
X6383284Y-6822984D02*
X6402332Y-6822984D01*
X6402332Y-6822984D02*
X6421379Y-6832508D01*
X6421379Y-6832508D02*
X6430903Y-6842031D01*
X6430903Y-6842031D02*
X6440427Y-6861079D01*
X6440427Y-6861079D02*
X6449951Y-6899174D01*
X6449951Y-6899174D02*
X6449951Y-6946793D01*
X6449951Y-6946793D02*
X6440427Y-6984888D01*
X6440427Y-6984888D02*
X6430903Y-7003936D01*
X6430903Y-7003936D02*
X6421379Y-7013460D01*
X6421379Y-7013460D02*
X6402332Y-7022984D01*
X6402332Y-7022984D02*
X6383284Y-7022984D01*
X6383284Y-7022984D02*
X6364236Y-7013460D01*
X6364236Y-7013460D02*
X6354713Y-7003936D01*
X6354713Y-7003936D02*
X6345189Y-6984888D01*
X6345189Y-6984888D02*
X6335665Y-6946793D01*
X6335665Y-6946793D02*
X6335665Y-6899174D01*
X6335665Y-6899174D02*
X6345189Y-6861079D01*
X6345189Y-6861079D02*
X6354713Y-6842031D01*
X6354713Y-6842031D02*
X6364236Y-6832508D01*
X6364236Y-6832508D02*
X6383284Y-6822984D01*
X6535665Y-7003936D02*
X6545189Y-7013460D01*
X6545189Y-7013460D02*
X6535665Y-7022984D01*
X6535665Y-7022984D02*
X6526141Y-7013460D01*
X6526141Y-7013460D02*
X6535665Y-7003936D01*
X6535665Y-7003936D02*
X6535665Y-7022984D01*
X6668998Y-6822984D02*
X6688046Y-6822984D01*
X6688046Y-6822984D02*
X6707094Y-6832508D01*
X6707094Y-6832508D02*
X6716617Y-6842031D01*
X6716617Y-6842031D02*
X6726141Y-6861079D01*
X6726141Y-6861079D02*
X6735665Y-6899174D01*
X6735665Y-6899174D02*
X6735665Y-6946793D01*
X6735665Y-6946793D02*
X6726141Y-6984888D01*
X6726141Y-6984888D02*
X6716617Y-7003936D01*
X6716617Y-7003936D02*
X6707094Y-7013460D01*
X6707094Y-7013460D02*
X6688046Y-7022984D01*
X6688046Y-7022984D02*
X6668998Y-7022984D01*
X6668998Y-7022984D02*
X6649951Y-7013460D01*
X6649951Y-7013460D02*
X6640427Y-7003936D01*
X6640427Y-7003936D02*
X6630903Y-6984888D01*
X6630903Y-6984888D02*
X6621379Y-6946793D01*
X6621379Y-6946793D02*
X6621379Y-6899174D01*
X6621379Y-6899174D02*
X6630903Y-6861079D01*
X6630903Y-6861079D02*
X6640427Y-6842031D01*
X6640427Y-6842031D02*
X6649951Y-6832508D01*
X6649951Y-6832508D02*
X6668998Y-6822984D01*
X6926141Y-7022984D02*
X6811856Y-7022984D01*
X6868998Y-7022984D02*
X6868998Y-6822984D01*
X6868998Y-6822984D02*
X6849951Y-6851555D01*
X6849951Y-6851555D02*
X6830903Y-6870603D01*
X6830903Y-6870603D02*
X6811856Y-6880127D01*
X7107094Y-6822984D02*
X7011856Y-6822984D01*
X7011856Y-6822984D02*
X7002332Y-6918222D01*
X7002332Y-6918222D02*
X7011856Y-6908698D01*
X7011856Y-6908698D02*
X7030903Y-6899174D01*
X7030903Y-6899174D02*
X7078522Y-6899174D01*
X7078522Y-6899174D02*
X7097570Y-6908698D01*
X7097570Y-6908698D02*
X7107094Y-6918222D01*
X7107094Y-6918222D02*
X7116617Y-6937269D01*
X7116617Y-6937269D02*
X7116617Y-6984888D01*
X7116617Y-6984888D02*
X7107094Y-7003936D01*
X7107094Y-7003936D02*
X7097570Y-7013460D01*
X7097570Y-7013460D02*
X7078522Y-7022984D01*
X7078522Y-7022984D02*
X7030903Y-7022984D01*
X7030903Y-7022984D02*
X7011856Y-7013460D01*
X7011856Y-7013460D02*
X7002332Y-7003936D01*
X7183284Y-6822984D02*
X7316617Y-6822984D01*
X7316617Y-6822984D02*
X7230903Y-7022984D01*
X7383284Y-6822984D02*
X7383284Y-6861079D01*
X7459475Y-6822984D02*
X7459475Y-6861079D01*
X7754713Y-7099174D02*
X7745189Y-7089650D01*
X7745189Y-7089650D02*
X7726141Y-7061079D01*
X7726141Y-7061079D02*
X7716618Y-7042031D01*
X7716618Y-7042031D02*
X7707094Y-7013460D01*
X7707094Y-7013460D02*
X7697570Y-6965841D01*
X7697570Y-6965841D02*
X7697570Y-6927746D01*
X7697570Y-6927746D02*
X7707094Y-6880127D01*
X7707094Y-6880127D02*
X7716618Y-6851555D01*
X7716618Y-6851555D02*
X7726141Y-6832508D01*
X7726141Y-6832508D02*
X7745189Y-6803936D01*
X7745189Y-6803936D02*
X7754713Y-6794412D01*
X7916618Y-6889650D02*
X7916618Y-7022984D01*
X7868998Y-6813460D02*
X7821379Y-6956317D01*
X7821379Y-6956317D02*
X7945189Y-6956317D01*
X8049951Y-6908698D02*
X8030903Y-6899174D01*
X8030903Y-6899174D02*
X8021379Y-6889650D01*
X8021379Y-6889650D02*
X8011856Y-6870603D01*
X8011856Y-6870603D02*
X8011856Y-6861079D01*
X8011856Y-6861079D02*
X8021379Y-6842031D01*
X8021379Y-6842031D02*
X8030903Y-6832508D01*
X8030903Y-6832508D02*
X8049951Y-6822984D01*
X8049951Y-6822984D02*
X8088046Y-6822984D01*
X8088046Y-6822984D02*
X8107094Y-6832508D01*
X8107094Y-6832508D02*
X8116618Y-6842031D01*
X8116618Y-6842031D02*
X8126141Y-6861079D01*
X8126141Y-6861079D02*
X8126141Y-6870603D01*
X8126141Y-6870603D02*
X8116618Y-6889650D01*
X8116618Y-6889650D02*
X8107094Y-6899174D01*
X8107094Y-6899174D02*
X8088046Y-6908698D01*
X8088046Y-6908698D02*
X8049951Y-6908698D01*
X8049951Y-6908698D02*
X8030903Y-6918222D01*
X8030903Y-6918222D02*
X8021379Y-6927746D01*
X8021379Y-6927746D02*
X8011856Y-6946793D01*
X8011856Y-6946793D02*
X8011856Y-6984888D01*
X8011856Y-6984888D02*
X8021379Y-7003936D01*
X8021379Y-7003936D02*
X8030903Y-7013460D01*
X8030903Y-7013460D02*
X8049951Y-7022984D01*
X8049951Y-7022984D02*
X8088046Y-7022984D01*
X8088046Y-7022984D02*
X8107094Y-7013460D01*
X8107094Y-7013460D02*
X8116618Y-7003936D01*
X8116618Y-7003936D02*
X8126141Y-6984888D01*
X8126141Y-6984888D02*
X8126141Y-6946793D01*
X8126141Y-6946793D02*
X8116618Y-6927746D01*
X8116618Y-6927746D02*
X8107094Y-6918222D01*
X8107094Y-6918222D02*
X8088046Y-6908698D01*
X8364237Y-7022984D02*
X8364237Y-6822984D01*
X8449951Y-7022984D02*
X8449951Y-6918222D01*
X8449951Y-6918222D02*
X8440427Y-6899174D01*
X8440427Y-6899174D02*
X8421380Y-6889650D01*
X8421380Y-6889650D02*
X8392808Y-6889650D01*
X8392808Y-6889650D02*
X8373760Y-6899174D01*
X8373760Y-6899174D02*
X8364237Y-6908698D01*
X8573761Y-7022984D02*
X8554713Y-7013460D01*
X8554713Y-7013460D02*
X8545189Y-7003936D01*
X8545189Y-7003936D02*
X8535665Y-6984888D01*
X8535665Y-6984888D02*
X8535665Y-6927746D01*
X8535665Y-6927746D02*
X8545189Y-6908698D01*
X8545189Y-6908698D02*
X8554713Y-6899174D01*
X8554713Y-6899174D02*
X8573761Y-6889650D01*
X8573761Y-6889650D02*
X8602332Y-6889650D01*
X8602332Y-6889650D02*
X8621380Y-6899174D01*
X8621380Y-6899174D02*
X8630903Y-6908698D01*
X8630903Y-6908698D02*
X8640427Y-6927746D01*
X8640427Y-6927746D02*
X8640427Y-6984888D01*
X8640427Y-6984888D02*
X8630903Y-7003936D01*
X8630903Y-7003936D02*
X8621380Y-7013460D01*
X8621380Y-7013460D02*
X8602332Y-7022984D01*
X8602332Y-7022984D02*
X8573761Y-7022984D01*
X8754713Y-7022984D02*
X8735665Y-7013460D01*
X8735665Y-7013460D02*
X8726142Y-6994412D01*
X8726142Y-6994412D02*
X8726142Y-6822984D01*
X8907094Y-7013460D02*
X8888046Y-7022984D01*
X8888046Y-7022984D02*
X8849951Y-7022984D01*
X8849951Y-7022984D02*
X8830903Y-7013460D01*
X8830903Y-7013460D02*
X8821380Y-6994412D01*
X8821380Y-6994412D02*
X8821380Y-6918222D01*
X8821380Y-6918222D02*
X8830903Y-6899174D01*
X8830903Y-6899174D02*
X8849951Y-6889650D01*
X8849951Y-6889650D02*
X8888046Y-6889650D01*
X8888046Y-6889650D02*
X8907094Y-6899174D01*
X8907094Y-6899174D02*
X8916618Y-6918222D01*
X8916618Y-6918222D02*
X8916618Y-6937269D01*
X8916618Y-6937269D02*
X8821380Y-6956317D01*
X8992808Y-7013460D02*
X9011856Y-7022984D01*
X9011856Y-7022984D02*
X9049951Y-7022984D01*
X9049951Y-7022984D02*
X9068999Y-7013460D01*
X9068999Y-7013460D02*
X9078523Y-6994412D01*
X9078523Y-6994412D02*
X9078523Y-6984888D01*
X9078523Y-6984888D02*
X9068999Y-6965841D01*
X9068999Y-6965841D02*
X9049951Y-6956317D01*
X9049951Y-6956317D02*
X9021380Y-6956317D01*
X9021380Y-6956317D02*
X9002332Y-6946793D01*
X9002332Y-6946793D02*
X8992808Y-6927746D01*
X8992808Y-6927746D02*
X8992808Y-6918222D01*
X8992808Y-6918222D02*
X9002332Y-6899174D01*
X9002332Y-6899174D02*
X9021380Y-6889650D01*
X9021380Y-6889650D02*
X9049951Y-6889650D01*
X9049951Y-6889650D02*
X9068999Y-6899174D01*
X9145189Y-7099174D02*
X9154713Y-7089650D01*
X9154713Y-7089650D02*
X9173761Y-7061079D01*
X9173761Y-7061079D02*
X9183284Y-7042031D01*
X9183284Y-7042031D02*
X9192808Y-7013460D01*
X9192808Y-7013460D02*
X9202332Y-6965841D01*
X9202332Y-6965841D02*
X9202332Y-6927746D01*
X9202332Y-6927746D02*
X9192808Y-6880127D01*
X9192808Y-6880127D02*
X9183284Y-6851555D01*
X9183284Y-6851555D02*
X9173761Y-6832508D01*
X9173761Y-6832508D02*
X9154713Y-6803936D01*
X9154713Y-6803936D02*
X9145189Y-6794412D01*
D10*
X4179650Y-7195500D02*
G75*
G02*
X4099650Y-7195500I-40000J0D01*
G01*
X4099650Y-7195500D02*
G75*
G02*
X4179650Y-7195500I40000J0D01*
G01*
D11*
X4478522Y-7086984D02*
X4497570Y-7086984D01*
X4497570Y-7086984D02*
X4516617Y-7096508D01*
X4516617Y-7096508D02*
X4526141Y-7106031D01*
X4526141Y-7106031D02*
X4535665Y-7125079D01*
X4535665Y-7125079D02*
X4545189Y-7163174D01*
X4545189Y-7163174D02*
X4545189Y-7210793D01*
X4545189Y-7210793D02*
X4535665Y-7248888D01*
X4535665Y-7248888D02*
X4526141Y-7267936D01*
X4526141Y-7267936D02*
X4516617Y-7277460D01*
X4516617Y-7277460D02*
X4497570Y-7286984D01*
X4497570Y-7286984D02*
X4478522Y-7286984D01*
X4478522Y-7286984D02*
X4459474Y-7277460D01*
X4459474Y-7277460D02*
X4449951Y-7267936D01*
X4449951Y-7267936D02*
X4440427Y-7248888D01*
X4440427Y-7248888D02*
X4430903Y-7210793D01*
X4430903Y-7210793D02*
X4430903Y-7163174D01*
X4430903Y-7163174D02*
X4440427Y-7125079D01*
X4440427Y-7125079D02*
X4449951Y-7106031D01*
X4449951Y-7106031D02*
X4459474Y-7096508D01*
X4459474Y-7096508D02*
X4478522Y-7086984D01*
X4630903Y-7267936D02*
X4640427Y-7277460D01*
X4640427Y-7277460D02*
X4630903Y-7286984D01*
X4630903Y-7286984D02*
X4621379Y-7277460D01*
X4621379Y-7277460D02*
X4630903Y-7267936D01*
X4630903Y-7267936D02*
X4630903Y-7286984D01*
X4754713Y-7172698D02*
X4735665Y-7163174D01*
X4735665Y-7163174D02*
X4726141Y-7153650D01*
X4726141Y-7153650D02*
X4716617Y-7134603D01*
X4716617Y-7134603D02*
X4716617Y-7125079D01*
X4716617Y-7125079D02*
X4726141Y-7106031D01*
X4726141Y-7106031D02*
X4735665Y-7096508D01*
X4735665Y-7096508D02*
X4754713Y-7086984D01*
X4754713Y-7086984D02*
X4792808Y-7086984D01*
X4792808Y-7086984D02*
X4811855Y-7096508D01*
X4811855Y-7096508D02*
X4821379Y-7106031D01*
X4821379Y-7106031D02*
X4830903Y-7125079D01*
X4830903Y-7125079D02*
X4830903Y-7134603D01*
X4830903Y-7134603D02*
X4821379Y-7153650D01*
X4821379Y-7153650D02*
X4811855Y-7163174D01*
X4811855Y-7163174D02*
X4792808Y-7172698D01*
X4792808Y-7172698D02*
X4754713Y-7172698D01*
X4754713Y-7172698D02*
X4735665Y-7182222D01*
X4735665Y-7182222D02*
X4726141Y-7191746D01*
X4726141Y-7191746D02*
X4716617Y-7210793D01*
X4716617Y-7210793D02*
X4716617Y-7248888D01*
X4716617Y-7248888D02*
X4726141Y-7267936D01*
X4726141Y-7267936D02*
X4735665Y-7277460D01*
X4735665Y-7277460D02*
X4754713Y-7286984D01*
X4754713Y-7286984D02*
X4792808Y-7286984D01*
X4792808Y-7286984D02*
X4811855Y-7277460D01*
X4811855Y-7277460D02*
X4821379Y-7267936D01*
X4821379Y-7267936D02*
X4830903Y-7248888D01*
X4830903Y-7248888D02*
X4830903Y-7210793D01*
X4830903Y-7210793D02*
X4821379Y-7191746D01*
X4821379Y-7191746D02*
X4811855Y-7182222D01*
X4811855Y-7182222D02*
X4792808Y-7172698D01*
X4954713Y-7086984D02*
X4973760Y-7086984D01*
X4973760Y-7086984D02*
X4992808Y-7096508D01*
X4992808Y-7096508D02*
X5002332Y-7106031D01*
X5002332Y-7106031D02*
X5011855Y-7125079D01*
X5011855Y-7125079D02*
X5021379Y-7163174D01*
X5021379Y-7163174D02*
X5021379Y-7210793D01*
X5021379Y-7210793D02*
X5011855Y-7248888D01*
X5011855Y-7248888D02*
X5002332Y-7267936D01*
X5002332Y-7267936D02*
X4992808Y-7277460D01*
X4992808Y-7277460D02*
X4973760Y-7286984D01*
X4973760Y-7286984D02*
X4954713Y-7286984D01*
X4954713Y-7286984D02*
X4935665Y-7277460D01*
X4935665Y-7277460D02*
X4926141Y-7267936D01*
X4926141Y-7267936D02*
X4916617Y-7248888D01*
X4916617Y-7248888D02*
X4907094Y-7210793D01*
X4907094Y-7210793D02*
X4907094Y-7163174D01*
X4907094Y-7163174D02*
X4916617Y-7125079D01*
X4916617Y-7125079D02*
X4926141Y-7106031D01*
X4926141Y-7106031D02*
X4935665Y-7096508D01*
X4935665Y-7096508D02*
X4954713Y-7086984D01*
X5145189Y-7086984D02*
X5164236Y-7086984D01*
X5164236Y-7086984D02*
X5183284Y-7096508D01*
X5183284Y-7096508D02*
X5192808Y-7106031D01*
X5192808Y-7106031D02*
X5202332Y-7125079D01*
X5202332Y-7125079D02*
X5211855Y-7163174D01*
X5211855Y-7163174D02*
X5211855Y-7210793D01*
X5211855Y-7210793D02*
X5202332Y-7248888D01*
X5202332Y-7248888D02*
X5192808Y-7267936D01*
X5192808Y-7267936D02*
X5183284Y-7277460D01*
X5183284Y-7277460D02*
X5164236Y-7286984D01*
X5164236Y-7286984D02*
X5145189Y-7286984D01*
X5145189Y-7286984D02*
X5126141Y-7277460D01*
X5126141Y-7277460D02*
X5116617Y-7267936D01*
X5116617Y-7267936D02*
X5107094Y-7248888D01*
X5107094Y-7248888D02*
X5097570Y-7210793D01*
X5097570Y-7210793D02*
X5097570Y-7163174D01*
X5097570Y-7163174D02*
X5107094Y-7125079D01*
X5107094Y-7125079D02*
X5116617Y-7106031D01*
X5116617Y-7106031D02*
X5126141Y-7096508D01*
X5126141Y-7096508D02*
X5145189Y-7086984D01*
X5297570Y-7286984D02*
X5297570Y-7153650D01*
X5297570Y-7172698D02*
X5307094Y-7163174D01*
X5307094Y-7163174D02*
X5326141Y-7153650D01*
X5326141Y-7153650D02*
X5354713Y-7153650D01*
X5354713Y-7153650D02*
X5373760Y-7163174D01*
X5373760Y-7163174D02*
X5383284Y-7182222D01*
X5383284Y-7182222D02*
X5383284Y-7286984D01*
X5383284Y-7182222D02*
X5392808Y-7163174D01*
X5392808Y-7163174D02*
X5411855Y-7153650D01*
X5411855Y-7153650D02*
X5440427Y-7153650D01*
X5440427Y-7153650D02*
X5459475Y-7163174D01*
X5459475Y-7163174D02*
X5468998Y-7182222D01*
X5468998Y-7182222D02*
X5468998Y-7286984D01*
X5564236Y-7286984D02*
X5564236Y-7153650D01*
X5564236Y-7172698D02*
X5573760Y-7163174D01*
X5573760Y-7163174D02*
X5592808Y-7153650D01*
X5592808Y-7153650D02*
X5621379Y-7153650D01*
X5621379Y-7153650D02*
X5640427Y-7163174D01*
X5640427Y-7163174D02*
X5649951Y-7182222D01*
X5649951Y-7182222D02*
X5649951Y-7286984D01*
X5649951Y-7182222D02*
X5659474Y-7163174D01*
X5659474Y-7163174D02*
X5678522Y-7153650D01*
X5678522Y-7153650D02*
X5707093Y-7153650D01*
X5707093Y-7153650D02*
X5726141Y-7163174D01*
X5726141Y-7163174D02*
X5735665Y-7182222D01*
X5735665Y-7182222D02*
X5735665Y-7286984D01*
X6126141Y-7077460D02*
X5954713Y-7334603D01*
X6383284Y-7086984D02*
X6402332Y-7086984D01*
X6402332Y-7086984D02*
X6421379Y-7096508D01*
X6421379Y-7096508D02*
X6430903Y-7106031D01*
X6430903Y-7106031D02*
X6440427Y-7125079D01*
X6440427Y-7125079D02*
X6449951Y-7163174D01*
X6449951Y-7163174D02*
X6449951Y-7210793D01*
X6449951Y-7210793D02*
X6440427Y-7248888D01*
X6440427Y-7248888D02*
X6430903Y-7267936D01*
X6430903Y-7267936D02*
X6421379Y-7277460D01*
X6421379Y-7277460D02*
X6402332Y-7286984D01*
X6402332Y-7286984D02*
X6383284Y-7286984D01*
X6383284Y-7286984D02*
X6364236Y-7277460D01*
X6364236Y-7277460D02*
X6354713Y-7267936D01*
X6354713Y-7267936D02*
X6345189Y-7248888D01*
X6345189Y-7248888D02*
X6335665Y-7210793D01*
X6335665Y-7210793D02*
X6335665Y-7163174D01*
X6335665Y-7163174D02*
X6345189Y-7125079D01*
X6345189Y-7125079D02*
X6354713Y-7106031D01*
X6354713Y-7106031D02*
X6364236Y-7096508D01*
X6364236Y-7096508D02*
X6383284Y-7086984D01*
X6535665Y-7267936D02*
X6545189Y-7277460D01*
X6545189Y-7277460D02*
X6535665Y-7286984D01*
X6535665Y-7286984D02*
X6526141Y-7277460D01*
X6526141Y-7277460D02*
X6535665Y-7267936D01*
X6535665Y-7267936D02*
X6535665Y-7286984D01*
X6668998Y-7086984D02*
X6688046Y-7086984D01*
X6688046Y-7086984D02*
X6707094Y-7096508D01*
X6707094Y-7096508D02*
X6716617Y-7106031D01*
X6716617Y-7106031D02*
X6726141Y-7125079D01*
X6726141Y-7125079D02*
X6735665Y-7163174D01*
X6735665Y-7163174D02*
X6735665Y-7210793D01*
X6735665Y-7210793D02*
X6726141Y-7248888D01*
X6726141Y-7248888D02*
X6716617Y-7267936D01*
X6716617Y-7267936D02*
X6707094Y-7277460D01*
X6707094Y-7277460D02*
X6688046Y-7286984D01*
X6688046Y-7286984D02*
X6668998Y-7286984D01*
X6668998Y-7286984D02*
X6649951Y-7277460D01*
X6649951Y-7277460D02*
X6640427Y-7267936D01*
X6640427Y-7267936D02*
X6630903Y-7248888D01*
X6630903Y-7248888D02*
X6621379Y-7210793D01*
X6621379Y-7210793D02*
X6621379Y-7163174D01*
X6621379Y-7163174D02*
X6630903Y-7125079D01*
X6630903Y-7125079D02*
X6640427Y-7106031D01*
X6640427Y-7106031D02*
X6649951Y-7096508D01*
X6649951Y-7096508D02*
X6668998Y-7086984D01*
X6802332Y-7086984D02*
X6926141Y-7086984D01*
X6926141Y-7086984D02*
X6859475Y-7163174D01*
X6859475Y-7163174D02*
X6888046Y-7163174D01*
X6888046Y-7163174D02*
X6907094Y-7172698D01*
X6907094Y-7172698D02*
X6916617Y-7182222D01*
X6916617Y-7182222D02*
X6926141Y-7201269D01*
X6926141Y-7201269D02*
X6926141Y-7248888D01*
X6926141Y-7248888D02*
X6916617Y-7267936D01*
X6916617Y-7267936D02*
X6907094Y-7277460D01*
X6907094Y-7277460D02*
X6888046Y-7286984D01*
X6888046Y-7286984D02*
X6830903Y-7286984D01*
X6830903Y-7286984D02*
X6811856Y-7277460D01*
X6811856Y-7277460D02*
X6802332Y-7267936D01*
X7116617Y-7286984D02*
X7002332Y-7286984D01*
X7059475Y-7286984D02*
X7059475Y-7086984D01*
X7059475Y-7086984D02*
X7040427Y-7115555D01*
X7040427Y-7115555D02*
X7021379Y-7134603D01*
X7021379Y-7134603D02*
X7002332Y-7144127D01*
X7297570Y-7086984D02*
X7202332Y-7086984D01*
X7202332Y-7086984D02*
X7192808Y-7182222D01*
X7192808Y-7182222D02*
X7202332Y-7172698D01*
X7202332Y-7172698D02*
X7221379Y-7163174D01*
X7221379Y-7163174D02*
X7268998Y-7163174D01*
X7268998Y-7163174D02*
X7288046Y-7172698D01*
X7288046Y-7172698D02*
X7297570Y-7182222D01*
X7297570Y-7182222D02*
X7307094Y-7201269D01*
X7307094Y-7201269D02*
X7307094Y-7248888D01*
X7307094Y-7248888D02*
X7297570Y-7267936D01*
X7297570Y-7267936D02*
X7288046Y-7277460D01*
X7288046Y-7277460D02*
X7268998Y-7286984D01*
X7268998Y-7286984D02*
X7221379Y-7286984D01*
X7221379Y-7286984D02*
X7202332Y-7277460D01*
X7202332Y-7277460D02*
X7192808Y-7267936D01*
X7383284Y-7086984D02*
X7383284Y-7125079D01*
X7459475Y-7086984D02*
X7459475Y-7125079D01*
X7754713Y-7363174D02*
X7745189Y-7353650D01*
X7745189Y-7353650D02*
X7726141Y-7325079D01*
X7726141Y-7325079D02*
X7716618Y-7306031D01*
X7716618Y-7306031D02*
X7707094Y-7277460D01*
X7707094Y-7277460D02*
X7697570Y-7229841D01*
X7697570Y-7229841D02*
X7697570Y-7191746D01*
X7697570Y-7191746D02*
X7707094Y-7144127D01*
X7707094Y-7144127D02*
X7716618Y-7115555D01*
X7716618Y-7115555D02*
X7726141Y-7096508D01*
X7726141Y-7096508D02*
X7745189Y-7067936D01*
X7745189Y-7067936D02*
X7754713Y-7058412D01*
X7821379Y-7106031D02*
X7830903Y-7096508D01*
X7830903Y-7096508D02*
X7849951Y-7086984D01*
X7849951Y-7086984D02*
X7897570Y-7086984D01*
X7897570Y-7086984D02*
X7916618Y-7096508D01*
X7916618Y-7096508D02*
X7926141Y-7106031D01*
X7926141Y-7106031D02*
X7935665Y-7125079D01*
X7935665Y-7125079D02*
X7935665Y-7144127D01*
X7935665Y-7144127D02*
X7926141Y-7172698D01*
X7926141Y-7172698D02*
X7811856Y-7286984D01*
X7811856Y-7286984D02*
X7935665Y-7286984D01*
X8173760Y-7286984D02*
X8173760Y-7086984D01*
X8259475Y-7286984D02*
X8259475Y-7182222D01*
X8259475Y-7182222D02*
X8249951Y-7163174D01*
X8249951Y-7163174D02*
X8230903Y-7153650D01*
X8230903Y-7153650D02*
X8202332Y-7153650D01*
X8202332Y-7153650D02*
X8183284Y-7163174D01*
X8183284Y-7163174D02*
X8173760Y-7172698D01*
X8383284Y-7286984D02*
X8364237Y-7277460D01*
X8364237Y-7277460D02*
X8354713Y-7267936D01*
X8354713Y-7267936D02*
X8345189Y-7248888D01*
X8345189Y-7248888D02*
X8345189Y-7191746D01*
X8345189Y-7191746D02*
X8354713Y-7172698D01*
X8354713Y-7172698D02*
X8364237Y-7163174D01*
X8364237Y-7163174D02*
X8383284Y-7153650D01*
X8383284Y-7153650D02*
X8411856Y-7153650D01*
X8411856Y-7153650D02*
X8430903Y-7163174D01*
X8430903Y-7163174D02*
X8440427Y-7172698D01*
X8440427Y-7172698D02*
X8449951Y-7191746D01*
X8449951Y-7191746D02*
X8449951Y-7248888D01*
X8449951Y-7248888D02*
X8440427Y-7267936D01*
X8440427Y-7267936D02*
X8430903Y-7277460D01*
X8430903Y-7277460D02*
X8411856Y-7286984D01*
X8411856Y-7286984D02*
X8383284Y-7286984D01*
X8564237Y-7286984D02*
X8545189Y-7277460D01*
X8545189Y-7277460D02*
X8535665Y-7258412D01*
X8535665Y-7258412D02*
X8535665Y-7086984D01*
X8716618Y-7277460D02*
X8697570Y-7286984D01*
X8697570Y-7286984D02*
X8659475Y-7286984D01*
X8659475Y-7286984D02*
X8640427Y-7277460D01*
X8640427Y-7277460D02*
X8630903Y-7258412D01*
X8630903Y-7258412D02*
X8630903Y-7182222D01*
X8630903Y-7182222D02*
X8640427Y-7163174D01*
X8640427Y-7163174D02*
X8659475Y-7153650D01*
X8659475Y-7153650D02*
X8697570Y-7153650D01*
X8697570Y-7153650D02*
X8716618Y-7163174D01*
X8716618Y-7163174D02*
X8726142Y-7182222D01*
X8726142Y-7182222D02*
X8726142Y-7201269D01*
X8726142Y-7201269D02*
X8630903Y-7220317D01*
X8802332Y-7277460D02*
X8821380Y-7286984D01*
X8821380Y-7286984D02*
X8859475Y-7286984D01*
X8859475Y-7286984D02*
X8878523Y-7277460D01*
X8878523Y-7277460D02*
X8888046Y-7258412D01*
X8888046Y-7258412D02*
X8888046Y-7248888D01*
X8888046Y-7248888D02*
X8878523Y-7229841D01*
X8878523Y-7229841D02*
X8859475Y-7220317D01*
X8859475Y-7220317D02*
X8830903Y-7220317D01*
X8830903Y-7220317D02*
X8811856Y-7210793D01*
X8811856Y-7210793D02*
X8802332Y-7191746D01*
X8802332Y-7191746D02*
X8802332Y-7182222D01*
X8802332Y-7182222D02*
X8811856Y-7163174D01*
X8811856Y-7163174D02*
X8830903Y-7153650D01*
X8830903Y-7153650D02*
X8859475Y-7153650D01*
X8859475Y-7153650D02*
X8878523Y-7163174D01*
X8954713Y-7363174D02*
X8964237Y-7353650D01*
X8964237Y-7353650D02*
X8983284Y-7325079D01*
X8983284Y-7325079D02*
X8992808Y-7306031D01*
X8992808Y-7306031D02*
X9002332Y-7277460D01*
X9002332Y-7277460D02*
X9011856Y-7229841D01*
X9011856Y-7229841D02*
X9011856Y-7191746D01*
X9011856Y-7191746D02*
X9002332Y-7144127D01*
X9002332Y-7144127D02*
X8992808Y-7115555D01*
X8992808Y-7115555D02*
X8983284Y-7096508D01*
X8983284Y-7096508D02*
X8964237Y-7067936D01*
X8964237Y-7067936D02*
X8954713Y-7058412D01*
D10*
X4129650Y-7409500D02*
X4129650Y-7509500D01*
X4079650Y-7459500D02*
X4179650Y-7459500D01*
D11*
X4545189Y-7550984D02*
X4430903Y-7550984D01*
X4488046Y-7550984D02*
X4488046Y-7350984D01*
X4488046Y-7350984D02*
X4468998Y-7379555D01*
X4468998Y-7379555D02*
X4449951Y-7398603D01*
X4449951Y-7398603D02*
X4430903Y-7408127D01*
X4630903Y-7531936D02*
X4640427Y-7541460D01*
X4640427Y-7541460D02*
X4630903Y-7550984D01*
X4630903Y-7550984D02*
X4621379Y-7541460D01*
X4621379Y-7541460D02*
X4630903Y-7531936D01*
X4630903Y-7531936D02*
X4630903Y-7550984D01*
X4764236Y-7350984D02*
X4783284Y-7350984D01*
X4783284Y-7350984D02*
X4802332Y-7360508D01*
X4802332Y-7360508D02*
X4811855Y-7370031D01*
X4811855Y-7370031D02*
X4821379Y-7389079D01*
X4821379Y-7389079D02*
X4830903Y-7427174D01*
X4830903Y-7427174D02*
X4830903Y-7474793D01*
X4830903Y-7474793D02*
X4821379Y-7512888D01*
X4821379Y-7512888D02*
X4811855Y-7531936D01*
X4811855Y-7531936D02*
X4802332Y-7541460D01*
X4802332Y-7541460D02*
X4783284Y-7550984D01*
X4783284Y-7550984D02*
X4764236Y-7550984D01*
X4764236Y-7550984D02*
X4745189Y-7541460D01*
X4745189Y-7541460D02*
X4735665Y-7531936D01*
X4735665Y-7531936D02*
X4726141Y-7512888D01*
X4726141Y-7512888D02*
X4716617Y-7474793D01*
X4716617Y-7474793D02*
X4716617Y-7427174D01*
X4716617Y-7427174D02*
X4726141Y-7389079D01*
X4726141Y-7389079D02*
X4735665Y-7370031D01*
X4735665Y-7370031D02*
X4745189Y-7360508D01*
X4745189Y-7360508D02*
X4764236Y-7350984D01*
X4954713Y-7350984D02*
X4973760Y-7350984D01*
X4973760Y-7350984D02*
X4992808Y-7360508D01*
X4992808Y-7360508D02*
X5002332Y-7370031D01*
X5002332Y-7370031D02*
X5011855Y-7389079D01*
X5011855Y-7389079D02*
X5021379Y-7427174D01*
X5021379Y-7427174D02*
X5021379Y-7474793D01*
X5021379Y-7474793D02*
X5011855Y-7512888D01*
X5011855Y-7512888D02*
X5002332Y-7531936D01*
X5002332Y-7531936D02*
X4992808Y-7541460D01*
X4992808Y-7541460D02*
X4973760Y-7550984D01*
X4973760Y-7550984D02*
X4954713Y-7550984D01*
X4954713Y-7550984D02*
X4935665Y-7541460D01*
X4935665Y-7541460D02*
X4926141Y-7531936D01*
X4926141Y-7531936D02*
X4916617Y-7512888D01*
X4916617Y-7512888D02*
X4907094Y-7474793D01*
X4907094Y-7474793D02*
X4907094Y-7427174D01*
X4907094Y-7427174D02*
X4916617Y-7389079D01*
X4916617Y-7389079D02*
X4926141Y-7370031D01*
X4926141Y-7370031D02*
X4935665Y-7360508D01*
X4935665Y-7360508D02*
X4954713Y-7350984D01*
X5145189Y-7350984D02*
X5164236Y-7350984D01*
X5164236Y-7350984D02*
X5183284Y-7360508D01*
X5183284Y-7360508D02*
X5192808Y-7370031D01*
X5192808Y-7370031D02*
X5202332Y-7389079D01*
X5202332Y-7389079D02*
X5211855Y-7427174D01*
X5211855Y-7427174D02*
X5211855Y-7474793D01*
X5211855Y-7474793D02*
X5202332Y-7512888D01*
X5202332Y-7512888D02*
X5192808Y-7531936D01*
X5192808Y-7531936D02*
X5183284Y-7541460D01*
X5183284Y-7541460D02*
X5164236Y-7550984D01*
X5164236Y-7550984D02*
X5145189Y-7550984D01*
X5145189Y-7550984D02*
X5126141Y-7541460D01*
X5126141Y-7541460D02*
X5116617Y-7531936D01*
X5116617Y-7531936D02*
X5107094Y-7512888D01*
X5107094Y-7512888D02*
X5097570Y-7474793D01*
X5097570Y-7474793D02*
X5097570Y-7427174D01*
X5097570Y-7427174D02*
X5107094Y-7389079D01*
X5107094Y-7389079D02*
X5116617Y-7370031D01*
X5116617Y-7370031D02*
X5126141Y-7360508D01*
X5126141Y-7360508D02*
X5145189Y-7350984D01*
X5297570Y-7550984D02*
X5297570Y-7417650D01*
X5297570Y-7436698D02*
X5307094Y-7427174D01*
X5307094Y-7427174D02*
X5326141Y-7417650D01*
X5326141Y-7417650D02*
X5354713Y-7417650D01*
X5354713Y-7417650D02*
X5373760Y-7427174D01*
X5373760Y-7427174D02*
X5383284Y-7446222D01*
X5383284Y-7446222D02*
X5383284Y-7550984D01*
X5383284Y-7446222D02*
X5392808Y-7427174D01*
X5392808Y-7427174D02*
X5411855Y-7417650D01*
X5411855Y-7417650D02*
X5440427Y-7417650D01*
X5440427Y-7417650D02*
X5459475Y-7427174D01*
X5459475Y-7427174D02*
X5468998Y-7446222D01*
X5468998Y-7446222D02*
X5468998Y-7550984D01*
X5564236Y-7550984D02*
X5564236Y-7417650D01*
X5564236Y-7436698D02*
X5573760Y-7427174D01*
X5573760Y-7427174D02*
X5592808Y-7417650D01*
X5592808Y-7417650D02*
X5621379Y-7417650D01*
X5621379Y-7417650D02*
X5640427Y-7427174D01*
X5640427Y-7427174D02*
X5649951Y-7446222D01*
X5649951Y-7446222D02*
X5649951Y-7550984D01*
X5649951Y-7446222D02*
X5659474Y-7427174D01*
X5659474Y-7427174D02*
X5678522Y-7417650D01*
X5678522Y-7417650D02*
X5707093Y-7417650D01*
X5707093Y-7417650D02*
X5726141Y-7427174D01*
X5726141Y-7427174D02*
X5735665Y-7446222D01*
X5735665Y-7446222D02*
X5735665Y-7550984D01*
X6126141Y-7341460D02*
X5954713Y-7598603D01*
X6383284Y-7350984D02*
X6402332Y-7350984D01*
X6402332Y-7350984D02*
X6421379Y-7360508D01*
X6421379Y-7360508D02*
X6430903Y-7370031D01*
X6430903Y-7370031D02*
X6440427Y-7389079D01*
X6440427Y-7389079D02*
X6449951Y-7427174D01*
X6449951Y-7427174D02*
X6449951Y-7474793D01*
X6449951Y-7474793D02*
X6440427Y-7512888D01*
X6440427Y-7512888D02*
X6430903Y-7531936D01*
X6430903Y-7531936D02*
X6421379Y-7541460D01*
X6421379Y-7541460D02*
X6402332Y-7550984D01*
X6402332Y-7550984D02*
X6383284Y-7550984D01*
X6383284Y-7550984D02*
X6364236Y-7541460D01*
X6364236Y-7541460D02*
X6354713Y-7531936D01*
X6354713Y-7531936D02*
X6345189Y-7512888D01*
X6345189Y-7512888D02*
X6335665Y-7474793D01*
X6335665Y-7474793D02*
X6335665Y-7427174D01*
X6335665Y-7427174D02*
X6345189Y-7389079D01*
X6345189Y-7389079D02*
X6354713Y-7370031D01*
X6354713Y-7370031D02*
X6364236Y-7360508D01*
X6364236Y-7360508D02*
X6383284Y-7350984D01*
X6535665Y-7531936D02*
X6545189Y-7541460D01*
X6545189Y-7541460D02*
X6535665Y-7550984D01*
X6535665Y-7550984D02*
X6526141Y-7541460D01*
X6526141Y-7541460D02*
X6535665Y-7531936D01*
X6535665Y-7531936D02*
X6535665Y-7550984D01*
X6668998Y-7350984D02*
X6688046Y-7350984D01*
X6688046Y-7350984D02*
X6707094Y-7360508D01*
X6707094Y-7360508D02*
X6716617Y-7370031D01*
X6716617Y-7370031D02*
X6726141Y-7389079D01*
X6726141Y-7389079D02*
X6735665Y-7427174D01*
X6735665Y-7427174D02*
X6735665Y-7474793D01*
X6735665Y-7474793D02*
X6726141Y-7512888D01*
X6726141Y-7512888D02*
X6716617Y-7531936D01*
X6716617Y-7531936D02*
X6707094Y-7541460D01*
X6707094Y-7541460D02*
X6688046Y-7550984D01*
X6688046Y-7550984D02*
X6668998Y-7550984D01*
X6668998Y-7550984D02*
X6649951Y-7541460D01*
X6649951Y-7541460D02*
X6640427Y-7531936D01*
X6640427Y-7531936D02*
X6630903Y-7512888D01*
X6630903Y-7512888D02*
X6621379Y-7474793D01*
X6621379Y-7474793D02*
X6621379Y-7427174D01*
X6621379Y-7427174D02*
X6630903Y-7389079D01*
X6630903Y-7389079D02*
X6640427Y-7370031D01*
X6640427Y-7370031D02*
X6649951Y-7360508D01*
X6649951Y-7360508D02*
X6668998Y-7350984D01*
X6802332Y-7350984D02*
X6926141Y-7350984D01*
X6926141Y-7350984D02*
X6859475Y-7427174D01*
X6859475Y-7427174D02*
X6888046Y-7427174D01*
X6888046Y-7427174D02*
X6907094Y-7436698D01*
X6907094Y-7436698D02*
X6916617Y-7446222D01*
X6916617Y-7446222D02*
X6926141Y-7465269D01*
X6926141Y-7465269D02*
X6926141Y-7512888D01*
X6926141Y-7512888D02*
X6916617Y-7531936D01*
X6916617Y-7531936D02*
X6907094Y-7541460D01*
X6907094Y-7541460D02*
X6888046Y-7550984D01*
X6888046Y-7550984D02*
X6830903Y-7550984D01*
X6830903Y-7550984D02*
X6811856Y-7541460D01*
X6811856Y-7541460D02*
X6802332Y-7531936D01*
X7021379Y-7550984D02*
X7059475Y-7550984D01*
X7059475Y-7550984D02*
X7078522Y-7541460D01*
X7078522Y-7541460D02*
X7088046Y-7531936D01*
X7088046Y-7531936D02*
X7107094Y-7503365D01*
X7107094Y-7503365D02*
X7116617Y-7465269D01*
X7116617Y-7465269D02*
X7116617Y-7389079D01*
X7116617Y-7389079D02*
X7107094Y-7370031D01*
X7107094Y-7370031D02*
X7097570Y-7360508D01*
X7097570Y-7360508D02*
X7078522Y-7350984D01*
X7078522Y-7350984D02*
X7040427Y-7350984D01*
X7040427Y-7350984D02*
X7021379Y-7360508D01*
X7021379Y-7360508D02*
X7011856Y-7370031D01*
X7011856Y-7370031D02*
X7002332Y-7389079D01*
X7002332Y-7389079D02*
X7002332Y-7436698D01*
X7002332Y-7436698D02*
X7011856Y-7455746D01*
X7011856Y-7455746D02*
X7021379Y-7465269D01*
X7021379Y-7465269D02*
X7040427Y-7474793D01*
X7040427Y-7474793D02*
X7078522Y-7474793D01*
X7078522Y-7474793D02*
X7097570Y-7465269D01*
X7097570Y-7465269D02*
X7107094Y-7455746D01*
X7107094Y-7455746D02*
X7116617Y-7436698D01*
X7288046Y-7417650D02*
X7288046Y-7550984D01*
X7240427Y-7341460D02*
X7192808Y-7484317D01*
X7192808Y-7484317D02*
X7316617Y-7484317D01*
X7383284Y-7350984D02*
X7383284Y-7389079D01*
X7459475Y-7350984D02*
X7459475Y-7389079D01*
X7754713Y-7627174D02*
X7745189Y-7617650D01*
X7745189Y-7617650D02*
X7726141Y-7589079D01*
X7726141Y-7589079D02*
X7716618Y-7570031D01*
X7716618Y-7570031D02*
X7707094Y-7541460D01*
X7707094Y-7541460D02*
X7697570Y-7493841D01*
X7697570Y-7493841D02*
X7697570Y-7455746D01*
X7697570Y-7455746D02*
X7707094Y-7408127D01*
X7707094Y-7408127D02*
X7716618Y-7379555D01*
X7716618Y-7379555D02*
X7726141Y-7360508D01*
X7726141Y-7360508D02*
X7745189Y-7331936D01*
X7745189Y-7331936D02*
X7754713Y-7322412D01*
X7926141Y-7350984D02*
X7830903Y-7350984D01*
X7830903Y-7350984D02*
X7821379Y-7446222D01*
X7821379Y-7446222D02*
X7830903Y-7436698D01*
X7830903Y-7436698D02*
X7849951Y-7427174D01*
X7849951Y-7427174D02*
X7897570Y-7427174D01*
X7897570Y-7427174D02*
X7916618Y-7436698D01*
X7916618Y-7436698D02*
X7926141Y-7446222D01*
X7926141Y-7446222D02*
X7935665Y-7465269D01*
X7935665Y-7465269D02*
X7935665Y-7512888D01*
X7935665Y-7512888D02*
X7926141Y-7531936D01*
X7926141Y-7531936D02*
X7916618Y-7541460D01*
X7916618Y-7541460D02*
X7897570Y-7550984D01*
X7897570Y-7550984D02*
X7849951Y-7550984D01*
X7849951Y-7550984D02*
X7830903Y-7541460D01*
X7830903Y-7541460D02*
X7821379Y-7531936D01*
X8049951Y-7436698D02*
X8030903Y-7427174D01*
X8030903Y-7427174D02*
X8021379Y-7417650D01*
X8021379Y-7417650D02*
X8011856Y-7398603D01*
X8011856Y-7398603D02*
X8011856Y-7389079D01*
X8011856Y-7389079D02*
X8021379Y-7370031D01*
X8021379Y-7370031D02*
X8030903Y-7360508D01*
X8030903Y-7360508D02*
X8049951Y-7350984D01*
X8049951Y-7350984D02*
X8088046Y-7350984D01*
X8088046Y-7350984D02*
X8107094Y-7360508D01*
X8107094Y-7360508D02*
X8116618Y-7370031D01*
X8116618Y-7370031D02*
X8126141Y-7389079D01*
X8126141Y-7389079D02*
X8126141Y-7398603D01*
X8126141Y-7398603D02*
X8116618Y-7417650D01*
X8116618Y-7417650D02*
X8107094Y-7427174D01*
X8107094Y-7427174D02*
X8088046Y-7436698D01*
X8088046Y-7436698D02*
X8049951Y-7436698D01*
X8049951Y-7436698D02*
X8030903Y-7446222D01*
X8030903Y-7446222D02*
X8021379Y-7455746D01*
X8021379Y-7455746D02*
X8011856Y-7474793D01*
X8011856Y-7474793D02*
X8011856Y-7512888D01*
X8011856Y-7512888D02*
X8021379Y-7531936D01*
X8021379Y-7531936D02*
X8030903Y-7541460D01*
X8030903Y-7541460D02*
X8049951Y-7550984D01*
X8049951Y-7550984D02*
X8088046Y-7550984D01*
X8088046Y-7550984D02*
X8107094Y-7541460D01*
X8107094Y-7541460D02*
X8116618Y-7531936D01*
X8116618Y-7531936D02*
X8126141Y-7512888D01*
X8126141Y-7512888D02*
X8126141Y-7474793D01*
X8126141Y-7474793D02*
X8116618Y-7455746D01*
X8116618Y-7455746D02*
X8107094Y-7446222D01*
X8107094Y-7446222D02*
X8088046Y-7436698D01*
X8364237Y-7550984D02*
X8364237Y-7350984D01*
X8449951Y-7550984D02*
X8449951Y-7446222D01*
X8449951Y-7446222D02*
X8440427Y-7427174D01*
X8440427Y-7427174D02*
X8421380Y-7417650D01*
X8421380Y-7417650D02*
X8392808Y-7417650D01*
X8392808Y-7417650D02*
X8373760Y-7427174D01*
X8373760Y-7427174D02*
X8364237Y-7436698D01*
X8573761Y-7550984D02*
X8554713Y-7541460D01*
X8554713Y-7541460D02*
X8545189Y-7531936D01*
X8545189Y-7531936D02*
X8535665Y-7512888D01*
X8535665Y-7512888D02*
X8535665Y-7455746D01*
X8535665Y-7455746D02*
X8545189Y-7436698D01*
X8545189Y-7436698D02*
X8554713Y-7427174D01*
X8554713Y-7427174D02*
X8573761Y-7417650D01*
X8573761Y-7417650D02*
X8602332Y-7417650D01*
X8602332Y-7417650D02*
X8621380Y-7427174D01*
X8621380Y-7427174D02*
X8630903Y-7436698D01*
X8630903Y-7436698D02*
X8640427Y-7455746D01*
X8640427Y-7455746D02*
X8640427Y-7512888D01*
X8640427Y-7512888D02*
X8630903Y-7531936D01*
X8630903Y-7531936D02*
X8621380Y-7541460D01*
X8621380Y-7541460D02*
X8602332Y-7550984D01*
X8602332Y-7550984D02*
X8573761Y-7550984D01*
X8754713Y-7550984D02*
X8735665Y-7541460D01*
X8735665Y-7541460D02*
X8726142Y-7522412D01*
X8726142Y-7522412D02*
X8726142Y-7350984D01*
X8907094Y-7541460D02*
X8888046Y-7550984D01*
X8888046Y-7550984D02*
X8849951Y-7550984D01*
X8849951Y-7550984D02*
X8830903Y-7541460D01*
X8830903Y-7541460D02*
X8821380Y-7522412D01*
X8821380Y-7522412D02*
X8821380Y-7446222D01*
X8821380Y-7446222D02*
X8830903Y-7427174D01*
X8830903Y-7427174D02*
X8849951Y-7417650D01*
X8849951Y-7417650D02*
X8888046Y-7417650D01*
X8888046Y-7417650D02*
X8907094Y-7427174D01*
X8907094Y-7427174D02*
X8916618Y-7446222D01*
X8916618Y-7446222D02*
X8916618Y-7465269D01*
X8916618Y-7465269D02*
X8821380Y-7484317D01*
X8992808Y-7541460D02*
X9011856Y-7550984D01*
X9011856Y-7550984D02*
X9049951Y-7550984D01*
X9049951Y-7550984D02*
X9068999Y-7541460D01*
X9068999Y-7541460D02*
X9078523Y-7522412D01*
X9078523Y-7522412D02*
X9078523Y-7512888D01*
X9078523Y-7512888D02*
X9068999Y-7493841D01*
X9068999Y-7493841D02*
X9049951Y-7484317D01*
X9049951Y-7484317D02*
X9021380Y-7484317D01*
X9021380Y-7484317D02*
X9002332Y-7474793D01*
X9002332Y-7474793D02*
X8992808Y-7455746D01*
X8992808Y-7455746D02*
X8992808Y-7446222D01*
X8992808Y-7446222D02*
X9002332Y-7427174D01*
X9002332Y-7427174D02*
X9021380Y-7417650D01*
X9021380Y-7417650D02*
X9049951Y-7417650D01*
X9049951Y-7417650D02*
X9068999Y-7427174D01*
X9145189Y-7627174D02*
X9154713Y-7617650D01*
X9154713Y-7617650D02*
X9173761Y-7589079D01*
X9173761Y-7589079D02*
X9183284Y-7570031D01*
X9183284Y-7570031D02*
X9192808Y-7541460D01*
X9192808Y-7541460D02*
X9202332Y-7493841D01*
X9202332Y-7493841D02*
X9202332Y-7455746D01*
X9202332Y-7455746D02*
X9192808Y-7408127D01*
X9192808Y-7408127D02*
X9183284Y-7379555D01*
X9183284Y-7379555D02*
X9173761Y-7360508D01*
X9173761Y-7360508D02*
X9154713Y-7331936D01*
X9154713Y-7331936D02*
X9145189Y-7322412D01*
X4150361Y-7794211D02*
X4150361Y-7652789D01*
X4008939Y-7652789D01*
X4008939Y-7794211D01*
X4150361Y-7794211D01*
X4430903Y-7634031D02*
X4440427Y-7624508D01*
X4440427Y-7624508D02*
X4459474Y-7614984D01*
X4459474Y-7614984D02*
X4507094Y-7614984D01*
X4507094Y-7614984D02*
X4526141Y-7624508D01*
X4526141Y-7624508D02*
X4535665Y-7634031D01*
X4535665Y-7634031D02*
X4545189Y-7653079D01*
X4545189Y-7653079D02*
X4545189Y-7672127D01*
X4545189Y-7672127D02*
X4535665Y-7700698D01*
X4535665Y-7700698D02*
X4421379Y-7814984D01*
X4421379Y-7814984D02*
X4545189Y-7814984D01*
X4630903Y-7795936D02*
X4640427Y-7805460D01*
X4640427Y-7805460D02*
X4630903Y-7814984D01*
X4630903Y-7814984D02*
X4621379Y-7805460D01*
X4621379Y-7805460D02*
X4630903Y-7795936D01*
X4630903Y-7795936D02*
X4630903Y-7814984D01*
X4707094Y-7614984D02*
X4840427Y-7614984D01*
X4840427Y-7614984D02*
X4754713Y-7814984D01*
X4954713Y-7614984D02*
X4973760Y-7614984D01*
X4973760Y-7614984D02*
X4992808Y-7624508D01*
X4992808Y-7624508D02*
X5002332Y-7634031D01*
X5002332Y-7634031D02*
X5011855Y-7653079D01*
X5011855Y-7653079D02*
X5021379Y-7691174D01*
X5021379Y-7691174D02*
X5021379Y-7738793D01*
X5021379Y-7738793D02*
X5011855Y-7776888D01*
X5011855Y-7776888D02*
X5002332Y-7795936D01*
X5002332Y-7795936D02*
X4992808Y-7805460D01*
X4992808Y-7805460D02*
X4973760Y-7814984D01*
X4973760Y-7814984D02*
X4954713Y-7814984D01*
X4954713Y-7814984D02*
X4935665Y-7805460D01*
X4935665Y-7805460D02*
X4926141Y-7795936D01*
X4926141Y-7795936D02*
X4916617Y-7776888D01*
X4916617Y-7776888D02*
X4907094Y-7738793D01*
X4907094Y-7738793D02*
X4907094Y-7691174D01*
X4907094Y-7691174D02*
X4916617Y-7653079D01*
X4916617Y-7653079D02*
X4926141Y-7634031D01*
X4926141Y-7634031D02*
X4935665Y-7624508D01*
X4935665Y-7624508D02*
X4954713Y-7614984D01*
X5145189Y-7614984D02*
X5164236Y-7614984D01*
X5164236Y-7614984D02*
X5183284Y-7624508D01*
X5183284Y-7624508D02*
X5192808Y-7634031D01*
X5192808Y-7634031D02*
X5202332Y-7653079D01*
X5202332Y-7653079D02*
X5211855Y-7691174D01*
X5211855Y-7691174D02*
X5211855Y-7738793D01*
X5211855Y-7738793D02*
X5202332Y-7776888D01*
X5202332Y-7776888D02*
X5192808Y-7795936D01*
X5192808Y-7795936D02*
X5183284Y-7805460D01*
X5183284Y-7805460D02*
X5164236Y-7814984D01*
X5164236Y-7814984D02*
X5145189Y-7814984D01*
X5145189Y-7814984D02*
X5126141Y-7805460D01*
X5126141Y-7805460D02*
X5116617Y-7795936D01*
X5116617Y-7795936D02*
X5107094Y-7776888D01*
X5107094Y-7776888D02*
X5097570Y-7738793D01*
X5097570Y-7738793D02*
X5097570Y-7691174D01*
X5097570Y-7691174D02*
X5107094Y-7653079D01*
X5107094Y-7653079D02*
X5116617Y-7634031D01*
X5116617Y-7634031D02*
X5126141Y-7624508D01*
X5126141Y-7624508D02*
X5145189Y-7614984D01*
X5297570Y-7814984D02*
X5297570Y-7681650D01*
X5297570Y-7700698D02*
X5307094Y-7691174D01*
X5307094Y-7691174D02*
X5326141Y-7681650D01*
X5326141Y-7681650D02*
X5354713Y-7681650D01*
X5354713Y-7681650D02*
X5373760Y-7691174D01*
X5373760Y-7691174D02*
X5383284Y-7710222D01*
X5383284Y-7710222D02*
X5383284Y-7814984D01*
X5383284Y-7710222D02*
X5392808Y-7691174D01*
X5392808Y-7691174D02*
X5411855Y-7681650D01*
X5411855Y-7681650D02*
X5440427Y-7681650D01*
X5440427Y-7681650D02*
X5459475Y-7691174D01*
X5459475Y-7691174D02*
X5468998Y-7710222D01*
X5468998Y-7710222D02*
X5468998Y-7814984D01*
X5564236Y-7814984D02*
X5564236Y-7681650D01*
X5564236Y-7700698D02*
X5573760Y-7691174D01*
X5573760Y-7691174D02*
X5592808Y-7681650D01*
X5592808Y-7681650D02*
X5621379Y-7681650D01*
X5621379Y-7681650D02*
X5640427Y-7691174D01*
X5640427Y-7691174D02*
X5649951Y-7710222D01*
X5649951Y-7710222D02*
X5649951Y-7814984D01*
X5649951Y-7710222D02*
X5659474Y-7691174D01*
X5659474Y-7691174D02*
X5678522Y-7681650D01*
X5678522Y-7681650D02*
X5707093Y-7681650D01*
X5707093Y-7681650D02*
X5726141Y-7691174D01*
X5726141Y-7691174D02*
X5735665Y-7710222D01*
X5735665Y-7710222D02*
X5735665Y-7814984D01*
X6126141Y-7605460D02*
X5954713Y-7862603D01*
X6383284Y-7614984D02*
X6402332Y-7614984D01*
X6402332Y-7614984D02*
X6421379Y-7624508D01*
X6421379Y-7624508D02*
X6430903Y-7634031D01*
X6430903Y-7634031D02*
X6440427Y-7653079D01*
X6440427Y-7653079D02*
X6449951Y-7691174D01*
X6449951Y-7691174D02*
X6449951Y-7738793D01*
X6449951Y-7738793D02*
X6440427Y-7776888D01*
X6440427Y-7776888D02*
X6430903Y-7795936D01*
X6430903Y-7795936D02*
X6421379Y-7805460D01*
X6421379Y-7805460D02*
X6402332Y-7814984D01*
X6402332Y-7814984D02*
X6383284Y-7814984D01*
X6383284Y-7814984D02*
X6364236Y-7805460D01*
X6364236Y-7805460D02*
X6354713Y-7795936D01*
X6354713Y-7795936D02*
X6345189Y-7776888D01*
X6345189Y-7776888D02*
X6335665Y-7738793D01*
X6335665Y-7738793D02*
X6335665Y-7691174D01*
X6335665Y-7691174D02*
X6345189Y-7653079D01*
X6345189Y-7653079D02*
X6354713Y-7634031D01*
X6354713Y-7634031D02*
X6364236Y-7624508D01*
X6364236Y-7624508D02*
X6383284Y-7614984D01*
X6535665Y-7795936D02*
X6545189Y-7805460D01*
X6545189Y-7805460D02*
X6535665Y-7814984D01*
X6535665Y-7814984D02*
X6526141Y-7805460D01*
X6526141Y-7805460D02*
X6535665Y-7795936D01*
X6535665Y-7795936D02*
X6535665Y-7814984D01*
X6735665Y-7814984D02*
X6621379Y-7814984D01*
X6678522Y-7814984D02*
X6678522Y-7614984D01*
X6678522Y-7614984D02*
X6659475Y-7643555D01*
X6659475Y-7643555D02*
X6640427Y-7662603D01*
X6640427Y-7662603D02*
X6621379Y-7672127D01*
X6859475Y-7614984D02*
X6878522Y-7614984D01*
X6878522Y-7614984D02*
X6897570Y-7624508D01*
X6897570Y-7624508D02*
X6907094Y-7634031D01*
X6907094Y-7634031D02*
X6916617Y-7653079D01*
X6916617Y-7653079D02*
X6926141Y-7691174D01*
X6926141Y-7691174D02*
X6926141Y-7738793D01*
X6926141Y-7738793D02*
X6916617Y-7776888D01*
X6916617Y-7776888D02*
X6907094Y-7795936D01*
X6907094Y-7795936D02*
X6897570Y-7805460D01*
X6897570Y-7805460D02*
X6878522Y-7814984D01*
X6878522Y-7814984D02*
X6859475Y-7814984D01*
X6859475Y-7814984D02*
X6840427Y-7805460D01*
X6840427Y-7805460D02*
X6830903Y-7795936D01*
X6830903Y-7795936D02*
X6821379Y-7776888D01*
X6821379Y-7776888D02*
X6811856Y-7738793D01*
X6811856Y-7738793D02*
X6811856Y-7691174D01*
X6811856Y-7691174D02*
X6821379Y-7653079D01*
X6821379Y-7653079D02*
X6830903Y-7634031D01*
X6830903Y-7634031D02*
X6840427Y-7624508D01*
X6840427Y-7624508D02*
X6859475Y-7614984D01*
X7097570Y-7614984D02*
X7059475Y-7614984D01*
X7059475Y-7614984D02*
X7040427Y-7624508D01*
X7040427Y-7624508D02*
X7030903Y-7634031D01*
X7030903Y-7634031D02*
X7011856Y-7662603D01*
X7011856Y-7662603D02*
X7002332Y-7700698D01*
X7002332Y-7700698D02*
X7002332Y-7776888D01*
X7002332Y-7776888D02*
X7011856Y-7795936D01*
X7011856Y-7795936D02*
X7021379Y-7805460D01*
X7021379Y-7805460D02*
X7040427Y-7814984D01*
X7040427Y-7814984D02*
X7078522Y-7814984D01*
X7078522Y-7814984D02*
X7097570Y-7805460D01*
X7097570Y-7805460D02*
X7107094Y-7795936D01*
X7107094Y-7795936D02*
X7116617Y-7776888D01*
X7116617Y-7776888D02*
X7116617Y-7729269D01*
X7116617Y-7729269D02*
X7107094Y-7710222D01*
X7107094Y-7710222D02*
X7097570Y-7700698D01*
X7097570Y-7700698D02*
X7078522Y-7691174D01*
X7078522Y-7691174D02*
X7040427Y-7691174D01*
X7040427Y-7691174D02*
X7021379Y-7700698D01*
X7021379Y-7700698D02*
X7011856Y-7710222D01*
X7011856Y-7710222D02*
X7002332Y-7729269D01*
X7183284Y-7614984D02*
X7307094Y-7614984D01*
X7307094Y-7614984D02*
X7240427Y-7691174D01*
X7240427Y-7691174D02*
X7268998Y-7691174D01*
X7268998Y-7691174D02*
X7288046Y-7700698D01*
X7288046Y-7700698D02*
X7297570Y-7710222D01*
X7297570Y-7710222D02*
X7307094Y-7729269D01*
X7307094Y-7729269D02*
X7307094Y-7776888D01*
X7307094Y-7776888D02*
X7297570Y-7795936D01*
X7297570Y-7795936D02*
X7288046Y-7805460D01*
X7288046Y-7805460D02*
X7268998Y-7814984D01*
X7268998Y-7814984D02*
X7211856Y-7814984D01*
X7211856Y-7814984D02*
X7192808Y-7805460D01*
X7192808Y-7805460D02*
X7183284Y-7795936D01*
X7383284Y-7614984D02*
X7383284Y-7653079D01*
X7459475Y-7614984D02*
X7459475Y-7653079D01*
X7754713Y-7891174D02*
X7745189Y-7881650D01*
X7745189Y-7881650D02*
X7726141Y-7853079D01*
X7726141Y-7853079D02*
X7716618Y-7834031D01*
X7716618Y-7834031D02*
X7707094Y-7805460D01*
X7707094Y-7805460D02*
X7697570Y-7757841D01*
X7697570Y-7757841D02*
X7697570Y-7719746D01*
X7697570Y-7719746D02*
X7707094Y-7672127D01*
X7707094Y-7672127D02*
X7716618Y-7643555D01*
X7716618Y-7643555D02*
X7726141Y-7624508D01*
X7726141Y-7624508D02*
X7745189Y-7595936D01*
X7745189Y-7595936D02*
X7754713Y-7586412D01*
X7821379Y-7634031D02*
X7830903Y-7624508D01*
X7830903Y-7624508D02*
X7849951Y-7614984D01*
X7849951Y-7614984D02*
X7897570Y-7614984D01*
X7897570Y-7614984D02*
X7916618Y-7624508D01*
X7916618Y-7624508D02*
X7926141Y-7634031D01*
X7926141Y-7634031D02*
X7935665Y-7653079D01*
X7935665Y-7653079D02*
X7935665Y-7672127D01*
X7935665Y-7672127D02*
X7926141Y-7700698D01*
X7926141Y-7700698D02*
X7811856Y-7814984D01*
X7811856Y-7814984D02*
X7935665Y-7814984D01*
X8173760Y-7814984D02*
X8173760Y-7614984D01*
X8259475Y-7814984D02*
X8259475Y-7710222D01*
X8259475Y-7710222D02*
X8249951Y-7691174D01*
X8249951Y-7691174D02*
X8230903Y-7681650D01*
X8230903Y-7681650D02*
X8202332Y-7681650D01*
X8202332Y-7681650D02*
X8183284Y-7691174D01*
X8183284Y-7691174D02*
X8173760Y-7700698D01*
X8383284Y-7814984D02*
X8364237Y-7805460D01*
X8364237Y-7805460D02*
X8354713Y-7795936D01*
X8354713Y-7795936D02*
X8345189Y-7776888D01*
X8345189Y-7776888D02*
X8345189Y-7719746D01*
X8345189Y-7719746D02*
X8354713Y-7700698D01*
X8354713Y-7700698D02*
X8364237Y-7691174D01*
X8364237Y-7691174D02*
X8383284Y-7681650D01*
X8383284Y-7681650D02*
X8411856Y-7681650D01*
X8411856Y-7681650D02*
X8430903Y-7691174D01*
X8430903Y-7691174D02*
X8440427Y-7700698D01*
X8440427Y-7700698D02*
X8449951Y-7719746D01*
X8449951Y-7719746D02*
X8449951Y-7776888D01*
X8449951Y-7776888D02*
X8440427Y-7795936D01*
X8440427Y-7795936D02*
X8430903Y-7805460D01*
X8430903Y-7805460D02*
X8411856Y-7814984D01*
X8411856Y-7814984D02*
X8383284Y-7814984D01*
X8564237Y-7814984D02*
X8545189Y-7805460D01*
X8545189Y-7805460D02*
X8535665Y-7786412D01*
X8535665Y-7786412D02*
X8535665Y-7614984D01*
X8716618Y-7805460D02*
X8697570Y-7814984D01*
X8697570Y-7814984D02*
X8659475Y-7814984D01*
X8659475Y-7814984D02*
X8640427Y-7805460D01*
X8640427Y-7805460D02*
X8630903Y-7786412D01*
X8630903Y-7786412D02*
X8630903Y-7710222D01*
X8630903Y-7710222D02*
X8640427Y-7691174D01*
X8640427Y-7691174D02*
X8659475Y-7681650D01*
X8659475Y-7681650D02*
X8697570Y-7681650D01*
X8697570Y-7681650D02*
X8716618Y-7691174D01*
X8716618Y-7691174D02*
X8726142Y-7710222D01*
X8726142Y-7710222D02*
X8726142Y-7729269D01*
X8726142Y-7729269D02*
X8630903Y-7748317D01*
X8802332Y-7805460D02*
X8821380Y-7814984D01*
X8821380Y-7814984D02*
X8859475Y-7814984D01*
X8859475Y-7814984D02*
X8878523Y-7805460D01*
X8878523Y-7805460D02*
X8888046Y-7786412D01*
X8888046Y-7786412D02*
X8888046Y-7776888D01*
X8888046Y-7776888D02*
X8878523Y-7757841D01*
X8878523Y-7757841D02*
X8859475Y-7748317D01*
X8859475Y-7748317D02*
X8830903Y-7748317D01*
X8830903Y-7748317D02*
X8811856Y-7738793D01*
X8811856Y-7738793D02*
X8802332Y-7719746D01*
X8802332Y-7719746D02*
X8802332Y-7710222D01*
X8802332Y-7710222D02*
X8811856Y-7691174D01*
X8811856Y-7691174D02*
X8830903Y-7681650D01*
X8830903Y-7681650D02*
X8859475Y-7681650D01*
X8859475Y-7681650D02*
X8878523Y-7691174D01*
X8954713Y-7891174D02*
X8964237Y-7881650D01*
X8964237Y-7881650D02*
X8983284Y-7853079D01*
X8983284Y-7853079D02*
X8992808Y-7834031D01*
X8992808Y-7834031D02*
X9002332Y-7805460D01*
X9002332Y-7805460D02*
X9011856Y-7757841D01*
X9011856Y-7757841D02*
X9011856Y-7719746D01*
X9011856Y-7719746D02*
X9002332Y-7672127D01*
X9002332Y-7672127D02*
X8992808Y-7643555D01*
X8992808Y-7643555D02*
X8983284Y-7624508D01*
X8983284Y-7624508D02*
X8964237Y-7595936D01*
X8964237Y-7595936D02*
X8954713Y-7586412D01*
M02*
