%TF.GenerationSoftware,KiCad,Pcbnew,8.0.4*%
%TF.CreationDate,2024-08-28T14:32:30-04:00*%
%TF.ProjectId,luytenPCB,6c757974-656e-4504-9342-2e6b69636164,rev?*%
%TF.SameCoordinates,Original*%
%TF.FileFunction,Soldermask,Bot*%
%TF.FilePolarity,Negative*%
%FSLAX46Y46*%
G04 Gerber Fmt 4.6, Leading zero omitted, Abs format (unit mm)*
G04 Created by KiCad (PCBNEW 8.0.4) date 2024-08-28 14:32:30*
%MOMM*%
%LPD*%
G01*
G04 APERTURE LIST*
G04 Aperture macros list*
%AMRoundRect*
0 Rectangle with rounded corners*
0 $1 Rounding radius*
0 $2 $3 $4 $5 $6 $7 $8 $9 X,Y pos of 4 corners*
0 Add a 4 corners polygon primitive as box body*
4,1,4,$2,$3,$4,$5,$6,$7,$8,$9,$2,$3,0*
0 Add four circle primitives for the rounded corners*
1,1,$1+$1,$2,$3*
1,1,$1+$1,$4,$5*
1,1,$1+$1,$6,$7*
1,1,$1+$1,$8,$9*
0 Add four rect primitives between the rounded corners*
20,1,$1+$1,$2,$3,$4,$5,0*
20,1,$1+$1,$4,$5,$6,$7,0*
20,1,$1+$1,$6,$7,$8,$9,0*
20,1,$1+$1,$8,$9,$2,$3,0*%
G04 Aperture macros list end*
%ADD10RoundRect,0.102000X0.654000X0.654000X-0.654000X0.654000X-0.654000X-0.654000X0.654000X-0.654000X0*%
%ADD11C,1.512000*%
%ADD12RoundRect,0.250000X0.325000X0.450000X-0.325000X0.450000X-0.325000X-0.450000X0.325000X-0.450000X0*%
%ADD13RoundRect,0.250000X-0.325000X-0.450000X0.325000X-0.450000X0.325000X0.450000X-0.325000X0.450000X0*%
%ADD14R,1.600000X1.600000*%
%ADD15O,1.600000X1.600000*%
%ADD16C,2.200000*%
%ADD17O,1.700000X1.700000*%
%ADD18R,1.700000X1.700000*%
%ADD19R,3.800000X3.800000*%
%ADD20C,3.800000*%
G04 APERTURE END LIST*
D10*
%TO.C,SW1*%
X95802700Y-54051200D03*
D11*
X95802700Y-48971200D03*
%TD*%
D12*
%TO.C,R4*%
X78901400Y-32258000D03*
X76851400Y-32258000D03*
%TD*%
D13*
%TO.C,R3*%
X95749000Y-34696400D03*
X97799000Y-34696400D03*
%TD*%
D14*
%TO.C,A1*%
X86918800Y-37439600D03*
D15*
X84378800Y-37439600D03*
X81838800Y-37439600D03*
X79298800Y-37439600D03*
X76758800Y-37439600D03*
X74218800Y-37439600D03*
X71678800Y-37439600D03*
X69138800Y-37439600D03*
X66598800Y-37439600D03*
X64058800Y-37439600D03*
X61518800Y-37439600D03*
X58978800Y-37439600D03*
X56438800Y-37439600D03*
X53898800Y-37439600D03*
X51358800Y-37439600D03*
X51358800Y-52679600D03*
X53898800Y-52679600D03*
X56438800Y-52679600D03*
X58978800Y-52679600D03*
X61518800Y-52679600D03*
X64058800Y-52679600D03*
X66598800Y-52679600D03*
X69138800Y-52679600D03*
X71678800Y-52679600D03*
X74218800Y-52679600D03*
X76758800Y-52679600D03*
X79298800Y-52679600D03*
X81838800Y-52679600D03*
X84378800Y-52679600D03*
X86918800Y-52679600D03*
%TD*%
D16*
%TO.C,H1*%
X44300000Y-33000000D03*
%TD*%
%TO.C,H2*%
X120300000Y-33000000D03*
%TD*%
%TO.C,H3*%
X44300000Y-57000000D03*
%TD*%
D17*
%TO.C,J7*%
X90932000Y-60452000D03*
X88392000Y-60452000D03*
D18*
X85852000Y-60452000D03*
%TD*%
%TO.C,J10*%
X116225548Y-48260000D03*
D17*
X116225548Y-50800000D03*
X116225548Y-53340000D03*
%TD*%
D18*
%TO.C,J8*%
X50800000Y-60452000D03*
D17*
X53340000Y-60452000D03*
X55880000Y-60452000D03*
%TD*%
D18*
%TO.C,J6*%
X97551000Y-60452000D03*
D17*
X100091000Y-60452000D03*
X102631000Y-60452000D03*
%TD*%
D16*
%TO.C,H4*%
X120300000Y-57000000D03*
%TD*%
D18*
%TO.C,J4*%
X50053000Y-30480000D03*
D17*
X52593000Y-30480000D03*
X55133000Y-30480000D03*
%TD*%
D18*
%TO.C,J5*%
X113269000Y-30480000D03*
D17*
X110729000Y-30480000D03*
X108189000Y-30480000D03*
%TD*%
D18*
%TO.C,J2*%
X102870000Y-30480000D03*
D17*
X100330000Y-30480000D03*
%TD*%
D19*
%TO.C,J1*%
X114879891Y-36399162D03*
D20*
X114879891Y-41399162D03*
%TD*%
D18*
%TO.C,J9*%
X62484000Y-60452000D03*
D17*
X65024000Y-60452000D03*
X67564000Y-60452000D03*
%TD*%
D18*
%TO.C,J3*%
X59944000Y-30480000D03*
D17*
X62484000Y-30480000D03*
%TD*%
%TO.C,J11*%
X79502000Y-60452000D03*
X76962000Y-60452000D03*
D18*
X74422000Y-60452000D03*
%TD*%
M02*
